<svg width="20" height="21" viewBox="0 0 20 21" fill="none" xmlns="http://www.w3.org/2000/svg">
<path d="M19.9993 10.8174C20.0189 12.7635 19.6189 14.6157 18.6015 16.3104C18.1502 17.062 17.6265 17.7613 16.9276 18.3183C15.7304 19.426 14.306 20.1202 12.7095 20.4533C9.1304 21.1998 5.93688 20.4418 3.20906 18.0083C2.32064 17.2152 1.60807 16.2811 1.09416 15.2098C0.503396 14.1283 0.172515 12.967 0.0520174 11.7547C-0.133615 9.88778 0.175772 8.09678 1.00949 6.40084C1.03294 6.35298 1.0642 6.3096 1.09221 6.26429C1.91811 4.58239 3.16412 3.26737 4.76512 2.27393C8.42174 0.00565523 13.1414 0.255133 16.5023 2.88518C16.6703 3.01662 16.8273 3.16145 17.0038 3.31203C16.0073 4.25188 15.0263 5.17642 14.0265 6.11946C13.5061 5.65432 12.8307 5.24405 12.0601 4.98947C9.09523 4.01134 5.78056 5.55542 4.59577 8.46685C4.55213 8.57404 4.49481 8.67549 4.44401 8.77885C4.36194 9.17253 4.26489 9.56365 4.20106 9.95924C4.06167 10.8251 4.17044 11.6743 4.41339 12.5114C4.43033 12.5695 4.42577 12.634 4.43163 12.6952C4.53259 12.9032 4.63224 13.1131 4.73516 13.3205C6.47814 16.8317 10.5757 17.6484 13.5269 15.9135C13.5817 15.8816 13.6435 15.8612 13.7015 15.8357C14.4076 15.3061 15.0185 14.6961 15.3663 13.8782C15.5051 13.5502 15.6034 13.205 15.7396 12.812H10.2227V8.97282H19.8534C19.9036 9.57897 19.9935 10.1979 19.9993 10.8174Z" fill="white"/>
</svg>
