<svg width="16" height="16" viewBox="0 0 16 16" fill="none" xmlns="http://www.w3.org/2000/svg">
<path d="M7.9998 3.93555C10.2146 3.93555 12.0428 5.76367 12.0428 7.97852C12.0428 10.2285 10.2146 12.0215 7.9998 12.0215C5.7498 12.0215 3.95684 10.2285 3.95684 7.97852C3.95684 5.76367 5.7498 3.93555 7.9998 3.93555ZM7.9998 10.6152C9.44121 10.6152 10.6014 9.45508 10.6014 7.97852C10.6014 6.53711 9.44121 5.37695 7.9998 5.37695C6.52324 5.37695 5.36309 6.53711 5.36309 7.97852C5.36309 9.45508 6.5584 10.6152 7.9998 10.6152ZM13.1326 3.79492C13.1326 4.32227 12.7107 4.74414 12.1834 4.74414C11.6561 4.74414 11.2342 4.32227 11.2342 3.79492C11.2342 3.26758 11.6561 2.8457 12.1834 2.8457C12.7107 2.8457 13.1326 3.26758 13.1326 3.79492ZM15.8045 4.74414C15.8748 6.04492 15.8748 9.94727 15.8045 11.248C15.7342 12.5137 15.4529 13.6035 14.5389 14.5527C13.6248 15.4668 12.4998 15.748 11.2342 15.8184C9.9334 15.8887 6.03105 15.8887 4.73027 15.8184C3.46465 15.748 2.3748 15.4668 1.42559 14.5527C0.511523 13.6035 0.230273 12.5137 0.159961 11.248C0.0896482 9.94727 0.0896482 6.04492 0.159961 4.74414C0.230273 3.47852 0.511523 2.35352 1.42559 1.43945C2.3748 0.525391 3.46465 0.244141 4.73027 0.173828C6.03105 0.103516 9.9334 0.103516 11.2342 0.173828C12.4998 0.244141 13.6248 0.525391 14.5389 1.43945C15.4529 2.35352 15.7342 3.47852 15.8045 4.74414ZM14.117 12.6191C14.5389 11.5996 14.4334 9.13867 14.4334 7.97852C14.4334 6.85352 14.5389 4.39258 14.117 3.33789C13.8357 2.66992 13.3084 2.10742 12.6404 1.86133C11.5857 1.43945 9.1248 1.54492 7.9998 1.54492C6.83965 1.54492 4.37871 1.43945 3.35918 1.86133C2.65605 2.14258 2.12871 2.66992 1.84746 3.33789C1.42559 4.39258 1.53105 6.85352 1.53105 7.97852C1.53105 9.13867 1.42559 11.5996 1.84746 12.6191C2.12871 13.3223 2.65605 13.8496 3.35918 14.1309C4.37871 14.5527 6.83965 14.4473 7.9998 14.4473C9.1248 14.4473 11.5857 14.5527 12.6404 14.1309C13.3084 13.8496 13.8709 13.3223 14.117 12.6191Z" fill="white"/>
</svg>
