<svg width="15" height="16" viewBox="0 0 15 16" fill="none" xmlns="http://www.w3.org/2000/svg">
<g id="fi-rr-phone-call" clip-path="url(#clip0_498_4)">
<path id="Vector" d="M8.12498 1.12502C8.12498 0.959261 8.19083 0.80029 8.30804 0.68308C8.42525 0.56587 8.58422 0.500022 8.74998 0.500022C10.407 0.501841 11.9957 1.16091 13.1674 2.33261C14.3391 3.50432 14.9982 5.09298 15 6.75002C15 6.91578 14.9341 7.07475 14.8169 7.19196C14.6997 7.30918 14.5407 7.37502 14.375 7.37502C14.2092 7.37502 14.0502 7.30918 13.933 7.19196C13.8158 7.07475 13.75 6.91578 13.75 6.75002C13.7485 5.4244 13.2212 4.15349 12.2839 3.21613C11.3465 2.27877 10.0756 1.75151 8.74998 1.75002C8.58422 1.75002 8.42525 1.68417 8.30804 1.56696C8.19083 1.44975 8.12498 1.29078 8.12498 1.12502ZM8.74998 4.25002C9.41302 4.25002 10.0489 4.51341 10.5177 4.98226C10.9866 5.4511 11.25 6.08698 11.25 6.75002C11.25 6.91578 11.3158 7.07475 11.433 7.19196C11.5502 7.30918 11.7092 7.37502 11.875 7.37502C12.0407 7.37502 12.1997 7.30918 12.3169 7.19196C12.4341 7.07475 12.5 6.91578 12.5 6.75002C12.499 5.75577 12.1036 4.80251 11.4005 4.09947C10.6975 3.39642 9.74424 3.00101 8.74998 3.00002C8.58422 3.00002 8.42525 3.06587 8.30804 3.18308C8.19083 3.30029 8.12498 3.45926 8.12498 3.62502C8.12498 3.79078 8.19083 3.94975 8.30804 4.06696C8.42525 4.18417 8.58422 4.25002 8.74998 4.25002ZM14.4331 10.9619C14.7953 11.3251 14.9987 11.8171 14.9987 12.33C14.9987 12.843 14.7953 13.335 14.4331 13.6981L13.8643 14.3538C8.74561 19.2544 -3.71063 6.80127 1.11436 1.66627L1.83311 1.04127C2.19672 0.689195 2.68432 0.494427 3.19043 0.499106C3.69653 0.503784 4.18045 0.707533 4.53749 1.06627C4.55686 1.08565 5.71498 2.59002 5.71498 2.59002C6.05863 2.95104 6.24992 3.4306 6.24911 3.92902C6.24829 4.42745 6.05543 4.90638 5.71061 5.26627L4.98686 6.17627C5.38739 7.14947 5.97627 8.03393 6.71968 8.77883C7.46308 9.52374 8.34635 10.1144 9.31873 10.5169L10.2344 9.78877C10.5943 9.44422 11.0731 9.25158 11.5714 9.25088C12.0697 9.25019 12.5491 9.44148 12.91 9.78502C12.91 9.78502 14.4137 10.9425 14.4331 10.9619ZM13.5731 11.8706C13.5731 11.8706 12.0775 10.72 12.0581 10.7006C11.9293 10.573 11.7554 10.5013 11.574 10.5013C11.3927 10.5013 11.2187 10.573 11.09 10.7006C11.0731 10.7181 9.81248 11.7225 9.81248 11.7225C9.72753 11.7901 9.62643 11.8345 9.51913 11.8511C9.41184 11.8678 9.30206 11.8562 9.2006 11.8175C7.94089 11.3485 6.79669 10.6142 5.84551 9.66445C4.89432 8.71466 4.15836 7.57154 3.68749 6.31252C3.64574 6.20968 3.63212 6.09758 3.64805 5.98773C3.66398 5.87789 3.70887 5.77427 3.77811 5.68752C3.77811 5.68752 4.78249 4.42627 4.79936 4.41002C4.92703 4.28126 4.99866 4.10728 4.99866 3.92596C4.99866 3.74464 4.92703 3.57066 4.79936 3.4419C4.77998 3.42315 3.62936 1.92627 3.62936 1.92627C3.49867 1.80909 3.32811 1.74633 3.15264 1.75086C2.97717 1.7554 2.81008 1.82687 2.68561 1.95065L1.96686 2.57565C-1.55938 6.81565 9.23498 17.0113 12.9506 13.5L13.52 12.8438C13.6534 12.7202 13.7335 12.5496 13.7435 12.368C13.7534 12.1864 13.6923 12.008 13.5731 11.8706Z" fill="black"/>
</g>
<defs>
<clipPath id="clip0_498_4">
<rect width="15" height="15" fill="white" transform="translate(0 0.5)"/>
</clipPath>
</defs>
</svg>
