<svg width="20" height="28" viewBox="0 0 20 28" fill="none" xmlns="http://www.w3.org/2000/svg">
<g id="Layer_1">
<g id="Group">
<path id="Vector" d="M8.46294 27.0566C7.22317 26.5701 5.98417 26.0805 4.74362 25.5978C4.24172 25.4026 3.91352 25.0751 3.8674 24.5148C3.83973 24.1766 3.95272 23.8838 4.16409 23.6255C5.36927 22.1567 6.57215 20.6856 7.78272 19.2214C8.17241 18.7502 8.68046 18.6126 9.20158 18.8063C9.72731 19.0015 10.0271 19.4558 10.0125 20.0715C9.96558 21.9799 9.91332 23.8876 9.86028 25.7961C9.84107 26.4786 9.46368 26.8752 8.82804 27.0574H8.46294V27.0566Z" fill="white"/>
<path id="Vector_2" d="M10.1787 11.7612C10.1895 12.5921 9.81283 13.104 9.08803 13.3146C8.45623 13.4983 7.80598 13.2324 7.44781 12.6136C5.74917 9.67829 4.05284 6.74219 2.36574 3.79993C1.82925 2.86376 2.232 1.91453 3.27501 1.62322C4.68618 1.22969 6.09889 0.843847 7.51314 0.464921C8.53002 0.192063 9.32937 0.798499 9.40162 1.84151C9.51691 3.51247 9.66218 5.18113 9.79362 6.85056C9.90507 8.26942 10.0157 9.68828 10.1264 11.1071C10.1456 11.3493 10.1649 11.5914 10.1787 11.762V11.7612Z" fill="white"/>
<path id="Vector_3" d="M11.8372 14.1201C11.9448 13.8711 12.0109 13.5921 12.1669 13.3784C13.3052 11.8251 14.4559 10.2802 15.6157 8.74216C16.1883 7.98354 17.1345 8.01582 17.6625 8.80519C18.3527 9.8359 19.0345 10.872 19.7055 11.915C20.2112 12.7013 19.873 13.5629 18.9692 13.8142C17.166 14.3154 15.3621 14.8127 13.5566 15.3053C12.6765 15.5459 11.9025 14.9994 11.8364 14.1194L11.8372 14.1201Z" fill="white"/>
<path id="Vector_4" d="M20.0001 20.5712C19.8864 20.8171 19.8095 21.0907 19.6527 21.3052C18.9249 22.299 18.1808 23.2813 17.4314 24.2597C16.8496 25.0191 15.9342 25.0007 15.3808 24.2175C14.294 22.6802 13.211 21.1407 12.1372 19.5942C11.5631 18.7672 12.0081 17.7242 12.9796 17.6074C13.1541 17.5866 13.3455 17.6174 13.5154 17.6689C15.3562 18.2253 17.1955 18.788 19.0332 19.3567C19.6212 19.5389 19.9533 19.9878 20.0001 20.5719V20.5712Z" fill="white"/>
<path id="Vector_5" d="M0.124459 15.7864C0.124459 15.1615 0.111393 14.5366 0.127533 13.9125C0.15136 13.0071 0.909982 12.4745 1.76775 12.7757C3.57476 13.4106 5.37639 14.0609 7.17649 14.7142C7.72758 14.914 8.01735 15.3537 8.00659 15.9094C7.99583 16.4505 7.69761 16.8748 7.14958 17.0577C5.30722 17.6695 3.46485 18.2798 1.6148 18.8685C0.712448 19.1552 -0.0261892 18.5611 0.000712298 17.608C0.00916704 17.3044 0.0214649 17.0008 0.0260765 16.6972C0.0306882 16.3936 0.0268451 16.09 0.0268451 15.7864C0.0591269 15.7864 0.0914087 15.7864 0.12369 15.7864H0.124459Z" fill="white"/>
</g>
</g>
</svg>
