<svg width="288" height="45" viewBox="0 0 288 45" fill="none" xmlns="http://www.w3.org/2000/svg">
<path d="M0.883195 1.78713C0.448465 1.4465 0.37218 0.817945 0.712808 0.383213C1.05344 -0.0515181 1.68199 -0.127804 2.11672 0.212823L0.883195 1.78713ZM286.803 12.097C287.336 12.2424 287.65 12.7922 287.505 13.325L285.135 22.0074C284.99 22.5402 284.44 22.8543 283.907 22.7089C283.374 22.5635 283.06 22.0137 283.206 21.4809L285.312 13.7631L277.594 11.6569C277.062 11.5115 276.747 10.9617 276.893 10.4289C277.038 9.89608 277.588 9.58204 278.121 9.72745L286.803 12.097ZM3.69371 1.42054C4.13577 1.75159 4.22577 2.37833 3.89471 2.8204C3.56366 3.26246 2.93692 3.35245 2.49486 3.0214L3.69371 1.42054ZM5.81947 5.40802C5.36471 5.09463 5.2501 4.47193 5.56348 4.01717C5.87687 3.5624 6.49957 3.44779 6.95433 3.76118L5.81947 5.40802ZM10.2922 5.9762C10.7575 6.27382 10.8933 6.89223 10.5957 7.35746C10.2981 7.8227 9.67971 7.95859 9.21447 7.66098L10.2922 5.9762ZM12.6756 9.80026C12.2015 9.51693 12.0469 8.90293 12.3302 8.42887C12.6136 7.9548 13.2276 7.80018 13.7016 8.08351L12.6756 9.80026ZM17.176 10.095C17.6576 10.3652 17.829 10.9748 17.5587 11.4564C17.2885 11.9381 16.6789 12.1094 16.1973 11.8391L17.176 10.095ZM19.7702 13.7851C19.282 13.5269 19.0955 12.9218 19.3537 12.4336C19.6119 11.9454 20.217 11.7589 20.7052 12.0171L19.7702 13.7851ZM24.2815 13.8557C24.7755 14.1027 24.9757 14.7034 24.7288 15.1974C24.4818 15.6914 23.8812 15.8916 23.3872 15.6446L24.2815 13.8557ZM27.0426 17.4234C26.5435 17.187 26.3306 16.5907 26.567 16.0916C26.8035 15.5925 27.3997 15.3795 27.8989 15.616L27.0426 17.4234ZM31.5525 17.3023C32.0562 17.5288 32.2809 18.1207 32.0544 18.6244C31.8279 19.1281 31.2359 19.3528 30.7322 19.1263L31.5525 17.3023ZM34.4526 20.7576C33.9448 20.5404 33.7091 19.9528 33.9262 19.445C34.1433 18.9371 34.731 18.7015 35.2388 18.9186L34.4526 20.7576ZM38.9547 20.4683C39.4663 20.6764 39.7122 21.2598 39.5041 21.7714C39.296 22.283 38.7126 22.5289 38.201 22.3208L38.9547 20.4683ZM41.9751 23.8193C41.4601 23.6197 41.2044 23.0405 41.4039 22.5255C41.6035 22.0106 42.1827 21.7548 42.6977 21.9543L41.9751 23.8193ZM46.4657 23.3794C46.9838 23.5706 47.2488 24.1456 47.0576 24.6638C46.8663 25.1819 46.2913 25.4469 45.7731 25.2556L46.4657 23.3794ZM49.5935 26.6322C49.0725 26.449 48.7987 25.8781 48.9819 25.3571C49.1652 24.8361 49.7361 24.5623 50.2571 24.7455L49.5935 26.6322ZM54.0702 26.0547C54.5939 26.2302 54.8761 26.797 54.7007 27.3206C54.5252 27.8443 53.9584 28.1265 53.4347 27.9511L54.0702 26.0547ZM57.2957 29.2139C56.7696 29.046 56.4792 28.4833 56.6471 27.9572C56.815 27.431 57.3777 27.1407 57.9038 27.3086L57.2957 29.2139ZM61.7485 28.5061C62.2769 28.6666 62.5751 29.2252 62.4145 29.7536C62.254 30.282 61.6954 30.5802 61.167 30.4197L61.7485 28.5061ZM65.0535 31.5717C64.523 31.4183 64.2172 30.8639 64.3706 30.3333C64.5239 29.8028 65.0784 29.497 65.6089 29.6504L65.0535 31.5717ZM69.4866 30.7433C70.0191 30.8896 70.3322 31.4399 70.1859 31.9725C70.0396 32.505 69.4893 32.8182 68.9568 32.6719L69.4866 30.7433ZM72.8759 33.721C72.3415 33.5817 72.0212 33.0355 72.1606 32.5011C72.2999 31.9667 72.8461 31.6464 73.3805 31.7857L72.8759 33.721ZM77.29 32.7784C77.8262 32.9109 78.1534 33.4529 78.0209 33.9891C77.8884 34.5252 77.3464 34.8525 76.8102 34.72L77.29 32.7784ZM80.7588 35.6693C80.2211 35.5436 79.887 35.0057 80.0127 34.4679C80.1384 33.9301 80.6763 33.5961 81.2141 33.7218L80.7588 35.6693ZM85.1408 34.614C85.6801 34.7331 86.0208 35.2667 85.9018 35.806C85.7828 36.3454 85.2491 36.6861 84.7098 36.567L85.1408 34.614ZM88.6732 37.4163C88.1325 37.3039 87.7853 36.7744 87.8977 36.2337C88.0101 35.6929 88.5395 35.3457 89.0803 35.4581L88.6732 37.4163ZM93.0326 36.2546C93.5746 36.3604 93.9283 36.8856 93.8225 37.4276C93.7167 37.9697 93.1915 38.3233 92.6494 38.2175L93.0326 36.2546ZM96.6375 38.971C96.0942 38.8717 95.7343 38.3508 95.8335 37.8075C95.9328 37.2643 96.4537 36.9043 96.9969 37.0035L96.6375 38.971ZM100.969 37.7046C101.514 37.7973 101.88 38.3138 101.787 38.8583C101.694 39.4027 101.178 39.7689 100.633 39.6762L100.969 37.7046ZM104.632 40.3326C104.086 40.2463 103.714 39.7342 103.8 39.1887C103.886 38.6432 104.398 38.2709 104.944 38.3571L104.632 40.3326ZM108.929 38.9627C109.476 39.0424 109.854 39.5501 109.774 40.0966C109.694 40.6431 109.187 41.0215 108.64 40.9418L108.929 38.9627ZM112.659 41.5037C112.111 41.4304 111.727 40.9273 111.8 40.3799C111.874 39.8325 112.377 39.4481 112.924 39.5213L112.659 41.5037ZM116.926 40.0326C117.474 40.0993 117.865 40.5979 117.798 41.1461C117.731 41.6943 117.233 42.0847 116.685 42.0179L116.926 40.0326ZM120.709 42.4837C120.16 42.4235 119.764 41.9296 119.824 41.3806C119.885 40.8316 120.379 40.4354 120.928 40.4956L120.709 42.4837ZM124.937 40.9115C125.487 40.9652 125.889 41.4543 125.835 42.004C125.781 42.5537 125.292 42.9557 124.743 42.902L124.937 40.9115ZM128.783 43.2726C128.233 43.2254 127.825 42.7411 127.872 42.1909C127.92 41.6406 128.404 41.2327 128.954 41.2799L128.783 43.2726ZM132.974 41.6003C133.525 41.6409 133.939 42.1203 133.898 42.6711C133.857 43.2219 133.378 43.6355 132.827 43.5949L132.974 41.6003ZM136.871 43.8686C136.32 43.8346 135.9 43.3602 135.934 42.809C135.968 42.2577 136.443 41.8384 136.994 41.8724L136.871 43.8686ZM141.029 42.0979C141.581 42.1258 142.005 42.5955 141.977 43.1471C141.949 43.6987 141.48 44.1232 140.928 44.0953L141.029 42.0979ZM144.944 44.2781C144.392 44.2558 143.963 43.7904 143.985 43.2385C144.007 42.6867 144.473 42.2574 145.024 42.2797L144.944 44.2781ZM149.044 42.4214C149.596 42.4379 150.03 42.8988 150.013 43.4509C149.997 44.0029 149.536 44.437 148.984 44.4205L149.044 42.4214ZM153.003 44.5197C152.451 44.509 152.012 44.0527 152.023 43.5005C152.033 42.9484 152.49 42.5094 153.042 42.5201L153.003 44.5197ZM157.054 42.576C157.606 42.5806 158.05 43.0321 158.045 43.5844C158.04 44.1366 157.589 44.5806 157.037 44.5759L157.054 42.576ZM161.072 44.5875C160.52 44.589 160.071 44.1425 160.07 43.5902C160.068 43.038 160.515 42.589 161.067 42.5875L161.072 44.5875ZM165.062 42.5538C165.614 42.546 166.068 42.9874 166.076 43.5396C166.084 44.0918 165.643 44.5458 165.091 44.5536L165.062 42.5538ZM169.13 44.4728C168.578 44.4871 168.119 44.0512 168.104 43.4991C168.09 42.947 168.526 42.4878 169.078 42.4735L169.13 44.4728ZM173.087 42.3456C173.639 42.3247 174.103 42.7551 174.124 43.307C174.145 43.8589 173.714 44.3232 173.163 44.3442L173.087 42.3456ZM177.18 44.1672C176.628 44.1949 176.158 43.7702 176.131 43.2186C176.103 42.667 176.528 42.1974 177.079 42.1697L177.18 44.1672ZM181.085 41.9432C181.636 41.9086 182.111 42.3273 182.146 42.8785C182.181 43.4297 181.762 43.9046 181.211 43.9393L181.085 41.9432ZM185.239 43.6599C184.688 43.7017 184.208 43.2892 184.166 42.7385C184.124 42.1878 184.537 41.7075 185.088 41.6657L185.239 43.6599ZM189.075 41.3368C189.625 41.2877 190.111 41.6939 190.16 42.244C190.209 42.7941 189.803 43.2798 189.253 43.3289L189.075 41.3368ZM193.26 42.9445C192.71 43.0009 192.219 42.6013 192.163 42.0519C192.106 41.5025 192.506 41.0114 193.055 40.9549L193.26 42.9445ZM197.047 40.5168C197.596 40.4527 198.092 40.8455 198.156 41.394C198.22 41.9426 197.828 42.4392 197.279 42.5033L197.047 40.5168ZM201.284 42.0068C200.736 42.0786 200.234 41.6929 200.162 41.1454C200.09 40.5978 200.476 40.0956 201.024 40.0238L201.284 42.0068ZM204.986 39.4748C205.533 39.395 206.04 39.7734 206.12 40.3199C206.2 40.8664 205.821 41.3741 205.275 41.4538L204.986 39.4748ZM209.253 40.8433C208.708 40.9311 208.195 40.5603 208.107 40.015C208.019 39.4698 208.39 38.9566 208.935 38.8687L209.253 40.8433ZM212.893 38.2006C213.436 38.1045 213.955 38.4675 214.051 39.0113C214.147 39.5552 213.784 40.074 213.241 40.1701L212.893 38.2006ZM217.212 39.4367C216.67 39.5412 216.146 39.1863 216.041 38.644C215.937 38.1016 216.292 37.5773 216.834 37.4728L217.212 39.4367ZM220.759 36.6844C221.3 36.5713 221.83 36.9179 221.943 37.4585C222.056 37.9991 221.709 38.529 221.169 38.642L220.759 36.6844ZM225.11 37.7849C224.571 37.9067 224.036 37.5686 223.914 37.0299C223.792 36.4912 224.13 35.9558 224.669 35.8341L225.11 37.7849ZM228.562 34.921C229.098 34.7904 229.639 35.1196 229.77 35.6562C229.9 36.1929 229.571 36.7337 229.035 36.8643L228.562 34.921ZM232.943 35.879C232.409 36.0184 231.862 35.6983 231.723 35.1639C231.583 34.6296 231.904 34.0833 232.438 33.9438L232.943 35.879ZM236.306 32.8989C236.838 32.7503 237.39 33.0611 237.538 33.593C237.687 34.1249 237.376 34.6766 236.844 34.8251L236.306 32.8989ZM240.726 33.7048C240.196 33.8625 239.639 33.5614 239.482 33.0321C239.324 32.5028 239.625 31.9459 240.154 31.7881L240.726 33.7048ZM243.981 30.6108C244.507 30.4438 245.07 30.7351 245.237 31.2615C245.404 31.7879 245.112 32.3501 244.586 32.5171L243.981 30.6108ZM248.424 31.2615C247.901 31.4379 247.333 31.1566 247.157 30.6333C246.981 30.1099 247.262 29.5427 247.785 29.3663L248.424 31.2615ZM251.566 28.0539C252.086 27.868 252.658 28.139 252.844 28.6591C253.03 29.1792 252.759 29.7514 252.239 29.9373L251.566 28.0539ZM256.028 28.544C255.512 28.7393 254.935 28.4788 254.739 27.9622C254.544 27.4456 254.805 26.8685 255.321 26.6732L256.028 28.544ZM259.05 25.2241C259.563 25.0193 260.145 25.269 260.35 25.782C260.555 26.2949 260.305 26.8767 259.792 27.0815L259.05 25.2241ZM263.528 25.5496C263.019 25.7639 262.432 25.5249 262.218 25.0159C262.004 24.5069 262.243 23.9205 262.752 23.7063L263.528 25.5496ZM266.424 22.12C266.929 21.8963 267.519 22.1242 267.743 22.6292C267.967 23.1341 267.739 23.7248 267.234 23.9485L266.424 22.12ZM270.909 22.2788C270.408 22.5119 269.813 22.2951 269.58 21.7944C269.347 21.2938 269.564 20.6989 270.065 20.4657L270.909 22.2788ZM273.673 18.7441C274.169 18.5016 274.768 18.7073 275.01 19.2035C275.253 19.6997 275.047 20.2986 274.551 20.541L273.673 18.7441ZM278.161 18.735C277.669 18.9867 277.067 18.7923 276.815 18.3006C276.563 17.809 276.758 17.2065 277.249 16.9548L278.161 18.735ZM280.798 15.0963C281.285 14.8356 281.891 15.0189 282.151 15.5057C282.412 15.9926 282.229 16.5986 281.742 16.8594L280.798 15.0963ZM285.286 14.919C284.804 15.1887 284.195 15.0165 283.925 14.5345C283.656 14.0525 283.828 13.4432 284.31 13.1735L285.286 14.919ZM2.11672 0.212823C2.63093 0.615726 3.15664 1.01834 3.69371 1.42054L2.49486 3.0214C1.94645 2.6107 1.40916 2.19924 0.883195 1.78713L2.11672 0.212823ZM6.95433 3.76118C8.02966 4.50221 9.14264 5.24082 10.2922 5.9762L9.21447 7.66098C8.04646 6.9138 6.9144 6.16256 5.81947 5.40802L6.95433 3.76118ZM13.7016 8.08351C14.8297 8.75771 15.9881 9.42841 17.176 10.095L16.1973 11.8391C14.994 11.164 13.8198 10.4841 12.6756 9.80026L13.7016 8.08351ZM20.7052 12.0171C21.8724 12.6344 23.0647 13.2474 24.2815 13.8557L23.3872 15.6446C22.1571 15.0297 20.9512 14.4097 19.7702 13.7851L20.7052 12.0171ZM27.8989 15.616C29.0957 16.1829 30.3138 16.7452 31.5525 17.3023L30.7322 19.1263C29.4817 18.5639 28.2516 17.9961 27.0426 17.4234L27.8989 15.616ZM35.2388 18.9186C36.4594 19.4404 37.6982 19.9571 38.9547 20.4683L38.201 22.3208C36.9338 21.8053 35.6841 21.2841 34.4526 20.7576L35.2388 18.9186ZM42.6977 21.9543C43.938 22.4349 45.1942 22.91 46.4657 23.3794L45.7731 25.2556C44.4917 24.7826 43.2255 24.3037 41.9751 23.8193L42.6977 21.9543ZM50.2571 24.7455C51.5144 25.1877 52.7856 25.6242 54.0702 26.0547L53.4347 27.9511C52.1408 27.5175 50.8602 27.0777 49.5935 26.6322L50.2571 24.7455ZM57.9038 27.3086C59.1733 27.7138 60.455 28.113 61.7485 28.5061L61.167 30.4197C59.8647 30.0239 58.5741 29.6219 57.2957 29.2139L57.9038 27.3086ZM65.6089 29.6504C66.8907 30.0209 68.1834 30.3853 69.4866 30.7433L68.9568 32.6719C67.6451 32.3115 66.3439 31.9447 65.0535 31.5717L65.6089 29.6504ZM73.3805 31.7857C74.6742 32.1231 75.9774 32.454 77.29 32.7784L76.8102 34.72C75.4894 34.3936 74.1778 34.0605 72.8759 33.721L73.3805 31.7857ZM81.2141 33.7218C82.5145 34.0258 83.8236 34.3233 85.1408 34.614L84.7098 36.567C83.3844 36.2745 82.0673 35.9752 80.7588 35.6693L81.2141 33.7218ZM89.0803 35.4581C90.3901 35.7304 91.7077 35.9959 93.0326 36.2546L92.6494 38.2175C91.3165 37.9573 89.991 37.6902 88.6732 37.4163L89.0803 35.4581ZM96.9969 37.0035C98.3143 37.2442 99.6385 37.4779 100.969 37.7046L100.633 39.6762C99.2948 39.4482 97.9627 39.2131 96.6375 38.971L96.9969 37.0035ZM104.944 38.3571C106.266 38.5661 107.595 38.768 108.929 38.9627L108.64 40.9418C107.298 40.7459 105.962 40.5428 104.632 40.3326L104.944 38.3571ZM112.924 39.5213C114.253 39.6991 115.587 39.8696 116.926 40.0326L116.685 42.0179C115.337 41.854 113.995 41.6825 112.659 41.5037L112.924 39.5213ZM120.928 40.4956C122.259 40.6418 123.596 40.7804 124.937 40.9115L124.743 42.902C123.394 42.7702 122.049 42.6307 120.709 42.4837L120.928 40.4956ZM128.954 41.2799C130.29 41.3944 131.63 41.5013 132.974 41.6003L132.827 43.5949C131.475 43.4953 130.127 43.3878 128.783 43.2726L128.954 41.2799ZM136.994 41.8724C137.665 41.9138 138.337 41.9532 139.011 41.9907L138.899 43.9876C138.222 43.9499 137.546 43.9103 136.871 43.8686L136.994 41.8724ZM139.011 41.9907C139.686 42.0282 140.359 42.0639 141.029 42.0979L140.928 44.0953C140.254 44.0612 139.578 44.0253 138.899 43.9876L139.011 41.9907ZM145.024 42.2797C146.374 42.3343 147.714 42.3815 149.044 42.4214L148.984 44.4205C147.647 44.3803 146.3 44.3329 144.944 44.2781L145.024 42.2797ZM153.042 42.5201C154.389 42.5462 155.726 42.5648 157.054 42.576L157.037 44.5759C155.702 44.5646 154.357 44.5459 153.003 44.5197L153.042 42.5201ZM161.067 42.5875C162.409 42.5838 163.741 42.5725 165.062 42.5538L165.091 44.5536C163.761 44.5724 162.422 44.5838 161.072 44.5875L161.067 42.5875ZM169.078 42.4735C170.425 42.4386 171.761 42.3959 173.087 42.3456L173.163 44.3442C171.829 44.3948 170.485 44.4377 169.13 44.4728L169.078 42.4735ZM177.079 42.1697C178.426 42.1021 179.761 42.0265 181.085 41.9432L181.211 43.9393C179.878 44.0231 178.535 44.0991 177.18 44.1672L177.079 42.1697ZM185.088 41.6657C186.428 41.5639 187.758 41.4542 189.075 41.3368L189.253 43.3289C187.926 43.4471 186.589 43.5575 185.239 43.6599L185.088 41.6657ZM193.055 40.9549C194.398 40.8169 195.729 40.6708 197.047 40.5168L197.279 42.5033C195.952 42.6583 194.612 42.8055 193.26 42.9445L193.055 40.9549ZM201.024 40.0238C202.357 39.8488 203.678 39.6657 204.986 39.4748L205.275 41.4538C203.957 41.6461 202.627 41.8305 201.284 42.0068L201.024 40.0238ZM208.935 38.8687C210.268 38.6541 211.587 38.4312 212.893 38.2006L213.241 40.1701C211.925 40.4025 210.596 40.627 209.253 40.8433L208.935 38.8687ZM216.834 37.4728C218.157 37.2179 219.465 36.955 220.759 36.6844L221.169 38.642C219.864 38.9148 218.545 39.1798 217.212 39.4367L216.834 37.4728ZM224.669 35.8341C225.981 35.5375 227.279 35.233 228.562 34.921L229.035 36.8643C227.741 37.1789 226.433 37.4859 225.11 37.7849L224.669 35.8341ZM232.438 33.9438C233.743 33.6031 235.032 33.2547 236.306 32.8989L236.844 34.8251C235.559 35.184 234.259 35.5354 232.943 35.879L232.438 33.9438ZM240.154 31.7881C241.446 31.403 242.722 31.0104 243.981 30.6108L244.586 32.5171C243.316 32.9203 242.029 33.3163 240.726 33.7048L240.154 31.7881ZM247.785 29.3663C249.063 28.9357 250.323 28.4981 251.566 28.0539L252.239 29.9373C250.984 30.3855 249.713 30.8271 248.424 31.2615L247.785 29.3663ZM255.321 26.6732C256.582 26.1965 257.825 25.7132 259.05 25.2241L259.792 27.0815C258.556 27.5752 257.301 28.0629 256.028 28.544L255.321 26.6732ZM262.752 23.7063C263.995 23.1831 265.218 22.6541 266.424 22.12L267.234 23.9485C266.017 24.4876 264.782 25.0215 263.528 25.5496L262.752 23.7063ZM270.065 20.4657C271.287 19.8964 272.49 19.3222 273.673 18.7441L274.551 20.541C273.357 21.1246 272.143 21.7041 270.909 22.2788L270.065 20.4657ZM277.249 16.9548C278.453 16.3385 279.636 15.7187 280.798 15.0963L281.742 16.8594C280.569 17.4875 279.376 18.113 278.161 18.735L277.249 16.9548ZM284.31 13.1735C284.893 12.8472 285.471 12.5204 286.044 12.1934L287.036 13.93C286.458 14.26 285.875 14.5897 285.286 14.919L284.31 13.1735Z" fill="#A4C3FF"/>
</svg>
