<svg width="265" height="42" viewBox="0 0 265 42" fill="none" xmlns="http://www.w3.org/2000/svg">
<path d="M0.928445 26.1794C0.47526 26.4951 0.363775 27.1184 0.679436 27.5716C0.995097 28.0247 1.61837 28.1362 2.07155 27.8206L0.928445 26.1794ZM263.71 39.4777C264.25 39.3618 264.594 38.83 264.478 38.2901L262.588 29.4906C262.472 28.9506 261.941 28.6069 261.401 28.7228C260.861 28.8388 260.517 29.3705 260.633 29.9105L262.312 37.7322L254.491 39.4117C253.951 39.5276 253.607 40.0593 253.723 40.5993C253.839 41.1393 254.371 41.483 254.91 41.3671L263.71 39.4777ZM3.66339 26.7464C4.12557 26.444 4.25515 25.8243 3.95282 25.3621C3.65049 24.8999 3.03073 24.7703 2.56854 25.0726L3.66339 26.7464ZM5.9488 22.9875C5.47159 23.2655 5.31012 23.8778 5.58814 24.355C5.86616 24.8322 6.47839 24.9937 6.95559 24.7156L5.9488 22.9875ZM10.3403 22.8453C10.8293 22.5886 11.0177 21.9842 10.7611 21.4951C10.5045 21.0061 9.90003 20.8177 9.41098 21.0743L10.3403 22.8453ZM12.9533 19.3038C12.4547 19.5413 12.2431 20.1381 12.4806 20.6366C12.7182 21.1352 13.3149 21.3468 13.8135 21.1093L12.9533 19.3038ZM17.3517 19.4983C17.858 19.2779 18.0898 18.6886 17.8694 18.1823C17.6489 17.6759 17.0597 17.4441 16.5533 17.6646L17.3517 19.4983ZM20.1906 16.1471C19.6778 16.3522 19.4283 16.9341 19.6334 17.447C19.8384 17.9598 20.4204 18.2092 20.9332 18.0042L20.1906 16.1471ZM24.5627 16.6107C25.0809 16.4197 25.3461 15.8447 25.1551 15.3265C24.964 14.8083 24.3891 14.5431 23.8709 14.7342L24.5627 16.6107ZM27.5864 13.4171C27.0637 13.5953 26.7843 14.1635 26.9625 14.6862C27.1407 15.209 27.7089 15.4883 28.2316 15.3102L27.5864 13.4171ZM31.9333 14.0957C32.4599 13.9294 32.752 13.3677 32.5857 12.841C32.4194 12.3144 31.8577 12.0223 31.331 12.1886L31.9333 14.0957ZM35.1 11.0421C34.57 11.1974 34.2663 11.7529 34.4215 12.2829C34.5768 12.8129 35.1323 13.1167 35.6623 12.9614L35.1 11.0421ZM39.4147 11.9019C39.9476 11.7569 40.2621 11.2074 40.1171 10.6744C39.9721 10.1415 39.4226 9.82705 38.8897 9.97204L39.4147 11.9019ZM42.6969 8.9735C42.1615 9.10882 41.8371 9.6526 41.9724 10.188C42.1078 10.7235 42.6515 11.0479 43.187 10.9125L42.6969 8.9735ZM46.9766 9.98923C47.5143 9.86301 47.8478 9.32482 47.7216 8.78715C47.5954 8.24948 47.0572 7.91594 46.5195 8.04216L46.9766 9.98923ZM50.3556 7.17427C49.8159 7.29186 49.4738 7.82464 49.5914 8.36426C49.709 8.90388 50.2418 9.246 50.7814 9.1284L50.3556 7.17427ZM54.5997 8.32689C55.141 8.2175 55.4912 7.68997 55.3818 7.14863C55.2724 6.60729 54.7449 6.25712 54.2035 6.36651L54.5997 8.32689ZM58.0621 5.616C57.5193 5.71755 57.1615 6.23996 57.2631 6.78283C57.3646 7.3257 57.887 7.68345 58.4299 7.58189L58.0621 5.616ZM62.2709 6.89097C62.8151 6.79692 63.1801 6.27951 63.086 5.73529C62.992 5.19107 62.4746 4.82613 61.9304 4.92018L62.2709 6.89097ZM65.8073 4.27682C65.2619 4.36364 64.8901 4.87618 64.9769 5.42159C65.0637 5.96701 65.5763 6.33877 66.1217 6.25195L65.8073 4.27682ZM69.9813 5.66293C70.5278 5.58307 70.9061 5.07533 70.8262 4.52885C70.7463 3.98237 70.2386 3.60409 69.6921 3.68395L69.9813 5.66293ZM73.5842 3.13983C73.0367 3.21294 72.6522 3.71599 72.7254 4.26341C72.7985 4.81083 73.3015 5.19534 73.8489 5.12222L73.5842 3.13983ZM77.7238 4.62835C78.2721 4.56178 78.6626 4.06337 78.596 3.51511C78.5295 2.96685 78.031 2.57637 77.4828 2.64294L77.7238 4.62835ZM81.3873 2.19192C80.8384 2.25213 80.4421 2.74598 80.5023 3.29497C80.5625 3.84396 81.0564 4.24021 81.6054 4.18001L81.3873 2.19192ZM85.4928 3.77603C86.0425 3.72204 86.4443 3.2327 86.3903 2.68306C86.3363 2.13342 85.8469 1.73162 85.2973 1.78561L85.4928 3.77603ZM89.2088 1.42323C88.6586 1.47115 88.2515 1.95603 88.2994 2.50623C88.3473 3.05643 88.8322 3.46361 89.3824 3.41569L89.2088 1.42323ZM93.2734 3.09799C93.824 3.05601 94.2364 2.57555 94.1944 2.02487C94.1525 1.47418 93.672 1.06179 93.1213 1.10378L93.2734 3.09799ZM97.0379 0.826096C96.4868 0.862245 96.0694 1.3383 96.1055 1.8894C96.1417 2.44051 96.6177 2.85796 97.1688 2.82181L97.0379 0.826096ZM101.068 2.58647C101.62 2.55606 102.042 2.08437 102.012 1.53293C101.981 0.98148 101.51 0.559093 100.958 0.5895L101.068 2.58647ZM104.882 0.393395C104.33 0.41814 103.903 0.885466 103.928 1.4372C103.952 1.98893 104.42 2.41613 104.971 2.39139L104.882 0.393395ZM108.877 2.23607C109.429 2.21691 109.861 1.75394 109.842 1.20199C109.823 0.650036 109.36 0.218117 108.808 0.23727L108.877 2.23607ZM112.735 0.120724C112.183 0.134346 111.746 0.592968 111.76 1.14509C111.774 1.6972 112.232 2.13374 112.784 2.12012L112.735 0.120724ZM116.688 2.04318C117.241 2.03503 117.682 1.58076 117.674 1.02854C117.665 0.476314 117.211 0.035252 116.659 0.0433991L116.688 2.04318ZM120.585 0.00482637C120.033 0.00753748 119.587 0.457445 119.59 1.00972C119.592 1.562 120.042 2.00751 120.595 2.0048L120.585 0.00482637ZM124.601 2.0076C125.153 2.01169 125.604 1.5673 125.608 1.01503C125.612 0.462762 125.168 0.011742 124.616 0.00765002L124.601 2.0076ZM128.726 0.0683022C128.174 0.0561054 127.716 0.493824 127.704 1.04597C127.692 1.59812 128.129 2.05562 128.682 2.06781L128.726 0.0683022ZM132.769 2.18799C133.321 2.20825 133.785 1.77725 133.805 1.22534C133.825 0.673428 133.394 0.209593 132.842 0.189337L132.769 2.18799ZM136.955 0.370173C136.404 0.341922 135.934 0.766149 135.905 1.31771C135.877 1.86927 136.301 2.3393 136.853 2.36755L136.955 0.370173ZM140.93 2.60579C141.481 2.64196 141.957 2.22454 141.993 1.67344C142.029 1.12234 141.612 0.64626 141.061 0.610083L140.93 2.60579ZM145.161 0.908714C144.611 0.864675 144.129 1.27526 144.085 1.82579C144.041 2.37631 144.451 2.85831 145.002 2.90235L145.161 0.908714ZM149.077 3.25756C149.627 3.30941 150.115 2.90572 150.167 2.35587C150.219 1.80603 149.815 1.31825 149.265 1.26639L149.077 3.25756ZM153.359 1.68172C152.81 1.62211 152.317 2.01889 152.257 2.56794C152.197 3.117 152.594 3.61043 153.143 3.67004L153.359 1.68172ZM157.199 4.13919C157.747 4.20649 158.246 3.81667 158.314 3.2685C158.381 2.72033 157.991 2.22139 157.443 2.15409L157.199 4.13919ZM161.522 2.68377C160.975 2.60884 160.47 2.99166 160.395 3.53884C160.32 4.08601 160.703 4.59034 161.25 4.66528L161.522 2.68377ZM165.299 5.24855C165.846 5.33108 166.355 4.95531 166.438 4.40922C166.52 3.86314 166.144 3.35355 165.598 3.27101L165.299 5.24855ZM169.663 3.91413C169.118 3.82405 168.603 4.19274 168.513 4.73763C168.423 5.28252 168.792 5.79727 169.337 5.88735L169.663 3.91413ZM173.361 6.5812C173.905 6.67877 174.424 6.31721 174.522 5.77361C174.619 5.23001 174.258 4.71024 173.714 4.61266L173.361 6.5812ZM177.754 5.36649C177.212 5.26145 176.687 5.61585 176.582 6.15806C176.477 6.70026 176.831 7.22495 177.374 7.32999L177.754 5.36649ZM181.386 8.13584C181.926 8.24832 182.456 7.90116 182.568 7.36045C182.681 6.81974 182.334 6.29023 181.793 6.17776L181.386 8.13584ZM185.818 7.04377C185.279 6.92389 184.744 7.26374 184.624 7.80286C184.505 8.34197 184.844 8.8762 185.384 8.99608L185.818 7.04377ZM189.366 9.91043C189.904 10.0377 190.443 9.70521 190.57 9.16779C190.697 8.63037 190.365 8.09153 189.827 7.96426L189.366 9.91043ZM193.821 8.93903C193.285 8.80439 192.742 9.12946 192.607 9.66508C192.473 10.2007 192.798 10.7441 193.333 10.8787L193.821 8.93903ZM197.284 11.9007C197.818 12.0427 198.366 11.7252 198.508 11.1915C198.65 10.6577 198.332 10.11 197.798 9.96797L197.284 11.9007ZM201.772 11.0546C201.24 10.9052 200.688 11.2152 200.538 11.7469C200.389 12.2786 200.699 12.8307 201.231 12.9801L201.772 11.0546ZM205.16 14.1138C205.69 14.2706 206.246 13.9684 206.403 13.4389C206.56 12.9093 206.258 12.3529 205.728 12.1961L205.16 14.1138ZM209.667 13.3925C209.14 13.2283 208.579 13.5226 208.415 14.0499C208.251 14.5772 208.545 15.1378 209.072 15.302L209.667 13.3925ZM212.965 16.5449C213.49 16.7167 214.055 16.4304 214.226 15.9054C214.398 15.3805 214.112 14.8158 213.587 14.6441L212.965 16.5449ZM217.488 15.9514C216.965 15.7721 216.397 16.0502 216.217 16.5726C216.038 17.095 216.316 17.6638 216.839 17.8431L217.488 15.9514ZM220.692 19.1971C221.211 19.3841 221.784 19.1143 221.971 18.5946C222.158 18.0749 221.888 17.5021 221.369 17.3152L220.692 19.1971ZM225.229 18.7363C224.712 18.5416 224.135 18.8028 223.941 19.3196C223.746 19.8364 224.007 20.4133 224.524 20.6079L225.229 18.7363ZM228.334 22.0767C228.848 22.2793 229.429 22.027 229.631 21.5132C229.834 20.9994 229.582 20.4187 229.068 20.2161L228.334 22.0767ZM232.884 21.7559C232.374 21.5452 231.789 21.7882 231.579 22.2988C231.368 22.8093 231.611 23.3939 232.121 23.6046L232.884 21.7559ZM235.884 25.1936C236.391 25.4127 236.979 25.1792 237.198 24.6723C237.417 24.1653 237.184 23.5767 236.677 23.3576L235.884 25.1936ZM240.444 25.0234C239.941 24.7957 239.349 25.0191 239.121 25.5222C238.893 26.0254 239.117 26.6179 239.62 26.8456L240.444 25.0234ZM243.326 28.5629C243.825 28.7996 244.422 28.587 244.658 28.088C244.895 27.589 244.683 26.9926 244.184 26.7559L243.326 28.5629ZM247.892 28.558C247.397 28.3118 246.797 28.513 246.551 29.0074C246.304 29.5018 246.506 30.1021 247 30.3483L247.892 28.558ZM250.635 32.2049C251.125 32.4612 251.729 32.2724 251.985 31.7832C252.242 31.294 252.053 30.6896 251.563 30.4333L250.635 32.2049ZM255.192 32.3856C254.709 32.1185 254.101 32.2937 253.833 32.7771C253.566 33.2605 253.742 33.8689 254.225 34.1361L255.192 32.3856ZM257.758 36.1451C258.234 36.4242 258.847 36.2641 259.126 35.7875C259.405 35.3109 259.245 34.6983 258.768 34.4192L257.758 36.1451ZM262.312 36.5609C261.844 36.2684 261.227 36.4111 260.934 36.8795C260.642 37.348 260.785 37.9649 261.253 38.2574L262.312 36.5609ZM2.07155 27.8206C2.58976 27.4596 3.12044 27.1015 3.66339 26.7464L2.56854 25.0726C2.00984 25.4381 1.46306 25.8071 0.928445 26.1794L2.07155 27.8206ZM6.95559 24.7156C8.04402 24.0815 9.17268 23.4579 10.3403 22.8453L9.41098 21.0743C8.21858 21.7 7.06403 22.3378 5.9488 22.9875L6.95559 24.7156ZM13.8135 21.1093C14.9612 20.5625 16.1409 20.0254 17.3517 19.4983L16.5533 17.6646C15.3227 18.2003 14.1223 18.7468 12.9533 19.3038L13.8135 21.1093ZM20.9332 18.0042C22.1173 17.5306 23.3275 17.0661 24.5627 16.6107L23.8709 14.7342C22.6192 15.1956 21.3922 15.6666 20.1906 16.1471L20.9332 18.0042ZM28.2316 15.3102C29.4442 14.8969 30.6783 14.492 31.9333 14.0957L31.331 12.1886C30.0621 12.5893 28.8136 12.9988 27.5864 13.4171L28.2316 15.3102ZM35.6623 12.9614C36.8951 12.6002 38.1461 12.247 39.4147 11.9019L38.8897 9.97204C37.6089 10.3205 36.3455 10.6772 35.1 11.0421L35.6623 12.9614ZM43.187 10.9125C44.4349 10.5971 45.6983 10.2893 46.9766 9.98923L46.5195 8.04216C45.2304 8.3448 43.956 8.65528 42.6969 8.9735L43.187 10.9125ZM50.7814 9.1284C52.041 8.85392 53.3139 8.58671 54.5997 8.32689L54.2035 6.36651C52.908 6.6283 51.6252 6.89759 50.3556 7.17427L50.7814 9.1284ZM58.4299 7.58189C59.6988 7.34451 60.9793 7.11417 62.2709 6.89097L61.9304 4.92018C60.6298 5.14493 59.3402 5.3769 58.0621 5.616L58.4299 7.58189ZM66.1217 6.25195C67.3983 6.04873 68.685 5.85236 69.9813 5.66293L69.6921 3.68395C68.3875 3.87459 67.0924 4.07224 65.8073 4.27682L66.1217 6.25195ZM73.8489 5.12222C75.1319 4.95087 76.4237 4.78622 77.7238 4.62835L77.4828 2.64294C76.1748 2.80175 74.8751 2.96741 73.5842 3.13983L73.8489 5.12222ZM81.6054 4.18001C82.8937 4.03873 84.1896 3.90404 85.4928 3.77603L85.2973 1.78561C83.9866 1.91436 82.6832 2.04982 81.3873 2.19192L81.6054 4.18001ZM89.3824 3.41569C90.6729 3.30328 91.97 3.19736 93.2734 3.09799L93.1213 1.10378C91.8108 1.20369 90.5065 1.3102 89.2088 1.42323L89.3824 3.41569ZM97.1688 2.82181C98.4631 2.73692 99.763 2.65844 101.068 2.58647L100.958 0.5895C99.646 0.661858 98.3391 0.740748 97.0379 0.826096L97.1688 2.82181ZM104.971 2.39139C106.269 2.33321 107.571 2.28141 108.877 2.23607L108.808 0.23727C107.494 0.282848 106.186 0.334913 104.882 0.393395L104.971 2.39139ZM112.784 2.12012C114.082 2.08811 115.383 2.06244 116.688 2.04318L116.659 0.0433991C115.347 0.0627549 114.039 0.0885519 112.735 0.120724L112.784 2.12012ZM120.595 2.0048C121.246 2.0016 121.899 2 122.552 2V0C121.895 0 121.24 0.00161153 120.585 0.00482637L120.595 2.0048ZM122.552 2C123.236 2 123.919 2.00254 124.601 2.0076L124.616 0.00765002C123.929 0.00256145 123.241 0 122.552 0V2ZM128.682 2.06781C130.049 2.09802 131.411 2.13817 132.769 2.18799L132.842 0.189337C131.475 0.13916 130.103 0.0987213 128.726 0.0683022L128.682 2.06781ZM136.853 2.36755C138.217 2.43743 139.576 2.51694 140.93 2.60579L141.061 0.610083C139.698 0.520615 138.329 0.440547 136.955 0.370173L136.853 2.36755ZM145.002 2.90235C146.366 3.0115 147.725 3.13001 149.077 3.25756L149.265 1.26639C147.903 1.13796 146.535 1.01863 145.161 0.908714L145.002 2.90235ZM153.143 3.67004C154.502 3.81754 155.854 3.97403 157.199 4.13919L157.443 2.15409C156.088 1.98781 154.727 1.83024 153.359 1.68172L153.143 3.67004ZM161.25 4.66528C162.607 4.85114 163.957 5.04568 165.299 5.24855L165.598 3.27101C164.247 3.06676 162.888 2.8709 161.522 2.68377L161.25 4.66528ZM169.337 5.88735C170.686 6.11048 172.028 6.34188 173.361 6.5812L173.714 4.61266C172.372 4.37173 171.022 4.13877 169.663 3.91413L169.337 5.88735ZM177.374 7.32999C178.72 7.59082 180.058 7.85957 181.386 8.13584L181.793 6.17776C180.456 5.89963 179.11 5.62908 177.754 5.36649L177.374 7.32999ZM185.384 8.99608C186.721 9.29354 188.049 9.59846 189.366 9.91043L189.827 7.96426C188.501 7.65019 187.164 7.34323 185.818 7.04377L185.384 8.99608ZM193.333 10.8787C194.661 11.2125 195.979 11.5534 197.284 11.9007L197.798 9.96797C196.484 9.61826 195.158 9.27514 193.821 8.93903L193.333 10.8787ZM201.231 12.9801C202.553 13.3517 203.863 13.7298 205.16 14.1138L205.728 12.1961C204.422 11.8094 203.103 11.4288 201.772 11.0546L201.231 12.9801ZM209.072 15.302C210.384 15.7106 211.682 16.1251 212.965 16.5449L213.587 14.6441C212.295 14.2213 210.988 13.8039 209.667 13.3925L209.072 15.302ZM216.839 17.8431C218.139 18.2895 219.424 18.741 220.692 19.1971L221.369 17.3152C220.091 16.8557 218.798 16.401 217.488 15.9514L216.839 17.8431ZM224.524 20.6079C225.813 21.0934 227.083 21.5832 228.334 22.0767L229.068 20.2161C227.807 19.7189 226.527 19.2254 225.229 18.7363L224.524 20.6079ZM232.121 23.6046C233.397 24.1313 234.652 24.6612 235.884 25.1936L236.677 23.3576C235.435 22.8209 234.17 22.2867 232.884 21.7559L232.121 23.6046ZM239.62 26.8456C240.881 27.4164 242.117 27.9892 243.326 28.5629L244.184 26.7559C242.963 26.177 241.717 25.5992 240.444 25.0234L239.62 26.8456ZM247 30.3483C248.244 30.9677 249.456 31.5869 250.635 32.2049L251.563 30.4333C250.372 29.8089 249.147 29.1834 247.892 28.558L247 30.3483ZM254.225 34.1361C255.443 34.8094 256.621 35.4796 257.758 36.1451L258.768 34.4192C257.617 33.7451 256.425 33.0667 255.192 32.3856L254.225 34.1361ZM261.253 38.2574C261.834 38.6203 262.402 38.9812 262.957 39.3398L264.043 37.6602C263.479 37.2957 262.902 36.9292 262.312 36.5609L261.253 38.2574Z" fill="#A4C3FF"/>
</svg>
