<svg width="16" height="16" viewBox="0 0 16 16" fill="none" xmlns="http://www.w3.org/2000/svg">
<path fill-rule="evenodd" clip-rule="evenodd" d="M0 8C0 3.58172 3.58172 0 8 0C12.4183 0 16 3.58172 16 8C16 12.4183 12.4183 16 8 16C3.58172 16 0 12.4183 0 8ZM7.48574 5.60517C7.20172 5.32115 7.20172 4.86067 7.48574 4.57665C7.76976 4.29263 8.23024 4.29263 8.51426 4.57665L11.4234 7.48574C11.7074 7.76976 11.7074 8.23024 11.4234 8.51426L8.51426 11.4234C8.23024 11.7074 7.76976 11.7074 7.48574 11.4234C7.20172 11.1393 7.20172 10.6788 7.48574 10.3948L9.1533 8.72727H5.09091C4.68925 8.72727 4.36364 8.40166 4.36364 8C4.36364 7.59834 4.68925 7.27273 5.09091 7.27273L9.1533 7.27273L7.48574 5.60517Z" fill="#04C49E"/>
</svg>
