<svg width="60" height="60" viewBox="0 0 60 60" fill="none" xmlns="http://www.w3.org/2000/svg">
<g clip-path="url(#clip0_120_58)">
<path d="M51.5625 58.8281V51.7969C51.5625 51.1496 51.0379 50.625 50.3906 50.625C49.7433 50.625 49.2187 51.1496 49.2187 51.7969V57.6562H43.3593C42.7121 57.6562 42.1875 58.1808 42.1875 58.8281C42.1875 59.4754 42.7121 60 43.3593 60H50.3906C51.0379 60 51.5625 59.4754 51.5625 58.8281Z" fill="black"/>
<path d="M26.9531 54.6094C26.9531 55.2567 26.4285 55.7812 25.7812 55.7812C25.1339 55.7812 24.6093 55.2567 24.6093 54.6094C24.6093 53.9621 25.1339 53.4375 25.7812 53.4375C26.4285 53.4375 26.9531 53.9621 26.9531 54.6094Z" fill="black"/>
<path d="M20.2881 55.1921C20.3723 55.2104 20.4561 55.2195 20.5389 55.2195C21.0777 55.2195 21.5634 54.8451 21.6824 54.2967C21.8202 53.6641 21.4192 53.0397 20.787 52.9023C10.1001 50.5742 2.34375 40.9424 2.34375 30C2.34375 17.0764 12.8577 6.5625 25.7812 6.5625C36.2169 6.5625 45.4678 13.6258 48.3174 23.5547H48.2812C47.9919 23.5547 47.7122 23.6618 47.4975 23.8554L44.2533 26.7746C42.7249 17.9759 35.0363 11.25 25.7812 11.25C15.4422 11.25 7.03124 19.6614 7.03124 30C7.03124 40.3386 15.4422 48.75 25.7812 48.75C35.0363 48.75 42.7258 42.0231 44.2524 33.2245L47.4971 36.1445C47.7122 36.3382 47.9914 36.4453 48.2812 36.4453H48.3174C45.9594 44.6809 39.2152 51.063 30.7754 52.9019C30.1428 53.0397 29.7423 53.6641 29.8796 54.2967C29.9991 54.8451 30.4843 55.2191 31.0235 55.2191C31.1064 55.2191 31.1902 55.2104 31.2744 55.1921C40.7776 53.1216 48.327 45.8152 50.7472 36.4453H58.8281C59.2602 36.4453 59.6571 36.2072 59.8612 35.8264C60.065 35.4455 60.043 34.9832 59.8031 34.6234L56.721 30L59.8031 25.3766C60.043 25.0172 60.0654 24.5544 59.8612 24.1736C59.6571 23.7927 59.2602 23.5547 58.8281 23.5547H50.7458C47.8225 12.2667 37.5833 4.21875 25.7812 4.21875C11.5654 4.21875 0 15.7841 0 30C0 42.2987 8.68056 52.6638 20.2881 55.1921ZM25.7812 46.4062C16.7349 46.4062 9.37499 39.0463 9.37499 30C9.37499 20.9537 16.7349 13.5937 25.7812 13.5937C34.3789 13.5937 41.4592 20.1782 42.1344 28.6825L41.9723 28.8281H37.4382C36.8481 22.9161 31.8452 18.2835 25.7812 18.2835C19.3208 18.2835 14.0648 23.5396 14.0648 30C14.0648 36.4604 19.3208 41.7164 25.7812 41.7164C31.8457 41.7164 36.8481 37.0843 37.4382 31.1719H41.9719L42.1334 31.317C41.4596 39.8217 34.3803 46.4062 25.7812 46.4062ZM30.3204 28.8281C29.7986 26.8085 27.9616 25.3125 25.7812 25.3125C23.1967 25.3125 21.0937 27.4154 21.0937 30C21.0937 32.5845 23.1967 34.6875 25.7812 34.6875C27.9616 34.6875 29.7986 33.1901 30.3204 31.1705H35.0766C34.498 35.7875 30.5516 39.3727 25.7812 39.3727C20.6131 39.3727 16.4085 35.1681 16.4085 30C16.4085 24.8318 20.6131 20.6273 25.7812 20.6273C30.5516 20.6273 34.498 24.2116 35.0766 28.8281H30.3204ZM28.125 30C28.125 31.2922 27.0735 32.3437 25.7812 32.3437C24.489 32.3437 23.4375 31.2922 23.4375 30C23.4375 28.7077 24.489 27.6562 25.7812 27.6562C27.0735 27.6562 28.125 28.7077 28.125 30ZM54.3374 30.65L56.6386 34.1015H48.7307L44.4094 30.2124C44.3641 30.1144 44.306 30.0238 44.2364 29.9428L48.7307 25.8984H56.6386L54.3374 29.35C54.0751 29.7436 54.0751 30.2563 54.3374 30.65Z" fill="black"/>
<path d="M1.17187 9.37524C1.81915 9.37524 2.34375 8.85064 2.34375 8.20336V2.34399H8.20312C8.8504 2.34399 9.37499 1.8194 9.37499 1.17212C9.37499 0.524841 8.8504 0.000244141 8.20312 0.000244141H1.17187C0.524597 0.000244141 0 0.524841 0 1.17212V8.20336C0 8.85064 0.524597 9.37524 1.17187 9.37524Z" fill="black"/>
<path d="M50.3906 9.37499C51.0379 9.37499 51.5625 8.8504 51.5625 8.20312V1.17187C51.5625 0.524597 51.0379 0 50.3906 0H43.3593C42.7121 0 42.1875 0.524597 42.1875 1.17187C42.1875 1.81915 42.7121 2.34375 43.3593 2.34375H49.2187V8.20312C49.2187 8.8504 49.7433 9.37499 50.3906 9.37499Z" fill="black"/>
<path d="M1.17187 60H8.20312C8.8504 60 9.37499 59.4754 9.37499 58.8281C9.37499 58.1808 8.8504 57.6562 8.20312 57.6562H2.34375V51.7969C2.34375 51.1496 1.81915 50.625 1.17187 50.625C0.524597 50.625 0 51.1496 0 51.7969V58.8281C0 59.4754 0.524597 60 1.17187 60Z" fill="black"/>
</g>
<defs>
<clipPath id="clip0_120_58">
<rect width="60" height="60" fill="white"/>
</clipPath>
</defs>
</svg>
