<svg width="206" height="36" viewBox="0 0 206 36" fill="none" xmlns="http://www.w3.org/2000/svg">
<g clip-path="url(#clip0_9_986)">
<path d="M14.2147 36C11.3557 36 8.99453 35.662 7.14738 35.0022C5.30023 34.3263 3.85463 33.3447 2.81059 32.0411C1.76655 30.7376 1.02769 29.1122 0.610068 27.1649C0.192451 25.2177 -0.0163574 22.9808 -0.0163574 20.422V16.9298C-0.0163574 14.4354 0.208513 12.2146 0.658255 10.2351C1.108 8.2557 1.87898 6.59812 3.00334 5.24631C4.11163 3.8945 5.60541 2.84845 7.46862 2.10818C9.33184 1.3679 11.6769 1.01385 14.5039 1.01385C17.3308 1.01385 17.2666 1.12651 18.4873 1.35181C19.708 1.57711 20.736 1.8346 21.5712 2.12427L20.7199 5.85784C19.9811 5.66473 19.0977 5.4877 18.0697 5.31068C17.0417 5.13366 15.9977 5.05319 14.9375 5.05319C13.0583 5.05319 11.4842 5.23022 10.2153 5.58426C8.94635 5.93831 7.9023 6.56593 7.11526 7.46714C6.31215 8.36835 5.74997 9.60751 5.3966 11.1685C5.04323 12.7295 4.86655 14.709 4.86655 17.0907V20.245C4.86655 22.6106 5.02717 24.5418 5.36448 26.0545C5.70178 27.5673 6.2479 28.7582 7.03495 29.6433C7.82199 30.5284 8.84997 31.1399 10.1671 31.4779C11.4681 31.8319 13.0904 32.0089 15.0339 32.0089C16.9774 32.0089 17.0096 31.9446 18.2142 31.8158C19.4028 31.6871 20.4629 31.5422 21.3945 31.3813L20.6236 35.2114C19.6438 35.4689 18.5837 35.662 17.4432 35.8069C16.3189 35.9517 15.2427 36.0161 14.2147 36.0161V36Z" fill="#1C3F4B"/>
<path d="M21.5874 20.4864V16.5114H36.5252V20.4864H21.5874Z" fill="#C0D563"/>
<path d="M47.6885 1.48056V31.4618H63.4295L62.803 35.5333H42.902V1.48056H47.6724H47.6885Z" fill="#1C3F4B"/>
<path d="M70.2718 1.09433C72.2475 1.09433 73.2273 2.01163 73.2273 3.86232C73.2273 5.71302 72.2475 6.63032 70.2718 6.63032C68.2962 6.63032 67.3164 5.71302 67.3164 3.86232C67.3164 2.01163 68.2962 1.09433 70.2718 1.09433ZM67.975 10.8467H72.6009V35.5172H67.975V10.8467Z" fill="#1C3F4B"/>
<path d="M79.7646 35.5172V10.8467H83.7802L84.1657 13.8561C84.9849 12.6491 86.0771 11.7479 87.4263 11.1524C88.7755 10.557 90.3014 10.2673 91.988 10.2673C93.6745 10.2673 94.4776 10.4444 95.5698 10.7984C96.646 11.1524 97.5937 11.6835 98.3807 12.4077C99.1838 13.1319 99.7942 14.0331 100.212 15.1274C100.646 16.2217 100.854 17.5092 100.854 18.9736V35.5172H96.2284V20.5025C96.2284 18.2012 95.8108 16.5597 94.9916 15.578C94.1564 14.5963 92.7429 14.0975 90.7512 14.0975C88.7595 14.0975 87.0248 14.6446 85.9807 15.7229C84.9367 16.8011 84.4066 18.5874 84.4066 21.0818V35.5172H79.7807H79.7646Z" fill="#1C3F4B"/>
<path d="M112.162 23.6245V35.5333H107.729V0H112.162V20.1323L122.33 10.8628H127.775L115.841 21.7577L128.385 35.5333H122.747L112.146 23.6245H112.162Z" fill="#1C3F4B"/>
<path d="M145.973 21.6451C145.041 21.6451 144.286 21.5324 143.692 21.3232C143.098 21.114 142.632 20.7921 142.279 20.3576C141.941 19.9392 141.7 19.4081 141.572 18.7805C141.443 18.1529 141.363 17.4287 141.363 16.5919V15.4653C141.363 14.6607 141.427 13.9365 141.572 13.2928C141.717 12.6491 141.974 12.118 142.327 11.6674C142.68 11.2329 143.162 10.8949 143.772 10.6535C144.383 10.4121 145.138 10.2995 146.053 10.2995C146.969 10.2995 146.953 10.3317 147.338 10.4121C147.74 10.4765 148.061 10.5731 148.334 10.6535L148.061 11.8605C147.82 11.7961 147.531 11.7479 147.21 11.6835C146.872 11.6191 146.535 11.603 146.198 11.603C145.588 11.603 145.074 11.6674 144.672 11.7801C144.254 11.8927 143.933 12.1019 143.676 12.3916C143.419 12.6813 143.226 13.0836 143.114 13.5825C143.002 14.0814 142.937 14.7251 142.937 15.4975V16.5114C142.937 17.2678 142.985 17.8954 143.098 18.3943C143.21 18.8771 143.387 19.2794 143.644 19.553C143.901 19.8426 144.238 20.0358 144.656 20.1484C145.074 20.2611 145.604 20.3254 146.23 20.3254C146.856 20.3254 146.872 20.3093 147.258 20.2611C147.643 20.2128 147.981 20.1806 148.286 20.1162L148.045 21.3554C147.724 21.4358 147.386 21.5002 147.017 21.5485C146.648 21.5968 146.31 21.6129 145.973 21.6129V21.6451Z" fill="#1C3F4B"/>
<path d="M156.558 13.502V21.4841H155.257L155.128 20.5024C154.887 20.8565 154.55 21.1462 154.117 21.3554C153.699 21.5646 153.201 21.6611 152.623 21.6611C151.739 21.6611 151.049 21.4197 150.551 20.953C150.053 20.4863 149.796 19.7783 149.796 18.8449V13.4859H151.274V18.346C151.274 19.0863 151.402 19.6173 151.675 19.9392C151.932 20.261 152.398 20.422 153.04 20.422C153.683 20.422 154.213 20.245 154.55 19.8909C154.887 19.5369 155.048 18.9575 155.048 18.1529V13.4859H156.542L156.558 13.502Z" fill="#1C3F4B"/>
<path d="M162.067 16.8493C162.469 16.8976 162.806 16.9942 163.079 17.1229C163.352 17.2517 163.577 17.4287 163.738 17.6218C163.899 17.8149 164.027 18.0402 164.091 18.2816C164.155 18.523 164.204 18.7966 164.204 19.0702V19.1989C164.204 19.6656 164.107 20.0518 163.931 20.3737C163.754 20.6956 163.513 20.937 163.192 21.1301C162.887 21.3232 162.517 21.4519 162.116 21.5324C161.714 21.6129 161.28 21.6611 160.831 21.6611C160.381 21.6611 159.899 21.6289 159.433 21.5485C158.967 21.468 158.518 21.3715 158.084 21.2427L158.341 20.1162C158.791 20.245 159.192 20.3254 159.578 20.3898C159.963 20.4542 160.365 20.4703 160.798 20.4703C161.441 20.4703 161.923 20.3898 162.228 20.2128C162.533 20.0518 162.694 19.73 162.694 19.2633C162.694 18.7966 162.597 18.6196 162.421 18.4747C162.244 18.3299 161.955 18.2172 161.586 18.169L160.445 18.008C159.642 17.9115 159.064 17.6701 158.694 17.2999C158.325 16.9298 158.148 16.447 158.148 15.8194V15.6906C158.148 15.2883 158.229 14.9343 158.389 14.6446C158.55 14.3549 158.791 14.1135 159.08 13.9204C159.385 13.7273 159.738 13.5825 160.156 13.4859C160.574 13.3893 161.039 13.3411 161.537 13.3411C162.035 13.3411 162.533 13.3732 162.951 13.4537C163.368 13.5342 163.706 13.6146 163.979 13.7112L163.706 14.8377C163.352 14.7251 163.015 14.6446 162.678 14.5963C162.34 14.548 161.955 14.5159 161.521 14.5159C160.831 14.5159 160.333 14.6124 160.028 14.7894C159.722 14.9665 159.562 15.2561 159.562 15.6424C159.562 16.0286 159.642 16.2217 159.819 16.3665C159.995 16.5114 160.317 16.6079 160.782 16.6723L162.051 16.8332L162.067 16.8493Z" fill="#1C3F4B"/>
<path d="M167.737 14.6768V18.8127C167.737 19.4081 167.85 19.8426 168.075 20.084C168.299 20.3415 168.685 20.4703 169.247 20.4703C169.809 20.4703 169.697 20.4703 169.857 20.4381C170.034 20.4059 170.179 20.3898 170.307 20.3737L170.114 21.4519C169.954 21.5163 169.745 21.5646 169.504 21.5968C169.263 21.6289 169.022 21.645 168.781 21.645C168.348 21.645 167.978 21.5968 167.657 21.5002C167.336 21.4036 167.079 21.2427 166.854 21.0174C166.645 20.7921 166.484 20.5024 166.388 20.1323C166.292 19.7622 166.227 19.3116 166.227 18.7805V14.6768H164.669L164.862 13.502H166.243V11.5065L167.721 11.2812V13.502H170.275L170.066 14.6768H167.721H167.737Z" fill="#1C3F4B"/>
<path d="M174.853 13.3089C175.56 13.3089 176.154 13.4055 176.62 13.5986C177.085 13.7917 177.455 14.0492 177.728 14.4032C178.001 14.7412 178.194 15.1435 178.306 15.6102C178.419 16.0769 178.467 16.5758 178.467 17.1229V17.8471C178.467 18.4104 178.403 18.9093 178.29 19.376C178.178 19.8427 177.969 20.245 177.696 20.5829C177.423 20.9209 177.053 21.1945 176.588 21.3876C176.122 21.5807 175.56 21.6772 174.869 21.6772C174.178 21.6772 173.568 21.5807 173.102 21.3876C172.636 21.1945 172.267 20.937 171.994 20.5829C171.721 20.245 171.528 19.8427 171.416 19.376C171.303 18.9093 171.255 18.3943 171.255 17.8471V17.1229C171.255 16.5758 171.319 16.0769 171.432 15.6102C171.544 15.1435 171.753 14.7412 172.026 14.4032C172.299 14.0653 172.668 13.7917 173.134 13.5986C173.6 13.4055 174.162 13.3089 174.853 13.3089ZM174.869 20.4703C175.64 20.4703 176.17 20.2772 176.475 19.8748C176.78 19.4725 176.925 18.8127 176.925 17.8954V17.0907C176.925 16.6241 176.893 16.2378 176.828 15.8999C176.764 15.578 176.652 15.3044 176.491 15.0952C176.331 14.886 176.122 14.7412 175.865 14.6446C175.608 14.5481 175.27 14.4998 174.885 14.4998C174.499 14.4998 174.162 14.5481 173.889 14.6446C173.616 14.7412 173.407 14.9021 173.247 15.0952C173.086 15.3044 172.974 15.5619 172.893 15.8999C172.829 16.2217 172.781 16.6241 172.781 17.0907V17.8954C172.781 18.3621 172.813 18.7644 172.893 19.0863C172.957 19.4081 173.086 19.6817 173.247 19.8909C173.407 20.1001 173.616 20.245 173.889 20.3254C174.162 20.422 174.483 20.4703 174.885 20.4703H174.869Z" fill="#1C3F4B"/>
<path d="M180.202 21.4841V13.502H181.503L181.631 14.4676C181.84 14.1457 182.129 13.8561 182.515 13.6468C182.9 13.4215 183.35 13.325 183.88 13.325C184.41 13.325 184.892 13.4215 185.293 13.6307C185.695 13.84 185.984 14.1457 186.161 14.5641C186.386 14.194 186.707 13.8882 187.124 13.6629C187.542 13.4376 188.04 13.325 188.634 13.325C189.229 13.325 190.096 13.5503 190.562 14.017C191.028 14.4837 191.252 15.1757 191.252 16.0769V21.5002H189.759V16.5919C189.759 15.8516 189.646 15.3205 189.421 15.0147C189.196 14.709 188.795 14.5641 188.233 14.5641C187.671 14.5641 187.237 14.7251 186.932 15.0308C186.627 15.3366 186.466 15.8677 186.466 16.6079V21.5002H184.972V16.5919C184.972 15.8516 184.86 15.3366 184.635 15.0308C184.41 14.7251 184.024 14.5641 183.446 14.5641C182.868 14.5641 182.418 14.7412 182.129 15.0952C181.84 15.4493 181.695 15.9964 181.695 16.7367V21.4841H180.202Z" fill="#1C3F4B"/>
<path d="M196.842 16.8493C197.244 16.8976 197.581 16.9942 197.854 17.1229C198.127 17.2517 198.352 17.4287 198.513 17.6218C198.673 17.8149 198.802 18.0402 198.866 18.2816C198.93 18.523 198.978 18.7966 198.978 19.0702V19.1989C198.978 19.6656 198.882 20.0518 198.705 20.3737C198.529 20.6956 198.288 20.937 197.966 21.1301C197.661 21.3232 197.292 21.4519 196.89 21.5324C196.489 21.6129 196.055 21.6611 195.605 21.6611C195.156 21.6611 194.674 21.6289 194.208 21.5485C193.742 21.468 193.292 21.3715 192.859 21.2427L193.116 20.1162C193.565 20.245 193.967 20.3254 194.352 20.3898C194.738 20.4542 195.139 20.4703 195.573 20.4703C196.216 20.4703 196.698 20.3898 197.003 20.2128C197.308 20.0518 197.469 19.73 197.469 19.2633C197.469 18.7966 197.372 18.6196 197.195 18.4747C197.019 18.3299 196.73 18.2172 196.36 18.169L195.22 18.008C194.417 17.9115 193.838 17.6701 193.469 17.2999C193.1 16.9298 192.923 16.447 192.923 15.8194V15.6906C192.923 15.2883 193.003 14.9343 193.164 14.6446C193.324 14.3549 193.565 14.1135 193.855 13.9204C194.16 13.7273 194.513 13.5825 194.931 13.4859C195.348 13.3893 195.814 13.3411 196.312 13.3411C196.81 13.3411 197.308 13.3732 197.725 13.4537C198.143 13.5342 198.48 13.6146 198.753 13.7112L198.48 14.8377C198.127 14.7251 197.79 14.6446 197.452 14.5963C197.115 14.548 196.73 14.5159 196.296 14.5159C195.605 14.5159 195.107 14.6124 194.802 14.7894C194.497 14.9665 194.336 15.2561 194.336 15.6424C194.336 16.0286 194.417 16.2217 194.593 16.3665C194.77 16.5114 195.091 16.6079 195.557 16.6723L196.826 16.8332L196.842 16.8493Z" fill="#1C3F4B"/>
<path d="M145.973 35.5011C145.041 35.5011 144.286 35.3885 143.692 35.1793C143.098 34.9701 142.632 34.6482 142.279 34.2137C141.941 33.7953 141.7 33.2642 141.572 32.6366C141.443 32.009 141.363 31.2848 141.363 30.4479V29.3214C141.363 28.5168 141.427 27.7926 141.572 27.1489C141.717 26.5052 141.974 25.9741 142.327 25.5235C142.68 25.089 143.162 24.751 143.772 24.5096C144.383 24.2682 145.138 24.1556 146.053 24.1556C146.969 24.1556 146.953 24.1878 147.338 24.2682C147.74 24.3326 148.061 24.4292 148.334 24.5096L148.061 25.7166C147.82 25.6522 147.531 25.6039 147.21 25.5396C146.872 25.4752 146.535 25.4591 146.198 25.4591C145.588 25.4591 145.074 25.5235 144.672 25.6361C144.254 25.7488 143.933 25.958 143.676 26.2477C143.419 26.5373 143.226 26.9397 143.114 27.4385C143.002 27.9374 142.937 28.5811 142.937 29.3536V30.3675C142.937 31.1238 142.985 31.7515 143.098 32.2503C143.21 32.7331 143.387 33.1355 143.644 33.409C143.901 33.6987 144.238 33.8918 144.656 34.0045C145.074 34.1171 145.604 34.1815 146.23 34.1815C146.856 34.1815 146.872 34.1654 147.258 34.1171C147.643 34.0689 147.981 34.0367 148.286 33.9723L148.045 35.2115C147.724 35.2919 147.386 35.3563 147.017 35.4046C146.648 35.4529 146.31 35.4689 145.973 35.4689V35.5011Z" fill="#1C3F4B"/>
<path d="M151.386 35.3402H149.908V23.8337H151.386V35.3402Z" fill="#1C3F4B"/>
<path d="M154.631 31.8319C154.631 32.2986 154.695 32.6849 154.775 33.0067C154.856 33.3286 155.016 33.5861 155.209 33.7792C155.418 33.9884 155.691 34.1171 156.044 34.2137C156.398 34.2942 156.847 34.3424 157.393 34.3424C157.939 34.3424 158.213 34.3103 158.582 34.262C158.935 34.2137 159.241 34.1654 159.465 34.101L159.257 35.2115C159 35.308 158.662 35.3724 158.229 35.4368C157.795 35.5011 157.377 35.5172 156.96 35.5172C156.237 35.5172 155.627 35.4368 155.145 35.2597C154.663 35.0827 154.261 34.8413 153.972 34.5195C153.683 34.1976 153.474 33.7953 153.346 33.3125C153.217 32.8297 153.153 32.2825 153.153 31.671V31.0434C153.153 30.464 153.217 29.933 153.362 29.4663C153.49 28.9996 153.699 28.5812 153.988 28.2432C154.277 27.9052 154.631 27.6478 155.08 27.4546C155.53 27.2615 156.06 27.1811 156.687 27.1811C157.313 27.1811 157.779 27.2615 158.196 27.4385C158.598 27.6156 158.935 27.8409 159.192 28.1466C159.449 28.4363 159.626 28.7904 159.738 29.1766C159.851 29.5628 159.915 29.9812 159.915 30.4158V30.979C159.915 31.3491 159.867 31.5744 159.755 31.6871C159.642 31.7997 159.433 31.848 159.096 31.848H154.663L154.631 31.8319ZM156.606 28.3076C155.932 28.3076 155.434 28.5007 155.113 28.8708C154.791 29.241 154.631 29.8686 154.615 30.7537H158.453V30.3514C158.453 29.6916 158.309 29.1927 158.036 28.8386C157.763 28.4846 157.281 28.3076 156.606 28.3076Z" fill="#1C3F4B"/>
<path d="M161.104 32.878C161.104 32.4113 161.168 32.009 161.313 31.6871C161.457 31.3652 161.666 31.1238 161.939 30.9146C162.212 30.7215 162.533 30.5767 162.903 30.4962C163.272 30.4157 163.69 30.3675 164.139 30.3675C164.589 30.3675 165.023 30.4157 165.392 30.5123C165.746 30.6089 166.051 30.7859 166.292 31.0273V30.4157C166.292 30.0295 166.244 29.6916 166.131 29.418C166.035 29.1444 165.874 28.9352 165.681 28.7743C165.489 28.6133 165.248 28.5007 164.959 28.4202C164.67 28.3398 164.348 28.3076 163.995 28.3076C163.642 28.3076 163.256 28.3398 162.871 28.388C162.485 28.4524 162.132 28.5168 161.794 28.5972L162.003 27.4385C162.292 27.3581 162.63 27.2776 163.031 27.2293C163.433 27.165 163.85 27.1328 164.284 27.1328C165.408 27.1328 166.26 27.3903 166.838 27.8892C167.416 28.388 167.705 29.1444 167.705 30.1422V35.2919H166.42L166.292 34.439C166.035 34.8091 165.697 35.0666 165.28 35.2275C164.862 35.3724 164.396 35.4529 163.882 35.4529C162.967 35.4529 162.276 35.2597 161.794 34.8574C161.329 34.4712 161.088 33.8596 161.088 33.0228V32.8297L161.104 32.878ZM162.533 32.9584C162.533 33.4251 162.662 33.7631 162.935 33.9884C163.208 34.2137 163.642 34.3263 164.284 34.3263C164.927 34.3263 164.83 34.2942 165.087 34.2459C165.328 34.1976 165.537 34.1171 165.714 33.9884C165.89 33.8596 166.035 33.7148 166.131 33.5378C166.228 33.3447 166.292 33.1194 166.292 32.8458V32.717C166.292 32.2986 166.147 31.9929 165.874 31.7676C165.585 31.5423 165.135 31.4296 164.509 31.4296H164.252C163.658 31.4296 163.24 31.5423 162.967 31.7676C162.694 31.9929 162.565 32.3469 162.565 32.8297V32.9584H162.533Z" fill="#1C3F4B"/>
<path d="M174.146 28.6455C174.018 28.6133 173.857 28.5811 173.696 28.565C173.52 28.5329 173.359 28.5329 173.199 28.5329C172.893 28.5329 172.62 28.565 172.379 28.6455C172.122 28.726 171.914 28.8547 171.721 29.0478C171.528 29.241 171.383 29.4823 171.287 29.8042C171.191 30.1261 171.126 30.5284 171.126 30.9951V35.3402H169.633V27.3581H170.934L171.062 28.4202C171.319 28.034 171.64 27.7282 172.026 27.5351C172.411 27.342 172.877 27.2454 173.439 27.2454C174.002 27.2454 174.162 27.2937 174.435 27.4064L174.162 28.6616L174.146 28.6455Z" fill="#1C3F4B"/>
<path d="M174.644 32.878C174.644 32.4113 174.708 32.009 174.853 31.6871C174.997 31.3652 175.206 31.1238 175.479 30.9146C175.752 30.7215 176.074 30.5767 176.443 30.4962C176.812 30.4157 177.23 30.3675 177.68 30.3675C178.129 30.3675 178.563 30.4157 178.933 30.5123C179.286 30.6089 179.591 30.7859 179.832 31.0273V30.4157C179.832 30.0295 179.784 29.6916 179.671 29.418C179.575 29.1444 179.414 28.9352 179.222 28.7743C179.029 28.6133 178.788 28.5007 178.499 28.4202C178.21 28.3398 177.889 28.3076 177.535 28.3076C177.182 28.3076 176.796 28.3398 176.411 28.388C176.025 28.4524 175.672 28.5168 175.335 28.5972L175.543 27.4385C175.833 27.3581 176.17 27.2776 176.571 27.2293C176.973 27.165 177.391 27.1328 177.824 27.1328C178.949 27.1328 179.8 27.3903 180.378 27.8892C180.956 28.388 181.246 29.1444 181.246 30.1422V35.2919H179.961L179.832 34.439C179.575 34.8091 179.238 35.0666 178.82 35.2275C178.403 35.3724 177.937 35.4529 177.423 35.4529C176.507 35.4529 175.817 35.2597 175.335 34.8574C174.869 34.4712 174.628 33.8596 174.628 33.0228V32.8297L174.644 32.878ZM176.09 32.9584C176.09 33.4251 176.218 33.7631 176.491 33.9884C176.748 34.2137 177.198 34.3263 177.84 34.3263C178.483 34.3263 178.386 34.2942 178.643 34.2459C178.884 34.1976 179.093 34.1171 179.27 33.9884C179.447 33.8757 179.591 33.7148 179.688 33.5378C179.784 33.3447 179.848 33.1194 179.848 32.8458V32.717C179.848 32.2986 179.704 31.9929 179.431 31.7676C179.141 31.5423 178.692 31.4296 178.065 31.4296H177.808C177.214 31.4296 176.796 31.5423 176.523 31.7676C176.25 31.9929 176.122 32.3469 176.122 32.8297V32.9584H176.09Z" fill="#1C3F4B"/>
<path d="M183.173 35.3402V27.3581H184.474L184.603 28.3398C184.876 27.9535 185.229 27.6639 185.663 27.4707C186.096 27.2776 186.594 27.1811 187.14 27.1811C187.687 27.1811 187.944 27.2454 188.297 27.342C188.65 27.4546 188.955 27.6317 189.212 27.857C189.469 28.0823 189.662 28.388 189.807 28.7421C189.951 29.0961 190.016 29.5145 190.016 29.9812V35.3402H188.522V30.4801C188.522 29.7398 188.393 29.2088 188.12 28.8869C187.847 28.5651 187.397 28.4041 186.739 28.4041C186.08 28.4041 185.534 28.5812 185.197 28.9352C184.86 29.2892 184.683 29.8686 184.683 30.6732V35.3402H183.189H183.173Z" fill="#1C3F4B"/>
<path d="M197.195 35.1954C196.938 35.2758 196.649 35.3402 196.312 35.4046C195.975 35.4689 195.637 35.485 195.284 35.485C194.609 35.485 194.031 35.4046 193.565 35.2275C193.1 35.0505 192.73 34.793 192.441 34.4712C192.152 34.1493 191.959 33.747 191.847 33.2803C191.734 32.8136 191.67 32.2986 191.67 31.7193V30.979C191.67 30.3836 191.734 29.8686 191.879 29.4019C192.023 28.9352 192.248 28.549 192.553 28.211C192.859 27.8891 193.244 27.6317 193.726 27.4546C194.192 27.2776 194.77 27.1971 195.445 27.1971C196.119 27.1971 196.2 27.2293 196.521 27.2776C196.842 27.342 197.147 27.4064 197.404 27.4868L197.147 28.5972C196.633 28.4524 196.135 28.3719 195.653 28.3719C195.172 28.3719 194.85 28.4202 194.545 28.5007C194.24 28.5972 193.983 28.7421 193.79 28.9513C193.597 29.1605 193.453 29.4341 193.357 29.772C193.26 30.11 193.212 30.5284 193.212 31.0112V31.5744C193.212 32.0572 193.26 32.4756 193.357 32.8136C193.453 33.1515 193.597 33.4251 193.79 33.6504C193.999 33.8596 194.256 34.0206 194.577 34.1171C194.899 34.2137 195.284 34.262 195.75 34.262C196.216 34.262 196.328 34.2459 196.601 34.1976C196.874 34.1493 197.147 34.1171 197.404 34.0528L197.212 35.1632L197.195 35.1954Z" fill="#1C3F4B"/>
<path d="M200.054 31.8319C200.054 32.2986 200.119 32.6849 200.199 33.0067C200.279 33.3286 200.44 33.5861 200.633 33.7792C200.841 33.9884 201.114 34.1171 201.468 34.2137C201.821 34.2942 202.271 34.3424 202.817 34.3424C203.363 34.3424 203.636 34.3103 204.006 34.262C204.359 34.2137 204.664 34.1654 204.889 34.101L204.68 35.2115C204.423 35.308 204.086 35.3724 203.652 35.4368C203.219 35.5011 202.801 35.5172 202.383 35.5172C201.661 35.5172 201.05 35.4368 200.568 35.2597C200.086 35.0827 199.685 34.8413 199.396 34.5195C199.107 34.1976 198.898 33.7953 198.769 33.3125C198.641 32.8297 198.577 32.2825 198.577 31.671V31.0434C198.577 30.464 198.641 29.933 198.785 29.4663C198.914 28.9996 199.123 28.5812 199.412 28.2432C199.701 27.9052 200.054 27.6478 200.504 27.4546C200.954 27.2615 201.484 27.1811 202.11 27.1811C202.737 27.1811 203.203 27.2615 203.62 27.4385C204.022 27.6156 204.359 27.8409 204.616 28.1466C204.873 28.4363 205.05 28.7904 205.162 29.1766C205.275 29.5628 205.339 29.9812 205.339 30.4158V30.979C205.339 31.3491 205.291 31.5744 205.178 31.6871C205.066 31.7997 204.857 31.848 204.52 31.848H200.086L200.054 31.8319ZM202.03 28.3076C201.355 28.3076 200.857 28.5007 200.536 28.8708C200.215 29.241 200.054 29.8686 200.038 30.7537H203.877V30.3514C203.877 29.6916 203.733 29.1927 203.46 28.8386C203.186 28.4846 202.705 28.3076 202.03 28.3076Z" fill="#1C3F4B"/>
</g>
<defs>
<clipPath id="clip0_9_986">
<rect width="205.307" height="36" fill="white"/>
</clipPath>
</defs>
</svg>
