<svg width="130" height="60" viewBox="0 0 130 60" fill="none" xmlns="http://www.w3.org/2000/svg">
<g clip-path="url(#clip0_9_1098)">
<path d="M14.377 36.1293C11.4887 36.1293 9.10334 35.7901 7.23726 35.1279C5.37118 34.4496 3.91077 33.4644 2.85603 32.1562C1.80129 30.848 1.05486 29.2168 0.632966 27.2625C0.21107 25.3083 0.00012207 23.0633 0.00012207 20.4954V16.9907C0.00012207 14.4873 0.227297 12.2585 0.681647 10.272C1.136 8.28541 1.91488 6.62189 3.05076 5.26522C4.1704 3.90856 5.67949 2.85876 7.5618 2.11583C9.4441 1.37289 11.8132 1.01758 14.6691 1.01758C17.525 1.01758 17.4601 1.13063 18.6934 1.35674C19.9266 1.58285 20.9651 1.84127 21.8089 2.13198L20.9489 5.87895C20.2025 5.68514 19.31 5.50748 18.2715 5.32983C17.233 5.15217 16.1782 5.07141 15.1072 5.07141C13.2087 5.07141 11.6185 5.24907 10.3366 5.60439C9.05466 5.95971 7.99992 6.58958 7.20481 7.49403C6.39347 8.39847 5.82553 9.64207 5.46854 11.2087C5.11156 12.7753 4.93306 14.7619 4.93306 17.1522V20.3177C4.93306 22.6919 5.09533 24.63 5.43609 26.1481C5.77685 27.6663 6.32856 28.8615 7.12368 29.7497C7.91879 30.638 8.9573 31.2518 10.2879 31.5909C11.6023 31.9462 13.2412 32.1239 15.2046 32.1239C17.168 32.1239 17.2005 32.0593 18.4175 31.9301C19.6183 31.8009 20.6893 31.6555 21.6304 31.494L20.8515 35.3379C19.8617 35.5963 18.7907 35.7901 17.6386 35.9355C16.5028 36.0808 15.4156 36.1454 14.377 36.1454V36.1293Z" fill="white"/>
<path d="M21.8251 20.5598V16.5706H36.916V20.5598H21.8251Z" fill="#C0D563"/>
<path d="M48.1936 1.48584V31.5747H64.0958L63.463 35.6608H43.358V1.48584H48.1774H48.1936Z" fill="white"/>
<path d="M71.0084 1.09814C73.0043 1.09814 73.9942 2.01874 73.9942 3.87607C73.9942 5.73341 73.0043 6.654 71.0084 6.654C69.0125 6.654 68.0227 5.73341 68.0227 3.87607C68.0227 2.01874 69.0125 1.09814 71.0084 1.09814ZM68.688 10.8855H73.3613V35.6446H68.688V10.8855Z" fill="white"/>
<path d="M80.5985 35.6447V10.8856H84.6552L85.0446 13.9058C85.8722 12.6945 86.9756 11.7901 88.3387 11.1925C89.7017 10.5949 91.2433 10.3042 92.9471 10.3042C94.6509 10.3042 95.4622 10.4819 96.5657 10.8372C97.6529 11.1925 98.6102 11.7255 99.4053 12.4522C100.217 13.179 100.833 14.0835 101.255 15.1817C101.693 16.28 101.904 17.572 101.904 19.0418V35.6447H97.231V20.5761C97.231 18.2665 96.8091 16.6191 95.9815 15.6339C95.1377 14.6487 93.7097 14.1481 91.6976 14.1481C89.6855 14.1481 87.933 14.6972 86.8783 15.7793C85.8235 16.8614 85.288 18.6541 85.288 21.1575V35.6447H80.6147H80.5985Z" fill="white"/>
<path d="M113.328 23.7093V35.6608H108.849V0H113.328V20.2046L123.599 10.9017H129.1L117.044 21.8358L129.717 35.6608H124.021L113.312 23.7093H113.328Z" fill="white"/>
<path d="M5.71189 59.9676C4.77074 59.9676 4.00808 59.8545 3.40769 59.6446C2.8073 59.4346 2.33672 59.1116 1.97974 58.6755C1.63897 58.2556 1.39557 57.7226 1.26576 57.0927C1.13594 56.4629 1.05481 55.7361 1.05481 54.8962V53.7657C1.05481 52.9582 1.11972 52.2314 1.26576 51.5853C1.4118 50.9393 1.67143 50.4063 2.02842 49.9541C2.3854 49.518 2.87221 49.1789 3.48883 48.9366C4.10544 48.6944 4.8681 48.5813 5.79303 48.5813C6.71795 48.5813 6.70173 48.6136 7.09117 48.6944C7.49684 48.759 7.82137 48.8559 8.09723 48.9366L7.82137 50.1479C7.57797 50.0833 7.28589 50.0349 6.96135 49.9703C6.62059 49.9057 6.27983 49.8895 5.93907 49.8895C5.32245 49.8895 4.80319 49.9541 4.39752 50.0672C3.97563 50.1802 3.65109 50.3902 3.39146 50.6809C3.13184 50.9716 2.93712 51.3754 2.82353 51.8761C2.70994 52.3767 2.64503 53.0228 2.64503 53.798V54.8155C2.64503 55.5746 2.69371 56.2045 2.8073 56.7051C2.92089 57.1896 3.09938 57.5934 3.35901 57.868C3.61864 58.1587 3.9594 58.3525 4.3813 58.4656C4.80319 58.5786 5.33868 58.6432 5.97152 58.6432C6.60437 58.6432 6.62059 58.6271 7.01003 58.5786C7.39948 58.5302 7.74024 58.4979 8.04855 58.4333L7.80515 59.6769C7.48061 59.7576 7.13985 59.8222 6.76663 59.8707C6.39342 59.9191 6.05266 59.9353 5.71189 59.9353V59.9676Z" fill="white"/>
<path d="M16.4053 51.7952V59.806H15.091L14.9611 58.8208C14.7177 59.1761 14.377 59.4668 13.9389 59.6768C13.517 59.8867 13.0139 59.9836 12.4298 59.9836C11.5373 59.9836 10.8395 59.7414 10.3365 59.273C9.83348 58.8046 9.57385 58.094 9.57385 57.1572V51.7791H11.0667V56.6566C11.0667 57.3995 11.1965 57.9325 11.4724 58.2555C11.732 58.5785 12.2026 58.74 12.8517 58.74C13.5007 58.74 14.0362 58.5624 14.377 58.207C14.7177 57.8517 14.88 57.2703 14.88 56.4628V51.7791H16.3891L16.4053 51.7952Z" fill="white"/>
<path d="M21.9711 55.1546C22.3768 55.2031 22.7176 55.3 22.9934 55.4292C23.2693 55.5584 23.4965 55.7361 23.6587 55.9299C23.821 56.1237 23.9508 56.3498 24.0157 56.5921C24.0806 56.8343 24.1293 57.1089 24.1293 57.3834V57.5127C24.1293 57.981 24.0319 58.3686 23.8534 58.6917C23.6749 59.0147 23.4315 59.2569 23.107 59.4507C22.7987 59.6446 22.4255 59.7738 22.0198 59.8545C21.6142 59.9353 21.176 59.9837 20.7217 59.9837C20.2673 59.9837 19.7805 59.9514 19.3099 59.8707C18.8394 59.7899 18.385 59.693 17.9469 59.5638L18.2065 58.4332C18.6609 58.5625 19.0665 58.6432 19.456 58.7078C19.8454 58.7724 20.2511 58.7886 20.6892 58.7886C21.3383 58.7886 21.8251 58.7078 22.1334 58.5302C22.4417 58.3686 22.604 58.0456 22.604 57.5773C22.604 57.1089 22.5066 56.9312 22.3281 56.7859C22.1496 56.6405 21.8576 56.5275 21.4843 56.479L20.3322 56.3175C19.5209 56.2206 18.9367 55.9783 18.5635 55.6069C18.1903 55.2354 18.0118 54.7509 18.0118 54.121V53.9918C18.0118 53.588 18.0929 53.2327 18.2552 52.942C18.4175 52.6513 18.6609 52.409 18.953 52.2152C19.2613 52.0214 19.6183 51.876 20.0402 51.7791C20.462 51.6822 20.9326 51.6338 21.4357 51.6338C21.9387 51.6338 22.4417 51.6661 22.8636 51.7468C23.2855 51.8276 23.6263 51.9083 23.9021 52.0053L23.6263 53.1358C23.2693 53.0228 22.9285 52.942 22.5878 52.8935C22.247 52.8451 21.8576 52.8128 21.4194 52.8128C20.7217 52.8128 20.2186 52.9097 19.9103 53.0874C19.602 53.265 19.4398 53.5557 19.4398 53.9433C19.4398 54.331 19.5209 54.5248 19.6994 54.6701C19.8779 54.8155 20.2024 54.9124 20.673 54.977L21.9549 55.1385L21.9711 55.1546Z" fill="white"/>
<path d="M27.6992 52.9742V57.125C27.6992 57.7225 27.8128 58.1586 28.0399 58.4009C28.2671 58.6593 28.6565 58.7885 29.2245 58.7885C29.7924 58.7885 29.6788 58.7885 29.8411 58.7562C30.0196 58.7239 30.1656 58.7077 30.2955 58.6916L30.1007 59.7737C29.9385 59.8383 29.7275 59.8867 29.4841 59.919C29.2407 59.9513 28.9973 59.9675 28.7539 59.9675C28.3158 59.9675 27.9426 59.919 27.618 59.8221C27.2935 59.7252 27.0339 59.5637 26.8067 59.3376C26.5957 59.1115 26.4335 58.8208 26.3361 58.4493C26.2388 58.0778 26.1738 57.6256 26.1738 57.0927V52.9742H24.5999L24.7946 51.7952H26.1901V49.7925L27.6829 49.5664V51.7952H30.263L30.0521 52.9742H27.6829H27.6992Z" fill="white"/>
<path d="M34.8714 51.6177C35.5853 51.6177 36.1857 51.7146 36.6563 51.9084C37.1269 52.1022 37.5001 52.3606 37.776 52.7159C38.0518 53.0551 38.2465 53.4589 38.3601 53.9272C38.4737 54.3956 38.5224 54.8963 38.5224 55.4454V56.1722C38.5224 56.7375 38.4575 57.2381 38.3439 57.7065C38.2303 58.1749 38.0194 58.5786 37.7435 58.9178C37.4677 59.257 37.0944 59.5315 36.6239 59.7253C36.1533 59.9192 35.5853 60.0161 34.8876 60.0161C34.1898 60.0161 33.5732 59.9192 33.1027 59.7253C32.6321 59.5315 32.2589 59.2731 31.983 58.9178C31.7071 58.5786 31.5124 58.1749 31.3988 57.7065C31.2853 57.2381 31.2366 56.7213 31.2366 56.1722V55.4454C31.2366 54.8963 31.3015 54.3956 31.4151 53.9272C31.5287 53.4589 31.7396 53.0551 32.0155 52.7159C32.2913 52.3768 32.6645 52.1022 33.1351 51.9084C33.6057 51.7146 34.1736 51.6177 34.8714 51.6177ZM34.8876 58.7886C35.6665 58.7886 36.202 58.5948 36.5103 58.191C36.8186 57.7873 36.9646 57.1251 36.9646 56.2045V55.3969C36.9646 54.9286 36.9322 54.541 36.8673 54.2018C36.8024 53.8788 36.6888 53.6042 36.5265 53.3943C36.3642 53.1843 36.1533 53.0389 35.8937 52.942C35.634 52.8451 35.2933 52.7967 34.9038 52.7967C34.5144 52.7967 34.1736 52.8451 33.8978 52.942C33.6219 53.0389 33.411 53.2004 33.2487 53.3943C33.0864 53.6042 32.9728 53.8626 32.8917 54.2018C32.8268 54.5248 32.7781 54.9286 32.7781 55.3969V56.2045C32.7781 56.6729 32.8106 57.0766 32.8917 57.3996C32.9566 57.7227 33.0864 57.9972 33.2487 58.2072C33.411 58.4171 33.6219 58.5625 33.8978 58.6432C34.1736 58.7402 34.4982 58.7886 34.9038 58.7886H34.8876Z" fill="white"/>
<path d="M40.2911 59.8061V51.7953H41.6055L41.7353 52.7644C41.9463 52.4414 42.2384 52.1507 42.6278 51.9407C43.0172 51.7146 43.4716 51.6177 44.0071 51.6177C44.5426 51.6177 45.0294 51.7146 45.435 51.9245C45.8407 52.1345 46.1328 52.4414 46.3113 52.8613C46.5384 52.4898 46.863 52.183 47.2849 51.9568C47.7068 51.7307 48.2098 51.6177 48.8102 51.6177C49.4106 51.6177 50.2868 51.8438 50.7574 52.3122C51.228 52.7805 51.4552 53.475 51.4552 54.3795V59.8223H49.9461V54.8963C49.9461 54.1533 49.8325 53.6204 49.6053 53.3135C49.3781 53.0066 48.9725 52.8613 48.4045 52.8613C47.8366 52.8613 47.3985 53.0228 47.0902 53.3297C46.7818 53.6365 46.6196 54.1695 46.6196 54.9124V59.8223H45.1105V54.8963C45.1105 54.1533 44.9969 53.6365 44.7697 53.3297C44.5426 53.0228 44.1531 52.8613 43.5689 52.8613C42.9848 52.8613 42.5304 53.0389 42.2384 53.3943C41.9463 53.7496 41.8002 54.2987 41.8002 55.0416V59.8061H40.2911Z" fill="white"/>
<path d="M57.1021 55.1546C57.5078 55.2031 57.8486 55.3 58.1244 55.4292C58.4003 55.5584 58.6274 55.7361 58.7897 55.9299C58.952 56.1237 59.0818 56.3498 59.1467 56.5921C59.2116 56.8343 59.2603 57.1089 59.2603 57.3834V57.5127C59.2603 57.981 59.1629 58.3686 58.9844 58.6917C58.8059 59.0147 58.5625 59.2569 58.238 59.4507C57.9297 59.6446 57.5565 59.7738 57.1508 59.8545C56.7451 59.9353 56.307 59.9837 55.8527 59.9837C55.3983 59.9837 54.9115 59.9514 54.4409 59.8707C53.9704 59.7899 53.516 59.693 53.0779 59.5638L53.3375 58.4332C53.7919 58.5625 54.1975 58.6432 54.587 58.7078C54.9764 58.7724 55.3821 58.7886 55.8202 58.7886C56.4693 58.7886 56.9561 58.7078 57.2644 58.5302C57.5727 58.3686 57.735 58.0456 57.735 57.5773C57.735 57.1089 57.6376 56.9312 57.4591 56.7859C57.2806 56.6405 56.9885 56.5275 56.6153 56.479L55.4632 56.3175C54.6519 56.2206 54.0677 55.9783 53.6945 55.6069C53.3213 55.2354 53.1428 54.7509 53.1428 54.121V53.9918C53.1428 53.588 53.2239 53.2327 53.3862 52.942C53.5485 52.6513 53.7919 52.409 54.0839 52.2152C54.3923 52.0214 54.7492 51.876 55.1711 51.7791C55.593 51.6822 56.0636 51.6338 56.5666 51.6338C57.0697 51.6338 57.5727 51.6661 57.9946 51.7468C58.4165 51.8276 58.7573 51.9083 59.0331 52.0053L58.7573 53.1358C58.4003 53.0228 58.0595 52.942 57.7187 52.8935C57.378 52.8451 56.9885 52.8128 56.5504 52.8128C55.8527 52.8128 55.3496 52.9097 55.0413 53.0874C54.733 53.265 54.5707 53.5557 54.5707 53.9433C54.5707 54.331 54.6519 54.5248 54.8304 54.6701C55.0089 54.8155 55.3334 54.9124 55.804 54.977L57.0859 55.1385L57.1021 55.1546Z" fill="white"/>
<path d="M68.9151 59.9676C67.974 59.9676 67.2113 59.8545 66.6109 59.6446C66.0105 59.4346 65.54 59.1116 65.183 58.6755C64.8422 58.2556 64.5988 57.7226 64.469 57.0927C64.3392 56.4629 64.2581 55.7361 64.2581 54.8962V53.7657C64.2581 52.9582 64.323 52.2314 64.469 51.5853C64.615 50.9393 64.8747 50.4063 65.2317 49.9541C65.5887 49.518 66.0755 49.1789 66.6921 48.9366C67.3087 48.6944 68.0714 48.5813 68.9963 48.5813C69.9212 48.5813 69.905 48.6136 70.2944 48.6944C70.7001 48.759 71.0246 48.8559 71.3005 48.9366L71.0246 50.1479C70.7812 50.0833 70.4891 50.0349 70.1646 49.9703C69.8238 49.9057 69.4831 49.8895 69.1423 49.8895C68.5257 49.8895 68.0064 49.9541 67.6008 50.0672C67.1789 50.1802 66.8543 50.3902 66.5947 50.6809C66.3351 50.9716 66.1404 51.3754 66.0268 51.8761C65.9132 52.3767 65.8483 53.0228 65.8483 53.798V54.8155C65.8483 55.5746 65.897 56.2045 66.0106 56.7051C66.1241 57.1896 66.3026 57.5934 66.5623 57.868C66.8219 58.1587 67.1626 58.3525 67.5845 58.4656C68.0064 58.5786 68.5419 58.6432 69.1748 58.6432C69.8076 58.6432 69.8238 58.6271 70.2133 58.5786C70.6027 58.5302 70.9435 58.4979 71.2518 58.4333L71.0084 59.6769C70.6839 59.7576 70.3431 59.8222 69.9699 59.8707C69.5967 59.9191 69.2559 59.9353 68.9151 59.9353V59.9676Z" fill="white"/>
<path d="M74.3835 59.8061H72.8906V48.2583H74.3835V59.8061Z" fill="white"/>
<path d="M77.6614 56.2852C77.6614 56.7536 77.7264 57.1412 77.8075 57.4642C77.8886 57.7873 78.0509 58.0457 78.2456 58.2395C78.4566 58.4494 78.7324 58.5786 79.0894 58.6755C79.4464 58.7563 79.9007 58.8048 80.4525 58.8048C81.0042 58.8048 81.28 58.7725 81.6532 58.724C82.0102 58.6755 82.3185 58.6271 82.5457 58.5625L82.3348 59.6769C82.0751 59.7738 81.7344 59.8384 81.2962 59.903C80.8581 59.9676 80.4362 59.9838 80.0143 59.9838C79.2841 59.9838 78.6675 59.903 78.1807 59.7253C77.6939 59.5477 77.2882 59.3054 76.9961 58.9824C76.7041 58.6594 76.4931 58.2556 76.3633 57.7711C76.2335 57.2866 76.1686 56.7375 76.1686 56.1237V55.4939C76.1686 54.9124 76.2335 54.3794 76.3795 53.9111C76.5093 53.4427 76.7203 53.0228 77.0124 52.6836C77.3045 52.3445 77.6614 52.086 78.1158 51.8922C78.5701 51.6984 79.1056 51.6177 79.7385 51.6177C80.3713 51.6177 80.8419 51.6984 81.2638 51.8761C81.6695 52.0537 82.0102 52.2799 82.2698 52.5867C82.5295 52.8774 82.708 53.2327 82.8216 53.6204C82.9351 54.008 83.0001 54.4279 83.0001 54.864V55.4293C83.0001 55.8007 82.9514 56.0268 82.8378 56.1399C82.7242 56.2529 82.5132 56.3014 82.1725 56.3014H77.6939L77.6614 56.2852ZM79.6573 52.7644C78.9758 52.7644 78.4728 52.9582 78.1482 53.3297C77.8237 53.7011 77.6614 54.331 77.6452 55.2193H81.5234V54.8155C81.5234 54.1533 81.3774 53.6527 81.1015 53.2974C80.8257 52.942 80.3389 52.7644 79.6573 52.7644Z" fill="white"/>
<path d="M84.2007 57.3349C84.2007 56.8665 84.2656 56.4628 84.4116 56.1398C84.5577 55.8167 84.7686 55.5745 85.0445 55.3645C85.3203 55.1707 85.6449 55.0254 86.0181 54.9446C86.3913 54.8638 86.8132 54.8154 87.2675 54.8154C87.7219 54.8154 88.16 54.8638 88.5332 54.9607C88.8902 55.0577 89.1985 55.2353 89.4419 55.4776V54.8638C89.4419 54.4762 89.3932 54.1371 89.2796 53.8625C89.1823 53.5879 89.02 53.378 88.8253 53.2165C88.6306 53.055 88.3872 52.9419 88.0951 52.8612C87.803 52.7804 87.4785 52.7481 87.1215 52.7481C86.7645 52.7481 86.3751 52.7804 85.9856 52.8289C85.5962 52.8935 85.2392 52.9581 84.8984 53.0388L85.1094 51.876C85.4015 51.7952 85.7422 51.7144 86.1479 51.666C86.5536 51.6014 86.9754 51.5691 87.4136 51.5691C88.5494 51.5691 89.4095 51.8275 89.9936 52.3282C90.5778 52.8289 90.8699 53.5879 90.8699 54.5893V59.7575H89.5717L89.4419 58.9015C89.1823 59.273 88.8415 59.5314 88.4196 59.6929C87.9977 59.8383 87.5272 59.919 87.0079 59.919C86.083 59.919 85.3852 59.7252 84.8984 59.3214C84.4278 58.9338 84.1844 58.3201 84.1844 57.4803V57.2865L84.2007 57.3349ZM85.6449 57.4157C85.6449 57.884 85.7747 58.2232 86.0505 58.4493C86.3102 58.6754 86.7645 58.7885 87.4136 58.7885C88.0626 58.7885 87.9653 58.7562 88.2249 58.7077C88.4683 58.6593 88.6793 58.5785 88.8578 58.4493C89.0363 58.3363 89.1823 58.1747 89.2796 57.9971C89.377 57.8033 89.4419 57.5772 89.4419 57.3026V57.1734C89.4419 56.7535 89.2959 56.4466 89.02 56.2205C88.7279 55.9944 88.2736 55.8813 87.6407 55.8813H87.3811C86.7807 55.8813 86.3588 55.9944 86.083 56.2205C85.8071 56.4466 85.6773 56.8019 85.6773 57.2865V57.4157H85.6449Z" fill="white"/>
<path d="M97.377 53.1036C97.2472 53.0713 97.0849 53.039 96.9226 53.0228C96.7441 52.9905 96.5819 52.9905 96.4196 52.9905C96.1113 52.9905 95.8354 53.0228 95.592 53.1036C95.3324 53.1844 95.1215 53.3136 94.9267 53.5074C94.732 53.7012 94.586 53.9434 94.4886 54.2665C94.3913 54.5895 94.3263 54.9932 94.3263 55.4616V59.8223H92.8173V51.8115H94.1316L94.2614 52.8775C94.5211 52.4899 94.8456 52.183 95.235 51.9892C95.6245 51.7954 96.0951 51.6985 96.663 51.6985C97.2309 51.6985 97.3932 51.7469 97.6691 51.86L97.3932 53.1197L97.377 53.1036Z" fill="white"/>
<path d="M97.8799 57.3349C97.8799 56.8665 97.9448 56.4628 98.0908 56.1398C98.2369 55.8167 98.4478 55.5745 98.7237 55.3645C98.9995 55.1707 99.3241 55.0254 99.6973 54.9446C100.07 54.8638 100.492 54.8154 100.947 54.8154C101.401 54.8154 101.839 54.8638 102.212 54.9607C102.569 55.0577 102.878 55.2353 103.121 55.4776V54.8638C103.121 54.4762 103.072 54.1371 102.959 53.8625C102.861 53.5879 102.699 53.378 102.505 53.2165C102.31 53.055 102.066 52.9419 101.774 52.8612C101.482 52.7804 101.158 52.7481 100.801 52.7481C100.444 52.7481 100.054 52.7804 99.6648 52.8289C99.2754 52.8935 98.9184 52.9581 98.5776 53.0388L98.7886 51.876C99.0807 51.7952 99.4214 51.7144 99.8271 51.666C100.233 51.6175 100.655 51.5691 101.093 51.5691C102.229 51.5691 103.089 51.8275 103.673 52.3282C104.257 52.8289 104.549 53.5879 104.549 54.5893V59.7575H103.251L103.121 58.9015C102.861 59.273 102.521 59.5314 102.099 59.6929C101.677 59.8383 101.206 59.919 100.687 59.919C99.7622 59.919 99.0644 59.7252 98.5776 59.3214C98.1071 58.9338 97.8636 58.3201 97.8636 57.4803V57.2865L97.8799 57.3349ZM99.3403 57.4157C99.3403 57.884 99.4701 58.2232 99.7459 58.4493C100.006 58.6754 100.46 58.7885 101.109 58.7885C101.758 58.7885 101.661 58.7562 101.92 58.7077C102.164 58.6593 102.375 58.5785 102.553 58.4493C102.732 58.3363 102.878 58.1747 102.975 57.9971C103.072 57.8033 103.137 57.5772 103.137 57.3026V57.1734C103.137 56.7535 102.991 56.4466 102.715 56.2205C102.423 55.9944 101.969 55.8813 101.336 55.8813H101.077C100.476 55.8813 100.054 55.9944 99.7784 56.2205C99.5025 56.4466 99.3727 56.8019 99.3727 57.2865V57.4157H99.3403Z" fill="white"/>
<path d="M106.496 59.8061V51.7953H107.811L107.941 52.7805C108.216 52.3929 108.573 52.1022 109.012 51.9084C109.45 51.7146 109.953 51.6177 110.504 51.6177C111.056 51.6177 111.316 51.6823 111.673 51.7792C112.03 51.8922 112.338 52.0699 112.598 52.296C112.857 52.5221 113.052 52.829 113.198 53.1843C113.344 53.5396 113.409 53.9595 113.409 54.4279V59.8061H111.9V54.9286C111.9 54.1856 111.77 53.6527 111.494 53.3297C111.218 53.0066 110.764 52.8451 110.099 52.8451C109.434 52.8451 108.882 53.0228 108.541 53.3781C108.2 53.7334 108.022 54.3148 108.022 55.1224V59.8061H106.513H106.496Z" fill="white"/>
<path d="M120.662 59.6768C120.403 59.7576 120.111 59.8222 119.77 59.8868C119.429 59.9514 119.088 59.9675 118.731 59.9675C118.05 59.9675 117.466 59.8868 116.995 59.7091C116.524 59.5315 116.151 59.2731 115.859 58.95C115.567 58.627 115.372 58.2233 115.259 57.7549C115.145 57.2865 115.08 56.7697 115.08 56.1883V55.4453C115.08 54.8477 115.145 54.3309 115.291 53.8626C115.437 53.3942 115.664 53.0066 115.973 52.6674C116.281 52.3444 116.67 52.086 117.157 51.9083C117.628 51.7307 118.212 51.6499 118.893 51.6499C119.575 51.6499 119.656 51.6822 119.981 51.7307C120.305 51.7953 120.614 51.8599 120.873 51.9406L120.614 53.055C120.094 52.9097 119.591 52.8289 119.104 52.8289C118.618 52.8289 118.293 52.8774 117.985 52.9581C117.676 53.055 117.417 53.2004 117.222 53.4103C117.027 53.6203 116.881 53.8949 116.784 54.234C116.687 54.5732 116.638 54.9931 116.638 55.4776V56.0429C116.638 56.5274 116.687 56.9473 116.784 57.2865C116.881 57.6257 117.027 57.9002 117.222 58.1263C117.433 58.3363 117.693 58.4978 118.017 58.5947C118.342 58.6916 118.731 58.7401 119.202 58.7401C119.672 58.7401 119.786 58.7239 120.062 58.6755C120.338 58.627 120.614 58.5947 120.873 58.5301L120.678 59.6445L120.662 59.6768Z" fill="white"/>
<path d="M123.551 56.2852C123.551 56.7536 123.616 57.1412 123.697 57.4642C123.778 57.7873 123.94 58.0457 124.135 58.2395C124.346 58.4494 124.622 58.5786 124.979 58.6755C125.336 58.7563 125.79 58.8048 126.342 58.8048C126.893 58.8048 127.169 58.7725 127.543 58.724C127.9 58.6755 128.208 58.6271 128.435 58.5625L128.224 59.6769C127.964 59.7738 127.624 59.8384 127.186 59.903C126.747 59.9676 126.326 59.9838 125.904 59.9838C125.173 59.9838 124.557 59.903 124.07 59.7253C123.583 59.5477 123.178 59.3054 122.885 58.9824C122.593 58.6594 122.382 58.2556 122.253 57.7711C122.123 57.2866 122.058 56.7375 122.058 56.1237V55.4939C122.058 54.9124 122.123 54.3794 122.269 53.9111C122.399 53.4427 122.61 53.0228 122.902 52.6836C123.194 52.3445 123.551 52.086 124.005 51.8922C124.459 51.6984 124.995 51.6177 125.628 51.6177C126.261 51.6177 126.731 51.6984 127.153 51.8761C127.559 52.0537 127.9 52.2799 128.159 52.5867C128.419 52.8774 128.597 53.2327 128.711 53.6204C128.824 54.008 128.889 54.4279 128.889 54.864V55.4293C128.889 55.8007 128.841 56.0268 128.727 56.1399C128.613 56.2529 128.403 56.3014 128.062 56.3014H123.583L123.551 56.2852ZM125.547 52.7644C124.865 52.7644 124.362 52.9582 124.038 53.3297C123.713 53.7011 123.551 54.331 123.535 55.2193H127.413V54.8155C127.413 54.1533 127.267 53.6527 126.991 53.2974C126.715 52.942 126.228 52.7644 125.547 52.7644Z" fill="white"/>
</g>
<defs>
<clipPath id="clip0_9_1098">
<rect width="129.701" height="60" fill="white"/>
</clipPath>
</defs>
</svg>
