<svg width="60" height="60" viewBox="0 0 60 60" fill="none" xmlns="http://www.w3.org/2000/svg">
<path d="M53.2329 30.3057L46.7052 20.2254C46.1993 19.4441 45.3415 18.9775 44.4106 18.9775H15.6098C14.6804 18.9775 13.8234 19.4429 13.3173 20.2222L6.76931 30.3038C6.10017 31.3339 6.20353 32.694 7.02068 33.6111L27.9576 57.1166C28.4758 57.6983 29.2197 58.032 29.9988 58.032C29.9987 58.032 29.9989 58.032 29.9988 58.032C30.7778 58.032 31.522 57.6984 32.0402 57.1167L52.9795 33.6098C53.7955 32.6937 53.8997 31.3351 53.2329 30.3057ZM43.0883 21.3212L37.5985 29.8102L32.1055 21.3212H43.0883ZM35.4447 30.796H24.5529L29.9988 22.3797L35.4447 30.796ZM27.8921 21.3214L22.4142 29.7871L16.9381 21.3214H27.8921ZM14.7712 22.2864L20.2755 30.796H9.24431L14.7712 22.2864ZM9.73931 33.1398H21.5336L27.7699 53.3821L9.73931 33.1398ZM29.9988 52.6565L23.986 33.1398H36.0116L29.9988 52.6565ZM32.2276 53.3829L38.4641 33.1399H50.2595L32.2276 53.3829ZM39.7523 30.796L45.2516 22.2923L50.7581 30.796H39.7523Z" fill="black"/>
<path d="M3.55465 30.7961H1.17188C0.524766 30.7961 0 31.3208 0 31.968C0 32.6152 0.524766 33.1399 1.17188 33.1399H3.55465C4.20176 33.1399 4.72652 32.6152 4.72652 31.968C4.72652 31.3208 4.20176 30.7961 3.55465 30.7961Z" fill="black"/>
<path d="M58.8281 30.7961H56.4453C55.7982 30.7961 55.2734 31.3208 55.2734 31.968C55.2734 32.6152 55.7982 33.1399 56.4453 33.1399H58.8281C59.4752 33.1399 60 32.6152 60 31.968C60 31.3208 59.4752 30.7961 58.8281 30.7961Z" fill="black"/>
<path d="M51.228 10.7608C50.7703 10.3032 50.0285 10.3032 49.5707 10.7608L45.6781 14.6534C45.2204 15.111 45.2204 15.8531 45.6781 16.3107C45.907 16.5396 46.2069 16.6539 46.5068 16.6539C46.8068 16.6539 47.1066 16.5394 47.3354 16.3107L51.228 12.4181C51.6857 11.9605 51.6857 11.2185 51.228 10.7608Z" fill="black"/>
<path d="M14.3726 14.6327L10.4801 10.7399C10.0226 10.2823 9.28079 10.2823 8.82271 10.7399C8.36509 11.1976 8.36509 11.9396 8.82271 12.3972L12.7153 16.2898C12.9442 16.5187 13.2441 16.6331 13.544 16.6331C13.8438 16.6331 14.1437 16.5186 14.3726 16.2898C14.8302 15.8323 14.8302 15.0902 14.3726 14.6327Z" fill="black"/>
<path d="M30.0298 1.9679C29.3827 1.9679 28.8579 2.49254 28.8579 3.13977V10.7766C28.8579 11.4239 29.3826 11.9485 30.0298 11.9485C30.6769 11.9485 31.2017 11.4239 31.2017 10.7766V3.13977C31.2017 2.49266 30.6769 1.9679 30.0298 1.9679Z" fill="black"/>
<path d="M30.8577 13.9125C30.6398 13.6945 30.3375 13.5691 30.0293 13.5691C29.7211 13.5691 29.4187 13.6945 29.2008 13.9125C28.9828 14.1304 28.8574 14.4328 28.8574 14.741C28.8574 15.0503 28.9827 15.3515 29.2008 15.5695C29.4187 15.7886 29.7211 15.9128 30.0293 15.9128C30.3375 15.9128 30.6398 15.7886 30.8577 15.5695C31.0768 15.3515 31.2012 15.0492 31.2012 14.741C31.2012 14.4328 31.0768 14.1305 30.8577 13.9125Z" fill="black"/>
</svg>
