<svg width="60" height="60" viewBox="0 0 60 60" fill="none" xmlns="http://www.w3.org/2000/svg">
<path d="M22.9688 25.3125C23.6156 25.3125 24.1406 24.7874 24.1406 24.1406C24.1406 23.4906 23.6101 22.9688 22.9688 22.9688C22.3219 22.9688 21.7969 23.4938 21.7969 24.1406C21.7969 24.7879 22.3219 25.3125 22.9688 25.3125Z" fill="black"/>
<path d="M30 10.0781C30.6473 10.0781 31.1719 9.55353 31.1719 8.90625V1.17188C31.1719 0.524597 30.6473 0 30 0C29.3527 0 28.8281 0.524597 28.8281 1.17188V8.90625C28.8281 9.55353 29.3527 10.0781 30 10.0781Z" fill="black"/>
<path d="M28.8281 51.0938V58.8281C28.8281 59.4754 29.3527 60 30 60C30.6473 60 31.1719 59.4754 31.1719 58.8281V51.0938C31.1719 50.4465 30.6473 49.9219 30 49.9219C29.3527 49.9219 28.8281 50.4465 28.8281 51.0938Z" fill="black"/>
<path d="M11.9119 15.9128C12.3697 16.3706 13.1113 16.3706 13.5695 15.9128C14.0268 15.4555 14.0268 14.7135 13.5695 14.2557L8.5968 9.28351C8.1395 8.82574 7.39746 8.82574 6.9397 9.28351C6.48193 9.74127 6.48193 10.4833 6.9397 10.9406L11.9119 15.9128Z" fill="black"/>
<path d="M46.431 45.2588C45.9732 45.7165 45.9732 46.4585 46.431 46.9163L51.4032 51.8885C51.8605 52.3458 52.6025 52.3463 53.0603 51.8885C53.5181 51.4308 53.5181 50.6887 53.0603 50.231L48.0881 45.2588C47.6303 44.8014 46.8887 44.8014 46.431 45.2588Z" fill="black"/>
<path d="M48.0881 15.9128L53.0603 10.9406C53.5181 10.4833 53.5181 9.74127 53.0603 9.28351C52.6025 8.82574 51.861 8.82574 51.4032 9.28351L46.431 14.2557C45.9732 14.7135 45.9732 15.4555 46.431 15.9128C46.8887 16.3706 47.6303 16.3706 48.0881 15.9128Z" fill="black"/>
<path d="M11.9119 45.2591L6.9397 50.2313C6.48193 50.6886 6.48193 51.4307 6.9397 51.8884C7.39746 52.3462 8.13904 52.3462 8.5968 51.8884L13.5695 46.9162C14.0268 46.4584 14.0268 45.7164 13.5695 45.2591C13.1117 44.8013 12.3697 44.8013 11.9119 45.2591Z" fill="black"/>
<path d="M10.5277 38.5121C16.6347 43.6766 23.3684 46.4062 30 46.4062C36.6321 46.4062 43.3653 43.6766 49.4724 38.5121C54.0482 34.6426 56.6455 30.8153 56.7535 30.6541C57.0195 30.2586 57.0195 29.7414 56.7535 29.3459C56.6455 29.1852 54.0482 25.3574 49.4724 21.4879C43.3653 16.3234 36.6321 13.5938 30 13.5938C23.3684 13.5938 16.6347 16.3234 10.5277 21.4879C5.95231 25.3574 3.35496 29.1847 3.24647 29.3459C2.98051 29.7414 2.98051 30.2586 3.24647 30.6541C3.35496 30.8153 5.95231 34.6426 10.5277 38.5121ZM12.041 23.2777C16.0007 19.9292 22.3306 15.9375 30 15.9375C37.646 15.9375 43.9595 19.9063 47.9096 23.2356C51.172 25.9859 53.4123 28.77 54.3361 30.0009C53.4197 31.2231 51.2041 33.978 47.959 36.7223C43.9993 40.0708 37.6694 44.0625 30 44.0625C22.354 44.0625 16.0405 40.0937 12.0909 36.7644C8.82798 34.0141 6.58723 31.2296 5.66438 29.9995C6.58036 28.7769 8.79594 26.022 12.041 23.2777Z" fill="black"/>
<path d="M30 40.5469C35.8516 40.5469 40.5469 35.7976 40.5469 30C40.5469 24.1846 35.8154 19.4531 30 19.4531C28.7686 19.4531 27.4319 19.6788 26.2253 20.1489C25.6219 20.3833 25.323 21.0626 25.5574 21.666C25.778 22.2336 26.3942 22.5943 27.188 22.2917C28.0806 21.9576 29.0804 21.7969 30 21.7969C34.5232 21.7969 38.2031 25.4768 38.2031 30C38.2031 34.5099 34.5465 38.2031 30 38.2031C25.4768 38.2031 21.7969 34.5232 21.7969 30C21.7969 29.453 21.8454 29.0323 21.9324 28.504C22.0528 27.8682 21.6348 27.2589 20.999 27.1376C20.365 27.0177 19.7498 27.4374 19.6284 28.0728C19.5085 28.7091 19.4531 29.3811 19.4531 30C19.4531 35.8154 24.1846 40.5469 30 40.5469Z" fill="black"/>
<path d="M34.6875 30C34.6875 27.4155 32.5845 25.3125 30 25.3125C27.4155 25.3125 25.3125 27.4155 25.3125 30C25.3125 32.5845 27.4155 34.6875 30 34.6875C32.5845 34.6875 34.6875 32.5845 34.6875 30ZM27.6562 30C27.6562 28.7077 28.7077 27.6562 30 27.6562C31.2923 27.6562 32.3438 28.7077 32.3438 30C32.3438 31.2923 31.2923 32.3438 30 32.3438C28.7077 32.3438 27.6562 31.2923 27.6562 30Z" fill="black"/>
</svg>
