<svg width="32" height="32" version="1.2" xmlns="http://www.w3.org/2000/svg" viewBox="0 0 32 30">
	<g>
		<path fill="#000000" d="m0 1.5q0 0.3 0.1 0.6 0.1 0.2 0.3 0.5 0.3 0.2 0.5 0.3 0.3 0.1 0.6 0.1h19c0.4 0 0.8-0.2 1.1-0.4 0.2-0.3 0.4-0.7 0.4-1.1 0-0.4-0.2-0.8-0.4-1.1-0.3-0.2-0.7-0.4-1.1-0.4h-19q-0.3 0-0.6 0.1-0.2 0.1-0.5 0.3-0.2 0.3-0.3 0.5-0.1 0.3-0.1 0.6zm30.5 11.5h-29c-0.4 0-0.8 0.2-1.1 0.4-0.2 0.3-0.4 0.7-0.4 1.1 0 0.4 0.2 0.8 0.4 1.1 0.3 0.2 0.7 0.4 1.1 0.4h29c0.4 0 0.8-0.2 1.1-0.4 0.2-0.3 0.4-0.7 0.4-1.1 0-0.4-0.2-0.8-0.4-1.1-0.3-0.2-0.7-0.4-1.1-0.4zm0 14h-19c-0.4 0-0.8 0.2-1.1 0.4-0.2 0.3-0.4 0.7-0.4 1.1 0 0.4 0.2 0.8 0.4 1.1 0.3 0.2 0.7 0.4 1.1 0.4h19c0.4 0 0.8-0.2 1.1-0.4 0.2-0.3 0.4-0.7 0.4-1.1 0-0.4-0.2-0.8-0.4-1.1-0.3-0.2-0.7-0.4-1.1-0.4z"/>
	</g>
</svg>