<svg width="60" height="60" viewBox="0 0 60 60" fill="none" xmlns="http://www.w3.org/2000/svg">
<g clip-path="url(#clip0_120_8)">
<path d="M30.0283 59.9999C29.7427 59.9999 29.457 59.896 29.2323 59.6881L12.0213 43.7649C12.0099 43.7548 11.9989 43.7443 11.9884 43.7333C7.12921 38.875 4.45312 32.4471 4.45312 25.6338C4.45312 18.8209 7.12921 12.393 11.9884 7.53432C16.7615 2.69988 23.1459 0.0219726 29.9606 0H30.0457C36.8893 0 43.33 2.67379 48.191 7.53432C48.1928 7.53615 48.1946 7.53798 48.1965 7.53981C52.9993 12.4045 55.6356 18.8534 55.6186 25.6983C55.6017 32.5561 52.9206 39.0046 48.0683 43.8564C48.0564 43.8683 48.0445 43.8798 48.0321 43.8908L30.8207 59.6913C30.5964 59.8973 30.3121 59.9999 30.0283 59.9999ZM13.6294 42.0602L30.0311 57.2345L46.4286 42.1815C55.4873 33.1059 55.534 18.3114 46.5311 9.18867C42.1133 4.77309 36.2612 2.34375 30.0453 2.34375C30.0192 2.34375 29.994 2.3442 29.9684 2.3442C23.7826 2.36389 17.9873 4.79415 13.651 9.18638C9.22896 13.6075 6.79687 19.4471 6.79687 25.6338C6.79687 31.8136 9.22347 37.6464 13.6294 42.0602Z" fill="black"/>
<path d="M42.5972 15.0202C42.5212 15.0202 42.4438 15.0128 42.3687 14.9977C42.2937 14.9826 42.22 14.9602 42.1495 14.9309C42.0781 14.9016 42.0103 14.8654 41.9471 14.8233C41.8826 14.7798 41.8226 14.7304 41.7686 14.6768C41.5507 14.4589 41.4253 14.1577 41.4253 13.8483C41.4253 13.7718 41.4335 13.6959 41.4486 13.6199C41.4642 13.5448 41.4862 13.4706 41.5155 13.4006C41.5448 13.3301 41.5814 13.261 41.6235 13.1978C41.6656 13.1333 41.7146 13.0738 41.7686 13.0197C41.8226 12.9657 41.8826 12.9167 41.9467 12.8742C42.0103 12.8321 42.0781 12.7959 42.1495 12.7666C42.22 12.7373 42.2937 12.7149 42.3687 12.6998C42.5198 12.6691 42.6754 12.6691 42.827 12.6998C42.9007 12.7149 42.9744 12.7373 43.0458 12.7666C43.1163 12.7959 43.1845 12.8321 43.2476 12.8742C43.3122 12.9167 43.3717 12.9657 43.4257 13.0197C43.4806 13.0738 43.5287 13.1333 43.5722 13.1978C43.6143 13.261 43.6509 13.3301 43.6802 13.4006C43.7095 13.4706 43.7315 13.5448 43.7466 13.6199C43.7622 13.6945 43.769 13.7718 43.769 13.8483C43.769 14.1577 43.6445 14.4589 43.4257 14.6768C43.3717 14.7304 43.3117 14.7798 43.2476 14.8233C43.184 14.8654 43.1163 14.9016 43.0458 14.9309C42.9744 14.9602 42.9007 14.9826 42.8265 14.9977C42.7505 15.0128 42.6736 15.0202 42.5972 15.0202Z" fill="black"/>
<path d="M30.0357 44.2803C19.8358 44.2803 11.5375 35.9829 11.5375 25.784C11.5375 15.585 19.8358 7.2876 30.0357 7.2876C33.3677 7.2876 36.6348 8.18344 39.483 9.87854C40.0392 10.209 40.2218 10.9286 39.8908 11.4848C39.5599 12.041 38.8407 12.2237 38.2846 11.8922C35.7984 10.4132 32.9461 9.63134 30.0357 9.63134C21.1281 9.63134 13.8812 16.8773 13.8812 25.784C13.8812 34.6907 21.1281 41.9366 30.0357 41.9366C38.9437 41.9366 46.1906 34.6907 46.1906 25.784C46.1906 23.1578 45.546 20.5508 44.3275 18.246C44.0249 17.6738 44.2433 16.9647 44.8155 16.6621C45.3877 16.3595 46.0967 16.5784 46.3993 17.1506C47.7959 19.7918 48.5343 22.7774 48.5343 25.784C48.5343 35.9829 40.236 44.2803 30.0357 44.2803Z" fill="black"/>
<path d="M35.8736 35.9381C35.7418 35.9381 35.609 35.9157 35.4808 35.8703L30.0357 33.934L24.5911 35.8703C24.2267 35.9994 23.8225 35.9413 23.5094 35.7143C23.1968 35.4867 23.0164 35.1201 23.0269 34.7337L23.1858 28.9577L19.6619 24.3782C19.4262 24.072 19.3566 23.6691 19.4761 23.3016C19.5955 22.934 19.8885 22.6488 20.2593 22.5398L25.8024 20.9056L29.0694 16.1394C29.2878 15.8208 29.6494 15.6304 30.0357 15.6304C30.4226 15.6304 30.7842 15.8208 31.0025 16.1394L34.2696 20.9056L39.8126 22.5398C40.1834 22.6488 40.4764 22.934 40.5959 23.3016C40.7154 23.6691 40.6458 24.072 40.41 24.3782L36.8862 28.9577L37.045 34.7337C37.0555 35.1201 36.8752 35.4867 36.5625 35.7143C36.3593 35.8617 36.1176 35.9381 35.8736 35.9381ZM30.0357 31.5189C30.169 31.5189 30.3017 31.5413 30.4285 31.5861L34.655 33.089L34.5319 28.6057C34.5241 28.3365 34.6102 28.0724 34.7745 27.859L37.5096 24.3041L33.2071 23.0361C32.9485 22.9601 32.7242 22.7966 32.5718 22.5746L30.0357 18.8745L27.4997 22.5746C27.3478 22.7966 27.123 22.9601 26.8648 23.0361L22.5623 24.3041L25.2974 27.859C25.4618 28.0724 25.5474 28.3365 25.5401 28.6057L25.4165 33.089L29.643 31.5861C29.7702 31.5413 29.903 31.5189 30.0357 31.5189Z" fill="black"/>
</g>
<defs>
<clipPath id="clip0_120_8">
<rect width="60" height="60" fill="white"/>
</clipPath>
</defs>
</svg>
