<svg width="219" height="30" viewBox="0 0 219 30" fill="none" xmlns="http://www.w3.org/2000/svg">
<path d="M0.92 23.8937H3.84C5.88 23.8937 6.52 22.8137 6.52 20.4537V1.09375H12.52V20.7337C12.52 26.4137 9.72 29.0938 5.04 29.0938H0.92V23.8937ZM35.4988 8.93375V29.0938H29.8988V26.2937C28.7788 28.2137 26.5388 29.4138 23.7788 29.4138C19.2588 29.4138 16.2988 26.0937 16.2988 21.4937V8.93375H21.8588V20.2537C21.8588 22.6937 23.4588 24.4537 25.7388 24.4537C28.1788 24.4537 29.8988 22.5337 29.8988 19.9737V8.93375H35.4988ZM52.4991 13.5737H49.1791C46.4191 13.5737 45.1791 15.8537 45.1791 19.2937V29.0938H39.5791V8.93375H45.1791V12.2937C46.2591 9.77375 47.7791 8.93375 50.2191 8.93375H52.4991V13.5737ZM54.9269 0.173748H60.8469V6.05375H54.9269V0.173748ZM55.0869 29.0938V8.93375H60.6869V29.0938H55.0869ZM72.1344 29.4138C67.2144 29.4138 63.8544 26.6537 63.6544 22.2937H68.4544C68.6544 24.0938 70.0544 25.2137 72.1344 25.2137C73.8544 25.2137 75.0544 24.3737 75.0544 23.2537C75.0544 19.1337 64.2144 23.1737 64.2144 14.6937C64.2144 11.1337 67.2944 8.61375 71.4144 8.61375C76.2544 8.61375 79.5344 11.2137 79.7344 15.1737H74.8944C74.6544 13.4537 73.0944 12.5337 71.5744 12.5337C70.0144 12.5337 68.9344 13.2137 68.9344 14.4937C68.9344 18.6137 79.9744 13.9337 79.9744 23.0537C79.9744 26.8937 76.8544 29.4138 72.1344 29.4138ZM96.1747 29.4138C89.0147 29.4138 82.4147 24.6537 82.4147 15.0937C82.4147 5.53375 89.2147 0.77375 96.6147 0.77375C103.655 0.77375 108.695 4.89375 109.055 10.8937H103.095C102.655 7.89375 100.175 5.93375 96.5747 5.93375C91.8147 5.93375 88.1347 9.29375 88.1347 15.0937C88.1347 20.8937 91.8147 24.5337 96.4547 24.5337C99.9347 24.5337 103.375 22.0137 103.375 19.4137C103.375 18.7337 102.935 18.2937 102.255 18.2937H96.8547V13.7737H104.455C107.055 13.7737 108.975 15.8537 108.975 18.2937V29.0938H103.655V24.8137C102.735 27.5737 99.7747 29.4138 96.1747 29.4138ZM125.858 13.5737H122.538C119.778 13.5737 118.538 15.8537 118.538 19.2937V29.0938H112.938V8.93375H118.538V12.2937C119.618 9.77375 121.138 8.93375 123.578 8.93375H125.858V13.5737ZM137.382 29.4138C131.182 29.4138 126.742 25.0137 126.742 19.0137C126.742 13.0137 131.182 8.61375 137.382 8.61375C143.582 8.61375 148.022 13.0137 148.022 19.0137C148.022 25.0137 143.582 29.4138 137.382 29.4138ZM137.382 24.6137C140.382 24.6137 142.422 22.3337 142.422 19.0137C142.422 15.6537 140.382 13.3737 137.382 13.3737C134.382 13.3737 132.342 15.6537 132.342 19.0137C132.342 22.3337 134.382 24.6137 137.382 24.6137ZM155.164 29.0938L148.604 8.93375H154.204L157.604 21.3737L161.164 8.93375H166.244L169.844 21.3737L173.244 8.93375H178.804L172.284 29.0938H167.404L163.724 16.5337L160.004 29.0938H155.164ZM183.898 2.97375H189.458V8.93375H194.858V13.5737H189.458V21.5337C189.458 23.4937 190.498 24.4137 192.298 24.4137H194.858V29.0938H191.538C186.898 29.0938 183.898 26.4538 183.898 21.7737V13.5737H180.018V8.93375H183.898V2.97375ZM199.391 29.0938V0.173748H204.951V11.7337C206.111 9.77375 208.311 8.61375 211.111 8.61375C215.631 8.61375 218.591 11.8937 218.591 16.5337V29.0938H213.031V17.7737C213.031 15.3337 211.431 13.5737 209.111 13.5737C206.671 13.5737 204.951 15.4537 204.951 18.0537V29.0938H199.391Z" fill="#090428"/>
</svg>
