<svg width="23" height="24" viewBox="0 0 23 24" fill="none" xmlns="http://www.w3.org/2000/svg">
<path d="M1.21606 1.98072C0.552837 2.11336 0.110688 2.64394 0.110688 3.30716C0.110688 14.4935 9.21895 23.5133 20.3611 23.5133C21.0243 23.5133 21.5549 23.0712 21.6875 22.4522L22.7487 17.9865C22.8813 17.3675 22.5276 16.7043 21.9528 16.439L17.1334 14.3609C16.5586 14.1398 15.8954 14.2724 15.5417 14.7588L13.5962 17.1464C10.5012 15.6431 8.02514 13.1671 6.52184 10.072L8.90944 8.12658C9.3958 7.77286 9.52845 7.10964 9.30738 6.53484L7.22928 1.71543C6.96399 1.09642 6.30077 0.786915 5.63754 0.91956L1.21606 1.98072ZM20.3169 22.0985C9.9706 22.0985 1.56978 13.6976 1.56978 3.35138L5.94705 2.33443L7.98093 7.06542L4.75325 9.71831C6.91977 14.2724 9.3958 16.7485 13.9499 18.915L16.6028 15.6873L21.3338 17.7212L20.3169 22.0985Z" fill="#019ED9"/>
</svg>
