<svg width="92" height="114" viewBox="0 0 92 114" fill="none" xmlns="http://www.w3.org/2000/svg">
<path d="M28.3458 28.3664L22.6723 26.6977C17.2343 25.0983 13.5 20.1075 13.5 14.4392C13.5 13.9825 12.8787 13.8461 12.6874 14.2607L9.07808 22.0808C8.14371 24.1053 5.98177 25.2664 3.778 24.9274L2.61411 24.7483C1.93671 24.6441 1.42384 25.3477 1.73034 25.9607L2.54449 27.589C5.65795 33.8159 11.5629 38.1772 18.4301 39.3217C18.9398 39.4066 19.3723 38.9466 19.2561 38.4431L19.0347 37.4839C18.4499 34.9496 19.9057 32.3902 22.3828 31.5975L28.3614 29.6844C29.0084 29.4773 28.9975 28.5581 28.3458 28.3664Z" stroke="white" stroke-width="3"/>
<path d="M17.1358 47.1203C17.0636 46.5247 17.5285 46 18.1285 46H80.8715C81.4715 46 81.9364 46.5247 81.8642 47.1203L74.3199 109.361C74.1373 110.867 72.8589 112 71.3417 112H27.6583C26.1411 112 24.8627 110.867 24.6801 109.361L17.1358 47.1203Z" stroke="white" stroke-width="3"/>
<path d="M20.5634 9.205C21.2108 7.67985 22.972 6.96829 24.4971 7.61567L86.1709 33.7947C87.6961 34.442 88.4076 36.2032 87.7603 37.7284L86.5881 40.4899C86.3723 40.9983 85.7852 41.2354 85.2768 41.0197L19.921 13.2777C19.4126 13.062 19.1754 12.4749 19.3912 11.9665L20.5634 9.205Z" stroke="white" stroke-width="3"/>
<path d="M46.042 12.4156C46.6894 10.8904 48.4506 10.1789 49.9757 10.8262L66.1625 17.6971C67.6876 18.3445 68.3992 20.1057 67.7518 21.6308L66.5796 24.3923C66.3638 24.9007 65.7767 25.1379 65.2684 24.9221L45.3996 16.4883C44.8912 16.2725 44.6541 15.6855 44.8698 15.1771L46.042 12.4156Z" stroke="white" stroke-width="3"/>
<path d="M50 60L50 99" stroke="white" stroke-width="3" stroke-linecap="round"/>
<path d="M68.3984 60.0742L64.9994 98.9258" stroke="white" stroke-width="3" stroke-linecap="round"/>
<path d="M31.5996 60.0742L34.9987 98.9258" stroke="white" stroke-width="3" stroke-linecap="round"/>
</svg>
