<svg width="138" height="118" fill="none" xmlns="http://www.w3.org/2000/svg"><path d="M44.95 50C55.994 50 67 53.954 67 65v16H55M24.05 50C13.006 50 2 53.954 2 65v16h12m31-38v5.993a10 10 0 0 1-2.766 6.905L34.5 64m0 0-7.734-8.102A10 10 0 0 1 24 48.993V43m10.5 21v17m0 0H14m20.5 0H55m-41-9v9m41-8.5V81" stroke="#fff" stroke-width="3"/><path d="M49.877 23.197V31.5c0 8.56-6.94 15.5-15.5 15.5-8.56 0-15.5-6.94-15.5-15.5v-8.31m3.333-4.686 1.991-2.109a5 5 0 0 1 6.97-.293l5.08 4.546a10 10 0 0 0 6.67 2.549h7.191a2.765 2.765 0 0 0 2.765-2.765v-.551C52.877 10.005 44.872 2 34.997 2c-9.618 0-17.513 7.608-17.869 17.219l-.127 3.44c-.037.993 1.238 1.426 1.814.617l3.395-4.772Z" stroke="#fff" stroke-width="3"/><path d="M45 113.5v-2a3 3 0 0 1 3-3h52v-30a5 5 0 0 0-5-5H77.414a5 5 0 0 0-4.962 4.38l-1.123 8.992a3 3 0 0 1-2.977 2.628H64v5a3 3 0 0 1-3 3h-3.5a3 3 0 0 1-3-3v-5h-6.138a3 3 0 0 1-2.98-3.34l2.098-18.363A15 15 0 0 1 62.383 54.5h56.541a8.202 8.202 0 0 1 8.113 7H133a3 3 0 0 1 3 3v11a3 3 0 0 1-3 3h-3.444l4.444 30a2 2 0 0 1 2 2v3a3 3 0 0 1-3 3H48a3 3 0 0 1-3-3Z" fill="#000"/><path d="M134 108.5v0a2 2 0 0 1 2 2v3a3 3 0 0 1-3 3H48a3 3 0 0 1-3-3v-2a3 3 0 0 1 3-3h52m34 0-4.444-30m4.444 30h-34m29.556-30-2.519-17m2.519 17H133a3 3 0 0 0 3-3v-11a3 3 0 0 0-3-3h-5.963m0 0v0a8.202 8.202 0 0 0-8.113-7H63.5m.5 35v5a3 3 0 0 1-3 3h-1.75m4.75-8h4.352a3 3 0 0 0 2.977-2.628l1.124-8.992a5 5 0 0 1 4.96-4.38H95a5 5 0 0 1 5 5v30m-36-19h-9.5m0 0h-6.138a3 3 0 0 1-2.98-3.34l2.098-18.363A15 15 0 0 1 62.383 54.5H63.5m-9 35v5a3 3 0 0 0 3 3h1.75m0 0v5.5m4.25-48.5V45" stroke="#fff" stroke-width="3" stroke-linecap="round"/><circle cx="114" cy="68.5" r="6.5" fill="#000" stroke="#9BA4E9" stroke-width="3"/><circle cx="121" cy="88.5" r="4.5" fill="#000" stroke="#9BA4E9" stroke-width="3"/></svg>