<svg version="1.2" xmlns="http://www.w3.org/2000/svg" viewBox="0 0 68 1250" width="68" height="1250">
	<title>animation-line-responsive-1</title>
	<style>
		.s0 { fill: #ffffff } 
	</style>
	<path class="s0" d="m0.4 1240c-0.5-0.6-0.5-1.5 0-2.1l9.6-9.6c0.6-0.6 1.5-0.6 2.1 0 0.6 0.6 0.6 1.6 0 2.1l-8.5 8.5 8.5 8.5c0.6 0.6 0.6 1.6 0 2.2-0.6 0.5-1.5 0.5-2.1 0zm2.1-1240h14v3h-14zm14 1240.4h-15v-3h15zm51.5-1188.9v3.8h-3v-3.8zm0 3.8v1101.9h-3v-1101.9zm0 1101.9v31.6h-3v-31.6zm-51.5 80.2c26.8 0 48.5-21.7 48.5-48.6h3c0 28.5-23.1 51.6-51.5 51.6zm0-1237.4c28.4 0 51.5 23 51.5 51.5h-3c0-26.8-21.7-48.5-48.5-48.5z"/>
</svg>