<svg width="1278" height="69" viewBox="0 0 1278 69" fill="none" xmlns="http://www.w3.org/2000/svg">
<path d="M1267.06 0.93934C1266.47 0.353553 1265.53 0.353553 1264.94 0.93934L1255.39 10.4853C1254.81 11.0711 1254.81 12.0208 1255.39 12.6066C1255.98 13.1924 1256.93 13.1924 1257.51 12.6066L1266 4.12132L1274.49 12.6066C1275.07 13.1924 1276.02 13.1924 1276.61 12.6066C1277.19 12.0208 1277.19 11.0711 1276.61 10.4853L1267.06 0.93934ZM0.5 3V6.5H3.5V3H0.5ZM0.5 13.5V17H3.5V13.5H0.5ZM0.5 17C0.5 17.969 0.526776 18.9318 0.579646 19.8879L3.57507 19.7222C3.52525 18.8213 3.5 17.9137 3.5 17H0.5ZM1.21998 25.629C1.5432 27.5445 1.97218 29.4243 2.50074 31.262L5.38386 30.4328C4.88634 28.703 4.48249 26.9334 4.17817 25.1299L1.21998 25.629ZM4.40844 36.714C5.14962 38.5013 5.9885 40.2378 6.91837 41.9167L9.54274 40.4632C8.66714 38.8823 7.87735 37.2474 7.17961 35.5648L4.40844 36.714ZM9.99583 46.8046C11.1133 48.3766 12.3167 49.8832 13.5992 51.3173L15.8355 49.3176C14.6272 47.9664 13.4936 46.5472 12.441 45.0665L9.99583 46.8046ZM17.6827 55.4008C19.1168 56.6833 20.6234 57.8867 22.1954 59.0042L23.9335 56.559C22.4528 55.5064 21.0336 54.3728 19.6824 53.1645L17.6827 55.4008ZM27.0833 62.0816C28.7622 63.0115 30.4987 63.8504 32.286 64.5916L33.4352 61.8204C31.7526 61.1227 30.1177 60.3329 28.5368 59.4573L27.0833 62.0816ZM37.738 66.4993C39.5757 67.0278 41.4555 67.4568 43.371 67.78L43.8701 64.8218C42.0666 64.5175 40.297 64.1137 38.5672 63.6161L37.738 66.4993ZM49.1121 68.4204C50.0682 68.4732 51.031 68.5 52 68.5V65.5C51.0863 65.5 50.1787 65.4748 49.2778 65.4249L49.1121 68.4204ZM52 68.5H53.25V65.5H52V68.5ZM55.75 68.5H57V65.5H55.75V68.5ZM57 68.5H59.9934V65.5H57V68.5ZM65.9801 68.5H71.9668V65.5H65.9801V68.5ZM77.9535 68.5H83.9402V65.5H77.9535V68.5ZM89.9269 68.5H95.9136V65.5H89.9269V68.5ZM101.9 68.5H107.887V65.5H101.9V68.5ZM113.874 68.5H119.86V65.5H113.874V68.5ZM125.847 68.5H131.834V65.5H125.847V68.5ZM137.82 68.5H143.807V65.5H137.82V68.5ZM149.794 68.5H155.781V65.5H149.794V68.5ZM161.767 68.5H167.754V65.5H161.767V68.5ZM173.741 68.5H179.727V65.5H173.741V68.5ZM185.714 68.5H191.701V65.5H185.714V68.5ZM197.688 68.5H203.674V65.5H197.688V68.5ZM209.661 68.5H215.648V65.5H209.661V68.5ZM221.634 68.5H227.621V65.5H221.634V68.5ZM233.608 68.5H239.594V65.5H233.608V68.5ZM245.581 68.5H251.568V65.5H245.581V68.5ZM257.554 68.5H263.541V65.5H257.554V68.5ZM269.528 68.5H275.515V65.5H269.528V68.5ZM281.501 68.5H287.488V65.5H281.501V68.5ZM293.475 68.5H299.461V65.5H293.475V68.5ZM305.448 68.5H311.435V65.5H305.448V68.5ZM317.421 68.5H323.408V65.5H317.421V68.5ZM329.395 68.5H335.381V65.5H329.395V68.5ZM341.368 68.5H347.355V65.5H341.368V68.5ZM353.342 68.5H359.328V65.5H353.342V68.5ZM365.315 68.5H371.302V65.5H365.315V68.5ZM377.288 68.5H383.275V65.5H377.288V68.5ZM389.262 68.5H395.248V65.5H389.262V68.5ZM401.235 68.5H407.222V65.5H401.235V68.5ZM413.208 68.5H419.195V65.5H413.208V68.5ZM425.182 68.5H431.169V65.5H425.182V68.5ZM437.155 68.5H443.142V65.5H437.155V68.5ZM449.129 68.5H455.115V65.5H449.129V68.5ZM461.102 68.5H467.089V65.5H461.102V68.5ZM473.075 68.5H479.062V65.5H473.075V68.5ZM485.049 68.5H491.036V65.5H485.049V68.5ZM497.022 68.5H503.009V65.5H497.022V68.5ZM508.996 68.5H514.982V65.5H508.996V68.5ZM520.969 68.5H526.956V65.5H520.969V68.5ZM532.942 68.5H538.929V65.5H532.942V68.5ZM544.916 68.5H550.902V65.5H544.916V68.5ZM556.889 68.5H562.876V65.5H556.889V68.5ZM568.863 68.5H574.849V65.5H568.863V68.5ZM580.836 68.5H586.823V65.5H580.836V68.5ZM592.809 68.5H598.796V65.5H592.809V68.5ZM604.783 68.5H610.769V65.5H604.783V68.5ZM616.756 68.5H622.743V65.5H616.756V68.5ZM628.729 68.5H634.716V65.5H628.729V68.5ZM640.703 68.5H646.69V65.5H640.703V68.5ZM652.676 68.5H658.663V65.5H652.676V68.5ZM664.65 68.5H670.636V65.5H664.65V68.5ZM676.623 68.5H682.61V65.5H676.623V68.5ZM688.596 68.5H694.583V65.5H688.596V68.5ZM700.57 68.5H706.557V65.5H700.57V68.5ZM712.543 68.5H718.53V65.5H712.543V68.5ZM724.517 68.5H730.503V65.5H724.517V68.5ZM736.49 68.5H742.477V65.5H736.49V68.5ZM748.463 68.5H754.45V65.5H748.463V68.5ZM760.437 68.5H766.423V65.5H760.437V68.5ZM772.41 68.5H778.397V65.5H772.41V68.5ZM784.384 68.5H790.37V65.5H784.384V68.5ZM796.357 68.5H802.344V65.5H796.357V68.5ZM808.33 68.5H814.317V65.5H808.33V68.5ZM820.304 68.5H826.29V65.5H820.304V68.5ZM832.277 68.5H838.264V65.5H832.277V68.5ZM844.25 68.5H850.237V65.5H844.25V68.5ZM856.224 68.5H862.211V65.5H856.224V68.5ZM868.197 68.5H874.184V65.5H868.197V68.5ZM880.171 68.5H886.157V65.5H880.171V68.5ZM892.144 68.5H898.131V65.5H892.144V68.5ZM904.117 68.5H910.104V65.5H904.117V68.5ZM916.091 68.5H922.078V65.5H916.091V68.5ZM928.064 68.5H934.051V65.5H928.064V68.5ZM940.038 68.5H946.024V65.5H940.038V68.5ZM952.011 68.5H957.998V65.5H952.011V68.5ZM963.984 68.5H969.971V65.5H963.984V68.5ZM975.958 68.5H981.944V65.5H975.958V68.5ZM987.931 68.5H993.918V65.5H987.931V68.5ZM999.905 68.5H1005.89V65.5H999.905V68.5ZM1011.88 68.5H1017.86V65.5H1011.88V68.5ZM1023.85 68.5H1029.84V65.5H1023.85V68.5ZM1035.82 68.5H1041.81V65.5H1035.82V68.5ZM1047.8 68.5H1053.78V65.5H1047.8V68.5ZM1059.77 68.5H1065.76V65.5H1059.77V68.5ZM1071.74 68.5H1077.73V65.5H1071.74V68.5ZM1083.72 68.5H1089.7V65.5H1083.72V68.5ZM1095.69 68.5H1101.68V65.5H1095.69V68.5ZM1107.67 68.5H1113.65V65.5H1107.67V68.5ZM1119.64 68.5H1125.63V65.5H1119.64V68.5ZM1131.61 68.5H1137.6V65.5H1131.61V68.5ZM1143.59 68.5H1149.57V65.5H1143.59V68.5ZM1155.56 68.5H1161.55V65.5H1155.56V68.5ZM1167.53 68.5H1173.52V65.5H1167.53V68.5ZM1179.51 68.5H1182.5V65.5H1179.51V68.5ZM1182.5 68.5H1185.29V65.5H1182.5V68.5ZM1190.88 68.5H1196.46V65.5H1190.88V68.5ZM1202.04 68.5H1207.62V65.5H1202.04V68.5ZM1213.21 68.5H1216V65.5H1213.21V68.5ZM1216 68.5C1216.97 68.5 1217.93 68.4732 1218.89 68.4204L1218.72 65.4249C1217.82 65.4748 1216.91 65.5 1216 65.5V68.5ZM1224.63 67.78C1226.54 67.4568 1228.42 67.0278 1230.26 66.4993L1229.43 63.6161C1227.7 64.1137 1225.93 64.5175 1224.13 64.8218L1224.63 67.78ZM1235.71 64.5916C1237.5 63.8504 1239.24 63.0115 1240.92 62.0816L1239.46 59.4573C1237.88 60.3329 1236.25 61.1227 1234.56 61.8204L1235.71 64.5916ZM1245.8 59.0042C1247.38 57.8867 1248.88 56.6833 1250.32 55.4008L1248.32 53.1645C1246.97 54.3728 1245.55 55.5064 1244.07 56.559L1245.8 59.0042ZM1254.4 51.3173C1255.68 49.8832 1256.89 48.3766 1258 46.8046L1255.56 45.0665C1254.51 46.5472 1253.37 47.9664 1252.16 49.3176L1254.4 51.3173ZM1261.08 41.9167C1262.01 40.2378 1262.85 38.5013 1263.59 36.714L1260.82 35.5648C1260.12 37.2474 1259.33 38.8823 1258.46 40.4632L1261.08 41.9167ZM1265.5 31.262C1266.03 29.4243 1266.46 27.5445 1266.78 25.629L1263.82 25.1299C1263.52 26.9334 1263.11 28.703 1262.62 30.4328L1265.5 31.262ZM1267.42 19.8879C1267.47 18.9318 1267.5 17.969 1267.5 17H1264.5C1264.5 17.9137 1264.47 18.8213 1264.42 19.7222L1267.42 19.8879ZM1267.5 17V13.25H1264.5V17H1267.5ZM1267.5 5.75V2H1264.5V5.75H1267.5Z" fill="white"/>
</svg>
