<svg width="124" height="123" viewBox="0 0 124 123" fill="none" xmlns="http://www.w3.org/2000/svg">
<path d="M123.181 59.3958C123.19 55.9762 122.879 52.5657 122.264 49.201C121.898 47.1749 119.963 45.8272 117.937 46.194C115.911 46.5607 114.563 48.4951 114.93 50.5212C117.002 62.2929 114.912 74.4153 109.008 84.8003C103.103 95.1876 93.7612 103.2 82.5832 107.436L81.4096 100.395L64.5039 114.404L85.0767 122.031L83.83 114.697C95.2808 110.645 105.201 103.155 112.242 93.2624C119.283 83.3609 123.096 71.5434 123.179 59.3935L123.181 59.3958Z" fill="white"/>
<path d="M31.4993 20.0811C40.6765 12.3983 52.2373 8.16273 64.213 8.09856C76.1772 8.04355 87.7839 12.16 97.0344 19.7511L91.5335 24.3717L112.18 31.8895L108.513 10.2897L102.865 14.9837C92.3496 5.8799 78.9276 0.819181 65.0083 0.718333C51.1005 0.617485 37.6029 5.48568 26.9498 14.4336C25.7212 15.7722 25.6571 17.7983 26.7939 19.2101C27.9307 20.622 29.9316 20.9887 31.4993 20.0811Z" fill="white"/>
<path d="M46.94 107.656C37.0569 104.026 28.5215 97.4524 22.4798 88.8254C16.4473 80.1983 13.1926 69.9302 13.1651 59.3961C13.1835 56.5907 13.4402 53.7945 13.9352 51.035L20.6096 53.492L16.8324 31.8922L0 45.9376L6.89431 48.5046C6.18838 52.1259 5.82156 55.8115 5.79406 59.5062C5.87657 71.5071 9.62632 83.1871 16.5298 93.006C23.4425 102.816 33.1789 110.278 44.4487 114.404C44.8521 114.551 45.2738 114.624 45.6955 114.624C47.4741 114.624 48.996 113.341 49.3077 111.589C49.6102 109.838 48.6108 108.115 46.9422 107.51L46.94 107.656Z" fill="white"/>
<path d="M57.954 34.0115C58.433 38.6986 61.6442 41.5476 65.0134 41.5866H65.0317C68.3987 41.5476 71.6097 38.6986 72.0934 34.0161L76.9294 35.5563C79.783 36.464 81.0344 37.7337 83.2554 39.7873L91.6899 47.5664L85.646 54.9626L81.706 51.3367V46.5854C81.7725 45.3042 79.8128 45.3042 79.877 46.5854V81.3091L50.1682 81.3022V46.5854C50.1796 46.0674 49.7578 45.6457 49.2398 45.6571C48.7356 45.6617 48.3276 46.0789 48.3391 46.5854V51.3367L44.4038 54.9558L38.3597 47.5641L46.7898 39.7873C49.0153 37.736 50.2644 36.4616 53.1202 35.554L57.9564 34.0115H57.954ZM59.7716 33.8969C61.5136 34.2682 63.2165 34.4401 65.0295 34.4309C66.8356 34.4447 68.5316 34.2728 70.2713 33.9038C69.8679 37.8002 67.3695 39.7209 65.0225 39.7552C62.6755 39.7232 60.1773 37.8002 59.7716 33.8969ZM71.2636 31.8295C71.094 31.8249 70.929 31.8731 70.7823 31.9602C68.8662 32.4507 67.0625 32.6157 64.9951 32.6111C62.93 32.6111 61.0941 32.4369 59.123 31.9235C59.0107 31.8799 58.8961 31.857 58.7815 31.8616C58.6463 31.8662 58.5087 31.8983 58.3849 31.9602L52.5679 33.8098C49.3751 34.8252 47.75 36.4089 45.552 38.4396L36.4827 46.8031C36.1251 47.1309 36.0815 47.681 36.3909 48.0569L43.5946 56.865C43.9247 57.2753 44.5368 57.3211 44.9264 56.9635L48.3346 53.8235V82.2145C48.33 82.7233 48.7447 83.1358 49.2536 83.1335H80.787C81.2912 83.1335 81.7014 82.7233 81.7014 82.219V53.8235L85.1142 56.9658C85.5039 57.3257 86.1112 57.2798 86.4459 56.8673L93.6496 48.0591C93.9522 47.6833 93.9132 47.1378 93.5556 46.81L84.4907 38.4465C82.2881 36.4204 80.6677 34.8275 77.4726 33.8121L71.7702 32.0014C71.6189 31.8937 71.4424 31.8364 71.259 31.8318L71.2636 31.8295Z" fill="#4DC8EB"/>
<path d="M57.9517 34.0115C58.4307 38.6986 61.6417 41.5476 65.011 41.5865H65.0294C68.3964 41.5476 71.6074 38.6986 72.091 34.0161L76.9271 35.5563C79.7807 36.4639 81.0321 37.7337 83.2531 39.7873L91.6876 47.5663L85.6435 54.9626L81.7036 51.3367V46.5854C81.7701 45.3041 79.8105 45.3041 79.8747 46.5854V81.3091L50.1657 81.3022V46.5854C50.1772 46.0674 49.7555 45.6456 49.2375 45.6571C48.7333 45.6617 48.3253 46.0788 48.3368 46.5854V51.3367L44.4015 54.9557L38.3574 47.564L46.7873 39.7873C49.0129 37.736 50.262 36.4616 53.1179 35.554L57.9517 34.0115Z" fill="black"/>
<path d="M57.9517 34.0115C58.4307 38.6986 61.6417 41.5476 65.011 41.5865H65.0294C68.3964 41.5476 71.6074 38.6986 72.091 34.0161L76.9271 35.5563C79.7807 36.4639 81.0321 37.7337 83.2531 39.7873L91.6876 47.5663L85.6435 54.9626L81.7036 51.3367V46.5854C81.7701 45.3041 79.8105 45.3041 79.8747 46.5854V81.3091L50.1657 81.3022V46.5854C50.1772 46.0674 49.7555 45.6456 49.2375 45.6571C48.7333 45.6617 48.3253 46.0788 48.3368 46.5854V51.3367L44.4015 54.9557L38.3574 47.564L46.7873 39.7873C49.0129 37.736 50.262 36.4616 53.1179 35.554L57.9517 34.0115Z" fill="black"/>
<path fill-rule="evenodd" clip-rule="evenodd" d="M59.772 33.8971C61.5139 34.2684 63.2169 34.4403 65.0298 34.4311C66.8359 34.4449 68.532 34.273 70.2716 33.904C69.8682 37.8004 67.3698 39.7211 65.0228 39.7554C62.6758 39.7233 60.1777 37.8004 59.772 33.8971Z" fill="black"/>
</svg>
