<svg width="120" height="115" viewBox="0 0 120 115" fill="none" xmlns="http://www.w3.org/2000/svg">
<path fill-rule="evenodd" clip-rule="evenodd" d="M48.2255 22.9049C48.8693 29.2122 53.1916 33.0442 57.7251 33.0977H57.7491C62.2798 33.0442 66.6007 29.2122 67.2501 22.9106L73.756 24.9843C77.5965 26.2058 79.2786 27.9147 82.2681 30.6773L93.6189 41.1463L85.4858 51.0981L80.1845 46.2194V39.8248C80.2732 38.099 77.6373 38.099 77.7247 39.8248V86.5495L37.7481 86.5397V39.8248C37.7622 39.1274 37.1945 38.5597 36.4985 38.5752C35.8209 38.5794 35.2714 39.1415 35.2869 39.8248V46.2194L29.9926 51.0883L21.8581 41.1434L33.2033 30.6788C36.1984 27.9175 37.8791 26.203 41.721 24.9815L48.2269 22.9077L48.2255 22.9049ZM50.6712 22.7499C53.0155 23.2501 55.3076 23.4825 57.7449 23.4684C60.1751 23.4868 62.4573 23.2557 64.7974 22.7612C64.255 28.0034 60.8936 30.59 57.735 30.6337C54.5764 30.59 51.2136 28.0006 50.6712 22.7499ZM66.1357 19.9689C65.9089 19.9647 65.6849 20.0281 65.4877 20.1436C62.911 20.8016 60.4836 21.0256 57.7012 21.0213C54.9216 21.0213 52.4505 20.7875 49.7991 20.0957C49.6498 20.0366 49.4934 20.007 49.3385 20.0126C49.1553 20.0168 48.9707 20.0605 48.8059 20.1436L40.9771 22.633C36.6802 23.9982 34.4952 26.1297 31.5352 28.8614L19.3321 40.1164C18.8517 40.5588 18.7939 41.2984 19.2109 41.8028L28.905 53.6565C29.3502 54.2102 30.1743 54.2708 30.697 53.7875L35.2841 49.5625V87.7654C35.2799 88.4486 35.8364 89.0051 36.5197 89.0009H78.9517C79.6294 89.0009 80.1816 88.4486 80.1816 87.771V49.5611L84.773 53.7904C85.2971 54.2736 86.1156 54.2116 86.5664 53.6594L96.259 41.8056C96.6662 41.3012 96.6126 40.5658 96.1337 40.1235L83.9361 28.8684C80.9706 26.141 78.7911 23.9996 74.4929 22.6344L66.8204 20.1972C66.6162 20.0535 66.3781 19.9746 66.1315 19.9689H66.1357Z" fill="white"/>
<path fill-rule="evenodd" clip-rule="evenodd" d="M48.2219 22.9047C48.8658 29.2119 53.188 33.0439 57.7216 33.0974H57.7455C62.2763 33.0439 66.5971 29.2119 67.2466 22.9103L73.7525 24.9841C77.5929 26.2055 79.275 27.9144 82.2645 30.6771L93.6154 41.146L85.4823 51.0979L80.1809 46.2191V39.8245C80.2697 38.0987 77.6338 38.0987 77.7211 39.8245V86.5493L37.7446 86.5394V39.8245C37.7587 39.1272 37.1909 38.5594 36.495 38.5749C35.8173 38.5791 35.2679 39.1413 35.2834 39.8245V46.2191L29.9891 51.088L21.8546 41.1432L33.1998 30.6785C36.1949 27.9172 37.8756 26.2027 41.7174 24.9813L48.2234 22.9075L48.2219 22.9047Z" fill="black"/>
<path d="M56.6104 2.31445C26.4499 2.31445 2 27.0222 2 57.5008C2 87.9793 26.4499 112.687 56.6104 112.687C72.0784 112.687 86.0444 106.188 95.9806 95.7454" stroke="white" stroke-width="3" stroke-linecap="round"/>
<path d="M65.4746 2.31528C95.4558 7.79853 115.315 36.5481 109.832 66.5293" stroke="#C5E7E3" stroke-width="3" stroke-linecap="round" stroke-dasharray="3 6"/>
<path d="M97.4494 108.449L97.4494 94L83 94" stroke="white" stroke-width="3" stroke-linecap="round" stroke-linejoin="round"/>
</svg>
