<svg width="136" height="109" viewBox="0 0 136 109" fill="none" xmlns="http://www.w3.org/2000/svg">
<path d="M135.119 61.9193L124.861 55.1536L108.133 38.5468C107.922 38.3381 107.663 38.1816 107.381 38.0947L84.2406 31.0356L69.2877 25.1044L62.133 18.8103C61.8635 18.569 61.5266 18.4104 61.168 18.3582L57.6841 17.9062L49.623 1.80791C49.1992 0.942901 48.1712 0.560399 47.2844 0.938567L31.1319 7.66736C30.3712 7.01317 29.4975 6.5046 28.5542 6.16338C26.6851 5.557 24.6965 5.42225 22.7643 5.76999C20.5692 6.11991 18.4415 6.81322 16.4615 7.82167C14.3468 8.87576 12.3604 10.1689 10.5391 11.6772C8.66343 13.2008 6.95516 14.9199 5.44683 16.8064C3.94503 18.6668 2.68446 20.7098 1.69557 22.8875C0.787099 24.824 0.226368 26.9061 0.0416304 29.036C-0.123547 30.866 0.204633 32.7047 0.993571 34.3652C1.3261 35.015 1.74991 35.617 2.24762 36.1495C2.29326 36.2038 2.31499 36.2712 2.36498 36.3212L73.8627 105.989L73.917 106.022C74.3887 106.424 74.8951 106.782 75.4297 107.091C77.0945 108.023 78.9593 108.538 80.8675 108.595H81.4435C83.2995 108.584 85.1382 108.254 86.8813 107.617C88.8634 106.895 90.7195 105.872 92.3864 104.581C94.0947 103.272 95.5987 101.716 96.8484 99.9643C98.1002 98.2191 99.0457 96.2718 99.6477 94.2092C100.224 92.3032 100.395 90.295 100.15 88.3194C99.9389 86.7458 99.3912 85.2353 98.5414 83.8922L134.976 65.0794C135.878 64.6447 136.254 63.5602 135.819 62.6582C135.669 62.3496 135.435 62.0888 135.143 61.9063L135.115 61.9193H135.119ZM5.02737 24.3785C5.89455 22.4811 6.99428 20.7011 8.30265 19.0776C9.64798 17.3911 11.1672 15.8501 12.8342 14.4787C14.4403 13.1486 16.192 12.0054 18.059 11.0752C19.6999 10.2363 21.4625 9.656 23.2838 9.35825C24.6291 9.11266 26.0157 9.19741 27.3219 9.60818C28.0935 9.87986 28.7716 10.3623 29.2845 10.9991C29.341 11.073 29.4062 11.1404 29.4757 11.2034C29.5083 11.2534 29.5627 11.286 29.5931 11.3338C29.8952 11.7837 30.3842 12.075 30.9254 12.1271C31.2166 12.9161 31.3709 13.7506 31.3774 14.5917C31.334 16.4348 30.9319 18.2495 30.1951 19.9383C29.3062 22.0312 28.1413 23.9938 26.7286 25.7738C25.2529 27.6494 23.5728 29.3555 21.7211 30.8617C19.9476 32.2961 18.0112 33.5132 15.9486 34.4869C14.1599 35.3562 12.2343 35.9148 10.2587 36.1365C9.22634 36.2256 8.18746 36.1408 7.18119 35.8865L5.21863 33.974C4.81872 33.6154 4.49054 33.1829 4.25364 32.7004C3.76029 31.6245 3.56251 30.4357 3.68205 29.2577C3.83853 27.5647 4.29494 25.9129 5.02737 24.3785ZM96.1138 93.2138C95.6226 94.8765 94.8576 96.4435 93.8491 97.854C92.8081 99.308 91.5605 100.601 90.1435 101.692C88.7721 102.753 87.242 103.594 85.612 104.185C84.1319 104.733 82.5628 104.989 80.9849 104.941C79.6656 104.911 78.3746 104.561 77.2206 103.922C76.5946 103.566 76.0317 103.105 75.5579 102.564L9.36544 38.0338C9.71535 38.0338 10.0674 38.0338 10.4347 37.9839C12.6212 37.7426 14.7489 37.1297 16.7289 36.1713C18.9283 35.1324 20.9952 33.8305 22.8817 32.2918C24.8421 30.6987 26.6177 28.8904 28.1782 26.904C29.6931 24.9892 30.9428 22.881 31.8947 20.6337C32.7249 18.7277 33.1727 16.6782 33.214 14.5983C33.214 14.3809 33.1509 14.194 33.1379 13.9875L94.0382 82.6686C94.0121 82.7838 93.9947 82.899 93.9882 83.0185C93.9708 83.1141 93.96 83.2119 93.9556 83.3075C93.9665 83.4358 93.9904 83.5618 94.0273 83.6835C94.0469 83.79 94.0773 83.8944 94.1186 83.9965C94.1186 84.0291 94.1186 84.0552 94.1469 84.0834C94.1751 84.1117 94.2295 84.1595 94.2599 84.2095C94.3229 84.329 94.399 84.442 94.4859 84.5442C94.7641 84.8246 95.0162 85.1267 95.2423 85.4505C95.9312 86.4502 96.3659 87.6022 96.5072 88.8084C96.6876 90.2885 96.555 91.7903 96.1181 93.216L96.1138 93.2138ZM102.384 77.7676C102.384 77.7133 102.384 77.6546 102.33 77.6089L100.971 76.0919C100.804 75.9028 100.515 75.8854 100.326 76.0528C100.137 76.2201 100.119 76.5092 100.287 76.6983L101.591 78.1718L95.3379 81.4015L32.8553 10.9122L39.5928 8.10854L39.7602 8.2998C39.8471 8.3976 39.9688 8.45412 40.0992 8.45412C40.2122 8.45412 40.3187 8.41283 40.4035 8.33676C40.5687 8.18245 40.5948 7.92816 40.4622 7.74342L47.1323 4.97453L54.8348 20.4121C55.1042 20.9576 55.628 21.3314 56.2301 21.4096L60.1269 21.9313L67.1057 28.0667C67.2665 28.2036 67.4469 28.3123 67.6403 28.3927L83.0452 34.4869L105.894 41.483L122.581 57.9942L130.514 63.2494L102.382 77.7719L102.384 77.7676Z" fill="white"/>
<path d="M135.119 61.9193L124.861 55.1536L108.133 38.5468C107.922 38.3381 107.663 38.1816 107.381 38.0947L84.2406 31.0356L69.2877 25.1044L62.133 18.8103C61.8635 18.569 61.5266 18.4104 61.168 18.3582L57.6841 17.9062L49.623 1.80791C49.1992 0.942901 48.1712 0.560399 47.2844 0.938567L31.1319 7.66736C30.3712 7.01317 29.4975 6.5046 28.5542 6.16338C26.6851 5.557 24.6965 5.42225 22.7643 5.76999C20.5692 6.11991 18.4415 6.81322 16.4615 7.82167C14.3468 8.87576 12.3604 10.1689 10.5391 11.6772C8.66343 13.2008 6.95516 14.9199 5.44683 16.8064C3.94503 18.6668 2.68446 20.7098 1.69557 22.8875C0.787099 24.824 0.226368 26.9061 0.0416304 29.036C-0.123547 30.866 0.204633 32.7047 0.993571 34.3652C1.3261 35.015 1.74991 35.617 2.24762 36.1495C2.29326 36.2038 2.31499 36.2712 2.36498 36.3212L73.8627 105.989L73.917 106.022C74.3887 106.424 74.8951 106.782 75.4297 107.091C77.0945 108.023 78.9593 108.538 80.8675 108.595H81.4435C83.2995 108.584 85.1382 108.254 86.8813 107.617C88.8634 106.895 90.7195 105.872 92.3864 104.581C94.0947 103.272 95.5987 101.716 96.8484 99.9643C98.1002 98.2191 99.0457 96.2718 99.6477 94.2092C100.224 92.3032 100.395 90.295 100.15 88.3194C99.9389 86.7458 99.3912 85.2353 98.5414 83.8922L134.976 65.0794C135.878 64.6447 136.254 63.5602 135.819 62.6582C135.669 62.3496 135.435 62.0888 135.143 61.9063L135.115 61.9193H135.119ZM5.02737 24.3785C5.89455 22.4811 6.99428 20.7011 8.30265 19.0776C9.64798 17.3911 11.1672 15.8501 12.8342 14.4787C14.4403 13.1486 16.192 12.0054 18.059 11.0752C19.6999 10.2363 21.4625 9.656 23.2838 9.35825C24.6291 9.11266 26.0157 9.19741 27.3219 9.60818C28.0935 9.87986 28.7716 10.3623 29.2845 10.9991C29.341 11.073 29.4062 11.1404 29.4757 11.2034C29.5083 11.2534 29.5627 11.286 29.5931 11.3338C29.8952 11.7837 30.3842 12.075 30.9254 12.1271C31.2166 12.9161 31.3709 13.7506 31.3774 14.5917C31.334 16.4348 30.9319 18.2495 30.1951 19.9383C29.3062 22.0312 28.1413 23.9938 26.7286 25.7738C25.2529 27.6494 23.5728 29.3555 21.7211 30.8617C19.9476 32.2961 18.0112 33.5132 15.9486 34.4869C14.1599 35.3562 12.2343 35.9148 10.2587 36.1365C9.22634 36.2256 8.18746 36.1408 7.18119 35.8865L5.21863 33.974C4.81872 33.6154 4.49054 33.1829 4.25364 32.7004C3.76029 31.6245 3.56251 30.4357 3.68205 29.2577C3.83853 27.5647 4.29494 25.9129 5.02737 24.3785ZM96.1138 93.2138C95.6226 94.8765 94.8576 96.4435 93.8491 97.854C92.8081 99.308 91.5605 100.601 90.1435 101.692C88.7721 102.753 87.242 103.594 85.612 104.185C84.1319 104.733 82.5628 104.989 80.9849 104.941C79.6656 104.911 78.3746 104.561 77.2206 103.922C76.5946 103.566 76.0317 103.105 75.5579 102.564L9.36544 38.0338C9.71535 38.0338 10.0674 38.0338 10.4347 37.9839C12.6212 37.7426 14.7489 37.1297 16.7289 36.1713C18.9283 35.1324 20.9952 33.8305 22.8817 32.2918C24.8421 30.6987 26.6177 28.8904 28.1782 26.904C29.6931 24.9892 30.9428 22.881 31.8947 20.6337C32.7249 18.7277 33.1727 16.6782 33.214 14.5983C33.214 14.3809 33.1509 14.194 33.1379 13.9875L94.0382 82.6686C94.0121 82.7838 93.9947 82.899 93.9882 83.0185C93.9708 83.1141 93.96 83.2119 93.9556 83.3075C93.9665 83.4358 93.9904 83.5618 94.0273 83.6835C94.0469 83.79 94.0773 83.8944 94.1186 83.9965C94.1186 84.0291 94.1186 84.0552 94.1469 84.0834C94.1751 84.1117 94.2295 84.1595 94.2599 84.2095C94.3229 84.329 94.399 84.442 94.4859 84.5442C94.7641 84.8246 95.0162 85.1267 95.2423 85.4505C95.9312 86.4502 96.3659 87.6022 96.5072 88.8084C96.6876 90.2885 96.555 91.7903 96.1181 93.216L96.1138 93.2138ZM40.4644 7.74125L47.1345 4.97235L54.8369 20.4099C55.1064 20.9554 55.6302 21.3292 56.2322 21.4075L60.1291 21.9291L67.1078 28.0645C67.2687 28.2015 67.4491 28.3101 67.6425 28.3905L83.0474 34.4847L105.896 41.4808L122.583 57.992L130.516 63.2472L102.384 77.7698C102.384 77.7154 102.384 77.6568 102.33 77.6111L100.971 76.0941C100.804 75.905 100.515 75.8876 100.326 76.055C100.137 76.2223 100.119 76.5114 100.287 76.7005L101.591 78.174L95.3379 81.4037L32.8553 10.9144L39.5928 8.11072" fill="white"/>
<path d="M11.0041 28.4199C11.228 28.6155 11.4779 28.7806 11.7474 28.9089C12.3299 29.1762 12.9645 29.3109 13.6057 29.2979C13.7817 29.2979 13.9599 29.2979 14.1447 29.2762C15.1227 29.1697 16.0725 28.898 16.9592 28.4698C17.9307 28.0047 18.8435 27.4223 19.6781 26.7398C20.5518 26.0335 21.3408 25.2315 22.0341 24.3469C22.71 23.4971 23.2664 22.5582 23.688 21.5563C24.0575 20.7065 24.2574 19.7915 24.277 18.8657C24.2987 18.1137 24.0944 17.3726 23.6924 16.7358C23.3033 16.1424 22.7274 15.6969 22.0558 15.4665C21.2799 15.2274 20.4605 15.1709 19.6585 15.2991C18.7218 15.4643 17.8134 15.7686 16.9679 16.2054C16.0573 16.6619 15.2031 17.2204 14.4164 17.8681C13.6035 18.5288 12.8646 19.2764 12.2147 20.098C11.5692 20.9021 11.0215 21.7802 10.589 22.7169C10.2109 23.5384 9.97614 24.4208 9.89572 25.3228C9.82617 26.0704 9.95875 26.8224 10.2761 27.5027C10.4586 27.8526 10.7064 28.1656 11.0063 28.422L11.0041 28.4199ZM11.4062 23.0407C11.8083 22.1757 12.3125 21.3607 12.9102 20.6174C13.5253 19.8502 14.2186 19.1482 14.9814 18.5244C15.716 17.9224 16.5137 17.403 17.3591 16.9748C18.1198 16.588 18.937 16.3206 19.7781 16.1815C20.4301 16.062 21.1039 16.1033 21.7363 16.3033C22.221 16.4641 22.6383 16.7836 22.9186 17.2096C23.2294 17.6964 23.3859 18.2636 23.3707 18.8418C23.349 19.6481 23.1707 20.4435 22.8491 21.1847C22.46 22.1083 21.945 22.9777 21.3212 23.7623C20.6714 24.5991 19.9281 25.3597 19.1065 26.027C18.3284 26.6616 17.4765 27.2028 16.5702 27.6353C15.7791 28.0178 14.9293 28.2612 14.0556 28.3612C13.4079 28.4459 12.7472 28.3525 12.1473 28.0895C11.9539 27.9982 11.7757 27.8809 11.617 27.7396C11.3975 27.5483 11.2171 27.3136 11.0911 27.0506C10.8455 26.516 10.7455 25.927 10.802 25.3423C10.8716 24.5512 11.0759 23.7775 11.4041 23.0538L11.4062 23.0407Z" fill="#4DC8EB"/>
<path d="M57.934 27.4468C57.7688 27.2598 57.4819 27.2425 57.295 27.4076C57.295 27.4076 57.2928 27.4098 57.2906 27.412C57.1016 27.5772 57.082 27.8619 57.2472 28.051C57.2472 28.051 57.2493 28.0531 57.2515 28.0553L58.6099 29.5723C58.6968 29.6701 58.8185 29.7266 58.9489 29.7266C59.0598 29.7266 59.1684 29.6875 59.2532 29.6136C59.4423 29.4506 59.464 29.1637 59.301 28.9746C59.2988 28.9725 59.2967 28.9681 59.2923 28.9659L57.934 27.4468Z" fill="#4DC8EB"/>
<path d="M63.3186 33.5297C63.1512 33.3384 62.86 33.321 62.6709 33.4884C62.4797 33.6557 62.4623 33.947 62.6296 34.1361L63.988 35.6574C64.0749 35.7574 64.201 35.8117 64.3314 35.8117C64.5813 35.8183 64.79 35.6205 64.7965 35.3705C64.7987 35.251 64.7574 35.1358 64.6748 35.0511L63.3186 33.5297Z" fill="#4DC8EB"/>
<path d="M41.7908 9.21059C41.6234 9.0215 41.3344 9.0041 41.1453 9.17145C40.9562 9.33881 40.9388 9.62788 41.1062 9.81696L42.4645 11.334C42.5514 11.4318 42.6732 11.4883 42.8036 11.4883C42.9144 11.4883 43.0231 11.4492 43.1078 11.3753C43.2969 11.2123 43.3187 10.9254 43.1557 10.7363C43.1535 10.7341 43.1513 10.7298 43.147 10.7276L41.7908 9.21059Z" fill="#4DC8EB"/>
<path d="M60.6279 30.4889C60.4606 30.2998 60.1715 30.2824 59.9824 30.4498C59.7933 30.6171 59.776 30.9062 59.9433 31.0953L61.3017 32.6166C61.3886 32.7144 61.5103 32.7709 61.6407 32.7709C61.7516 32.7709 61.8602 32.7318 61.945 32.6579C62.1341 32.4949 62.1558 32.208 61.9928 32.019C61.9906 32.0168 61.9885 32.0124 61.9841 32.0103L60.6279 30.4889Z" fill="#4DC8EB"/>
<path d="M52.5705 21.3693C52.4032 21.178 52.112 21.1606 51.9229 21.328C51.7316 21.4953 51.7142 21.7866 51.8816 21.9757L53.2399 23.4927C53.3269 23.5927 53.4529 23.647 53.5833 23.647C53.6964 23.647 53.8028 23.6057 53.8876 23.5296C54.0745 23.3644 54.0919 23.0776 53.9267 22.8906C53.9267 22.8906 53.9246 22.8885 53.9224 22.8863L52.5705 21.3693Z" fill="#4DC8EB"/>
<path d="M44.483 12.2456C44.3178 12.0565 44.0331 12.037 43.844 12.2021C43.8418 12.2043 43.8375 12.2065 43.8353 12.2108C43.6484 12.376 43.631 12.6629 43.7962 12.8498C43.7962 12.8498 43.7984 12.852 43.8005 12.8541L45.1589 14.3755C45.2458 14.4733 45.3675 14.5298 45.4979 14.5298C45.6088 14.5298 45.7175 14.4907 45.8022 14.4168C45.9913 14.2538 46.013 13.9669 45.85 13.7778C45.8479 13.7757 45.8457 13.7713 45.8413 13.7691L44.483 12.2456Z" fill="#4DC8EB"/>
<path d="M47.1738 15.2812C47.0065 15.0899 46.7152 15.0725 46.5261 15.2398C46.3349 15.4072 46.3175 15.6984 46.4848 15.8875L47.8432 17.4089C47.9301 17.5089 48.0562 17.5632 48.1866 17.5632C48.2974 17.5632 48.4061 17.5241 48.4909 17.4502C48.68 17.2872 48.7017 17.0003 48.5387 16.8112C48.5365 16.809 48.5343 16.8047 48.53 16.8025L47.1738 15.2812Z" fill="#4DC8EB"/>
<path d="M49.8523 18.3252C49.6849 18.134 49.3937 18.1166 49.2046 18.2839C49.0134 18.4513 48.996 18.7425 49.1633 18.9316L50.5217 20.453C50.6086 20.5529 50.7347 20.6073 50.8651 20.6073C50.9759 20.6073 51.0846 20.5681 51.1693 20.4942C51.3584 20.3312 51.3802 20.0444 51.2172 19.8553C51.215 19.8531 51.2128 19.8488 51.2085 19.8466L49.8523 18.3252Z" fill="#4DC8EB"/>
<path d="M55.244 24.4081C55.0788 24.2211 54.792 24.2038 54.605 24.3689C54.605 24.3689 54.6029 24.3711 54.6007 24.3733C54.4116 24.5385 54.3921 24.8232 54.5572 25.0123C54.5572 25.0123 54.5594 25.0144 54.5616 25.0166L55.9199 26.5336C56.0069 26.6336 56.1329 26.6879 56.2633 26.6879C56.5133 26.6923 56.7197 26.4923 56.7241 26.2424C56.7241 26.125 56.6828 26.012 56.6024 25.9272L55.244 24.4081Z" fill="#4DC8EB"/>
<path d="M92.896 66.9612C92.7286 66.7699 92.4374 66.7526 92.2483 66.9199C92.057 67.0873 92.0397 67.3785 92.207 67.5676L93.5654 69.0889C93.6523 69.1889 93.7784 69.2432 93.9088 69.2432C94.0196 69.2432 94.1283 69.2041 94.213 69.1302C94.4021 68.9672 94.4239 68.6804 94.2609 68.4913C94.2587 68.4891 94.2565 68.4847 94.2522 68.4826L92.896 66.9612Z" fill="#4DC8EB"/>
<path d="M90.2222 63.9254C90.0592 63.7363 89.7724 63.7146 89.5833 63.8776C89.5811 63.8798 89.5767 63.8819 89.5746 63.8863C89.3855 64.0515 89.3659 64.3362 89.5311 64.5253C89.5333 64.5274 89.5355 64.5318 89.5398 64.534L90.8982 66.051C90.9851 66.1488 91.1068 66.2053 91.2372 66.2053C91.3481 66.2053 91.4567 66.1662 91.5415 66.0923C91.7306 65.9293 91.7523 65.6424 91.5893 65.4533C91.5871 65.4511 91.585 65.4468 91.5806 65.4446L90.2222 63.9254Z" fill="#4DC8EB"/>
<path d="M66.0083 36.579C65.8409 36.3877 65.5497 36.3704 65.3606 36.5377C65.1694 36.7051 65.152 36.9963 65.3193 37.1854L66.6777 38.7024C66.8407 38.8915 67.1276 38.9132 67.3167 38.7502C67.3167 38.7502 67.3232 38.7459 67.3254 38.7415C67.5144 38.5763 67.534 38.2916 67.3688 38.1025C67.3688 38.1025 67.3645 38.096 67.3601 38.0938L66.0061 36.5768L66.0083 36.579Z" fill="#4DC8EB"/>
<path d="M87.5325 60.8851C87.3673 60.696 87.0826 60.6765 86.8935 60.8417L86.8892 60.846C86.7001 61.009 86.6783 61.2959 86.8413 61.485C86.8413 61.485 86.8457 61.4915 86.85 61.4937L88.2084 63.015C88.3758 63.2041 88.6648 63.2215 88.8539 63.0541C89.043 62.8868 89.0604 62.5977 88.893 62.4087L87.5347 60.8873L87.5325 60.8851Z" fill="#4DC8EB"/>
<path d="M98.2917 73.0474C98.1244 72.8583 97.8353 72.8409 97.6463 73.0083C97.4572 73.1756 97.4398 73.4647 97.6071 73.6538L98.9655 75.1708C99.1307 75.3599 99.4154 75.3794 99.6045 75.2142C99.6045 75.2142 99.611 75.2099 99.6132 75.2055C99.8001 75.0404 99.8175 74.7535 99.6523 74.5666L99.6479 74.5622L98.2896 73.0452L98.2917 73.0474Z" fill="#4DC8EB"/>
<path d="M95.6147 70.007C95.4474 69.8157 95.1561 69.7983 94.9671 69.9657C94.7758 70.133 94.7584 70.4243 94.9258 70.6134L96.2841 72.1304C96.3711 72.2303 96.4971 72.2847 96.6275 72.2847C96.7384 72.2847 96.847 72.2456 96.9318 72.1717C97.1209 72.0087 97.1426 71.7218 96.9796 71.5327C96.9774 71.5305 96.9753 71.5262 96.9709 71.524L95.6147 70.007Z" fill="#4DC8EB"/>
<path d="M84.8406 57.8446C84.6754 57.6555 84.3907 57.6359 84.2016 57.8011C84.2016 57.8011 84.1994 57.8033 84.1973 57.8055C84.0082 57.9685 83.9865 58.2554 84.1495 58.4445C84.1516 58.4466 84.1538 58.451 84.1581 58.4531L85.5165 59.9745C85.6034 60.0745 85.7295 60.1288 85.8599 60.1288C85.9729 60.1288 86.0794 60.0875 86.1642 60.0115C86.3511 59.8463 86.3685 59.5594 86.2033 59.3725C86.2033 59.3725 86.2011 59.3703 86.199 59.3681L84.8406 57.8446Z" fill="#4DC8EB"/>
<path d="M74.0783 45.6893C73.9066 45.4937 73.611 45.4719 73.4132 45.6393C73.2241 45.8045 73.2046 46.0892 73.3697 46.2783C73.3719 46.2805 73.3741 46.2848 73.3784 46.287L74.7368 47.804C74.8237 47.904 74.9498 47.9583 75.0802 47.9583C75.3301 47.9648 75.5388 47.767 75.5453 47.5171C75.5475 47.3976 75.5062 47.2824 75.4236 47.1976L74.0783 45.6893Z" fill="#4DC8EB"/>
<path d="M71.3873 42.6437C71.2221 42.4546 70.9374 42.435 70.7483 42.6002C70.7461 42.6024 70.7418 42.6045 70.7396 42.6089C70.5527 42.7741 70.5353 43.061 70.7005 43.2479C70.7005 43.2479 70.7027 43.25 70.7048 43.2522L72.0632 44.7736C72.1501 44.8736 72.2762 44.9279 72.4066 44.9279C72.5174 44.9257 72.6239 44.8844 72.7109 44.8149C72.8999 44.6497 72.9195 44.365 72.7543 44.1759C72.7521 44.1737 72.75 44.1694 72.7456 44.1672L71.3873 42.6437Z" fill="#4DC8EB"/>
<path d="M68.7022 39.6031C68.537 39.4141 68.2523 39.3945 68.0632 39.5597C68.0611 39.5618 68.0567 39.564 68.0546 39.5684C67.8655 39.7335 67.8459 40.0183 68.0111 40.2073C68.0111 40.2073 68.0133 40.2095 68.0154 40.2117L69.3738 41.7331C69.4607 41.833 69.5868 41.8874 69.7172 41.8874C69.828 41.8852 69.9345 41.8439 70.0215 41.7743C70.2105 41.6113 70.2323 41.3245 70.0693 41.1354C70.0606 41.1267 70.0519 41.118 70.0432 41.1093L68.7022 39.6031Z" fill="#4DC8EB"/>
<path d="M76.771 48.7285C76.6036 48.5394 76.3146 48.5221 76.1255 48.6894C75.9364 48.8568 75.919 49.1458 76.0864 49.3349L77.4447 50.8519C77.5317 50.9497 77.6577 51.004 77.7881 51.0019C77.899 51.0019 78.0076 50.9627 78.0924 50.8889C78.2815 50.7237 78.3011 50.439 78.1359 50.2499L78.1315 50.2455L76.7666 48.7285H76.771Z" fill="#4DC8EB"/>
<path d="M79.4622 51.7652C79.297 51.5762 79.0123 51.5566 78.8232 51.7218C78.8232 51.7218 78.8167 51.7261 78.8146 51.7305C78.6276 51.8957 78.6103 52.1825 78.7754 52.3694L78.7798 52.3738L80.1381 53.8908C80.2251 53.9908 80.3511 54.0451 80.4815 54.0451C80.5924 54.0451 80.701 54.006 80.7858 53.9321C80.9749 53.7691 80.9966 53.4822 80.8336 53.2931C80.8336 53.2931 80.8293 53.2866 80.8249 53.2845L79.4601 51.7674L79.4622 51.7652Z" fill="#4DC8EB"/>
<path d="M82.1486 54.8061C81.9834 54.6192 81.6965 54.6018 81.5096 54.767L81.5052 54.7714C81.3162 54.9365 81.2966 55.2212 81.4618 55.4103L81.4661 55.4147L82.8245 56.936C82.9114 57.036 83.0375 57.0904 83.1679 57.0904C83.2787 57.0904 83.3874 57.0512 83.4721 56.9773C83.6612 56.8143 83.683 56.5274 83.52 56.3384C83.52 56.3384 83.5156 56.3318 83.5113 56.3297L82.1464 54.8083L82.1486 54.8061Z" fill="#4DC8EB"/>
<path d="M39.5923 8.10866L39.7596 8.29991C39.8466 8.39771 39.9683 8.45423 40.0987 8.45423C40.2117 8.45423 40.3182 8.41294 40.403 8.33687C40.5681 8.18256 40.5942 7.92827 40.4616 7.74353L39.5923 8.10866Z" fill="#4DC8EB"/>
<path d="M101.591 78.179L100.287 76.7011C100.113 76.5055 100.135 76.2229 100.33 76.0491C100.504 75.8752 100.808 75.8969 100.961 76.0925L102.33 77.6139C102.395 77.6574 102.395 77.7226 102.395 77.766L101.591 78.179Z" fill="#4DC8EB"/>
</svg>
