<svg width="145" height="133" fill="none" xmlns="http://www.w3.org/2000/svg"><path d="M39 2h35a3 3 0 0 1 3 3v88a3 3 0 0 1-3 3H39" stroke="#fff" stroke-width="3"/><path d="M39 58.652 2 96l6.97-35.514a1.25 1.25 0 0 1 1.918-.801 20.835 20.835 0 0 0 18.285 2.342L39 58.652Z" fill="#000"/><path d="M2 96V5a3 3 0 0 1 3-3h34M2 96l37-37.348-9.827 3.375a20.835 20.835 0 0 1-18.285-2.342 1.25 1.25 0 0 0-1.918.801L2 96Z" stroke="#fff" stroke-width="3"/><path stroke="#9BA4E9" stroke-width="3" stroke-linecap="round" stroke-dasharray="4 8" d="M39.5 95.5v-92"/><path d="m65.982 60.706-9.471 7.947 44.092 52.548a5.001 5.001 0 0 0 7.045.616l.905-.76.906-.76a5 5 0 0 0 .616-7.044L65.982 60.706Z" fill="#000" stroke="#fff" stroke-width="3"/><path d="m59.498 56.825 4.59 5.47-5.683 4.77-4.59-5.471a5 5 0 0 0-2.426-1.585l-5.652-1.654a5 5 0 0 1-2.426-1.584L31.443 42.626a1.041 1.041 0 0 1 1.41-1.512l11.679 8.474a3.33 3.33 0 0 0 5.077-3.852l-2.38-6.417 2.974-1.265 6.368 7.59a5 5 0 0 1 1.14 2.664l.647 5.853a5 5 0 0 0 1.14 2.664Z" fill="#000" stroke="#fff" stroke-width="3"/><path stroke="#fff" stroke-width="3" d="m69.785 65.24-9.471 7.947"/><path fill-rule="evenodd" clip-rule="evenodd" d="M123.804 99.199a9.421 9.421 0 0 0 2.983-9.882c-.325-1.105-.121-2.358.762-3.098l2.236-1.876-21.799-25.98-2.236 1.877c-.883.74-2.152.724-3.184.212a9.447 9.447 0 0 0-7.898-.226l-13.516-.867-9.878-5.629a2.446 2.446 0 0 0-3.192.689 7.339 7.339 0 0 0 1.776 10.352l5.476 3.775 5.076 3.119-16.597 13.927a6.123 6.123 0 0 0 4.502 10.788c1.199-.11 3.82-1.786 4.813-2.618-.992.832-2.376 2.518-2.693 3.679a6.117 6.117 0 0 0 1.216 5.553 6.118 6.118 0 0 0 5.258 2.162c1.198-.111 4.542-2.391 5.534-3.224-.992.833-3.097 3.123-3.414 4.285a6.117 6.117 0 0 0 1.216 5.553 6.117 6.117 0 0 0 5.257 2.161c1.199-.11 4.542-2.391 5.534-3.223a6.116 6.116 0 0 0-.755 8.626 6.123 6.123 0 0 0 8.627.755l24.896-20.89Z" fill="#000"/><path d="m129.785 84.343-2.236 1.876c-.883.74-1.087 1.993-.762 3.098a9.421 9.421 0 0 1-2.983 9.882l-24.896 20.89a6.123 6.123 0 0 1-9.842-6.308 6.093 6.093 0 0 1 1.97-3.073c-.992.832-4.335 3.113-5.534 3.223a6.117 6.117 0 0 1-5.257-2.161 6.117 6.117 0 0 1-1.216-5.553c.317-1.162 2.422-3.452 3.414-4.285-.992.833-4.336 3.113-5.534 3.224a6.118 6.118 0 0 1-5.258-2.162 6.117 6.117 0 0 1-1.216-5.553c.317-1.161 1.7-2.847 2.692-3.679-.991.832-3.613 2.507-4.812 2.618a6.123 6.123 0 0 1-4.503-10.788L80.41 71.665l-5.076-3.12-5.477-3.774a7.339 7.339 0 0 1-1.775-10.352 2.446 2.446 0 0 1 3.192-.689l9.878 5.63 13.516.866a9.347 9.347 0 0 1 .803-.301 9.446 9.446 0 0 1 7.095.527c1.032.512 2.301.528 3.184-.212l2.236-1.876m21.799 25.979-21.799-25.98m21.799 25.98.531.632a2 2 0 0 0 2.817.247l2.709-2.273a2 2 0 0 0 .247-2.818l-22.861-27.244a2 2 0 0 0-2.818-.247l-2.709 2.273a2 2 0 0 0-.246 2.818l.531.633" stroke="#fff" stroke-width="3"/><circle cx="3.709" cy="3.709" transform="scale(-1 1) rotate(40 -66.355 -49.772)" fill="#000" stroke="#fff" stroke-width="3" r="3.709"/></svg>