<svg width="126" height="123" viewBox="0 0 126 123" fill="none" xmlns="http://www.w3.org/2000/svg">
<path fill-rule="evenodd" clip-rule="evenodd" d="M104.15 50.6095C101.921 49.0409 99.1942 49.1529 97.3134 51.0397L97.3094 51.0357C92.4933 55.8618 99.8144 63.1769 104.633 58.3589C106.835 56.1599 106.605 52.5163 104.15 50.6095ZM68.0068 66.3183C71.3802 67.2207 74.2855 69.0074 76.5344 71.3524L82.8131 41.4276C82.6791 41.5096 82.545 41.5916 82.409 41.6757V41.6797C77.3108 44.6229 70.806 42.8842 67.8587 37.782H67.8547C67.7766 37.648 67.6986 37.5079 67.6286 37.3698L58.1025 66.4243C61.2278 65.5099 64.6373 65.4139 68.0048 66.3203L68.0068 66.3183ZM79.0935 74.7079C82.8651 81.1426 82.519 89.1121 78.0791 95.1126L88.4195 109.273C91.2067 109.273 93.4697 108.887 95.4125 110.833C96.375 111.796 96.9732 113.126 96.9732 114.589V120.884C96.9732 121.768 96.2569 122.484 95.3725 122.484H31.0909C30.2065 122.484 29.4902 121.768 29.4902 120.884V114.589C29.4902 113.206 30.1185 111.68 31.0549 110.839L31.0509 110.835C32.9977 108.889 35.2567 109.275 38.0439 109.275L48.3883 95.1106C41.6154 85.9267 44.9369 72.9551 54.1028 68.113L54.2108 68.053L66.7983 29.6605C67.5666 26.8413 69.3994 24.5883 71.7544 23.2258V23.2218C74.1174 21.8552 77.0007 21.393 79.8399 22.1553C81.7947 22.6795 83.4774 23.716 84.782 25.0826C86.4947 26.3191 102.249 46.1536 102.9 46.5578C103.792 46.7699 104.66 47.13 105.457 47.6382C105.817 47.7203 111.601 46.5498 116.456 51.4059L125.301 60.2517C125.926 60.8759 125.926 61.8864 125.301 62.5106L121.72 66.0882C121.1 66.7084 120.099 66.7124 119.475 66.1022L109.751 58.0687L109.747 58.0727C109.483 57.8086 109.196 57.5965 108.888 57.4305C108.06 59.8455 106.143 61.7663 103.734 62.6067L112.488 73.2853C113.012 73.9235 112.956 74.8499 112.384 75.4222L112.388 75.4262L108.81 79.0037C108.186 79.628 107.176 79.628 106.551 79.0037L97.7055 70.1579C92.8674 65.3198 94.0119 59.5914 93.9299 59.2232C93.3957 58.3949 93.0235 57.4925 92.8114 56.5621L84.3778 49.521L79.0875 74.7159L79.0935 74.7079ZM75.9162 97.5477C74.8677 98.5401 73.7052 99.4025 72.4607 100.119V100.123C65.3936 104.203 56.4658 103.162 50.5493 97.5517L41.9856 109.275H84.4799L75.9162 97.5477ZM76.4544 76.5107C80.6562 83.8378 78.2412 92.9397 70.866 97.3656V97.3616C59.159 104.121 44.9769 93.3199 48.4944 80.1882C51.9979 67.1066 69.6655 64.7576 76.4544 76.5107ZM65.5837 75.5482C63.2247 74.8839 60.7457 75.2921 58.7768 76.4286V76.4326C54.511 78.8997 53.0543 84.336 55.5154 88.6038L55.5194 88.5998C56.6639 90.5767 58.5547 92.1153 60.9257 92.7536C68.543 94.7965 74.9157 86.563 70.946 79.69H70.942C69.8095 77.7212 67.9328 76.1885 65.5837 75.5482ZM68.1889 81.2747C67.4606 80.0121 66.242 79.0237 64.7153 78.6176C63.1507 78.2274 61.676 78.4355 60.3755 79.1858H60.3715C57.6103 80.8425 56.7039 84.276 58.2766 87.0032H58.2726C62.2263 93.59 71.8985 87.7195 68.1889 81.2847H68.1928L68.1889 81.2747ZM91.6589 112.47H34.8085C34.2282 112.47 33.698 112.708 33.3119 113.094L33.3079 113.09C32.9257 113.477 32.6876 114.005 32.6876 114.591V119.287H93.7738V114.591C93.7778 113.424 92.8194 112.47 91.6589 112.47ZM80.8203 38.9145L80.8162 38.9185V38.9145C77.2747 40.9614 72.7948 39.8069 70.6179 36.1793L70.6219 36.1753C68.575 32.6338 69.7295 28.1539 73.357 25.9769V25.9809C75.0098 25.0265 77.0287 24.7064 79.0195 25.2386C85.4403 26.9554 86.5427 35.6091 80.8183 38.9125L80.8203 38.9145ZM80.17 33.2741C80.3961 32.4237 80.256 31.5573 79.8498 30.851H79.8459C78.4112 28.376 74.7297 28.9042 74.0014 31.6234C72.9129 35.6811 79.0835 37.3338 80.172 33.2761L80.17 33.2741ZM87.3811 35.2029L87.7112 33.3261L98.802 46.6118C97.4314 46.98 96.1348 47.7003 95.0564 48.7787L95.0604 48.7827C94.058 49.6851 93.2396 51.2618 92.9015 52.4863L85.1181 45.9915L87.3811 35.2029ZM109.327 54.151L111.998 55.7977L120.491 62.8048L121.918 61.3781L114.205 53.6648C112.6 52.0602 110.567 51.0937 108.39 50.8116C108.936 51.8561 109.249 52.9965 109.327 54.151ZM100.461 63.0549C101.219 65.2478 107.272 71.9647 109.102 74.1836L107.676 75.6103L99.9625 67.8969C98.3718 66.3063 97.4094 64.2894 97.1193 62.1305C98.1737 62.6767 99.3062 62.9848 100.461 63.0549Z" fill="#F1F2F2"/>
<path fill-rule="evenodd" clip-rule="evenodd" d="M65.5831 75.5462C63.2241 74.8819 60.745 75.2901 58.7761 76.4266V76.4306C54.5103 78.8977 53.0537 84.334 55.5147 88.6018L55.5188 88.5978C56.6633 90.5747 58.5541 92.1133 60.9251 92.7516C68.5424 94.7945 74.9151 86.561 70.9454 79.688H70.9413C69.8089 77.7192 67.9321 76.1865 65.5831 75.5462Z" fill="#B0B3DA"/>
<path fill-rule="evenodd" clip-rule="evenodd" d="M68.1896 81.2738C67.4613 80.0113 66.2427 79.0228 64.716 78.6167C63.1514 78.2265 61.6767 78.4346 60.3762 79.1849H60.3722C57.611 80.8416 56.7046 84.2751 58.2773 87.0023H58.2733C62.227 93.5891 71.8992 87.7186 68.1896 81.2838H68.1935L68.1896 81.2738Z" fill="#231F20"/>
<path fill-rule="evenodd" clip-rule="evenodd" d="M80.1698 33.2729C80.3959 32.4225 80.2559 31.5561 79.8497 30.8498H79.8457C78.4111 28.3748 74.7295 28.903 74.0012 31.6221C72.9128 35.6799 79.0834 37.3326 80.1718 33.2749L80.1698 33.2729Z" fill="#B0B3DA"/>
<line x1="16.5" y1="8.5" x2="6.5" y2="8.5" stroke="white" stroke-width="3" stroke-linecap="round"/>
<line x1="13.5" y1="19.5" x2="1.5" y2="19.5" stroke="white" stroke-width="3" stroke-linecap="round"/>
<line x1="16.5" y1="30.5" x2="6.5" y2="30.5" stroke="white" stroke-width="3" stroke-linecap="round"/>
<path d="M38 9V18L45.5 22.5" stroke="#9BA4E9" stroke-width="3" stroke-linecap="round"/>
<circle cx="38" cy="18" r="16" stroke="white" stroke-width="3"/>
</svg>
