<svg width="69" height="1278" viewBox="0 0 69 1278" fill="none" xmlns="http://www.w3.org/2000/svg">
<path d="M0.93934 1267.06C0.353553 1266.47 0.353553 1265.53 0.93934 1264.94L10.4853 1255.39C11.0711 1254.81 12.0208 1254.81 12.6066 1255.39C13.1924 1255.98 13.1924 1256.93 12.6066 1257.51L4.12132 1266L12.6066 1274.49C13.1924 1275.07 13.1924 1276.02 12.6066 1276.61C12.0208 1277.19 11.0711 1277.19 10.4853 1276.61L0.93934 1267.06ZM3 0.5H6.5V3.5H3V0.5ZM13.5 0.5H17V3.5H13.5V0.5ZM17 0.5C17.969 0.5 18.9318 0.526776 19.8879 0.579646L19.7222 3.57507C18.8213 3.52525 17.9137 3.5 17 3.5V0.5ZM25.629 1.21998C27.5445 1.5432 29.4243 1.97218 31.262 2.50074L30.4328 5.38386C28.703 4.88634 26.9334 4.48249 25.1299 4.17817L25.629 1.21998ZM36.714 4.40844C38.5013 5.14962 40.2378 5.9885 41.9167 6.91837L40.4632 9.54274C38.8823 8.66714 37.2474 7.87735 35.5648 7.17961L36.714 4.40844ZM46.8046 9.99583C48.3766 11.1133 49.8832 12.3167 51.3173 13.5992L49.3176 15.8355C47.9664 14.6272 46.5472 13.4936 45.0665 12.441L46.8046 9.99583ZM55.4008 17.6827C56.6833 19.1168 57.8867 20.6234 59.0042 22.1954L56.559 23.9335C55.5064 22.4528 54.3728 21.0336 53.1645 19.6824L55.4008 17.6827ZM62.0816 27.0833C63.0115 28.7622 63.8504 30.4987 64.5916 32.286L61.8204 33.4352C61.1227 31.7526 60.3329 30.1177 59.4573 28.5368L62.0816 27.0833ZM66.4993 37.738C67.0278 39.5757 67.4568 41.4555 67.78 43.371L64.8218 43.8701C64.5175 42.0666 64.1137 40.297 63.6161 38.5672L66.4993 37.738ZM68.4204 49.1121C68.4732 50.0682 68.5 51.031 68.5 52H65.5C65.5 51.0863 65.4748 50.1787 65.4249 49.2778L68.4204 49.1121ZM68.5 52V53.25H65.5V52H68.5ZM68.5 55.75V57H65.5V55.75H68.5ZM68.5 57V59.9934H65.5V57H68.5ZM68.5 65.9801V71.9668H65.5V65.9801H68.5ZM68.5 77.9535V83.9402H65.5V77.9535H68.5ZM68.5 89.9269V95.9136H65.5V89.9269H68.5ZM68.5 101.9V107.887H65.5V101.9H68.5ZM68.5 113.874V119.86H65.5V113.874H68.5ZM68.5 125.847V131.834H65.5V125.847H68.5ZM68.5 137.82V143.807H65.5V137.82H68.5ZM68.5 149.794V155.781H65.5V149.794H68.5ZM68.5 161.767V167.754H65.5V161.767H68.5ZM68.5 173.741V179.727H65.5V173.741H68.5ZM68.5 185.714V191.701H65.5V185.714H68.5ZM68.5 197.688V203.674H65.5V197.688H68.5ZM68.5 209.661V215.648H65.5V209.661H68.5ZM68.5 221.634V227.621H65.5V221.634H68.5ZM68.5 233.608V239.594H65.5V233.608H68.5ZM68.5 245.581V251.568H65.5V245.581H68.5ZM68.5 257.554V263.541H65.5V257.554H68.5ZM68.5 269.528V275.515H65.5V269.528H68.5ZM68.5 281.501V287.488H65.5V281.501H68.5ZM68.5 293.475V299.461H65.5V293.475H68.5ZM68.5 305.448V311.435H65.5V305.448H68.5ZM68.5 317.421V323.408H65.5V317.421H68.5ZM68.5 329.395V335.381H65.5V329.395H68.5ZM68.5 341.368V347.355H65.5V341.368H68.5ZM68.5 353.342V359.328H65.5V353.342H68.5ZM68.5 365.315V371.302H65.5V365.315H68.5ZM68.5 377.288V383.275H65.5V377.288H68.5ZM68.5 389.262V395.248H65.5V389.262H68.5ZM68.5 401.235V407.222H65.5V401.235H68.5ZM68.5 413.208V419.195H65.5V413.208H68.5ZM68.5 425.182V431.169H65.5V425.182H68.5ZM68.5 437.155V443.142H65.5V437.155H68.5ZM68.5 449.129V455.115H65.5V449.129H68.5ZM68.5 461.102V467.089H65.5V461.102H68.5ZM68.5 473.075V479.062H65.5V473.075H68.5ZM68.5 485.049V491.036H65.5V485.049H68.5ZM68.5 497.022V503.009H65.5V497.022H68.5ZM68.5 508.996V514.982H65.5V508.996H68.5ZM68.5 520.969V526.956H65.5V520.969H68.5ZM68.5 532.942V538.929H65.5V532.942H68.5ZM68.5 544.916V550.902H65.5V544.916H68.5ZM68.5 556.889V562.876H65.5V556.889H68.5ZM68.5 568.863V574.849H65.5V568.863H68.5ZM68.5 580.836V586.823H65.5V580.836H68.5ZM68.5 592.809V598.796H65.5V592.809H68.5ZM68.5 604.783V610.769H65.5V604.783H68.5ZM68.5 616.756V622.743H65.5V616.756H68.5ZM68.5 628.729V634.716H65.5V628.729H68.5ZM68.5 640.703V646.69H65.5V640.703H68.5ZM68.5 652.676V658.663H65.5V652.676H68.5ZM68.5 664.65V670.636H65.5V664.65H68.5ZM68.5 676.623V682.61H65.5V676.623H68.5ZM68.5 688.596V694.583H65.5V688.596H68.5ZM68.5 700.57V706.557H65.5V700.57H68.5ZM68.5 712.543V718.53H65.5V712.543H68.5ZM68.5 724.517V730.503H65.5V724.517H68.5ZM68.5 736.49V742.477H65.5V736.49H68.5ZM68.5 748.463V754.45H65.5V748.463H68.5ZM68.5 760.437V766.423H65.5V760.437H68.5ZM68.5 772.41V778.397H65.5V772.41H68.5ZM68.5 784.384V790.37H65.5V784.384H68.5ZM68.5 796.357V802.344H65.5V796.357H68.5ZM68.5 808.33V814.317H65.5V808.33H68.5ZM68.5 820.304V826.29H65.5V820.304H68.5ZM68.5 832.277V838.264H65.5V832.277H68.5ZM68.5 844.25V850.237H65.5V844.25H68.5ZM68.5 856.224V862.211H65.5V856.224H68.5ZM68.5 868.197V874.184H65.5V868.197H68.5ZM68.5 880.171V886.157H65.5V880.171H68.5ZM68.5 892.144V898.131H65.5V892.144H68.5ZM68.5 904.117V910.104H65.5V904.117H68.5ZM68.5 916.091V922.078H65.5V916.091H68.5ZM68.5 928.064V934.051H65.5V928.064H68.5ZM68.5 940.038V946.024H65.5V940.038H68.5ZM68.5 952.011V957.998H65.5V952.011H68.5ZM68.5 963.984V969.971H65.5V963.984H68.5ZM68.5 975.958V981.944H65.5V975.958H68.5ZM68.5 987.931V993.918H65.5V987.931H68.5ZM68.5 999.905V1005.89H65.5V999.905H68.5ZM68.5 1011.88V1017.86H65.5V1011.88H68.5ZM68.5 1023.85V1029.84H65.5V1023.85H68.5ZM68.5 1035.82V1041.81H65.5V1035.82H68.5ZM68.5 1047.8V1053.78H65.5V1047.8H68.5ZM68.5 1059.77V1065.76H65.5V1059.77H68.5ZM68.5 1071.74V1077.73H65.5V1071.74H68.5ZM68.5 1083.72V1089.7H65.5V1083.72H68.5ZM68.5 1095.69V1101.68H65.5V1095.69H68.5ZM68.5 1107.67V1113.65H65.5V1107.67H68.5ZM68.5 1119.64V1125.63H65.5V1119.64H68.5ZM68.5 1131.61V1137.6H65.5V1131.61H68.5ZM68.5 1143.59V1149.57H65.5V1143.59H68.5ZM68.5 1155.56V1161.55H65.5V1155.56H68.5ZM68.5 1167.53V1173.52H65.5V1167.53H68.5ZM68.5 1179.51V1182.5H65.5V1179.51H68.5ZM68.5 1182.5V1185.29H65.5V1182.5H68.5ZM68.5 1190.88V1196.46H65.5V1190.88H68.5ZM68.5 1202.04V1207.62H65.5V1202.04H68.5ZM68.5 1213.21V1216H65.5V1213.21H68.5ZM68.5 1216C68.5 1216.97 68.4732 1217.93 68.4204 1218.89L65.4249 1218.72C65.4748 1217.82 65.5 1216.91 65.5 1216H68.5ZM67.78 1224.63C67.4568 1226.54 67.0278 1228.42 66.4993 1230.26L63.6161 1229.43C64.1137 1227.7 64.5175 1225.93 64.8218 1224.13L67.78 1224.63ZM64.5916 1235.71C63.8504 1237.5 63.0115 1239.24 62.0816 1240.92L59.4573 1239.46C60.3329 1237.88 61.1227 1236.25 61.8204 1234.56L64.5916 1235.71ZM59.0042 1245.8C57.8867 1247.38 56.6833 1248.88 55.4008 1250.32L53.1645 1248.32C54.3728 1246.97 55.5064 1245.55 56.559 1244.07L59.0042 1245.8ZM51.3173 1254.4C49.8832 1255.68 48.3766 1256.89 46.8046 1258L45.0665 1255.56C46.5472 1254.51 47.9664 1253.37 49.3176 1252.16L51.3173 1254.4ZM41.9167 1261.08C40.2378 1262.01 38.5013 1262.85 36.714 1263.59L35.5648 1260.82C37.2474 1260.12 38.8823 1259.33 40.4632 1258.46L41.9167 1261.08ZM31.262 1265.5C29.4243 1266.03 27.5445 1266.46 25.629 1266.78L25.1299 1263.82C26.9334 1263.52 28.703 1263.11 30.4328 1262.62L31.262 1265.5ZM19.8879 1267.42C18.9318 1267.47 17.969 1267.5 17 1267.5V1264.5C17.9137 1264.5 18.8213 1264.47 19.7222 1264.42L19.8879 1267.42ZM17 1267.5H13.25V1264.5H17V1267.5ZM5.75 1267.5H2V1264.5H5.75V1267.5Z" fill="white"/>
</svg>
