<svg version="1.2" xmlns="http://www.w3.org/2000/svg" viewBox="0 0 1278 69" width="1278" height="69">
	<title>animation-line-2</title>
	<style>
		.s0 { fill: #ffffff } 
	</style>
	<path fill-rule="evenodd" class="s0" d="m12.5 25c-6.9 0-12.5-5.6-12.5-12.5 0-6.9 5.6-12.5 12.5-12.5 6.9 0 12.5 5.6 12.5 12.5 0 6.9-5.6 12.5-12.5 12.5z"/>
	<path class="s0" d="m1267.1 1.2c-0.6-0.6-1.5-0.6-2.1 0l-9.4 9.5c-0.6 0.5-0.6 1.5 0 2.1 0.5 0.6 1.5 0.6 2.1 0l8.4-8.5 8.4 8.5c0.6 0.6 1.5 0.6 2.1 0 0.6-0.6 0.6-1.6 0-2.1zm-1257.1 2v13.9h3v-13.9zm1257.5 13.9v-14.9h-3v14.9zm-1206.4 51.1h5v-3h-5zm5 0h1117.1v-2.9h-1117.1zm1117.1 0h33.2v-3h-33.2zm81.4-51.1c0 26.6-21.6 48.1-48.2 48.1v3c28.3 0 51.1-22.9 51.1-51.1zm-1254.5 0c0 28.2 22.8 51.1 51.1 51.1v-3c-26.6 0-48.2-21.5-48.2-48.1z"/>
</svg>