<svg width="135" height="125" viewBox="0 0 135 125" fill="none" xmlns="http://www.w3.org/2000/svg">
<path fill-rule="evenodd" clip-rule="evenodd" d="M25.8726 82.726V121.902C25.8687 122.602 26.4374 123.173 27.1401 123.169H70.6525C71.3475 123.169 71.9142 122.604 71.9142 121.907V82.7241L66.0822 55.1129L58.2149 52.6142C58.0062 52.4668 57.7611 52.3864 57.5083 52.3807C57.2748 52.3768 57.0469 52.44 56.844 52.5606C54.2018 53.2365 51.7127 53.4644 48.8599 53.4605C46.0089 53.4605 43.4759 53.2212 40.7571 52.5109C40.6039 52.4515 40.445 52.4209 40.2841 52.4266C40.0965 52.4304 39.907 52.4764 39.7385 52.5606L31.7103 55.1148L25.8726 82.7298V82.726Z" fill="black" stroke="white" stroke-width="2.01867" stroke-miterlimit="10"/>
<path d="M24.2229 56.1849C19.8153 57.5845 17.5752 59.7711 14.5405 62.5722L2.02627 74.1138C1.53421 74.5675 1.47485 75.3257 1.90182 75.8427L11.8427 87.9988C12.3003 88.5656 13.1428 88.6287 13.6808 88.1328L18.3851 83.8L24.2229 56.1849Z" fill="black" stroke="white" stroke-width="2.01867" stroke-miterlimit="10"/>
<path d="M74.4438 79.9914L79.152 84.3281C79.6881 84.824 80.5286 84.7608 80.99 84.1941L90.929 72.038C91.3464 71.5191 91.2908 70.7666 90.8007 70.3129L78.2923 58.7713C75.2518 55.974 73.0155 53.7779 68.6099 52.3783L74.4419 79.9895L74.4438 79.9914Z" fill="white" stroke="#231F20" stroke-width="2.01867" stroke-miterlimit="10"/>
<path fill-rule="evenodd" clip-rule="evenodd" d="M63.4267 52.8643V92.04C63.4228 92.7408 63.9915 93.3113 64.6942 93.3075H108.207C108.902 93.3075 109.468 92.7427 109.468 92.0457V52.8624L103.636 25.2512L95.769 22.7526C95.5603 22.6051 95.3152 22.5247 95.0625 22.519C94.8289 22.5151 94.601 22.5783 94.3981 22.6989L93.6916 25.3814C93.1364 30.7577 89.6881 33.4095 86.4485 33.4536C83.2089 33.4095 79.7606 30.7558 79.2035 25.3699L78.3093 22.6472C78.1561 22.5879 77.9972 22.5573 77.8364 22.563C77.6487 22.5668 77.4592 22.6128 77.2907 22.697L69.2625 25.2512L63.4248 52.8662L63.4267 52.8643Z" fill="black" stroke="#C5E7E3" stroke-width="2.01867" stroke-miterlimit="10"/>
<path d="M62.3302 25.6277C57.9227 27.0273 55.6826 29.2138 52.6478 32.015L40.1337 43.5565C39.6416 44.0103 39.5823 44.7685 40.0092 45.2854L49.9501 57.4416C50.4077 58.0083 51.2502 58.0715 51.7882 57.5756L56.4925 53.2427L62.3302 25.6277Z" fill="black" stroke="white" stroke-width="2.01867" stroke-miterlimit="10"/>
<path d="M117.107 53.2387L121.815 57.5754C122.351 58.0713 123.191 58.0081 123.653 57.4414L133.592 45.2853C134.009 44.7664 133.954 44.0139 133.464 43.5602L120.955 32.0186C117.915 29.2213 115.678 27.0252 111.273 25.6256L117.105 53.2368L117.107 53.2387Z" fill="black" stroke="white" stroke-width="2.01867" stroke-miterlimit="10"/>
<path d="M12.2524 22.2655V3.7508C12.2524 1.67915 10.5733 0 8.50161 0C6.42995 0 4.75077 1.67915 4.75077 3.7508V22.2655C2.51063 23.5636 1 25.9799 1 28.7562C1 32.8995 4.3583 36.2578 8.50161 36.2578C12.6449 36.2578 16.0032 32.8995 16.0032 28.7562C16.0032 25.9799 14.4925 23.5617 12.2524 22.2655ZM11.0021 22.6369C11.0021 22.8724 11.1342 23.0869 11.3429 23.1941C13.3648 24.2299 14.7529 26.3284 14.7529 28.7581C14.7529 32.2102 11.9537 35.0094 8.50161 35.0094C5.04949 35.0094 2.25024 32.2102 2.25024 28.7581C2.25024 26.3303 3.63837 24.2299 5.66025 23.1941C5.86894 23.0869 6.00107 22.8724 6.00107 22.6369V3.7508C6.00107 2.37034 7.12114 1.25027 8.50161 1.25027C9.88207 1.25027 11.0021 2.37034 11.0021 3.7508V22.6369ZM7.87552 25.0571C6.10256 25.3557 4.74885 26.899 4.74885 28.7562C4.74885 30.8259 6.42994 32.507 8.49968 32.507C10.5694 32.507 12.2505 30.8259 12.2505 28.7562C12.2505 26.899 10.8987 25.3557 9.12383 25.0571V8.01857C9.12383 7.67393 8.8443 7.39247 8.49775 7.39247C8.1512 7.39247 7.87167 7.67393 7.87167 8.01857V25.0571H7.87552ZM11.0021 28.7562C11.0021 30.1366 9.88207 31.2567 8.50161 31.2567C7.12114 31.2567 6.00107 30.1366 6.00107 28.7562C6.00107 27.3757 7.12114 26.2556 8.50161 26.2556C9.88207 26.2556 11.0021 27.3757 11.0021 28.7562Z" fill="white"/>
<path d="M23.0033 21.9183V35.0011C23.0033 35.7057 23.5567 36.259 24.2613 36.259C24.9659 36.259 25.5192 35.7057 25.5192 35.0011V21.9183L27.5832 23.9823C28.0868 24.4858 28.8909 24.4858 29.3945 23.9823C29.898 23.4787 29.898 22.6745 29.3945 22.171L25.1171 17.8937C24.6136 17.3901 23.8095 17.3901 23.3059 17.8937L19.0285 22.171C18.7777 22.4218 18.6763 22.7243 18.6763 23.0766C18.6763 23.4289 18.7777 23.7314 19.0285 23.9823C19.5321 24.4858 20.3363 24.4858 20.8398 23.9823L23.0033 21.9183Z" fill="#C5E7E3"/>
</svg>
