<svg width="113" height="134" viewBox="0 0 113 134" fill="none" xmlns="http://www.w3.org/2000/svg">
<path fill-rule="evenodd" clip-rule="evenodd" d="M87.9466 42.6561L79.8032 40.0654C79.632 39.9797 79.4404 39.9329 79.2508 39.9288C79.0898 39.9227 78.9267 39.9532 78.7718 40.0144L77.8647 42.7764C77.3001 48.2393 73.8022 50.93 70.5163 50.9748C67.2304 50.93 63.7345 48.2393 63.1699 42.7866L62.4524 40.0654C62.2465 39.9451 62.0142 39.8778 61.7777 39.8839C61.5209 39.89 61.2742 39.9716 61.0622 40.1204L53.0819 42.6541L47.1665 70.6616V110.406C47.1665 111.112 47.7413 111.686 48.4466 111.686H92.5819C93.2933 111.69 93.8722 111.114 93.8661 110.402V70.6657L87.9466 42.6561Z" fill="black" stroke="white" stroke-width="1.948" stroke-miterlimit="10"/>
<path fill-rule="evenodd" clip-rule="evenodd" d="M69.8033 63.5526L61.6599 60.9618C61.4887 60.8762 61.2971 60.8293 61.1075 60.8252C60.9465 60.8191 60.7834 60.8497 60.6285 60.9109L59.7214 63.6729C59.1568 69.1358 55.6589 71.8265 52.373 71.8713C49.0871 71.8265 45.5912 69.1358 45.0266 63.6831L44.3091 60.9618C44.1032 60.8416 43.8709 60.7743 43.6344 60.7804C43.3776 60.7865 43.1309 60.8681 42.9189 61.0169L34.9386 63.5506L29.0232 91.5581V131.303C29.0232 132.008 29.598 132.583 30.3033 132.583H74.4386C75.15 132.587 75.7289 132.01 75.7228 131.299V91.5622L69.8033 63.5526Z" fill="black" stroke="white" stroke-width="1.948" stroke-miterlimit="10"/>
<path d="M2.4991 28.3296H9.56617C10.9462 28.3296 12.0673 29.4507 12.0673 30.8307V37.8998C12.0673 39.2798 10.9462 40.3989 9.56822 40.3989H2.4991C1.1191 40.3989 0 39.2778 0 37.8998V30.8307C0 29.4507 1.12114 28.3296 2.4991 28.3296Z" fill="white"/>
<path d="M16.9719 28.3296H24.0391C25.4191 28.3296 26.5402 29.4507 26.5402 30.8307V37.8998C26.5402 39.2798 25.4191 40.3989 24.0411 40.3989H16.9719C15.5919 40.3989 14.4729 39.2778 14.4729 37.8998V30.8307C14.4729 29.4507 15.594 28.3296 16.9719 28.3296Z" fill="white"/>
<path d="M31.4424 28.3296H38.5095C39.8895 28.3296 41.0106 29.4507 41.0106 30.8307V37.8998C41.0106 39.2798 39.8895 40.3989 38.5116 40.3989H31.4424C30.0624 40.3989 28.9434 39.2778 28.9434 37.8998V30.8307C28.9434 29.4507 30.0644 28.3296 31.4424 28.3296Z" fill="white"/>
<path d="M2.49931 29.5869H9.56843C10.2533 29.5869 10.8118 30.1434 10.8118 30.8303V37.8974C10.8118 38.5823 10.2554 39.1409 9.56843 39.1409H2.49931C1.81441 39.1409 1.25586 38.5844 1.25586 37.8974V30.8283C1.25586 30.1434 1.81236 29.5869 2.49726 29.5869H2.49931Z" fill="white"/>
<path d="M16.9698 29.5869H24.0389C24.7238 29.5869 25.2823 30.1434 25.2823 30.8303V37.8974C25.2823 38.5823 24.7258 39.1409 24.0389 39.1409H16.9698C16.2849 39.1409 15.7263 38.5844 15.7263 37.8974V30.8283C15.7263 30.1434 16.2828 29.5869 16.9677 29.5869H16.9698Z" fill="white"/>
<path d="M31.4426 29.5869H38.5118C39.1967 29.5869 39.7552 30.1434 39.7552 30.8303V37.8974C39.7552 38.5823 39.1987 39.1409 38.5118 39.1409H31.4426C30.7577 39.1409 30.1992 38.5844 30.1992 37.8974V30.8283C30.1992 30.1434 30.7577 29.5869 31.4426 29.5869Z" fill="white"/>
<path d="M24.0407 0H16.9696C15.5894 0 14.4705 1.11888 14.4705 2.49907V9.56822C14.4705 10.9484 15.5894 12.0673 16.9696 12.0673H24.0407C25.4209 12.0673 26.5398 10.9484 26.5398 9.56822V2.49907C26.5398 1.11888 25.4209 0 24.0407 0Z" fill="#C5E7E3"/>
<path d="M2.4991 28.3296H9.56617C10.9462 28.3296 12.0673 29.4507 12.0673 30.8307V37.8998C12.0673 39.2798 10.9462 40.3989 9.56822 40.3989H2.4991C1.1191 40.3989 0 39.2778 0 37.8998V30.8307C0 29.4507 1.12114 28.3296 2.4991 28.3296Z" fill="white"/>
<path d="M16.9719 28.3296H24.0391C25.4191 28.3296 26.5402 29.4507 26.5402 30.8307V37.8998C26.5402 39.2798 25.4191 40.3989 24.0411 40.3989H16.9719C15.5919 40.3989 14.4729 39.2778 14.4729 37.8998V30.8307C14.4729 29.4507 15.594 28.3296 16.9719 28.3296Z" fill="#C5E7E3"/>
<path d="M31.4424 28.3296H38.5095C39.8895 28.3296 41.0106 29.4507 41.0106 30.8307V37.8998C41.0106 39.2798 39.8895 40.3989 38.5116 40.3989H31.4424C30.0624 40.3989 28.9434 39.2778 28.9434 37.8998V30.8307C28.9434 29.4507 30.0644 28.3296 31.4424 28.3296Z" fill="white"/>
<path d="M2.49931 29.5869H9.56843C10.2533 29.5869 10.8118 30.1434 10.8118 30.8303V37.8974C10.8118 38.5823 10.2554 39.1409 9.56843 39.1409H2.49931C1.81441 39.1409 1.25586 38.5844 1.25586 37.8974V30.8283C1.25586 30.1434 1.81236 29.5869 2.49726 29.5869H2.49931Z" fill="black"/>
<path d="M16.9698 29.5869H24.0389C24.7238 29.5869 25.2823 30.1434 25.2823 30.8303V37.8974C25.2823 38.5823 24.7258 39.1409 24.0389 39.1409H16.9698C16.2849 39.1409 15.7263 38.5844 15.7263 37.8974V30.8283C15.7263 30.1434 16.2828 29.5869 16.9677 29.5869H16.9698Z" fill="black"/>
<path d="M31.4426 29.5869H38.5118C39.1967 29.5869 39.7552 30.1434 39.7552 30.8303V37.8974C39.7552 38.5823 39.1987 39.1409 38.5118 39.1409H31.4426C30.7577 39.1409 30.1992 38.5844 30.1992 37.8974V30.8283C30.1992 30.1434 30.7577 29.5869 31.4426 29.5869Z" fill="black"/>
<path fill-rule="evenodd" clip-rule="evenodd" d="M106.086 23.3954L97.9427 20.8046C97.7714 20.719 97.5798 20.6721 97.3902 20.668C97.2292 20.6619 97.0661 20.6925 96.9112 20.7536L96.0041 23.5157C95.4395 28.9786 91.9416 31.6692 88.6557 31.7141C85.3699 31.6692 81.874 28.9786 81.3094 23.5259L80.5918 20.8046C80.3859 20.6843 80.1536 20.6171 79.9171 20.6232C79.6603 20.6293 79.4137 20.7108 79.2017 20.8596L71.2213 23.3934L65.3059 51.4009V91.1455C65.3059 91.8508 65.8807 92.4256 66.586 92.4256H110.721C111.433 92.4297 112.012 91.8528 112.006 91.1414V51.405L106.086 23.3954Z" fill="black" stroke="white" stroke-width="1.948" stroke-miterlimit="10"/>
<path fill-rule="evenodd" clip-rule="evenodd" d="M87.9466 42.6561L79.8032 40.0654C79.632 39.9797 79.4404 39.9329 79.2508 39.9288C79.0898 39.9227 78.9267 39.9532 78.7718 40.0144L77.8647 42.7764C77.3001 48.2393 73.8022 50.93 70.5163 50.9748C67.2304 50.93 63.7345 48.2393 63.1699 42.7866L62.4524 40.0654C62.2465 39.9451 62.0142 39.8778 61.7777 39.8839C61.5209 39.89 61.2742 39.9716 61.0622 40.1204L53.0819 42.6541L47.1665 70.6616V110.406C47.1665 111.112 47.7413 111.686 48.4466 111.686H92.5819C93.2933 111.69 93.8722 111.114 93.8661 110.402V70.6657L87.9466 42.6561Z" fill="black" stroke="#C5E7E3" stroke-width="1.948" stroke-miterlimit="10"/>
<path fill-rule="evenodd" clip-rule="evenodd" d="M69.8033 63.5526L61.6599 60.9618C61.4887 60.8762 61.2971 60.8293 61.1075 60.8252C60.9465 60.8191 60.7834 60.8497 60.6285 60.9109L59.7214 63.6729C59.1568 69.1358 55.6589 71.8265 52.373 71.8713C49.0871 71.8265 45.5912 69.1358 45.0266 63.6831L44.3091 60.9618C44.1032 60.8416 43.8709 60.7743 43.6344 60.7804C43.3776 60.7865 43.1309 60.8681 42.9189 61.0169L34.9386 63.5506L29.0232 91.5581V131.303C29.0232 132.008 29.598 132.583 30.3033 132.583H74.4386C75.15 132.587 75.7289 132.01 75.7228 131.299V91.5622L69.8033 63.5526Z" fill="black" stroke="white" stroke-width="1.948" stroke-miterlimit="10"/>
<path d="M20.0493 17.1125H6.47151V25.5902L6.91592 24.9725C7.06268 24.7687 7.34802 24.7218 7.55186 24.8686C7.7557 25.0153 7.80263 25.3007 7.65587 25.5045L6.40427 27.2392L6.39817 27.2474L6.39612 27.2535L6.39201 27.2596C6.3859 27.2678 6.37984 27.2759 6.37372 27.2841C6.36149 27.2983 6.34925 27.3126 6.33702 27.3248C6.33091 27.331 6.32684 27.335 6.32072 27.3391C6.31665 27.3432 6.31254 27.3473 6.30847 27.3493C6.30235 27.3534 6.29828 27.3575 6.29217 27.3636L6.28402 27.3697C6.27994 27.3717 6.2779 27.3738 6.27382 27.3758C6.26974 27.3778 6.26564 27.3819 6.26156 27.384L6.25547 27.386L6.25136 27.388L6.24527 27.3901C6.23915 27.3941 6.23302 27.3982 6.22486 27.4003C6.22079 27.4023 6.21469 27.4043 6.21062 27.4064C6.2045 27.4105 6.19633 27.4125 6.19021 27.4145C6.18614 27.4166 6.18004 27.4186 6.17597 27.4206C6.16374 27.4247 6.1515 27.4288 6.13927 27.4329C6.13315 27.4329 6.12504 27.437 6.11892 27.439C6.11281 27.439 6.10868 27.441 6.10256 27.4431C6.09237 27.4451 6.08221 27.4471 6.07202 27.4492H6.06592H6.05976C6.05161 27.4492 6.04346 27.4512 6.03326 27.4512C6.02103 27.4512 6.0068 27.4512 5.99457 27.4512H5.98841C5.98841 27.4512 5.97419 27.4512 5.96807 27.4512C5.964 27.4512 5.96195 27.4512 5.95787 27.4512H5.95177H5.94562H5.94157C5.93138 27.4512 5.92321 27.4471 5.91302 27.4451C5.90894 27.4451 5.90689 27.4451 5.90282 27.4431C5.89262 27.441 5.88446 27.439 5.87426 27.4349H5.87022C5.87022 27.4349 5.858 27.4308 5.85392 27.4288C5.84985 27.4288 5.8478 27.4268 5.84372 27.4247L5.83762 27.4206C5.82947 27.4166 5.82127 27.4125 5.81311 27.4084L5.80497 27.4043C5.79681 27.4003 5.79074 27.3962 5.78462 27.3921L5.78052 27.3901L5.77442 27.386L5.76627 27.3799C5.7622 27.3778 5.75808 27.3738 5.75197 27.3717C5.74789 27.3676 5.7418 27.3656 5.73772 27.3615L5.73162 27.3575C5.72755 27.3534 5.72139 27.3493 5.71732 27.3452C5.7112 27.3391 5.70309 27.331 5.69697 27.3248L5.69287 27.3208C5.68675 27.3147 5.68063 27.3065 5.67452 27.3004L5.67247 27.2983L5.66842 27.2922L5.66432 27.2861C5.65412 27.2739 5.64596 27.2617 5.63576 27.2474C5.63372 27.2433 5.62965 27.2392 5.62761 27.2331L4.38217 25.5066C4.23541 25.3028 4.28228 25.0174 4.48612 24.8706C4.68996 24.7239 4.97536 24.7687 5.12212 24.9746L5.56646 25.5922V16.66C5.56646 16.4092 5.7703 16.2034 6.02306 16.2034H20.0574" fill="white"/>
<path d="M20.9607 16.1986H34.9951C35.2458 16.1986 35.4517 16.4024 35.4517 16.6552V25.5874L35.896 24.9698C36.0428 24.766 36.3282 24.7191 36.532 24.8659C36.7358 25.0126 36.7827 25.298 36.6359 25.5018L35.3782 27.2487C35.3782 27.2487 35.3783 27.2528 35.3763 27.2548C35.3763 27.2548 35.3742 27.2589 35.3722 27.261V27.265C35.3722 27.265 35.3681 27.2691 35.3661 27.2712C35.362 27.2773 35.3579 27.2813 35.3538 27.2854C35.3518 27.2895 35.3477 27.2915 35.3457 27.2956C35.3375 27.3058 35.3293 27.314 35.3191 27.3242C35.3191 27.3242 35.3171 27.3262 35.3151 27.3282C35.307 27.3364 35.2988 27.3425 35.2906 27.3486C35.2906 27.3486 35.2886 27.3507 35.2866 27.3527C35.2825 27.3568 35.2784 27.3588 35.2722 27.3629C35.2702 27.3649 35.2661 27.367 35.2641 27.369C35.2641 27.369 35.2621 27.371 35.2601 27.3731C35.258 27.3731 35.256 27.3751 35.254 27.3772C35.254 27.3772 35.2498 27.3792 35.2478 27.3812C35.2458 27.3812 35.2437 27.3853 35.2417 27.3873C35.2397 27.3873 35.2356 27.3914 35.2336 27.3935C35.2336 27.3935 35.2315 27.3935 35.2294 27.3955C35.2233 27.3996 35.2152 27.4037 35.2091 27.4057C35.2071 27.4057 35.203 27.4098 35.201 27.4098C35.201 27.4098 35.1989 27.4098 35.1969 27.4098C35.1969 27.4098 35.1928 27.4098 35.1908 27.4118C35.1846 27.4138 35.1785 27.4159 35.1724 27.4179C35.1622 27.422 35.15 27.4261 35.1398 27.4302C35.1357 27.4302 35.1296 27.4342 35.1255 27.4342C35.1153 27.4383 35.1051 27.4403 35.0929 27.4424C35.0929 27.4424 35.0888 27.4424 35.0868 27.4424C35.0787 27.4424 35.0725 27.4444 35.0644 27.4465C35.0603 27.4465 35.0582 27.4465 35.0541 27.4465C35.0501 27.4465 35.044 27.4465 35.0399 27.4465C35.0195 27.4465 34.9991 27.4485 34.9767 27.4465C34.9747 27.4465 34.9726 27.4465 34.9706 27.4465C34.9645 27.4465 34.9563 27.4465 34.9502 27.4465C34.9461 27.4465 34.9441 27.4465 34.94 27.4465C34.938 27.4465 34.9359 27.4465 34.9339 27.4465C34.9319 27.4465 34.9298 27.4465 34.9278 27.4465C34.9278 27.4465 34.9257 27.4465 34.9237 27.4465C34.8992 27.4424 34.8768 27.4363 34.8544 27.4281C34.8544 27.4281 34.8422 27.424 34.8381 27.422C34.8361 27.422 34.834 27.422 34.832 27.42C34.83 27.42 34.8279 27.42 34.8258 27.4179C34.8177 27.4138 34.8096 27.4098 34.8014 27.4057C34.7994 27.4057 34.7953 27.4037 34.7933 27.4016C34.7851 27.3975 34.779 27.3935 34.7729 27.3894C34.7688 27.3873 34.7667 27.3853 34.7626 27.3833C34.7606 27.3833 34.7565 27.3792 34.7545 27.3772C34.7504 27.3751 34.7464 27.371 34.7403 27.369C34.7362 27.3649 34.7301 27.3629 34.726 27.3588C34.724 27.3588 34.7219 27.3568 34.7198 27.3547C34.7158 27.3507 34.7097 27.3466 34.7056 27.3425C34.6893 27.3282 34.675 27.3119 34.6628 27.2956C34.6628 27.2956 34.6628 27.2956 34.6608 27.2936C34.6608 27.2936 34.6587 27.2895 34.6567 27.2875C34.6567 27.2875 34.6546 27.2834 34.6526 27.2813C34.6424 27.2691 34.6342 27.2569 34.6241 27.2426C34.622 27.2385 34.6179 27.2345 34.6159 27.2283L33.3705 25.5018C33.2237 25.298 33.2706 25.0126 33.4744 24.8659C33.6782 24.7191 33.9636 24.7639 34.1104 24.9698L34.5548 25.5854V17.1098H20.977" fill="white"/>
<path d="M22.2291 25.256C22.2291 25.3375 22.2087 25.4394 22.1475 25.521L20.9041 27.2536H20.8837V27.274C20.8633 27.3148 20.8226 27.3555 20.7818 27.3759C20.7614 27.3759 20.7614 27.3963 20.7614 27.3963H20.741C20.741 27.4167 20.7207 27.4167 20.7207 27.4167H20.7003L20.6799 27.4371C20.6595 27.4371 20.6391 27.4371 20.6391 27.4574H20.4353C20.4149 27.4574 20.3945 27.4575 20.3537 27.4371H20.3334L20.313 27.4167H20.2926L20.2722 27.3963H20.2518V27.3759H20.2314V27.3555H20.2111C20.1907 27.3352 20.1703 27.3148 20.1703 27.2944H20.1499C20.1499 27.274 20.1295 27.274 20.1295 27.2536C20.1295 27.2536 20.1091 27.2536 20.1091 27.2332L18.8657 25.521C18.723 25.3171 18.7638 25.0318 18.9676 24.8687C19.1715 24.726 19.4568 24.7872 19.5995 24.991L20.048 25.6025V13.4537C20.048 13.1887 20.2518 12.9849 20.5168 12.9849C20.7614 12.9849 20.9653 13.1887 20.9653 13.4537V25.6025L21.4137 24.991C21.5564 24.7872 21.8418 24.726 22.0456 24.8891C22.1679 24.9706 22.2291 25.1133 22.2291 25.256Z" fill="#C5E7E3"/>
</svg>
