<svg width="1278" height="69" viewBox="0 0 1278 69" fill="none" xmlns="http://www.w3.org/2000/svg">
<path d="M10.9393 68.0607C11.5251 68.6464 12.4749 68.6464 13.0607 68.0607L22.6066 58.5147C23.1924 57.9289 23.1924 56.9792 22.6066 56.3934C22.0209 55.8076 21.071 55.8076 20.4852 56.3934L12 64.8787L3.51477 56.3934C2.92896 55.8076 1.97913 55.8076 1.39343 56.3934C0.807617 56.9792 0.807617 57.9289 1.39343 58.5147L10.9393 68.0607ZM1277.5 66V62.5H1274.5V66H1277.5ZM1277.5 55.5V52H1274.5V55.5H1277.5ZM1277.5 52C1277.5 51.031 1277.47 50.0682 1277.42 49.1121L1274.42 49.2778C1274.47 50.1787 1274.5 51.0863 1274.5 52H1277.5ZM1276.78 43.371C1276.46 41.4555 1276.03 39.5757 1275.5 37.738L1272.62 38.5672C1273.11 40.297 1273.52 42.0666 1273.82 43.8701L1276.78 43.371ZM1273.59 32.286C1272.85 30.4987 1272.01 28.7622 1271.08 27.0833L1268.46 28.5368C1269.33 30.1177 1270.12 31.7526 1270.82 33.4352L1273.59 32.286ZM1268 22.1954C1266.89 20.6234 1265.68 19.1168 1264.4 17.6827L1262.16 19.6824C1263.37 21.0336 1264.51 22.4528 1265.56 23.9335L1268 22.1954ZM1260.32 13.5992C1258.88 12.3167 1257.38 11.1133 1255.8 9.99583L1254.07 12.441C1255.55 13.4936 1256.97 14.6272 1258.32 15.8355L1260.32 13.5992ZM1250.92 6.91837C1249.24 5.9885 1247.5 5.14962 1245.71 4.40844L1244.56 7.17961C1246.25 7.87735 1247.88 8.66714 1249.46 9.54274L1250.92 6.91837ZM1240.26 2.50074C1238.42 1.97218 1236.54 1.5432 1234.63 1.21999L1234.13 4.17817C1235.93 4.48248 1237.7 4.88634 1239.43 5.38386L1240.26 2.50074ZM1228.89 0.579643C1227.93 0.526779 1226.97 0.5 1226 0.5V3.5C1226.91 3.5 1227.82 3.52525 1228.72 3.57507L1228.89 0.579643ZM1226 0.5H1224.75V3.5H1226V0.5ZM1222.25 0.5H1221V3.5H1222.25V0.5ZM1221 0.5H1218.01V3.5H1221V0.5ZM1212.02 0.5H1206.03V3.5H1212.02V0.5ZM1200.05 0.5H1194.06V3.5H1200.05V0.5ZM1188.07 0.5H1182.09V3.5H1188.07V0.5ZM1176.1 0.5H1170.11V3.5H1176.1V0.5ZM1164.13 0.5H1158.14V3.5H1164.13V0.5ZM1152.15 0.5H1146.17V3.5H1152.15V0.5ZM1140.18 0.5H1134.19V3.5H1140.18V0.5ZM1128.21 0.5H1122.22V3.5H1128.21V0.5ZM1116.23 0.5H1110.25V3.5H1116.23V0.5ZM1104.26 0.5H1098.27V3.5H1104.26V0.5ZM1092.29 0.5H1086.3V3.5H1092.29V0.5ZM1080.31 0.5H1074.33V3.5H1080.31V0.5ZM1068.34 0.5H1062.35V3.5H1068.34V0.5ZM1056.37 0.5H1050.38V3.5H1056.37V0.5ZM1044.39 0.5H1038.41V3.5H1044.39V0.5ZM1032.42 0.5H1026.43V3.5H1032.42V0.5ZM1020.45 0.5H1014.46V3.5H1020.45V0.5ZM1008.47 0.5H1002.49V3.5H1008.47V0.5ZM996.499 0.5H990.512V3.5H996.499V0.5ZM984.525 0.5H978.539V3.5H984.525V0.5ZM972.552 0.5H966.565V3.5H972.552V0.5ZM960.579 0.5H954.592V3.5H960.579V0.5ZM948.605 0.5H942.619V3.5H948.605V0.5ZM936.632 0.5H930.645V3.5H936.632V0.5ZM924.658 0.5H918.672V3.5H924.658V0.5ZM912.685 0.5H906.698V3.5H912.685V0.5ZM900.712 0.5H894.725V3.5H900.712V0.5ZM888.738 0.5H882.752V3.5H888.738V0.5ZM876.765 0.5H870.778V3.5H876.765V0.5ZM864.792 0.5H858.805V3.5H864.792V0.5ZM852.818 0.5H846.831V3.5H852.818V0.5ZM840.845 0.5H834.858V3.5H840.845V0.5ZM828.871 0.5H822.885V3.5H828.871V0.5ZM816.898 0.5H810.911V3.5H816.898V0.5ZM804.925 0.5H798.938V3.5H804.925V0.5ZM792.951 0.5H786.964V3.5H792.951V0.5ZM780.978 0.5H774.991V3.5H780.978V0.5ZM769.004 0.5H763.018V3.5H769.004V0.5ZM757.031 0.5H751.044V3.5H757.031V0.5ZM745.058 0.5H739.071V3.5H745.058V0.5ZM733.084 0.5H727.098V3.5H733.084V0.5ZM721.111 0.5H715.124V3.5H721.111V0.5ZM709.137 0.5H703.151V3.5H709.137V0.5ZM697.164 0.5H691.177V3.5H697.164V0.5ZM685.191 0.5H679.204V3.5H685.191V0.5ZM673.217 0.5H667.231V3.5H673.217V0.5ZM661.244 0.5H655.257V3.5H661.244V0.5ZM649.271 0.5H643.284V3.5H649.271V0.5ZM637.297 0.5H631.31V3.5H637.297V0.5ZM625.324 0.5H619.337V3.5H625.324V0.5ZM613.35 0.5H607.364V3.5H613.35V0.5ZM601.377 0.5H595.39V3.5H601.377V0.5ZM589.404 0.5H583.417V3.5H589.404V0.5ZM577.43 0.5H571.443V3.5H577.43V0.5ZM565.457 0.5H559.47V3.5H565.457V0.5ZM553.483 0.5H547.497V3.5H553.483V0.5ZM541.51 0.5H535.523V3.5H541.51V0.5ZM529.537 0.5H523.55V3.5H529.537V0.5ZM517.563 0.5H511.577V3.5H517.563V0.5ZM505.59 0.5H499.603V3.5H505.59V0.5ZM493.616 0.5H487.63V3.5H493.616V0.5ZM481.643 0.5H475.656V3.5H481.643V0.5ZM469.67 0.5H463.683V3.5H469.67V0.5ZM457.696 0.5H451.71V3.5H457.696V0.5ZM445.723 0.5H439.736V3.5H445.723V0.5ZM433.75 0.5H427.763V3.5H433.75V0.5ZM421.776 0.5H415.789V3.5H421.776V0.5ZM409.803 0.5H403.816V3.5H409.803V0.5ZM397.829 0.5H391.843V3.5H397.829V0.5ZM385.856 0.5H379.869V3.5H385.856V0.5ZM373.883 0.5H367.896V3.5H373.883V0.5ZM361.909 0.5H355.922V3.5H361.909V0.5ZM349.936 0.5H343.949V3.5H349.936V0.5ZM337.962 0.5H331.976V3.5H337.962V0.5ZM325.989 0.5H320.002V3.5H325.989V0.5ZM314.016 0.5H308.029V3.5H314.016V0.5ZM302.042 0.5H296.056V3.5H302.042V0.5ZM290.069 0.5H284.082V3.5H290.069V0.5ZM278.095 0.5H272.109V3.5H278.095V0.5ZM266.122 0.5H260.135V3.5H266.122V0.5ZM254.149 0.5H248.162V3.5H254.149V0.5ZM242.175 0.5H236.189V3.5H242.175V0.5ZM230.202 0.5H224.215V3.5H230.202V0.5ZM218.229 0.5H212.242V3.5H218.229V0.5ZM206.255 0.5H200.268V3.5H206.255V0.5ZM194.282 0.5H188.295V3.5H194.282V0.5ZM182.308 0.5H176.322V3.5H182.308V0.5ZM170.335 0.5H164.348V3.5H170.335V0.5ZM158.362 0.5H152.375V3.5H158.362V0.5ZM146.388 0.5H140.401V3.5H146.388V0.5ZM134.415 0.5H128.428V3.5H134.415V0.5ZM122.441 0.5H116.455V3.5H122.441V0.5ZM110.468 0.5H104.481V3.5H110.468V0.5ZM98.4946 0.5H95.5V3.5H98.4946V0.5ZM95.5 0.5H92.7084V3.5H95.5V0.5ZM87.125 0.5H81.5416V3.5H87.125V0.5ZM75.9584 0.5H70.375V3.5H75.9584V0.5ZM64.7916 0.5H62V3.5H64.7916V0.5ZM62 0.5C61.031 0.5 60.0681 0.526779 59.1121 0.579643L59.2777 3.57507C60.1787 3.52525 61.0863 3.5 62 3.5V0.5ZM53.371 1.21999C51.4554 1.5432 49.5757 1.97218 47.738 2.50075L48.5673 5.38386C50.297 4.88634 52.0667 4.48249 53.8701 4.17817L53.371 1.21999ZM42.286 4.40844C40.4987 5.14962 38.7622 5.9885 37.0833 6.91837L38.5367 9.54274C40.1177 8.66714 41.7526 7.87735 43.4352 7.17962L42.286 4.40844ZM32.1954 9.99583C30.6234 11.1133 29.1168 12.3167 27.6826 13.5992L29.6825 15.8355C31.0336 14.6272 32.4528 13.4936 33.9335 12.441L32.1954 9.99583ZM23.5992 17.6827C22.3167 19.1168 21.1133 20.6234 19.9958 22.1954L22.441 23.9335C23.4935 22.4528 24.6272 21.0336 25.8354 19.6824L23.5992 17.6827ZM16.9183 27.0833C15.9885 28.7622 15.1497 30.4987 14.4084 32.286L17.1796 33.4352C17.8773 31.7526 18.6671 30.1177 19.5427 28.5368L16.9183 27.0833ZM12.5007 37.738C11.9722 39.5757 11.5432 41.4555 11.22 43.371L14.1782 43.8701C14.4825 42.0666 14.8864 40.297 15.3839 38.5672L12.5007 37.738ZM10.5796 49.1121C10.5267 50.0682 10.5 51.031 10.5 52H13.5C13.5 51.0863 13.5253 50.1787 13.5751 49.2778L10.5796 49.1121ZM10.5 52V55.75H13.5V52H10.5ZM10.5 63.25V67H13.5V63.25H10.5Z" fill="white"/>
</svg>
