<svg width="121" height="81" fill="none" xmlns="http://www.w3.org/2000/svg"><path d="m4.5 50-2.038 9.68C.996 66.645 8.67 71.92 14.648 68.05v0a8.005 8.005 0 0 0 1.54-1.298l11.837-12.851a9.98 9.98 0 0 1 11.612-2.258v0a9.979 9.979 0 0 1 4.42 4.115l6.862 12.165a21.6 21.6 0 0 0 6.976 7.455v0a21.602 21.602 0 0 0 21.036 1.477l1.111-.523a23.798 23.798 0 0 0 8.396-6.599l3.852-4.779a21.895 21.895 0 0 0 4.323-8.976l.348-1.56c.356-1.599.414-3.25.171-4.87l-.367-2.451a8.989 8.989 0 0 0-5.551-7.012v0c-5.278-2.111-11.165 1.145-12.182 6.737l-.392 2.16c-1.306 7.182 4.754 13.559 11.993 12.62l8.076-1.047a16.728 16.728 0 0 0 7.774-3.123l1.83-1.348a25.522 25.522 0 0 0 6.833-7.562l.13-.22A26.776 26.776 0 0 0 119 34.68V26" stroke="#fff" stroke-width="3" stroke-linecap="round"/><path d="M78.5 13.5 86 18m7.5 4.5L86 18m0 0 16.5-16.5M79 37l-7.5-4.5M64 28l7.5 4.5m0 0L50 54m0 0-4.722 1.453A2.519 2.519 0 0 0 43.5 57.86v0c0 1.611 1.512 2.804 3.085 2.454v0a2.559 2.559 0 0 0 1.87-1.68L50 54Z" stroke="#67BCAB" stroke-width="3" stroke-linecap="round"/></svg>