<svg width="68" height="1250" viewBox="0 0 68 1250" fill="none" xmlns="http://www.w3.org/2000/svg">
<path d="M67.0607 1236.94C67.6464 1237.53 67.6464 1238.47 67.0607 1239.06L57.5147 1248.61C56.9289 1249.19 55.9792 1249.19 55.3934 1248.61C54.8076 1248.02 54.8076 1247.07 55.3934 1246.49L63.8787 1238L55.3934 1229.51C54.8076 1228.93 54.8076 1227.98 55.3934 1227.39C55.9792 1226.81 56.9289 1226.81 57.5147 1227.39L67.0607 1236.94ZM66 1239.5H52V1236.5H66V1239.5ZM52 0.5H67V3.5H52V0.5ZM0.5 1188V1184.22H3.5V1188H0.5ZM0.5 1184.22V83.6503H3.5V1184.22H0.5ZM0.5 83.6503V52H3.5V83.6503H0.5ZM52 3.5C25.2142 3.5 3.5 25.2142 3.5 52H0.5C0.5 23.5574 23.5573 0.5 52 0.5V3.5ZM52 1239.5C23.5573 1239.5 0.5 1216.44 0.5 1188H3.5C3.5 1214.79 25.2142 1236.5 52 1236.5V1239.5Z" fill="white"/>
</svg>
