<svg width="69" height="1278" viewBox="0 0 69 1278" fill="none" xmlns="http://www.w3.org/2000/svg">
<path d="M68.0607 10.9393C68.6464 11.5251 68.6464 12.4749 68.0607 13.0607L58.5147 22.6066C57.9289 23.1924 56.9792 23.1924 56.3934 22.6066C55.8076 22.0209 55.8076 21.071 56.3934 20.4852L64.8787 12L56.3934 3.51477C55.8076 2.92896 55.8076 1.97913 56.3934 1.39343C56.9792 0.807617 57.9289 0.807617 58.5147 1.39343L68.0607 10.9393ZM66 1277.5H62.5V1274.5H66V1277.5ZM55.5 1277.5H52V1274.5H55.5V1277.5ZM52 1277.5C51.031 1277.5 50.0682 1277.47 49.1121 1277.42L49.2778 1274.42C50.1787 1274.47 51.0863 1274.5 52 1274.5V1277.5ZM43.371 1276.78C41.4555 1276.46 39.5757 1276.03 37.738 1275.5L38.5672 1272.62C40.297 1273.11 42.0666 1273.52 43.8701 1273.82L43.371 1276.78ZM32.286 1273.59C30.4987 1272.85 28.7622 1272.01 27.0833 1271.08L28.5368 1268.46C30.1177 1269.33 31.7526 1270.12 33.4352 1270.82L32.286 1273.59ZM22.1954 1268C20.6234 1266.89 19.1168 1265.68 17.6827 1264.4L19.6824 1262.16C21.0336 1263.37 22.4528 1264.51 23.9335 1265.56L22.1954 1268ZM13.5992 1260.32C12.3167 1258.88 11.1133 1257.38 9.99583 1255.8L12.441 1254.07C13.4936 1255.55 14.6272 1256.97 15.8355 1258.32L13.5992 1260.32ZM6.91837 1250.92C5.9885 1249.24 5.14962 1247.5 4.40844 1245.71L7.17961 1244.56C7.87735 1246.25 8.66714 1247.88 9.54274 1249.46L6.91837 1250.92ZM2.50074 1240.26C1.97218 1238.42 1.5432 1236.54 1.21999 1234.63L4.17817 1234.13C4.48248 1235.93 4.88634 1237.7 5.38386 1239.43L2.50074 1240.26ZM0.579643 1228.89C0.526779 1227.93 0.5 1226.97 0.5 1226H3.5C3.5 1226.91 3.52525 1227.82 3.57507 1228.72L0.579643 1228.89ZM0.5 1226V1224.75H3.5V1226H0.5ZM0.5 1222.25V1221H3.5V1222.25H0.5ZM0.5 1221V1218.01H3.5V1221H0.5ZM0.5 1212.02V1206.03H3.5V1212.02H0.5ZM0.5 1200.05V1194.06H3.5V1200.05H0.5ZM0.5 1188.07V1182.09H3.5V1188.07H0.5ZM0.5 1176.1V1170.11H3.5V1176.1H0.5ZM0.5 1164.13V1158.14H3.5V1164.13H0.5ZM0.5 1152.15V1146.17H3.5V1152.15H0.5ZM0.5 1140.18V1134.19H3.5V1140.18H0.5ZM0.5 1128.21V1122.22H3.5V1128.21H0.5ZM0.5 1116.23V1110.25H3.5V1116.23H0.5ZM0.5 1104.26V1098.27H3.5V1104.26H0.5ZM0.5 1092.29V1086.3H3.5V1092.29H0.5ZM0.5 1080.31V1074.33H3.5V1080.31H0.5ZM0.5 1068.34V1062.35H3.5V1068.34H0.5ZM0.5 1056.37V1050.38H3.5V1056.37H0.5ZM0.5 1044.39V1038.41H3.5V1044.39H0.5ZM0.5 1032.42V1026.43H3.5V1032.42H0.5ZM0.5 1020.45V1014.46H3.5V1020.45H0.5ZM0.5 1008.47V1002.49H3.5V1008.47H0.5ZM0.5 996.499V990.512H3.5V996.499H0.5ZM0.5 984.525V978.539H3.5V984.525H0.5ZM0.5 972.552V966.565H3.5V972.552H0.5ZM0.5 960.579V954.592H3.5V960.579H0.5ZM0.5 948.605V942.619H3.5V948.605H0.5ZM0.5 936.632V930.645H3.5V936.632H0.5ZM0.5 924.658V918.672H3.5V924.658H0.5ZM0.5 912.685V906.698H3.5V912.685H0.5ZM0.5 900.712V894.725H3.5V900.712H0.5ZM0.5 888.738V882.752H3.5V888.738H0.5ZM0.5 876.765V870.778H3.5V876.765H0.5ZM0.5 864.792V858.805H3.5V864.792H0.5ZM0.5 852.818V846.831H3.5V852.818H0.5ZM0.5 840.845V834.858H3.5V840.845H0.5ZM0.5 828.871V822.885H3.5V828.871H0.5ZM0.5 816.898V810.911H3.5V816.898H0.5ZM0.5 804.925V798.938H3.5V804.925H0.5ZM0.5 792.951V786.964H3.5V792.951H0.5ZM0.5 780.978V774.991H3.5V780.978H0.5ZM0.5 769.004V763.018H3.5V769.004H0.5ZM0.5 757.031V751.044H3.5V757.031H0.5ZM0.5 745.058V739.071H3.5V745.058H0.5ZM0.5 733.084V727.098H3.5V733.084H0.5ZM0.5 721.111V715.124H3.5V721.111H0.5ZM0.5 709.137V703.151H3.5V709.137H0.5ZM0.5 697.164V691.177H3.5V697.164H0.5ZM0.5 685.191V679.204H3.5V685.191H0.5ZM0.5 673.217V667.231H3.5V673.217H0.5ZM0.5 661.244V655.257H3.5V661.244H0.5ZM0.5 649.271V643.284H3.5V649.271H0.5ZM0.5 637.297V631.31H3.5V637.297H0.5ZM0.5 625.324V619.337H3.5V625.324H0.5ZM0.5 613.35V607.364H3.5V613.35H0.5ZM0.5 601.377V595.39H3.5V601.377H0.5ZM0.5 589.404V583.417H3.5V589.404H0.5ZM0.5 577.43V571.443H3.5V577.43H0.5ZM0.5 565.457V559.47H3.5V565.457H0.5ZM0.5 553.483V547.497H3.5V553.483H0.5ZM0.5 541.51V535.523H3.5V541.51H0.5ZM0.5 529.537V523.55H3.5V529.537H0.5ZM0.5 517.563V511.577H3.5V517.563H0.5ZM0.5 505.59V499.603H3.5V505.59H0.5ZM0.5 493.616V487.63H3.5V493.616H0.5ZM0.5 481.643V475.656H3.5V481.643H0.5ZM0.5 469.67V463.683H3.5V469.67H0.5ZM0.5 457.696V451.71H3.5V457.696H0.5ZM0.5 445.723V439.736H3.5V445.723H0.5ZM0.5 433.75V427.763H3.5V433.75H0.5ZM0.5 421.776V415.789H3.5V421.776H0.5ZM0.5 409.803V403.816H3.5V409.803H0.5ZM0.5 397.829V391.843H3.5V397.829H0.5ZM0.5 385.856V379.869H3.5V385.856H0.5ZM0.5 373.883V367.896H3.5V373.883H0.5ZM0.5 361.909V355.922H3.5V361.909H0.5ZM0.5 349.936V343.949H3.5V349.936H0.5ZM0.5 337.962V331.976H3.5V337.962H0.5ZM0.5 325.989V320.002H3.5V325.989H0.5ZM0.5 314.016V308.029H3.5V314.016H0.5ZM0.5 302.042V296.056H3.5V302.042H0.5ZM0.5 290.069V284.082H3.5V290.069H0.5ZM0.5 278.095V272.109H3.5V278.095H0.5ZM0.5 266.122V260.135H3.5V266.122H0.5ZM0.5 254.149V248.162H3.5V254.149H0.5ZM0.5 242.175V236.189H3.5V242.175H0.5ZM0.5 230.202V224.215H3.5V230.202H0.5ZM0.5 218.229V212.242H3.5V218.229H0.5ZM0.5 206.255V200.268H3.5V206.255H0.5ZM0.5 194.282V188.295H3.5V194.282H0.5ZM0.5 182.308V176.322H3.5V182.308H0.5ZM0.5 170.335V164.348H3.5V170.335H0.5ZM0.5 158.362V152.375H3.5V158.362H0.5ZM0.5 146.388V140.401H3.5V146.388H0.5ZM0.5 134.415V128.428H3.5V134.415H0.5ZM0.5 122.441V116.455H3.5V122.441H0.5ZM0.5 110.468V104.481H3.5V110.468H0.5ZM0.5 98.4946V95.5H3.5V98.4946H0.5ZM0.5 95.5V92.7084H3.5V95.5H0.5ZM0.5 87.125V81.5416H3.5V87.125H0.5ZM0.5 75.9584V70.375H3.5V75.9584H0.5ZM0.5 64.7916V62H3.5V64.7916H0.5ZM0.5 62C0.5 61.031 0.526779 60.0681 0.579643 59.1121L3.57507 59.2777C3.52525 60.1787 3.5 61.0863 3.5 62H0.5ZM1.21999 53.371C1.5432 51.4554 1.97218 49.5757 2.50075 47.738L5.38386 48.5673C4.88634 50.297 4.48249 52.0667 4.17817 53.8701L1.21999 53.371ZM4.40844 42.286C5.14962 40.4987 5.9885 38.7622 6.91837 37.0833L9.54274 38.5367C8.66714 40.1177 7.87735 41.7526 7.17962 43.4352L4.40844 42.286ZM9.99583 32.1954C11.1133 30.6234 12.3167 29.1168 13.5992 27.6826L15.8355 29.6825C14.6272 31.0336 13.4936 32.4528 12.441 33.9335L9.99583 32.1954ZM17.6827 23.5992C19.1168 22.3167 20.6234 21.1133 22.1954 19.9958L23.9335 22.441C22.4528 23.4935 21.0336 24.6272 19.6824 25.8354L17.6827 23.5992ZM27.0833 16.9183C28.7622 15.9885 30.4987 15.1497 32.286 14.4084L33.4352 17.1796C31.7526 17.8773 30.1177 18.6671 28.5368 19.5427L27.0833 16.9183ZM37.738 12.5007C39.5757 11.9722 41.4555 11.5432 43.371 11.22L43.8701 14.1782C42.0666 14.4825 40.297 14.8864 38.5672 15.3839L37.738 12.5007ZM49.1121 10.5796C50.0682 10.5267 51.031 10.5 52 10.5V13.5C51.0863 13.5 50.1787 13.5253 49.2778 13.5751L49.1121 10.5796ZM52 10.5H55.75V13.5H52V10.5ZM63.25 10.5H67V13.5H63.25V10.5Z" fill="white"/>
</svg>
