<svg version="1.2" xmlns="http://www.w3.org/2000/svg" viewBox="0 0 69 1278" width="69" height="1278">
	<title>Vector 7</title>
	<style>
		.s0 { fill: #ffffff } 
	</style>
	<path class="s0" d="m1.1 1267.1c-0.6-0.6-0.6-1.5 0-2.1l9.5-9.5c0.6-0.6 1.5-0.6 2.1 0 0.6 0.6 0.6 1.5 0 2.1l-8.4 8.5 8.4 8.4c0.6 0.6 0.6 1.5 0 2.1-0.6 0.6-1.5 0.6-2.1 0zm2.1-1260.1h3.4v3h-3.4zm10.4 0h3.5v3h-3.5zm3.5 0q1.4 0 2.9 0.1l-0.2 2.9q-1.3 0-2.7 0zm8.6 0.7q2.8 0.5 5.6 1.2l-0.8 2.9q-2.6-0.7-5.3-1.2zm11 3.2q2.7 1.1 5.2 2.5l-1.5 2.6q-2.3-1.3-4.8-2.4zm10 5.6q2.3 1.7 4.5 3.6l-2 2.2q-2-1.8-4.2-3.4zm8.5 7.7q1.9 2.1 3.6 4.5l-2.4 1.7q-1.6-2.2-3.4-4.2zm6.6 9.3q1.4 2.5 2.5 5.2l-2.7 1.1q-1.1-2.5-2.4-4.8zm4.4 10.6q0.8 2.7 1.3 5.6l-2.9 0.5q-0.5-2.7-1.2-5.3zm1.9 11.3q0.1 1.4 0.1 2.9h-3q0-1.4-0.1-2.7zm0.1 2.9v1.2h-3v-1.2zm0 3.7v1.2h-3v-1.2zm0 1.2v3h-3v-3zm0 9v5.9h-3v-5.9zm0 11.9v5.9h-3v-5.9zm0 11.9v5.9h-2.9v-5.9zm0 11.9v6h-3v-6zm0 11.9v6h-3v-6zm0 11.9v6h-3v-6zm0 11.9v6h-3v-6zm0 11.9v6h-3v-6zm0 12v5.9h-2.9v-5.9zm0 11.9v5.9h-3v-5.9zm0 11.9v5.9h-3v-5.9zm0 11.9v6h-3v-6zm0 11.9v6h-3v-6zm0 11.9v6h-3v-6zm0 11.9v6h-3v-6zm0 11.9v6h-2.9v-6zm0 12v5.9h-3v-5.9zm0 11.9v5.9h-3v-5.9zm0 11.9v5.9h-3v-5.9zm0 11.9v6h-3v-6zm0 11.9v6h-3v-6zm0 11.9v6h-2.9v-6zm0 11.9v6h-3v-6zm0 11.9v6h-3v-6zm0 12v5.9h-3v-5.9zm0 11.9v5.9h-3v-5.9zm0 11.9v5.9h-3v-5.9zm0 11.9v6h-3v-6zm0 11.9v6h-2.9v-6zm0 11.9v6h-3v-6zm0 11.9v6h-3v-6zm0 11.9v6h-3v-6zm0 12v5.9h-3v-5.9zm0 11.9v5.9h-3v-5.9zm0 11.9v5.9h-2.9v-5.9zm0 11.9v6h-3v-6zm0 11.9v6h-3v-6zm0 11.9v6h-3v-6zm0 11.9v6h-3v-6zm0 11.9v6h-3v-6zm0 12v5.9h-3v-5.9zm0 11.9v5.9h-2.9v-5.9zm0 11.9v5.9h-3v-5.9zm0 11.9v6h-3v-6zm0 11.9v6h-3v-6zm0 11.9v6h-3v-6zm0 11.9v6h-3v-6zm0 11.9v6h-3v-6zm0 12v5.9h-2.9v-5.9zm0 11.9v5.9h-3v-5.9zm0 11.9v5.9h-3v-5.9zm0 11.9v6h-3v-6zm0 11.9v6h-3v-6zm0 11.9v6h-3v-6zm0 11.9v6h-2.9v-6zm0 11.9v6h-3v-6zm0 12v5.9h-3v-5.9zm0 11.9v5.9h-3v-5.9zm0 11.9v5.9h-3v-5.9zm0 11.9v5.9h-3v-5.9zm0 11.9v6h-3v-6zm0 11.9v6h-2.9v-6zm0 11.9v6h-3v-6zm0 11.9v6h-3v-6zm0 12v5.9h-3v-5.9zm0 11.9v5.9h-3v-5.9zm0 11.9v5.9h-3v-5.9zm0 11.9v5.9h-2.9v-5.9zm0 11.9v6h-3v-6zm0 11.9v6h-3v-6zm0 11.9v6h-3v-6zm0 11.9v6h-3v-6zm0 12v5.9h-3v-5.9zm0 11.9v5.9h-3v-5.9zm0 11.9v5.9h-2.9v-5.9zm0 11.9v5.9h-3v-5.9zm0 11.9v6h-3v-6zm0 11.9v6h-3v-6zm0 11.9v6h-3v-6zm0 11.9v6h-3v-6zm0 12v5.9h-2.9v-5.9zm0 11.9v5.9h-3v-5.9zm0 11.9v5.9h-3v-5.9zm0 11.9v5.9h-3v-5.9zm0 11.9v6h-3v-6zm0 11.9v6h-3v-6zm0 11.9v6h-3v-6zm0 11.9v6h-2.9v-6zm0 12v5.9h-3v-5.9zm0 11.9v5.9h-3v-5.9zm0 11.9v5.9h-3v-5.9zm0 11.9v6h-3v-6zm0 11.9v6h-3v-6zm0 11.9v3h-2.9v-3zm0 3v2.8h-3v-2.8zm0 8.3v5.6h-3v-5.6zm0 11.1v5.6h-3v-5.6zm0 11.1v2.8h-3v-2.8zm0 2.8q0 1.5-0.1 2.9l-2.9-0.2q0-1.3 0-2.7zm-0.7 8.6q-0.5 2.9-1.3 5.6l-2.8-0.8q0.7-2.6 1.2-5.3zm-3.2 11q-1.1 2.7-2.5 5.2l-2.6-1.4q1.3-2.4 2.3-4.9zm-5.5 10q-1.7 2.4-3.6 4.5l-2.2-2q1.8-2 3.3-4.2zm-7.6 8.6q-2.1 1.9-4.5 3.5l-1.7-2.4q2.2-1.6 4.2-3.4zm-9.3 6.7q-2.5 1.4-5.2 2.5l-1.2-2.8q2.6-1 4.9-2.3zm-10.6 4.4q-2.7 0.8-5.6 1.2l-0.5-2.9q2.7-0.5 5.3-1.2zm-11.3 1.9q-1.5 0.1-2.9 0.1v-3q1.4 0 2.7-0.1zm-2.9 0.1h-3.7v-3h3.7zm-11.2 0h-3.7v-3h3.7z"/>
	<path fill-rule="evenodd" class="s0" d="m18 9c0-5-4-9-9-9-5 0-9 4-9 9 0 5 4 9 9 9 5 0 9-4 9-9z"/>
</svg>