<svg width="121" height="119" viewBox="0 0 121 119" fill="none" xmlns="http://www.w3.org/2000/svg">
<path d="M61.9506 70.9962V69.0216H61.9935C62.7853 69.0216 63.4411 68.4087 63.4888 67.6169C63.9133 61.0014 64.6145 55.6737 65.5708 51.7173H68.7307C69.5606 51.7173 70.2331 51.0448 70.2331 50.2149V39.8433H73.8723C74.2157 39.8433 74.5496 39.724 74.8191 39.5046L90.7903 26.5002C90.7903 26.5002 90.7998 26.4835 90.8118 26.4739C90.9453 26.3618 91.0598 26.2211 91.1504 26.0637C91.1623 26.0423 91.1719 26.0256 91.1766 26.0041C91.253 25.8539 91.3054 25.6917 91.3221 25.52C91.3269 25.4938 91.3269 25.4723 91.334 25.4437C91.3388 25.4055 91.346 25.3674 91.346 25.3316V22.3506H109.454V25.8396C109.454 26.6695 110.126 27.342 110.956 27.342H119.418C120.248 27.342 120.92 26.6695 120.92 25.8396L120.908 1.50005C120.908 0.677285 120.236 0.00476703 119.406 0.00476703H110.944C110.115 0.00476703 109.442 0.677299 109.442 1.50722V4.99621H91.334L91.3388 2.03665C91.3388 1.20673 90.6663 0.534198 89.8363 0.534198H31.0695C30.2396 0.534198 29.5671 1.20673 29.5671 2.03665V4.99144H11.4329V1.50243C11.4329 0.672514 10.7603 0 9.93041 0L1.50245 0.00476703C0.672532 0.00476703 0 0.677299 0 1.50722V25.8467C0 26.6766 0.672532 27.3492 1.50245 27.3492H9.93041C10.7603 27.3492 11.4329 26.6766 11.4329 25.8467V22.3577H29.5671V25.3388C29.5671 25.3769 29.579 25.4151 29.579 25.4508C29.579 25.4771 29.5838 25.4985 29.5909 25.5272C29.6124 25.6989 29.6601 25.861 29.7364 26.0113C29.7483 26.0327 29.7579 26.0494 29.7626 26.0709C29.8485 26.2259 29.9629 26.3619 30.0965 26.4811C30.1084 26.4906 30.1084 26.4978 30.118 26.5073L46.0891 39.5118C46.3586 39.7264 46.6925 39.8504 47.0359 39.8504H50.6752V50.222C50.6752 51.0519 51.3477 51.7245 52.1776 51.7245H55.316C56.2795 55.6427 56.9902 60.9704 57.4146 67.6241C57.4695 68.4159 58.1206 69.0287 58.91 69.0287H58.9529V71.0034M8.43275 24.3419H3.00727V3.00012H8.43751L8.43275 24.3419ZM29.5694 19.3505H11.4352V7.98201H29.5694V19.3505ZM60.5984 66.0167H60.3122C59.8877 60.1453 59.2581 55.44 58.3972 51.7101H62.4943C61.6501 55.4567 61.0134 60.2407 60.6008 66.0167H60.5984ZM67.2354 48.7077H53.6729V39.8313H67.2354V48.7077ZM73.3405 36.8336H47.5749L35.2859 26.8269H85.6224L73.3405 36.8336ZM88.2457 21.6065H32.7913V3.43415H88.2457V21.6065ZM109.444 19.3505H91.3364V7.98201H109.444V19.3505ZM117.906 24.3395H112.442V2.99773H117.906V24.3395Z" fill="white"/>
<path d="M89.1115 97.2648H31.9377" stroke="#B0B3DA" stroke-width="1.504" stroke-linecap="round" stroke-linejoin="round" stroke-dasharray="1.13 3.38"/>
<path d="M59.8518 77.9202L59.8804 78.9242" stroke="#B0B3DA" stroke-width="1.504" stroke-linecap="round" stroke-linejoin="round"/>
<path d="M60.0403 84.399L60.8201 110.854" stroke="#B0B3DA" stroke-width="1.504" stroke-linecap="round" stroke-linejoin="round" stroke-dasharray="1.02 3.06"/>
<path d="M60.8984 113.593L60.9294 114.599" stroke="#B0B3DA" stroke-width="1.504" stroke-linecap="round" stroke-linejoin="round"/>
<path d="M59.0271 71.0053C59.0271 72.8178 59.1701 77.8331 55.7956 79.8554L29.8749 94.8488C28.4321 95.6215 27.5784 97.0619 27.5784 98.7146C27.5784 100.324 28.3749 101.734 29.8082 102.59L55.8052 117.576C57.2981 118.432 58.9078 118.859 60.5176 118.859C62.1273 118.859 63.7466 118.432 65.2467 117.567L91.2675 102.564C92.6674 101.724 93.4639 100.317 93.4639 98.7074C93.4639 97.0548 92.6078 95.6143 91.2341 94.8846L67.9296 81.4246C66.8135 80.7783 65.3802 81.1647 64.7435 82.2808C64.0972 83.3969 64.4835 84.8301 65.5996 85.4669L88.5679 98.7241L62.9239 113.508C61.3714 114.388 59.671 114.388 58.128 113.517L32.4744 98.7241L58.1185 83.8977C61.0876 82.2045 62.0248 74.4538 62.0248 70.9982" fill="white"/>
</svg>
