<svg width="1278" height="69" viewBox="0 0 1278 69" fill="none" xmlns="http://www.w3.org/2000/svg">
<path d="M10.9393 68.0607C11.5251 68.6464 12.4749 68.6464 13.0607 68.0607L22.6066 58.5147C23.1924 57.9289 23.1924 56.9792 22.6066 56.3934C22.0209 55.8076 21.071 55.8076 20.4852 56.3934L12 64.8787L3.51477 56.3934C2.92896 55.8076 1.97913 55.8076 1.39343 56.3934C0.807617 56.9792 0.807617 57.9289 1.39343 58.5147L10.9393 68.0607ZM1277.5 66V52H1274.5V66H1277.5ZM10.5 52V67H13.5V52H10.5ZM1226 0.5H1221V3.5H1226V0.5ZM1221 0.5H95.5V3.5H1221V0.5ZM95.5 0.5H62V3.5H95.5V0.5ZM13.5 52C13.5 25.2142 35.2142 3.5 62 3.5V0.5C33.5574 0.5 10.5 23.5573 10.5 52H13.5ZM1277.5 52C1277.5 23.5573 1254.44 0.5 1226 0.5V3.5C1252.79 3.5 1274.5 25.2142 1274.5 52H1277.5Z" fill="white"/>
</svg>
