<svg version="1.2" xmlns="http://www.w3.org/2000/svg" viewBox="0 0 1278 69" width="1278" height="69">
	<title>Vector 7</title>
	<style>
		.s0 { fill: #ffffff } 
	</style>
	<path fill-rule="evenodd" class="s0" d="m12.5 25c-6.9 0-12.5-5.6-12.5-12.5 0-6.9 5.6-12.5 12.5-12.5 6.9 0 12.5 5.6 12.5 12.5 0 6.9-5.6 12.5-12.5 12.5z"/>
	<path class="s0" d="m1267.1 1.2c-0.5-0.5-1.5-0.5-2.1 0l-9.4 9.5c-0.6 0.6-0.6 1.5 0 2.1 0.6 0.6 1.5 0.6 2.1 0l8.4-8.4 8.4 8.4c0.6 0.6 1.5 0.6 2.1 0 0.6-0.6 0.6-1.5 0-2.1zm-1255.1 2v3.5h2.9v-3.5zm0 10.4v3.5h3v-3.5zm0 3.5q0 1.5 0.1 2.9l3-0.2q-0.1-1.3-0.1-2.7zm0.7 8.6q0.5 2.8 1.3 5.6l2.8-0.9q-0.7-2.5-1.2-5.2zm3.2 11q1.1 2.6 2.5 5.1l2.6-1.4q-1.3-2.4-2.4-4.9zm5.6 10q1.6 2.4 3.5 4.5l2.3-2q-1.8-2-3.4-4.2zm7.6 8.5q2.1 1.9 4.5 3.6l1.7-2.4q-2.2-1.6-4.2-3.4zm9.3 6.6q2.5 1.4 5.2 2.5l1.1-2.7q-2.5-1.1-4.9-2.4zm10.6 4.4q2.7 0.8 5.6 1.3l0.5-3q-2.7-0.4-5.3-1.2zm11.3 1.9q1.4 0.1 2.9 0.1v-2.9q-1.4 0-2.7-0.1zm2.8 0.1h1.3v-3h-1.3zm3.7 0h1.3v-3h-1.3zm1.3 0h2.9v-3h-2.9zm8.9 0h5.9v-2.9h-5.9zm11.8 0h6v-3h-6zm11.9 0h5.9v-3h-5.9zm11.9 0h5.9v-3h-5.9zm11.8 0h6v-2.9h-6zm11.9 0h5.9v-3h-5.9zm11.9 0h5.9v-3h-5.9zm11.8 0h6v-2.9h-6zm11.9 0h5.9v-3h-5.9zm11.9 0h5.9v-3h-5.9zm11.8 0h6v-3h-6zm11.9 0h5.9v-2.9h-5.9zm11.9 0h5.9v-3h-5.9zm11.8 0h6v-3h-6zm11.9 0h5.9v-3h-5.9zm11.9 0h5.9v-2.9h-5.9zm11.8 0h6v-3h-6zm11.9 0h5.9v-3h-5.9zm11.9 0h5.9v-3h-5.9zm11.8 0h6v-2.9h-6zm11.9 0h5.9v-3h-5.9zm11.9 0h5.9v-3h-5.9zm11.8 0h6v-2.9h-6zm11.9 0h5.9v-3h-5.9zm11.9 0h5.9v-3h-5.9zm11.8 0h6v-3h-6zm11.9 0h5.9v-2.9h-5.9zm11.9 0h5.9v-3h-5.9zm11.8 0h5.9v-3h-5.9zm11.9 0h5.9v-3h-5.9zm11.8 0h6v-2.9h-6zm11.9 0h5.9v-3h-5.9zm11.9 0h5.9v-3h-5.9zm11.8 0h6v-2.9h-6zm11.9 0h5.9v-3h-5.9zm11.9 0h5.9v-3h-5.9zm11.8 0h6v-3h-6zm11.9 0h5.9v-2.9h-5.9zm11.9 0h5.9v-3h-5.9zm11.8 0h6v-3h-6zm11.9 0h5.9v-3h-5.9zm11.9 0h5.9v-2.9h-5.9zm11.8 0h6v-3h-6zm11.9 0h5.9v-3h-5.9zm11.9 0h5.9v-2.9h-5.9zm11.8 0h6v-3h-6zm11.9 0h5.9v-3h-5.9zm11.9 0h5.9v-3h-5.9zm11.8 0h6v-2.9h-6zm11.9 0h5.9v-3h-5.9zm11.9 0h5.9v-3h-5.9zm11.8 0h6v-3h-6zm11.9 0h5.9v-2.9h-5.9zm11.9 0h5.9v-3h-5.9zm11.8 0h6v-3h-6zm11.9 0h5.9v-3h-5.9zm11.9 0h5.9v-2.9h-5.9zm11.8 0h5.9v-3h-5.9zm11.9 0h5.9v-3h-5.9zm11.8 0h6v-2.9h-6zm11.9 0h5.9v-3h-5.9zm11.9 0h5.9v-3h-5.9zm11.8 0h6v-3h-6zm11.9 0h5.9v-2.9h-5.9zm11.9 0h5.9v-3h-5.9zm11.8 0h6v-3h-6zm11.9 0h5.9v-3h-5.9zm11.9 0h5.9v-2.9h-5.9zm11.8 0h6v-3h-6zm11.9 0h5.9v-3h-5.9zm11.9 0h5.9v-2.9h-5.9zm11.8 0h6v-3h-6zm11.9 0h5.9v-3h-5.9zm11.9 0h5.9v-3h-5.9zm11.8 0h6v-2.9h-6zm11.9 0h5.9v-3h-5.9zm11.9 0h5.9v-3h-5.9zm11.8 0h6v-3h-6zm11.9 0h5.9v-2.9h-5.9zm11.9 0h5.9v-3h-5.9zm11.8 0h6v-3h-6zm11.9 0h5.9v-2.9h-5.9zm11.9 0h5.9v-3h-5.9zm11.8 0h6v-3h-6zm11.9 0h5.9v-3h-5.9zm11.9 0h5.9v-2.9h-5.9zm11.8 0h6v-3h-6zm11.9 0h5.9v-3h-5.9zm11.8 0h6v-3h-6zm11.9 0h5.9v-2.9h-5.9zm11.9 0h5.9v-3h-5.9zm11.8 0h6v-3h-6zm11.9 0h5.9v-3h-5.9zm11.9 0h2.9v-2.9h-2.9zm2.9 0h2.8v-3h-2.8zm8.3 0h5.6v-3h-5.6zm11.1 0h5.5v-2.9h-5.5zm11.1 0h2.7v-3h-2.7zm2.7 0q1.5 0 2.9-0.1l-0.2-3q-1.3 0.1-2.7 0.1zm8.6-0.7q2.8-0.5 5.6-1.3l-0.8-2.8q-2.6 0.7-5.3 1.2zm11-3.2q2.6-1.1 5.1-2.5l-1.4-2.6q-2.4 1.3-4.9 2.4zm10-5.6q2.4-1.6 4.5-3.5l-2-2.3q-2 1.8-4.2 3.4zm8.5-7.6q2-2.2 3.6-4.5l-2.4-1.7q-1.6 2.2-3.4 4.2zm6.6-9.3q1.4-2.5 2.5-5.2l-2.7-1.1q-1.1 2.5-2.4 4.8zm4.4-10.5q0.8-2.7 1.3-5.6l-2.9-0.5q-0.5 2.7-1.2 5.3zm1.9-11.3q0.1-1.4 0.1-2.9h-3q0 1.4-0.1 2.7zm0.1-2.8v-3.7h-3v3.7zm0-11.2v-3.7h-3v3.7z"/>
</svg>