<svg version="1.2" xmlns="http://www.w3.org/2000/svg" viewBox="0 0 303 77" width="303" height="77">
	<title>Icons copy 2</title>
	<style>
		.s0 { fill: #ffffff } 
		.s1 { fill: none;stroke: #adb6f9;stroke-linecap: round;stroke-width: 2;stroke-dasharray: 4 } 
		.s2 { fill: none;stroke: #ffffff;stroke-width: 2.5 } 
		.s3 { fill: none;stroke: #adb6f9;stroke-width: 2.5;stroke-dasharray: 4 } 
	</style>
	<path class="s0" d="m5.7 74.8q0 0.1 0.1 0.1 0.1 0.3 0.4 0.5 0 0.1 0.1 0.1c0.1 0 0.1 0.1 0.2 0.2q0.2 0 0.4 0 0.2 0 0.4 0l20.2-6.5q0.1 0 0.1 0 0.1-0.1 0.2-0.1 0.1-0.1 0.2-0.2 0 0 0.1 0l51.6-51.6c0.2-0.3 0.4-0.6 0.4-0.9 0-8.3-6.8-15.1-15.1-15.1q-0.5 0-0.9 0.4l-51.6 51.6q0 0 0 0.1-0.2 0.1-0.3 0.4l-6.5 20.3q0 0 0 0.1 0 0.1 0 0.2 0 0.2 0 0.3 0 0.1 0 0.1zm59.8-71c6.5 0.3 11.8 5.5 12 12.1l-49.3 49.3c-1.2-6.1-6-10.9-12.1-12zm-51.2 51.7c6.2 0.5 11.1 5.4 11.6 11.6l-9.7 3c-0.4-2.5-2.4-4.5-5-5zm-3.8 12.1c1.8 0.2 3.2 1.6 3.3 3.3l-4.9 1.6z"/>
	<path class="s1" d="m1.9 75.5h78"/>
	<path class="s0" d="m136 35.9c4.9 0 13.4-0.9 13.5-4.2 0-3.3-8.5-4.2-13.5-4.2-5 0-13.5 1-13.5 4.2 0 3.4 8.5 4.2 13.5 4.2zm0-6.5c7 0 11.3 1.5 11.6 2.3-0.3 0.8-4.6 2.3-11.6 2.3-7.2 0-11.5-1.5-11.7-2.3 0.3-0.7 4.6-2.3 11.7-2.3z"/>
	<path class="s0" d="m193.7 30.8h-30.9c-1.4-5.4-14.5-8.3-26.8-8.3-13 0-26.6 3.2-26.9 9v0.1 0.1 13.6c0 5.9 13.9 9.2 26.9 9.2 12.3 0 25.4-3 26.8-8.3h30.9c0.6 0 1-0.4 1-0.8v-13.7c0-0.5-0.4-0.9-1-0.9zm-57.7-6.4c14.2 0 24.2 3.6 25 7 0 0.1-0.1 0.2-0.1 0.3v0.5c-1 3.3-11 6.8-24.9 6.8-14.7 0-25-3.9-25-7.4 0-3.4 10.3-7.2 25-7.2zm22.8 23.9v-3.3c0-0.5-0.4-0.9-1-0.9-0.5 0-0.9 0.4-0.9 0.9v4.3c-1 0.5-2.2 0.9-3.5 1.3v-5.7c0-0.5-0.4-0.9-1-0.9-0.5 0-0.9 0.4-0.9 0.9v6 0.2c-1.1 0.2-2.3 0.5-3.6 0.7v-4c0-0.6-0.4-0.9-1-0.9-0.5 0-0.9 0.3-0.9 0.9v4.3c-1.1 0.2-2.3 0.3-3.6 0.4v-5.6c0-0.6-0.4-1-0.9-1-0.6 0-1 0.4-1 1v5.7c-1.2 0.1-2.4 0.1-3.6 0.1v-3.6c0-0.6-0.4-0.9-0.9-0.9-0.6 0-1 0.3-1 0.9v3.6c-1.2 0-2.4-0.1-3.6-0.1v-5.7c0-0.6-0.4-1-0.9-1-0.6 0-0.9 0.4-0.9 1v5.6c-1.3-0.1-2.6-0.3-3.7-0.4v-4.3c0-0.6-0.3-0.9-0.9-0.9-0.6 0-0.9 0.3-0.9 0.9v4c-1.3-0.2-2.5-0.5-3.7-0.7v-0.2-6c0-0.5-0.3-0.9-0.9-0.9-0.5 0-0.9 0.4-0.9 0.9v5.7c-1.4-0.4-2.6-0.8-3.6-1.3v-4.3c0-0.5-0.4-0.9-1-0.9-0.5 0-0.9 0.4-0.9 0.9v3.2c-1.4-1-2.1-1.9-2.1-2.8v-10.2c4.1 3.7 14.8 5.6 25 5.6 10.1 0 20.6-1.9 24.9-5.6v10.1c0 0.2 0 0.3 0.1 0.4-0.2 0.9-0.9 1.7-2.2 2.6zm30.6-3.8v-3.7c0-0.5-0.3-0.9-0.9-0.9-0.5 0-0.9 0.4-0.9 0.9v3.7h-3.6v-5.2c0-0.5-0.4-0.9-1-0.9-0.5 0-0.9 0.4-0.9 0.9v5.2h-3.6v-3.7c0-0.5-0.4-0.9-1-0.9-0.5 0-0.9 0.4-0.9 0.9v3.7h-3.6v-5.2c0-0.5-0.4-0.9-0.9-0.9-0.6 0-1 0.4-1 0.9v5.2h-3.6v-3.7c0-0.5-0.4-0.9-0.9-0.9-0.6 0-1 0.4-1 0.9v3.7h-2.8v-11.9h30v11.9z"/>
	<path class="s2" d="m300.4 26.5c-2.9-1.5-5.6-3.5-7.9-5.9-1.7-1.7-3.8-3-6.1-3.7-2.3-0.6-4.8-0.6-7.1 0-2.3 0.7-4.4 2-6 3.7-2.3 2.4-5 4.4-7.9 5.9h-0.1q0 0-0.1 0.1 0 0 0 0.1 0 0 0 0l5.4 37.1q0 0.1 0.1 0.1 0 0.1 0.1 0.1h24.2zm-0.1 1.6l0.2-1.4q0-0.1 0-0.1l1.1-0.6m-1.2 0.5m0 0q0 0 0.1 0.1l1.1-0.6m-1.2 0.5l-0.1 1.6m0 0l-5.2 35.7q0 0.1-0.1 0.1 0 0.1-0.1 0.1zm0.1-1.7m1.2-0.5q-0.2-0.4-0.7-0.6l0.8 1.5v-0.4q0-0.3-0.1-0.5z"/>
	<path class="s2" d="m220.3 36.4l1.2-0.3q-0.1-0.1 0-0.1 0-0.1 0.1-0.1c8.1-4.6 9.8-12 9.7-18.2-0.1-3.1-0.6-6-1.1-8.2q-0.1-0.7-0.3-1.2-0.1-0.8-0.2-1.4-0.1-0.4-0.2-0.6 0.1 0 0.1 0l15.7-5.1q0.1 0 0.2 0 0 0.1 0.1 0.2c1.2 4.4 4.5 7.7 7.3 9.9 2.9 2.2 5.5 3.4 5.6 3.5q0 0 0.1 0 0 0.1 0 0.1v60.7q0 0.1-0.1 0.1 0 0.1-0.1 0.1h-35.1q-0.1 0-0.2-0.1 0-0.1 0-0.2c1.6-4.8 2.5-9.9 2.8-15 0.1-3.7-1-9.8-2.1-14.9-1.2-5.1-2.3-9.4-2.3-9.5zm0 0c0 0.2 4.6 17 4.3 24m-4.3-24q-0.2-0.5 0-0.9m4.3 24.9l-3.6-25.6q-0.5 0.2-0.7 0.7m4.3 24.9c-0.2 5-1.1 9.9-2.7 14.7z"/>
	<path class="s3" d="m254.4 65.4v3.7h-1.3v0.6h-0.8v1.3h-4.3v-1.3h-4.2v1.3h-4.3v-1.3h-4.2v1.3h-4.3v-1.3h-0.6l-1.1-0.2q0.3-1.5 0.6-3l1.2 0.2q0.3-1.6 0.5-3.2l-1.2-0.1q0.2-1.5 0.3-3.1l1.2 0.1q0.1-0.8 0.1-1.6 0-0.9 0-1.9h-1.3c0-1.1-0.1-2.3-0.3-3.6l1.2-0.1q-0.2-1.8-0.5-3.7l-1.2 0.2q-0.3-1.8-0.6-3.5l1.2-0.3q-0.4-1.9-0.7-3.6l-1.3 0.3c-0.2-1.4-0.5-2.6-0.7-3.6l1.2-0.2q-0.1-0.6-0.2-1 0.4-0.3 0.8-0.7l-0.8-0.9q1.4-1.3 2.5-2.7l1 0.7q1.1-1.6 1.9-3.3l-1.1-0.5q0.7-1.7 1.2-3.5l1.2 0.3q0.4-1.8 0.6-3.7l-1.2-0.1q0.2-1.9 0.1-3.7h1.3q0-2-0.2-3.7l-1.3 0.1c-0.1-1.3-0.3-2.6-0.5-3.6l1.2-0.2q-0.1-0.4-0.2-0.7l1.6-0.6-0.4-1.2 5.2-1.9 0.4 1.2 1.5-0.5q0.2 0.4 0.3 0.7l1.2-0.5q0.9 1.8 2 3.3l-1 0.7c0.9 1.2 1.8 2.2 2.8 3l0.8-0.9c1.1 1 2.2 1.8 3 2.5l-0.7 1q0.6 0.4 1.1 0.7v1.2h1.3v3.7h-1.3v3.8h1.3v3.7h-1.3v3.8h1.3v3.8h-1.3v3.7h1.3v3.8h-1.3v3.7h1.3v3.8h-1.3v3.7h1.3v3.8h-1.3v3.8z"/>
</svg>