<svg width="1728" height="550" viewBox="0 0 1728 550" fill="none" xmlns="http://www.w3.org/2000/svg">
<g clip-path="url(#clip0_2324_28603)">
<rect width="1728" height="550" fill="black"/>
<rect width="1728" height="550" fill="black"/>
<path d="M424.951 247.996V246.022H424.994C425.785 246.022 426.441 245.409 426.489 244.617C426.913 238.001 427.614 232.674 428.571 228.717H431.731C432.561 228.717 433.233 228.045 433.233 227.215V216.843H436.872C437.216 216.843 437.55 216.724 437.819 216.505L453.79 203.5C453.79 203.5 453.8 203.483 453.812 203.474C453.945 203.362 454.06 203.221 454.15 203.064C454.162 203.042 454.172 203.026 454.177 203.004C454.253 202.854 454.305 202.692 454.322 202.52C454.327 202.494 454.327 202.472 454.334 202.444C454.339 202.406 454.346 202.367 454.346 202.332V199.351H472.454V202.84C472.454 203.669 473.126 204.342 473.956 204.342H482.418C483.248 204.342 483.92 203.669 483.92 202.84L483.908 178.5C483.908 177.677 483.236 177.005 482.406 177.005H473.944C473.115 177.005 472.442 177.677 472.442 178.507V181.996H454.334L454.339 179.037C454.339 178.207 453.666 177.534 452.836 177.534H394.069C393.24 177.534 392.567 178.207 392.567 179.037V181.991H374.433V178.502C374.433 177.673 373.76 177 372.93 177L364.502 177.005C363.673 177.005 363 177.677 363 178.507V202.847C363 203.677 363.673 204.349 364.502 204.349H372.93C373.76 204.349 374.433 203.677 374.433 202.847V199.358H392.567V202.339C392.567 202.377 392.579 202.415 392.579 202.451C392.579 202.477 392.584 202.499 392.591 202.527C392.612 202.699 392.66 202.861 392.736 203.011C392.748 203.033 392.758 203.049 392.763 203.071C392.848 203.226 392.963 203.362 393.096 203.481C393.108 203.491 393.108 203.498 393.118 203.507L409.089 216.512C409.359 216.726 409.693 216.85 410.036 216.85H413.675V227.222C413.675 228.052 414.348 228.724 415.178 228.724H418.316C419.279 232.643 419.99 237.97 420.415 244.624C420.47 245.416 421.121 246.029 421.91 246.029H421.953V248.003M371.433 201.342H366.007V180H371.438L371.433 201.342ZM392.569 196.35H374.435V184.982H392.569V196.35ZM423.598 243.017H423.312C422.888 237.145 422.258 232.44 421.397 228.71H425.494C424.65 232.457 424.013 237.241 423.601 243.017H423.598ZM430.235 225.708H416.673V216.831H430.235V225.708ZM436.341 213.834H410.575L398.286 203.827H448.622L436.341 213.834ZM451.246 198.607H395.791V180.434H451.246V198.607ZM472.444 196.35H454.336V184.982H472.444V196.35ZM480.906 201.34H475.442V179.998H480.906V201.34Z" fill="white"/>
<path d="M452.112 274.265H394.938" stroke="#B0B3DA" stroke-width="1.504" stroke-linecap="round" stroke-linejoin="round" stroke-dasharray="1.13 3.38"/>
<path d="M422.852 254.92L422.88 255.924" stroke="#B0B3DA" stroke-width="1.504" stroke-linecap="round" stroke-linejoin="round"/>
<path d="M423.04 261.399L423.82 287.854" stroke="#B0B3DA" stroke-width="1.504" stroke-linecap="round" stroke-linejoin="round" stroke-dasharray="1.02 3.06"/>
<path d="M423.898 290.593L423.929 291.599" stroke="#B0B3DA" stroke-width="1.504" stroke-linecap="round" stroke-linejoin="round"/>
<path d="M422.027 248.005C422.027 249.818 422.17 254.833 418.796 256.855L392.875 271.849C391.432 272.621 390.578 274.062 390.578 275.715C390.578 277.324 391.375 278.734 392.808 279.59L418.805 294.576C420.298 295.432 421.908 295.859 423.518 295.859C425.127 295.859 426.747 295.432 428.247 294.567L454.268 279.564C455.667 278.724 456.464 277.317 456.464 275.707C456.464 274.055 455.608 272.614 454.234 271.885L430.93 258.425C429.814 257.778 428.38 258.165 427.743 259.281C427.097 260.397 427.484 261.83 428.6 262.467L451.568 275.724L425.924 290.508C424.371 291.388 422.671 291.388 421.128 290.517L395.474 275.724L421.118 260.898C424.088 259.204 425.025 251.454 425.025 247.998" fill="white"/>
<path d="M389 370V355.6H391.17L396.15 365.8L401.13 355.6H403.3V370H401.05V360.77L396.63 370H395.67L391.26 360.77V370H389ZM409.129 370.3C408.349 370.3 407.689 370.153 407.149 369.86C406.609 369.56 406.199 369.163 405.919 368.67C405.646 368.177 405.509 367.633 405.509 367.04C405.509 366.52 405.596 366.053 405.769 365.64C405.942 365.22 406.209 364.86 406.569 364.56C406.929 364.253 407.396 364.003 407.969 363.81C408.402 363.67 408.909 363.543 409.489 363.43C410.076 363.317 410.709 363.213 411.389 363.12C412.076 363.02 412.792 362.913 413.539 362.8L412.679 363.29C412.686 362.543 412.519 361.993 412.179 361.64C411.839 361.287 411.266 361.11 410.459 361.11C409.972 361.11 409.502 361.223 409.049 361.45C408.596 361.677 408.279 362.067 408.099 362.62L405.899 361.93C406.166 361.017 406.672 360.283 407.419 359.73C408.172 359.177 409.186 358.9 410.459 358.9C411.419 358.9 412.262 359.057 412.989 359.37C413.722 359.683 414.266 360.197 414.619 360.91C414.812 361.29 414.929 361.68 414.969 362.08C415.009 362.473 415.029 362.903 415.029 363.37V370H412.919V367.66L413.269 368.04C412.782 368.82 412.212 369.393 411.559 369.76C410.912 370.12 410.102 370.3 409.129 370.3ZM409.609 368.38C410.156 368.38 410.622 368.283 411.009 368.09C411.396 367.897 411.702 367.66 411.929 367.38C412.162 367.1 412.319 366.837 412.399 366.59C412.526 366.283 412.596 365.933 412.609 365.54C412.629 365.14 412.639 364.817 412.639 364.57L413.379 364.79C412.652 364.903 412.029 365.003 411.509 365.09C410.989 365.177 410.542 365.26 410.169 365.34C409.796 365.413 409.466 365.497 409.179 365.59C408.899 365.69 408.662 365.807 408.469 365.94C408.276 366.073 408.126 366.227 408.019 366.4C407.919 366.573 407.869 366.777 407.869 367.01C407.869 367.277 407.936 367.513 408.069 367.72C408.202 367.92 408.396 368.08 408.649 368.2C408.909 368.32 409.229 368.38 409.609 368.38ZM425.102 370V364.8C425.102 364.46 425.079 364.083 425.032 363.67C424.986 363.257 424.876 362.86 424.702 362.48C424.536 362.093 424.282 361.777 423.942 361.53C423.609 361.283 423.156 361.16 422.582 361.16C422.276 361.16 421.972 361.21 421.672 361.31C421.372 361.41 421.099 361.583 420.852 361.83C420.612 362.07 420.419 362.403 420.272 362.83C420.126 363.25 420.052 363.79 420.052 364.45L418.622 363.84C418.622 362.92 418.799 362.087 419.152 361.34C419.512 360.593 420.039 360 420.732 359.56C421.426 359.113 422.279 358.89 423.292 358.89C424.092 358.89 424.752 359.023 425.272 359.29C425.792 359.557 426.206 359.897 426.512 360.31C426.819 360.723 427.046 361.163 427.192 361.63C427.339 362.097 427.432 362.54 427.472 362.96C427.519 363.373 427.542 363.71 427.542 363.97V370H425.102ZM417.612 370V359.2H419.762V362.55H420.052V370H417.612ZM434.202 370.31C433.402 370.31 432.742 370.177 432.222 369.91C431.702 369.643 431.289 369.303 430.982 368.89C430.675 368.477 430.449 368.037 430.302 367.57C430.155 367.103 430.059 366.663 430.012 366.25C429.972 365.83 429.952 365.49 429.952 365.23V359.2H432.392V364.4C432.392 364.733 432.415 365.11 432.462 365.53C432.509 365.943 432.615 366.343 432.782 366.73C432.955 367.11 433.209 367.423 433.542 367.67C433.882 367.917 434.339 368.04 434.912 368.04C435.219 368.04 435.522 367.99 435.822 367.89C436.122 367.79 436.392 367.62 436.632 367.38C436.879 367.133 437.075 366.797 437.222 366.37C437.369 365.943 437.442 365.403 437.442 364.75L438.872 365.36C438.872 366.28 438.692 367.113 438.332 367.86C437.979 368.607 437.455 369.203 436.762 369.65C436.069 370.09 435.215 370.31 434.202 370.31ZM437.732 370V366.65H437.442V359.2H439.862V370H437.732ZM445.691 370.3C444.911 370.3 444.251 370.153 443.711 369.86C443.171 369.56 442.761 369.163 442.481 368.67C442.208 368.177 442.071 367.633 442.071 367.04C442.071 366.52 442.158 366.053 442.331 365.64C442.505 365.22 442.771 364.86 443.131 364.56C443.491 364.253 443.958 364.003 444.531 363.81C444.965 363.67 445.471 363.543 446.051 363.43C446.638 363.317 447.271 363.213 447.951 363.12C448.638 363.02 449.355 362.913 450.101 362.8L449.241 363.29C449.248 362.543 449.081 361.993 448.741 361.64C448.401 361.287 447.828 361.11 447.021 361.11C446.535 361.11 446.065 361.223 445.611 361.45C445.158 361.677 444.841 362.067 444.661 362.62L442.461 361.93C442.728 361.017 443.235 360.283 443.981 359.73C444.735 359.177 445.748 358.9 447.021 358.9C447.981 358.9 448.825 359.057 449.551 359.37C450.285 359.683 450.828 360.197 451.181 360.91C451.375 361.29 451.491 361.68 451.531 362.08C451.571 362.473 451.591 362.903 451.591 363.37V370H449.481V367.66L449.831 368.04C449.345 368.82 448.775 369.393 448.121 369.76C447.475 370.12 446.665 370.3 445.691 370.3ZM446.171 368.38C446.718 368.38 447.185 368.283 447.571 368.09C447.958 367.897 448.265 367.66 448.491 367.38C448.725 367.1 448.881 366.837 448.961 366.59C449.088 366.283 449.158 365.933 449.171 365.54C449.191 365.14 449.201 364.817 449.201 364.57L449.941 364.79C449.215 364.903 448.591 365.003 448.071 365.09C447.551 365.177 447.105 365.26 446.731 365.34C446.358 365.413 446.028 365.497 445.741 365.59C445.461 365.69 445.225 365.807 445.031 365.94C444.838 366.073 444.688 366.227 444.581 366.4C444.481 366.573 444.431 366.777 444.431 367.01C444.431 367.277 444.498 367.513 444.631 367.72C444.765 367.92 444.958 368.08 445.211 368.2C445.471 368.32 445.791 368.38 446.171 368.38ZM454.395 370V355.3H456.805V370H454.395ZM394.085 400.3C393.032 400.3 392.082 400.117 391.235 399.75C390.395 399.383 389.702 398.86 389.155 398.18C388.615 397.493 388.272 396.68 388.125 395.74L390.625 395.36C390.839 396.213 391.275 396.873 391.935 397.34C392.602 397.807 393.369 398.04 394.235 398.04C394.749 398.04 395.232 397.96 395.685 397.8C396.139 397.64 396.505 397.407 396.785 397.1C397.072 396.793 397.215 396.417 397.215 395.97C397.215 395.77 397.182 395.587 397.115 395.42C397.049 395.247 396.949 395.093 396.815 394.96C396.689 394.827 396.522 394.707 396.315 394.6C396.115 394.487 395.882 394.39 395.615 394.31L391.895 393.21C391.575 393.117 391.229 392.993 390.855 392.84C390.489 392.68 390.139 392.463 389.805 392.19C389.479 391.91 389.209 391.557 388.995 391.13C388.789 390.697 388.685 390.163 388.685 389.53C388.685 388.603 388.919 387.827 389.385 387.2C389.859 386.567 390.492 386.093 391.285 385.78C392.085 385.467 392.972 385.313 393.945 385.32C394.932 385.327 395.812 385.497 396.585 385.83C397.359 386.157 398.005 386.633 398.525 387.26C399.045 387.887 399.412 388.643 399.625 389.53L397.035 389.98C396.929 389.473 396.722 389.043 396.415 388.69C396.115 388.33 395.745 388.057 395.305 387.87C394.872 387.683 394.409 387.583 393.915 387.57C393.435 387.563 392.989 387.637 392.575 387.79C392.169 387.937 391.839 388.15 391.585 388.43C391.339 388.71 391.215 389.037 391.215 389.41C391.215 389.763 391.322 390.053 391.535 390.28C391.749 390.5 392.012 390.677 392.325 390.81C392.645 390.937 392.969 391.043 393.295 391.13L395.875 391.85C396.229 391.943 396.625 392.07 397.065 392.23C397.505 392.39 397.929 392.613 398.335 392.9C398.742 393.187 399.075 393.563 399.335 394.03C399.602 394.497 399.735 395.09 399.735 395.81C399.735 396.557 399.579 397.213 399.265 397.78C398.959 398.34 398.542 398.807 398.015 399.18C397.489 399.553 396.885 399.833 396.205 400.02C395.532 400.207 394.825 400.3 394.085 400.3ZM406.81 400.3C405.717 400.3 404.757 400.063 403.93 399.59C403.103 399.117 402.457 398.46 401.99 397.62C401.53 396.78 401.3 395.813 401.3 394.72C401.3 393.54 401.527 392.517 401.98 391.65C402.433 390.777 403.063 390.1 403.87 389.62C404.677 389.14 405.61 388.9 406.67 388.9C407.79 388.9 408.74 389.163 409.52 389.69C410.307 390.21 410.89 390.947 411.27 391.9C411.65 392.853 411.793 393.977 411.7 395.27H409.31V394.39C409.303 393.217 409.097 392.36 408.69 391.82C408.283 391.28 407.643 391.01 406.77 391.01C405.783 391.01 405.05 391.317 404.57 391.93C404.09 392.537 403.85 393.427 403.85 394.6C403.85 395.693 404.09 396.54 404.57 397.14C405.05 397.74 405.75 398.04 406.67 398.04C407.263 398.04 407.773 397.91 408.2 397.65C408.633 397.383 408.967 397 409.2 396.5L411.58 397.22C411.167 398.193 410.527 398.95 409.66 399.49C408.8 400.03 407.85 400.3 406.81 400.3ZM403.09 395.27V393.45H410.52V395.27H403.09ZM415.841 400L412.541 389.18L414.901 389.2L417.011 396.13L419.151 389.2H421.181L423.311 396.13L425.431 389.2H427.791L424.491 400H422.611L420.161 392.57L417.721 400H415.841ZM429.795 387.56V385.35H432.205V387.56H429.795ZM429.795 400V389.2H432.205V400H429.795ZM442.671 400V394.8C442.671 394.46 442.647 394.083 442.601 393.67C442.554 393.257 442.444 392.86 442.271 392.48C442.104 392.093 441.851 391.777 441.511 391.53C441.177 391.283 440.724 391.16 440.151 391.16C439.844 391.16 439.541 391.21 439.241 391.31C438.941 391.41 438.667 391.583 438.421 391.83C438.181 392.07 437.987 392.403 437.841 392.83C437.694 393.25 437.621 393.79 437.621 394.45L436.191 393.84C436.191 392.92 436.367 392.087 436.721 391.34C437.081 390.593 437.607 390 438.301 389.56C438.994 389.113 439.847 388.89 440.861 388.89C441.661 388.89 442.321 389.023 442.841 389.29C443.361 389.557 443.774 389.897 444.081 390.31C444.387 390.723 444.614 391.163 444.761 391.63C444.907 392.097 445.001 392.54 445.041 392.96C445.087 393.373 445.111 393.71 445.111 393.97V400H442.671ZM435.181 400V389.2H437.331V392.55H437.621V400H435.181ZM452.26 405.1C451.66 405.1 451.084 405.007 450.53 404.82C449.984 404.633 449.49 404.363 449.05 404.01C448.61 403.663 448.25 403.243 447.97 402.75L450.19 401.65C450.397 402.043 450.687 402.333 451.06 402.52C451.44 402.713 451.844 402.81 452.27 402.81C452.77 402.81 453.217 402.72 453.61 402.54C454.004 402.367 454.307 402.107 454.52 401.76C454.74 401.42 454.844 400.993 454.83 400.48V397.41H455.13V389.2H457.24V400.52C457.24 400.793 457.227 401.053 457.2 401.3C457.18 401.553 457.144 401.8 457.09 402.04C456.93 402.74 456.624 403.313 456.17 403.76C455.717 404.213 455.154 404.55 454.48 404.77C453.814 404.99 453.074 405.1 452.26 405.1ZM452.05 400.3C451.057 400.3 450.19 400.05 449.45 399.55C448.71 399.05 448.137 398.37 447.73 397.51C447.324 396.65 447.12 395.68 447.12 394.6C447.12 393.507 447.324 392.533 447.73 391.68C448.144 390.82 448.727 390.143 449.48 389.65C450.234 389.15 451.12 388.9 452.14 388.9C453.167 388.9 454.027 389.15 454.72 389.65C455.42 390.143 455.95 390.82 456.31 391.68C456.67 392.54 456.85 393.513 456.85 394.6C456.85 395.673 456.67 396.643 456.31 397.51C455.95 398.37 455.414 399.05 454.7 399.55C453.987 400.05 453.104 400.3 452.05 400.3ZM452.42 398.14C453.067 398.14 453.587 397.993 453.98 397.7C454.38 397.4 454.67 396.983 454.85 396.45C455.037 395.917 455.13 395.3 455.13 394.6C455.13 393.893 455.037 393.277 454.85 392.75C454.67 392.217 454.387 391.803 454 391.51C453.614 391.21 453.114 391.06 452.5 391.06C451.854 391.06 451.32 391.22 450.9 391.54C450.48 391.853 450.17 392.28 449.97 392.82C449.77 393.353 449.67 393.947 449.67 394.6C449.67 395.26 449.767 395.86 449.96 396.4C450.16 396.933 450.464 397.357 450.87 397.67C451.277 397.983 451.794 398.14 452.42 398.14Z" fill="white"/>
<path d="M702.967 370V357.86H698.307V355.6H710.037V357.86H705.377V370H702.967ZM719.106 370V364.8C719.106 364.46 719.083 364.083 719.036 363.67C718.99 363.257 718.88 362.86 718.706 362.48C718.54 362.093 718.286 361.777 717.946 361.53C717.613 361.283 717.16 361.16 716.586 361.16C716.28 361.16 715.976 361.21 715.676 361.31C715.376 361.41 715.103 361.583 714.856 361.83C714.616 362.07 714.423 362.403 714.276 362.83C714.13 363.25 714.056 363.79 714.056 364.45L712.626 363.84C712.626 362.92 712.803 362.087 713.156 361.34C713.516 360.593 714.043 360 714.736 359.56C715.43 359.113 716.283 358.89 717.296 358.89C718.096 358.89 718.756 359.023 719.276 359.29C719.796 359.557 720.21 359.897 720.516 360.31C720.823 360.723 721.05 361.163 721.196 361.63C721.343 362.097 721.436 362.54 721.476 362.96C721.523 363.373 721.546 363.71 721.546 363.97V370H719.106ZM711.616 370V355.6H713.766V363.18H714.056V370H711.616ZM729.066 370.3C727.973 370.3 727.013 370.063 726.186 369.59C725.359 369.117 724.713 368.46 724.246 367.62C723.786 366.78 723.556 365.813 723.556 364.72C723.556 363.54 723.783 362.517 724.236 361.65C724.689 360.777 725.319 360.1 726.126 359.62C726.933 359.14 727.866 358.9 728.926 358.9C730.046 358.9 730.996 359.163 731.776 359.69C732.563 360.21 733.146 360.947 733.526 361.9C733.906 362.853 734.049 363.977 733.956 365.27H731.566V364.39C731.559 363.217 731.353 362.36 730.946 361.82C730.539 361.28 729.899 361.01 729.026 361.01C728.039 361.01 727.306 361.317 726.826 361.93C726.346 362.537 726.106 363.427 726.106 364.6C726.106 365.693 726.346 366.54 726.826 367.14C727.306 367.74 728.006 368.04 728.926 368.04C729.519 368.04 730.029 367.91 730.456 367.65C730.889 367.383 731.223 367 731.456 366.5L733.836 367.22C733.423 368.193 732.783 368.95 731.916 369.49C731.056 370.03 730.106 370.3 729.066 370.3ZM725.346 365.27V363.45H732.776V365.27H725.346ZM736.187 370V359.2H738.317V361.83L738.057 361.49C738.19 361.13 738.367 360.803 738.587 360.51C738.814 360.21 739.084 359.963 739.397 359.77C739.664 359.59 739.957 359.45 740.277 359.35C740.604 359.243 740.937 359.18 741.277 359.16C741.617 359.133 741.947 359.147 742.267 359.2V361.45C741.947 361.357 741.577 361.327 741.157 361.36C740.744 361.393 740.37 361.51 740.037 361.71C739.704 361.89 739.43 362.12 739.217 362.4C739.01 362.68 738.857 363 738.757 363.36C738.657 363.713 738.607 364.097 738.607 364.51V370H736.187ZM757.145 370V363.44C757.145 362.7 756.962 362.123 756.595 361.71C756.229 361.29 755.732 361.08 755.105 361.08C754.719 361.08 754.372 361.17 754.065 361.35C753.759 361.523 753.515 361.783 753.335 362.13C753.155 362.47 753.065 362.877 753.065 363.35L751.995 362.72C751.989 361.973 752.155 361.317 752.495 360.75C752.842 360.177 753.309 359.73 753.895 359.41C754.482 359.09 755.135 358.93 755.855 358.93C757.049 358.93 757.962 359.29 758.595 360.01C759.235 360.723 759.555 361.663 759.555 362.83V370H757.145ZM744.155 370V359.2H746.285V362.55H746.585V370H744.155ZM750.665 370V363.47C750.665 362.717 750.482 362.13 750.115 361.71C749.749 361.29 749.249 361.08 748.615 361.08C748.002 361.08 747.509 361.29 747.135 361.71C746.769 362.13 746.585 362.677 746.585 363.35L745.505 362.63C745.505 361.93 745.679 361.3 746.025 360.74C746.372 360.18 746.839 359.74 747.425 359.42C748.019 359.093 748.682 358.93 749.415 358.93C750.222 358.93 750.895 359.103 751.435 359.45C751.982 359.79 752.389 360.257 752.655 360.85C752.929 361.437 753.065 362.1 753.065 362.84V370H750.665ZM765.184 370.3C764.404 370.3 763.744 370.153 763.204 369.86C762.664 369.56 762.254 369.163 761.974 368.67C761.7 368.177 761.564 367.633 761.564 367.04C761.564 366.52 761.65 366.053 761.824 365.64C761.997 365.22 762.264 364.86 762.624 364.56C762.984 364.253 763.45 364.003 764.024 363.81C764.457 363.67 764.964 363.543 765.544 363.43C766.13 363.317 766.764 363.213 767.444 363.12C768.13 363.02 768.847 362.913 769.594 362.8L768.734 363.29C768.74 362.543 768.574 361.993 768.234 361.64C767.894 361.287 767.32 361.11 766.514 361.11C766.027 361.11 765.557 361.223 765.104 361.45C764.65 361.677 764.334 362.067 764.154 362.62L761.954 361.93C762.22 361.017 762.727 360.283 763.474 359.73C764.227 359.177 765.24 358.9 766.514 358.9C767.474 358.9 768.317 359.057 769.044 359.37C769.777 359.683 770.32 360.197 770.674 360.91C770.867 361.29 770.984 361.68 771.024 362.08C771.064 362.473 771.084 362.903 771.084 363.37V370H768.974V367.66L769.324 368.04C768.837 368.82 768.267 369.393 767.614 369.76C766.967 370.12 766.157 370.3 765.184 370.3ZM765.664 368.38C766.21 368.38 766.677 368.283 767.064 368.09C767.45 367.897 767.757 367.66 767.984 367.38C768.217 367.1 768.374 366.837 768.454 366.59C768.58 366.283 768.65 365.933 768.664 365.54C768.684 365.14 768.694 364.817 768.694 364.57L769.434 364.79C768.707 364.903 768.084 365.003 767.564 365.09C767.044 365.177 766.597 365.26 766.224 365.34C765.85 365.413 765.52 365.497 765.234 365.59C764.954 365.69 764.717 365.807 764.524 365.94C764.33 366.073 764.18 366.227 764.074 366.4C763.974 366.573 763.924 366.777 763.924 367.01C763.924 367.277 763.99 367.513 764.124 367.72C764.257 367.92 764.45 368.08 764.704 368.2C764.964 368.32 765.284 368.38 765.664 368.38ZM773.887 370V355.3H776.297V370H773.887ZM691.166 400.3C690.112 400.3 689.162 400.117 688.316 399.75C687.476 399.383 686.782 398.86 686.236 398.18C685.696 397.493 685.352 396.68 685.206 395.74L687.706 395.36C687.919 396.213 688.356 396.873 689.016 397.34C689.682 397.807 690.449 398.04 691.316 398.04C691.829 398.04 692.312 397.96 692.766 397.8C693.219 397.64 693.586 397.407 693.866 397.1C694.152 396.793 694.296 396.417 694.296 395.97C694.296 395.77 694.262 395.587 694.196 395.42C694.129 395.247 694.029 395.093 693.896 394.96C693.769 394.827 693.602 394.707 693.396 394.6C693.196 394.487 692.962 394.39 692.696 394.31L688.976 393.21C688.656 393.117 688.309 392.993 687.936 392.84C687.569 392.68 687.219 392.463 686.886 392.19C686.559 391.91 686.289 391.557 686.076 391.13C685.869 390.697 685.766 390.163 685.766 389.53C685.766 388.603 685.999 387.827 686.466 387.2C686.939 386.567 687.572 386.093 688.366 385.78C689.166 385.467 690.052 385.313 691.026 385.32C692.012 385.327 692.892 385.497 693.666 385.83C694.439 386.157 695.086 386.633 695.606 387.26C696.126 387.887 696.492 388.643 696.706 389.53L694.116 389.98C694.009 389.473 693.802 389.043 693.496 388.69C693.196 388.33 692.826 388.057 692.386 387.87C691.952 387.683 691.489 387.583 690.996 387.57C690.516 387.563 690.069 387.637 689.656 387.79C689.249 387.937 688.919 388.15 688.666 388.43C688.419 388.71 688.296 389.037 688.296 389.41C688.296 389.763 688.402 390.053 688.616 390.28C688.829 390.5 689.092 390.677 689.406 390.81C689.726 390.937 690.049 391.043 690.376 391.13L692.956 391.85C693.309 391.943 693.706 392.07 694.146 392.23C694.586 392.39 695.009 392.613 695.416 392.9C695.822 393.187 696.156 393.563 696.416 394.03C696.682 394.497 696.816 395.09 696.816 395.81C696.816 396.557 696.659 397.213 696.346 397.78C696.039 398.34 695.622 398.807 695.096 399.18C694.569 399.553 693.966 399.833 693.286 400.02C692.612 400.207 691.906 400.3 691.166 400.3ZM703.89 400.3C702.797 400.3 701.837 400.063 701.01 399.59C700.183 399.117 699.537 398.46 699.07 397.62C698.61 396.78 698.38 395.813 698.38 394.72C698.38 393.54 698.607 392.517 699.06 391.65C699.513 390.777 700.143 390.1 700.95 389.62C701.757 389.14 702.69 388.9 703.75 388.9C704.87 388.9 705.82 389.163 706.6 389.69C707.387 390.21 707.97 390.947 708.35 391.9C708.73 392.853 708.873 393.977 708.78 395.27H706.39V394.39C706.383 393.217 706.177 392.36 705.77 391.82C705.363 391.28 704.723 391.01 703.85 391.01C702.863 391.01 702.13 391.317 701.65 391.93C701.17 392.537 700.93 393.427 700.93 394.6C700.93 395.693 701.17 396.54 701.65 397.14C702.13 397.74 702.83 398.04 703.75 398.04C704.343 398.04 704.853 397.91 705.28 397.65C705.713 397.383 706.047 397 706.28 396.5L708.66 397.22C708.247 398.193 707.607 398.95 706.74 399.49C705.88 400.03 704.93 400.3 703.89 400.3ZM700.17 395.27V393.45H707.6V395.27H700.17ZM715.908 400.3C714.855 400.3 713.972 400.05 713.258 399.55C712.545 399.05 712.008 398.37 711.648 397.51C711.288 396.643 711.108 395.673 711.108 394.6C711.108 393.513 711.288 392.54 711.648 391.68C712.008 390.82 712.535 390.143 713.228 389.65C713.928 389.15 714.792 388.9 715.818 388.9C716.838 388.9 717.722 389.15 718.468 389.65C719.222 390.143 719.805 390.82 720.218 391.68C720.632 392.533 720.838 393.507 720.838 394.6C720.838 395.68 720.635 396.65 720.228 397.51C719.822 398.37 719.248 399.05 718.508 399.55C717.768 400.05 716.902 400.3 715.908 400.3ZM710.698 404.8V389.2H712.828V396.78H713.128V404.8H710.698ZM715.538 398.14C716.165 398.14 716.682 397.983 717.088 397.67C717.495 397.357 717.795 396.933 717.988 396.4C718.188 395.86 718.288 395.26 718.288 394.6C718.288 393.947 718.188 393.353 717.988 392.82C717.788 392.28 717.478 391.853 717.058 391.54C716.638 391.22 716.105 391.06 715.458 391.06C714.845 391.06 714.345 391.21 713.958 391.51C713.572 391.803 713.285 392.217 713.098 392.75C712.918 393.277 712.828 393.893 712.828 394.6C712.828 395.3 712.918 395.917 713.098 396.45C713.285 396.983 713.575 397.4 713.968 397.7C714.368 397.993 714.892 398.14 715.538 398.14ZM726.063 400.3C725.283 400.3 724.623 400.153 724.083 399.86C723.543 399.56 723.133 399.163 722.853 398.67C722.579 398.177 722.443 397.633 722.443 397.04C722.443 396.52 722.529 396.053 722.703 395.64C722.876 395.22 723.143 394.86 723.503 394.56C723.863 394.253 724.329 394.003 724.903 393.81C725.336 393.67 725.843 393.543 726.423 393.43C727.009 393.317 727.643 393.213 728.323 393.12C729.009 393.02 729.726 392.913 730.473 392.8L729.613 393.29C729.619 392.543 729.453 391.993 729.113 391.64C728.773 391.287 728.199 391.11 727.393 391.11C726.906 391.11 726.436 391.223 725.983 391.45C725.529 391.677 725.213 392.067 725.033 392.62L722.833 391.93C723.099 391.017 723.606 390.283 724.353 389.73C725.106 389.177 726.119 388.9 727.393 388.9C728.353 388.9 729.196 389.057 729.923 389.37C730.656 389.683 731.199 390.197 731.553 390.91C731.746 391.29 731.863 391.68 731.903 392.08C731.943 392.473 731.963 392.903 731.963 393.37V400H729.853V397.66L730.203 398.04C729.716 398.82 729.146 399.393 728.493 399.76C727.846 400.12 727.036 400.3 726.063 400.3ZM726.543 398.38C727.089 398.38 727.556 398.283 727.943 398.09C728.329 397.897 728.636 397.66 728.863 397.38C729.096 397.1 729.253 396.837 729.333 396.59C729.459 396.283 729.529 395.933 729.543 395.54C729.563 395.14 729.573 394.817 729.573 394.57L730.313 394.79C729.586 394.903 728.963 395.003 728.443 395.09C727.923 395.177 727.476 395.26 727.103 395.34C726.729 395.413 726.399 395.497 726.113 395.59C725.833 395.69 725.596 395.807 725.403 395.94C725.209 396.073 725.059 396.227 724.953 396.4C724.853 396.573 724.803 396.777 724.803 397.01C724.803 397.277 724.869 397.513 725.003 397.72C725.136 397.92 725.329 398.08 725.583 398.2C725.843 398.32 726.163 398.38 726.543 398.38ZM734.566 400V389.2H736.696V391.83L736.436 391.49C736.569 391.13 736.746 390.803 736.966 390.51C737.193 390.21 737.463 389.963 737.776 389.77C738.043 389.59 738.336 389.45 738.656 389.35C738.983 389.243 739.316 389.18 739.656 389.16C739.996 389.133 740.326 389.147 740.646 389.2V391.45C740.326 391.357 739.956 391.327 739.536 391.36C739.123 391.393 738.749 391.51 738.416 391.71C738.083 391.89 737.809 392.12 737.596 392.4C737.389 392.68 737.236 393 737.136 393.36C737.036 393.713 736.986 394.097 736.986 394.51V400H734.566ZM745.32 400.3C744.54 400.3 743.88 400.153 743.34 399.86C742.8 399.56 742.39 399.163 742.11 398.67C741.837 398.177 741.7 397.633 741.7 397.04C741.7 396.52 741.787 396.053 741.96 395.64C742.134 395.22 742.4 394.86 742.76 394.56C743.12 394.253 743.587 394.003 744.16 393.81C744.594 393.67 745.1 393.543 745.68 393.43C746.267 393.317 746.9 393.213 747.58 393.12C748.267 393.02 748.984 392.913 749.73 392.8L748.87 393.29C748.877 392.543 748.71 391.993 748.37 391.64C748.03 391.287 747.457 391.11 746.65 391.11C746.164 391.11 745.694 391.223 745.24 391.45C744.787 391.677 744.47 392.067 744.29 392.62L742.09 391.93C742.357 391.017 742.864 390.283 743.61 389.73C744.364 389.177 745.377 388.9 746.65 388.9C747.61 388.9 748.454 389.057 749.18 389.37C749.914 389.683 750.457 390.197 750.81 390.91C751.004 391.29 751.12 391.68 751.16 392.08C751.2 392.473 751.22 392.903 751.22 393.37V400H749.11V397.66L749.46 398.04C748.974 398.82 748.404 399.393 747.75 399.76C747.104 400.12 746.294 400.3 745.32 400.3ZM745.8 398.38C746.347 398.38 746.814 398.283 747.2 398.09C747.587 397.897 747.894 397.66 748.12 397.38C748.354 397.1 748.51 396.837 748.59 396.59C748.717 396.283 748.787 395.933 748.8 395.54C748.82 395.14 748.83 394.817 748.83 394.57L749.57 394.79C748.844 394.903 748.22 395.003 747.7 395.09C747.18 395.177 746.734 395.26 746.36 395.34C745.987 395.413 745.657 395.497 745.37 395.59C745.09 395.69 744.854 395.807 744.66 395.94C744.467 396.073 744.317 396.227 744.21 396.4C744.11 396.573 744.06 396.777 744.06 397.01C744.06 397.277 744.127 397.513 744.26 397.72C744.394 397.92 744.587 398.08 744.84 398.2C745.1 398.32 745.42 398.38 745.8 398.38ZM760.154 400C759.44 400.133 758.74 400.19 758.054 400.17C757.374 400.157 756.764 400.033 756.224 399.8C755.684 399.56 755.274 399.183 754.994 398.67C754.747 398.203 754.617 397.727 754.604 397.24C754.59 396.753 754.584 396.203 754.584 395.59V386.2H756.984V395.45C756.984 395.883 756.987 396.263 756.994 396.59C757.007 396.917 757.077 397.183 757.204 397.39C757.444 397.79 757.827 398.013 758.354 398.06C758.88 398.107 759.48 398.08 760.154 397.98V400ZM752.624 391.09V389.2H760.154V391.09H752.624ZM762.676 387.56V385.35H765.086V387.56H762.676ZM762.676 400V389.2H765.086V400H762.676ZM772.852 400.3C771.772 400.3 770.828 400.057 770.022 399.57C769.215 399.083 768.588 398.413 768.142 397.56C767.702 396.7 767.482 395.713 767.482 394.6C767.482 393.467 767.708 392.473 768.162 391.62C768.615 390.767 769.245 390.1 770.052 389.62C770.858 389.14 771.792 388.9 772.852 388.9C773.938 388.9 774.885 389.143 775.692 389.63C776.498 390.117 777.125 390.79 777.572 391.65C778.018 392.503 778.242 393.487 778.242 394.6C778.242 395.72 778.015 396.71 777.562 397.57C777.115 398.423 776.488 399.093 775.682 399.58C774.875 400.06 773.932 400.3 772.852 400.3ZM772.852 398.04C773.812 398.04 774.525 397.72 774.992 397.08C775.458 396.44 775.692 395.613 775.692 394.6C775.692 393.553 775.455 392.72 774.982 392.1C774.508 391.473 773.798 391.16 772.852 391.16C772.205 391.16 771.672 391.307 771.252 391.6C770.838 391.887 770.532 392.29 770.332 392.81C770.132 393.323 770.032 393.92 770.032 394.6C770.032 395.647 770.268 396.483 770.742 397.11C771.222 397.73 771.925 398.04 772.852 398.04ZM787.915 400V394.8C787.915 394.46 787.892 394.083 787.845 393.67C787.798 393.257 787.688 392.86 787.515 392.48C787.348 392.093 787.095 391.777 786.755 391.53C786.422 391.283 785.968 391.16 785.395 391.16C785.088 391.16 784.785 391.21 784.485 391.31C784.185 391.41 783.912 391.583 783.665 391.83C783.425 392.07 783.232 392.403 783.085 392.83C782.938 393.25 782.865 393.79 782.865 394.45L781.435 393.84C781.435 392.92 781.612 392.087 781.965 391.34C782.325 390.593 782.852 390 783.545 389.56C784.238 389.113 785.092 388.89 786.105 388.89C786.905 388.89 787.565 389.023 788.085 389.29C788.605 389.557 789.018 389.897 789.325 390.31C789.632 390.723 789.858 391.163 790.005 391.63C790.152 392.097 790.245 392.54 790.285 392.96C790.332 393.373 790.355 393.71 790.355 393.97V400H787.915ZM780.425 400V389.2H782.575V392.55H782.865V400H780.425Z" fill="white"/>
<path fill-rule="evenodd" clip-rule="evenodd" d="M696.873 249.726V288.902C696.869 289.602 697.437 290.173 698.14 290.169H741.652C742.347 290.169 742.914 289.604 742.914 288.907V249.724L737.082 222.113L729.215 219.614C729.006 219.467 728.761 219.386 728.508 219.381C728.275 219.377 728.047 219.44 727.844 219.561C725.202 220.237 722.713 220.464 719.86 220.461C717.009 220.461 714.476 220.221 711.757 219.511C711.604 219.452 711.445 219.421 711.284 219.427C711.096 219.43 710.907 219.476 710.739 219.561L702.71 222.115L696.873 249.73V249.726Z" fill="black" stroke="white" stroke-width="2.01867" stroke-miterlimit="10"/>
<path d="M695.223 223.185C690.815 224.585 688.575 226.771 685.54 229.572L673.026 241.114C672.534 241.568 672.475 242.326 672.902 242.843L682.843 254.999C683.3 255.566 684.143 255.629 684.681 255.133L689.385 250.8L695.223 223.185Z" fill="black" stroke="white" stroke-width="2.01867" stroke-miterlimit="10"/>
<path d="M745.444 246.991L750.152 251.328C750.688 251.824 751.529 251.761 751.99 251.194L761.929 239.038C762.346 238.519 762.291 237.767 761.801 237.313L749.292 225.771C746.252 222.974 744.015 220.778 739.61 219.378L745.442 246.99L745.444 246.991Z" fill="white" stroke="#231F20" stroke-width="2.01867" stroke-miterlimit="10"/>
<path fill-rule="evenodd" clip-rule="evenodd" d="M734.427 219.864V259.04C734.423 259.741 734.992 260.311 735.694 260.307H779.207C779.902 260.307 780.468 259.743 780.468 259.046V219.862L774.636 192.251L766.769 189.753C766.56 189.605 766.315 189.525 766.062 189.519C765.829 189.515 765.601 189.578 765.398 189.699L764.692 192.381C764.136 197.758 760.688 200.41 757.448 200.454C754.209 200.41 750.761 197.756 750.203 192.37L749.309 189.647C749.156 189.588 748.997 189.557 748.836 189.563C748.649 189.567 748.459 189.613 748.291 189.697L740.263 192.251L734.425 219.866L734.427 219.864Z" fill="black" stroke="#C5E7E3" stroke-width="2.01867" stroke-miterlimit="10"/>
<path d="M733.33 192.628C728.923 194.027 726.683 196.214 723.648 199.015L711.134 210.557C710.642 211.01 710.582 211.768 711.009 212.285L720.95 224.442C721.408 225.008 722.25 225.071 722.788 224.576L727.493 220.243L733.33 192.628Z" fill="black" stroke="white" stroke-width="2.01867" stroke-miterlimit="10"/>
<path d="M788.107 220.239L792.815 224.575C793.351 225.071 794.191 225.008 794.653 224.441L804.592 212.285C805.009 211.766 804.954 211.014 804.464 210.56L791.955 199.019C788.915 196.221 786.678 194.025 782.273 192.626L788.105 220.237L788.107 220.239Z" fill="black" stroke="white" stroke-width="2.01867" stroke-miterlimit="10"/>
<path d="M683.252 189.265V170.751C683.252 168.679 681.573 167 679.502 167C677.43 167 675.751 168.679 675.751 170.751V189.265C673.511 190.564 672 192.98 672 195.756C672 199.899 675.358 203.258 679.502 203.258C683.645 203.258 687.003 199.899 687.003 195.756C687.003 192.98 685.493 190.562 683.252 189.265ZM682.002 189.637C682.002 189.872 682.134 190.087 682.343 190.194C684.365 191.23 685.753 193.328 685.753 195.758C685.753 199.21 682.954 202.009 679.502 202.009C676.049 202.009 673.25 199.21 673.25 195.758C673.25 193.33 674.638 191.23 676.66 190.194C676.869 190.087 677.001 189.872 677.001 189.637V170.751C677.001 169.37 678.121 168.25 679.502 168.25C680.882 168.25 682.002 169.37 682.002 170.751V189.637ZM678.876 192.057C677.103 192.356 675.749 193.899 675.749 195.756C675.749 197.826 677.43 199.507 679.5 199.507C681.569 199.507 683.25 197.826 683.25 195.756C683.25 193.899 681.899 192.356 680.124 192.057V175.019C680.124 174.674 679.844 174.392 679.498 174.392C679.151 174.392 678.872 174.674 678.872 175.019V192.057H678.876ZM682.002 195.756C682.002 197.137 680.882 198.257 679.502 198.257C678.121 198.257 677.001 197.137 677.001 195.756C677.001 194.376 678.121 193.256 679.502 193.256C680.882 193.256 682.002 194.376 682.002 195.756Z" fill="white"/>
<path d="M694.003 188.918V202.001C694.003 202.706 694.557 203.259 695.261 203.259C695.966 203.259 696.519 202.706 696.519 202.001V188.918L698.583 190.982C699.087 191.486 699.891 191.486 700.394 190.982C700.898 190.479 700.898 189.675 700.394 189.171L696.117 184.894C695.614 184.39 694.809 184.39 694.306 184.894L690.029 189.171C689.778 189.422 689.676 189.724 689.676 190.077C689.676 190.429 689.778 190.731 690.029 190.982C690.532 191.486 691.336 191.486 691.84 190.982L694.003 188.918Z" fill="#C5E7E3"/>
<path d="M424 483L1368 483" stroke="white" stroke-width="3" stroke-miterlimit="10"/>
<circle cx="1367.5" cy="482.5" r="12.5" fill="#00DAFD"/>
<circle cx="1052.5" cy="482.5" r="12.5" fill="#00DAFD"/>
<circle cx="737.5" cy="482.5" r="12.5" fill="#00DAFD"/>
<circle cx="422.5" cy="482.5" r="12.5" fill="#00DAFD"/>
<path d="M1314.7 370L1319.24 355.6H1322.77L1327.31 370H1324.83L1320.71 357.08H1321.25L1317.18 370H1314.7ZM1317.23 366.88V364.63H1324.79V366.88H1317.23ZM1333.17 370.31C1332.37 370.31 1331.71 370.177 1331.19 369.91C1330.67 369.643 1330.26 369.303 1329.95 368.89C1329.64 368.477 1329.42 368.037 1329.27 367.57C1329.12 367.103 1329.03 366.663 1328.98 366.25C1328.94 365.83 1328.92 365.49 1328.92 365.23V359.2H1331.36V364.4C1331.36 364.733 1331.38 365.11 1331.43 365.53C1331.48 365.943 1331.58 366.343 1331.75 366.73C1331.92 367.11 1332.18 367.423 1332.51 367.67C1332.85 367.917 1333.31 368.04 1333.88 368.04C1334.19 368.04 1334.49 367.99 1334.79 367.89C1335.09 367.79 1335.36 367.62 1335.6 367.38C1335.85 367.133 1336.04 366.797 1336.19 366.37C1336.34 365.943 1336.41 365.403 1336.41 364.75L1337.84 365.36C1337.84 366.28 1337.66 367.113 1337.3 367.86C1336.95 368.607 1336.42 369.203 1335.73 369.65C1335.04 370.09 1334.18 370.31 1333.17 370.31ZM1336.7 370V366.65H1336.41V359.2H1338.83V370H1336.7ZM1347.97 370C1347.25 370.133 1346.55 370.19 1345.87 370.17C1345.19 370.157 1344.58 370.033 1344.04 369.8C1343.5 369.56 1343.09 369.183 1342.81 368.67C1342.56 368.203 1342.43 367.727 1342.42 367.24C1342.4 366.753 1342.4 366.203 1342.4 365.59V356.2H1344.8V365.45C1344.8 365.883 1344.8 366.263 1344.81 366.59C1344.82 366.917 1344.89 367.183 1345.02 367.39C1345.26 367.79 1345.64 368.013 1346.17 368.06C1346.69 368.107 1347.29 368.08 1347.97 367.98V370ZM1340.44 361.09V359.2H1347.97V361.09H1340.44ZM1354.51 370.3C1353.43 370.3 1352.49 370.057 1351.68 369.57C1350.88 369.083 1350.25 368.413 1349.8 367.56C1349.36 366.7 1349.14 365.713 1349.14 364.6C1349.14 363.467 1349.37 362.473 1349.82 361.62C1350.28 360.767 1350.91 360.1 1351.71 359.62C1352.52 359.14 1353.45 358.9 1354.51 358.9C1355.6 358.9 1356.55 359.143 1357.35 359.63C1358.16 360.117 1358.79 360.79 1359.23 361.65C1359.68 362.503 1359.9 363.487 1359.9 364.6C1359.9 365.72 1359.68 366.71 1359.22 367.57C1358.78 368.423 1358.15 369.093 1357.34 369.58C1356.54 370.06 1355.59 370.3 1354.51 370.3ZM1354.51 368.04C1355.47 368.04 1356.19 367.72 1356.65 367.08C1357.12 366.44 1357.35 365.613 1357.35 364.6C1357.35 363.553 1357.12 362.72 1356.64 362.1C1356.17 361.473 1355.46 361.16 1354.51 361.16C1353.87 361.16 1353.33 361.307 1352.91 361.6C1352.5 361.887 1352.19 362.29 1351.99 362.81C1351.79 363.323 1351.69 363.92 1351.69 364.6C1351.69 365.647 1351.93 366.483 1352.4 367.11C1352.88 367.73 1353.59 368.04 1354.51 368.04ZM1375.08 370V363.44C1375.08 362.7 1374.89 362.123 1374.53 361.71C1374.16 361.29 1373.66 361.08 1373.04 361.08C1372.65 361.08 1372.3 361.17 1372 361.35C1371.69 361.523 1371.45 361.783 1371.27 362.13C1371.09 362.47 1371 362.877 1371 363.35L1369.93 362.72C1369.92 361.973 1370.09 361.317 1370.43 360.75C1370.77 360.177 1371.24 359.73 1371.83 359.41C1372.41 359.09 1373.07 358.93 1373.79 358.93C1374.98 358.93 1375.89 359.29 1376.53 360.01C1377.17 360.723 1377.49 361.663 1377.49 362.83V370H1375.08ZM1362.09 370V359.2H1364.22V362.55H1364.52V370H1362.09ZM1368.6 370V363.47C1368.6 362.717 1368.41 362.13 1368.05 361.71C1367.68 361.29 1367.18 361.08 1366.55 361.08C1365.93 361.08 1365.44 361.29 1365.07 361.71C1364.7 362.13 1364.52 362.677 1364.52 363.35L1363.44 362.63C1363.44 361.93 1363.61 361.3 1363.96 360.74C1364.3 360.18 1364.77 359.74 1365.36 359.42C1365.95 359.093 1366.61 358.93 1367.35 358.93C1368.15 358.93 1368.83 359.103 1369.37 359.45C1369.91 359.79 1370.32 360.257 1370.59 360.85C1370.86 361.437 1371 362.1 1371 362.84V370H1368.6ZM1383.12 370.3C1382.34 370.3 1381.68 370.153 1381.14 369.86C1380.6 369.56 1380.19 369.163 1379.91 368.67C1379.63 368.177 1379.5 367.633 1379.5 367.04C1379.5 366.52 1379.58 366.053 1379.76 365.64C1379.93 365.22 1380.2 364.86 1380.56 364.56C1380.92 364.253 1381.38 364.003 1381.96 363.81C1382.39 363.67 1382.9 363.543 1383.48 363.43C1384.06 363.317 1384.7 363.213 1385.38 363.12C1386.06 363.02 1386.78 362.913 1387.53 362.8L1386.67 363.29C1386.67 362.543 1386.51 361.993 1386.17 361.64C1385.83 361.287 1385.25 361.11 1384.45 361.11C1383.96 361.11 1383.49 361.223 1383.04 361.45C1382.58 361.677 1382.27 362.067 1382.09 362.62L1379.89 361.93C1380.15 361.017 1380.66 360.283 1381.41 359.73C1382.16 359.177 1383.17 358.9 1384.45 358.9C1385.41 358.9 1386.25 359.057 1386.98 359.37C1387.71 359.683 1388.25 360.197 1388.61 360.91C1388.8 361.29 1388.92 361.68 1388.96 362.08C1389 362.473 1389.02 362.903 1389.02 363.37V370H1386.91V367.66L1387.26 368.04C1386.77 368.82 1386.2 369.393 1385.55 369.76C1384.9 370.12 1384.09 370.3 1383.12 370.3ZM1383.6 368.38C1384.14 368.38 1384.61 368.283 1385 368.09C1385.38 367.897 1385.69 367.66 1385.92 367.38C1386.15 367.1 1386.31 366.837 1386.39 366.59C1386.51 366.283 1386.58 365.933 1386.6 365.54C1386.62 365.14 1386.63 364.817 1386.63 364.57L1387.37 364.79C1386.64 364.903 1386.02 365.003 1385.5 365.09C1384.98 365.177 1384.53 365.26 1384.16 365.34C1383.78 365.413 1383.45 365.497 1383.17 365.59C1382.89 365.69 1382.65 365.807 1382.46 365.94C1382.26 366.073 1382.11 366.227 1382.01 366.4C1381.91 366.573 1381.86 366.777 1381.86 367.01C1381.86 367.277 1381.92 367.513 1382.06 367.72C1382.19 367.92 1382.38 368.08 1382.64 368.2C1382.9 368.32 1383.22 368.38 1383.6 368.38ZM1397.95 370C1397.24 370.133 1396.54 370.19 1395.85 370.17C1395.17 370.157 1394.56 370.033 1394.02 369.8C1393.48 369.56 1393.07 369.183 1392.79 368.67C1392.54 368.203 1392.41 367.727 1392.4 367.24C1392.39 366.753 1392.38 366.203 1392.38 365.59V356.2H1394.78V365.45C1394.78 365.883 1394.78 366.263 1394.79 366.59C1394.8 366.917 1394.87 367.183 1395 367.39C1395.24 367.79 1395.62 368.013 1396.15 368.06C1396.68 368.107 1397.28 368.08 1397.95 367.98V370ZM1390.42 361.09V359.2H1397.95V361.09H1390.42ZM1404.63 370.3C1403.54 370.3 1402.58 370.063 1401.75 369.59C1400.93 369.117 1400.28 368.46 1399.81 367.62C1399.35 366.78 1399.12 365.813 1399.12 364.72C1399.12 363.54 1399.35 362.517 1399.8 361.65C1400.26 360.777 1400.89 360.1 1401.69 359.62C1402.5 359.14 1403.43 358.9 1404.49 358.9C1405.61 358.9 1406.56 359.163 1407.34 359.69C1408.13 360.21 1408.71 360.947 1409.09 361.9C1409.47 362.853 1409.62 363.977 1409.52 365.27H1407.13V364.39C1407.13 363.217 1406.92 362.36 1406.51 361.82C1406.11 361.28 1405.47 361.01 1404.59 361.01C1403.61 361.01 1402.87 361.317 1402.39 361.93C1401.91 362.537 1401.67 363.427 1401.67 364.6C1401.67 365.693 1401.91 366.54 1402.39 367.14C1402.87 367.74 1403.57 368.04 1404.49 368.04C1405.09 368.04 1405.6 367.91 1406.02 367.65C1406.46 367.383 1406.79 367 1407.02 366.5L1409.4 367.22C1408.99 368.193 1408.35 368.95 1407.48 369.49C1406.62 370.03 1405.67 370.3 1404.63 370.3ZM1400.91 365.27V363.45H1408.34V365.27H1400.91ZM1416.09 370.3C1415.09 370.3 1414.23 370.05 1413.49 369.55C1412.75 369.05 1412.17 368.37 1411.77 367.51C1411.36 366.65 1411.16 365.68 1411.16 364.6C1411.16 363.507 1411.36 362.533 1411.77 361.68C1412.18 360.82 1412.76 360.143 1413.52 359.65C1414.27 359.15 1415.16 358.9 1416.18 358.9C1417.2 358.9 1418.06 359.15 1418.76 359.65C1419.46 360.143 1419.99 360.82 1420.35 361.68C1420.71 362.54 1420.89 363.513 1420.89 364.6C1420.89 365.673 1420.71 366.643 1420.35 367.51C1419.99 368.37 1419.45 369.05 1418.74 369.55C1418.02 370.05 1417.14 370.3 1416.09 370.3ZM1416.46 368.14C1417.1 368.14 1417.62 367.993 1418.02 367.7C1418.42 367.4 1418.71 366.983 1418.89 366.45C1419.07 365.917 1419.17 365.3 1419.17 364.6C1419.17 363.893 1419.07 363.277 1418.89 362.75C1418.71 362.217 1418.42 361.803 1418.04 361.51C1417.65 361.21 1417.15 361.06 1416.54 361.06C1415.89 361.06 1415.36 361.22 1414.94 361.54C1414.52 361.853 1414.21 362.28 1414.01 362.82C1413.81 363.353 1413.71 363.947 1413.71 364.6C1413.71 365.26 1413.8 365.86 1414 366.4C1414.2 366.933 1414.5 367.357 1414.91 367.67C1415.31 367.983 1415.83 368.14 1416.46 368.14ZM1419.17 370V362.42H1418.87V355.6H1421.3V370H1419.17ZM1338.93 400.3C1337.88 400.3 1336.93 400.117 1336.08 399.75C1335.24 399.383 1334.55 398.86 1334 398.18C1333.46 397.493 1333.12 396.68 1332.97 395.74L1335.47 395.36C1335.68 396.213 1336.12 396.873 1336.78 397.34C1337.45 397.807 1338.21 398.04 1339.08 398.04C1339.59 398.04 1340.08 397.96 1340.53 397.8C1340.98 397.64 1341.35 397.407 1341.63 397.1C1341.92 396.793 1342.06 396.417 1342.06 395.97C1342.06 395.77 1342.03 395.587 1341.96 395.42C1341.89 395.247 1341.79 395.093 1341.66 394.96C1341.53 394.827 1341.37 394.707 1341.16 394.6C1340.96 394.487 1340.73 394.39 1340.46 394.31L1336.74 393.21C1336.42 393.117 1336.07 392.993 1335.7 392.84C1335.33 392.68 1334.98 392.463 1334.65 392.19C1334.32 391.91 1334.05 391.557 1333.84 391.13C1333.63 390.697 1333.53 390.163 1333.53 389.53C1333.53 388.603 1333.76 387.827 1334.23 387.2C1334.7 386.567 1335.34 386.093 1336.13 385.78C1336.93 385.467 1337.82 385.313 1338.79 385.32C1339.78 385.327 1340.66 385.497 1341.43 385.83C1342.2 386.157 1342.85 386.633 1343.37 387.26C1343.89 387.887 1344.26 388.643 1344.47 389.53L1341.88 389.98C1341.77 389.473 1341.57 389.043 1341.26 388.69C1340.96 388.33 1340.59 388.057 1340.15 387.87C1339.72 387.683 1339.25 387.583 1338.76 387.57C1338.28 387.563 1337.83 387.637 1337.42 387.79C1337.01 387.937 1336.68 388.15 1336.43 388.43C1336.18 388.71 1336.06 389.037 1336.06 389.41C1336.06 389.763 1336.17 390.053 1336.38 390.28C1336.59 390.5 1336.86 390.677 1337.17 390.81C1337.49 390.937 1337.81 391.043 1338.14 391.13L1340.72 391.85C1341.07 391.943 1341.47 392.07 1341.91 392.23C1342.35 392.39 1342.77 392.613 1343.18 392.9C1343.59 393.187 1343.92 393.563 1344.18 394.03C1344.45 394.497 1344.58 395.09 1344.58 395.81C1344.58 396.557 1344.42 397.213 1344.11 397.78C1343.8 398.34 1343.39 398.807 1342.86 399.18C1342.33 399.553 1341.73 399.833 1341.05 400.02C1340.38 400.207 1339.67 400.3 1338.93 400.3ZM1351.52 400.3C1350.44 400.3 1349.49 400.057 1348.69 399.57C1347.88 399.083 1347.25 398.413 1346.81 397.56C1346.37 396.7 1346.15 395.713 1346.15 394.6C1346.15 393.467 1346.37 392.473 1346.83 391.62C1347.28 390.767 1347.91 390.1 1348.72 389.62C1349.52 389.14 1350.46 388.9 1351.52 388.9C1352.6 388.9 1353.55 389.143 1354.36 389.63C1355.16 390.117 1355.79 390.79 1356.24 391.65C1356.68 392.503 1356.91 393.487 1356.91 394.6C1356.91 395.72 1356.68 396.71 1356.23 397.57C1355.78 398.423 1355.15 399.093 1354.35 399.58C1353.54 400.06 1352.6 400.3 1351.52 400.3ZM1351.52 398.04C1352.48 398.04 1353.19 397.72 1353.66 397.08C1354.12 396.44 1354.36 395.613 1354.36 394.6C1354.36 393.553 1354.12 392.72 1353.65 392.1C1353.17 391.473 1352.46 391.16 1351.52 391.16C1350.87 391.16 1350.34 391.307 1349.92 391.6C1349.5 391.887 1349.2 392.29 1349 392.81C1348.8 393.323 1348.7 393.92 1348.7 394.6C1348.7 395.647 1348.93 396.483 1349.41 397.11C1349.89 397.73 1350.59 398.04 1351.52 398.04ZM1359.11 400V389.2H1361.24V391.83L1360.98 391.49C1361.11 391.13 1361.29 390.803 1361.51 390.51C1361.74 390.21 1362.01 389.963 1362.32 389.77C1362.59 389.59 1362.88 389.45 1363.2 389.35C1363.53 389.243 1363.86 389.18 1364.2 389.16C1364.54 389.133 1364.87 389.147 1365.19 389.2V391.45C1364.87 391.357 1364.5 391.327 1364.08 391.36C1363.67 391.393 1363.29 391.51 1362.96 391.71C1362.63 391.89 1362.35 392.12 1362.14 392.4C1361.93 392.68 1361.78 393 1361.68 393.36C1361.58 393.713 1361.53 394.097 1361.53 394.51V400H1359.11ZM1373.43 400C1372.71 400.133 1372.01 400.19 1371.33 400.17C1370.65 400.157 1370.04 400.033 1369.5 399.8C1368.96 399.56 1368.55 399.183 1368.27 398.67C1368.02 398.203 1367.89 397.727 1367.88 397.24C1367.86 396.753 1367.86 396.203 1367.86 395.59V386.2H1370.26V395.45C1370.26 395.883 1370.26 396.263 1370.27 396.59C1370.28 396.917 1370.35 397.183 1370.48 397.39C1370.72 397.79 1371.1 398.013 1371.63 398.06C1372.15 398.107 1372.75 398.08 1373.43 397.98V400ZM1365.9 391.09V389.2H1373.43V391.09H1365.9ZM1375.95 387.56V385.35H1378.36V387.56H1375.95ZM1375.95 400V389.2H1378.36V400H1375.95ZM1388.83 400V394.8C1388.83 394.46 1388.8 394.083 1388.76 393.67C1388.71 393.257 1388.6 392.86 1388.43 392.48C1388.26 392.093 1388.01 391.777 1387.67 391.53C1387.33 391.283 1386.88 391.16 1386.31 391.16C1386 391.16 1385.7 391.21 1385.4 391.31C1385.1 391.41 1384.82 391.583 1384.58 391.83C1384.34 392.07 1384.14 392.403 1384 392.83C1383.85 393.25 1383.78 393.79 1383.78 394.45L1382.35 393.84C1382.35 392.92 1382.52 392.087 1382.88 391.34C1383.24 390.593 1383.76 390 1384.46 389.56C1385.15 389.113 1386 388.89 1387.02 388.89C1387.82 388.89 1388.48 389.023 1389 389.29C1389.52 389.557 1389.93 389.897 1390.24 390.31C1390.54 390.723 1390.77 391.163 1390.92 391.63C1391.06 392.097 1391.16 392.54 1391.2 392.96C1391.24 393.373 1391.27 393.71 1391.27 393.97V400H1388.83ZM1381.34 400V389.2H1383.49V392.55H1383.78V400H1381.34ZM1398.41 405.1C1397.81 405.1 1397.24 405.007 1396.68 404.82C1396.14 404.633 1395.64 404.363 1395.2 404.01C1394.76 403.663 1394.4 403.243 1394.12 402.75L1396.34 401.65C1396.55 402.043 1396.84 402.333 1397.21 402.52C1397.59 402.713 1398 402.81 1398.42 402.81C1398.92 402.81 1399.37 402.72 1399.76 402.54C1400.16 402.367 1400.46 402.107 1400.67 401.76C1400.89 401.42 1401 400.993 1400.98 400.48V397.41H1401.28V389.2H1403.39V400.52C1403.39 400.793 1403.38 401.053 1403.35 401.3C1403.33 401.553 1403.3 401.8 1403.24 402.04C1403.08 402.74 1402.78 403.313 1402.32 403.76C1401.87 404.213 1401.31 404.55 1400.63 404.77C1399.97 404.99 1399.23 405.1 1398.41 405.1ZM1398.2 400.3C1397.21 400.3 1396.34 400.05 1395.6 399.55C1394.86 399.05 1394.29 398.37 1393.88 397.51C1393.48 396.65 1393.27 395.68 1393.27 394.6C1393.27 393.507 1393.48 392.533 1393.88 391.68C1394.3 390.82 1394.88 390.143 1395.63 389.65C1396.39 389.15 1397.27 388.9 1398.29 388.9C1399.32 388.9 1400.18 389.15 1400.87 389.65C1401.57 390.143 1402.1 390.82 1402.46 391.68C1402.82 392.54 1403 393.513 1403 394.6C1403 395.673 1402.82 396.643 1402.46 397.51C1402.1 398.37 1401.57 399.05 1400.85 399.55C1400.14 400.05 1399.26 400.3 1398.2 400.3ZM1398.57 398.14C1399.22 398.14 1399.74 397.993 1400.13 397.7C1400.53 397.4 1400.82 396.983 1401 396.45C1401.19 395.917 1401.28 395.3 1401.28 394.6C1401.28 393.893 1401.19 393.277 1401 392.75C1400.82 392.217 1400.54 391.803 1400.15 391.51C1399.77 391.21 1399.27 391.06 1398.65 391.06C1398.01 391.06 1397.47 391.22 1397.05 391.54C1396.63 391.853 1396.32 392.28 1396.12 392.82C1395.92 393.353 1395.82 393.947 1395.82 394.6C1395.82 395.26 1395.92 395.86 1396.11 396.4C1396.31 396.933 1396.62 397.357 1397.02 397.67C1397.43 397.983 1397.95 398.14 1398.57 398.14Z" fill="white"/>
<path fill-rule="evenodd" clip-rule="evenodd" d="M1399.95 206.656L1391.8 204.065C1391.63 203.98 1391.44 203.933 1391.25 203.929C1391.09 203.923 1390.93 203.953 1390.77 204.014L1389.86 206.776C1389.3 212.239 1385.8 214.93 1382.52 214.975C1379.23 214.93 1375.73 212.239 1375.17 206.787L1374.45 204.065C1374.25 203.945 1374.01 203.878 1373.78 203.884C1373.52 203.89 1373.27 203.972 1373.06 204.12L1365.08 206.654L1359.17 234.662V274.406C1359.17 275.112 1359.74 275.686 1360.45 275.686H1404.58C1405.29 275.69 1405.87 275.114 1405.87 274.402V234.666L1399.95 206.656Z" fill="black" stroke="white" stroke-width="1.948" stroke-miterlimit="10"/>
<path fill-rule="evenodd" clip-rule="evenodd" d="M1381.8 227.553L1373.66 224.962C1373.49 224.876 1373.3 224.829 1373.11 224.825C1372.95 224.819 1372.78 224.85 1372.63 224.911L1371.72 227.673C1371.16 233.136 1367.66 235.826 1364.37 235.871C1361.09 235.826 1357.59 233.136 1357.03 227.683L1356.31 224.962C1356.1 224.842 1355.87 224.774 1355.63 224.78C1355.38 224.787 1355.13 224.868 1354.92 225.017L1346.94 227.551L1341.02 255.558V295.303C1341.02 296.008 1341.6 296.583 1342.3 296.583H1386.44C1387.15 296.587 1387.73 296.01 1387.72 295.299V255.562L1381.8 227.553Z" fill="black" stroke="white" stroke-width="1.948" stroke-miterlimit="10"/>
<path d="M1314.5 192.33H1321.57C1322.95 192.33 1324.07 193.451 1324.07 194.831V201.9C1324.07 203.28 1322.95 204.399 1321.57 204.399H1314.5C1313.12 204.399 1312 203.278 1312 201.9V194.831C1312 193.451 1313.12 192.33 1314.5 192.33Z" fill="white"/>
<path d="M1328.97 192.33H1336.04C1337.42 192.33 1338.54 193.451 1338.54 194.831V201.9C1338.54 203.28 1337.42 204.399 1336.04 204.399H1328.97C1327.59 204.399 1326.47 203.278 1326.47 201.9V194.831C1326.47 193.451 1327.59 192.33 1328.97 192.33Z" fill="white"/>
<path d="M1343.44 192.33H1350.51C1351.89 192.33 1353.01 193.451 1353.01 194.831V201.9C1353.01 203.28 1351.89 204.399 1350.51 204.399H1343.44C1342.06 204.399 1340.94 203.278 1340.94 201.9V194.831C1340.94 193.451 1342.06 192.33 1343.44 192.33Z" fill="white"/>
<path d="M1314.5 193.587H1321.57C1322.25 193.587 1322.81 194.143 1322.81 194.83V201.897C1322.81 202.582 1322.26 203.141 1321.57 203.141H1314.5C1313.81 203.141 1313.26 202.584 1313.26 201.897V194.828C1313.26 194.143 1313.81 193.587 1314.5 193.587H1314.5Z" fill="white"/>
<path d="M1328.97 193.587H1336.04C1336.72 193.587 1337.28 194.143 1337.28 194.83V201.897C1337.28 202.582 1336.73 203.141 1336.04 203.141H1328.97C1328.28 203.141 1327.73 202.584 1327.73 201.897V194.828C1327.73 194.143 1328.28 193.587 1328.97 193.587H1328.97Z" fill="white"/>
<path d="M1343.44 193.587H1350.51C1351.2 193.587 1351.76 194.143 1351.76 194.83V201.897C1351.76 202.582 1351.2 203.141 1350.51 203.141H1343.44C1342.76 203.141 1342.2 202.584 1342.2 201.897V194.828C1342.2 194.143 1342.76 193.587 1343.44 193.587Z" fill="white"/>
<path d="M1336.04 164H1328.97C1327.59 164 1326.47 165.119 1326.47 166.499V173.568C1326.47 174.948 1327.59 176.067 1328.97 176.067H1336.04C1337.42 176.067 1338.54 174.948 1338.54 173.568V166.499C1338.54 165.119 1337.42 164 1336.04 164Z" fill="#C5E7E3"/>
<path d="M1314.5 192.33H1321.57C1322.95 192.33 1324.07 193.451 1324.07 194.831V201.9C1324.07 203.28 1322.95 204.399 1321.57 204.399H1314.5C1313.12 204.399 1312 203.278 1312 201.9V194.831C1312 193.451 1313.12 192.33 1314.5 192.33Z" fill="white"/>
<path d="M1328.97 192.33H1336.04C1337.42 192.33 1338.54 193.451 1338.54 194.831V201.9C1338.54 203.28 1337.42 204.399 1336.04 204.399H1328.97C1327.59 204.399 1326.47 203.278 1326.47 201.9V194.831C1326.47 193.451 1327.59 192.33 1328.97 192.33Z" fill="#C5E7E3"/>
<path d="M1343.44 192.33H1350.51C1351.89 192.33 1353.01 193.451 1353.01 194.831V201.9C1353.01 203.28 1351.89 204.399 1350.51 204.399H1343.44C1342.06 204.399 1340.94 203.278 1340.94 201.9V194.831C1340.94 193.451 1342.06 192.33 1343.44 192.33Z" fill="white"/>
<path d="M1314.5 193.587H1321.57C1322.25 193.587 1322.81 194.143 1322.81 194.83V201.897C1322.81 202.582 1322.26 203.141 1321.57 203.141H1314.5C1313.81 203.141 1313.26 202.584 1313.26 201.897V194.828C1313.26 194.143 1313.81 193.587 1314.5 193.587H1314.5Z" fill="black"/>
<path d="M1328.97 193.587H1336.04C1336.72 193.587 1337.28 194.143 1337.28 194.83V201.897C1337.28 202.582 1336.73 203.141 1336.04 203.141H1328.97C1328.28 203.141 1327.73 202.584 1327.73 201.897V194.828C1327.73 194.143 1328.28 193.587 1328.97 193.587H1328.97Z" fill="black"/>
<path d="M1343.44 193.587H1350.51C1351.2 193.587 1351.76 194.143 1351.76 194.83V201.897C1351.76 202.582 1351.2 203.141 1350.51 203.141H1343.44C1342.76 203.141 1342.2 202.584 1342.2 201.897V194.828C1342.2 194.143 1342.76 193.587 1343.44 193.587Z" fill="black"/>
<path fill-rule="evenodd" clip-rule="evenodd" d="M1418.09 187.395L1409.94 184.805C1409.77 184.719 1409.58 184.672 1409.39 184.668C1409.23 184.662 1409.07 184.692 1408.91 184.754L1408 187.516C1407.44 192.979 1403.94 195.669 1400.66 195.714C1397.37 195.669 1393.87 192.979 1393.31 187.526L1392.59 184.805C1392.39 184.684 1392.15 184.617 1391.92 184.623C1391.66 184.629 1391.41 184.711 1391.2 184.86L1383.22 187.393L1377.31 215.401V255.145C1377.31 255.851 1377.88 256.426 1378.59 256.426H1422.72C1423.43 256.43 1424.01 255.853 1424.01 255.141V215.405L1418.09 187.395Z" fill="black" stroke="white" stroke-width="1.948" stroke-miterlimit="10"/>
<path fill-rule="evenodd" clip-rule="evenodd" d="M1399.95 206.656L1391.8 204.065C1391.63 203.98 1391.44 203.933 1391.25 203.929C1391.09 203.923 1390.93 203.953 1390.77 204.014L1389.86 206.776C1389.3 212.239 1385.8 214.93 1382.52 214.975C1379.23 214.93 1375.73 212.239 1375.17 206.787L1374.45 204.065C1374.25 203.945 1374.01 203.878 1373.78 203.884C1373.52 203.89 1373.27 203.972 1373.06 204.12L1365.08 206.654L1359.17 234.662V274.406C1359.17 275.112 1359.74 275.686 1360.45 275.686H1404.58C1405.29 275.69 1405.87 275.114 1405.87 274.402V234.666L1399.95 206.656Z" fill="black" stroke="#C5E7E3" stroke-width="1.948" stroke-miterlimit="10"/>
<path fill-rule="evenodd" clip-rule="evenodd" d="M1381.8 227.553L1373.66 224.962C1373.49 224.876 1373.3 224.829 1373.11 224.825C1372.95 224.819 1372.78 224.85 1372.63 224.911L1371.72 227.673C1371.16 233.136 1367.66 235.826 1364.37 235.871C1361.09 235.826 1357.59 233.136 1357.03 227.683L1356.31 224.962C1356.1 224.842 1355.87 224.774 1355.63 224.78C1355.38 224.787 1355.13 224.868 1354.92 225.017L1346.94 227.551L1341.02 255.558V295.303C1341.02 296.008 1341.6 296.583 1342.3 296.583H1386.44C1387.15 296.587 1387.73 296.01 1387.72 295.299V255.562L1381.8 227.553Z" fill="black" stroke="white" stroke-width="1.948" stroke-miterlimit="10"/>
<path d="M1332.05 181.112H1318.47V189.59L1318.92 188.973C1319.06 188.769 1319.35 188.722 1319.55 188.869C1319.76 189.015 1319.8 189.301 1319.66 189.505L1318.4 191.239L1318.4 191.247L1318.4 191.253L1318.39 191.26C1318.39 191.268 1318.38 191.276 1318.37 191.284C1318.36 191.298 1318.35 191.313 1318.34 191.325C1318.33 191.331 1318.33 191.335 1318.32 191.339C1318.32 191.343 1318.31 191.347 1318.31 191.349C1318.3 191.353 1318.3 191.357 1318.29 191.364L1318.28 191.37C1318.28 191.372 1318.28 191.374 1318.27 191.376C1318.27 191.378 1318.27 191.382 1318.26 191.384L1318.26 191.386L1318.25 191.388L1318.25 191.39C1318.24 191.394 1318.23 191.398 1318.22 191.4C1318.22 191.402 1318.21 191.404 1318.21 191.406C1318.2 191.41 1318.2 191.412 1318.19 191.415C1318.19 191.417 1318.18 191.419 1318.18 191.421C1318.16 191.425 1318.15 191.429 1318.14 191.433C1318.13 191.433 1318.13 191.437 1318.12 191.439C1318.11 191.439 1318.11 191.441 1318.1 191.443C1318.09 191.445 1318.08 191.447 1318.07 191.449H1318.07H1318.06C1318.05 191.449 1318.04 191.451 1318.03 191.451C1318.02 191.451 1318.01 191.451 1317.99 191.451H1317.99C1317.99 191.451 1317.97 191.451 1317.97 191.451C1317.96 191.451 1317.96 191.451 1317.96 191.451H1317.95H1317.95H1317.94C1317.93 191.451 1317.92 191.447 1317.91 191.445C1317.91 191.445 1317.91 191.445 1317.9 191.443C1317.89 191.441 1317.88 191.439 1317.87 191.435H1317.87C1317.87 191.435 1317.86 191.431 1317.85 191.429C1317.85 191.429 1317.85 191.427 1317.84 191.425L1317.84 191.421C1317.83 191.417 1317.82 191.412 1317.81 191.408L1317.8 191.404C1317.8 191.4 1317.79 191.396 1317.78 191.392L1317.78 191.39L1317.77 191.386L1317.77 191.38C1317.76 191.378 1317.76 191.374 1317.75 191.372C1317.75 191.368 1317.74 191.366 1317.74 191.362L1317.73 191.357C1317.73 191.353 1317.72 191.349 1317.72 191.345C1317.71 191.339 1317.7 191.331 1317.7 191.325L1317.69 191.321C1317.69 191.315 1317.68 191.306 1317.67 191.3L1317.67 191.298L1317.67 191.292L1317.66 191.286C1317.65 191.274 1317.65 191.262 1317.64 191.247C1317.63 191.243 1317.63 191.239 1317.63 191.233L1316.38 189.507C1316.24 189.303 1316.28 189.017 1316.49 188.871C1316.69 188.724 1316.98 188.769 1317.12 188.975L1317.57 189.592V180.66C1317.57 180.409 1317.77 180.203 1318.02 180.203H1332.06" fill="white"/>
<path d="M1332.96 180.199H1347C1347.25 180.199 1347.45 180.402 1347.45 180.655V189.587L1347.9 188.97C1348.04 188.766 1348.33 188.719 1348.53 188.866C1348.74 189.013 1348.78 189.298 1348.64 189.502L1347.38 191.249C1347.38 191.249 1347.38 191.253 1347.38 191.255C1347.38 191.255 1347.37 191.259 1347.37 191.261V191.265C1347.37 191.265 1347.37 191.269 1347.37 191.271C1347.36 191.277 1347.36 191.281 1347.35 191.285C1347.35 191.289 1347.35 191.292 1347.35 191.296C1347.34 191.306 1347.33 191.314 1347.32 191.324C1347.32 191.324 1347.32 191.326 1347.32 191.328C1347.31 191.336 1347.3 191.343 1347.29 191.349C1347.29 191.349 1347.29 191.351 1347.29 191.353C1347.28 191.357 1347.28 191.359 1347.27 191.363C1347.27 191.365 1347.27 191.367 1347.26 191.369C1347.26 191.369 1347.26 191.371 1347.26 191.373C1347.26 191.373 1347.26 191.375 1347.25 191.377C1347.25 191.377 1347.25 191.379 1347.25 191.381C1347.25 191.381 1347.24 191.385 1347.24 191.387C1347.24 191.387 1347.24 191.391 1347.23 191.393C1347.23 191.393 1347.23 191.393 1347.23 191.395C1347.22 191.4 1347.22 191.404 1347.21 191.406C1347.21 191.406 1347.2 191.41 1347.2 191.41C1347.2 191.41 1347.2 191.41 1347.2 191.41C1347.2 191.41 1347.19 191.41 1347.19 191.412C1347.18 191.414 1347.18 191.416 1347.17 191.418C1347.16 191.422 1347.15 191.426 1347.14 191.43C1347.14 191.43 1347.13 191.434 1347.13 191.434C1347.12 191.438 1347.11 191.44 1347.09 191.442C1347.09 191.442 1347.09 191.442 1347.09 191.442C1347.08 191.442 1347.07 191.444 1347.06 191.446C1347.06 191.446 1347.06 191.446 1347.05 191.446C1347.05 191.446 1347.04 191.446 1347.04 191.446C1347.02 191.446 1347 191.448 1346.98 191.446C1346.97 191.446 1346.97 191.446 1346.97 191.446C1346.96 191.446 1346.96 191.446 1346.95 191.446C1346.95 191.446 1346.94 191.446 1346.94 191.446C1346.94 191.446 1346.94 191.446 1346.93 191.446C1346.93 191.446 1346.93 191.446 1346.93 191.446C1346.93 191.446 1346.93 191.446 1346.92 191.446C1346.9 191.442 1346.88 191.436 1346.85 191.428C1346.85 191.428 1346.84 191.424 1346.84 191.422C1346.84 191.422 1346.83 191.422 1346.83 191.42C1346.83 191.42 1346.83 191.42 1346.83 191.418C1346.82 191.414 1346.81 191.41 1346.8 191.406C1346.8 191.406 1346.8 191.404 1346.79 191.402C1346.79 191.398 1346.78 191.393 1346.77 191.389C1346.77 191.387 1346.77 191.385 1346.76 191.383C1346.76 191.383 1346.76 191.379 1346.75 191.377C1346.75 191.375 1346.75 191.371 1346.74 191.369C1346.74 191.365 1346.73 191.363 1346.73 191.359C1346.72 191.359 1346.72 191.357 1346.72 191.355C1346.72 191.351 1346.71 191.347 1346.71 191.342C1346.69 191.328 1346.68 191.312 1346.66 191.296C1346.66 191.296 1346.66 191.296 1346.66 191.294C1346.66 191.294 1346.66 191.289 1346.66 191.287C1346.66 191.287 1346.65 191.283 1346.65 191.281C1346.64 191.269 1346.63 191.257 1346.62 191.243C1346.62 191.239 1346.62 191.234 1346.62 191.228L1345.37 189.502C1345.22 189.298 1345.27 189.013 1345.47 188.866C1345.68 188.719 1345.96 188.764 1346.11 188.97L1346.55 189.585V181.11H1332.98" fill="white"/>
<path d="M1334.23 189.256C1334.23 189.338 1334.21 189.439 1334.15 189.521L1332.9 191.254H1332.88V191.274C1332.86 191.315 1332.82 191.356 1332.78 191.376C1332.76 191.376 1332.76 191.396 1332.76 191.396H1332.74C1332.74 191.417 1332.72 191.417 1332.72 191.417H1332.7L1332.68 191.437C1332.66 191.437 1332.64 191.437 1332.64 191.457H1332.44C1332.41 191.457 1332.39 191.457 1332.35 191.437H1332.33L1332.31 191.417H1332.29L1332.27 191.396H1332.25V191.376H1332.23V191.356H1332.21C1332.19 191.335 1332.17 191.315 1332.17 191.294H1332.15C1332.15 191.274 1332.13 191.274 1332.13 191.254C1332.13 191.254 1332.11 191.254 1332.11 191.233L1330.87 189.521C1330.72 189.317 1330.76 189.032 1330.97 188.869C1331.17 188.726 1331.46 188.787 1331.6 188.991L1332.05 189.603V177.454C1332.05 177.189 1332.25 176.985 1332.52 176.985C1332.76 176.985 1332.97 177.189 1332.97 177.454V189.603L1333.41 188.991C1333.56 188.787 1333.84 188.726 1334.05 188.889C1334.17 188.971 1334.23 189.113 1334.23 189.256Z" fill="#C5E7E3"/>
<path d="M1016.89 370V355.6H1022.84C1022.98 355.6 1023.16 355.607 1023.38 355.62C1023.6 355.627 1023.81 355.647 1023.99 355.68C1024.83 355.807 1025.51 356.083 1026.05 356.51C1026.6 356.937 1027 357.477 1027.26 358.13C1027.53 358.777 1027.66 359.497 1027.66 360.29C1027.66 361.463 1027.37 362.473 1026.77 363.32C1026.18 364.16 1025.27 364.68 1024.04 364.88L1023.01 364.97H1019.3V370H1016.89ZM1025.16 370L1022.32 364.14L1024.77 363.6L1027.89 370H1025.16ZM1019.3 362.72H1022.74C1022.88 362.72 1023.03 362.713 1023.19 362.7C1023.36 362.687 1023.51 362.66 1023.65 362.62C1024.05 362.52 1024.37 362.343 1024.59 362.09C1024.83 361.837 1024.99 361.55 1025.08 361.23C1025.18 360.91 1025.23 360.597 1025.23 360.29C1025.23 359.983 1025.18 359.67 1025.08 359.35C1024.99 359.023 1024.83 358.733 1024.59 358.48C1024.37 358.227 1024.05 358.05 1023.65 357.95C1023.51 357.91 1023.36 357.887 1023.19 357.88C1023.03 357.867 1022.88 357.86 1022.74 357.86H1019.3V362.72ZM1034.87 370.3C1033.79 370.3 1032.84 370.057 1032.04 369.57C1031.23 369.083 1030.6 368.413 1030.16 367.56C1029.72 366.7 1029.5 365.713 1029.5 364.6C1029.5 363.467 1029.72 362.473 1030.18 361.62C1030.63 360.767 1031.26 360.1 1032.07 359.62C1032.87 359.14 1033.81 358.9 1034.87 358.9C1035.95 358.9 1036.9 359.143 1037.71 359.63C1038.51 360.117 1039.14 360.79 1039.59 361.65C1040.03 362.503 1040.26 363.487 1040.26 364.6C1040.26 365.72 1040.03 366.71 1039.58 367.57C1039.13 368.423 1038.5 369.093 1037.7 369.58C1036.89 370.06 1035.95 370.3 1034.87 370.3ZM1034.87 368.04C1035.83 368.04 1036.54 367.72 1037.01 367.08C1037.47 366.44 1037.71 365.613 1037.71 364.6C1037.71 363.553 1037.47 362.72 1037 362.1C1036.52 361.473 1035.81 361.16 1034.87 361.16C1034.22 361.16 1033.69 361.307 1033.27 361.6C1032.85 361.887 1032.55 362.29 1032.35 362.81C1032.15 363.323 1032.05 363.92 1032.05 364.6C1032.05 365.647 1032.28 366.483 1032.76 367.11C1033.24 367.73 1033.94 368.04 1034.87 368.04ZM1047.65 370.3C1046.6 370.3 1045.71 370.05 1045 369.55C1044.29 369.05 1043.75 368.37 1043.39 367.51C1043.03 366.643 1042.85 365.673 1042.85 364.6C1042.85 363.513 1043.03 362.54 1043.39 361.68C1043.75 360.82 1044.28 360.143 1044.97 359.65C1045.67 359.15 1046.53 358.9 1047.56 358.9C1048.58 358.9 1049.46 359.15 1050.21 359.65C1050.96 360.143 1051.55 360.82 1051.96 361.68C1052.37 362.533 1052.58 363.507 1052.58 364.6C1052.58 365.68 1052.38 366.65 1051.97 367.51C1051.56 368.37 1050.99 369.05 1050.25 369.55C1049.51 370.05 1048.64 370.3 1047.65 370.3ZM1042.44 370V355.6H1044.87V362.42H1044.57V370H1042.44ZM1047.28 368.14C1047.91 368.14 1048.42 367.983 1048.83 367.67C1049.24 367.357 1049.54 366.933 1049.73 366.4C1049.93 365.86 1050.03 365.26 1050.03 364.6C1050.03 363.947 1049.93 363.353 1049.73 362.82C1049.53 362.28 1049.22 361.853 1048.8 361.54C1048.38 361.22 1047.85 361.06 1047.2 361.06C1046.59 361.06 1046.09 361.21 1045.7 361.51C1045.31 361.803 1045.03 362.217 1044.84 362.75C1044.66 363.277 1044.57 363.893 1044.57 364.6C1044.57 365.3 1044.66 365.917 1044.84 366.45C1045.03 366.983 1045.32 367.4 1045.71 367.7C1046.11 367.993 1046.63 368.14 1047.28 368.14ZM1059.55 370.3C1058.47 370.3 1057.53 370.057 1056.72 369.57C1055.92 369.083 1055.29 368.413 1054.84 367.56C1054.4 366.7 1054.18 365.713 1054.18 364.6C1054.18 363.467 1054.41 362.473 1054.86 361.62C1055.32 360.767 1055.95 360.1 1056.75 359.62C1057.56 359.14 1058.49 358.9 1059.55 358.9C1060.64 358.9 1061.59 359.143 1062.39 359.63C1063.2 360.117 1063.83 360.79 1064.27 361.65C1064.72 362.503 1064.94 363.487 1064.94 364.6C1064.94 365.72 1064.72 366.71 1064.26 367.57C1063.82 368.423 1063.19 369.093 1062.38 369.58C1061.58 370.06 1060.63 370.3 1059.55 370.3ZM1059.55 368.04C1060.51 368.04 1061.23 367.72 1061.69 367.08C1062.16 366.44 1062.39 365.613 1062.39 364.6C1062.39 363.553 1062.16 362.72 1061.68 362.1C1061.21 361.473 1060.5 361.16 1059.55 361.16C1058.91 361.16 1058.37 361.307 1057.95 361.6C1057.54 361.887 1057.23 362.29 1057.03 362.81C1056.83 363.323 1056.73 363.92 1056.73 364.6C1056.73 365.647 1056.97 366.483 1057.44 367.11C1057.92 367.73 1058.63 368.04 1059.55 368.04ZM1073.48 370C1072.76 370.133 1072.06 370.19 1071.38 370.17C1070.7 370.157 1070.09 370.033 1069.55 369.8C1069.01 369.56 1068.6 369.183 1068.32 368.67C1068.07 368.203 1067.94 367.727 1067.93 367.24C1067.91 366.753 1067.91 366.203 1067.91 365.59V356.2H1070.31V365.45C1070.31 365.883 1070.31 366.263 1070.32 366.59C1070.33 366.917 1070.4 367.183 1070.53 367.39C1070.77 367.79 1071.15 368.013 1071.68 368.06C1072.2 368.107 1072.8 368.08 1073.48 367.98V370ZM1065.95 361.09V359.2H1073.48V361.09H1065.95ZM1076 357.56V355.35H1078.41V357.56H1076ZM1076 370V359.2H1078.41V370H1076ZM1086.09 370.3C1084.98 370.3 1084.03 370.053 1083.24 369.56C1082.46 369.06 1081.85 368.38 1081.43 367.52C1081.02 366.66 1080.81 365.687 1080.8 364.6C1080.81 363.493 1081.03 362.513 1081.45 361.66C1081.89 360.8 1082.5 360.127 1083.29 359.64C1084.09 359.147 1085.03 358.9 1086.12 358.9C1087.35 358.9 1088.39 359.21 1089.23 359.83C1090.09 360.443 1090.64 361.283 1090.9 362.35L1088.5 363C1088.32 362.42 1088.01 361.97 1087.57 361.65C1087.14 361.323 1086.65 361.16 1086.09 361.16C1085.47 361.16 1084.95 361.31 1084.54 361.61C1084.14 361.903 1083.84 362.31 1083.64 362.83C1083.45 363.35 1083.35 363.94 1083.35 364.6C1083.35 365.627 1083.58 366.457 1084.04 367.09C1084.5 367.723 1085.19 368.04 1086.09 368.04C1086.73 368.04 1087.24 367.893 1087.6 367.6C1087.98 367.307 1088.26 366.883 1088.44 366.33L1090.9 366.88C1090.57 367.98 1089.99 368.827 1089.15 369.42C1088.32 370.007 1087.3 370.3 1086.09 370.3ZM993.679 400V385.6H998.269C998.389 385.6 998.626 385.603 998.979 385.61C999.339 385.617 999.686 385.64 1000.02 385.68C1001.16 385.827 1002.12 386.233 1002.91 386.9C1003.7 387.56 1004.3 388.403 1004.71 389.43C1005.12 390.457 1005.32 391.58 1005.32 392.8C1005.32 394.02 1005.12 395.143 1004.71 396.17C1004.3 397.197 1003.7 398.043 1002.91 398.71C1002.12 399.37 1001.16 399.773 1000.02 399.92C999.693 399.96 999.349 399.983 998.989 399.99C998.629 399.997 998.389 400 998.269 400H993.679ZM996.129 397.73H998.269C998.469 397.73 998.723 397.723 999.029 397.71C999.343 397.697 999.619 397.667 999.859 397.62C1000.54 397.493 1001.09 397.19 1001.52 396.71C1001.95 396.23 1002.26 395.647 1002.46 394.96C1002.67 394.273 1002.77 393.553 1002.77 392.8C1002.77 392.02 1002.67 391.287 1002.46 390.6C1002.25 389.913 1001.93 389.337 1001.5 388.87C1001.07 388.403 1000.53 388.107 999.859 387.98C999.619 387.927 999.343 387.897 999.029 387.89C998.723 387.877 998.469 387.87 998.269 387.87H996.129V397.73ZM1007.88 387.56V385.35H1010.29V387.56H1007.88ZM1007.88 400V389.2H1010.29V400H1007.88ZM1017.46 400.3C1016.13 400.3 1015.04 400 1014.21 399.4C1013.38 398.8 1012.87 397.957 1012.69 396.87L1015.15 396.49C1015.28 397.023 1015.56 397.443 1015.99 397.75C1016.42 398.057 1016.97 398.21 1017.63 398.21C1018.21 398.21 1018.66 398.097 1018.97 397.87C1019.29 397.637 1019.45 397.32 1019.45 396.92C1019.45 396.673 1019.39 396.477 1019.27 396.33C1019.16 396.177 1018.9 396.03 1018.51 395.89C1018.12 395.75 1017.51 395.573 1016.7 395.36C1015.79 395.12 1015.07 394.863 1014.54 394.59C1014.01 394.31 1013.62 393.98 1013.39 393.6C1013.16 393.22 1013.04 392.76 1013.04 392.22C1013.04 391.547 1013.22 390.96 1013.57 390.46C1013.92 389.96 1014.42 389.577 1015.05 389.31C1015.68 389.037 1016.43 388.9 1017.29 388.9C1018.13 388.9 1018.87 389.03 1019.52 389.29C1020.17 389.55 1020.7 389.92 1021.1 390.4C1021.5 390.88 1021.75 391.443 1021.84 392.09L1019.38 392.53C1019.32 392.07 1019.11 391.707 1018.75 391.44C1018.4 391.173 1017.92 391.023 1017.33 390.99C1016.76 390.957 1016.31 391.043 1015.96 391.25C1015.61 391.45 1015.44 391.733 1015.44 392.1C1015.44 392.307 1015.51 392.483 1015.65 392.63C1015.79 392.777 1016.07 392.923 1016.49 393.07C1016.92 393.217 1017.55 393.397 1018.39 393.61C1019.25 393.83 1019.94 394.083 1020.45 394.37C1020.97 394.65 1021.34 394.987 1021.57 395.38C1021.8 395.773 1021.92 396.25 1021.92 396.81C1021.92 397.897 1021.52 398.75 1020.73 399.37C1019.94 399.99 1018.85 400.3 1017.46 400.3ZM1027.13 400.3C1026.35 400.3 1025.69 400.153 1025.15 399.86C1024.61 399.56 1024.2 399.163 1023.92 398.67C1023.65 398.177 1023.51 397.633 1023.51 397.04C1023.51 396.52 1023.6 396.053 1023.77 395.64C1023.94 395.22 1024.21 394.86 1024.57 394.56C1024.93 394.253 1025.4 394.003 1025.97 393.81C1026.4 393.67 1026.91 393.543 1027.49 393.43C1028.08 393.317 1028.71 393.213 1029.39 393.12C1030.08 393.02 1030.79 392.913 1031.54 392.8L1030.68 393.29C1030.69 392.543 1030.52 391.993 1030.18 391.64C1029.84 391.287 1029.27 391.11 1028.46 391.11C1027.97 391.11 1027.5 391.223 1027.05 391.45C1026.6 391.677 1026.28 392.067 1026.1 392.62L1023.9 391.93C1024.17 391.017 1024.67 390.283 1025.42 389.73C1026.17 389.177 1027.19 388.9 1028.46 388.9C1029.42 388.9 1030.26 389.057 1030.99 389.37C1031.72 389.683 1032.27 390.197 1032.62 390.91C1032.81 391.29 1032.93 391.68 1032.97 392.08C1033.01 392.473 1033.03 392.903 1033.03 393.37V400H1030.92V397.66L1031.27 398.04C1030.78 398.82 1030.21 399.393 1029.56 399.76C1028.91 400.12 1028.1 400.3 1027.13 400.3ZM1027.61 398.38C1028.16 398.38 1028.62 398.283 1029.01 398.09C1029.4 397.897 1029.7 397.66 1029.93 397.38C1030.16 397.1 1030.32 396.837 1030.4 396.59C1030.53 396.283 1030.6 395.933 1030.61 395.54C1030.63 395.14 1030.64 394.817 1030.64 394.57L1031.38 394.79C1030.65 394.903 1030.03 395.003 1029.51 395.09C1028.99 395.177 1028.54 395.26 1028.17 395.34C1027.8 395.413 1027.47 395.497 1027.18 395.59C1026.9 395.69 1026.66 395.807 1026.47 395.94C1026.28 396.073 1026.13 396.227 1026.02 396.4C1025.92 396.573 1025.87 396.777 1025.87 397.01C1025.87 397.277 1025.94 397.513 1026.07 397.72C1026.2 397.92 1026.4 398.08 1026.65 398.2C1026.91 398.32 1027.23 398.38 1027.61 398.38ZM1039.8 400.3C1038.47 400.3 1037.39 400 1036.55 399.4C1035.72 398.8 1035.21 397.957 1035.03 396.87L1037.49 396.49C1037.62 397.023 1037.9 397.443 1038.33 397.75C1038.77 398.057 1039.31 398.21 1039.97 398.21C1040.55 398.21 1041 398.097 1041.31 397.87C1041.63 397.637 1041.79 397.32 1041.79 396.92C1041.79 396.673 1041.73 396.477 1041.61 396.33C1041.5 396.177 1041.25 396.03 1040.85 395.89C1040.46 395.75 1039.86 395.573 1039.04 395.36C1038.14 395.12 1037.42 394.863 1036.88 394.59C1036.35 394.31 1035.97 393.98 1035.73 393.6C1035.5 393.22 1035.38 392.76 1035.38 392.22C1035.38 391.547 1035.56 390.96 1035.91 390.46C1036.27 389.96 1036.76 389.577 1037.39 389.31C1038.03 389.037 1038.77 388.9 1039.63 388.9C1040.47 388.9 1041.22 389.03 1041.86 389.29C1042.52 389.55 1043.04 389.92 1043.44 390.4C1043.84 390.88 1044.09 391.443 1044.18 392.09L1041.72 392.53C1041.66 392.07 1041.45 391.707 1041.09 391.44C1040.74 391.173 1040.27 391.023 1039.67 390.99C1039.11 390.957 1038.65 391.043 1038.3 391.25C1037.96 391.45 1037.78 391.733 1037.78 392.1C1037.78 392.307 1037.85 392.483 1037.99 392.63C1038.13 392.777 1038.41 392.923 1038.83 393.07C1039.26 393.217 1039.89 393.397 1040.73 393.61C1041.59 393.83 1042.28 394.083 1042.79 394.37C1043.31 394.65 1043.69 394.987 1043.91 395.38C1044.15 395.773 1044.26 396.25 1044.26 396.81C1044.26 397.897 1043.87 398.75 1043.07 399.37C1042.29 399.99 1041.2 400.3 1039.8 400.3ZM1050.62 400.3C1049.29 400.3 1048.21 400 1047.37 399.4C1046.54 398.8 1046.03 397.957 1045.85 396.87L1048.31 396.49C1048.44 397.023 1048.72 397.443 1049.15 397.75C1049.59 398.057 1050.13 398.21 1050.79 398.21C1051.37 398.21 1051.82 398.097 1052.13 397.87C1052.45 397.637 1052.61 397.32 1052.61 396.92C1052.61 396.673 1052.55 396.477 1052.43 396.33C1052.32 396.177 1052.07 396.03 1051.67 395.89C1051.28 395.75 1050.68 395.573 1049.86 395.36C1048.96 395.12 1048.24 394.863 1047.7 394.59C1047.17 394.31 1046.79 393.98 1046.55 393.6C1046.32 393.22 1046.2 392.76 1046.2 392.22C1046.2 391.547 1046.38 390.96 1046.73 390.46C1047.09 389.96 1047.58 389.577 1048.21 389.31C1048.85 389.037 1049.59 388.9 1050.45 388.9C1051.29 388.9 1052.04 389.03 1052.68 389.29C1053.34 389.55 1053.86 389.92 1054.26 390.4C1054.66 390.88 1054.91 391.443 1055 392.09L1052.54 392.53C1052.48 392.07 1052.27 391.707 1051.91 391.44C1051.56 391.173 1051.09 391.023 1050.49 390.99C1049.93 390.957 1049.47 391.043 1049.12 391.25C1048.78 391.45 1048.6 391.733 1048.6 392.1C1048.6 392.307 1048.67 392.483 1048.81 392.63C1048.95 392.777 1049.23 392.923 1049.65 393.07C1050.08 393.217 1050.71 393.397 1051.55 393.61C1052.41 393.83 1053.1 394.083 1053.61 394.37C1054.13 394.65 1054.51 394.987 1054.73 395.38C1054.97 395.773 1055.08 396.25 1055.08 396.81C1055.08 397.897 1054.69 398.75 1053.89 399.37C1053.11 399.99 1052.02 400.3 1050.62 400.3ZM1062.18 400.3C1061.09 400.3 1060.13 400.063 1059.3 399.59C1058.48 399.117 1057.83 398.46 1057.36 397.62C1056.9 396.78 1056.67 395.813 1056.67 394.72C1056.67 393.54 1056.9 392.517 1057.35 391.65C1057.81 390.777 1058.44 390.1 1059.24 389.62C1060.05 389.14 1060.98 388.9 1062.04 388.9C1063.16 388.9 1064.11 389.163 1064.89 389.69C1065.68 390.21 1066.26 390.947 1066.64 391.9C1067.02 392.853 1067.17 393.977 1067.07 395.27H1064.68V394.39C1064.68 393.217 1064.47 392.36 1064.06 391.82C1063.66 391.28 1063.02 391.01 1062.14 391.01C1061.16 391.01 1060.42 391.317 1059.94 391.93C1059.46 392.537 1059.22 393.427 1059.22 394.6C1059.22 395.693 1059.46 396.54 1059.94 397.14C1060.42 397.74 1061.12 398.04 1062.04 398.04C1062.64 398.04 1063.15 397.91 1063.57 397.65C1064.01 397.383 1064.34 397 1064.57 396.5L1066.95 397.22C1066.54 398.193 1065.9 398.95 1065.03 399.49C1064.17 400.03 1063.22 400.3 1062.18 400.3ZM1058.46 395.27V393.45H1065.89V395.27H1058.46ZM1081.98 400V393.44C1081.98 392.7 1081.8 392.123 1081.43 391.71C1081.06 391.29 1080.57 391.08 1079.94 391.08C1079.55 391.08 1079.21 391.17 1078.9 391.35C1078.59 391.523 1078.35 391.783 1078.17 392.13C1077.99 392.47 1077.9 392.877 1077.9 393.35L1076.83 392.72C1076.82 391.973 1076.99 391.317 1077.33 390.75C1077.68 390.177 1078.14 389.73 1078.73 389.41C1079.32 389.09 1079.97 388.93 1080.69 388.93C1081.88 388.93 1082.8 389.29 1083.43 390.01C1084.07 390.723 1084.39 391.663 1084.39 392.83V400H1081.98ZM1068.99 400V389.2H1071.12V392.55H1071.42V400H1068.99ZM1075.5 400V393.47C1075.5 392.717 1075.32 392.13 1074.95 391.71C1074.58 391.29 1074.08 391.08 1073.45 391.08C1072.84 391.08 1072.34 391.29 1071.97 391.71C1071.6 392.13 1071.42 392.677 1071.42 393.35L1070.34 392.63C1070.34 391.93 1070.51 391.3 1070.86 390.74C1071.21 390.18 1071.67 389.74 1072.26 389.42C1072.85 389.093 1073.52 388.93 1074.25 388.93C1075.06 388.93 1075.73 389.103 1076.27 389.45C1076.82 389.79 1077.22 390.257 1077.49 390.85C1077.76 391.437 1077.9 392.1 1077.9 392.84V400H1075.5ZM1092.19 400.3C1091.14 400.3 1090.25 400.05 1089.54 399.55C1088.83 399.05 1088.29 398.37 1087.93 397.51C1087.57 396.643 1087.39 395.673 1087.39 394.6C1087.39 393.513 1087.57 392.54 1087.93 391.68C1088.29 390.82 1088.82 390.143 1089.51 389.65C1090.21 389.15 1091.07 388.9 1092.1 388.9C1093.12 388.9 1094 389.15 1094.75 389.65C1095.5 390.143 1096.09 390.82 1096.5 391.68C1096.91 392.533 1097.12 393.507 1097.12 394.6C1097.12 395.68 1096.92 396.65 1096.51 397.51C1096.1 398.37 1095.53 399.05 1094.79 399.55C1094.05 400.05 1093.18 400.3 1092.19 400.3ZM1086.98 400V385.6H1089.41V392.42H1089.11V400H1086.98ZM1091.82 398.14C1092.45 398.14 1092.96 397.983 1093.37 397.67C1093.78 397.357 1094.08 396.933 1094.27 396.4C1094.47 395.86 1094.57 395.26 1094.57 394.6C1094.57 393.947 1094.47 393.353 1094.27 392.82C1094.07 392.28 1093.76 391.853 1093.34 391.54C1092.92 391.22 1092.39 391.06 1091.74 391.06C1091.13 391.06 1090.63 391.21 1090.24 391.51C1089.85 391.803 1089.57 392.217 1089.38 392.75C1089.2 393.277 1089.11 393.893 1089.11 394.6C1089.11 395.3 1089.2 395.917 1089.38 396.45C1089.57 396.983 1089.86 397.4 1090.25 397.7C1090.65 397.993 1091.17 398.14 1091.82 398.14ZM1099.52 400V385.3H1101.93V400H1099.52ZM1106.35 404.8L1108.43 399.09L1108.47 400.77L1103.76 389.2H1106.27L1109.61 397.76H1108.97L1112.22 389.2H1114.63L1108.61 404.8H1106.35Z" fill="white"/>
<path fill-rule="evenodd" clip-rule="evenodd" d="M1093.15 223.61C1090.92 222.041 1088.19 222.153 1086.31 224.04L1086.31 224.036C1081.49 228.862 1088.81 236.177 1093.63 231.359C1095.84 229.16 1095.61 225.516 1093.15 223.61ZM1057.01 239.318C1060.38 240.221 1063.29 242.007 1065.53 244.352L1071.81 214.428C1071.68 214.51 1071.55 214.592 1071.41 214.676V214.68C1066.31 217.623 1059.81 215.884 1056.86 210.782H1056.85C1056.78 210.648 1056.7 210.508 1056.63 210.37L1047.1 239.424C1050.23 238.51 1053.64 238.414 1057 239.32L1057.01 239.318ZM1068.09 247.708C1071.87 254.143 1071.52 262.112 1067.08 268.113L1077.42 282.273C1080.21 282.273 1082.47 281.887 1084.41 283.833C1085.37 284.796 1085.97 286.126 1085.97 287.589V293.884C1085.97 294.768 1085.26 295.484 1084.37 295.484H1020.09C1019.21 295.484 1018.49 294.768 1018.49 293.884V287.589C1018.49 286.206 1019.12 284.68 1020.05 283.839L1020.05 283.835C1022 281.889 1024.26 282.275 1027.04 282.275L1037.39 268.111C1030.62 258.927 1033.94 245.955 1043.1 241.113L1043.21 241.053L1055.8 202.661C1056.57 199.841 1058.4 197.588 1060.75 196.226V196.222C1063.12 194.855 1066 194.393 1068.84 195.155C1070.79 195.68 1072.48 196.716 1073.78 198.083C1075.49 199.319 1091.25 219.154 1091.9 219.558C1092.79 219.77 1093.66 220.13 1094.46 220.638C1094.82 220.72 1100.6 219.55 1105.46 224.406L1114.3 233.252C1114.93 233.876 1114.93 234.886 1114.3 235.511L1110.72 239.088C1110.1 239.708 1109.1 239.712 1108.47 239.102L1098.75 231.069L1098.75 231.073C1098.48 230.809 1098.2 230.597 1097.89 230.43C1097.06 232.845 1095.14 234.766 1092.73 235.607L1101.49 246.285C1102.01 246.924 1101.96 247.85 1101.38 248.422L1101.39 248.426L1097.81 252.004C1097.19 252.628 1096.18 252.628 1095.55 252.004L1086.71 243.158C1081.87 238.32 1083.01 232.591 1082.93 232.223C1082.4 231.395 1082.02 230.492 1081.81 229.562L1073.38 222.521L1068.09 247.716L1068.09 247.708ZM1064.92 270.548C1063.87 271.54 1062.71 272.402 1061.46 273.119V273.123C1054.39 277.203 1045.47 276.162 1039.55 270.552L1030.99 282.275H1073.48L1064.92 270.548ZM1065.45 249.511C1069.66 256.838 1067.24 265.94 1059.87 270.366V270.362C1048.16 277.121 1033.98 266.32 1037.49 253.188C1041 240.107 1058.67 237.758 1065.45 249.511ZM1054.58 248.548C1052.22 247.884 1049.75 248.292 1047.78 249.429V249.433C1043.51 251.9 1042.05 257.336 1044.52 261.604L1044.52 261.6C1045.66 263.577 1047.55 265.115 1049.93 265.754C1057.54 267.797 1063.92 259.563 1059.95 252.69H1059.94C1058.81 250.721 1056.93 249.189 1054.58 248.548ZM1057.19 254.275C1056.46 253.012 1055.24 252.024 1053.72 251.618C1052.15 251.227 1050.68 251.435 1049.38 252.186H1049.37C1046.61 253.843 1045.7 257.276 1047.28 260.003H1047.27C1051.23 266.59 1060.9 260.719 1057.19 254.285H1057.19L1057.19 254.275ZM1080.66 285.47H1023.81C1023.23 285.47 1022.7 285.708 1022.31 286.094L1022.31 286.09C1021.93 286.477 1021.69 287.005 1021.69 287.591V292.287H1082.77V287.591C1082.78 286.424 1081.82 285.47 1080.66 285.47ZM1069.82 211.914L1069.82 211.918V211.914C1066.27 213.961 1061.79 212.807 1059.62 209.179L1059.62 209.175C1057.57 205.634 1058.73 201.154 1062.36 198.977V198.981C1064.01 198.027 1066.03 197.706 1068.02 198.239C1074.44 199.955 1075.54 208.609 1069.82 211.912L1069.82 211.914ZM1069.17 206.274C1069.4 205.424 1069.26 204.557 1068.85 203.851H1068.85C1067.41 201.376 1063.73 201.904 1063 204.623C1061.91 208.681 1068.08 210.334 1069.17 206.276L1069.17 206.274ZM1076.38 208.203L1076.71 206.326L1087.8 219.612C1086.43 219.98 1085.13 220.7 1084.06 221.779L1084.06 221.783C1083.06 222.685 1082.24 224.262 1081.9 225.486L1074.12 218.992L1076.38 208.203ZM1098.33 227.151L1101 228.798L1109.49 235.805L1110.92 234.378L1103.2 226.665C1101.6 225.06 1099.57 224.094 1097.39 223.812C1097.94 224.856 1098.25 225.997 1098.33 227.151ZM1089.46 236.055C1090.22 238.248 1096.27 244.965 1098.1 247.184L1096.68 248.61L1088.96 240.897C1087.37 239.306 1086.41 237.289 1086.12 235.13C1087.17 235.677 1088.31 235.985 1089.46 236.055Z" fill="#F1F2F2"/>
<path fill-rule="evenodd" clip-rule="evenodd" d="M1054.58 248.546C1052.22 247.882 1049.74 248.29 1047.78 249.427V249.431C1043.51 251.898 1042.05 257.334 1044.51 261.602L1044.52 261.598C1045.66 263.575 1047.55 265.113 1049.93 265.752C1057.54 267.794 1063.92 259.561 1059.95 252.688H1059.94C1058.81 250.719 1056.93 249.187 1054.58 248.546Z" fill="#B0B3DA"/>
<path fill-rule="evenodd" clip-rule="evenodd" d="M1057.19 254.274C1056.46 253.011 1055.24 252.023 1053.72 251.617C1052.15 251.226 1050.68 251.435 1049.38 252.185H1049.37C1046.61 253.842 1045.7 257.275 1047.28 260.002H1047.27C1051.23 266.589 1060.9 260.719 1057.19 254.284H1057.19L1057.19 254.274Z" fill="#231F20"/>
<path fill-rule="evenodd" clip-rule="evenodd" d="M1069.17 206.273C1069.4 205.422 1069.26 204.556 1068.85 203.85H1068.85C1067.41 201.375 1063.73 201.903 1063 204.622C1061.91 208.68 1068.08 210.333 1069.17 206.275L1069.17 206.273Z" fill="#B0B3DA"/>
<line x1="1005.5" y1="181.5" x2="995.5" y2="181.5" stroke="white" stroke-width="3" stroke-linecap="round"/>
<line x1="1002.5" y1="192.5" x2="990.5" y2="192.5" stroke="white" stroke-width="3" stroke-linecap="round"/>
<line x1="1005.5" y1="203.5" x2="995.5" y2="203.5" stroke="white" stroke-width="3" stroke-linecap="round"/>
<path d="M1027 182V191L1034.5 195.5" stroke="#9BA4E9" stroke-width="3" stroke-linecap="round"/>
<circle cx="1027" cy="191" r="16" stroke="white" stroke-width="3"/>
</g>
<defs>
<clipPath id="clip0_2324_28603">
<rect width="1728" height="550" fill="white"/>
</clipPath>
</defs>
</svg>
