<svg version="1.2" xmlns="http://www.w3.org/2000/svg" viewBox="0 0 1228 16" width="1228" height="16">
	<title>Line 61</title>
	<style>
		.s0 { fill: none;stroke: #ffffff;stroke-width: 2 } 
		.s1 { fill: #ffffff } 
	</style>
	<path fill-rule="evenodd" class="s0" d="m1 0v16"/>
	<path class="s1" d="m1227.7 8.7c0.4-0.4 0.4-1 0-1.4l-6.4-6.4c-0.3-0.4-1-0.4-1.4 0-0.4 0.4-0.4 1.1 0 1.4l5.7 5.7-5.7 5.7c-0.4 0.3-0.4 1 0 1.4 0.4 0.4 1.1 0.4 1.4 0zm-1231.7 0.3h2v-2h-2zm6 0h4v-2h-4zm8 0h4v-2h-4zm8 0h4v-2h-4zm8 0h4v-2h-4zm8 0h4v-2h-4zm8 0h4v-2h-4zm8 0h4v-2h-4zm8 0h4v-2h-4zm8 0h4v-2h-4zm8 0h4v-2h-4zm8 0h4v-2h-4zm8 0h4v-2h-4zm7.9 0h4v-2h-4zm8 0h4v-2h-4zm8 0h4v-2h-4zm8 0h4v-2h-4zm8 0h4v-2h-4zm8 0h4v-2h-4zm8 0h4v-2h-4zm8 0h4v-2h-4zm8 0h4v-2h-4zm8 0h4v-2h-4zm8 0h4v-2h-4zm8 0h4v-2h-4zm8 0h4v-2h-4zm8 0h4v-2h-4zm8 0h4v-2h-4zm8 0h3.9v-2h-3.9zm7.9 0h4v-2h-4zm8 0h4v-2h-4zm8 0h4v-2h-4zm8 0h4v-2h-4zm8 0h4v-2h-4zm8 0h4v-2h-4zm8 0h4v-2h-4zm8 0h4v-2h-4zm8 0h4v-2h-4zm8 0h4v-2h-4zm8 0h4v-2h-4zm8 0h4v-2h-4zm8 0h4v-2h-4zm8 0h4v-2h-4zm8 0h3.9v-2h-3.9zm7.9 0h4v-2h-4zm8 0h4v-2h-4zm8 0h4v-2h-4zm8 0h4v-2h-4zm8 0h4v-2h-4zm8 0h4v-2h-4zm8 0h4v-2h-4zm8 0h4v-2h-4zm8 0h4v-2h-4zm8 0h4v-2h-4zm8 0h4v-2h-4zm8 0h4v-2h-4zm8 0h4v-2h-4zm8 0h4v-2h-4zm8 0h4v-2h-4zm7.9 0h4v-2h-4zm8 0h4v-2h-4zm8 0h4v-2h-4zm8 0h4v-2h-4zm8 0h4v-2h-4zm8 0h4v-2h-4zm8 0h4v-2h-4zm8 0h4v-2h-4zm8 0h4v-2h-4zm8 0h4v-2h-4zm8 0h4v-2h-4zm8 0h4v-2h-4zm8 0h4v-2h-4zm8 0h4v-2h-4zm8 0h4v-2h-4zm8 0h3.9v-2h-3.9zm7.9 0h4v-2h-4zm8 0h4v-2h-4zm8 0h4v-2h-4zm8 0h4v-2h-4zm8 0h4v-2h-4zm8 0h4v-2h-4zm8 0h4v-2h-4zm8 0h4v-2h-4zm8 0h4v-2h-4zm8 0h4v-2h-4zm8 0h4v-2h-4zm8 0h4v-2h-4zm8 0h4v-2h-4zm8 0h4v-2h-4zm8 0h4v-2h-4zm7.9 0h4v-2h-4zm8 0h4v-2h-4zm8 0h4v-2h-4zm8 0h4v-2h-4zm8 0h4v-2h-4zm8 0h4v-2h-4zm8 0h4v-2h-4zm8 0h4v-2h-4zm8 0h4v-2h-4zm8 0h4v-2h-4zm8 0h4v-2h-4zm8 0h4v-2h-4zm8 0h4v-2h-4zm8 0h4v-2h-4zm8 0h4v-2h-4zm8 0h3.9v-2h-3.9zm7.9 0h4v-2h-4zm8 0h4v-2h-4zm8 0h4v-2h-4zm8 0h4v-2h-4zm8 0h4v-2h-4zm8 0h4v-2h-4zm8 0h4v-2h-4zm8 0h4v-2h-4zm8 0h4v-2h-4zm8 0h4v-2h-4zm8 0h4v-2h-4zm8 0h4v-2h-4zm8 0h4v-2h-4zm8 0h4v-2h-4zm8 0h4v-2h-4zm7.9 0h4v-2h-4zm8 0h4v-2h-4zm8 0h4v-2h-4zm8 0h4v-2h-4zm8 0h4v-2h-4zm8 0h4v-2h-4zm8 0h4v-2h-4zm8 0h4v-2h-4zm8 0h4v-2h-4zm8 0h4v-2h-4zm8 0h4v-2h-4zm8 0h4v-2h-4zm8 0h4v-2h-4zm8 0h4v-2h-4zm8 0h4v-2h-4zm8 0h4v-2h-4zm7.9 0h4v-2h-4zm8 0h4v-2h-4zm8 0h4v-2h-4zm8 0h4v-2h-4zm8 0h4v-2h-4zm8 0h4v-2h-4zm8 0h4v-2h-4zm8 0h4v-2h-4zm8 0h4v-2h-4zm8 0h4v-2h-4zm8 0h4v-2h-4zm8 0h4v-2h-4zm8 0h4v-2h-4zm8 0h4v-2h-4zm8 0h4v-2h-4zm7.9 0h4v-2h-4zm8 0h4v-2h-4zm8 0h2v-2h-2z"/>
</svg>