<svg version="1.2" xmlns="http://www.w3.org/2000/svg" viewBox="0 0 90 94" width="90" height="94">
	<title>Frame 110</title>
	<style>
		.s0 { fill: none;stroke: #67bcab;stroke-miterlimit:10;stroke-width: 2 } 
		.s1 { fill: none;stroke: #67bcab;stroke-linecap: round;stroke-miterlimit:10;stroke-width: 2 } 
		.s2 { fill: none;stroke: #ffffff;stroke-linecap: round;stroke-miterlimit:10;stroke-width: 2 } 
		.s3 { fill: none;stroke: #ffffff;stroke-linecap: round;stroke-linejoin: round;stroke-width: 2 } 
	</style>
	<path class="s0" d="m19 92.2c10 0 18-8 18-17.8 0-9.9-8-17.8-18-17.8-9.9 0-18 7.9-18 17.8 0 9.8 8.1 17.8 18 17.8z"/>
	<path class="s0" d="m19 88.3c7.8 0 14.1-6.2 14.1-13.9 0-7.7-6.3-13.9-14.1-13.9-7.8 0-14 6.2-14 13.9 0 7.7 6.2 13.9 14 13.9z"/>
	<path class="s1" d="m14.9 77.5c0.7 2 2.4 3.2 4.2 3.2 2-0.1 4.2-1.6 4-3.4-0.1-1.5-1.9-3-4.1-2.9-2.2 0.1-3.9-1.4-4.1-2.9-0.1-1.8 2.1-3.4 4-3.4 1.9 0 3.6 1.2 4.2 3.1"/>
	<path class="s1" d="m18.9 68.1v-2.7"/>
	<path class="s1" d="m18.9 83.4v-2.7"/>
	<path class="s2" d="m51.9 12.4l18.2-10.4 18.2 10.4"/>
	<path class="s2" d="m70.1 43.6l-18.2-10.4v-20.8"/>
	<path class="s2" d="m88.3 12.4v20.8l-18.2 10.4"/>
	<path class="s2" d="m81.6 37.1v-20.9l-18.2-10.4"/>
	<path class="s2" d="m77.1 39.6v-20.8l-18.2-10.4"/>
	<path class="s2" d="m70.1 43.6v-20.8l-18.2-10.4"/>
	<path class="s2" d="m67.1 38.2l-4.9-2.8"/>
	<path class="s2" d="m67.1 35.5l-4.9-2.9"/>
	<path class="s2" d="m70.1 22.8l18.2-10.4"/>
	<path class="s3" d="m44.1 17.3h-3.4c-14.9 0-27 12.1-27 26.9v2.9"/>
	<path class="s3" d="m18.2 42.6l-4.5 4.5-4-4.5"/>
	<path class="s3" d="m47.5 80.2h3.4c14.9 0 27-12.1 27-27v-2.8"/>
	<path class="s3" d="m73.4 54.9l4.5-4.5 3.9 4.5"/>
</svg>