<svg version="1.2" xmlns="http://www.w3.org/2000/svg" viewBox="0 0 107 110" width="107" height="110">
	<title>Icons copy</title>
	<style>
		.s0 { fill: none;stroke: #00dafd;stroke-miterlimit:10;stroke-width: 2 } 
		.s1 { fill: none;stroke: #ffffff;stroke-miterlimit:10;stroke-width: 2 } 
		.s2 { fill: none;stroke: #ffffff;stroke-linejoin: bevel;stroke-width: 2 } 
	</style>
	<path class="s0" d="m36.5 66.5q-0.7 0.7-1.6 1c-2.2 0.8-4.2-1.2-5.4-0.1-0.7 0.6-0.2 1.4-0.6 3.4-0.6 2.5-1.7 2.8-2 4.6-0.4 2.2 1.1 3 1.4 5.4 0.5 3.6-1.9 8.2-4.3 8.4-3.1 0.3-8.1-7.1-7.7-13.5 0.2-2 0.8-3.5-0.1-5.6-1-2.3-3.1-3.3-2.9-5.2 0.1-1.2 1-1.4 0.9-2.4-0.3-1.6-3-1.6-3.6-3.4-0.6-1.6 0.8-3.1 0.5-3.3-0.4-0.3-2 2.5-5.2 4.1-1.2 0.7-2.8 0.9-3.6 1"/>
	<path class="s0" d="m23.5 34.7c3.1 0.1 5.5 1.8 6.2 2.8 1.1 1.5-0.1 3 1.2 4.8 1.7 2.4 2.5 2.7 1.9 4.1-0.9 2.1-4.7-0.1-7.3 0.3-0.8 0.1-3.6 1.4-3.6 3 0 0.2 0.1 1 1.9 2.1 4.2 2.5 7.3 0 10.7 1.9q1.2 0.7 2 1.7"/>
	<path class="s0" d="m48 77.6c0 2.8-0.1 4.2 1.1 6 1.3 1.7 2 1.1 3.4 2.8 3 3.9 0.2 8.3 2.8 10.6 1.1 0.9 3.1 1.4 4.4 0.7 3.2-1.8-1-9.6 2.7-16.1 1.1-1.8 2.2-1.6 5.1-4"/>
	<path class="s1" d="m102.6 49.9v24.2h-13.4v-15h-52.7v-9.2z"/>
	<path class="s0" d="m46.5 31.2c-3.5 0-4.8 2-5.2 4-0.3 1.7 1 3.3 1.4 3.7 0.2 0.3 2 2.4 4.5 2.3 2.6-0.2 3.8-2.9 5.7-2.5 0.3 0.1 0.9 0.4 1.2 0.6 1.1 0.8 2 2.4-0.6 4.3"/>
	<path class="s0" d="m70.5 44.9c-6-7.2-14.6-12.2-24.3-13.7q-2.9-0.4-5.9-0.4c-6.1 0-11.9 1.4-17 3.9-10.6 5-18.5 14.6-21.3 26.2q-1 4.3-1 9c0 21.6 17.6 39.1 39.3 39.1 19.1 0 35-13.6 38.5-31.5"/>
	<path class="s1" d="m89.2 59.1v15h-9.3v-6.8h-12.8v6.8h-8.5v-6.8h-12.8v6.8h-9.3v-15z"/>
	<path class="s1" d="m79.9 67.3h-12.8v6.8h12.8z"/>
	<path class="s1" d="m47.8 74.1q0-0.4 0-0.7"/>
	<path class="s1" d="m106 74.1h-72.9v3.5h72.9z"/>
	<path class="s1" d="m54.9 16.8h-7.9c-1.4 0-2.5-1.1-2.5-2.5v-1c0-1.4 1.1-2.5 2.5-2.5h7.9c1.3 0 2.4 1.1 2.4 2.5v1c0 1.4-1.1 2.5-2.4 2.5z"/>
	<path class="s1" d="m53.4 5.8h-6.4c-1.1 0-2-0.9-2-2v-0.8c0-1.1 0.9-2 2-2h6.4c1.1 0 2 0.9 2 2v0.8c0 1.1-0.9 2-2 2z"/>
	<path class="s1" d="m88.3 7.2h-6.4c-1.1 0-2-0.9-2-2v-0.8c0-1.1 0.9-2 2-2h6.4c1.1 0 2 0.9 2 2v0.8c0 1.1-0.9 2-2 2z"/>
	<path class="s1" d="m98.6 14.4v1.1c0 1.3-1.1 2.4-2.5 2.4h-17.2c-1.4 0-2.5-1.1-2.5-2.4v-1.2h-10.1c-1.3 0-2.5-1.1-2.5-2.5v-1q0-0.4 0.2-0.8h-1.7c-1 0-1.8-0.8-1.8-1.8v-0.7c0-1 0.8-1.9 1.8-1.9h6.7c1 0 1.8 0.9 1.8 1.9v0.7q0.1 0.1 0 0.2h12.8c1.3 0 2.4 1.1 2.4 2.4v1.2h10.1c1.4 0 2.5 1.1 2.5 2.4z"/>
	<path class="s1" d="m95.4 21.6h-7.2c-0.8-1.8-2.2-3-3.7-3.7h11.1q-0.1 0.1-0.2 0.3-0.7 1.4 0 3.4z"/>
	<path class="s1" d="m98.9 49.9h-14.7l1.4-28.3h12z"/>
	<path class="s1" d="m79.6 49.9h-18.7l7-3.9 9.6-5.3z"/>
	<path class="s1" d="m79.7 73.4q0 0.3-0.1 0.7"/>
	<path class="s1" d="m60.9 49.9h-18.7l11.3-6.3 5.3-2.9z"/>
	<path class="s2" d="m85.2 28.5h12.8l-13.8 14.8h14.4"/>
</svg>