<svg version="1.2" xmlns="http://www.w3.org/2000/svg" viewBox="0 0 81 81" width="81" height="81">
	<title>Layer_1</title>
	<style>
		.s0 { fill: #ffffff } 
		.s1 { fill: none;stroke: #00dafd;stroke-width: 2.7 } 
	</style>
	<path fill-rule="evenodd" class="s0" d="m0 31.8c0-1.9 0.8-3.7 2.1-5.1 1.4-1.3 3.2-2.1 5.1-2.1h6c0.6 0 1.1 0.6 1.1 1.2v7.1h25v-5.8l-3-5.2q-0.2-0.3-0.2-0.6v-3h-2.2c-0.7 0-1.2-0.5-1.2-1.1v-4.2h-2.5c-0.6 0-1.1-0.5-1.1-1.2v-10.6c0-0.7 0.5-1.2 1.1-1.2h20.6c0.6 0 1.1 0.5 1.1 1.2v10.6c0 0.7-0.5 1.2-1.1 1.2h-2.5v4.2c0 0.6-0.5 1.1-1.2 1.1h-2.2v3q0 0.3-0.2 0.6l-3 5.2v5.8h38.1c0.7 0 1.2 0.5 1.2 1.2v45.8c0 0.6-0.5 1.1-1.2 1.1h-72.6c-1.9 0-3.8-0.7-5.1-2.1-1.3-1.3-2.1-3.1-2.1-5q0 0.3 0 0zm39.4 3.4h-25.1v32.6c0 0.7-0.5 1.2-1.1 1.2h-6c-1.3 0-2.6 0.5-3.5 1.4-0.9 0.9-1.4 2.1-1.4 3.4v0.1q0 0.1 0 0c0 1.2 0.5 2.5 1.4 3.4 0.9 0.9 2.2 1.4 3.5 1.4h71.5v-43.5h-37zm-4.3-22.2v3h10.9v-3zm-23 14h-4.9c-1.3 0-2.5 0.5-3.4 1.4-0.9 0.9-1.4 2.1-1.4 3.4v36.8c1.3-1.2 3-1.9 4.8-1.9h4.9zm37.6-16.2v-8.4h-18.2v8.4zm-11.3 7.6v2.7l2.1 3.5 2.1-3.5v-2.7z"/>
	<g>
		<path class="s1" d="m57.9 47h-34"/>
		<path class="s1" d="m57.9 61.6h-34"/>
		<path class="s1" d="m37.7 68.8h-13.8"/>
		<path class="s1" d="m57.9 39.7h-13.8"/>
		<path class="s1" d="m40.5 36v-8.9"/>
		<path class="s1" d="m41.3 76.8v-4.3"/>
		<path class="s1" d="m57.9 54.3h-34"/>
		<path class="s1" d="m57.9 39.7c2 0 3.7 1.6 3.7 3.6 0 2.1-1.7 3.7-3.7 3.7"/>
		<path class="s1" d="m44.1 39.7c-2 0-3.6-1.6-3.6-3.7"/>
		<path class="s1" d="m23.9 54.3c-2 0-3.6-1.7-3.6-3.7 0-2 1.6-3.6 3.6-3.6"/>
		<path class="s1" d="m57.9 54.3c2 0 3.7 1.6 3.7 3.6 0 2-1.7 3.7-3.7 3.7"/>
		<path class="s1" d="m23.9 68.9c-2 0-3.6-1.7-3.6-3.7 0-2 1.6-3.6 3.6-3.6"/>
		<path class="s1" d="m37.7 68.8c2 0 3.6 1.7 3.6 3.7"/>
	</g>
</svg>