<svg width="38" height="51" viewBox="0 0 38 51" fill="none" xmlns="http://www.w3.org/2000/svg">
<path d="M19 0.560547C8.64531 0.560547 0.25 8.95586 0.25 19.3105C0.25 23.3879 1.58672 27.1293 3.80859 30.1934C3.84844 30.2668 3.85469 30.3488 3.9 30.4191L16.4 49.1691C16.9797 50.0387 17.9562 50.5605 19 50.5605C20.0438 50.5605 21.0203 50.0387 21.6 49.1691L34.1 30.4191C34.1461 30.3488 34.1516 30.2668 34.1914 30.1934C36.4133 27.1293 37.75 23.3879 37.75 19.3105C37.75 8.95586 29.3547 0.560547 19 0.560547ZM19 25.5605C15.5484 25.5605 12.75 22.7621 12.75 19.3105C12.75 15.859 15.5484 13.0605 19 13.0605C22.4516 13.0605 25.25 15.859 25.25 19.3105C25.25 22.7621 22.4516 25.5605 19 25.5605Z" fill="#00DAFD"/>
</svg>
