<svg version="1.2" xmlns="http://www.w3.org/2000/svg" viewBox="0 0 76 91" width="76" height="91">
	<title>Frame 109</title>
	<style>
		.s0 { fill: none;stroke: #ffffff;stroke-linejoin: round;stroke-width: 2 } 
		.s1 { fill: none;stroke: #ffffff;stroke-miterlimit:10;stroke-width: 2 } 
		.s2 { fill: none;stroke: #00dafd;stroke-linecap: round;stroke-miterlimit:10;stroke-width: 2 } 
		.s3 { fill: none;stroke: #ffffff;stroke-linecap: round;stroke-miterlimit:10;stroke-width: 2 } 
	</style>
	<path class="s0" d="m59 65.3c-0.6 0.7-0.9 1.6-0.9 2.4 0 0.8 0.3 1.5 0.9 2.1l4.5 4.5v6.2h-62v-79.5h47l15 15v49.3c-0.6-0.5-1.4-0.8-2.1-0.9h-0.2c-0.8 0-1.6 0.3-2.2 0.9z"/>
	<path class="s1" d="m48.5 1v13c0 1.1 0.9 2 2 2h13"/>
	<path class="s1" d="m73.1 79.5c-0.6 0.7-1.4 1-2.2 1-0.8 0-1.6-0.3-2.2-1l-5.2-5.2-4.5-4.5c-0.6-0.6-0.9-1.3-0.9-2.1 0-0.8 0.3-1.7 0.9-2.4 0.6-0.6 1.4-0.9 2.2-0.9h0.2c0.7 0.1 1.5 0.4 2.1 0.9l9.6 9.8c1.3 1.2 1.3 3.2 0 4.4z"/>
	<path class="s1" d="m61.4 64.4h-0.2c-0.8 0-1.6 0.3-2.2 0.9-0.6 0.7-0.9 1.6-0.9 2.4l-5.1-5.1q1.9-1.4 3.3-3.3z"/>
	<path class="s2" d="m21 15.9h-10.6c-0.6 0-1 0.4-1 1v10.7c0 0.5 0.4 1 1 1h10.6c0.5 0 1-0.5 1-1v-10.7c0-0.6-0.5-1-1-1z"/>
	<path class="s2" d="m21 38h-10.6c-0.6 0-1 0.5-1 1v10.7c0 0.6 0.4 1 1 1h10.6c0.5 0 1-0.4 1-1v-10.7c0-0.5-0.5-1-1-1z"/>
	<path class="s2" d="m21 60.1h-10.6c-0.6 0-1 0.5-1 1v10.8c0 0.5 0.4 1 1 1h10.6c0.5 0 1-0.5 1-1v-10.8c0-0.5-0.5-1-1-1z"/>
	<path class="s3" d="m28.1 22.2h15.4"/>
	<path class="s3" d="m28.1 26.7h27.7"/>
	<path class="s1" d="m59.4 50c0 3.5-1.2 6.7-3.1 9.3q-1.4 1.9-3.3 3.3c-2.6 2-5.8 3.1-9.3 3.1-8.6 0-15.6-7-15.6-15.7 0-8.7 7-15.8 15.6-15.8 8.7 0 15.7 7.1 15.7 15.8z"/>
	<path class="s1" d="m43.7 62.1c6.7 0 12.1-5.4 12.1-12.1 0-6.8-5.4-12.2-12.1-12.2-6.6 0-12.1 5.4-12.1 12.2 0 6.7 5.5 12.1 12.1 12.1z"/>
	<path class="s3" d="m41.3 45.2c1-2 3.5-1.5 4.3-0.6 0.8 0.8 0.8 2.3 0.2 3.3-0.6 0.9-1.6 0.8-2 1.7-0.4 0.7-0.2 1.9-0.2 2.4"/>
	<path class="s3" d="m43.6 55.9c0.4 0 0.6-0.3 0.6-0.6 0-0.3-0.2-0.6-0.6-0.6-0.3 0-0.6 0.3-0.6 0.6 0 0.3 0.3 0.6 0.6 0.6z"/>
</svg>