<svg width="1080" height="395" viewBox="0 0 1080 395" fill="none" xmlns="http://www.w3.org/2000/svg">
<g clip-path="url(#clip0_2318_8195)">
<mask id="mask0_2318_8195" style="mask-type:luminance" maskUnits="userSpaceOnUse" x="684" y="0" width="396" height="395">
<path d="M1079.67 0H684.675V395H1079.67V0Z" fill="white"/>
</mask>
<g mask="url(#mask0_2318_8195)">
<path d="M1060.91 306.285H1059.04V324.804H1060.91V314.943H1060.95L1070.21 324.804H1073L1063.14 314.69L1072.46 306.285H1069.76L1060.95 314.592H1060.91V306.285ZM1053.68 320.841C1053.02 321.792 1052.22 322.491 1051.27 322.934C1050.32 323.377 1049.31 323.6 1048.23 323.6C1047.06 323.6 1045.98 323.377 1045.03 322.934C1044.08 322.491 1043.25 321.92 1042.62 321.189C1041.95 320.461 1041.44 319.604 1041.1 318.621C1040.75 317.637 1040.56 316.623 1040.56 315.544C1040.56 314.465 1040.75 313.451 1041.1 312.467C1041.44 311.483 1041.95 310.627 1042.62 309.898C1043.28 309.17 1044.08 308.566 1045.03 308.123C1045.98 307.68 1047.06 307.49 1048.26 307.49C1048.86 307.49 1049.4 307.552 1049.91 307.712C1050.42 307.84 1050.89 308.03 1051.34 308.251C1051.78 308.473 1052.16 308.726 1052.48 309.044C1052.8 309.33 1053.05 309.615 1053.24 309.931L1054.83 308.789C1054.51 308.346 1054.13 307.933 1053.65 307.585C1053.18 307.237 1052.67 306.919 1052.1 306.666C1051.53 306.413 1050.93 306.19 1050.26 306.063C1049.59 305.935 1048.93 305.872 1048.26 305.872C1046.9 305.872 1045.6 306.127 1044.43 306.601C1043.25 307.077 1042.24 307.775 1041.35 308.631C1040.49 309.488 1039.83 310.534 1039.32 311.708C1038.81 312.882 1038.59 314.182 1038.59 315.609C1038.59 317.036 1038.84 318.305 1039.32 319.509C1039.79 320.683 1040.46 321.728 1041.32 322.586C1042.17 323.442 1043.19 324.108 1044.36 324.616C1045.53 325.092 1046.83 325.345 1048.23 325.345C1049.05 325.345 1049.85 325.25 1050.54 325.059C1051.24 324.869 1051.91 324.616 1052.48 324.298C1053.05 323.981 1053.59 323.6 1054.03 323.189C1054.48 322.776 1054.86 322.333 1055.18 321.857L1053.69 320.843L1053.68 320.841ZM1034.37 306.285H1032.5V324.804H1034.37V306.285ZM1006.34 306.285H1004.34L1009.8 324.804H1011.99L1016.65 308.917H1016.71L1021.37 324.804H1023.56L1029.02 306.285H1027.02L1022.48 322.203H1022.42L1017.79 306.285H1015.54L1010.91 322.203H1010.85L1006.35 306.285H1006.34ZM991.658 307.903H994.987C995.686 307.903 996.319 307.965 996.89 308.093C997.461 308.22 997.937 308.411 998.35 308.664C998.76 308.917 999.046 309.267 999.269 309.678C999.491 310.091 999.617 310.597 999.617 311.232C999.617 312.342 999.206 313.167 998.38 313.706C997.556 314.244 996.382 314.53 994.892 314.53H991.625V307.903H991.658ZM991.658 316.117H994.797L999.935 324.774H1002.22L996.795 315.959C997.461 315.896 998.095 315.736 998.665 315.483C999.236 315.23 999.744 314.912 1000.16 314.499C1000.57 314.086 1000.88 313.611 1001.14 313.042C1001.39 312.503 1001.52 311.868 1001.52 311.172C1001.52 310.253 1001.36 309.492 1001.04 308.888C1000.73 308.255 1000.28 307.747 999.712 307.366C999.141 306.986 998.475 306.7 997.714 306.51C996.953 306.352 996.097 306.257 995.178 306.257H989.755V324.776H991.625V316.119L991.658 316.117ZM977.895 308.378L981.986 318.21H973.837L977.895 308.378ZM973.106 319.922H982.682L984.713 324.774H986.806L978.877 306.255H977.037L969.046 324.774H971.106L973.104 319.922H973.106ZM947.294 306.285H945.296L950.751 324.804H952.939L957.601 308.917H957.664L962.325 324.804H964.514L969.969 306.285H968.003L963.469 322.203H963.406L958.777 306.285H956.526L951.897 322.203H951.865L947.298 306.285H947.294ZM927.856 316.021H936.481V314.341H927.856V307.935H937.147V306.255H925.986V324.774H927.856V316.021ZM919.261 318.621C918.911 319.604 918.405 320.461 917.739 321.189C917.073 321.918 916.282 322.489 915.328 322.934C914.377 323.377 913.298 323.6 912.126 323.6C910.922 323.6 909.875 323.377 908.924 322.934C907.973 322.491 907.181 321.92 906.513 321.189C905.847 320.461 905.339 319.604 904.991 318.621C904.643 317.637 904.483 316.623 904.483 315.544C904.483 314.465 904.641 313.451 904.991 312.467C905.341 311.483 905.847 310.627 906.513 309.898C907.179 309.17 907.971 308.566 908.924 308.123C909.875 307.68 910.922 307.49 912.126 307.49C913.3 307.49 914.379 307.712 915.328 308.123C916.28 308.566 917.073 309.137 917.739 309.898C918.405 310.627 918.913 311.483 919.261 312.467C919.609 313.451 919.8 314.465 919.8 315.544C919.8 316.623 919.609 317.637 919.261 318.621ZM921.037 311.645C920.561 310.471 919.864 309.427 919.006 308.569C918.15 307.712 917.136 307.014 915.93 306.538C914.756 306.063 913.488 305.81 912.092 305.81C910.727 305.81 909.428 306.063 908.254 306.538C907.082 307.014 906.066 307.712 905.21 308.569C904.353 309.425 903.655 310.471 903.179 311.645C902.704 312.819 902.451 314.119 902.451 315.546C902.451 316.973 902.704 318.242 903.179 319.446C903.655 320.618 904.351 321.667 905.21 322.523C906.066 323.379 907.08 324.045 908.254 324.553C909.428 325.029 910.695 325.282 912.092 325.282C913.456 325.282 914.756 325.029 915.93 324.553C917.102 324.078 918.118 323.379 919.006 322.523C919.862 321.667 920.561 320.62 921.037 319.446C921.545 318.272 921.767 316.973 921.767 315.546C921.767 314.119 921.545 312.819 921.037 311.645ZM887.676 316.813L894.589 306.285H892.401L886.788 315.26L881.207 306.285H878.861L885.806 316.813V324.772H887.676V316.813ZM870.489 307.967H876.705V306.287H862.435V307.967H868.619V324.806H870.489V307.967ZM859.771 306.285H857.901V324.804H859.771V306.285ZM853.715 308.062C853.271 307.459 852.605 306.921 851.717 306.478C850.828 306.034 849.751 305.812 848.515 305.812C847.849 305.812 847.15 305.907 846.454 306.097C845.758 306.287 845.122 306.605 844.551 307.016C843.981 307.429 843.505 307.967 843.157 308.601C842.807 309.234 842.618 309.998 842.618 310.917C842.618 311.74 842.776 312.439 843.062 313.042C843.347 313.613 843.727 314.088 844.203 314.499C844.679 314.88 845.187 315.198 845.788 315.451C846.391 315.704 846.992 315.926 847.596 316.117C848.199 316.307 848.737 316.497 849.308 316.687C849.847 316.878 850.322 317.131 850.735 317.416C851.146 317.702 851.496 318.05 851.749 318.495C852.002 318.908 852.13 319.446 852.13 320.112C852.13 320.714 852.002 321.222 851.749 321.667C851.496 322.11 851.178 322.491 850.766 322.776C850.385 323.094 849.942 323.315 849.466 323.472C848.958 323.632 848.515 323.695 848.039 323.695C847.055 323.695 846.231 323.472 845.503 323.029C844.774 322.586 844.234 322.045 843.823 321.379L842.205 322.584C842.556 323.027 842.934 323.44 843.347 323.788C843.79 324.136 844.266 324.422 844.774 324.644C845.282 324.867 845.788 325.055 846.359 325.153C846.897 325.28 847.468 325.312 848.039 325.312C848.768 325.312 849.498 325.217 850.227 324.995C850.956 324.772 851.591 324.456 852.162 324.011C852.733 323.566 853.176 323.027 853.526 322.361C853.875 321.695 854.065 320.902 854.065 319.983C854.065 319.064 853.907 318.303 853.557 317.7C853.239 317.098 852.796 316.59 852.288 316.21C851.749 315.829 851.178 315.513 850.513 315.258C849.879 315.003 849.213 314.783 848.579 314.592C848.041 314.402 847.565 314.244 847.088 314.054C846.612 313.864 846.169 313.673 845.818 313.388C845.438 313.103 845.153 312.785 844.93 312.404C844.707 312.024 844.582 311.548 844.582 310.945C844.582 310.342 844.709 309.836 844.93 309.39C845.153 308.947 845.468 308.597 845.849 308.311C846.229 308.026 846.673 307.803 847.118 307.678C847.594 307.55 848.069 307.488 848.513 307.488C849.401 307.488 850.162 307.645 850.763 307.996C851.397 308.346 851.905 308.789 852.318 309.328L853.713 308.058L853.715 308.062ZM829.234 307.903H832.597C833.295 307.903 833.928 307.965 834.499 308.093C835.07 308.22 835.546 308.411 835.959 308.664C836.37 308.917 836.655 309.267 836.91 309.678C837.133 310.091 837.258 310.597 837.258 311.232C837.258 312.342 836.845 313.167 836.022 313.706C835.198 314.244 834.024 314.53 832.534 314.53H829.267V307.903H829.234ZM829.234 316.117H832.374L837.511 324.774H839.827L834.404 315.959C835.07 315.896 835.704 315.736 836.275 315.483C836.845 315.23 837.353 314.912 837.764 314.499C838.177 314.086 838.525 313.611 838.748 313.042C839.001 312.503 839.098 311.868 839.098 311.172C839.098 310.253 838.938 309.492 838.623 308.888C838.305 308.255 837.861 307.747 837.323 307.366C836.752 306.986 836.086 306.7 835.293 306.51C834.532 306.352 833.675 306.257 832.757 306.257H827.334V324.776H829.204V316.119H829.236L829.234 316.117ZM813.505 315.957H822.48V314.275H813.505V307.933H823.081V306.253H811.602V324.772H823.399V323.092H813.505V315.957ZM794.733 306.285H792.702L799.742 324.804H801.74L808.813 306.285H806.782L800.756 322.363H800.694L794.733 306.285ZM789.532 306.285H787.662V324.804H789.532V306.285ZM770.536 306.285H768.19V324.804H770.06V308.886H770.123L780.903 324.804H783.249V306.285H781.379V322.045H781.316L770.534 306.285H770.536ZM760.358 324.519C761.247 324.043 761.975 323.44 762.483 322.711C762.992 321.983 763.372 321.189 763.562 320.333C763.753 319.477 763.848 318.653 763.848 317.892V306.285H761.977V317.702C761.977 318.463 761.915 319.161 761.724 319.89C761.534 320.588 761.249 321.222 760.868 321.76C760.488 322.298 759.949 322.744 759.314 323.092C758.678 323.44 757.854 323.6 756.935 323.6C755.984 323.6 755.19 323.442 754.557 323.092C753.891 322.742 753.383 322.298 753.002 321.76C752.622 321.222 752.336 320.588 752.146 319.89C751.956 319.191 751.893 318.463 751.893 317.702V306.285H750.023V317.892C750.023 318.653 750.118 319.477 750.308 320.333C750.498 321.189 750.879 321.983 751.387 322.711C751.925 323.44 752.624 324.043 753.512 324.519C754.401 324.995 755.543 325.248 756.937 325.248C758.332 325.248 759.474 325.027 760.362 324.519M729.471 315.957H738.446V314.275H729.471V307.933H739.048V306.253H727.569V324.772H739.365V323.092H729.471V315.957ZM708.954 324.772H710.825V316.019H720.909V324.772H722.779V306.253H720.909V314.275H710.825V306.253H708.954V324.772ZM699.346 307.967H705.53V306.287H691.259V307.967H697.443V324.806H699.313V307.967H699.346Z" fill="white"/>
<path d="M749.513 287.733L766.415 230.051H760.739L746.12 281.137L732.516 234.933H725.508L711.713 281.137L697.062 230.051H691.387L708.289 287.733H715.043L729.028 241.309L742.758 287.733H749.513ZM950.306 287.733H955.824V230.051H950.306V287.733ZM950.306 287.733H955.824V230.051H950.306V287.733ZM950.306 287.733H955.824V230.051H950.306V287.733ZM1065.17 287.733H1073.09L1042.62 258.909L1071.41 230.083H1063.84L1034.38 258.909L1065.17 287.733H1065.17Z" fill="white"/>
<path d="M1031.36 230.053H1025.84V287.735H1031.36V230.053Z" fill="white"/>
<path d="M791.308 230.051H786.14L760.391 287.733H766.131L772.791 272.417H804.629L811.288 287.733H817.029L791.312 230.051H791.308ZM774.977 267.534L788.739 235.919L802.501 267.534H774.977Z" fill="black"/>
<path d="M791.308 230.051H786.14L760.391 287.733H766.131L772.791 272.417H804.629L811.288 287.733H817.029L791.312 230.051H791.308ZM774.977 267.534L788.739 235.919L802.501 267.534H774.977Z" fill="white"/>
<path d="M924.146 287.733L941.078 230.053H935.402L920.783 281.139L907.434 234.935H899.918L886.346 281.139L871.695 230.053H866.018L882.952 287.733H889.706L903.691 241.277L917.391 287.733H924.146Z" fill="white"/>
<path d="M996.034 284.308C980.622 284.308 971.013 273.24 971.013 258.877C971.013 244.544 980.589 233.318 996.034 233.318C1001.96 233.318 1009.29 236.077 1013.44 242.293L1017.95 238.963C1012.36 231.48 1004.69 228.468 996.034 228.468C978.023 228.468 965.528 241.311 965.528 258.909C965.528 276.507 978.021 289.225 996.034 289.225C1004.69 289.225 1012.36 286.213 1017.95 278.697L1013.44 275.368C1009.29 281.519 1001.96 284.308 996.034 284.308Z" fill="white"/>
<path d="M845.946 260.875C852.352 259.765 860.439 256.371 860.439 245.718C860.439 230.559 845.122 230.053 840.46 230.053H823.939V287.735H829.425V234.937H841.222C852.796 234.937 854.951 241.724 854.951 245.72C854.951 249.683 852.701 256.47 841.222 256.501H834.943V261.385H840.493L856.316 287.737H862.562L845.946 260.879V260.875Z" fill="white"/>
<path d="M748.972 69.6558L823.779 201.289L882.476 97.4678L941.491 201.289L1015.88 69.6558H748.972Z" fill="white"/>
<path d="M748.972 69.6558L823.779 201.289L882.476 97.4678L941.491 201.289L1015.88 69.6558H748.972Z" fill="white"/>
</g>
<path d="M615.444 70.0825V325.148" stroke="white" stroke-width="1.33318" stroke-miterlimit="10"/>
<mask id="mask1_2318_8195" style="mask-type:luminance" maskUnits="userSpaceOnUse" x="0" y="142" width="542" height="93">
<path d="M541.59 142.817H0.0892029V234.277H541.59V142.817Z" fill="white"/>
</mask>
<g mask="url(#mask1_2318_8195)">
<path d="M79.73 199.807H66.581C65.7997 199.807 65.1438 200.4 65.0629 201.178C64.4981 206.679 62.1197 211.26 58.1827 214.43C54.187 217.646 48.7703 219.345 42.5197 219.345C34.0465 219.345 27.136 216.106 22.5331 209.981C18.4908 204.601 16.2663 196.967 16.2663 188.486C16.2663 179.456 18.6973 171.781 23.2962 166.289C28.0429 160.621 34.8623 157.626 43.0177 157.626C48.9505 157.626 54.1405 159.229 58.0269 162.261C61.4335 164.919 63.6905 168.696 64.3827 172.898C64.5042 173.635 65.1418 174.175 65.8887 174.175H79.1531C79.5903 174.175 80.0073 173.987 80.2967 173.657C80.5862 173.329 80.7198 172.892 80.6672 172.457C79.564 163.735 75.5966 156.357 69.1962 151.122C62.5529 145.689 53.7154 142.817 43.6391 142.817C37.2204 142.817 31.2046 143.989 25.7576 146.3C20.5008 148.533 15.8776 151.778 12.0175 155.944C4.32368 164.251 0.0870972 175.94 0.0870972 188.857C0.0870972 201.089 3.74477 212.268 10.384 220.338C17.8856 229.457 28.8687 234.275 42.1452 234.275C52.679 234.275 62.2756 231.204 69.1638 225.628C76.3112 219.838 80.4911 211.479 81.2501 201.447C81.2825 201.024 81.1368 200.605 80.8473 200.295C80.5599 199.983 80.1551 199.807 79.73 199.807Z" fill="#F1EEEC"/>
<path d="M124.968 167.206H120.893C112.309 167.206 106.708 172.183 104.469 179.649V169.477C104.469 168.635 103.785 167.951 102.943 167.951H90.9378C90.0938 167.951 89.4116 168.635 89.4116 169.477V230.51C89.4116 231.352 90.0938 232.036 90.9378 232.036H103.316C104.158 232.036 104.842 231.352 104.842 230.51V200.803C104.842 194.68 106.048 190.213 108.528 187.146C111.149 183.905 115.309 182.262 120.893 182.262H124.968C125.81 182.262 126.494 181.58 126.494 180.738V168.732C126.494 167.89 125.81 167.206 124.968 167.206Z" fill="#F1EEEC"/>
<path d="M245.928 172.242C241.629 168.653 235.227 166.833 226.899 166.833C218.889 166.833 211.973 168.635 206.896 172.044C201.888 175.408 198.611 180.268 197.16 186.488C197.055 186.942 197.16 187.419 197.449 187.784C197.739 188.148 198.18 188.361 198.644 188.361H210.578C211.228 188.361 211.807 187.95 212.019 187.334C212.819 185.025 214.305 183.1 216.319 181.766C218.811 180.114 222.12 179.278 226.15 179.278C233.231 179.278 236.975 181.903 236.975 186.869C236.975 191.725 233.496 192.642 229.634 193.214L216.197 195.083C210.459 195.868 205.858 197.49 202.524 199.904C197.909 203.244 195.664 207.936 195.664 214.246C195.664 220.027 197.65 224.879 201.407 228.275C205.121 231.633 210.406 233.408 216.693 233.408C226.057 233.408 233.3 229.388 238.22 221.462V230.514C238.22 231.356 238.904 232.038 239.746 232.038H251.005C251.847 232.038 252.529 231.356 252.529 230.514V188.488C252.529 181.369 250.309 175.904 245.926 172.246M237.103 202.048V205.283C237.103 209.576 235.494 213.472 232.573 216.249C229.63 219.047 225.494 220.587 220.928 220.587C214.758 220.587 211.222 217.867 211.222 213.122C211.222 210.323 212.44 208.307 214.948 206.965C217.149 205.787 219.776 205.447 221.037 205.283L221.065 205.279L227.759 204.287C227.759 204.287 227.774 204.285 227.782 204.283C232.366 203.54 234.595 202.922 237.105 202.046" fill="#F1EEEC"/>
<path d="M298.298 218.472H291.237C288.167 218.472 284.889 217.934 284.889 211.505V181.641H296.927C297.769 181.641 298.453 180.958 298.453 180.116V169.479C298.453 168.637 297.769 167.953 296.927 167.953H284.889V150.794C284.889 150.319 284.667 149.869 284.288 149.58C283.91 149.292 283.418 149.197 282.956 149.323L270.702 152.711C270.042 152.893 269.585 153.497 269.585 154.183V167.953H259.539C258.697 167.953 258.013 168.637 258.013 169.479V180.116C258.013 180.958 258.697 181.641 259.539 181.641H269.585V213.746C269.585 220.106 271.052 224.646 274.074 227.622C277.088 230.593 281.685 232.036 288.124 232.036H298.296C299.138 232.036 299.822 231.352 299.822 230.51V219.999C299.822 219.157 299.138 218.472 298.296 218.472" fill="#F1EEEC"/>
<path d="M460.717 144.916H443.938C443.009 144.916 442.179 145.499 441.862 146.371L418.246 211.501L394.63 146.371C394.312 145.497 393.482 144.916 392.553 144.916H375.775C374.554 144.916 373.564 145.906 373.564 147.124V229.83C373.564 231.05 374.554 232.04 375.775 232.04H386.167C387.387 232.04 388.377 231.05 388.377 229.83V170.68L410.248 230.587C410.568 231.457 411.396 232.038 412.323 232.038H423.796C424.723 232.038 425.553 231.457 425.871 230.587L447.744 170.68V229.83C447.744 231.05 448.734 232.04 449.952 232.04H460.719C461.939 232.04 462.927 231.05 462.927 229.83V147.124C462.927 145.906 461.939 144.916 460.719 144.916" fill="#F1EEEC"/>
<path d="M501.771 166.797C485.448 166.797 470.868 178.011 470.868 200.439C470.868 222.743 485.199 233.457 501.396 233.457C513.869 233.457 525.662 227.004 529.542 214.635C529.832 213.714 529.152 212.772 528.186 212.772H516.489C515.962 212.772 515.481 213.064 515.236 213.529C512.823 218.104 507.815 220.124 502.018 220.124C492.798 220.124 486.193 215.141 485.82 204.674H529.13C529.915 204.674 530.553 204.036 530.553 203.251V198.32C530.553 177.137 517.345 166.795 501.769 166.795M486.197 193.336C487.567 183.991 494.296 180.129 501.647 180.129C509.997 180.129 515.355 184.863 515.355 193.336H486.197Z" fill="#F1EEEC"/>
<path d="M335.398 166.797C319.076 166.797 304.496 178.011 304.496 200.439C304.496 222.743 318.827 233.457 335.024 233.457C347.497 233.457 359.29 227.004 363.17 214.635C363.46 213.714 362.779 212.772 361.814 212.772H350.116C349.59 212.772 349.108 213.064 348.863 213.529C346.45 218.104 341.443 220.124 335.645 220.124C326.425 220.124 319.82 215.141 319.448 204.674H362.757C363.543 204.674 364.18 204.036 364.18 203.251V198.32C364.18 177.137 350.972 166.795 335.396 166.795M319.823 193.336C321.193 183.991 327.921 180.129 335.273 180.129C343.623 180.129 348.981 184.863 348.981 193.336H319.823Z" fill="#F1EEEC"/>
<path d="M159.926 166.797C143.603 166.797 129.023 178.011 129.023 200.439C129.023 222.743 143.354 233.457 159.551 233.457C172.024 233.457 183.817 227.004 187.697 214.635C187.987 213.714 187.306 212.772 186.341 212.772H174.643C174.117 212.772 173.635 213.064 173.39 213.529C170.977 218.104 165.97 220.124 160.172 220.124C150.952 220.124 144.348 215.141 143.975 204.674H187.284C188.07 204.674 188.707 204.036 188.707 203.251V198.32C188.707 177.137 175.499 166.795 159.923 166.795M144.35 193.336C145.72 183.991 152.448 180.129 159.8 180.129C168.15 180.129 173.508 184.863 173.508 193.336H144.35Z" fill="#F1EEEC"/>
<path d="M541.139 173.034C541.139 175.558 539.092 177.606 536.566 177.606C534.04 177.606 531.994 175.56 531.994 173.034C531.994 170.507 534.04 168.461 536.566 168.461C539.092 168.461 541.139 170.507 541.139 173.034Z" stroke="#F1EEEC" stroke-width="0.999887" stroke-miterlimit="10"/>
<path d="M534.852 170.267H536.595C537.7 170.267 538.532 170.661 538.532 171.827C538.532 172.945 537.7 173.467 536.595 173.467H535.684V175.655H534.852V170.267ZM536.495 172.801C537.283 172.801 537.712 172.475 537.712 171.825C537.712 171.165 537.283 170.929 536.495 170.929H535.684V172.799H536.495V172.801ZM537.054 172.773L538.716 175.653H537.785L536.433 173.242L537.052 172.773H537.054Z" fill="#F1EEEC"/>
</g>
</g>
<defs>
<clipPath id="clip0_2318_8195">
<rect width="1079.76" height="395" fill="white"/>
</clipPath>
</defs>
</svg>
