<svg width="313" height="1569" viewBox="0 0 313 1569" fill="none" xmlns="http://www.w3.org/2000/svg">
<rect x="0.5" width="312" height="1569" rx="40" fill="black"/>
<path d="M117.841 47.3C116.408 47.3 115.198 46.9833 114.211 46.35C113.225 45.71 112.478 44.8267 111.971 43.7C111.465 42.5733 111.211 41.2733 111.211 39.8C111.211 38.3267 111.465 37.0267 111.971 35.9C112.478 34.7733 113.225 33.8933 114.211 33.26C115.198 32.62 116.408 32.3 117.841 32.3C119.515 32.3 120.881 32.73 121.941 33.59C123.001 34.4433 123.728 35.59 124.121 37.03L122.621 37.42C122.315 36.28 121.765 35.3767 120.971 34.71C120.178 34.0433 119.135 33.71 117.841 33.71C116.715 33.71 115.778 33.9667 115.031 34.48C114.285 34.9933 113.721 35.71 113.341 36.63C112.968 37.5433 112.775 38.6 112.761 39.8C112.755 41 112.938 42.0567 113.311 42.97C113.691 43.8833 114.258 44.6 115.011 45.12C115.771 45.6333 116.715 45.89 117.841 45.89C119.135 45.89 120.178 45.5567 120.971 44.89C121.765 44.2167 122.315 43.3133 122.621 42.18L124.121 42.57C123.728 44.01 123.001 45.16 121.941 46.02C120.881 46.8733 119.515 47.3 117.841 47.3ZM126.328 47V36.2H127.648V38.8L127.388 38.46C127.508 38.14 127.664 37.8467 127.858 37.58C128.051 37.3067 128.261 37.0833 128.488 36.91C128.768 36.6633 129.094 36.4767 129.468 36.35C129.841 36.2167 130.218 36.14 130.598 36.12C130.978 36.0933 131.324 36.12 131.638 36.2V37.58C131.244 37.48 130.814 37.4567 130.348 37.51C129.881 37.5633 129.451 37.75 129.058 38.07C128.698 38.35 128.428 38.6867 128.248 39.08C128.068 39.4667 127.948 39.88 127.888 40.32C127.828 40.7533 127.798 41.1833 127.798 41.61V47H126.328ZM137.909 47.3C136.856 47.3 135.943 47.0667 135.169 46.6C134.403 46.1333 133.806 45.4767 133.379 44.63C132.953 43.7833 132.739 42.79 132.739 41.65C132.739 40.47 132.949 39.45 133.369 38.59C133.789 37.73 134.379 37.0667 135.139 36.6C135.906 36.1333 136.809 35.9 137.849 35.9C138.916 35.9 139.826 36.1467 140.579 36.64C141.333 37.1267 141.903 37.8267 142.289 38.74C142.676 39.6533 142.853 40.7433 142.819 42.01H141.319V41.49C141.293 40.09 140.989 39.0333 140.409 38.32C139.836 37.6067 138.996 37.25 137.889 37.25C136.729 37.25 135.839 37.6267 135.219 38.38C134.606 39.1333 134.299 40.2067 134.299 41.6C134.299 42.96 134.606 44.0167 135.219 44.77C135.839 45.5167 136.716 45.89 137.849 45.89C138.623 45.89 139.296 45.7133 139.869 45.36C140.449 45 140.906 44.4833 141.239 43.81L142.609 44.34C142.183 45.28 141.553 46.01 140.719 46.53C139.893 47.0433 138.956 47.3 137.909 47.3ZM133.779 42.01V40.78H142.029V42.01H133.779ZM147.933 47.3C147.12 47.3 146.437 47.1533 145.883 46.86C145.337 46.5667 144.927 46.1767 144.653 45.69C144.38 45.2033 144.243 44.6733 144.243 44.1C144.243 43.5133 144.36 43.0133 144.593 42.6C144.833 42.18 145.157 41.8367 145.563 41.57C145.977 41.3033 146.453 41.1 146.993 40.96C147.54 40.8267 148.143 40.71 148.803 40.61C149.47 40.5033 150.12 40.4133 150.753 40.34C151.393 40.26 151.953 40.1833 152.433 40.11L151.913 40.43C151.933 39.3633 151.727 38.5733 151.293 38.06C150.86 37.5467 150.107 37.29 149.033 37.29C148.293 37.29 147.667 37.4567 147.153 37.79C146.647 38.1233 146.29 38.65 146.083 39.37L144.653 38.95C144.9 37.9833 145.397 37.2333 146.143 36.7C146.89 36.1667 147.86 35.9 149.053 35.9C150.04 35.9 150.877 36.0867 151.563 36.46C152.257 36.8267 152.747 37.36 153.033 38.06C153.167 38.3733 153.253 38.7233 153.293 39.11C153.333 39.4967 153.353 39.89 153.353 40.29V47H152.043V44.29L152.423 44.45C152.057 45.3767 151.487 46.0833 150.713 46.57C149.94 47.0567 149.013 47.3 147.933 47.3ZM148.103 46.03C148.79 46.03 149.39 45.9067 149.903 45.66C150.417 45.4133 150.83 45.0767 151.143 44.65C151.457 44.2167 151.66 43.73 151.753 43.19C151.833 42.8433 151.877 42.4633 151.883 42.05C151.89 41.63 151.893 41.3167 151.893 41.11L152.453 41.4C151.953 41.4667 151.41 41.5333 150.823 41.6C150.243 41.6667 149.67 41.7433 149.103 41.83C148.543 41.9167 148.037 42.02 147.583 42.14C147.277 42.2267 146.98 42.35 146.693 42.51C146.407 42.6633 146.17 42.87 145.983 43.13C145.803 43.39 145.713 43.7133 145.713 44.1C145.713 44.4133 145.79 44.7167 145.943 45.01C146.103 45.3033 146.357 45.5467 146.703 45.74C147.057 45.9333 147.523 46.03 148.103 46.03ZM161.837 47C161.23 47.1267 160.63 47.1767 160.037 47.15C159.45 47.1233 158.923 46.9967 158.457 46.77C157.997 46.5433 157.647 46.19 157.407 45.71C157.213 45.31 157.107 44.9067 157.087 44.5C157.073 44.0867 157.067 43.6167 157.067 43.09V33.2H158.527V43.03C158.527 43.4833 158.53 43.8633 158.537 44.17C158.55 44.47 158.62 44.7367 158.747 44.97C158.987 45.4167 159.367 45.6833 159.887 45.77C160.413 45.8567 161.063 45.8367 161.837 45.71V47ZM154.757 37.46V36.2H161.837V37.46H154.757ZM168.144 47.3C167.09 47.3 166.177 47.0667 165.404 46.6C164.637 46.1333 164.04 45.4767 163.614 44.63C163.187 43.7833 162.974 42.79 162.974 41.65C162.974 40.47 163.184 39.45 163.604 38.59C164.024 37.73 164.614 37.0667 165.374 36.6C166.14 36.1333 167.044 35.9 168.084 35.9C169.15 35.9 170.06 36.1467 170.814 36.64C171.567 37.1267 172.137 37.8267 172.524 38.74C172.91 39.6533 173.087 40.7433 173.054 42.01H171.554V41.49C171.527 40.09 171.224 39.0333 170.644 38.32C170.07 37.6067 169.23 37.25 168.124 37.25C166.964 37.25 166.074 37.6267 165.454 38.38C164.84 39.1333 164.534 40.2067 164.534 41.6C164.534 42.96 164.84 44.0167 165.454 44.77C166.074 45.5167 166.95 45.89 168.084 45.89C168.857 45.89 169.53 45.7133 170.104 45.36C170.684 45 171.14 44.4833 171.474 43.81L172.844 44.34C172.417 45.28 171.787 46.01 170.954 46.53C170.127 47.0433 169.19 47.3 168.144 47.3ZM164.014 42.01V40.78H172.264V42.01H164.014ZM175.273 47V32.6H176.623L182.283 44.71L187.913 32.6H189.283V46.99H187.883V35.88L182.753 47H181.803L176.683 35.88V47H175.273ZM196.659 47.3C195.606 47.3 194.693 47.0667 193.919 46.6C193.153 46.1333 192.556 45.4767 192.129 44.63C191.703 43.7833 191.489 42.79 191.489 41.65C191.489 40.47 191.699 39.45 192.119 38.59C192.539 37.73 193.129 37.0667 193.889 36.6C194.656 36.1333 195.559 35.9 196.599 35.9C197.666 35.9 198.576 36.1467 199.329 36.64C200.083 37.1267 200.653 37.8267 201.039 38.74C201.426 39.6533 201.603 40.7433 201.569 42.01H200.069V41.49C200.043 40.09 199.739 39.0333 199.159 38.32C198.586 37.6067 197.746 37.25 196.639 37.25C195.479 37.25 194.589 37.6267 193.969 38.38C193.356 39.1333 193.049 40.2067 193.049 41.6C193.049 42.96 193.356 44.0167 193.969 44.77C194.589 45.5167 195.466 45.89 196.599 45.89C197.373 45.89 198.046 45.7133 198.619 45.36C199.199 45 199.656 44.4833 199.989 43.81L201.359 44.34C200.933 45.28 200.303 46.01 199.469 46.53C198.643 47.0433 197.706 47.3 196.659 47.3ZM192.529 42.01V40.78H200.779V42.01H192.529ZM84.7476 77V64.01H79.7176V62.6H91.2476V64.01H86.2176V77H84.7476ZM91.8551 77V66.2H93.1751V68.8L92.9151 68.46C93.0351 68.14 93.1917 67.8467 93.3851 67.58C93.5784 67.3067 93.7884 67.0833 94.0151 66.91C94.2951 66.6633 94.6217 66.4767 94.9951 66.35C95.3684 66.2167 95.7451 66.14 96.1251 66.12C96.5051 66.0933 96.8517 66.12 97.1651 66.2V67.58C96.7717 67.48 96.3417 67.4567 95.8751 67.51C95.4084 67.5633 94.9784 67.75 94.5851 68.07C94.2251 68.35 93.9551 68.6867 93.7751 69.08C93.5951 69.4667 93.4751 69.88 93.4151 70.32C93.3551 70.7533 93.3251 71.1833 93.3251 71.61V77H91.8551ZM103.437 77.3C102.383 77.3 101.47 77.0667 100.697 76.6C99.9301 76.1333 99.3335 75.4767 98.9068 74.63C98.4801 73.7833 98.2668 72.79 98.2668 71.65C98.2668 70.47 98.4768 69.45 98.8968 68.59C99.3168 67.73 99.9068 67.0667 100.667 66.6C101.433 66.1333 102.337 65.9 103.377 65.9C104.443 65.9 105.353 66.1467 106.107 66.64C106.86 67.1267 107.43 67.8267 107.817 68.74C108.203 69.6533 108.38 70.7433 108.347 72.01H106.847V71.49C106.82 70.09 106.517 69.0333 105.937 68.32C105.363 67.6067 104.523 67.25 103.417 67.25C102.257 67.25 101.367 67.6267 100.747 68.38C100.133 69.1333 99.8268 70.2067 99.8268 71.6C99.8268 72.96 100.133 74.0167 100.747 74.77C101.367 75.5167 102.243 75.89 103.377 75.89C104.15 75.89 104.823 75.7133 105.397 75.36C105.977 75 106.433 74.4833 106.767 73.81L108.137 74.34C107.71 75.28 107.08 76.01 106.247 76.53C105.42 77.0433 104.483 77.3 103.437 77.3ZM99.3068 72.01V70.78H107.557V72.01H99.3068ZM118.073 77V71.49C118.073 70.89 118.016 70.34 117.903 69.84C117.79 69.3333 117.606 68.8933 117.353 68.52C117.106 68.14 116.783 67.8467 116.383 67.64C115.99 67.4333 115.51 67.33 114.943 67.33C114.423 67.33 113.963 67.42 113.563 67.6C113.17 67.78 112.836 68.04 112.563 68.38C112.296 68.7133 112.093 69.12 111.953 69.6C111.813 70.08 111.743 70.6267 111.743 71.24L110.703 71.01C110.703 69.9033 110.896 68.9733 111.283 68.22C111.67 67.4667 112.203 66.8967 112.883 66.51C113.563 66.1233 114.343 65.93 115.223 65.93C115.87 65.93 116.433 66.03 116.913 66.23C117.4 66.43 117.81 66.7 118.143 67.04C118.483 67.38 118.756 67.77 118.963 68.21C119.17 68.6433 119.32 69.1067 119.413 69.6C119.506 70.0867 119.553 70.5733 119.553 71.06V77H118.073ZM110.263 77V66.2H111.593V68.86H111.743V77H110.263ZM126.26 77.3C125.253 77.3 124.393 77.05 123.68 76.55C122.967 76.0433 122.42 75.36 122.04 74.5C121.66 73.64 121.47 72.67 121.47 71.59C121.47 70.5167 121.657 69.55 122.03 68.69C122.41 67.83 122.953 67.15 123.66 66.65C124.367 66.15 125.213 65.9 126.2 65.9C127.213 65.9 128.067 66.1467 128.76 66.64C129.453 67.1333 129.977 67.81 130.33 68.67C130.69 69.5233 130.87 70.4967 130.87 71.59C130.87 72.6633 130.693 73.6333 130.34 74.5C129.987 75.36 129.467 76.0433 128.78 76.55C128.093 77.05 127.253 77.3 126.26 77.3ZM126.41 75.93C127.177 75.93 127.81 75.7433 128.31 75.37C128.81 74.9967 129.183 74.4833 129.43 73.83C129.677 73.17 129.8 72.4233 129.8 71.59C129.8 70.7433 129.677 69.9967 129.43 69.35C129.183 68.6967 128.81 68.1867 128.31 67.82C127.817 67.4533 127.193 67.27 126.44 67.27C125.667 67.27 125.027 67.46 124.52 67.84C124.013 68.22 123.637 68.7367 123.39 69.39C123.15 70.0433 123.03 70.7767 123.03 71.59C123.03 72.41 123.153 73.15 123.4 73.81C123.653 74.4633 124.03 74.98 124.53 75.36C125.03 75.74 125.657 75.93 126.41 75.93ZM129.8 77V68.87H129.64V62.6H131.12V77H129.8ZM143.809 77C143.203 77.1267 142.603 77.1767 142.009 77.15C141.423 77.1233 140.896 76.9967 140.429 76.77C139.969 76.5433 139.619 76.19 139.379 75.71C139.186 75.31 139.079 74.9067 139.059 74.5C139.046 74.0867 139.039 73.6167 139.039 73.09V63.2H140.499V73.03C140.499 73.4833 140.503 73.8633 140.509 74.17C140.523 74.47 140.593 74.7367 140.719 74.97C140.959 75.4167 141.339 75.6833 141.859 75.77C142.386 75.8567 143.036 75.8367 143.809 75.71V77ZM136.729 67.46V66.2H143.809V67.46H136.729ZM150.056 77.3C148.983 77.3 148.066 77.0567 147.306 76.57C146.546 76.0833 145.963 75.41 145.556 74.55C145.15 73.69 144.946 72.7033 144.946 71.59C144.946 70.4567 145.153 69.4633 145.566 68.61C145.98 67.7567 146.566 67.0933 147.326 66.62C148.093 66.14 149.003 65.9 150.056 65.9C151.136 65.9 152.056 66.1433 152.816 66.63C153.583 67.11 154.166 67.78 154.566 68.64C154.973 69.4933 155.176 70.4767 155.176 71.59C155.176 72.7233 154.973 73.72 154.566 74.58C154.16 75.4333 153.573 76.1 152.806 76.58C152.04 77.06 151.123 77.3 150.056 77.3ZM150.056 75.89C151.256 75.89 152.15 75.4933 152.736 74.7C153.323 73.9 153.616 72.8633 153.616 71.59C153.616 70.2833 153.32 69.2433 152.726 68.47C152.14 67.6967 151.25 67.31 150.056 67.31C149.25 67.31 148.583 67.4933 148.056 67.86C147.536 68.22 147.146 68.7233 146.886 69.37C146.633 70.01 146.506 70.75 146.506 71.59C146.506 72.89 146.806 73.9333 147.406 74.72C148.006 75.5 148.89 75.89 150.056 75.89ZM166.236 77.3C165.243 77.3 164.403 77.05 163.716 76.55C163.03 76.0433 162.51 75.36 162.156 74.5C161.803 73.6333 161.626 72.6633 161.626 71.59C161.626 70.4967 161.803 69.5233 162.156 68.67C162.516 67.81 163.043 67.1333 163.736 66.64C164.43 66.1467 165.283 65.9 166.296 65.9C167.283 65.9 168.13 66.15 168.836 66.65C169.543 67.15 170.083 67.83 170.456 68.69C170.836 69.55 171.026 70.5167 171.026 71.59C171.026 72.67 170.836 73.64 170.456 74.5C170.076 75.36 169.53 76.0433 168.816 76.55C168.103 77.05 167.243 77.3 166.236 77.3ZM161.376 81.8V66.2H162.696V74.33H162.856V81.8H161.376ZM166.086 75.93C166.84 75.93 167.466 75.74 167.966 75.36C168.466 74.98 168.84 74.4633 169.086 73.81C169.34 73.15 169.466 72.41 169.466 71.59C169.466 70.7767 169.343 70.0433 169.096 69.39C168.85 68.7367 168.473 68.22 167.966 67.84C167.466 67.46 166.83 67.27 166.056 67.27C165.303 67.27 164.676 67.4533 164.176 67.82C163.683 68.1867 163.313 68.6967 163.066 69.35C162.82 69.9967 162.696 70.7433 162.696 71.59C162.696 72.4233 162.82 73.17 163.066 73.83C163.313 74.4833 163.686 74.9967 164.186 75.37C164.686 75.7433 165.32 75.93 166.086 75.93ZM173.222 77V66.2H174.542V68.8L174.282 68.46C174.402 68.14 174.559 67.8467 174.752 67.58C174.946 67.3067 175.156 67.0833 175.382 66.91C175.662 66.6633 175.989 66.4767 176.362 66.35C176.736 66.2167 177.112 66.14 177.492 66.12C177.872 66.0933 178.219 66.12 178.532 66.2V67.58C178.139 67.48 177.709 67.4567 177.242 67.51C176.776 67.5633 176.346 67.75 175.952 68.07C175.592 68.35 175.322 68.6867 175.142 69.08C174.962 69.4667 174.842 69.88 174.782 70.32C174.722 70.7533 174.692 71.1833 174.692 71.61V77H173.222ZM184.744 77.3C183.671 77.3 182.754 77.0567 181.994 76.57C181.234 76.0833 180.651 75.41 180.244 74.55C179.837 73.69 179.634 72.7033 179.634 71.59C179.634 70.4567 179.841 69.4633 180.254 68.61C180.667 67.7567 181.254 67.0933 182.014 66.62C182.781 66.14 183.691 65.9 184.744 65.9C185.824 65.9 186.744 66.1433 187.504 66.63C188.271 67.11 188.854 67.78 189.254 68.64C189.661 69.4933 189.864 70.4767 189.864 71.59C189.864 72.7233 189.661 73.72 189.254 74.58C188.847 75.4333 188.261 76.1 187.494 76.58C186.727 77.06 185.811 77.3 184.744 77.3ZM184.744 75.89C185.944 75.89 186.837 75.4933 187.424 74.7C188.011 73.9 188.304 72.8633 188.304 71.59C188.304 70.2833 188.007 69.2433 187.414 68.47C186.827 67.6967 185.937 67.31 184.744 67.31C183.937 67.31 183.271 67.4933 182.744 67.86C182.224 68.22 181.834 68.7233 181.574 69.37C181.321 70.01 181.194 70.75 181.194 71.59C181.194 72.89 181.494 73.9333 182.094 74.72C182.694 75.5 183.577 75.89 184.744 75.89ZM196.26 77.3C195.253 77.3 194.393 77.05 193.68 76.55C192.967 76.0433 192.42 75.36 192.04 74.5C191.66 73.64 191.47 72.67 191.47 71.59C191.47 70.5167 191.657 69.55 192.03 68.69C192.41 67.83 192.953 67.15 193.66 66.65C194.367 66.15 195.213 65.9 196.2 65.9C197.213 65.9 198.067 66.1467 198.76 66.64C199.453 67.1333 199.977 67.81 200.33 68.67C200.69 69.5233 200.87 70.4967 200.87 71.59C200.87 72.6633 200.693 73.6333 200.34 74.5C199.987 75.36 199.467 76.0433 198.78 76.55C198.093 77.05 197.253 77.3 196.26 77.3ZM196.41 75.93C197.177 75.93 197.81 75.7433 198.31 75.37C198.81 74.9967 199.183 74.4833 199.43 73.83C199.677 73.17 199.8 72.4233 199.8 71.59C199.8 70.7433 199.677 69.9967 199.43 69.35C199.183 68.6967 198.81 68.1867 198.31 67.82C197.817 67.4533 197.193 67.27 196.44 67.27C195.667 67.27 195.027 67.46 194.52 67.84C194.013 68.22 193.637 68.7367 193.39 69.39C193.15 70.0433 193.03 70.7767 193.03 71.59C193.03 72.41 193.153 73.15 193.4 73.81C193.653 74.4633 194.03 74.98 194.53 75.36C195.03 75.74 195.657 75.93 196.41 75.93ZM199.8 77V68.87H199.64V62.6H201.12V77H199.8ZM208.055 77.27C207.409 77.27 206.842 77.17 206.355 76.97C205.875 76.77 205.465 76.5 205.125 76.16C204.792 75.82 204.522 75.4333 204.315 75C204.109 74.56 203.959 74.0967 203.865 73.61C203.772 73.1167 203.725 72.6267 203.725 72.14V66.2H205.205V71.71C205.205 72.3033 205.262 72.8533 205.375 73.36C205.489 73.8667 205.669 74.31 205.915 74.69C206.169 75.0633 206.492 75.3533 206.885 75.56C207.285 75.7667 207.769 75.87 208.335 75.87C208.855 75.87 209.312 75.78 209.705 75.6C210.105 75.42 210.439 75.1633 210.705 74.83C210.979 74.49 211.185 74.08 211.325 73.6C211.465 73.1133 211.535 72.5667 211.535 71.96L212.575 72.19C212.575 73.2967 212.382 74.2267 211.995 74.98C211.609 75.7333 211.075 76.3033 210.395 76.69C209.715 77.0767 208.935 77.27 208.055 77.27ZM211.685 77V74.34H211.535V66.2H213.005V77H211.685ZM220.28 77.3C219.194 77.3 218.274 77.0567 217.52 76.57C216.767 76.0833 216.194 75.4133 215.8 74.56C215.414 73.7 215.214 72.7133 215.2 71.6C215.214 70.4667 215.42 69.4733 215.82 68.62C216.22 67.76 216.797 67.0933 217.55 66.62C218.304 66.14 219.217 65.9 220.29 65.9C221.384 65.9 222.334 66.1667 223.14 66.7C223.954 67.2333 224.51 67.9633 224.81 68.89L223.37 69.35C223.117 68.7033 222.714 68.2033 222.16 67.85C221.614 67.49 220.987 67.31 220.28 67.31C219.487 67.31 218.83 67.4933 218.31 67.86C217.79 68.22 217.404 68.7233 217.15 69.37C216.897 70.0167 216.767 70.76 216.76 71.6C216.774 72.8933 217.074 73.9333 217.66 74.72C218.247 75.5 219.12 75.89 220.28 75.89C221.014 75.89 221.637 75.7233 222.15 75.39C222.67 75.05 223.064 74.5567 223.33 73.91L224.81 74.35C224.41 75.31 223.824 76.0433 223.05 76.55C222.277 77.05 221.354 77.3 220.28 77.3ZM232.755 77C232.148 77.1267 231.548 77.1767 230.955 77.15C230.368 77.1233 229.841 76.9967 229.375 76.77C228.915 76.5433 228.565 76.19 228.325 75.71C228.131 75.31 228.025 74.9067 228.005 74.5C227.991 74.0867 227.985 73.6167 227.985 73.09V63.2H229.445V73.03C229.445 73.4833 229.448 73.8633 229.455 74.17C229.468 74.47 229.538 74.7367 229.665 74.97C229.905 75.4167 230.285 75.6833 230.805 75.77C231.331 75.8567 231.981 75.8367 232.755 75.71V77ZM225.675 67.46V66.2H232.755V67.46H225.675Z" fill="white"/>
<path d="M89.5 120L89.4999 563.245" stroke="white" stroke-width="3"/>
<path d="M88.9393 1546.06C89.5251 1546.65 90.4748 1546.65 91.0606 1546.06L100.607 1536.51C101.192 1535.93 101.192 1534.98 100.607 1534.39C100.021 1533.81 99.071 1533.81 98.4852 1534.39L89.9999 1542.88L81.5147 1534.39C80.9289 1533.81 79.9791 1533.81 79.3933 1534.39C78.8075 1534.98 78.8075 1535.93 79.3933 1536.51L88.9393 1546.06ZM88.5 120L88.4999 1545L91.4999 1545L91.5 120L88.5 120Z" fill="white"/>
<line x1="114.5" y1="121.5" x2="63.5" y2="121.5" stroke="white" stroke-width="3"/>
<circle cx="190.674" cy="157.592" r="33.787" stroke="white" stroke-width="2.5"/>
<circle cx="190.674" cy="157.592" r="27.0296" stroke="#00DAFD" stroke-width="2"/>
<path d="M231.738 211.046C232.909 212.218 234.809 212.218 235.98 211.046C237.152 209.875 237.152 207.975 235.98 206.803L231.738 211.046ZM207.738 187.046L231.738 211.046L235.98 206.803L211.98 182.803L207.738 187.046Z" fill="white"/>
<g clip-path="url(#clip0_1051_1299)">
<path d="M177.678 307.492C175.882 307.492 174.258 308.219 173.081 309.396C171.904 310.573 171.178 312.196 171.178 313.993C171.178 315.789 171.904 317.413 173.081 318.59C174.258 319.767 175.882 320.494 177.678 320.494C179.475 320.494 181.098 319.767 182.275 318.59C183.452 317.413 184.179 315.789 184.179 313.993C184.179 312.196 183.452 310.573 182.275 309.396C181.098 308.219 179.475 307.492 177.678 307.492ZM168.868 309.434C169.425 309.434 169.882 309.881 169.892 310.434C170.318 309.503 170.91 308.662 171.623 307.946C173.171 306.398 175.31 305.439 177.671 305.439C180.032 305.439 182.171 306.398 183.718 307.946C184.435 308.662 185.023 309.503 185.449 310.434C185.463 309.881 185.916 309.434 186.474 309.434H214.623C214.668 309.434 214.71 309.417 214.741 309.396L214.762 309.375C214.8 309.337 214.824 309.285 214.824 309.226V278.723C214.824 277.46 214.305 276.31 213.471 275.476C212.636 274.642 211.487 274.126 210.224 274.126H169.747C168.532 274.126 167.425 274.604 166.601 275.376C165.77 276.158 165.227 277.241 165.154 278.443C165.119 279.007 164.635 279.44 164.07 279.405C163.506 279.37 163.073 278.886 163.108 278.321C163.215 276.577 163.998 275.012 165.195 273.884C166.386 272.762 167.989 272.07 169.744 272.07H210.22C212.052 272.07 213.713 272.818 214.918 274.022C216.122 275.227 216.87 276.892 216.87 278.72V281.413H224.759C225.247 281.413 225.711 281.503 226.154 281.683C226.594 281.863 226.988 282.126 227.342 282.468L238.193 293.13C238.557 293.486 238.834 293.888 239.017 294.328C239.204 294.771 239.298 295.248 239.298 295.754V309.219C239.298 309.842 239.045 310.406 238.633 310.818C238.225 311.227 237.657 311.483 237.034 311.483H236.03C235.881 311.483 235.736 311.452 235.608 311.393C235.867 312.213 236.009 313.086 236.009 313.993C236.009 316.353 235.05 318.493 233.503 320.04C231.955 321.587 229.816 322.546 227.455 322.546C225.095 322.546 222.955 321.587 221.408 320.04C219.861 318.493 218.902 316.353 218.902 313.993C218.902 313.086 219.044 312.213 219.303 311.393C219.175 311.452 219.03 311.483 218.881 311.483H186.474C186.19 311.483 185.937 311.369 185.75 311.185C186.055 312.064 186.221 313.009 186.221 313.993C186.221 316.353 185.262 318.493 183.715 320.04C182.168 321.587 180.028 322.546 177.668 322.546C175.307 322.546 173.167 321.587 171.62 320.04C170.073 318.493 169.114 316.353 169.114 313.993C169.114 313.009 169.28 312.064 169.585 311.185C169.398 311.369 169.145 311.483 168.861 311.483H165.355C164.735 311.483 164.171 311.227 163.759 310.818C163.35 310.41 163.094 309.842 163.094 309.219V304.989C163.094 304.421 163.555 303.961 164.119 303.961C164.687 303.961 165.147 304.421 165.147 304.989V309.219C165.147 309.278 165.171 309.33 165.209 309.368V309.371C165.244 309.406 165.296 309.43 165.355 309.43H168.861L168.868 309.434ZM177.674 311.84C177.079 311.84 176.539 312.082 176.148 312.47C175.76 312.861 175.518 313.401 175.518 313.996C175.518 314.592 175.76 315.132 176.148 315.523C176.539 315.911 177.079 316.153 177.674 316.153C178.273 316.153 178.81 315.911 179.201 315.523C179.588 315.132 179.831 314.592 179.831 313.996C179.831 313.401 179.588 312.861 179.201 312.473L179.159 312.428C178.771 312.065 178.252 311.84 177.674 311.84ZM174.701 311.019C175.462 310.258 176.514 309.787 177.674 309.787C178.803 309.787 179.831 310.234 180.589 310.961L180.651 311.019C181.413 311.781 181.883 312.833 181.883 313.996C181.883 315.156 181.413 316.208 180.651 316.97L180.648 316.973C179.886 317.735 178.834 318.206 177.674 318.206C176.514 318.206 175.462 317.735 174.701 316.973L174.697 316.97C173.936 316.208 173.465 315.156 173.465 313.996C173.465 312.837 173.936 311.784 174.697 311.023L174.701 311.019ZM227.466 307.496C225.669 307.496 224.046 308.223 222.869 309.399C221.692 310.576 220.965 312.2 220.965 313.996C220.965 315.793 221.692 317.416 222.869 318.593C224.046 319.77 225.669 320.497 227.466 320.497C229.262 320.497 230.886 319.77 232.063 318.593C233.24 317.416 233.967 315.793 233.967 313.996C233.967 312.2 233.24 310.576 232.063 309.399C230.886 308.222 229.262 307.496 227.466 307.496ZM221.418 307.949C222.966 306.402 225.105 305.443 227.466 305.443C229.827 305.443 231.966 306.402 233.513 307.949C234.14 308.576 234.673 309.303 235.081 310.099C235.23 309.711 235.604 309.438 236.04 309.438H237.044C237.1 309.438 237.155 309.413 237.19 309.375C237.228 309.337 237.252 309.285 237.252 309.23V295.764C237.252 295.533 237.214 295.318 237.134 295.131C237.055 294.937 236.93 294.761 236.767 294.601L225.915 283.94C225.749 283.777 225.576 283.66 225.396 283.587C225.216 283.514 225.008 283.476 224.773 283.476H216.884V309.23C216.884 309.299 216.88 309.372 216.874 309.437H218.892C219.331 309.437 219.705 309.711 219.85 310.099C220.259 309.302 220.789 308.579 221.419 307.949L221.418 307.949ZM227.466 311.84C226.867 311.84 226.331 312.082 225.939 312.47L225.943 312.473C225.552 312.865 225.313 313.401 225.313 313.996C225.313 314.592 225.555 315.132 225.943 315.523C226.334 315.911 226.874 316.153 227.469 316.153C228.065 316.153 228.605 315.911 228.996 315.523C229.384 315.132 229.626 314.592 229.626 313.996C229.626 313.401 229.384 312.861 228.996 312.473L228.954 312.428C228.567 312.065 228.047 311.84 227.469 311.84L227.466 311.84ZM224.492 311.02C225.254 310.258 226.306 309.787 227.466 309.787C228.594 309.787 229.622 310.234 230.377 310.961L230.439 311.02C231.201 311.781 231.672 312.833 231.672 313.996C231.672 315.156 231.201 316.208 230.439 316.97L230.436 316.973C229.674 317.735 228.622 318.206 227.462 318.206C226.303 318.206 225.25 317.735 224.489 316.973L224.485 316.97C223.724 316.208 223.253 315.156 223.253 313.996C223.253 312.833 223.724 311.781 224.485 311.02L224.492 311.02ZM226.801 291.282H221.619C221.564 291.282 221.509 291.306 221.474 291.344C221.436 291.382 221.412 291.434 221.412 291.489V298.745C221.412 298.804 221.436 298.856 221.47 298.894L221.474 298.89C221.512 298.928 221.564 298.953 221.619 298.953H231.544C231.599 298.953 231.654 298.928 231.689 298.89L231.71 298.869C231.734 298.835 231.751 298.79 231.751 298.741V296.142C231.751 296.114 231.748 296.093 231.744 296.083C231.734 296.066 231.724 296.048 231.71 296.034L226.909 291.316C226.895 291.302 226.877 291.292 226.864 291.285L226.85 291.278H226.805L226.801 291.282ZM221.619 289.229H226.801C227.057 289.229 227.307 289.274 227.549 289.36L227.632 289.392C227.892 289.499 228.131 289.655 228.342 289.866L233.143 294.584C233.361 294.799 233.524 295.037 233.635 295.301V295.304C233.745 295.571 233.804 295.854 233.804 296.152V298.752C233.804 299.337 233.579 299.873 233.209 300.275L233.143 300.351C232.734 300.759 232.167 301.016 231.544 301.016H221.619C220.996 301.016 220.432 300.763 220.02 300.351V300.348C219.612 299.939 219.356 299.375 219.356 298.752V291.496C219.356 290.873 219.608 290.309 220.02 289.897C220.429 289.489 220.996 289.232 221.619 289.232L221.619 289.229Z" fill="white"/>
<path d="M174.673 297.689H159.283C158.075 297.689 157.085 298.679 157.085 299.887C157.085 301.095 158.075 302.085 159.283 302.085H174.673C175.881 302.085 176.871 301.095 176.871 299.887C176.871 298.679 175.881 297.689 174.673 297.689Z" fill="#9BA4E9"/>
<path d="M171.153 289.634H155.763C154.555 289.634 153.565 290.624 153.565 291.832C153.565 293.04 154.555 294.03 155.763 294.03H171.153C172.361 294.03 173.351 293.04 173.351 291.832C173.351 290.624 172.361 289.634 171.153 289.634Z" fill="#9BA4E9"/>
<path d="M168.28 281.288H152.89C151.682 281.288 150.692 282.278 150.692 283.486C150.692 284.694 151.682 285.684 152.89 285.684H168.28C169.488 285.684 170.478 284.694 170.478 283.486C170.478 282.278 169.488 281.288 168.28 281.288Z" fill="#9BA4E9"/>
</g>
<path d="M195 387.376C186.692 387.376 179.935 394.133 179.935 402.441C179.935 410.749 186.692 417.506 195 417.506C203.307 417.506 210.064 410.749 210.064 402.441C210.064 394.133 203.307 387.376 195 387.376ZM195 415.734C187.671 415.734 181.707 409.769 181.707 402.441C181.707 395.113 187.671 389.149 195 389.149C202.331 389.149 208.292 395.113 208.292 402.441C208.292 409.769 202.331 415.734 195 415.734Z" fill="#67BCAB"/>
<path d="M198.599 398.848C198.599 399.336 198.994 399.734 199.486 399.734C199.977 399.734 200.372 399.336 200.372 398.848C200.372 396.383 198.367 394.376 195.903 394.372L195.906 393.008C195.906 392.517 195.477 392.112 195.02 392.122C194.532 392.122 194.134 392.517 194.134 393.008L194.13 394.372H194.11C192.922 394.372 191.801 394.836 190.953 395.681C190.105 396.525 189.634 397.65 189.63 398.841C189.627 400.032 190.094 401.157 190.939 402.005C191.784 402.853 192.909 403.324 194.099 403.327H194.113L194.103 408.741C192.614 408.738 191.403 407.526 191.403 406.038C191.403 405.55 191.005 405.152 190.517 405.152C190.029 405.152 189.63 405.55 189.63 406.038C189.63 408.503 191.635 410.51 194.099 410.514L194.096 411.878C194.096 412.366 194.491 412.764 194.982 412.764C195.47 412.764 195.868 412.369 195.868 411.878L195.872 410.514H195.893C198.357 410.514 200.365 408.509 200.372 406.045C200.375 403.577 198.371 401.562 195.903 401.559H195.889L195.899 396.145C197.388 396.148 198.599 397.36 198.599 398.848ZM192.192 400.755C191.68 400.243 191.399 399.561 191.399 398.845C191.399 398.125 191.683 397.446 192.199 396.937C192.711 396.425 193.39 396.145 194.106 396.145H194.124L194.113 401.555H194.099C193.379 401.555 192.704 401.271 192.192 400.756L192.192 400.755ZM198.599 406.041C198.596 407.53 197.381 408.741 195.892 408.741H195.875L195.886 403.331H195.899C197.391 403.334 198.603 404.549 198.599 406.041L198.599 406.041Z" fill="#67BCAB"/>
<path d="M210.003 436.338C209.993 436.313 209.982 436.289 209.972 436.265C209.93 436.175 209.879 436.092 209.809 436.023C209.806 436.019 209.806 436.019 209.806 436.016C209.75 435.96 209.688 435.915 209.622 435.874L195.444 427.732C195.17 427.573 194.834 427.573 194.561 427.732L180.382 435.874C180.313 435.912 180.251 435.96 180.199 436.016L180.195 436.019C180.126 436.092 180.071 436.175 180.029 436.265C180.019 436.289 180.008 436.31 179.998 436.334C179.963 436.431 179.936 436.528 179.936 436.635V454.656C179.936 454.961 180.092 455.245 180.351 455.404L194.53 464.335C194.675 464.425 194.838 464.474 195.001 464.474C195.163 464.474 195.329 464.429 195.471 464.335L209.65 455.404C209.906 455.241 210.065 454.961 210.065 454.656V436.635C210.065 436.532 210.038 436.431 210.003 436.334L210.003 436.338ZM195 429.525L207.421 436.656L195 444.043L182.576 436.656L195 429.525ZM195 462.542L181.708 454.173V438.208L194.547 445.844C194.685 445.927 194.845 445.969 195 445.969C195.156 445.969 195.312 445.927 195.454 445.844L208.293 438.208V454.173L195 462.542Z" fill="white"/>
<path d="M175.061 441.564C174.573 441.564 174.175 441.959 174.175 442.45V446.715C168.242 441.415 164.87 433.942 164.87 425.925C164.87 417.285 168.782 409.268 175.608 403.93C175.992 403.629 176.061 403.072 175.76 402.688C175.459 402.303 174.902 402.234 174.517 402.535C167.262 408.212 163.101 416.735 163.101 425.926C163.101 434.299 166.566 442.116 172.668 447.733H168.895C168.407 447.733 168.009 448.128 168.009 448.62C168.009 449.111 168.407 449.506 168.895 449.506H175.064C175.195 449.506 175.316 449.475 175.427 449.423C175.458 449.409 175.479 449.385 175.51 449.367C175.59 449.319 175.666 449.263 175.725 449.194C175.735 449.18 175.752 449.177 175.763 449.163C175.787 449.132 175.794 449.097 175.811 449.066C175.842 449.014 175.874 448.962 175.894 448.903C175.915 448.845 175.922 448.786 175.929 448.727C175.932 448.689 175.95 448.658 175.95 448.62V442.451C175.95 441.96 175.552 441.565 175.064 441.565L175.061 441.564Z" fill="white"/>
<path d="M217.334 404.118H221.107C221.599 404.118 221.993 403.719 221.993 403.231C221.993 402.743 221.599 402.345 221.107 402.345H214.939C214.921 402.345 214.908 402.356 214.89 402.356C214.828 402.359 214.766 402.376 214.703 402.394C214.651 402.408 214.603 402.418 214.555 402.442C214.506 402.466 214.461 402.501 214.416 402.536C214.368 402.574 214.319 402.605 214.281 402.653C214.267 402.667 214.253 402.674 214.24 402.688C214.215 402.719 214.208 402.754 214.191 402.788C214.16 402.84 214.132 402.889 214.111 402.948C214.091 403.006 214.084 403.065 214.077 403.128C214.073 403.166 214.056 403.197 214.056 403.235V409.403C214.056 409.891 214.451 410.29 214.942 410.29C215.434 410.29 215.828 409.891 215.828 409.403V405.139C221.762 410.438 225.133 417.912 225.133 425.929C225.133 434.569 221.222 442.586 214.396 447.924C214.012 448.225 213.942 448.782 214.243 449.17C214.417 449.391 214.68 449.509 214.943 449.509C215.133 449.509 215.327 449.447 215.49 449.322C222.745 443.645 226.906 435.123 226.906 425.932C226.906 417.558 223.441 409.741 217.339 404.124L217.334 404.118Z" fill="white"/>
<path d="M177.626 524.233V514.097H173.71V512.749H182.961V514.097H179.045V524.233H177.626ZM183.437 524.233V515.62H184.705V517.701L184.498 517.43C184.599 517.164 184.729 516.92 184.888 516.697C185.053 516.473 185.237 516.29 185.439 516.146C185.662 515.965 185.914 515.827 186.196 515.732C186.478 515.636 186.765 515.58 187.058 515.564C187.35 515.543 187.624 515.561 187.879 515.62V516.952C187.581 516.872 187.254 516.851 186.898 516.888C186.542 516.925 186.212 517.055 185.909 517.279C185.633 517.475 185.417 517.715 185.263 517.997C185.114 518.278 185.011 518.584 184.952 518.914C184.894 519.238 184.864 519.57 184.864 519.911V524.233H183.437ZM192.964 524.473C192.119 524.473 191.38 524.287 190.747 523.914C190.119 523.537 189.63 523.013 189.279 522.343C188.928 521.668 188.753 520.881 188.753 519.982C188.753 519.041 188.926 518.228 189.271 517.542C189.617 516.851 190.098 516.319 190.715 515.947C191.337 515.569 192.065 515.381 192.9 515.381C193.767 515.381 194.503 515.58 195.109 515.979C195.721 516.378 196.178 516.946 196.481 517.686C196.79 518.425 196.923 519.305 196.88 520.325H195.444V519.815C195.428 518.757 195.213 517.967 194.798 517.446C194.384 516.92 193.767 516.657 192.948 516.657C192.071 516.657 191.403 516.938 190.946 517.502C190.489 518.066 190.26 518.874 190.26 519.927C190.26 520.942 190.489 521.729 190.946 522.287C191.403 522.846 192.055 523.125 192.9 523.125C193.469 523.125 193.964 522.995 194.384 522.734C194.804 522.473 195.133 522.099 195.373 521.609L196.736 522.08C196.401 522.84 195.896 523.431 195.221 523.851C194.551 524.265 193.799 524.473 192.964 524.473ZM189.782 520.325V519.185H196.146V520.325H189.782ZM204.555 524.233V519.919C204.555 519.509 204.518 519.116 204.443 518.738C204.374 518.361 204.249 518.023 204.069 517.725C203.893 517.422 203.654 517.183 203.351 517.008C203.053 516.832 202.676 516.744 202.218 516.744C201.862 516.744 201.538 516.806 201.245 516.928C200.958 517.045 200.711 517.226 200.504 517.47C200.296 517.715 200.134 518.023 200.017 518.395C199.905 518.762 199.85 519.196 199.85 519.695L198.916 519.408C198.916 518.573 199.065 517.858 199.363 517.263C199.666 516.662 200.089 516.202 200.631 515.883C201.179 515.559 201.822 515.397 202.561 515.397C203.12 515.397 203.595 515.484 203.989 515.66C204.382 515.835 204.709 516.069 204.97 516.362C205.23 516.649 205.435 516.973 205.584 517.335C205.733 517.691 205.837 518.055 205.895 518.427C205.959 518.794 205.991 519.142 205.991 519.472V524.233H204.555ZM198.414 524.233V515.62H199.69V517.925H199.85V524.233H198.414ZM211.368 524.473C210.565 524.473 209.877 524.273 209.302 523.875C208.728 523.47 208.284 522.925 207.97 522.24C207.662 521.554 207.508 520.78 207.508 519.919C207.508 519.057 207.662 518.284 207.97 517.598C208.284 516.912 208.728 516.372 209.302 515.979C209.877 515.58 210.562 515.381 211.36 515.381C212.174 515.381 212.857 515.577 213.41 515.971C213.963 516.364 214.38 516.904 214.662 517.59C214.949 518.276 215.093 519.052 215.093 519.919C215.093 520.775 214.949 521.548 214.662 522.24C214.38 522.925 213.963 523.47 213.41 523.875C212.857 524.273 212.176 524.473 211.368 524.473ZM211.543 523.173C212.123 523.173 212.599 523.034 212.971 522.758C213.343 522.476 213.617 522.091 213.793 521.601C213.973 521.107 214.064 520.546 214.064 519.919C214.064 519.281 213.973 518.72 213.793 518.236C213.617 517.747 213.346 517.366 212.979 517.095C212.612 516.819 212.147 516.681 211.583 516.681C210.998 516.681 210.515 516.824 210.132 517.111C209.754 517.398 209.472 517.787 209.286 518.276C209.106 518.765 209.015 519.313 209.015 519.919C209.015 520.53 209.108 521.083 209.294 521.578C209.48 522.067 209.76 522.455 210.132 522.742C210.509 523.029 210.98 523.173 211.543 523.173ZM214.064 524.233V517.893H213.904V512.749H215.332V524.233H214.064ZM146.024 540.233V528.749H147.444V540.233H146.024ZM153.218 540.473C152.416 540.473 151.727 540.273 151.153 539.875C150.579 539.47 150.135 538.925 149.821 538.24C149.513 537.554 149.358 536.78 149.358 535.919C149.358 535.057 149.513 534.284 149.821 533.598C150.135 532.912 150.579 532.372 151.153 531.979C151.727 531.58 152.413 531.381 153.21 531.381C154.024 531.381 154.707 531.577 155.26 531.971C155.813 532.364 156.231 532.904 156.512 533.59C156.799 534.276 156.943 535.052 156.943 535.919C156.943 536.775 156.799 537.548 156.512 538.24C156.231 538.925 155.813 539.47 155.26 539.875C154.707 540.273 154.027 540.473 153.218 540.473ZM153.394 539.173C153.973 539.173 154.449 539.034 154.822 538.758C155.194 538.476 155.468 538.091 155.643 537.601C155.824 537.107 155.914 536.546 155.914 535.919C155.914 535.281 155.824 534.72 155.643 534.236C155.468 533.747 155.196 533.366 154.83 533.095C154.463 532.819 153.997 532.681 153.434 532.681C152.849 532.681 152.365 532.824 151.982 533.111C151.605 533.398 151.323 533.787 151.137 534.276C150.956 534.765 150.866 535.313 150.866 535.919C150.866 536.53 150.959 537.083 151.145 537.578C151.331 538.067 151.61 538.455 151.982 538.742C152.36 539.029 152.83 539.173 153.394 539.173ZM155.914 540.233V533.893H155.755V528.749H157.182V540.233H155.914ZM163.149 540.473C162.304 540.473 161.565 540.287 160.932 539.914C160.305 539.537 159.816 539.013 159.465 538.343C159.114 537.668 158.938 536.881 158.938 535.982C158.938 535.041 159.111 534.228 159.457 533.542C159.802 532.851 160.283 532.319 160.9 531.947C161.522 531.569 162.251 531.381 163.086 531.381C163.952 531.381 164.689 531.58 165.295 531.979C165.906 532.378 166.363 532.946 166.667 533.686C166.975 534.425 167.108 535.305 167.065 536.325H165.63V535.815C165.614 534.757 165.398 533.967 164.984 533.446C164.569 532.92 163.952 532.657 163.133 532.657C162.256 532.657 161.589 532.938 161.132 533.502C160.674 534.066 160.446 534.874 160.446 535.927C160.446 536.942 160.674 537.729 161.132 538.287C161.589 538.846 162.24 539.125 163.086 539.125C163.654 539.125 164.149 538.995 164.569 538.734C164.989 538.473 165.319 538.099 165.558 537.609L166.922 538.08C166.587 538.84 166.082 539.431 165.406 539.851C164.736 540.265 163.984 540.473 163.149 540.473ZM159.967 536.325V535.185H166.332V536.325H159.967ZM174.74 540.233V535.919C174.74 535.509 174.703 535.116 174.629 534.738C174.56 534.361 174.435 534.023 174.254 533.725C174.079 533.422 173.839 533.183 173.536 533.008C173.238 532.832 172.861 532.744 172.404 532.744C172.047 532.744 171.723 532.806 171.431 532.928C171.144 533.045 170.896 533.226 170.689 533.47C170.482 533.715 170.319 534.023 170.202 534.395C170.091 534.762 170.035 535.196 170.035 535.695L169.102 535.408C169.102 534.573 169.251 533.858 169.548 533.263C169.851 532.662 170.274 532.202 170.817 531.883C171.364 531.559 172.008 531.397 172.747 531.397C173.305 531.397 173.781 531.484 174.174 531.66C174.568 531.835 174.895 532.069 175.155 532.362C175.416 532.649 175.62 532.973 175.769 533.335C175.918 533.691 176.022 534.055 176.08 534.427C176.144 534.794 176.176 535.142 176.176 535.472V540.233H174.74ZM168.599 540.233V531.62H169.875V533.925H170.035V540.233H168.599ZM183.059 540.233C182.548 540.334 182.043 540.374 181.543 540.353C181.049 540.337 180.608 540.239 180.22 540.058C179.831 539.872 179.536 539.585 179.334 539.197C179.164 538.856 179.071 538.513 179.055 538.168C179.044 537.817 179.039 537.421 179.039 536.979V529.227H180.459V536.916C180.459 537.267 180.461 537.567 180.467 537.817C180.477 538.067 180.533 538.282 180.634 538.463C180.826 538.803 181.129 539.003 181.543 539.061C181.964 539.119 182.469 539.104 183.059 539.013V540.233ZM177.293 532.792V531.62H183.059V532.792H177.293ZM184.967 530.097V528.629H186.387V530.097H184.967ZM184.967 540.233V531.62H186.387V540.233H184.967ZM189.601 540.233V531.149C189.601 530.926 189.612 530.7 189.633 530.471C189.654 530.237 189.702 530.011 189.777 529.793C189.851 529.57 189.973 529.365 190.144 529.179C190.34 528.961 190.556 528.807 190.79 528.717C191.024 528.621 191.26 528.563 191.499 528.541C191.744 528.52 191.975 528.509 192.193 528.509H193.286V529.69H192.273C191.853 529.69 191.539 529.793 191.332 530.001C191.125 530.203 191.021 530.511 191.021 530.926V540.233H189.601ZM188.142 532.792V531.62H193.286V532.792H188.142ZM194.961 530.097V528.629H196.38V530.097H194.961ZM194.961 540.233V531.62H196.38V540.233H194.961ZM202.409 540.473C201.537 540.473 200.795 540.279 200.184 539.89C199.578 539.497 199.115 538.957 198.796 538.271C198.477 537.586 198.312 536.804 198.302 535.927C198.312 535.028 198.48 534.238 198.804 533.558C199.134 532.872 199.604 532.338 200.216 531.955C200.827 531.572 201.564 531.381 202.425 531.381C203.334 531.381 204.116 531.604 204.77 532.051C205.429 532.497 205.87 533.109 206.094 533.885L204.69 534.308C204.509 533.808 204.214 533.42 203.805 533.143C203.401 532.867 202.936 532.728 202.409 532.728C201.819 532.728 201.332 532.867 200.95 533.143C200.567 533.414 200.282 533.792 200.096 534.276C199.91 534.754 199.814 535.305 199.809 535.927C199.82 536.884 200.04 537.657 200.471 538.247C200.907 538.832 201.553 539.125 202.409 539.125C202.973 539.125 203.441 538.997 203.813 538.742C204.185 538.481 204.467 538.107 204.658 537.617L206.094 537.992C205.796 538.795 205.331 539.409 204.698 539.835C204.065 540.26 203.302 540.473 202.409 540.473ZM210.092 540.473C209.449 540.473 208.909 540.356 208.473 540.122C208.042 539.882 207.715 539.569 207.492 539.181C207.274 538.792 207.165 538.367 207.165 537.905C207.165 537.453 207.25 537.062 207.42 536.732C207.596 536.397 207.84 536.121 208.154 535.903C208.468 535.679 208.843 535.504 209.279 535.376C209.688 535.265 210.145 535.169 210.65 535.089C211.161 535.004 211.677 534.927 212.198 534.858C212.719 534.789 213.205 534.722 213.657 534.659L213.147 534.954C213.163 534.188 213.009 533.622 212.684 533.255C212.365 532.888 211.812 532.705 211.025 532.705C210.504 532.705 210.047 532.824 209.653 533.063C209.265 533.297 208.992 533.68 208.832 534.212L207.484 533.805C207.692 533.05 208.093 532.457 208.688 532.027C209.284 531.596 210.068 531.381 211.041 531.381C211.823 531.381 212.493 531.521 213.051 531.803C213.615 532.08 214.019 532.5 214.263 533.063C214.386 533.329 214.463 533.619 214.495 533.933C214.527 534.241 214.542 534.565 214.542 534.906V540.233H213.282V538.168L213.577 538.359C213.253 539.056 212.799 539.582 212.214 539.938C211.634 540.295 210.927 540.473 210.092 540.473ZM210.307 539.284C210.818 539.284 211.259 539.194 211.631 539.013C212.009 538.827 212.312 538.585 212.541 538.287C212.769 537.984 212.918 537.655 212.987 537.298C213.067 537.033 213.11 536.737 213.115 536.413C213.126 536.083 213.131 535.831 213.131 535.655L213.625 535.871C213.163 535.935 212.708 535.996 212.261 536.054C211.815 536.113 211.392 536.177 210.993 536.246C210.595 536.309 210.236 536.387 209.917 536.477C209.683 536.551 209.462 536.647 209.255 536.764C209.053 536.881 208.888 537.033 208.76 537.219C208.638 537.399 208.577 537.625 208.577 537.897C208.577 538.131 208.635 538.354 208.752 538.567C208.875 538.779 209.061 538.952 209.311 539.085C209.566 539.218 209.898 539.284 210.307 539.284ZM221.425 540.233C220.915 540.334 220.41 540.374 219.91 540.353C219.416 540.337 218.974 540.239 218.586 540.058C218.198 539.872 217.903 539.585 217.701 539.197C217.531 538.856 217.438 538.513 217.422 538.168C217.411 537.817 217.406 537.421 217.406 536.979V529.227H218.825V536.916C218.825 537.267 218.828 537.567 218.833 537.817C218.844 538.067 218.9 538.282 219.001 538.463C219.192 538.803 219.495 539.003 219.91 539.061C220.33 539.119 220.835 539.104 221.425 539.013V540.233ZM215.659 532.792V531.62H221.425V532.792H215.659ZM223.334 530.097V528.629H224.753V530.097H223.334ZM223.334 540.233V531.62H224.753V540.233H223.334ZM230.815 540.473C229.959 540.473 229.22 540.279 228.598 539.89C227.981 539.502 227.505 538.965 227.17 538.279C226.835 537.594 226.668 536.807 226.668 535.919C226.668 535.015 226.838 534.223 227.178 533.542C227.518 532.861 228 532.332 228.622 531.955C229.244 531.572 229.975 531.381 230.815 531.381C231.676 531.381 232.418 531.575 233.04 531.963C233.662 532.346 234.138 532.88 234.468 533.566C234.803 534.246 234.97 535.031 234.97 535.919C234.97 536.817 234.803 537.609 234.468 538.295C234.133 538.976 233.654 539.51 233.032 539.898C232.41 540.281 231.671 540.473 230.815 540.473ZM230.815 539.125C231.708 539.125 232.373 538.827 232.809 538.232C233.245 537.636 233.463 536.865 233.463 535.919C233.463 534.946 233.242 534.172 232.801 533.598C232.36 533.018 231.698 532.728 230.815 532.728C230.214 532.728 229.72 532.864 229.332 533.135C228.943 533.406 228.654 533.781 228.462 534.26C228.271 534.738 228.175 535.291 228.175 535.919C228.175 536.886 228.398 537.663 228.845 538.247C229.292 538.832 229.948 539.125 230.815 539.125ZM242.859 540.233V535.919C242.859 535.509 242.822 535.116 242.748 534.738C242.679 534.361 242.554 534.023 242.373 533.725C242.197 533.422 241.958 533.183 241.655 533.008C241.357 532.832 240.98 532.744 240.523 532.744C240.166 532.744 239.842 532.806 239.55 532.928C239.262 533.045 239.015 533.226 238.808 533.47C238.6 533.715 238.438 534.023 238.321 534.395C238.21 534.762 238.154 535.196 238.154 535.695L237.221 535.408C237.221 534.573 237.37 533.858 237.667 533.263C237.97 532.662 238.393 532.202 238.935 531.883C239.483 531.559 240.126 531.397 240.866 531.397C241.424 531.397 241.9 531.484 242.293 531.66C242.687 531.835 243.014 532.069 243.274 532.362C243.535 532.649 243.739 532.973 243.888 533.335C244.037 533.691 244.141 534.055 244.199 534.427C244.263 534.794 244.295 535.142 244.295 535.472V540.233H242.859ZM236.718 540.233V531.62H237.994V533.925H238.154V540.233H236.718Z" fill="white"/>
<path d="M157.846 681.058C157.856 681.076 157.874 681.095 157.884 681.113C157.967 681.327 158.098 681.523 158.284 681.671C158.311 681.699 158.349 681.709 158.386 681.727C158.479 681.783 158.553 681.848 158.665 681.885C158.795 681.922 158.916 681.941 159.046 681.941C159.177 681.941 159.297 681.922 159.428 681.885L179.674 675.449C179.692 675.44 179.702 675.431 179.721 675.422C179.795 675.394 179.87 675.347 179.935 675.301C180.009 675.254 180.084 675.217 180.139 675.161C180.149 675.152 180.167 675.143 180.177 675.133L231.819 623.491C232.052 623.258 232.192 622.933 232.192 622.598C232.192 614.293 225.431 607.532 217.126 607.532C216.791 607.532 216.475 607.662 216.233 607.904L164.598 659.547C164.589 659.556 164.589 659.565 164.58 659.584C164.45 659.714 164.347 659.872 164.292 660.058L157.856 680.295C157.847 680.342 157.847 680.379 157.838 680.425C157.819 680.509 157.81 680.593 157.81 680.676C157.81 680.76 157.819 680.844 157.838 680.927C157.847 680.964 157.837 681.011 157.847 681.057L157.846 681.058ZM217.636 610.061C224.146 610.322 229.401 615.576 229.661 622.086L180.297 671.46C179.162 665.378 174.354 660.57 168.272 659.435L217.636 610.061ZM166.375 661.779C172.568 662.225 177.497 667.145 177.944 673.348L168.318 676.408C167.863 673.869 165.863 671.869 163.315 671.404L166.375 661.779ZM162.543 673.841C164.319 673.999 165.723 675.403 165.881 677.179L160.99 678.732L162.543 673.841Z" fill="white"/>
<path d="M154 681.733H232" stroke="#ADB6F9" stroke-width="2" stroke-linecap="round" stroke-dasharray="4 4"/>
<path d="M179.097 775.13C184.026 775.13 192.489 774.2 192.582 770.945C192.582 767.597 184.119 766.76 179.097 766.76C174.075 766.76 165.612 767.69 165.612 770.945C165.612 774.293 174.075 775.13 179.097 775.13ZM179.097 768.62C186.165 768.62 190.443 770.108 190.722 770.945C190.443 771.782 186.165 773.27 179.097 773.27C171.936 773.27 167.658 771.689 167.472 770.945C167.751 770.201 172.029 768.62 179.097 768.62Z" fill="white"/>
<path d="M236.85 770.014H205.881C204.486 764.62 191.466 761.737 179.097 761.737C166.17 761.738 152.499 764.899 152.22 770.758V770.851V770.944V784.522C152.22 790.474 166.077 793.729 179.097 793.729C191.466 793.729 204.486 790.753 205.881 785.452L236.85 785.452C237.408 785.452 237.78 785.08 237.78 784.615V770.944C237.78 770.386 237.408 770.014 236.85 770.014V770.014ZM179.097 763.598C193.326 763.598 203.37 767.225 204.114 770.665C204.114 770.758 204.021 770.851 204.021 770.945V771.41C202.998 774.758 193.047 778.199 179.097 778.199C164.403 778.199 154.173 774.293 154.08 770.852C154.173 767.411 164.403 763.598 179.097 763.598ZM201.882 787.499V784.244C201.882 783.686 201.51 783.314 200.952 783.314C200.394 783.314 200.022 783.686 200.022 784.244V788.521C198.999 788.986 197.79 789.451 196.488 789.824V784.151C196.488 783.593 196.116 783.221 195.558 783.221C195 783.221 194.628 783.593 194.628 784.151V790.103V790.289C193.512 790.568 192.303 790.847 191.001 791.033V787.034C191.001 786.476 190.629 786.104 190.071 786.104C189.513 786.104 189.141 786.476 189.141 787.034V791.311C188.025 791.497 186.816 791.591 185.514 791.684V786.104C185.514 785.546 185.142 785.174 184.584 785.174C184.026 785.174 183.654 785.546 183.654 786.104V791.869C182.445 791.962 181.236 791.962 180.027 791.962V788.335C180.027 787.777 179.655 787.405 179.097 787.405C178.539 787.405 178.167 787.777 178.167 788.335V791.962C176.957 791.962 175.749 791.869 174.54 791.869L174.54 786.104C174.54 785.546 174.168 785.174 173.61 785.174C173.052 785.174 172.68 785.546 172.68 786.104V791.684C171.378 791.591 170.169 791.404 169.053 791.311V787.034C169.053 786.476 168.681 786.104 168.123 786.104C167.565 786.104 167.193 786.476 167.193 787.034V791.033C165.891 790.847 164.682 790.568 163.566 790.289V790.103V784.151C163.566 783.593 163.194 783.221 162.636 783.221C162.078 783.221 161.706 783.593 161.706 784.151V789.824C160.311 789.451 159.101 788.986 158.079 788.521L158.079 784.244C158.079 783.686 157.707 783.314 157.149 783.314C156.591 783.314 156.219 783.686 156.219 784.244V787.406C154.824 786.476 154.08 785.546 154.08 784.616V774.386C158.265 778.106 168.96 780.059 179.097 780.059C189.234 780.059 199.743 778.106 204.021 774.479V784.523C204.021 784.708 204.021 784.802 204.114 784.895C203.927 785.824 203.184 786.661 201.882 787.498L201.882 787.499ZM232.572 783.686V780.059C232.572 779.501 232.2 779.129 231.642 779.129C231.084 779.129 230.712 779.501 230.712 780.059V783.686H227.085V778.571C227.085 778.013 226.713 777.641 226.155 777.641C225.597 777.641 225.225 778.013 225.225 778.571V783.686H221.598V780.059C221.598 779.501 221.226 779.129 220.668 779.129C220.11 779.129 219.738 779.501 219.738 780.059V783.686H216.111V778.571C216.111 778.013 215.739 777.641 215.181 777.641C214.623 777.641 214.251 778.013 214.251 778.571V783.686H210.624V780.059C210.624 779.501 210.252 779.129 209.694 779.129C209.136 779.129 208.764 779.501 208.764 780.059V783.686H205.974L205.974 771.875H235.92V783.686H232.572Z" fill="white"/>
<path d="M234.401 898.716L234.375 898.702C231.452 897.19 228.789 895.224 226.485 892.877L226.474 892.866L226.463 892.854C224.824 891.098 222.732 889.826 220.415 889.177L220.415 889.177C218.099 888.528 215.647 888.528 213.33 889.177C211.013 889.826 208.921 891.098 207.282 892.854L207.271 892.867L207.259 892.879C204.952 895.221 202.289 897.187 199.369 898.702L199.345 898.715L199.32 898.726C199.279 898.745 199.246 898.777 199.225 898.815L199.225 898.816C199.204 898.854 199.196 898.898 199.202 898.941C199.202 898.941 199.202 898.941 199.202 898.941L204.59 936.031L204.59 936.032C204.597 936.079 204.621 936.123 204.658 936.155C204.695 936.187 204.744 936.205 204.795 936.205H228.951L234.401 898.716ZM234.401 898.716L234.428 898.728M234.401 898.716L234.428 898.728M234.428 898.728C234.468 898.746 234.501 898.777 234.522 898.816L235.62 898.218M234.428 898.728L234.336 900.369M234.336 900.369L229.155 936.031L229.155 936.032C229.148 936.079 229.124 936.123 229.087 936.155C229.05 936.187 229.002 936.205 228.951 936.205L234.336 900.369ZM234.336 900.369H234.333L234.544 898.938C234.55 898.896 234.542 898.853 234.521 898.815L235.62 898.218M235.62 898.218C235.47 897.943 235.235 897.723 234.949 897.592L235.78 899.119V898.7C235.756 898.532 235.702 898.369 235.62 898.218Z" stroke="white" stroke-width="2.5"/>
<path d="M154.255 908.679L155.461 908.349C155.449 908.305 155.453 908.259 155.47 908.219L155.47 908.218C155.488 908.176 155.519 908.142 155.56 908.12L155.567 908.116L155.574 908.112C163.68 903.564 165.439 896.16 165.299 889.911C165.229 886.797 164.692 883.928 164.229 881.777C164.128 881.307 164.034 880.884 163.948 880.502C163.832 879.984 163.733 879.54 163.656 879.152C163.601 878.873 163.566 878.663 163.548 878.51C163.553 878.507 163.559 878.505 163.565 878.503L163.566 878.503L179.298 873.451C179.354 873.434 179.415 873.44 179.466 873.467L179.467 873.468C179.518 873.495 179.555 873.541 179.571 873.595L179.571 873.595C180.836 878.002 184.108 881.344 186.947 883.546C189.808 885.766 192.382 886.948 192.484 886.993L192.499 887C192.53 887.017 192.555 887.041 192.574 887.07L192.574 887.07C192.595 887.102 192.606 887.14 192.606 887.18V947.825V947.826C192.606 947.878 192.586 947.929 192.547 947.967C192.508 948.006 192.456 948.028 192.399 948.028H157.291C157.223 948.028 157.159 947.995 157.12 947.94C157.082 947.886 157.073 947.818 157.094 947.757L157.099 947.745L157.102 947.733C158.686 942.893 159.622 937.864 159.886 932.778L159.887 932.767L159.887 932.756C160.014 929.063 158.89 922.944 157.776 917.859C156.65 912.721 155.488 908.445 155.46 908.344L154.255 908.679ZM154.255 908.679C154.303 908.848 158.878 925.693 158.638 932.714M154.255 908.679C154.169 908.363 154.192 908.028 154.32 907.728M158.638 932.714L154.962 907.022C154.675 907.178 154.449 907.427 154.32 907.728M158.638 932.714C158.379 937.689 157.464 942.609 155.914 947.345L158.638 932.714ZM154.32 907.728L154.32 907.728L154.32 907.728Z" stroke="white" stroke-width="2.5"/>
<path d="M188.375 937.597L188.375 941.355L187.125 941.355L187.125 941.983H186.254V943.233H182.011V941.983H177.767V943.233H173.524V941.983H169.281V943.233H165.038V941.983H164.382L163.288 941.729C163.522 940.724 163.729 939.711 163.909 938.693L165.139 938.91C165.323 937.872 165.479 936.828 165.607 935.78L164.366 935.628C164.492 934.603 164.59 933.575 164.661 932.543L165.908 932.629C165.944 932.103 165.973 931.576 165.995 931.048L165.996 931.041L165.996 931.034C166.014 930.441 166.004 929.798 165.972 929.121L164.724 929.18C164.671 928.078 164.556 926.852 164.399 925.562L165.64 925.41C165.495 924.229 165.316 922.999 165.116 921.765L163.882 921.965C163.688 920.765 163.475 919.557 163.254 918.385L164.483 918.154C164.248 916.901 164.006 915.688 163.773 914.566L162.549 914.82C162.27 913.477 162.005 912.263 161.781 911.267L163.001 910.993C162.922 910.642 162.848 910.317 162.781 910.023C163.074 909.8 163.358 909.569 163.631 909.333L162.813 908.388C163.759 907.569 164.572 906.676 165.266 905.729L166.274 906.469C167.058 905.4 167.701 904.271 168.224 903.11L167.084 902.597C167.585 901.484 167.97 900.333 168.262 899.171L169.474 899.475C169.788 898.223 169.997 896.964 170.124 895.727L168.881 895.599C169.008 894.365 169.052 893.147 169.038 891.976L170.288 891.96C170.272 890.64 170.184 889.38 170.058 888.22L168.815 888.355C168.668 886.999 168.466 885.781 168.266 884.768L169.492 884.526C169.442 884.272 169.392 884.031 169.343 883.803L170.913 883.237L170.489 882.061L175.717 880.176L176.141 881.352L177.607 880.823C177.715 881.075 177.828 881.323 177.945 881.566L179.071 881.023C179.652 882.227 180.352 883.323 181.109 884.311L180.117 885.072C180.995 886.218 181.942 887.222 182.869 888.083L183.72 887.168C184.799 888.17 185.856 888.977 186.743 889.589L186.034 890.618C186.434 890.894 186.802 891.132 187.126 891.333L187.126 892.504L188.376 892.504L188.376 896.262L187.126 896.262L187.126 900.02L188.376 900.02L188.376 903.777L187.126 903.777L187.126 907.535L188.376 907.535L188.376 911.293L187.126 911.293L187.126 915.051L188.376 915.051L188.376 918.808L187.126 918.808L187.126 922.566L188.376 922.566L188.375 926.324L187.125 926.324L187.125 930.081L188.375 930.081L188.375 933.839L187.125 933.839L187.125 937.597L188.375 937.597Z" stroke="#ADB6F9" stroke-width="2.5" stroke-dasharray="4 4"/>
<path d="M170.157 1011.23V999.749H173.698C173.815 999.749 174.02 999.751 174.312 999.757C174.605 999.762 174.884 999.783 175.15 999.82C176.038 999.937 176.78 1000.26 177.375 1000.79C177.976 1001.32 178.428 1001.99 178.731 1002.8C179.034 1003.62 179.186 1004.51 179.186 1005.49C179.186 1006.47 179.034 1007.37 178.731 1008.18C178.428 1008.99 177.976 1009.66 177.375 1010.2C176.78 1010.72 176.038 1011.04 175.15 1011.16C174.884 1011.19 174.602 1011.21 174.305 1011.23C174.012 1011.23 173.81 1011.23 173.698 1011.23H170.157ZM171.617 1009.88H173.698C173.9 1009.88 174.126 1009.87 174.376 1009.86C174.626 1009.85 174.844 1009.82 175.03 1009.79C175.658 1009.67 176.165 1009.41 176.554 1009C176.942 1008.59 177.226 1008.08 177.407 1007.47C177.588 1006.86 177.678 1006.2 177.678 1005.49C177.678 1004.77 177.585 1004.1 177.399 1003.49C177.218 1002.88 176.934 1002.37 176.546 1001.97C176.157 1001.56 175.652 1001.3 175.03 1001.19C174.844 1001.16 174.624 1001.13 174.368 1001.12C174.113 1001.11 173.89 1001.1 173.698 1001.1H171.617V1009.88ZM184.747 1011.47C183.902 1011.47 183.163 1011.29 182.53 1010.91C181.902 1010.54 181.413 1010.01 181.062 1009.34C180.711 1008.67 180.536 1007.88 180.536 1006.98C180.536 1006.04 180.709 1005.23 181.054 1004.54C181.4 1003.85 181.881 1003.32 182.498 1002.95C183.12 1002.57 183.848 1002.38 184.683 1002.38C185.55 1002.38 186.286 1002.58 186.892 1002.98C187.504 1003.38 187.961 1003.95 188.264 1004.69C188.573 1005.42 188.706 1006.3 188.663 1007.33H187.227V1006.81C187.211 1005.76 186.996 1004.97 186.581 1004.45C186.167 1003.92 185.55 1003.66 184.731 1003.66C183.854 1003.66 183.187 1003.94 182.729 1004.5C182.272 1005.07 182.043 1005.87 182.043 1006.93C182.043 1007.94 182.272 1008.73 182.729 1009.29C183.187 1009.85 183.838 1010.12 184.683 1010.12C185.252 1010.12 185.747 1009.99 186.167 1009.73C186.587 1009.47 186.916 1009.1 187.156 1008.61L188.519 1009.08C188.184 1009.84 187.679 1010.43 187.004 1010.85C186.334 1011.27 185.582 1011.47 184.747 1011.47ZM181.565 1007.33V1006.18H187.929V1007.33H181.565ZM193.693 1011.46C192.667 1011.46 191.824 1011.24 191.164 1010.79C190.51 1010.34 190.109 1009.71 189.96 1008.9L191.412 1008.67C191.529 1009.14 191.797 1009.51 192.217 1009.79C192.637 1010.06 193.158 1010.2 193.78 1010.2C194.371 1010.2 194.833 1010.07 195.168 1009.83C195.503 1009.59 195.671 1009.25 195.671 1008.83C195.671 1008.59 195.615 1008.39 195.503 1008.24C195.391 1008.09 195.16 1007.94 194.809 1007.81C194.464 1007.68 193.94 1007.52 193.238 1007.33C192.478 1007.13 191.88 1006.92 191.444 1006.7C191.008 1006.49 190.697 1006.23 190.51 1005.95C190.324 1005.66 190.231 1005.31 190.231 1004.9C190.231 1004.4 190.37 1003.95 190.646 1003.58C190.923 1003.19 191.308 1002.9 191.803 1002.69C192.302 1002.48 192.882 1002.38 193.541 1002.38C194.195 1002.38 194.78 1002.48 195.296 1002.69C195.812 1002.9 196.226 1003.19 196.54 1003.58C196.859 1003.95 197.048 1004.4 197.106 1004.9L195.655 1005.16C195.586 1004.7 195.362 1004.34 194.985 1004.07C194.613 1003.81 194.131 1003.66 193.541 1003.65C192.983 1003.63 192.528 1003.73 192.177 1003.94C191.832 1004.16 191.659 1004.46 191.659 1004.83C191.659 1005.04 191.723 1005.21 191.85 1005.36C191.983 1005.51 192.225 1005.65 192.576 1005.79C192.932 1005.92 193.448 1006.07 194.123 1006.24C194.884 1006.43 195.482 1006.64 195.918 1006.87C196.359 1007.09 196.673 1007.36 196.859 1007.67C197.045 1007.97 197.138 1008.35 197.138 1008.79C197.138 1009.62 196.832 1010.28 196.221 1010.75C195.609 1011.23 194.767 1011.46 193.693 1011.46ZM199.057 1001.1V999.629H200.476V1001.1H199.057ZM199.057 1011.23V1002.62H200.476V1011.23H199.057ZM206.355 1015.3C205.903 1015.3 205.461 1015.23 205.031 1015.09C204.6 1014.96 204.204 1014.75 203.842 1014.46C203.486 1014.19 203.188 1013.84 202.949 1013.41L204.249 1012.72C204.462 1013.14 204.762 1013.45 205.15 1013.64C205.544 1013.83 205.948 1013.93 206.363 1013.93C206.91 1013.93 207.365 1013.83 207.726 1013.63C208.088 1013.43 208.354 1013.13 208.524 1012.74C208.699 1012.35 208.784 1011.86 208.779 1011.27V1008.92H208.947V1002.62H210.207V1011.29C210.207 1011.52 210.199 1011.75 210.183 1011.97C210.172 1012.19 210.146 1012.4 210.103 1012.61C209.991 1013.22 209.771 1013.73 209.441 1014.12C209.111 1014.52 208.686 1014.81 208.165 1015.01C207.644 1015.2 207.04 1015.3 206.355 1015.3ZM206.251 1011.47C205.448 1011.47 204.759 1011.27 204.185 1010.87C203.611 1010.47 203.167 1009.93 202.853 1009.24C202.545 1008.55 202.391 1007.78 202.391 1006.92C202.391 1006.06 202.545 1005.28 202.853 1004.6C203.167 1003.91 203.611 1003.37 204.185 1002.98C204.759 1002.58 205.445 1002.38 206.243 1002.38C207.056 1002.38 207.74 1002.58 208.293 1002.97C208.846 1003.36 209.263 1003.9 209.545 1004.59C209.832 1005.28 209.975 1006.05 209.975 1006.92C209.975 1007.77 209.832 1008.55 209.545 1009.24C209.263 1009.93 208.846 1010.47 208.293 1010.87C207.74 1011.27 207.059 1011.47 206.251 1011.47ZM206.426 1010.17C207.006 1010.17 207.482 1010.03 207.854 1009.76C208.226 1009.48 208.5 1009.09 208.675 1008.6C208.856 1008.11 208.947 1007.55 208.947 1006.92C208.947 1006.28 208.856 1005.72 208.675 1005.24C208.5 1004.75 208.229 1004.37 207.862 1004.1C207.495 1003.82 207.03 1003.68 206.466 1003.68C205.881 1003.68 205.398 1003.82 205.015 1004.11C204.637 1004.4 204.355 1004.79 204.169 1005.28C203.988 1005.76 203.898 1006.31 203.898 1006.92C203.898 1007.53 203.991 1008.08 204.177 1008.58C204.363 1009.07 204.642 1009.45 205.015 1009.74C205.392 1010.03 205.863 1010.17 206.426 1010.17ZM218.567 1011.23V1006.92C218.567 1006.51 218.53 1006.12 218.455 1005.74C218.386 1005.36 218.261 1005.02 218.08 1004.73C217.905 1004.42 217.666 1004.18 217.363 1004.01C217.065 1003.83 216.687 1003.74 216.23 1003.74C215.874 1003.74 215.549 1003.81 215.257 1003.93C214.97 1004.04 214.723 1004.23 214.515 1004.47C214.308 1004.71 214.146 1005.02 214.029 1005.4C213.917 1005.76 213.861 1006.2 213.861 1006.7L212.928 1006.41C212.928 1005.57 213.077 1004.86 213.375 1004.26C213.678 1003.66 214.101 1003.2 214.643 1002.88C215.191 1002.56 215.834 1002.4 216.573 1002.4C217.131 1002.4 217.607 1002.48 218.001 1002.66C218.394 1002.84 218.721 1003.07 218.982 1003.36C219.242 1003.65 219.447 1003.97 219.596 1004.33C219.745 1004.69 219.848 1005.06 219.907 1005.43C219.971 1005.79 220.002 1006.14 220.002 1006.47V1011.23H218.567ZM212.426 1011.23V1002.62H213.702V1004.92H213.861V1011.23H212.426ZM146.285 1027.23V1015.75H149.826C149.943 1015.75 150.148 1015.75 150.44 1015.76C150.733 1015.76 151.012 1015.78 151.278 1015.82C152.166 1015.94 152.908 1016.26 153.503 1016.79C154.104 1017.32 154.556 1017.99 154.859 1018.8C155.162 1019.62 155.314 1020.51 155.314 1021.49C155.314 1022.47 155.162 1023.37 154.859 1024.18C154.556 1024.99 154.104 1025.66 153.503 1026.2C152.908 1026.72 152.166 1027.04 151.278 1027.16C151.012 1027.19 150.73 1027.21 150.433 1027.23C150.14 1027.23 149.938 1027.23 149.826 1027.23H146.285ZM147.745 1025.88H149.826C150.028 1025.88 150.254 1025.87 150.504 1025.86C150.754 1025.85 150.972 1025.82 151.158 1025.79C151.786 1025.67 152.293 1025.41 152.682 1025C153.07 1024.59 153.354 1024.08 153.535 1023.47C153.716 1022.86 153.806 1022.2 153.806 1021.49C153.806 1020.77 153.713 1020.1 153.527 1019.49C153.346 1018.88 153.062 1018.37 152.674 1017.97C152.285 1017.56 151.78 1017.3 151.158 1017.19C150.972 1017.16 150.752 1017.13 150.496 1017.12C150.241 1017.11 150.018 1017.1 149.826 1017.1H147.745V1025.88ZM160.875 1027.47C160.03 1027.47 159.291 1027.29 158.658 1026.91C158.03 1026.54 157.541 1026.01 157.19 1025.34C156.839 1024.67 156.664 1023.88 156.664 1022.98C156.664 1022.04 156.837 1021.23 157.182 1020.54C157.528 1019.85 158.009 1019.32 158.626 1018.95C159.248 1018.57 159.976 1018.38 160.811 1018.38C161.678 1018.38 162.414 1018.58 163.02 1018.98C163.632 1019.38 164.089 1019.95 164.392 1020.69C164.701 1021.42 164.834 1022.3 164.791 1023.33H163.355V1022.81C163.339 1021.76 163.124 1020.97 162.709 1020.45C162.295 1019.92 161.678 1019.66 160.859 1019.66C159.982 1019.66 159.315 1019.94 158.857 1020.5C158.4 1021.07 158.171 1021.87 158.171 1022.93C158.171 1023.94 158.4 1024.73 158.857 1025.29C159.315 1025.85 159.966 1026.12 160.811 1026.12C161.38 1026.12 161.875 1025.99 162.295 1025.73C162.715 1025.47 163.044 1025.1 163.284 1024.61L164.647 1025.08C164.313 1025.84 163.807 1026.43 163.132 1026.85C162.462 1027.27 161.71 1027.47 160.875 1027.47ZM157.693 1023.33V1022.18H164.057V1023.33H157.693ZM168.584 1027.23L165.458 1018.62H166.893L169.31 1025.42L171.718 1018.62H173.162L170.036 1027.23H168.584ZM178.026 1027.47C177.18 1027.47 176.441 1027.29 175.808 1026.91C175.181 1026.54 174.692 1026.01 174.341 1025.34C173.99 1024.67 173.814 1023.88 173.814 1022.98C173.814 1022.04 173.987 1021.23 174.333 1020.54C174.678 1019.85 175.16 1019.32 175.776 1018.95C176.399 1018.57 177.127 1018.38 177.962 1018.38C178.828 1018.38 179.565 1018.58 180.171 1018.98C180.782 1019.38 181.24 1019.95 181.543 1020.69C181.851 1021.42 181.984 1022.3 181.941 1023.33H180.506V1022.81C180.49 1021.76 180.275 1020.97 179.86 1020.45C179.445 1019.92 178.828 1019.66 178.01 1019.66C177.132 1019.66 176.465 1019.94 176.008 1020.5C175.55 1021.07 175.322 1021.87 175.322 1022.93C175.322 1023.94 175.55 1024.73 176.008 1025.29C176.465 1025.85 177.116 1026.12 177.962 1026.12C178.531 1026.12 179.025 1025.99 179.445 1025.73C179.865 1025.47 180.195 1025.1 180.434 1024.61L181.798 1025.08C181.463 1025.84 180.958 1026.43 180.283 1026.85C179.613 1027.27 178.86 1027.47 178.026 1027.47ZM174.843 1023.33V1022.18H181.208V1023.33H174.843ZM183.877 1027.23V1015.51H185.296V1027.23H183.877ZM191.358 1027.47C190.502 1027.47 189.763 1027.28 189.141 1026.89C188.524 1026.5 188.048 1025.97 187.713 1025.28C187.378 1024.59 187.211 1023.81 187.211 1022.92C187.211 1022.01 187.381 1021.22 187.721 1020.54C188.062 1019.86 188.543 1019.33 189.165 1018.95C189.787 1018.57 190.518 1018.38 191.358 1018.38C192.219 1018.38 192.961 1018.57 193.583 1018.96C194.205 1019.35 194.681 1019.88 195.011 1020.57C195.346 1021.25 195.513 1022.03 195.513 1022.92C195.513 1023.82 195.346 1024.61 195.011 1025.3C194.676 1025.98 194.197 1026.51 193.575 1026.9C192.953 1027.28 192.214 1027.47 191.358 1027.47ZM191.358 1026.12C192.251 1026.12 192.916 1025.83 193.352 1025.23C193.788 1024.64 194.006 1023.87 194.006 1022.92C194.006 1021.95 193.785 1021.17 193.344 1020.6C192.903 1020.02 192.241 1019.73 191.358 1019.73C190.757 1019.73 190.263 1019.86 189.875 1020.14C189.486 1020.41 189.197 1020.78 189.005 1021.26C188.814 1021.74 188.718 1022.29 188.718 1022.92C188.718 1023.89 188.941 1024.66 189.388 1025.25C189.835 1025.83 190.491 1026.12 191.358 1026.12ZM201.225 1027.47C200.417 1027.47 199.736 1027.27 199.183 1026.87C198.63 1026.47 198.21 1025.93 197.923 1025.24C197.641 1024.55 197.501 1023.77 197.501 1022.92C197.501 1022.05 197.641 1021.28 197.923 1020.59C198.21 1019.9 198.63 1019.36 199.183 1018.97C199.742 1018.58 200.425 1018.38 201.233 1018.38C202.031 1018.38 202.717 1018.58 203.291 1018.98C203.87 1019.37 204.314 1019.91 204.623 1020.6C204.931 1021.28 205.085 1022.06 205.085 1022.92C205.085 1023.78 204.931 1024.55 204.623 1025.24C204.314 1025.93 203.87 1026.47 203.291 1026.87C202.717 1027.27 202.028 1027.47 201.225 1027.47ZM197.261 1031.06V1018.62H198.529V1024.96H198.689V1031.06H197.261ZM201.05 1026.17C201.619 1026.17 202.089 1026.03 202.461 1025.74C202.834 1025.45 203.113 1025.07 203.299 1024.58C203.485 1024.08 203.578 1023.53 203.578 1022.92C203.578 1022.31 203.485 1021.76 203.299 1021.28C203.118 1020.79 202.836 1020.4 202.453 1020.11C202.076 1019.82 201.595 1019.68 201.01 1019.68C200.452 1019.68 199.989 1019.82 199.622 1020.1C199.255 1020.37 198.981 1020.75 198.801 1021.24C198.62 1021.72 198.529 1022.28 198.529 1022.92C198.529 1023.55 198.617 1024.11 198.793 1024.6C198.973 1025.09 199.25 1025.48 199.622 1025.76C199.994 1026.03 200.47 1026.17 201.05 1026.17ZM217.13 1027.23L217.138 1021.72C217.138 1021.08 216.965 1020.58 216.62 1020.21C216.279 1019.85 215.835 1019.66 215.288 1019.66C214.969 1019.66 214.666 1019.74 214.378 1019.89C214.091 1020.03 213.857 1020.26 213.677 1020.57C213.496 1020.88 213.405 1021.28 213.405 1021.76L212.656 1021.46C212.645 1020.85 212.77 1020.31 213.031 1019.86C213.296 1019.39 213.658 1019.03 214.115 1018.78C214.573 1018.52 215.088 1018.4 215.663 1018.4C216.561 1018.4 217.268 1018.67 217.784 1019.22C218.3 1019.76 218.558 1020.49 218.558 1021.41L218.55 1027.23H217.13ZM206.826 1027.23V1018.62H208.094V1020.92H208.253V1027.23H206.826ZM211.986 1027.23L211.994 1021.78C211.994 1021.12 211.824 1020.6 211.483 1020.23C211.143 1019.85 210.691 1019.66 210.128 1019.66C209.569 1019.66 209.117 1019.86 208.772 1020.24C208.426 1020.62 208.253 1021.13 208.253 1021.76L207.504 1021.32C207.504 1020.76 207.637 1020.26 207.902 1019.82C208.168 1019.37 208.53 1019.03 208.987 1018.78C209.444 1018.52 209.963 1018.4 210.542 1018.4C211.122 1018.4 211.627 1018.52 212.058 1018.76C212.488 1019.01 212.821 1019.36 213.055 1019.82C213.288 1020.27 213.405 1020.81 213.405 1021.44L213.397 1027.23H211.986ZM224.29 1027.47C223.444 1027.47 222.705 1027.29 222.072 1026.91C221.445 1026.54 220.956 1026.01 220.605 1025.34C220.254 1024.67 220.079 1023.88 220.079 1022.98C220.079 1022.04 220.251 1021.23 220.597 1020.54C220.943 1019.85 221.424 1019.32 222.041 1018.95C222.663 1018.57 223.391 1018.38 224.226 1018.38C225.093 1018.38 225.829 1018.58 226.435 1018.98C227.047 1019.38 227.504 1019.95 227.807 1020.69C228.115 1021.42 228.248 1022.3 228.206 1023.33H226.77V1022.81C226.754 1021.76 226.539 1020.97 226.124 1020.45C225.709 1019.92 225.093 1019.66 224.274 1019.66C223.396 1019.66 222.729 1019.94 222.272 1020.5C221.815 1021.07 221.586 1021.87 221.586 1022.93C221.586 1023.94 221.815 1024.73 222.272 1025.29C222.729 1025.85 223.38 1026.12 224.226 1026.12C224.795 1026.12 225.289 1025.99 225.709 1025.73C226.129 1025.47 226.459 1025.1 226.698 1024.61L228.062 1025.08C227.727 1025.84 227.222 1026.43 226.547 1026.85C225.877 1027.27 225.124 1027.47 224.29 1027.47ZM221.107 1023.33V1022.18H227.472V1023.33H221.107ZM235.881 1027.23V1022.92C235.881 1022.51 235.844 1022.12 235.769 1021.74C235.7 1021.36 235.575 1021.02 235.394 1020.73C235.219 1020.42 234.98 1020.18 234.677 1020.01C234.379 1019.83 234.001 1019.74 233.544 1019.74C233.188 1019.74 232.863 1019.81 232.571 1019.93C232.284 1020.04 232.037 1020.23 231.829 1020.47C231.622 1020.71 231.46 1021.02 231.343 1021.4C231.231 1021.76 231.175 1022.2 231.175 1022.7L230.242 1022.41C230.242 1021.57 230.391 1020.86 230.689 1020.26C230.992 1019.66 231.415 1019.2 231.957 1018.88C232.505 1018.56 233.148 1018.4 233.887 1018.4C234.445 1018.4 234.921 1018.48 235.315 1018.66C235.708 1018.84 236.035 1019.07 236.296 1019.36C236.556 1019.65 236.761 1019.97 236.91 1020.33C237.059 1020.69 237.162 1021.06 237.221 1021.43C237.285 1021.79 237.316 1022.14 237.316 1022.47V1027.23H235.881ZM229.74 1027.23V1018.62H231.016V1020.92H231.175V1027.23H229.74ZM244.199 1027.23C243.689 1027.33 243.184 1027.37 242.684 1027.35C242.189 1027.34 241.748 1027.24 241.36 1027.06C240.972 1026.87 240.677 1026.58 240.475 1026.2C240.304 1025.86 240.211 1025.51 240.195 1025.17C240.185 1024.82 240.179 1024.42 240.179 1023.98V1016.23H241.599V1023.92C241.599 1024.27 241.602 1024.57 241.607 1024.82C241.618 1025.07 241.674 1025.28 241.775 1025.46C241.966 1025.8 242.269 1026 242.684 1026.06C243.104 1026.12 243.609 1026.1 244.199 1026.01V1027.23ZM238.433 1019.79V1018.62H244.199V1019.79H238.433Z" fill="white"/>
<path fill-rule="evenodd" clip-rule="evenodd" d="M148.988 1092.86C148.567 1092.43 148.403 1091.8 148.557 1091.21C148.71 1090.61 149.158 1090.15 149.732 1089.99C150.306 1089.83 150.918 1090 151.338 1090.43L158.616 1097.96L170.44 1085.74C170.861 1085.3 171.474 1085.13 172.048 1085.29C172.623 1085.45 173.071 1085.92 173.225 1086.51C173.379 1087.1 173.215 1087.74 172.794 1088.17L159.787 1101.6C159.475 1101.92 159.052 1102.1 158.612 1102.1C158.171 1102.1 157.748 1101.92 157.436 1101.6L148.983 1092.86L148.988 1092.86Z" fill="#67BCAB"/>
<line x1="190.815" y1="1092.23" x2="240.25" y2="1092.23" stroke="white" stroke-width="2.5" stroke-linecap="round"/>
<path fill-rule="evenodd" clip-rule="evenodd" d="M148.988 1125.31C148.567 1124.88 148.403 1124.25 148.557 1123.65C148.71 1123.06 149.158 1122.6 149.732 1122.44C150.306 1122.28 150.918 1122.45 151.338 1122.88L158.616 1130.4L170.44 1118.19C170.861 1117.75 171.474 1117.58 172.048 1117.74C172.623 1117.9 173.071 1118.36 173.225 1118.96C173.379 1119.55 173.215 1120.19 172.794 1120.62L159.787 1134.05C159.475 1134.37 159.052 1134.55 158.612 1134.55C158.171 1134.55 157.748 1134.37 157.436 1134.05L148.983 1125.31L148.988 1125.31Z" fill="#67BCAB"/>
<line x1="190.815" y1="1123.63" x2="240.25" y2="1123.63" stroke="white" stroke-width="2.5" stroke-linecap="round"/>
<path fill-rule="evenodd" clip-rule="evenodd" d="M148.988 1157.76C148.567 1157.33 148.403 1156.7 148.557 1156.1C148.71 1155.51 149.158 1155.05 149.732 1154.89C150.306 1154.73 150.918 1154.9 151.338 1155.33L158.616 1162.85L170.44 1150.64C170.861 1150.2 171.474 1150.03 172.048 1150.19C172.623 1150.35 173.071 1150.81 173.225 1151.41C173.379 1152 173.215 1152.63 172.794 1153.07L159.787 1166.5C159.475 1166.82 159.052 1167 158.612 1167C158.171 1167 157.748 1166.82 157.436 1166.5L148.983 1157.76L148.988 1157.76Z" fill="#67BCAB"/>
<line x1="190.815" y1="1155.04" x2="240.25" y2="1155.04" stroke="white" stroke-width="2.5" stroke-linecap="round"/>
<path fill-rule="evenodd" clip-rule="evenodd" d="M185.275 1237.09H174.11L184.441 1268.14H225.4C225.884 1268.15 226.357 1268 226.749 1267.72C227.141 1267.43 227.428 1267.03 227.569 1266.57L236.177 1240.07C236.404 1239.38 236.284 1238.62 235.854 1238.03C235.425 1237.44 234.738 1237.09 234.008 1237.09H226.124C225.776 1242.27 223.473 1247.12 219.681 1250.67C215.89 1254.21 210.892 1256.19 205.7 1256.19C200.509 1256.19 195.511 1254.21 191.719 1250.67C187.927 1247.12 185.624 1242.27 185.277 1237.09L185.275 1237.09ZM205.7 1217.99C201.001 1217.99 196.494 1219.86 193.171 1223.18C189.848 1226.51 187.981 1231.01 187.981 1235.71C187.981 1240.41 189.848 1244.92 193.171 1248.24C196.494 1251.56 201.001 1253.43 205.7 1253.43C210.4 1253.43 214.907 1251.56 218.23 1248.24C221.553 1244.92 223.42 1240.41 223.42 1235.71C223.415 1231.01 221.546 1226.51 218.224 1223.19C214.902 1219.87 210.398 1218 205.7 1217.99ZM225.718 1289.01C224.876 1289.01 224.068 1288.67 223.473 1288.08C222.877 1287.48 222.543 1286.67 222.543 1285.83C222.543 1284.99 222.878 1284.18 223.474 1283.59C224.069 1282.99 224.877 1282.66 225.719 1282.66C226.561 1282.66 227.369 1282.99 227.964 1283.59C228.559 1284.18 228.893 1284.99 228.892 1285.83C228.892 1286.68 228.557 1287.48 227.962 1288.08C227.366 1288.67 226.559 1289.01 225.718 1289.01ZM188.821 1289.01C187.979 1289.01 187.171 1288.67 186.575 1288.08C185.979 1287.48 185.644 1286.68 185.644 1285.83C185.644 1284.99 185.979 1284.18 186.574 1283.59C187.17 1282.99 187.978 1282.66 188.82 1282.66C189.662 1282.66 190.469 1282.99 191.065 1283.59C191.66 1284.18 191.994 1284.99 191.994 1285.83C191.993 1286.68 191.658 1287.48 191.063 1288.08C190.468 1288.67 189.662 1289.01 188.821 1289.01ZM152.323 1223.89H165.173C165.655 1223.88 166.127 1224.03 166.517 1224.31C166.908 1224.59 167.196 1224.99 167.338 1225.45L181.631 1268.42C179.693 1269.01 178.158 1270.49 177.507 1272.41C176.856 1274.33 177.168 1276.44 178.346 1278.09C179.524 1279.74 181.423 1280.72 183.449 1280.72H185.82C184.313 1281.61 183.273 1283.11 182.978 1284.83C182.683 1286.56 183.163 1288.32 184.289 1289.66C185.415 1290.99 187.073 1291.76 188.82 1291.76C190.567 1291.76 192.226 1290.99 193.352 1289.66C194.478 1288.32 194.958 1286.56 194.663 1284.83C194.368 1283.11 193.328 1281.61 191.821 1280.72H222.718C221.211 1281.61 220.171 1283.11 219.876 1284.83C219.581 1286.56 220.061 1288.32 221.187 1289.66C222.313 1290.99 223.971 1291.76 225.719 1291.76C227.466 1291.76 229.124 1290.99 230.25 1289.66C231.377 1288.32 231.856 1286.56 231.561 1284.83C231.266 1283.11 230.226 1281.61 228.719 1280.72H230.09L237.035 1283.2C237.497 1283.36 238.007 1283.26 238.377 1282.94C238.746 1282.62 238.92 1282.13 238.835 1281.65C238.749 1281.17 238.415 1280.77 237.959 1280.6L230.791 1278.05C230.642 1278 230.485 1277.97 230.327 1277.97H183.448C182.184 1277.97 181.016 1277.3 180.385 1276.2C179.752 1275.11 179.752 1273.76 180.385 1272.66C181.016 1271.57 182.184 1270.9 183.448 1270.9H225.399C226.465 1270.91 227.506 1270.58 228.368 1269.95C229.231 1269.32 229.868 1268.44 230.187 1267.42L238.796 1240.92C239.294 1239.39 239.028 1237.71 238.08 1236.41C237.133 1235.11 235.618 1234.33 234.007 1234.33H226.123C225.775 1229.15 223.472 1224.3 219.68 1220.75C215.889 1217.21 210.891 1215.24 205.699 1215.24C200.508 1215.24 195.51 1217.21 191.718 1220.75C187.926 1224.3 185.623 1229.15 185.276 1234.33H173.192L169.949 1224.58C169.625 1223.57 168.987 1222.69 168.127 1222.07C167.267 1221.45 166.232 1221.12 165.172 1221.14H152.323C151.831 1221.14 151.376 1221.4 151.13 1221.82C150.885 1222.25 150.885 1222.77 151.13 1223.2C151.376 1223.63 151.831 1223.89 152.323 1223.89Z" fill="white"/>
<path fill-rule="evenodd" clip-rule="evenodd" d="M195.848 1235.06C195.5 1234.72 195.364 1234.21 195.491 1233.74C195.618 1233.26 195.989 1232.89 196.464 1232.76C196.939 1232.63 197.446 1232.77 197.794 1233.12L203.819 1239.14L213.609 1229.35C213.958 1229.01 214.465 1228.87 214.941 1229C215.417 1229.12 215.788 1229.5 215.915 1229.97C216.043 1230.45 215.907 1230.96 215.558 1231.3L204.79 1242.06C204.531 1242.32 204.181 1242.47 203.816 1242.47C203.451 1242.47 203.101 1242.32 202.843 1242.06L195.844 1235.06L195.848 1235.06Z" fill="#67BCAB"/>
<path d="M195 1346.04C186.281 1346.04 179.19 1353.14 179.19 1361.85C179.19 1370.57 186.281 1377.66 195 1377.66C203.719 1377.66 210.81 1370.57 210.81 1361.85C210.81 1353.14 203.719 1346.04 195 1346.04ZM195 1375.8C187.309 1375.8 181.05 1369.55 181.05 1361.85C181.05 1354.16 187.309 1347.9 195 1347.9C202.694 1347.9 208.95 1354.16 208.95 1361.85C208.95 1369.55 202.694 1375.8 195 1375.8Z" fill="#67BCAB"/>
<path d="M198.777 1358.08C198.777 1358.6 199.191 1359.01 199.707 1359.01C200.223 1359.01 200.637 1358.6 200.637 1358.08C200.637 1355.5 198.534 1353.39 195.947 1353.39L195.951 1351.96C195.951 1351.44 195.5 1351.01 195.021 1351.03C194.509 1351.03 194.091 1351.44 194.091 1351.96L194.087 1353.39H194.065C192.819 1353.39 191.642 1353.87 190.752 1354.76C189.862 1355.65 189.368 1356.83 189.365 1358.08C189.361 1359.33 189.851 1360.51 190.738 1361.4C191.624 1362.29 192.805 1362.78 194.055 1362.79H194.069L194.058 1368.47C192.496 1368.46 191.225 1367.19 191.225 1365.63C191.225 1365.12 190.807 1364.7 190.295 1364.7C189.782 1364.7 189.365 1365.12 189.365 1365.63C189.365 1368.22 191.468 1370.32 194.055 1370.33L194.051 1371.76C194.051 1372.27 194.465 1372.69 194.981 1372.69C195.493 1372.69 195.911 1372.27 195.911 1371.76L195.915 1370.33H195.936C198.523 1370.33 200.63 1368.22 200.637 1365.64C200.641 1363.05 198.537 1360.93 195.947 1360.93H195.933L195.944 1355.25C197.506 1355.25 198.777 1356.52 198.777 1358.08ZM192.053 1360.09C191.515 1359.55 191.221 1358.83 191.221 1358.08C191.221 1357.32 191.519 1356.61 192.06 1356.08C192.598 1355.54 193.31 1355.25 194.062 1355.25H194.08L194.069 1360.93H194.054C193.299 1360.93 192.59 1360.63 192.053 1360.09L192.053 1360.09ZM198.777 1365.63C198.774 1367.2 197.498 1368.47 195.936 1368.47H195.918L195.929 1362.79H195.944C197.509 1362.79 198.781 1364.07 198.777 1365.63L198.777 1365.63Z" fill="#67BCAB"/>
<path d="M210.745 1397.43C210.734 1397.4 210.723 1397.38 210.712 1397.35C210.668 1397.26 210.614 1397.17 210.541 1397.1C210.538 1397.09 210.538 1397.09 210.538 1397.09C210.48 1397.03 210.414 1396.98 210.345 1396.94L195.465 1388.4C195.178 1388.23 194.826 1388.23 194.539 1388.4L179.659 1396.94C179.586 1396.98 179.521 1397.03 179.466 1397.09L179.463 1397.09C179.39 1397.17 179.332 1397.26 179.288 1397.35C179.277 1397.38 179.266 1397.4 179.256 1397.42C179.219 1397.53 179.19 1397.63 179.19 1397.74V1416.65C179.19 1416.97 179.354 1417.27 179.626 1417.44L194.506 1426.81C194.659 1426.9 194.829 1426.95 195 1426.95C195.171 1426.95 195.345 1426.91 195.494 1426.81L210.374 1417.44C210.643 1417.27 210.81 1416.97 210.81 1416.65V1397.74C210.81 1397.63 210.781 1397.53 210.745 1397.42L210.745 1397.43ZM195 1390.28L208.035 1397.76L195 1405.51L181.961 1397.76L195 1390.28ZM195 1424.93L181.05 1416.14V1399.39L194.524 1407.4C194.669 1407.49 194.836 1407.53 195 1407.53C195.163 1407.53 195.327 1407.49 195.476 1407.4L208.95 1399.39V1416.14L195 1424.93Z" fill="white"/>
<path d="M174.075 1402.91C173.563 1402.91 173.145 1403.33 173.145 1403.84V1408.32C166.918 1402.76 163.38 1394.91 163.38 1386.5C163.38 1377.43 167.485 1369.02 174.649 1363.42C175.052 1363.1 175.124 1362.52 174.808 1362.11C174.492 1361.71 173.907 1361.64 173.504 1361.95C165.89 1367.91 161.523 1376.86 161.523 1386.5C161.523 1395.29 165.159 1403.49 171.564 1409.39H167.604C167.092 1409.39 166.674 1409.8 166.674 1410.32C166.674 1410.83 167.092 1411.25 167.604 1411.25H174.077C174.216 1411.25 174.343 1411.21 174.459 1411.16C174.492 1411.15 174.513 1411.12 174.546 1411.1C174.63 1411.05 174.71 1410.99 174.771 1410.92C174.782 1410.91 174.8 1410.9 174.811 1410.89C174.837 1410.86 174.844 1410.82 174.862 1410.79C174.895 1410.73 174.928 1410.68 174.949 1410.62C174.971 1410.55 174.978 1410.49 174.986 1410.43C174.989 1410.39 175.007 1410.36 175.007 1410.32V1403.84C175.007 1403.33 174.59 1402.91 174.077 1402.91L174.075 1402.91Z" fill="white"/>
<path d="M218.439 1363.61H222.399C222.915 1363.61 223.329 1363.2 223.329 1362.68C223.329 1362.17 222.915 1361.75 222.399 1361.75H215.925C215.907 1361.75 215.893 1361.76 215.874 1361.76C215.809 1361.77 215.744 1361.79 215.678 1361.8C215.624 1361.82 215.573 1361.83 215.522 1361.86C215.471 1361.88 215.424 1361.92 215.377 1361.95C215.326 1361.99 215.275 1362.03 215.235 1362.08C215.221 1362.09 215.206 1362.1 215.191 1362.11C215.166 1362.15 215.159 1362.18 215.141 1362.22C215.108 1362.27 215.079 1362.32 215.057 1362.39C215.035 1362.45 215.028 1362.51 215.021 1362.57C215.017 1362.61 214.999 1362.65 214.999 1362.69V1369.16C214.999 1369.67 215.413 1370.09 215.929 1370.09C216.445 1370.09 216.859 1369.67 216.859 1369.16V1364.69C223.086 1370.25 226.624 1378.09 226.624 1386.5C226.624 1395.57 222.519 1403.99 215.355 1409.59C214.952 1409.9 214.88 1410.49 215.196 1410.89C215.377 1411.13 215.653 1411.25 215.929 1411.25C216.129 1411.25 216.333 1411.19 216.503 1411.05C224.118 1405.1 228.485 1396.15 228.485 1386.51C228.485 1377.72 224.848 1369.52 218.444 1363.62L218.439 1363.61Z" fill="white"/>
<path d="M160.772 1487V1475.52H165.31C165.422 1475.52 165.555 1475.52 165.709 1475.53C165.863 1475.54 166.012 1475.55 166.155 1475.58C166.778 1475.67 167.299 1475.89 167.719 1476.22C168.144 1476.55 168.463 1476.96 168.676 1477.47C168.888 1477.97 168.995 1478.52 168.995 1479.14C168.995 1479.74 168.886 1480.3 168.668 1480.8C168.455 1481.3 168.136 1481.72 167.711 1482.06C167.291 1482.38 166.772 1482.6 166.155 1482.69C166.012 1482.71 165.863 1482.73 165.709 1482.74C165.555 1482.75 165.422 1482.76 165.31 1482.76H162.192V1487H160.772ZM162.192 1481.41H165.262C165.363 1481.41 165.478 1481.4 165.605 1481.39C165.738 1481.38 165.863 1481.36 165.98 1481.34C166.347 1481.25 166.645 1481.1 166.873 1480.87C167.107 1480.65 167.277 1480.38 167.384 1480.08C167.49 1479.77 167.543 1479.46 167.543 1479.14C167.543 1478.82 167.49 1478.51 167.384 1478.2C167.277 1477.89 167.107 1477.63 166.873 1477.4C166.645 1477.17 166.347 1477.01 165.98 1476.93C165.863 1476.9 165.738 1476.88 165.605 1476.88C165.478 1476.87 165.363 1476.86 165.262 1476.86H162.192V1481.41ZM173.856 1487.22C173.303 1487.22 172.827 1487.14 172.428 1486.96C172.034 1486.78 171.707 1486.55 171.447 1486.26C171.186 1485.97 170.982 1485.64 170.833 1485.29C170.684 1484.93 170.578 1484.56 170.514 1484.19C170.455 1483.82 170.426 1483.47 170.426 1483.15V1478.39H171.862V1482.7C171.862 1483.11 171.899 1483.5 171.973 1483.87C172.048 1484.25 172.173 1484.59 172.348 1484.89C172.529 1485.2 172.768 1485.44 173.066 1485.61C173.369 1485.79 173.747 1485.88 174.199 1485.88C174.555 1485.88 174.879 1485.81 175.172 1485.69C175.464 1485.57 175.714 1485.39 175.921 1485.15C176.129 1484.91 176.288 1484.6 176.4 1484.22C176.511 1483.85 176.567 1483.42 176.567 1482.92L177.5 1483.21C177.5 1484.04 177.349 1484.76 177.046 1485.36C176.748 1485.96 176.325 1486.42 175.778 1486.74C175.235 1487.06 174.595 1487.22 173.856 1487.22ZM176.727 1487V1484.7H176.567V1478.39H177.995V1487H176.727ZM180.228 1487V1478.39H181.496V1480.47L181.289 1480.2C181.39 1479.93 181.52 1479.69 181.679 1479.46C181.844 1479.24 182.028 1479.06 182.23 1478.91C182.453 1478.73 182.706 1478.59 182.987 1478.5C183.269 1478.4 183.556 1478.35 183.849 1478.33C184.141 1478.31 184.415 1478.33 184.67 1478.39V1479.72C184.372 1479.64 184.045 1479.62 183.689 1479.65C183.333 1479.69 183.003 1479.82 182.7 1480.05C182.424 1480.24 182.208 1480.48 182.054 1480.76C181.905 1481.04 181.802 1481.35 181.743 1481.68C181.685 1482 181.655 1482.34 181.655 1482.68V1487H180.228ZM189.651 1487.24C188.779 1487.24 188.038 1487.05 187.426 1486.66C186.82 1486.26 186.358 1485.72 186.039 1485.04C185.72 1484.35 185.555 1483.57 185.544 1482.69C185.555 1481.79 185.722 1481.01 186.046 1480.32C186.376 1479.64 186.847 1479.1 187.458 1478.72C188.07 1478.34 188.806 1478.15 189.667 1478.15C190.577 1478.15 191.358 1478.37 192.012 1478.82C192.671 1479.26 193.113 1479.88 193.336 1480.65L191.932 1481.07C191.752 1480.57 191.457 1480.19 191.047 1479.91C190.643 1479.63 190.178 1479.5 189.651 1479.5C189.061 1479.5 188.575 1479.63 188.192 1479.91C187.809 1480.18 187.525 1480.56 187.339 1481.04C187.152 1481.52 187.057 1482.07 187.051 1482.69C187.062 1483.65 187.283 1484.42 187.713 1485.01C188.149 1485.6 188.795 1485.89 189.651 1485.89C190.215 1485.89 190.683 1485.76 191.055 1485.51C191.427 1485.25 191.709 1484.87 191.901 1484.38L193.336 1484.76C193.038 1485.56 192.573 1486.18 191.94 1486.6C191.308 1487.03 190.545 1487.24 189.651 1487.24ZM201.097 1487V1482.69C201.097 1482.28 201.06 1481.88 200.985 1481.5C200.916 1481.13 200.791 1480.79 200.611 1480.49C200.435 1480.19 200.196 1479.95 199.893 1479.77C199.595 1479.6 199.217 1479.51 198.76 1479.51C198.404 1479.51 198.08 1479.57 197.787 1479.69C197.5 1479.81 197.253 1479.99 197.045 1480.24C196.838 1480.48 196.676 1480.79 196.559 1481.16C196.447 1481.53 196.391 1481.96 196.391 1482.46L195.458 1482.17C195.458 1481.34 195.607 1480.62 195.905 1480.03C196.208 1479.43 196.631 1478.97 197.173 1478.65C197.721 1478.33 198.364 1478.16 199.103 1478.16C199.661 1478.16 200.137 1478.25 200.531 1478.43C200.924 1478.6 201.251 1478.84 201.512 1479.13C201.772 1479.42 201.977 1479.74 202.126 1480.1C202.275 1480.46 202.378 1480.82 202.437 1481.19C202.501 1481.56 202.533 1481.91 202.533 1482.24V1487H201.097ZM194.956 1487V1475.52H196.232V1481.86H196.391V1487H194.956ZM207.055 1487.24C206.411 1487.24 205.872 1487.12 205.436 1486.89C205.005 1486.65 204.678 1486.34 204.455 1485.95C204.237 1485.56 204.128 1485.13 204.128 1484.67C204.128 1484.22 204.213 1483.83 204.383 1483.5C204.558 1483.16 204.803 1482.89 205.117 1482.67C205.43 1482.45 205.805 1482.27 206.241 1482.14C206.651 1482.03 207.108 1481.94 207.613 1481.86C208.123 1481.77 208.639 1481.69 209.16 1481.62C209.681 1481.56 210.168 1481.49 210.62 1481.43L210.109 1481.72C210.125 1480.95 209.971 1480.39 209.647 1480.02C209.328 1479.65 208.775 1479.47 207.988 1479.47C207.467 1479.47 207.009 1479.59 206.616 1479.83C206.228 1480.06 205.954 1480.45 205.794 1480.98L204.447 1480.57C204.654 1479.82 205.055 1479.22 205.651 1478.79C206.246 1478.36 207.031 1478.15 208.004 1478.15C208.785 1478.15 209.455 1478.29 210.014 1478.57C210.577 1478.85 210.981 1479.27 211.226 1479.83C211.348 1480.1 211.425 1480.39 211.457 1480.7C211.489 1481.01 211.505 1481.33 211.505 1481.67V1487H210.245V1484.93L210.54 1485.13C210.216 1485.82 209.761 1486.35 209.176 1486.7C208.597 1487.06 207.889 1487.24 207.055 1487.24ZM207.27 1486.05C207.78 1486.05 208.222 1485.96 208.594 1485.78C208.971 1485.59 209.274 1485.35 209.503 1485.05C209.732 1484.75 209.881 1484.42 209.95 1484.07C210.029 1483.8 210.072 1483.5 210.077 1483.18C210.088 1482.85 210.093 1482.6 210.093 1482.42L210.588 1482.64C210.125 1482.7 209.671 1482.76 209.224 1482.82C208.777 1482.88 208.355 1482.94 207.956 1483.01C207.557 1483.08 207.198 1483.15 206.879 1483.24C206.645 1483.32 206.425 1483.41 206.217 1483.53C206.015 1483.65 205.85 1483.8 205.723 1483.99C205.6 1484.17 205.539 1484.39 205.539 1484.66C205.539 1484.9 205.598 1485.12 205.715 1485.33C205.837 1485.55 206.023 1485.72 206.273 1485.85C206.528 1485.98 206.861 1486.05 207.27 1486.05ZM216.833 1487.23C215.806 1487.23 214.964 1487.01 214.304 1486.56C213.65 1486.11 213.249 1485.48 213.1 1484.67L214.552 1484.44C214.669 1484.91 214.937 1485.28 215.357 1485.56C215.777 1485.83 216.298 1485.96 216.92 1485.96C217.51 1485.96 217.973 1485.84 218.308 1485.6C218.643 1485.35 218.81 1485.02 218.81 1484.6C218.81 1484.35 218.755 1484.16 218.643 1484.01C218.531 1483.85 218.3 1483.71 217.949 1483.58C217.604 1483.45 217.08 1483.29 216.378 1483.1C215.618 1482.9 215.019 1482.69 214.583 1482.47C214.147 1482.25 213.836 1482 213.65 1481.71C213.464 1481.43 213.371 1481.08 213.371 1480.67C213.371 1480.16 213.509 1479.72 213.786 1479.34C214.062 1478.96 214.448 1478.67 214.942 1478.46C215.442 1478.25 216.022 1478.15 216.681 1478.15C217.335 1478.15 217.92 1478.25 218.436 1478.46C218.951 1478.67 219.366 1478.96 219.68 1479.34C219.999 1479.72 220.188 1480.16 220.246 1480.67L218.795 1480.93C218.725 1480.47 218.502 1480.1 218.125 1479.84C217.752 1479.57 217.271 1479.43 216.681 1479.42C216.123 1479.39 215.668 1479.49 215.317 1479.71C214.972 1479.93 214.799 1480.22 214.799 1480.6C214.799 1480.8 214.863 1480.98 214.99 1481.13C215.123 1481.28 215.365 1481.42 215.716 1481.55C216.072 1481.69 216.588 1481.84 217.263 1482.01C218.024 1482.2 218.622 1482.41 219.058 1482.64C219.499 1482.86 219.813 1483.13 219.999 1483.43C220.185 1483.74 220.278 1484.11 220.278 1484.56C220.278 1485.39 219.972 1486.04 219.361 1486.52C218.749 1486.99 217.907 1487.23 216.833 1487.23ZM225.77 1487.24C224.924 1487.24 224.185 1487.05 223.552 1486.68C222.925 1486.3 222.436 1485.78 222.085 1485.11C221.734 1484.43 221.558 1483.65 221.558 1482.75C221.558 1481.81 221.731 1480.99 222.077 1480.31C222.422 1479.62 222.904 1479.09 223.52 1478.71C224.142 1478.34 224.871 1478.15 225.706 1478.15C226.572 1478.15 227.309 1478.35 227.915 1478.75C228.526 1479.14 228.984 1479.71 229.287 1480.45C229.595 1481.19 229.728 1482.07 229.685 1483.09H228.25V1482.58C228.234 1481.52 228.019 1480.73 227.604 1480.21C227.189 1479.69 226.572 1479.42 225.754 1479.42C224.876 1479.42 224.209 1479.71 223.752 1480.27C223.294 1480.83 223.066 1481.64 223.066 1482.69C223.066 1483.71 223.294 1484.5 223.752 1485.05C224.209 1485.61 224.86 1485.89 225.706 1485.89C226.275 1485.89 226.769 1485.76 227.189 1485.5C227.609 1485.24 227.939 1484.87 228.178 1484.38L229.542 1484.85C229.207 1485.61 228.702 1486.2 228.027 1486.62C227.357 1487.03 226.604 1487.24 225.77 1487.24ZM222.587 1483.09V1481.95H228.952V1483.09H222.587ZM179.622 1503.24C178.479 1503.24 177.508 1502.99 176.711 1502.48C175.913 1501.98 175.305 1501.27 174.885 1500.38C174.47 1499.48 174.262 1498.44 174.262 1497.26C174.262 1496.08 174.47 1495.04 174.885 1494.14C175.305 1493.24 175.913 1492.54 176.711 1492.03C177.508 1491.53 178.479 1491.28 179.622 1491.28C180.77 1491.28 181.743 1491.53 182.541 1492.03C183.339 1492.54 183.945 1493.24 184.359 1494.14C184.774 1495.04 184.982 1496.08 184.982 1497.26C184.982 1498.44 184.774 1499.48 184.359 1500.38C183.945 1501.27 183.339 1501.98 182.541 1502.48C181.743 1502.99 180.77 1503.24 179.622 1503.24ZM179.622 1501.88C180.478 1501.89 181.19 1501.7 181.759 1501.31C182.334 1500.92 182.762 1500.37 183.043 1499.67C183.331 1498.98 183.474 1498.17 183.474 1497.26C183.474 1496.34 183.331 1495.53 183.043 1494.84C182.762 1494.15 182.334 1493.61 181.759 1493.22C181.19 1492.83 180.478 1492.64 179.622 1492.63C178.766 1492.63 178.053 1492.82 177.485 1493.21C176.921 1493.59 176.496 1494.14 176.208 1494.83C175.921 1495.53 175.775 1496.34 175.77 1497.26C175.764 1498.17 175.905 1498.98 176.193 1499.67C176.48 1500.36 176.908 1500.9 177.477 1501.29C178.051 1501.68 178.766 1501.88 179.622 1501.88ZM186.583 1503V1494.39H187.851V1496.47L187.644 1496.2C187.745 1495.93 187.875 1495.69 188.035 1495.46C188.2 1495.24 188.383 1495.06 188.585 1494.91C188.809 1494.73 189.061 1494.59 189.343 1494.5C189.625 1494.4 189.912 1494.35 190.204 1494.33C190.497 1494.31 190.77 1494.33 191.026 1494.39V1495.72C190.728 1495.64 190.401 1495.62 190.045 1495.65C189.688 1495.69 189.359 1495.82 189.056 1496.05C188.779 1496.24 188.564 1496.48 188.41 1496.76C188.261 1497.04 188.157 1497.35 188.099 1497.68C188.04 1498 188.011 1498.34 188.011 1498.68V1503H186.583ZM195.76 1503.24C194.957 1503.24 194.268 1503.04 193.694 1502.64C193.12 1502.24 192.676 1501.69 192.362 1501.01C192.054 1500.32 191.9 1499.55 191.9 1498.69C191.9 1497.82 192.054 1497.05 192.362 1496.36C192.676 1495.68 193.12 1495.14 193.694 1494.75C194.268 1494.35 194.954 1494.15 195.752 1494.15C196.565 1494.15 197.248 1494.34 197.801 1494.74C198.354 1495.13 198.772 1495.67 199.054 1496.36C199.341 1497.04 199.484 1497.82 199.484 1498.69C199.484 1499.54 199.341 1500.31 199.054 1501.01C198.772 1501.69 198.354 1502.24 197.801 1502.64C197.248 1503.04 196.568 1503.24 195.76 1503.24ZM195.935 1501.94C196.515 1501.94 196.991 1501.8 197.363 1501.52C197.735 1501.24 198.009 1500.86 198.184 1500.37C198.365 1499.87 198.455 1499.31 198.455 1498.69C198.455 1498.05 198.365 1497.49 198.184 1497C198.009 1496.51 197.738 1496.13 197.371 1495.86C197.004 1495.59 196.539 1495.45 195.975 1495.45C195.39 1495.45 194.906 1495.59 194.523 1495.88C194.146 1496.16 193.864 1496.55 193.678 1497.04C193.497 1497.53 193.407 1498.08 193.407 1498.69C193.407 1499.3 193.5 1499.85 193.686 1500.34C193.872 1500.83 194.151 1501.22 194.523 1501.51C194.901 1501.8 195.372 1501.94 195.935 1501.94ZM198.455 1503V1496.66H198.296V1491.52H199.723V1503H198.455ZM205.691 1503.24C204.845 1503.24 204.106 1503.05 203.473 1502.68C202.846 1502.3 202.357 1501.78 202.006 1501.11C201.655 1500.43 201.479 1499.65 201.479 1498.75C201.479 1497.81 201.652 1496.99 201.998 1496.31C202.343 1495.62 202.825 1495.09 203.441 1494.71C204.064 1494.34 204.792 1494.15 205.627 1494.15C206.493 1494.15 207.23 1494.35 207.836 1494.75C208.447 1495.14 208.905 1495.71 209.208 1496.45C209.516 1497.19 209.649 1498.07 209.607 1499.09H208.171V1498.58C208.155 1497.52 207.94 1496.73 207.525 1496.21C207.11 1495.69 206.493 1495.42 205.675 1495.42C204.797 1495.42 204.13 1495.71 203.673 1496.27C203.215 1496.83 202.987 1497.64 202.987 1498.69C202.987 1499.71 203.215 1500.5 203.673 1501.05C204.13 1501.61 204.781 1501.89 205.627 1501.89C206.196 1501.89 206.69 1501.76 207.11 1501.5C207.53 1501.24 207.86 1500.87 208.099 1500.38L209.463 1500.85C209.128 1501.61 208.623 1502.2 207.948 1502.62C207.278 1503.03 206.525 1503.24 205.691 1503.24ZM202.508 1499.09V1497.95H208.873V1499.09H202.508ZM211.382 1503V1494.39H212.65V1496.47L212.443 1496.2C212.544 1495.93 212.674 1495.69 212.834 1495.46C212.999 1495.24 213.182 1495.06 213.384 1494.91C213.607 1494.73 213.86 1494.59 214.142 1494.5C214.424 1494.4 214.711 1494.35 215.003 1494.33C215.295 1494.31 215.569 1494.33 215.825 1494.39V1495.72C215.527 1495.64 215.2 1495.62 214.844 1495.65C214.487 1495.69 214.158 1495.82 213.855 1496.05C213.578 1496.24 213.363 1496.48 213.209 1496.76C213.06 1497.04 212.956 1497.35 212.898 1497.68C212.839 1498 212.81 1498.34 212.81 1498.68V1503H211.382Z" fill="white"/>
<defs>
<clipPath id="clip0_1051_1299">
<rect width="88.6167" height="88.6167" fill="white" transform="translate(150.692 253)"/>
</clipPath>
</defs>
</svg>
