<svg width="1456" height="508" viewBox="0 0 1456 508" fill="none" xmlns="http://www.w3.org/2000/svg">
<rect y="0.5" width="1456" height="507" rx="40" fill="black"/>
<path d="M132.754 185.36C131.026 185.36 129.546 184.984 128.314 184.232C127.082 183.472 126.134 182.416 125.47 181.064C124.814 179.712 124.486 178.144 124.486 176.36C124.486 174.576 124.814 173.008 125.47 171.656C126.134 170.304 127.082 169.252 128.314 168.5C129.546 167.74 131.026 167.36 132.754 167.36C134.746 167.36 136.406 167.86 137.734 168.86C139.062 169.852 139.994 171.192 140.53 172.88L137.614 173.684C137.278 172.556 136.706 171.676 135.898 171.044C135.09 170.404 134.042 170.084 132.754 170.084C131.594 170.084 130.626 170.344 129.85 170.864C129.082 171.384 128.502 172.116 128.11 173.06C127.726 173.996 127.53 175.096 127.522 176.36C127.522 177.624 127.714 178.728 128.098 179.672C128.49 180.608 129.074 181.336 129.85 181.856C130.626 182.376 131.594 182.636 132.754 182.636C134.042 182.636 135.09 182.316 135.898 181.676C136.706 181.036 137.278 180.156 137.614 179.036L140.53 179.84C139.994 181.528 139.062 182.872 137.734 183.872C136.406 184.864 134.746 185.36 132.754 185.36ZM143.164 185V172.04H145.72V175.196L145.408 174.788C145.568 174.356 145.78 173.964 146.044 173.612C146.316 173.252 146.64 172.956 147.016 172.724C147.336 172.508 147.688 172.34 148.072 172.22C148.464 172.092 148.864 172.016 149.272 171.992C149.68 171.96 150.076 171.976 150.46 172.04V174.74C150.076 174.628 149.632 174.592 149.128 174.632C148.632 174.672 148.184 174.812 147.784 175.052C147.384 175.268 147.056 175.544 146.8 175.88C146.552 176.216 146.368 176.6 146.248 177.032C146.128 177.456 146.068 177.916 146.068 178.412V185H143.164ZM158.408 185.36C157.096 185.36 155.944 185.076 154.952 184.508C153.96 183.94 153.184 183.152 152.624 182.144C152.072 181.136 151.796 179.976 151.796 178.664C151.796 177.248 152.068 176.02 152.612 174.98C153.156 173.932 153.912 173.12 154.88 172.544C155.848 171.968 156.968 171.68 158.24 171.68C159.584 171.68 160.724 171.996 161.66 172.628C162.604 173.252 163.304 174.136 163.76 175.28C164.216 176.424 164.388 177.772 164.276 179.324H161.408V178.268C161.4 176.86 161.152 175.832 160.664 175.184C160.176 174.536 159.408 174.212 158.36 174.212C157.176 174.212 156.296 174.58 155.72 175.316C155.144 176.044 154.856 177.112 154.856 178.52C154.856 179.832 155.144 180.848 155.72 181.568C156.296 182.288 157.136 182.648 158.24 182.648C158.952 182.648 159.564 182.492 160.076 182.18C160.596 181.86 160.996 181.4 161.276 180.8L164.132 181.664C163.636 182.832 162.868 183.74 161.828 184.388C160.796 185.036 159.656 185.36 158.408 185.36ZM153.944 179.324V177.14H162.86V179.324H153.944ZM170.343 185.36C169.407 185.36 168.615 185.184 167.967 184.832C167.319 184.472 166.827 183.996 166.491 183.404C166.163 182.812 165.999 182.16 165.999 181.448C165.999 180.824 166.103 180.264 166.311 179.768C166.519 179.264 166.839 178.832 167.271 178.472C167.703 178.104 168.263 177.804 168.951 177.572C169.471 177.404 170.079 177.252 170.775 177.116C171.479 176.98 172.239 176.856 173.055 176.744C173.879 176.624 174.739 176.496 175.635 176.36L174.603 176.948C174.611 176.052 174.411 175.392 174.003 174.968C173.595 174.544 172.907 174.332 171.939 174.332C171.355 174.332 170.791 174.468 170.247 174.74C169.703 175.012 169.323 175.48 169.107 176.144L166.467 175.316C166.787 174.22 167.395 173.34 168.291 172.676C169.195 172.012 170.411 171.68 171.939 171.68C173.091 171.68 174.103 171.868 174.975 172.244C175.855 172.62 176.507 173.236 176.931 174.092C177.163 174.548 177.303 175.016 177.351 175.496C177.399 175.968 177.423 176.484 177.423 177.044V185H174.891V182.192L175.311 182.648C174.727 183.584 174.043 184.272 173.259 184.712C172.483 185.144 171.511 185.36 170.343 185.36ZM170.919 183.056C171.575 183.056 172.135 182.94 172.599 182.708C173.063 182.476 173.431 182.192 173.703 181.856C173.983 181.52 174.171 181.204 174.267 180.908C174.419 180.54 174.503 180.12 174.519 179.648C174.543 179.168 174.555 178.78 174.555 178.484L175.443 178.748C174.571 178.884 173.823 179.004 173.199 179.108C172.575 179.212 172.039 179.312 171.591 179.408C171.143 179.496 170.747 179.596 170.403 179.708C170.067 179.828 169.783 179.968 169.551 180.128C169.319 180.288 169.139 180.472 169.011 180.68C168.891 180.888 168.831 181.132 168.831 181.412C168.831 181.732 168.911 182.016 169.071 182.264C169.231 182.504 169.463 182.696 169.767 182.84C170.079 182.984 170.463 183.056 170.919 183.056ZM188.143 185C187.287 185.16 186.447 185.228 185.623 185.204C184.807 185.188 184.075 185.04 183.427 184.76C182.779 184.472 182.287 184.02 181.951 183.404C181.655 182.844 181.499 182.272 181.483 181.688C181.467 181.104 181.459 180.444 181.459 179.708V168.44H184.339V179.54C184.339 180.06 184.343 180.516 184.351 180.908C184.367 181.3 184.451 181.62 184.603 181.868C184.891 182.348 185.351 182.616 185.983 182.672C186.615 182.728 187.335 182.696 188.143 182.576V185ZM179.107 174.308V172.04H188.143V174.308H179.107ZM196.166 185.36C194.854 185.36 193.702 185.076 192.71 184.508C191.718 183.94 190.942 183.152 190.382 182.144C189.83 181.136 189.554 179.976 189.554 178.664C189.554 177.248 189.826 176.02 190.37 174.98C190.914 173.932 191.67 173.12 192.638 172.544C193.606 171.968 194.726 171.68 195.998 171.68C197.342 171.68 198.482 171.996 199.418 172.628C200.362 173.252 201.062 174.136 201.518 175.28C201.974 176.424 202.146 177.772 202.034 179.324H199.166V178.268C199.158 176.86 198.91 175.832 198.422 175.184C197.934 174.536 197.166 174.212 196.118 174.212C194.934 174.212 194.054 174.58 193.478 175.316C192.902 176.044 192.614 177.112 192.614 178.52C192.614 179.832 192.902 180.848 193.478 181.568C194.054 182.288 194.894 182.648 195.998 182.648C196.71 182.648 197.322 182.492 197.834 182.18C198.354 181.86 198.754 181.4 199.034 180.8L201.89 181.664C201.394 182.832 200.626 183.74 199.586 184.388C198.554 185.036 197.414 185.36 196.166 185.36ZM191.702 179.324V177.14H200.618V179.324H191.702ZM204.711 185V167.72H207.315L213.291 179.96L219.267 167.72H221.871V185H219.171V173.924L213.867 185H212.715L207.423 173.924V185H204.711ZM231.135 185.36C229.823 185.36 228.671 185.076 227.679 184.508C226.687 183.94 225.911 183.152 225.351 182.144C224.799 181.136 224.523 179.976 224.523 178.664C224.523 177.248 224.795 176.02 225.339 174.98C225.883 173.932 226.639 173.12 227.607 172.544C228.575 171.968 229.695 171.68 230.967 171.68C232.311 171.68 233.451 171.996 234.387 172.628C235.331 173.252 236.031 174.136 236.487 175.28C236.943 176.424 237.115 177.772 237.003 179.324H234.135V178.268C234.127 176.86 233.879 175.832 233.391 175.184C232.903 174.536 232.135 174.212 231.087 174.212C229.903 174.212 229.023 174.58 228.447 175.316C227.871 176.044 227.583 177.112 227.583 178.52C227.583 179.832 227.871 180.848 228.447 181.568C229.023 182.288 229.863 182.648 230.967 182.648C231.679 182.648 232.291 182.492 232.803 182.18C233.323 181.86 233.723 181.4 234.003 180.8L236.859 181.664C236.363 182.832 235.595 183.74 234.555 184.388C233.523 185.036 232.383 185.36 231.135 185.36ZM226.671 179.324V177.14H235.587V179.324H226.671ZM151.038 214V198.748H145.146V196.72H159.066V198.748H153.174V214H151.038ZM159.782 214V201.04H161.69V204.172L161.378 203.764C161.53 203.364 161.726 202.996 161.966 202.66C162.214 202.324 162.49 202.048 162.794 201.832C163.13 201.56 163.51 201.352 163.934 201.208C164.358 201.064 164.79 200.98 165.23 200.956C165.67 200.924 166.082 200.952 166.466 201.04V203.044C166.018 202.924 165.526 202.892 164.99 202.948C164.454 203.004 163.958 203.2 163.502 203.536C163.086 203.832 162.762 204.192 162.53 204.616C162.306 205.04 162.15 205.5 162.062 205.996C161.974 206.484 161.93 206.984 161.93 207.496V214H159.782ZM174.116 214.36C172.844 214.36 171.732 214.08 170.78 213.52C169.836 212.952 169.1 212.164 168.572 211.156C168.044 210.14 167.78 208.956 167.78 207.604C167.78 206.188 168.04 204.964 168.56 203.932C169.08 202.892 169.804 202.092 170.732 201.532C171.668 200.964 172.764 200.68 174.02 200.68C175.324 200.68 176.432 200.98 177.344 201.58C178.264 202.18 178.952 203.036 179.408 204.148C179.872 205.26 180.072 206.584 180.008 208.12H177.848V207.352C177.824 205.76 177.5 204.572 176.876 203.788C176.252 202.996 175.324 202.6 174.092 202.6C172.772 202.6 171.768 203.024 171.08 203.872C170.392 204.72 170.048 205.936 170.048 207.52C170.048 209.048 170.392 210.232 171.08 211.072C171.768 211.912 172.748 212.332 174.02 212.332C174.876 212.332 175.62 212.136 176.252 211.744C176.884 211.352 177.38 210.788 177.74 210.052L179.792 210.76C179.288 211.904 178.528 212.792 177.512 213.424C176.504 214.048 175.372 214.36 174.116 214.36ZM169.328 208.12V206.404H178.904V208.12H169.328ZM191.556 214V207.508C191.556 206.892 191.5 206.3 191.388 205.732C191.284 205.164 191.096 204.656 190.824 204.208C190.56 203.752 190.2 203.392 189.744 203.128C189.296 202.864 188.728 202.732 188.04 202.732C187.504 202.732 187.016 202.824 186.576 203.008C186.144 203.184 185.772 203.456 185.46 203.824C185.148 204.192 184.904 204.656 184.728 205.216C184.56 205.768 184.476 206.42 184.476 207.172L183.072 206.74C183.072 205.484 183.296 204.408 183.744 203.512C184.2 202.608 184.836 201.916 185.652 201.436C186.476 200.948 187.444 200.704 188.556 200.704C189.396 200.704 190.112 200.836 190.704 201.1C191.296 201.364 191.788 201.716 192.18 202.156C192.572 202.588 192.88 203.076 193.104 203.62C193.328 204.156 193.484 204.704 193.572 205.264C193.668 205.816 193.716 206.34 193.716 206.836V214H191.556ZM182.316 214V201.04H184.236V204.508H184.476V214H182.316ZM201.807 214.36C200.599 214.36 199.563 214.06 198.699 213.46C197.835 212.852 197.167 212.032 196.695 211C196.231 209.968 195.999 208.804 195.999 207.508C195.999 206.212 196.231 205.048 196.695 204.016C197.167 202.984 197.835 202.172 198.699 201.58C199.563 200.98 200.595 200.68 201.795 200.68C203.019 200.68 204.047 200.976 204.879 201.568C205.711 202.16 206.339 202.972 206.763 204.004C207.195 205.036 207.411 206.204 207.411 207.508C207.411 208.796 207.195 209.96 206.763 211C206.339 212.032 205.711 212.852 204.879 213.46C204.047 214.06 203.023 214.36 201.807 214.36ZM202.071 212.404C202.943 212.404 203.659 212.196 204.219 211.78C204.779 211.356 205.191 210.776 205.455 210.04C205.727 209.296 205.863 208.452 205.863 207.508C205.863 206.548 205.727 205.704 205.455 204.976C205.191 204.24 204.783 203.668 204.231 203.26C203.679 202.844 202.979 202.636 202.131 202.636C201.251 202.636 200.523 202.852 199.947 203.284C199.379 203.716 198.955 204.3 198.675 205.036C198.403 205.772 198.267 206.596 198.267 207.508C198.267 208.428 198.407 209.26 198.687 210.004C198.967 210.74 199.387 211.324 199.947 211.756C200.515 212.188 201.223 212.404 202.071 212.404ZM205.863 214V204.46H205.623V196.72H207.771V214H205.863ZM223.174 214C222.406 214.152 221.646 214.212 220.894 214.18C220.15 214.156 219.486 214.008 218.902 213.736C218.318 213.456 217.874 213.024 217.57 212.44C217.314 211.928 217.174 211.412 217.15 210.892C217.134 210.364 217.126 209.768 217.126 209.104V197.44H219.262V209.008C219.262 209.536 219.266 209.988 219.274 210.364C219.29 210.74 219.374 211.064 219.526 211.336C219.814 211.848 220.27 212.148 220.894 212.236C221.526 212.324 222.286 212.3 223.174 212.164V214ZM214.498 202.804V201.04H223.174V202.804H214.498ZM230.786 214.36C229.498 214.36 228.386 214.068 227.45 213.484C226.522 212.9 225.806 212.092 225.302 211.06C224.798 210.028 224.546 208.844 224.546 207.508C224.546 206.148 224.802 204.956 225.314 203.932C225.826 202.908 226.55 202.112 227.486 201.544C228.422 200.968 229.522 200.68 230.786 200.68C232.082 200.68 233.198 200.972 234.134 201.556C235.07 202.132 235.786 202.936 236.282 203.968C236.786 204.992 237.038 206.172 237.038 207.508C237.038 208.86 236.786 210.052 236.282 211.084C235.778 212.108 235.058 212.912 234.122 213.496C233.186 214.072 232.074 214.36 230.786 214.36ZM230.786 212.332C232.13 212.332 233.13 211.884 233.786 210.988C234.442 210.092 234.77 208.932 234.77 207.508C234.77 206.044 234.438 204.88 233.774 204.016C233.11 203.144 232.114 202.708 230.786 202.708C229.882 202.708 229.138 202.912 228.554 203.32C227.97 203.728 227.534 204.292 227.246 205.012C226.958 205.732 226.814 206.564 226.814 207.508C226.814 208.964 227.15 210.132 227.822 211.012C228.494 211.892 229.482 212.332 230.786 212.332ZM155.866 243.36C154.65 243.36 153.626 243.06 152.794 242.46C151.962 241.852 151.33 241.032 150.898 240C150.474 238.96 150.262 237.796 150.262 236.508C150.262 235.204 150.474 234.036 150.898 233.004C151.33 231.972 151.962 231.16 152.794 230.568C153.634 229.976 154.662 229.68 155.878 229.68C157.078 229.68 158.11 229.98 158.974 230.58C159.846 231.172 160.514 231.984 160.978 233.016C161.442 234.048 161.674 235.212 161.674 236.508C161.674 237.804 161.442 238.968 160.978 240C160.514 241.032 159.846 241.852 158.974 242.46C158.11 243.06 157.074 243.36 155.866 243.36ZM149.902 248.76V230.04H151.81V239.58H152.05V248.76H149.902ZM155.602 241.404C156.458 241.404 157.166 241.188 157.726 240.756C158.286 240.324 158.706 239.74 158.986 239.004C159.266 238.26 159.406 237.428 159.406 236.508C159.406 235.596 159.266 234.772 158.986 234.036C158.714 233.3 158.29 232.716 157.714 232.284C157.146 231.852 156.422 231.636 155.542 231.636C154.702 231.636 154.006 231.844 153.454 232.26C152.902 232.668 152.49 233.24 152.218 233.976C151.946 234.704 151.81 235.548 151.81 236.508C151.81 237.452 151.942 238.296 152.206 239.04C152.478 239.776 152.894 240.356 153.454 240.78C154.014 241.196 154.73 241.404 155.602 241.404ZM164.305 243V230.04H166.213V233.172L165.901 232.764C166.053 232.364 166.249 231.996 166.489 231.66C166.737 231.324 167.013 231.048 167.317 230.832C167.653 230.56 168.033 230.352 168.457 230.208C168.881 230.064 169.313 229.98 169.753 229.956C170.193 229.924 170.605 229.952 170.989 230.04V232.044C170.541 231.924 170.049 231.892 169.513 231.948C168.977 232.004 168.481 232.2 168.025 232.536C167.609 232.832 167.285 233.192 167.053 233.616C166.829 234.04 166.673 234.5 166.585 234.996C166.497 235.484 166.453 235.984 166.453 236.496V243H164.305ZM178.544 243.36C177.256 243.36 176.144 243.068 175.208 242.484C174.28 241.9 173.564 241.092 173.06 240.06C172.556 239.028 172.304 237.844 172.304 236.508C172.304 235.148 172.56 233.956 173.072 232.932C173.584 231.908 174.308 231.112 175.244 230.544C176.18 229.968 177.28 229.68 178.544 229.68C179.84 229.68 180.956 229.972 181.892 230.556C182.828 231.132 183.544 231.936 184.04 232.968C184.544 233.992 184.796 235.172 184.796 236.508C184.796 237.86 184.544 239.052 184.04 240.084C183.536 241.108 182.816 241.912 181.88 242.496C180.944 243.072 179.832 243.36 178.544 243.36ZM178.544 241.332C179.888 241.332 180.888 240.884 181.544 239.988C182.2 239.092 182.528 237.932 182.528 236.508C182.528 235.044 182.196 233.88 181.532 233.016C180.868 232.144 179.872 231.708 178.544 231.708C177.64 231.708 176.896 231.912 176.312 232.32C175.728 232.728 175.292 233.292 175.004 234.012C174.716 234.732 174.572 235.564 174.572 236.508C174.572 237.964 174.908 239.132 175.58 240.012C176.252 240.892 177.24 241.332 178.544 241.332ZM192.526 243.36C191.318 243.36 190.282 243.06 189.418 242.46C188.554 241.852 187.886 241.032 187.414 240C186.95 238.968 186.718 237.804 186.718 236.508C186.718 235.212 186.95 234.048 187.414 233.016C187.886 231.984 188.554 231.172 189.418 230.58C190.282 229.98 191.314 229.68 192.514 229.68C193.738 229.68 194.766 229.976 195.598 230.568C196.43 231.16 197.058 231.972 197.482 233.004C197.914 234.036 198.13 235.204 198.13 236.508C198.13 237.796 197.914 238.96 197.482 240C197.058 241.032 196.43 241.852 195.598 242.46C194.766 243.06 193.742 243.36 192.526 243.36ZM192.79 241.404C193.662 241.404 194.378 241.196 194.938 240.78C195.498 240.356 195.91 239.776 196.174 239.04C196.446 238.296 196.582 237.452 196.582 236.508C196.582 235.548 196.446 234.704 196.174 233.976C195.91 233.24 195.502 232.668 194.95 232.26C194.398 231.844 193.698 231.636 192.85 231.636C191.97 231.636 191.242 231.852 190.666 232.284C190.098 232.716 189.674 233.3 189.394 234.036C189.122 234.772 188.986 235.596 188.986 236.508C188.986 237.428 189.126 238.26 189.406 239.004C189.686 239.74 190.106 240.324 190.666 240.756C191.234 241.188 191.942 241.404 192.79 241.404ZM196.582 243V233.46H196.342V225.72H198.49V243H196.582ZM206.772 243.336C205.94 243.336 205.224 243.204 204.624 242.94C204.032 242.676 203.54 242.324 203.148 241.884C202.756 241.444 202.448 240.956 202.224 240.42C202 239.884 201.84 239.336 201.744 238.776C201.656 238.216 201.612 237.692 201.612 237.204V230.04H203.772V236.532C203.772 237.14 203.828 237.728 203.94 238.296C204.052 238.864 204.24 239.376 204.504 239.832C204.776 240.288 205.136 240.648 205.584 240.912C206.04 241.176 206.608 241.308 207.288 241.308C207.824 241.308 208.312 241.216 208.752 241.032C209.192 240.848 209.568 240.576 209.88 240.216C210.192 239.848 210.432 239.384 210.6 238.824C210.768 238.264 210.852 237.612 210.852 236.868L212.256 237.3C212.256 238.548 212.028 239.624 211.572 240.528C211.124 241.432 210.488 242.128 209.664 242.616C208.848 243.096 207.884 243.336 206.772 243.336ZM211.092 243V239.532H210.852V230.04H213V243H211.092ZM221.82 243.36C220.508 243.36 219.392 243.068 218.472 242.484C217.56 241.892 216.864 241.08 216.384 240.048C215.904 239.016 215.656 237.84 215.64 236.52C215.656 235.168 215.908 233.98 216.396 232.956C216.892 231.924 217.6 231.12 218.52 230.544C219.44 229.968 220.548 229.68 221.844 229.68C223.212 229.68 224.388 230.016 225.372 230.688C226.364 231.36 227.028 232.28 227.364 233.448L225.252 234.084C224.98 233.332 224.536 232.748 223.92 232.332C223.312 231.916 222.612 231.708 221.82 231.708C220.932 231.708 220.2 231.916 219.624 232.332C219.048 232.74 218.62 233.308 218.34 234.036C218.06 234.756 217.916 235.584 217.908 236.52C217.924 237.96 218.256 239.124 218.904 240.012C219.56 240.892 220.532 241.332 221.82 241.332C222.668 241.332 223.372 241.14 223.932 240.756C224.492 240.364 224.916 239.8 225.204 239.064L227.364 239.628C226.916 240.836 226.216 241.76 225.264 242.4C224.312 243.04 223.164 243.36 221.82 243.36ZM237.049 243C236.281 243.152 235.521 243.212 234.769 243.18C234.025 243.156 233.361 243.008 232.777 242.736C232.193 242.456 231.749 242.024 231.445 241.44C231.189 240.928 231.049 240.412 231.025 239.892C231.009 239.364 231.001 238.768 231.001 238.104V226.44H233.137V238.008C233.137 238.536 233.141 238.988 233.149 239.364C233.165 239.74 233.249 240.064 233.401 240.336C233.689 240.848 234.145 241.148 234.769 241.236C235.401 241.324 236.161 241.3 237.049 241.164V243ZM228.373 231.804V230.04H237.049V231.804H228.373Z" fill="white"/>
<circle cx="336.376" cy="175.592" r="33.787" stroke="white" stroke-width="2.5"/>
<circle cx="336.376" cy="175.592" r="27.0296" stroke="#00DAFD" stroke-width="2"/>
<path d="M377.44 229.046C378.611 230.218 380.511 230.218 381.682 229.046C382.854 227.875 382.854 225.975 381.682 224.804L377.44 229.046ZM353.44 205.046L377.44 229.046L381.682 224.804L357.682 200.804L353.44 205.046Z" fill="white"/>
<rect x="415.38" y="152.058" width="70.5" height="70.5" rx="8.25" stroke="white" stroke-width="2.5"/>
<circle cx="451.13" cy="186.808" r="19.75" stroke="white" stroke-width="2.5"/>
<circle cx="474.13" cy="164.308" r="5.75" stroke="white" stroke-width="2.5"/>
<path d="M428.88 163.857L428.881 163.856C430.988 162.232 432.913 160.356 434.294 158.573L434.295 158.573C434.88 157.819 435.502 156.522 435.995 155.059C436.471 153.647 436.78 152.221 436.841 151.189C436.673 149.62 436.126 147.636 435.241 146.494C434.683 145.778 434.014 145.157 433.273 144.681L433.272 144.681C432.131 143.947 430.811 143.534 429.438 143.559C428.072 143.585 426.626 144.042 425.224 145.13L425.223 145.13C424.675 145.555 424.13 146.079 423.594 146.719L422.633 147.865L421.676 146.716C421.145 146.079 420.601 145.556 420.053 145.131L428.88 163.857ZM428.88 163.857C426.838 165.436 424.649 166.761 422.656 167.563C422.641 167.569 422.622 167.57 422.603 167.562L422.141 168.724M428.88 163.857L417.416 164.617M410.036 146.492L410.035 146.493C408.735 148.167 408.249 150.157 408.41 152.211L410.036 146.492ZM410.036 146.492C410.586 145.781 411.258 145.163 412.004 144.68C413.145 143.946 414.464 143.534 415.837 143.559C417.201 143.585 418.648 144.044 420.053 145.13L410.036 146.492ZM417.416 164.617C416.641 163.942 415.287 162.757 413.99 161.566C412.633 160.321 411.44 159.162 410.975 158.561L417.416 164.617ZM417.416 164.617C419.161 165.862 420.953 166.899 422.607 167.564L422.141 168.724M422.141 168.724C422.443 168.844 422.794 168.854 423.12 168.724L416.641 165.599C418.456 166.898 420.353 168.005 422.141 168.724ZM410.974 158.56C409.52 156.679 408.584 154.418 408.41 152.212L410.974 158.56Z" fill="black" stroke="#00DAFD" stroke-width="2.5"/>
<rect x="517.45" y="149.045" width="85.2923" height="62.2769" rx="8.8" stroke="white" stroke-width="2.70769"/>
<path d="M533.696 222.153L586.496 222.153" stroke="white" stroke-width="2.70769" stroke-linecap="round"/>
<path d="M517.449 199.138L602.742 199.138" stroke="white" stroke-width="2.70769" stroke-linecap="round"/>
<path d="M555.357 205.907L563.48 205.907" stroke="white" stroke-width="2.70769" stroke-linecap="round"/>
<path d="M574.311 222.153L568.896 211.322" stroke="white" stroke-width="2.70769" stroke-linecap="round"/>
<path d="M545.88 222.153L551.296 211.322" stroke="white" stroke-width="2.70769" stroke-linecap="round"/>
<line x1="549.545" y1="174.372" x2="538.714" y2="185.203" stroke="#00DAFD" stroke-width="2.70769"/>
<line x1="582.092" y1="164.837" x2="571.261" y2="177.022" stroke="#00DAFD" stroke-width="2.70769"/>
<line x1="564.163" y1="178.652" x2="554.686" y2="173.236" stroke="#00DAFD" stroke-width="2.70769"/>
<circle cx="551.296" cy="170.707" r="4.06154" stroke="#00DAFD" stroke-width="2.70769"/>
<circle cx="567.542" cy="180.184" r="4.06154" stroke="#00DAFD" stroke-width="2.70769"/>
<circle cx="585.142" cy="161.23" r="4.06154" stroke="#00DAFD" stroke-width="2.70769"/>
<circle cx="535.05" cy="188.307" r="4.06154" stroke="#00DAFD" stroke-width="2.70769"/>
<path d="M363.908 269V256.29H358.998V254.6H370.598V256.29H365.688V269H363.908ZM371.194 269V258.2H372.784V260.81L372.524 260.47C372.651 260.137 372.814 259.83 373.014 259.55C373.221 259.27 373.451 259.04 373.704 258.86C373.984 258.633 374.301 258.46 374.654 258.34C375.007 258.22 375.367 258.15 375.734 258.13C376.101 258.103 376.444 258.127 376.764 258.2V259.87C376.391 259.77 375.981 259.743 375.534 259.79C375.087 259.837 374.674 260 374.294 260.28C373.947 260.527 373.677 260.827 373.484 261.18C373.297 261.533 373.167 261.917 373.094 262.33C373.021 262.737 372.984 263.153 372.984 263.58V269H371.194ZM383.14 269.3C382.08 269.3 381.153 269.067 380.36 268.6C379.573 268.127 378.96 267.47 378.52 266.63C378.08 265.783 377.86 264.797 377.86 263.67C377.86 262.49 378.076 261.47 378.51 260.61C378.943 259.743 379.546 259.077 380.32 258.61C381.1 258.137 382.013 257.9 383.06 257.9C384.146 257.9 385.07 258.15 385.83 258.65C386.596 259.15 387.17 259.863 387.55 260.79C387.936 261.717 388.103 262.82 388.05 264.1H386.25V263.46C386.23 262.133 385.96 261.143 385.44 260.49C384.92 259.83 384.146 259.5 383.12 259.5C382.02 259.5 381.183 259.853 380.61 260.56C380.036 261.267 379.75 262.28 379.75 263.6C379.75 264.873 380.036 265.86 380.61 266.56C381.183 267.26 382 267.61 383.06 267.61C383.773 267.61 384.393 267.447 384.92 267.12C385.446 266.793 385.86 266.323 386.16 265.71L387.87 266.3C387.45 267.253 386.816 267.993 385.97 268.52C385.13 269.04 384.186 269.3 383.14 269.3ZM379.15 264.1V262.67H387.13V264.1H379.15ZM397.673 269V263.59C397.673 263.077 397.626 262.583 397.533 262.11C397.446 261.637 397.29 261.213 397.063 260.84C396.843 260.46 396.543 260.16 396.163 259.94C395.79 259.72 395.316 259.61 394.743 259.61C394.296 259.61 393.89 259.687 393.523 259.84C393.163 259.987 392.853 260.213 392.593 260.52C392.333 260.827 392.13 261.213 391.983 261.68C391.843 262.14 391.773 262.683 391.773 263.31L390.603 262.95C390.603 261.903 390.79 261.007 391.163 260.26C391.543 259.507 392.073 258.93 392.753 258.53C393.44 258.123 394.246 257.92 395.173 257.92C395.873 257.92 396.47 258.03 396.963 258.25C397.456 258.47 397.866 258.763 398.193 259.13C398.52 259.49 398.776 259.897 398.963 260.35C399.15 260.797 399.28 261.253 399.353 261.72C399.433 262.18 399.473 262.617 399.473 263.03V269H397.673ZM389.973 269V258.2H391.573V261.09H391.773V269H389.973ZM406.215 269.3C405.209 269.3 404.345 269.05 403.625 268.55C402.905 268.043 402.349 267.36 401.955 266.5C401.569 265.64 401.375 264.67 401.375 263.59C401.375 262.51 401.569 261.54 401.955 260.68C402.349 259.82 402.905 259.143 403.625 258.65C404.345 258.15 405.205 257.9 406.205 257.9C407.225 257.9 408.082 258.147 408.775 258.64C409.469 259.133 409.992 259.81 410.345 260.67C410.705 261.53 410.885 262.503 410.885 263.59C410.885 264.663 410.705 265.633 410.345 266.5C409.992 267.36 409.469 268.043 408.775 268.55C408.082 269.05 407.229 269.3 406.215 269.3ZM406.435 267.67C407.162 267.67 407.759 267.497 408.225 267.15C408.692 266.797 409.035 266.313 409.255 265.7C409.482 265.08 409.595 264.377 409.595 263.59C409.595 262.79 409.482 262.087 409.255 261.48C409.035 260.867 408.695 260.39 408.235 260.05C407.775 259.703 407.192 259.53 406.485 259.53C405.752 259.53 405.145 259.71 404.665 260.07C404.192 260.43 403.839 260.917 403.605 261.53C403.379 262.143 403.265 262.83 403.265 263.59C403.265 264.357 403.382 265.05 403.615 265.67C403.849 266.283 404.199 266.77 404.665 267.13C405.139 267.49 405.729 267.67 406.435 267.67ZM409.595 269V261.05H409.395V254.6H411.185V269H409.595ZM418.191 269V254.6H419.971V269H418.191ZM427.211 269.3C426.205 269.3 425.341 269.05 424.621 268.55C423.901 268.043 423.345 267.36 422.951 266.5C422.565 265.64 422.371 264.67 422.371 263.59C422.371 262.51 422.565 261.54 422.951 260.68C423.345 259.82 423.901 259.143 424.621 258.65C425.341 258.15 426.201 257.9 427.201 257.9C428.221 257.9 429.078 258.147 429.771 258.64C430.465 259.133 430.988 259.81 431.341 260.67C431.701 261.53 431.881 262.503 431.881 263.59C431.881 264.663 431.701 265.633 431.341 266.5C430.988 267.36 430.465 268.043 429.771 268.55C429.078 269.05 428.225 269.3 427.211 269.3ZM427.431 267.67C428.158 267.67 428.755 267.497 429.221 267.15C429.688 266.797 430.031 266.313 430.251 265.7C430.478 265.08 430.591 264.377 430.591 263.59C430.591 262.79 430.478 262.087 430.251 261.48C430.031 260.867 429.691 260.39 429.231 260.05C428.771 259.703 428.188 259.53 427.481 259.53C426.748 259.53 426.141 259.71 425.661 260.07C425.188 260.43 424.835 260.917 424.601 261.53C424.375 262.143 424.261 262.83 424.261 263.59C424.261 264.357 424.378 265.05 424.611 265.67C424.845 266.283 425.195 266.77 425.661 267.13C426.135 267.49 426.725 267.67 427.431 267.67ZM430.591 269V261.05H430.391V254.6H432.181V269H430.591ZM439.663 269.3C438.603 269.3 437.676 269.067 436.883 268.6C436.096 268.127 435.483 267.47 435.043 266.63C434.603 265.783 434.383 264.797 434.383 263.67C434.383 262.49 434.6 261.47 435.033 260.61C435.466 259.743 436.07 259.077 436.843 258.61C437.623 258.137 438.536 257.9 439.583 257.9C440.67 257.9 441.593 258.15 442.353 258.65C443.12 259.15 443.693 259.863 444.073 260.79C444.46 261.717 444.626 262.82 444.573 264.1H442.773V263.46C442.753 262.133 442.483 261.143 441.963 260.49C441.443 259.83 440.67 259.5 439.643 259.5C438.543 259.5 437.706 259.853 437.133 260.56C436.56 261.267 436.273 262.28 436.273 263.6C436.273 264.873 436.56 265.86 437.133 266.56C437.706 267.26 438.523 267.61 439.583 267.61C440.296 267.61 440.916 267.447 441.443 267.12C441.97 266.793 442.383 266.323 442.683 265.71L444.393 266.3C443.973 267.253 443.34 267.993 442.493 268.52C441.653 269.04 440.71 269.3 439.663 269.3ZM435.673 264.1V262.67H443.653V264.1H435.673ZM454.197 269V263.59C454.197 263.077 454.15 262.583 454.057 262.11C453.97 261.637 453.813 261.213 453.587 260.84C453.367 260.46 453.067 260.16 452.687 259.94C452.313 259.72 451.84 259.61 451.267 259.61C450.82 259.61 450.413 259.687 450.047 259.84C449.687 259.987 449.377 260.213 449.117 260.52C448.857 260.827 448.653 261.213 448.507 261.68C448.367 262.14 448.297 262.683 448.297 263.31L447.127 262.95C447.127 261.903 447.313 261.007 447.687 260.26C448.067 259.507 448.597 258.93 449.277 258.53C449.963 258.123 450.77 257.92 451.697 257.92C452.397 257.92 452.993 258.03 453.487 258.25C453.98 258.47 454.39 258.763 454.717 259.13C455.043 259.49 455.3 259.897 455.487 260.35C455.673 260.797 455.803 261.253 455.877 261.72C455.957 262.18 455.997 262.617 455.997 263.03V269H454.197ZM446.497 269V258.2H448.097V261.09H448.297V269H446.497ZM464.626 269C463.986 269.127 463.353 269.177 462.726 269.15C462.106 269.13 461.553 269.007 461.066 268.78C460.58 268.547 460.21 268.187 459.956 267.7C459.743 267.273 459.626 266.843 459.606 266.41C459.593 265.97 459.586 265.473 459.586 264.92V255.2H461.366V264.84C461.366 265.28 461.37 265.657 461.376 265.97C461.39 266.283 461.46 266.553 461.586 266.78C461.826 267.207 462.206 267.457 462.726 267.53C463.253 267.603 463.886 267.583 464.626 267.47V269ZM457.396 259.67V258.2H464.626V259.67H457.396ZM467.019 256.29V254.45H468.799V256.29H467.019ZM467.019 269V258.2H468.799V269H467.019ZM472.829 269V257.61C472.829 257.33 472.843 257.047 472.869 256.76C472.896 256.467 472.956 256.183 473.049 255.91C473.143 255.63 473.296 255.373 473.509 255.14C473.756 254.867 474.026 254.673 474.319 254.56C474.613 254.44 474.909 254.367 475.209 254.34C475.516 254.313 475.806 254.3 476.079 254.3H477.449V255.78H476.179C475.653 255.78 475.259 255.91 474.999 256.17C474.739 256.423 474.609 256.81 474.609 257.33V269H472.829ZM470.999 259.67V258.2H477.449V259.67H470.999ZM479.549 256.29V254.45H481.329V256.29H479.549ZM479.549 269V258.2H481.329V269H479.549ZM488.889 269.3C487.795 269.3 486.865 269.057 486.099 268.57C485.339 268.077 484.759 267.4 484.359 266.54C483.959 265.68 483.752 264.7 483.739 263.6C483.752 262.473 483.962 261.483 484.369 260.63C484.782 259.77 485.372 259.1 486.139 258.62C486.905 258.14 487.829 257.9 488.909 257.9C490.049 257.9 491.029 258.18 491.849 258.74C492.675 259.3 493.229 260.067 493.509 261.04L491.749 261.57C491.522 260.943 491.152 260.457 490.639 260.11C490.132 259.763 489.549 259.59 488.889 259.59C488.149 259.59 487.539 259.763 487.059 260.11C486.579 260.45 486.222 260.923 485.989 261.53C485.755 262.13 485.635 262.82 485.629 263.6C485.642 264.8 485.919 265.77 486.459 266.51C487.005 267.243 487.815 267.61 488.889 267.61C489.595 267.61 490.182 267.45 490.649 267.13C491.115 266.803 491.469 266.333 491.709 265.72L493.509 266.19C493.135 267.197 492.552 267.967 491.759 268.5C490.965 269.033 490.009 269.3 488.889 269.3ZM498.522 269.3C497.715 269.3 497.038 269.153 496.492 268.86C495.952 268.56 495.542 268.167 495.262 267.68C494.988 267.193 494.852 266.66 494.852 266.08C494.852 265.513 494.958 265.023 495.172 264.61C495.392 264.19 495.698 263.843 496.092 263.57C496.485 263.29 496.955 263.07 497.502 262.91C498.015 262.77 498.588 262.65 499.222 262.55C499.862 262.443 500.508 262.347 501.162 262.26C501.815 262.173 502.425 262.09 502.992 262.01L502.352 262.38C502.372 261.42 502.178 260.71 501.772 260.25C501.372 259.79 500.678 259.56 499.692 259.56C499.038 259.56 498.465 259.71 497.972 260.01C497.485 260.303 497.142 260.783 496.942 261.45L495.252 260.94C495.512 259.993 496.015 259.25 496.762 258.71C497.508 258.17 498.492 257.9 499.712 257.9C500.692 257.9 501.532 258.077 502.232 258.43C502.938 258.777 503.445 259.303 503.752 260.01C503.905 260.343 504.002 260.707 504.042 261.1C504.082 261.487 504.102 261.893 504.102 262.32V269H502.522V266.41L502.892 266.65C502.485 267.523 501.915 268.183 501.182 268.63C500.455 269.077 499.568 269.3 498.522 269.3ZM498.792 267.81C499.432 267.81 499.985 267.697 500.452 267.47C500.925 267.237 501.305 266.933 501.592 266.56C501.878 266.18 502.065 265.767 502.152 265.32C502.252 264.987 502.305 264.617 502.312 264.21C502.325 263.797 502.332 263.48 502.332 263.26L502.952 263.53C502.372 263.61 501.802 263.687 501.242 263.76C500.682 263.833 500.152 263.913 499.652 264C499.152 264.08 498.702 264.177 498.302 264.29C498.008 264.383 497.732 264.503 497.472 264.65C497.218 264.797 497.012 264.987 496.852 265.22C496.698 265.447 496.622 265.73 496.622 266.07C496.622 266.363 496.695 266.643 496.842 266.91C496.995 267.177 497.228 267.393 497.542 267.56C497.862 267.727 498.278 267.81 498.792 267.81ZM512.732 269C512.092 269.127 511.458 269.177 510.832 269.15C510.212 269.13 509.658 269.007 509.172 268.78C508.685 268.547 508.315 268.187 508.062 267.7C507.848 267.273 507.732 266.843 507.712 266.41C507.698 265.97 507.692 265.473 507.692 264.92V255.2H509.472V264.84C509.472 265.28 509.475 265.657 509.482 265.97C509.495 266.283 509.565 266.553 509.692 266.78C509.932 267.207 510.312 267.457 510.832 267.53C511.358 267.603 511.992 267.583 512.732 267.47V269ZM505.502 259.67V258.2H512.732V259.67H505.502ZM515.124 256.29V254.45H516.904V256.29H515.124ZM515.124 269V258.2H516.904V269H515.124ZM524.505 269.3C523.432 269.3 522.505 269.057 521.725 268.57C520.952 268.083 520.355 267.41 519.935 266.55C519.515 265.69 519.305 264.703 519.305 263.59C519.305 262.457 519.518 261.463 519.945 260.61C520.372 259.757 520.975 259.093 521.755 258.62C522.535 258.14 523.452 257.9 524.505 257.9C525.585 257.9 526.515 258.143 527.295 258.63C528.075 259.11 528.672 259.78 529.085 260.64C529.505 261.493 529.715 262.477 529.715 263.59C529.715 264.717 529.505 265.71 529.085 266.57C528.665 267.423 528.065 268.093 527.285 268.58C526.505 269.06 525.578 269.3 524.505 269.3ZM524.505 267.61C525.625 267.61 526.458 267.237 527.005 266.49C527.552 265.743 527.825 264.777 527.825 263.59C527.825 262.37 527.548 261.4 526.995 260.68C526.442 259.953 525.612 259.59 524.505 259.59C523.752 259.59 523.132 259.76 522.645 260.1C522.158 260.44 521.795 260.91 521.555 261.51C521.315 262.11 521.195 262.803 521.195 263.59C521.195 264.803 521.475 265.777 522.035 266.51C522.595 267.243 523.418 267.61 524.505 267.61ZM539.607 269V263.59C539.607 263.077 539.56 262.583 539.467 262.11C539.38 261.637 539.223 261.213 538.997 260.84C538.777 260.46 538.477 260.16 538.097 259.94C537.723 259.72 537.25 259.61 536.677 259.61C536.23 259.61 535.823 259.687 535.457 259.84C535.097 259.987 534.787 260.213 534.527 260.52C534.267 260.827 534.063 261.213 533.917 261.68C533.777 262.14 533.707 262.683 533.707 263.31L532.537 262.95C532.537 261.903 532.723 261.007 533.097 260.26C533.477 259.507 534.007 258.93 534.687 258.53C535.373 258.123 536.18 257.92 537.107 257.92C537.807 257.92 538.403 258.03 538.897 258.25C539.39 258.47 539.8 258.763 540.127 259.13C540.453 259.49 540.71 259.897 540.897 260.35C541.083 260.797 541.213 261.253 541.287 261.72C541.367 262.18 541.407 262.617 541.407 263.03V269H539.607ZM531.907 269V258.2H533.507V261.09H533.707V269H531.907Z" fill="white"/>
<path d="M680.722 220.824C680.732 220.843 680.75 220.861 680.759 220.88C680.843 221.094 680.973 221.289 681.159 221.438C681.187 221.466 681.224 221.475 681.262 221.494C681.355 221.549 681.429 221.614 681.541 221.652C681.671 221.689 681.792 221.707 681.922 221.707C682.052 221.707 682.173 221.689 682.304 221.652L702.55 215.216C702.568 215.207 702.578 215.198 702.596 215.188C702.671 215.16 702.745 215.114 702.81 215.067C702.885 215.021 702.959 214.984 703.015 214.928C703.024 214.919 703.043 214.909 703.052 214.9L754.695 163.257C754.928 163.025 755.067 162.699 755.067 162.364C755.067 154.059 748.306 147.298 740.001 147.298C739.666 147.298 739.35 147.429 739.108 147.67L687.474 199.313C687.465 199.323 687.465 199.332 687.456 199.351C687.325 199.481 687.223 199.639 687.167 199.825L680.732 220.062C680.722 220.108 680.722 220.145 680.713 220.192C680.695 220.275 680.686 220.359 680.686 220.443C680.686 220.526 680.695 220.61 680.713 220.694C680.722 220.731 680.713 220.778 680.722 220.824L680.722 220.824ZM740.512 149.828C747.022 150.088 752.276 155.343 752.537 161.853L703.172 211.227C702.038 205.144 697.23 200.336 691.147 199.202L740.512 149.828ZM689.25 201.545C695.444 201.992 700.373 206.911 700.819 213.115L691.194 216.174C690.738 213.635 688.739 211.636 686.191 211.171L689.25 201.545ZM685.419 213.607C687.195 213.765 688.599 215.17 688.757 216.946L683.865 218.499L685.419 213.607Z" fill="white"/>
<path d="M676.876 221.5H754.876" stroke="#ADB6F9" stroke-width="2" stroke-linecap="round" stroke-dasharray="4 4"/>
<path d="M810.973 181.896C815.902 181.896 824.365 180.966 824.458 177.711C824.458 174.363 815.995 173.526 810.973 173.526C805.951 173.526 797.488 174.456 797.488 177.711C797.488 181.059 805.951 181.896 810.973 181.896ZM810.973 175.386C818.041 175.386 822.319 176.874 822.598 177.711C822.319 178.548 818.041 180.036 810.973 180.036C803.812 180.036 799.534 178.455 799.348 177.711C799.627 176.967 803.905 175.386 810.973 175.386Z" fill="white"/>
<path d="M868.726 176.781H837.757C836.362 171.387 823.342 168.504 810.973 168.504C798.046 168.504 784.375 171.666 784.096 177.525V177.618V177.711V191.289C784.096 197.241 797.953 200.496 810.973 200.496C823.342 200.496 836.362 197.52 837.757 192.219L868.726 192.219C869.284 192.219 869.656 191.847 869.656 191.382V177.711C869.656 177.153 869.284 176.781 868.726 176.781V176.781ZM810.973 170.364C825.202 170.364 835.246 173.991 835.99 177.432C835.99 177.525 835.897 177.618 835.897 177.711V178.176C834.874 181.524 824.923 184.965 810.973 184.965C796.279 184.965 786.049 181.059 785.956 177.618C786.049 174.177 796.279 170.364 810.973 170.364ZM833.758 194.265V191.01C833.758 190.452 833.386 190.08 832.828 190.08C832.27 190.08 831.898 190.452 831.898 191.01V195.288C830.875 195.753 829.666 196.218 828.364 196.59V190.917C828.364 190.359 827.991 189.987 827.434 189.987C826.876 189.987 826.504 190.359 826.504 190.917V196.869V197.055C825.388 197.334 824.179 197.613 822.876 197.799V193.8C822.876 193.242 822.504 192.87 821.946 192.87C821.389 192.87 821.016 193.242 821.016 193.8V198.078C819.901 198.264 818.691 198.357 817.389 198.45V192.87C817.389 192.312 817.017 191.94 816.459 191.94C815.901 191.94 815.529 192.312 815.529 192.87V198.636C814.32 198.729 813.111 198.729 811.902 198.729V195.102C811.902 194.544 811.53 194.172 810.972 194.172C810.414 194.172 810.042 194.544 810.042 195.102V198.729C808.833 198.729 807.624 198.636 806.415 198.636L806.416 192.87C806.416 192.312 806.043 191.94 805.486 191.94C804.928 191.94 804.556 192.312 804.556 192.87V198.45C803.253 198.357 802.045 198.171 800.928 198.078V193.8C800.928 193.242 800.556 192.87 799.998 192.87C799.441 192.87 799.068 193.242 799.068 193.8V197.799C797.766 197.613 796.558 197.334 795.441 197.055V196.869V190.917C795.441 190.359 795.069 189.987 794.511 189.987C793.953 189.987 793.581 190.359 793.581 190.917V196.59C792.186 196.218 790.977 195.753 789.954 195.288L789.955 191.01C789.955 190.452 789.583 190.08 789.025 190.08C788.467 190.08 788.095 190.452 788.095 191.01V194.172C786.7 193.242 785.955 192.312 785.955 191.382V181.152C790.14 184.872 800.835 186.825 810.972 186.825C821.109 186.825 831.618 184.872 835.896 181.245V191.289C835.896 191.475 835.896 191.568 835.989 191.661C835.803 192.591 835.059 193.428 833.757 194.265L833.758 194.265ZM864.448 190.452V186.825C864.448 186.267 864.076 185.895 863.518 185.895C862.96 185.895 862.588 186.267 862.588 186.825V190.452H858.961V185.337C858.961 184.779 858.589 184.407 858.031 184.407C857.473 184.407 857.101 184.779 857.101 185.337V190.452H853.474V186.825C853.474 186.267 853.101 185.895 852.544 185.895C851.986 185.895 851.614 186.267 851.614 186.825V190.452H847.986V185.337C847.986 184.779 847.614 184.407 847.056 184.407C846.499 184.407 846.126 184.779 846.126 185.337V190.452H842.499V186.825C842.499 186.267 842.127 185.895 841.569 185.895C841.011 185.895 840.639 186.267 840.639 186.825V190.452H837.849L837.85 178.641H867.796V190.452H864.448Z" fill="white"/>
<path d="M975.401 172.482L975.375 172.469C972.452 170.957 969.789 168.991 967.485 166.644L967.474 166.633L967.463 166.621C965.824 164.865 963.732 163.592 961.415 162.944L961.415 162.944C959.099 162.295 956.647 162.295 954.33 162.944C952.013 163.592 949.921 164.865 948.282 166.621L948.271 166.633L948.259 166.645C945.952 168.988 943.289 170.953 940.369 172.469L940.345 172.481L940.32 172.493C940.279 172.512 940.246 172.543 940.225 172.582L940.225 172.582C940.204 172.621 940.196 172.665 940.202 172.707C940.202 172.707 940.202 172.707 940.202 172.708L945.59 209.798L945.59 209.798C945.597 209.846 945.621 209.89 945.658 209.922C945.695 209.954 945.744 209.972 945.795 209.972H969.951L975.401 172.482ZM975.401 172.482L975.428 172.494M975.401 172.482L975.428 172.494M975.428 172.494C975.468 172.513 975.501 172.544 975.522 172.583L976.62 171.984M975.428 172.494L975.336 174.136M975.336 174.136L970.155 209.798L970.155 209.798C970.148 209.846 970.124 209.89 970.087 209.922C970.05 209.954 970.002 209.972 969.951 209.972L975.336 174.136ZM975.336 174.136H975.333L975.544 172.704C975.55 172.663 975.542 172.62 975.521 172.581L976.62 171.984M976.62 171.984C976.47 171.709 976.235 171.49 975.949 171.358L976.78 172.886V172.466C976.756 172.299 976.702 172.135 976.62 171.984Z" stroke="white" stroke-width="2.5"/>
<path d="M895.255 182.445L896.461 182.116C896.449 182.072 896.453 182.026 896.47 181.985L896.47 181.984C896.488 181.943 896.519 181.908 896.56 181.886L896.567 181.882L896.574 181.878C904.68 177.331 906.439 169.927 906.299 163.677C906.229 160.564 905.692 157.694 905.229 155.543C905.128 155.073 905.034 154.651 904.948 154.269C904.832 153.75 904.733 153.306 904.656 152.918C904.601 152.64 904.566 152.43 904.548 152.276C904.553 152.274 904.559 152.272 904.565 152.27L904.566 152.27L920.298 147.217C920.354 147.201 920.415 147.206 920.466 147.234L920.467 147.234C920.518 147.261 920.555 147.307 920.571 147.362L920.571 147.362C921.836 151.768 925.108 155.11 927.947 157.313C930.808 159.533 933.382 160.714 933.484 160.76L933.499 160.767C933.53 160.784 933.555 160.808 933.574 160.836L933.574 160.836C933.595 160.869 933.606 160.907 933.606 160.947V221.591V221.592C933.606 221.644 933.586 221.695 933.547 221.734C933.508 221.772 933.456 221.794 933.399 221.794H898.291C898.223 221.794 898.159 221.761 898.12 221.707C898.082 221.653 898.073 221.585 898.094 221.524L898.099 221.512L898.102 221.5C899.686 216.659 900.622 211.631 900.886 206.545L900.887 206.534L900.887 206.523C901.014 202.83 899.89 196.711 898.776 191.626C897.65 186.488 896.488 182.211 896.46 182.111L895.255 182.445ZM895.255 182.445C895.303 182.615 899.878 199.459 899.638 206.48M895.255 182.445C895.169 182.13 895.192 181.795 895.32 181.494M899.638 206.48L895.962 180.788C895.675 180.945 895.449 181.194 895.32 181.494M899.638 206.48C899.379 211.456 898.464 216.375 896.914 221.111L899.638 206.48ZM895.32 181.494L895.32 181.494L895.32 181.494Z" stroke="white" stroke-width="2.5"/>
<path d="M929.375 211.363L929.375 215.121L928.125 215.121L928.125 215.75H927.254V217H923.011V215.75H918.767V217H914.524V215.75H910.281V217H906.038V215.75H905.382L904.288 215.496C904.522 214.49 904.729 213.478 904.909 212.459L906.139 212.677C906.323 211.639 906.479 210.595 906.607 209.546L905.366 209.394C905.492 208.37 905.59 207.341 905.661 206.309L906.908 206.395C906.944 205.869 906.973 205.342 906.995 204.815L906.996 204.808L906.996 204.801C907.014 204.207 907.004 203.564 906.972 202.887L905.724 202.946C905.671 201.845 905.556 200.619 905.399 199.329L906.64 199.177C906.495 197.996 906.316 196.765 906.116 195.532L904.882 195.731C904.688 194.531 904.475 193.324 904.254 192.151L905.483 191.921C905.248 190.667 905.006 189.455 904.773 188.333L903.549 188.587C903.27 187.244 903.005 186.03 902.781 185.034L904.001 184.76C903.922 184.409 903.848 184.084 903.781 183.79C904.074 183.566 904.358 183.336 904.631 183.1L903.813 182.154C904.759 181.336 905.572 180.443 906.266 179.496L907.274 180.235C908.058 179.166 908.701 178.037 909.224 176.876L908.084 176.363C908.585 175.25 908.97 174.1 909.262 172.938L910.474 173.242C910.788 171.99 910.997 170.731 911.124 169.494L909.881 169.366C910.008 168.132 910.052 166.914 910.038 165.742L911.288 165.727C911.272 164.407 911.184 163.146 911.058 161.987L909.815 162.122C909.668 160.766 909.466 159.547 909.266 158.535L910.492 158.292C910.442 158.039 910.392 157.798 910.343 157.57L911.913 157.004L911.489 155.828L916.717 153.943L917.141 155.118L918.607 154.59C918.715 154.842 918.828 155.089 918.945 155.332L920.071 154.79C920.652 155.994 921.352 157.09 922.109 158.078L921.117 158.838C921.995 159.985 922.942 160.988 923.869 161.85L924.72 160.934C925.799 161.936 926.856 162.744 927.743 163.355L927.034 164.384C927.434 164.661 927.802 164.899 928.126 165.1L928.126 166.271L929.376 166.271L929.376 170.029L928.126 170.029L928.126 173.786L929.376 173.786L929.376 177.544L928.126 177.544L928.126 181.302L929.376 181.302L929.376 185.059L928.126 185.059L928.126 188.817L929.376 188.817L929.376 192.575L928.126 192.575L928.126 196.333L929.376 196.333L929.375 200.09L928.125 200.09L928.125 203.848L929.375 203.848L929.375 207.606L928.125 207.606L928.125 211.363L929.375 211.363Z" stroke="#ADB6F9" stroke-width="2.5" stroke-dasharray="4 4"/>
<path d="M731.369 269V254.6H735.809C735.955 254.6 736.212 254.603 736.579 254.61C736.945 254.617 737.295 254.643 737.629 254.69C738.742 254.837 739.672 255.243 740.419 255.91C741.172 256.57 741.739 257.41 742.119 258.43C742.499 259.45 742.689 260.573 742.689 261.8C742.689 263.027 742.499 264.15 742.119 265.17C741.739 266.19 741.172 267.033 740.419 267.7C739.672 268.36 738.742 268.763 737.629 268.91C737.295 268.95 736.942 268.977 736.569 268.99C736.202 268.997 735.949 269 735.809 269H731.369ZM733.199 267.3H735.809C736.062 267.3 736.345 267.293 736.659 267.28C736.972 267.26 737.245 267.23 737.479 267.19C738.265 267.043 738.902 266.713 739.389 266.2C739.875 265.687 740.232 265.047 740.459 264.28C740.685 263.513 740.799 262.687 740.799 261.8C740.799 260.893 740.682 260.057 740.449 259.29C740.222 258.523 739.865 257.887 739.379 257.38C738.892 256.873 738.259 256.55 737.479 256.41C737.245 256.363 736.969 256.333 736.649 256.32C736.329 256.307 736.049 256.3 735.809 256.3H733.199V267.3ZM749.662 269.3C748.602 269.3 747.675 269.067 746.882 268.6C746.095 268.127 745.482 267.47 745.042 266.63C744.602 265.783 744.382 264.797 744.382 263.67C744.382 262.49 744.599 261.47 745.032 260.61C745.465 259.743 746.069 259.077 746.842 258.61C747.622 258.137 748.535 257.9 749.582 257.9C750.669 257.9 751.592 258.15 752.352 258.65C753.119 259.15 753.692 259.863 754.072 260.79C754.459 261.717 754.625 262.82 754.572 264.1H752.772V263.46C752.752 262.133 752.482 261.143 751.962 260.49C751.442 259.83 750.669 259.5 749.642 259.5C748.542 259.5 747.705 259.853 747.132 260.56C746.559 261.267 746.272 262.28 746.272 263.6C746.272 264.873 746.559 265.86 747.132 266.56C747.705 267.26 748.522 267.61 749.582 267.61C750.295 267.61 750.915 267.447 751.442 267.12C751.969 266.793 752.382 266.323 752.682 265.71L754.392 266.3C753.972 267.253 753.339 267.993 752.492 268.52C751.652 269.04 750.709 269.3 749.662 269.3ZM745.672 264.1V262.67H753.652V264.1H745.672ZM760.878 269.29C759.592 269.29 758.535 269.01 757.708 268.45C756.888 267.883 756.385 267.093 756.198 266.08L758.018 265.79C758.165 266.377 758.502 266.843 759.028 267.19C759.555 267.53 760.208 267.7 760.988 267.7C761.728 267.7 762.308 267.547 762.728 267.24C763.148 266.933 763.358 266.517 763.358 265.99C763.358 265.683 763.288 265.437 763.148 265.25C763.008 265.057 762.718 264.877 762.278 264.71C761.845 264.543 761.188 264.343 760.308 264.11C759.355 263.857 758.605 263.593 758.058 263.32C757.512 263.047 757.122 262.73 756.888 262.37C756.655 262.01 756.538 261.573 756.538 261.06C756.538 260.427 756.712 259.873 757.058 259.4C757.405 258.92 757.888 258.55 758.508 258.29C759.135 258.03 759.862 257.9 760.688 257.9C761.508 257.9 762.242 258.03 762.888 258.29C763.535 258.55 764.055 258.92 764.448 259.4C764.848 259.873 765.085 260.427 765.158 261.06L763.338 261.39C763.252 260.81 762.972 260.353 762.498 260.02C762.032 259.687 761.428 259.51 760.688 259.49C759.988 259.463 759.418 259.587 758.978 259.86C758.545 260.133 758.328 260.503 758.328 260.97C758.328 261.23 758.408 261.453 758.568 261.64C758.735 261.827 759.038 262.003 759.478 262.17C759.925 262.337 760.572 262.527 761.418 262.74C762.372 262.98 763.122 263.243 763.668 263.53C764.222 263.81 764.615 264.143 764.848 264.53C765.082 264.91 765.198 265.38 765.198 265.94C765.198 266.98 764.815 267.8 764.048 268.4C763.282 268.993 762.225 269.29 760.878 269.29ZM767.604 256.29V254.45H769.384V256.29H767.604ZM767.604 269V258.2H769.384V269H767.604ZM776.754 274.1C776.188 274.1 775.634 274.013 775.094 273.84C774.554 273.667 774.058 273.403 773.604 273.05C773.158 272.703 772.784 272.263 772.484 271.73L774.114 270.87C774.381 271.397 774.758 271.78 775.244 272.02C775.738 272.26 776.244 272.38 776.764 272.38C777.451 272.38 778.021 272.253 778.474 272C778.928 271.753 779.261 271.383 779.474 270.89C779.694 270.397 779.801 269.783 779.794 269.05V266.1H780.004V258.2H781.584V269.07C781.584 269.363 781.574 269.647 781.554 269.92C781.541 270.193 781.508 270.463 781.454 270.73C781.314 271.497 781.038 272.127 780.624 272.62C780.211 273.12 779.678 273.49 779.024 273.73C778.371 273.977 777.614 274.1 776.754 274.1ZM776.624 269.3C775.618 269.3 774.754 269.05 774.034 268.55C773.314 268.043 772.758 267.36 772.364 266.5C771.978 265.64 771.784 264.67 771.784 263.59C771.784 262.51 771.978 261.54 772.364 260.68C772.758 259.82 773.314 259.143 774.034 258.65C774.754 258.15 775.614 257.9 776.614 257.9C777.634 257.9 778.491 258.147 779.184 258.64C779.878 259.133 780.401 259.81 780.754 260.67C781.114 261.53 781.294 262.503 781.294 263.59C781.294 264.663 781.114 265.633 780.754 266.5C780.401 267.36 779.878 268.043 779.184 268.55C778.491 269.05 777.638 269.3 776.624 269.3ZM776.844 267.67C777.571 267.67 778.168 267.497 778.634 267.15C779.101 266.797 779.444 266.313 779.664 265.7C779.891 265.08 780.004 264.377 780.004 263.59C780.004 262.79 779.891 262.087 779.664 261.48C779.444 260.867 779.104 260.39 778.644 260.05C778.184 259.703 777.601 259.53 776.894 259.53C776.161 259.53 775.554 259.71 775.074 260.07C774.601 260.43 774.248 260.917 774.014 261.53C773.788 262.143 773.674 262.83 773.674 263.59C773.674 264.357 773.791 265.05 774.024 265.67C774.258 266.283 774.608 266.77 775.074 267.13C775.548 267.49 776.138 267.67 776.844 267.67ZM792.067 269V263.59C792.067 263.077 792.02 262.583 791.927 262.11C791.84 261.637 791.683 261.213 791.457 260.84C791.237 260.46 790.937 260.16 790.557 259.94C790.183 259.72 789.71 259.61 789.137 259.61C788.69 259.61 788.283 259.687 787.917 259.84C787.557 259.987 787.247 260.213 786.987 260.52C786.727 260.827 786.523 261.213 786.377 261.68C786.237 262.14 786.167 262.683 786.167 263.31L784.997 262.95C784.997 261.903 785.183 261.007 785.557 260.26C785.937 259.507 786.467 258.93 787.147 258.53C787.833 258.123 788.64 257.92 789.567 257.92C790.267 257.92 790.863 258.03 791.357 258.25C791.85 258.47 792.26 258.763 792.587 259.13C792.913 259.49 793.17 259.897 793.357 260.35C793.543 260.797 793.673 261.253 793.747 261.72C793.827 262.18 793.867 262.617 793.867 263.03V269H792.067ZM784.367 269V258.2H785.967V261.09H786.167V269H784.367ZM800.47 269V254.6H804.91C805.057 254.6 805.314 254.603 805.68 254.61C806.047 254.617 806.397 254.643 806.73 254.69C807.844 254.837 808.774 255.243 809.52 255.91C810.274 256.57 810.84 257.41 811.22 258.43C811.6 259.45 811.79 260.573 811.79 261.8C811.79 263.027 811.6 264.15 811.22 265.17C810.84 266.19 810.274 267.033 809.52 267.7C808.774 268.36 807.844 268.763 806.73 268.91C806.397 268.95 806.044 268.977 805.67 268.99C805.304 268.997 805.05 269 804.91 269H800.47ZM802.3 267.3H804.91C805.164 267.3 805.447 267.293 805.76 267.28C806.074 267.26 806.347 267.23 806.58 267.19C807.367 267.043 808.004 266.713 808.49 266.2C808.977 265.687 809.334 265.047 809.56 264.28C809.787 263.513 809.9 262.687 809.9 261.8C809.9 260.893 809.784 260.057 809.55 259.29C809.324 258.523 808.967 257.887 808.48 257.38C807.994 256.873 807.36 256.55 806.58 256.41C806.347 256.363 806.07 256.333 805.75 256.32C805.43 256.307 805.15 256.3 804.91 256.3H802.3V267.3ZM818.764 269.3C817.704 269.3 816.777 269.067 815.984 268.6C815.197 268.127 814.584 267.47 814.144 266.63C813.704 265.783 813.484 264.797 813.484 263.67C813.484 262.49 813.7 261.47 814.134 260.61C814.567 259.743 815.17 259.077 815.944 258.61C816.724 258.137 817.637 257.9 818.684 257.9C819.77 257.9 820.694 258.15 821.454 258.65C822.22 259.15 822.794 259.863 823.174 260.79C823.56 261.717 823.727 262.82 823.674 264.1H821.874V263.46C821.854 262.133 821.584 261.143 821.064 260.49C820.544 259.83 819.77 259.5 818.744 259.5C817.644 259.5 816.807 259.853 816.234 260.56C815.66 261.267 815.374 262.28 815.374 263.6C815.374 264.873 815.66 265.86 816.234 266.56C816.807 267.26 817.624 267.61 818.684 267.61C819.397 267.61 820.017 267.447 820.544 267.12C821.07 266.793 821.484 266.323 821.784 265.71L823.494 266.3C823.074 267.253 822.44 267.993 821.594 268.52C820.754 269.04 819.81 269.3 818.764 269.3ZM814.774 264.1V262.67H822.754V264.1H814.774ZM828.429 269L824.509 258.2H826.309L829.339 266.73L832.359 258.2H834.169L830.249 269H828.429ZM840.268 269.3C839.208 269.3 838.281 269.067 837.488 268.6C836.701 268.127 836.088 267.47 835.648 266.63C835.208 265.783 834.988 264.797 834.988 263.67C834.988 262.49 835.204 261.47 835.638 260.61C836.071 259.743 836.674 259.077 837.448 258.61C838.228 258.137 839.141 257.9 840.188 257.9C841.274 257.9 842.198 258.15 842.958 258.65C843.724 259.15 844.298 259.863 844.678 260.79C845.064 261.717 845.231 262.82 845.178 264.1H843.378V263.46C843.358 262.133 843.088 261.143 842.568 260.49C842.048 259.83 841.274 259.5 840.248 259.5C839.148 259.5 838.311 259.853 837.738 260.56C837.164 261.267 836.878 262.28 836.878 263.6C836.878 264.873 837.164 265.86 837.738 266.56C838.311 267.26 839.128 267.61 840.188 267.61C840.901 267.61 841.521 267.447 842.048 267.12C842.574 266.793 842.988 266.323 843.288 265.71L844.998 266.3C844.578 267.253 843.944 267.993 843.098 268.52C842.258 269.04 841.314 269.3 840.268 269.3ZM836.278 264.1V262.67H844.258V264.1H836.278ZM847.604 269V254.3H849.384V269H847.604ZM856.984 269.3C855.911 269.3 854.984 269.057 854.204 268.57C853.431 268.083 852.834 267.41 852.414 266.55C851.994 265.69 851.784 264.703 851.784 263.59C851.784 262.457 851.998 261.463 852.424 260.61C852.851 259.757 853.454 259.093 854.234 258.62C855.014 258.14 855.931 257.9 856.984 257.9C858.064 257.9 858.994 258.143 859.774 258.63C860.554 259.11 861.151 259.78 861.564 260.64C861.984 261.493 862.194 262.477 862.194 263.59C862.194 264.717 861.984 265.71 861.564 266.57C861.144 267.423 860.544 268.093 859.764 268.58C858.984 269.06 858.058 269.3 856.984 269.3ZM856.984 267.61C858.104 267.61 858.938 267.237 859.484 266.49C860.031 265.743 860.304 264.777 860.304 263.59C860.304 262.37 860.028 261.4 859.474 260.68C858.921 259.953 858.091 259.59 856.984 259.59C856.231 259.59 855.611 259.76 855.124 260.1C854.638 260.44 854.274 260.91 854.034 261.51C853.794 262.11 853.674 262.803 853.674 263.59C853.674 264.803 853.954 265.777 854.514 266.51C855.074 267.243 855.898 267.61 856.984 267.61ZM869.356 269.3C868.343 269.3 867.489 269.05 866.796 268.55C866.103 268.043 865.576 267.36 865.216 266.5C864.863 265.633 864.686 264.663 864.686 263.59C864.686 262.503 864.863 261.53 865.216 260.67C865.576 259.81 866.103 259.133 866.796 258.64C867.496 258.147 868.353 257.9 869.366 257.9C870.366 257.9 871.226 258.15 871.946 258.65C872.673 259.143 873.229 259.82 873.616 260.68C874.003 261.54 874.196 262.51 874.196 263.59C874.196 264.67 874.003 265.64 873.616 266.5C873.229 267.36 872.673 268.043 871.946 268.55C871.226 269.05 870.363 269.3 869.356 269.3ZM864.386 273.8V258.2H865.976V266.15H866.176V273.8H864.386ZM869.136 267.67C869.849 267.67 870.439 267.49 870.906 267.13C871.373 266.77 871.723 266.283 871.956 265.67C872.189 265.05 872.306 264.357 872.306 263.59C872.306 262.83 872.189 262.143 871.956 261.53C871.729 260.917 871.376 260.43 870.896 260.07C870.423 259.71 869.819 259.53 869.086 259.53C868.386 259.53 867.806 259.703 867.346 260.05C866.886 260.39 866.543 260.867 866.316 261.48C866.089 262.087 865.976 262.79 865.976 263.59C865.976 264.377 866.086 265.08 866.306 265.7C866.533 266.313 866.879 266.797 867.346 267.15C867.813 267.497 868.409 267.67 869.136 267.67ZM889.298 269L889.308 262.09C889.308 261.283 889.092 260.653 888.658 260.2C888.232 259.74 887.675 259.51 886.988 259.51C886.588 259.51 886.208 259.603 885.848 259.79C885.488 259.97 885.195 260.257 884.968 260.65C884.742 261.037 884.628 261.533 884.628 262.14L883.688 261.76C883.675 260.993 883.832 260.323 884.158 259.75C884.492 259.17 884.945 258.72 885.518 258.4C886.092 258.08 886.738 257.92 887.458 257.92C888.585 257.92 889.472 258.263 890.118 258.95C890.765 259.63 891.088 260.547 891.088 261.7L891.078 269H889.298ZM876.378 269V258.2H877.968V261.09H878.168V269H876.378ZM882.848 269L882.858 262.16C882.858 261.333 882.645 260.687 882.218 260.22C881.792 259.747 881.225 259.51 880.518 259.51C879.818 259.51 879.252 259.75 878.818 260.23C878.385 260.71 878.168 261.347 878.168 262.14L877.228 261.58C877.228 260.88 877.395 260.253 877.728 259.7C878.062 259.147 878.515 258.713 879.088 258.4C879.662 258.08 880.312 257.92 881.038 257.92C881.765 257.92 882.398 258.073 882.938 258.38C883.478 258.687 883.895 259.127 884.188 259.7C884.482 260.267 884.628 260.943 884.628 261.73L884.618 269H882.848ZM898.275 269.3C897.215 269.3 896.289 269.067 895.495 268.6C894.709 268.127 894.095 267.47 893.655 266.63C893.215 265.783 892.995 264.797 892.995 263.67C892.995 262.49 893.212 261.47 893.645 260.61C894.079 259.743 894.682 259.077 895.455 258.61C896.235 258.137 897.149 257.9 898.195 257.9C899.282 257.9 900.205 258.15 900.965 258.65C901.732 259.15 902.305 259.863 902.685 260.79C903.072 261.717 903.239 262.82 903.185 264.1H901.385V263.46C901.365 262.133 901.095 261.143 900.575 260.49C900.055 259.83 899.282 259.5 898.255 259.5C897.155 259.5 896.319 259.853 895.745 260.56C895.172 261.267 894.885 262.28 894.885 263.6C894.885 264.873 895.172 265.86 895.745 266.56C896.319 267.26 897.135 267.61 898.195 267.61C898.909 267.61 899.529 267.447 900.055 267.12C900.582 266.793 900.995 266.323 901.295 265.71L903.005 266.3C902.585 267.253 901.952 267.993 901.105 268.52C900.265 269.04 899.322 269.3 898.275 269.3ZM894.285 264.1V262.67H902.265V264.1H894.285ZM912.809 269V263.59C912.809 263.077 912.762 262.583 912.669 262.11C912.582 261.637 912.425 261.213 912.199 260.84C911.979 260.46 911.679 260.16 911.299 259.94C910.925 259.72 910.452 259.61 909.879 259.61C909.432 259.61 909.025 259.687 908.659 259.84C908.299 259.987 907.989 260.213 907.729 260.52C907.469 260.827 907.265 261.213 907.119 261.68C906.979 262.14 906.909 262.683 906.909 263.31L905.739 262.95C905.739 261.903 905.925 261.007 906.299 260.26C906.679 259.507 907.209 258.93 907.889 258.53C908.575 258.123 909.382 257.92 910.309 257.92C911.009 257.92 911.605 258.03 912.099 258.25C912.592 258.47 913.002 258.763 913.329 259.13C913.655 259.49 913.912 259.897 914.099 260.35C914.285 260.797 914.415 261.253 914.489 261.72C914.569 262.18 914.609 262.617 914.609 263.03V269H912.809ZM905.109 269V258.2H906.709V261.09H906.909V269H905.109ZM923.239 269C922.599 269.127 921.965 269.177 921.339 269.15C920.719 269.13 920.165 269.007 919.679 268.78C919.192 268.547 918.822 268.187 918.569 267.7C918.355 267.273 918.239 266.843 918.219 266.41C918.205 265.97 918.199 265.473 918.199 264.92V255.2H919.979V264.84C919.979 265.28 919.982 265.657 919.989 265.97C920.002 266.283 920.072 266.553 920.199 266.78C920.439 267.207 920.819 267.457 921.339 267.53C921.865 267.603 922.499 267.583 923.239 267.47V269ZM916.009 259.67V258.2H923.239V259.67H916.009Z" fill="white"/>
<path fill-rule="evenodd" clip-rule="evenodd" d="M1048.29 151.248C1047.87 150.815 1047.7 150.182 1047.85 149.589C1048.01 148.996 1048.46 148.532 1049.03 148.373C1049.6 148.214 1050.22 148.383 1050.64 148.817L1057.91 156.338L1069.74 144.12C1070.16 143.686 1070.77 143.516 1071.35 143.676C1071.92 143.835 1072.37 144.299 1072.52 144.892C1072.68 145.486 1072.51 146.12 1072.09 146.554L1059.09 159.982C1058.77 160.304 1058.35 160.485 1057.91 160.485C1057.47 160.485 1057.05 160.304 1056.73 159.982L1048.28 151.248L1048.29 151.248Z" fill="#67BCAB"/>
<line x1="1090.11" y1="150.615" x2="1139.55" y2="150.615" stroke="white" stroke-width="2.5" stroke-linecap="round"/>
<path fill-rule="evenodd" clip-rule="evenodd" d="M1048.29 183.698C1047.87 183.264 1047.7 182.631 1047.85 182.038C1048.01 181.445 1048.46 180.982 1049.03 180.823C1049.6 180.663 1050.22 180.832 1050.64 181.266L1057.91 188.788L1069.74 176.57C1070.16 176.135 1070.77 175.965 1071.35 176.125C1071.92 176.284 1072.37 176.748 1072.52 177.341C1072.68 177.935 1072.51 178.569 1072.09 179.004L1059.09 192.432C1058.77 192.753 1058.35 192.934 1057.91 192.934C1057.47 192.934 1057.05 192.753 1056.73 192.432L1048.28 183.697L1048.29 183.698Z" fill="#67BCAB"/>
<line x1="1090.11" y1="182.017" x2="1139.55" y2="182.017" stroke="white" stroke-width="2.5" stroke-linecap="round"/>
<path fill-rule="evenodd" clip-rule="evenodd" d="M1048.29 216.147C1047.87 215.713 1047.7 215.081 1047.85 214.488C1048.01 213.894 1048.46 213.431 1049.03 213.272C1049.6 213.113 1050.22 213.282 1050.64 213.716L1057.91 221.237L1069.74 209.019C1070.16 208.584 1070.77 208.415 1071.35 208.574C1071.92 208.733 1072.37 209.197 1072.52 209.791C1072.68 210.385 1072.51 211.018 1072.09 211.453L1059.09 224.881C1058.77 225.203 1058.35 225.383 1057.91 225.383C1057.47 225.383 1057.05 225.203 1056.73 224.881L1048.28 216.147L1048.29 216.147Z" fill="#67BCAB"/>
<line x1="1090.11" y1="213.42" x2="1139.55" y2="213.42" stroke="white" stroke-width="2.5" stroke-linecap="round"/>
<path fill-rule="evenodd" clip-rule="evenodd" d="M1193.57 168.088H1182.41L1192.74 199.142H1233.7C1234.18 199.152 1234.66 199.003 1235.05 198.719C1235.44 198.435 1235.73 198.031 1235.87 197.568L1244.48 171.072C1244.7 170.378 1244.58 169.617 1244.15 169.026C1243.72 168.435 1243.04 168.086 1242.31 168.087H1234.42C1234.07 173.267 1231.77 178.121 1227.98 181.667C1224.19 185.213 1219.19 187.186 1214 187.186C1208.81 187.186 1203.81 185.213 1200.02 181.667C1196.23 178.121 1193.92 173.267 1193.57 168.087L1193.57 168.088ZM1214 148.993C1209.3 148.993 1204.79 150.86 1201.47 154.183C1198.15 157.506 1196.28 162.013 1196.28 166.712C1196.28 171.412 1198.15 175.919 1201.47 179.242C1204.79 182.565 1209.3 184.432 1214 184.432C1218.7 184.432 1223.2 182.565 1226.53 179.242C1229.85 175.919 1231.72 171.412 1231.72 166.712C1231.71 162.015 1229.84 157.511 1226.52 154.189C1223.2 150.868 1218.7 148.998 1214 148.993ZM1234.02 220.007C1233.17 220.007 1232.37 219.673 1231.77 219.077C1231.18 218.482 1230.84 217.674 1230.84 216.832C1230.84 215.99 1231.18 215.182 1231.77 214.587C1232.37 213.992 1233.17 213.657 1234.02 213.658C1234.86 213.658 1235.67 213.993 1236.26 214.589C1236.86 215.185 1237.19 215.992 1237.19 216.835C1237.19 217.676 1236.85 218.483 1236.26 219.078C1235.66 219.673 1234.86 220.007 1234.02 220.007ZM1197.12 220.007C1196.28 220.008 1195.47 219.674 1194.87 219.078C1194.28 218.483 1193.94 217.675 1193.94 216.833C1193.94 215.991 1194.28 215.183 1194.87 214.588C1195.47 213.992 1196.28 213.658 1197.12 213.658C1197.96 213.658 1198.77 213.993 1199.36 214.589C1199.96 215.184 1200.29 215.992 1200.29 216.835C1200.29 217.676 1199.96 218.482 1199.36 219.077C1198.77 219.672 1197.96 220.006 1197.12 220.007ZM1160.62 154.889H1173.47C1173.95 154.879 1174.42 155.027 1174.81 155.31C1175.21 155.592 1175.49 155.994 1175.64 156.455L1189.93 199.416C1187.99 200.006 1186.46 201.494 1185.8 203.412C1185.15 205.33 1185.47 207.444 1186.64 209.092C1187.82 210.74 1189.72 211.719 1191.75 211.725H1194.12C1192.61 212.609 1191.57 214.113 1191.28 215.835C1190.98 217.558 1191.46 219.322 1192.59 220.657C1193.71 221.993 1195.37 222.764 1197.12 222.764C1198.87 222.764 1200.52 221.993 1201.65 220.657C1202.78 219.322 1203.26 217.558 1202.96 215.835C1202.67 214.113 1201.63 212.609 1200.12 211.725H1231.02C1229.51 212.609 1228.47 214.113 1228.17 215.835C1227.88 217.557 1228.36 219.322 1229.48 220.657C1230.61 221.993 1232.27 222.764 1234.02 222.764C1235.76 222.764 1237.42 221.993 1238.55 220.657C1239.67 219.322 1240.15 217.557 1239.86 215.835C1239.56 214.113 1238.52 212.609 1237.02 211.725H1238.39L1245.33 214.199C1245.79 214.356 1246.3 214.257 1246.67 213.939C1247.04 213.621 1247.22 213.132 1247.13 212.652C1247.05 212.172 1246.71 211.773 1246.26 211.603L1239.09 209.051C1238.94 208.998 1238.78 208.971 1238.62 208.972H1191.75C1190.48 208.972 1189.31 208.297 1188.68 207.203C1188.05 206.108 1188.05 204.76 1188.68 203.665C1189.31 202.57 1190.48 201.896 1191.75 201.896H1233.7C1234.76 201.908 1235.8 201.576 1236.67 200.95C1237.53 200.323 1238.17 199.436 1238.49 198.419L1247.09 171.925C1247.59 170.392 1247.33 168.713 1246.38 167.409C1245.43 166.105 1243.92 165.334 1242.3 165.334H1234.42C1234.07 160.155 1231.77 155.3 1227.98 151.755C1224.19 148.209 1219.19 146.237 1214 146.237C1208.81 146.237 1203.81 148.209 1200.02 151.755C1196.22 155.301 1193.92 160.155 1193.57 165.334H1181.49L1178.25 155.582C1177.92 154.573 1177.28 153.694 1176.42 153.074C1175.57 152.454 1174.53 152.125 1173.47 152.136H1160.62C1160.13 152.136 1159.67 152.398 1159.43 152.824C1159.18 153.25 1159.18 153.775 1159.43 154.2C1159.67 154.626 1160.13 154.889 1160.62 154.889Z" fill="white"/>
<path fill-rule="evenodd" clip-rule="evenodd" d="M1204.15 166.065C1203.8 165.718 1203.66 165.211 1203.79 164.736C1203.92 164.26 1204.29 163.889 1204.76 163.762C1205.24 163.634 1205.74 163.77 1206.09 164.117L1212.12 170.144L1221.91 160.354C1222.26 160.006 1222.76 159.87 1223.24 159.998C1223.71 160.125 1224.09 160.497 1224.21 160.972C1224.34 161.448 1224.2 161.956 1223.86 162.304L1213.09 173.064C1212.83 173.321 1212.48 173.466 1212.11 173.466C1211.75 173.466 1211.4 173.321 1211.14 173.064L1204.14 166.065L1204.15 166.065Z" fill="#67BCAB"/>
<path d="M1312.3 144.045C1303.58 144.045 1296.49 151.136 1296.49 159.855C1296.49 168.574 1303.58 175.665 1312.3 175.665C1321.02 175.665 1328.11 168.574 1328.11 159.855C1328.11 151.136 1321.02 144.045 1312.3 144.045ZM1312.3 173.805C1304.61 173.805 1298.35 167.546 1298.35 159.855C1298.35 152.164 1304.61 145.905 1312.3 145.905C1319.99 145.905 1326.25 152.164 1326.25 159.855C1326.25 167.546 1319.99 173.805 1312.3 173.805Z" fill="#67BCAB"/>
<path d="M1316.08 156.084C1316.08 156.596 1316.49 157.014 1317.01 157.014C1317.52 157.014 1317.94 156.596 1317.94 156.084C1317.94 153.497 1315.83 151.39 1313.25 151.387L1313.25 149.955C1313.25 149.439 1312.8 149.014 1312.32 149.025C1311.81 149.025 1311.39 149.439 1311.39 149.955L1311.39 151.387H1311.36C1310.12 151.387 1308.94 151.873 1308.05 152.76C1307.16 153.646 1306.67 154.827 1306.66 156.077C1306.66 157.326 1307.15 158.507 1308.04 159.397C1308.92 160.287 1310.1 160.781 1311.35 160.785H1311.37L1311.36 166.466C1309.79 166.463 1308.52 165.191 1308.52 163.629C1308.52 163.117 1308.1 162.699 1307.59 162.699C1307.08 162.699 1306.66 163.117 1306.66 163.629C1306.66 166.216 1308.77 168.323 1311.35 168.326L1311.35 169.758C1311.35 170.27 1311.76 170.688 1312.28 170.688C1312.79 170.688 1313.21 170.274 1313.21 169.758L1313.21 168.326H1313.23C1315.82 168.326 1317.93 166.223 1317.94 163.637C1317.94 161.046 1315.84 158.932 1313.25 158.928H1313.23L1313.24 153.247C1314.8 153.25 1316.08 154.522 1316.08 156.084ZM1309.35 158.086C1308.81 157.548 1308.52 156.832 1308.52 156.08C1308.52 155.325 1308.82 154.613 1309.36 154.079C1309.9 153.541 1310.61 153.247 1311.36 153.247H1311.38L1311.37 158.925H1311.35C1310.6 158.925 1309.89 158.627 1309.35 158.086L1309.35 158.086ZM1316.08 163.633C1316.07 165.195 1314.8 166.466 1313.23 166.466H1313.22L1313.23 160.788H1313.24C1314.81 160.792 1316.08 162.067 1316.07 163.633L1316.08 163.633Z" fill="#67BCAB"/>
<path d="M1328.04 195.427C1328.03 195.402 1328.02 195.377 1328.01 195.351C1327.97 195.257 1327.91 195.17 1327.84 195.097C1327.84 195.093 1327.84 195.093 1327.84 195.09C1327.78 195.032 1327.71 194.984 1327.64 194.941L1312.76 186.396C1312.48 186.229 1312.12 186.229 1311.84 186.396L1296.96 194.941C1296.88 194.981 1296.82 195.032 1296.76 195.09L1296.76 195.093C1296.69 195.17 1296.63 195.257 1296.59 195.351C1296.58 195.377 1296.56 195.398 1296.55 195.424C1296.52 195.526 1296.49 195.627 1296.49 195.74V214.652C1296.49 214.972 1296.65 215.27 1296.92 215.437L1311.8 224.81C1311.96 224.904 1312.13 224.955 1312.3 224.955C1312.47 224.955 1312.64 224.908 1312.79 224.81L1327.67 215.437C1327.94 215.266 1328.11 214.972 1328.11 214.652V195.74C1328.11 195.631 1328.08 195.526 1328.04 195.424L1328.04 195.427ZM1312.3 188.278L1325.33 195.762L1312.3 203.514L1299.26 195.762L1312.3 188.278ZM1312.3 222.928L1298.35 214.145V197.39L1311.82 205.404C1311.97 205.491 1312.13 205.535 1312.3 205.535C1312.46 205.535 1312.62 205.491 1312.77 205.404L1326.25 197.39V214.145L1312.3 222.928Z" fill="white"/>
<path d="M1291.37 200.913C1290.86 200.913 1290.44 201.327 1290.44 201.843V206.319C1284.22 200.757 1280.68 192.913 1280.68 184.5C1280.68 175.433 1284.78 167.019 1291.95 161.417C1292.35 161.101 1292.42 160.516 1292.11 160.113C1291.79 159.71 1291.21 159.637 1290.8 159.953C1283.19 165.911 1278.82 174.855 1278.82 184.501C1278.82 193.288 1282.46 201.492 1288.86 207.387H1284.9C1284.39 207.387 1283.97 207.801 1283.97 208.317C1283.97 208.833 1284.39 209.247 1284.9 209.247H1291.38C1291.51 209.247 1291.64 209.215 1291.76 209.16C1291.79 209.146 1291.81 209.12 1291.84 209.102C1291.93 209.051 1292.01 208.993 1292.07 208.92C1292.08 208.906 1292.1 208.902 1292.11 208.888C1292.13 208.855 1292.14 208.819 1292.16 208.786C1292.19 208.731 1292.23 208.677 1292.25 208.615C1292.27 208.553 1292.28 208.492 1292.28 208.43C1292.29 208.39 1292.31 208.357 1292.31 208.317V201.844C1292.31 201.328 1291.89 200.914 1291.38 200.914L1291.37 200.913Z" fill="white"/>
<path d="M1335.74 161.613H1339.7C1340.21 161.613 1340.63 161.196 1340.63 160.683C1340.63 160.171 1340.21 159.753 1339.7 159.753H1333.22C1333.2 159.753 1333.19 159.764 1333.17 159.764C1333.11 159.768 1333.04 159.786 1332.98 159.804C1332.92 159.819 1332.87 159.83 1332.82 159.855C1332.77 159.881 1332.72 159.917 1332.67 159.953C1332.62 159.993 1332.57 160.026 1332.53 160.077C1332.52 160.091 1332.5 160.099 1332.49 160.113C1332.46 160.146 1332.46 160.182 1332.44 160.218C1332.41 160.273 1332.38 160.324 1332.35 160.386C1332.33 160.447 1332.33 160.509 1332.32 160.574C1332.31 160.614 1332.3 160.647 1332.3 160.687V167.161C1332.3 167.673 1332.71 168.091 1333.23 168.091C1333.74 168.091 1334.16 167.673 1334.16 167.161V162.685C1340.38 168.247 1343.92 176.09 1343.92 184.504C1343.92 193.571 1339.82 201.985 1332.65 207.586C1332.25 207.902 1332.18 208.487 1332.49 208.894C1332.68 209.127 1332.95 209.25 1333.23 209.25C1333.43 209.25 1333.63 209.185 1333.8 209.054C1341.42 203.096 1345.78 194.152 1345.78 184.507C1345.78 175.719 1342.15 167.515 1335.74 161.62L1335.74 161.613Z" fill="white"/>
<path d="M1131.78 269V254.6H1137.47C1137.61 254.6 1137.77 254.607 1137.97 254.62C1138.16 254.627 1138.35 254.647 1138.53 254.68C1139.31 254.8 1139.96 255.067 1140.49 255.48C1141.02 255.893 1141.42 256.417 1141.69 257.05C1141.95 257.677 1142.09 258.373 1142.09 259.14C1142.09 259.9 1141.95 260.597 1141.68 261.23C1141.41 261.857 1141.01 262.38 1140.48 262.8C1139.95 263.213 1139.3 263.48 1138.53 263.6C1138.35 263.627 1138.16 263.647 1137.97 263.66C1137.77 263.673 1137.61 263.68 1137.47 263.68H1133.56V269H1131.78ZM1133.56 261.99H1137.41C1137.53 261.99 1137.68 261.983 1137.84 261.97C1138 261.957 1138.16 261.933 1138.31 261.9C1138.77 261.793 1139.14 261.6 1139.43 261.32C1139.72 261.033 1139.93 260.7 1140.07 260.32C1140.2 259.933 1140.27 259.54 1140.27 259.14C1140.27 258.74 1140.2 258.35 1140.07 257.97C1139.93 257.583 1139.72 257.247 1139.43 256.96C1139.14 256.673 1138.77 256.48 1138.31 256.38C1138.16 256.34 1138 256.317 1137.84 256.31C1137.68 256.297 1137.53 256.29 1137.41 256.29H1133.56V261.99ZM1148.18 269.28C1147.49 269.28 1146.89 269.17 1146.39 268.95C1145.9 268.73 1145.49 268.437 1145.16 268.07C1144.84 267.703 1144.58 267.297 1144.39 266.85C1144.21 266.403 1144.07 265.947 1143.99 265.48C1143.92 265.013 1143.88 264.577 1143.88 264.17V258.2H1145.68V263.61C1145.68 264.117 1145.73 264.607 1145.82 265.08C1145.92 265.553 1146.07 265.98 1146.29 266.36C1146.52 266.74 1146.82 267.04 1147.19 267.26C1147.57 267.48 1148.05 267.59 1148.61 267.59C1149.06 267.59 1149.47 267.513 1149.83 267.36C1150.2 267.207 1150.51 266.98 1150.77 266.68C1151.03 266.373 1151.23 265.987 1151.37 265.52C1151.51 265.053 1151.58 264.51 1151.58 263.89L1152.75 264.25C1152.75 265.29 1152.56 266.187 1152.18 266.94C1151.81 267.693 1151.28 268.273 1150.59 268.68C1149.91 269.08 1149.11 269.28 1148.18 269.28ZM1151.78 269V266.11H1151.58V258.2H1153.37V269H1151.78ZM1156.17 269V258.2H1157.76V260.81L1157.5 260.47C1157.63 260.137 1157.79 259.83 1157.99 259.55C1158.2 259.27 1158.43 259.04 1158.68 258.86C1158.96 258.633 1159.28 258.46 1159.63 258.34C1159.99 258.22 1160.35 258.15 1160.71 258.13C1161.08 258.103 1161.42 258.127 1161.74 258.2V259.87C1161.37 259.77 1160.96 259.743 1160.51 259.79C1160.07 259.837 1159.65 260 1159.27 260.28C1158.93 260.527 1158.66 260.827 1158.46 261.18C1158.28 261.533 1158.15 261.917 1158.07 262.33C1158 262.737 1157.96 263.153 1157.96 263.58V269H1156.17ZM1167.99 269.3C1166.89 269.3 1165.96 269.057 1165.2 268.57C1164.44 268.077 1163.86 267.4 1163.46 266.54C1163.06 265.68 1162.85 264.7 1162.84 263.6C1162.85 262.473 1163.06 261.483 1163.47 260.63C1163.88 259.77 1164.47 259.1 1165.24 258.62C1166 258.14 1166.93 257.9 1168.01 257.9C1169.15 257.9 1170.13 258.18 1170.95 258.74C1171.77 259.3 1172.33 260.067 1172.61 261.04L1170.85 261.57C1170.62 260.943 1170.25 260.457 1169.74 260.11C1169.23 259.763 1168.65 259.59 1167.99 259.59C1167.25 259.59 1166.64 259.763 1166.16 260.11C1165.68 260.45 1165.32 260.923 1165.09 261.53C1164.85 262.13 1164.73 262.82 1164.73 263.6C1164.74 264.8 1165.02 265.77 1165.56 266.51C1166.1 267.243 1166.91 267.61 1167.99 267.61C1168.69 267.61 1169.28 267.45 1169.75 267.13C1170.21 266.803 1170.57 266.333 1170.81 265.72L1172.61 266.19C1172.23 267.197 1171.65 267.967 1170.86 268.5C1170.06 269.033 1169.11 269.3 1167.99 269.3ZM1182.34 269V263.59C1182.34 263.077 1182.29 262.583 1182.2 262.11C1182.11 261.637 1181.96 261.213 1181.73 260.84C1181.51 260.46 1181.21 260.16 1180.83 259.94C1180.46 259.72 1179.98 259.61 1179.41 259.61C1178.96 259.61 1178.56 259.687 1178.19 259.84C1177.83 259.987 1177.52 260.213 1177.26 260.52C1177 260.827 1176.8 261.213 1176.65 261.68C1176.51 262.14 1176.44 262.683 1176.44 263.31L1175.27 262.95C1175.27 261.903 1175.46 261.007 1175.83 260.26C1176.21 259.507 1176.74 258.93 1177.42 258.53C1178.11 258.123 1178.91 257.92 1179.84 257.92C1180.54 257.92 1181.14 258.03 1181.63 258.25C1182.12 258.47 1182.53 258.763 1182.86 259.13C1183.19 259.49 1183.44 259.897 1183.63 260.35C1183.82 260.797 1183.95 261.253 1184.02 261.72C1184.1 262.18 1184.14 262.617 1184.14 263.03V269H1182.34ZM1174.64 269V254.6H1176.24V262.55H1176.44V269H1174.64ZM1189.81 269.3C1189 269.3 1188.33 269.153 1187.78 268.86C1187.24 268.56 1186.83 268.167 1186.55 267.68C1186.28 267.193 1186.14 266.66 1186.14 266.08C1186.14 265.513 1186.25 265.023 1186.46 264.61C1186.68 264.19 1186.99 263.843 1187.38 263.57C1187.77 263.29 1188.24 263.07 1188.79 262.91C1189.3 262.77 1189.88 262.65 1190.51 262.55C1191.15 262.443 1191.8 262.347 1192.45 262.26C1193.1 262.173 1193.71 262.09 1194.28 262.01L1193.64 262.38C1193.66 261.42 1193.47 260.71 1193.06 260.25C1192.66 259.79 1191.97 259.56 1190.98 259.56C1190.33 259.56 1189.75 259.71 1189.26 260.01C1188.77 260.303 1188.43 260.783 1188.23 261.45L1186.54 260.94C1186.8 259.993 1187.3 259.25 1188.05 258.71C1188.8 258.17 1189.78 257.9 1191 257.9C1191.98 257.9 1192.82 258.077 1193.52 258.43C1194.23 258.777 1194.73 259.303 1195.04 260.01C1195.19 260.343 1195.29 260.707 1195.33 261.1C1195.37 261.487 1195.39 261.893 1195.39 262.32V269H1193.81V266.41L1194.18 266.65C1193.77 267.523 1193.2 268.183 1192.47 268.63C1191.74 269.077 1190.86 269.3 1189.81 269.3ZM1190.08 267.81C1190.72 267.81 1191.27 267.697 1191.74 267.47C1192.21 267.237 1192.59 266.933 1192.88 266.56C1193.17 266.18 1193.35 265.767 1193.44 265.32C1193.54 264.987 1193.59 264.617 1193.6 264.21C1193.61 263.797 1193.62 263.48 1193.62 263.26L1194.24 263.53C1193.66 263.61 1193.09 263.687 1192.53 263.76C1191.97 263.833 1191.44 263.913 1190.94 264C1190.44 264.08 1189.99 264.177 1189.59 264.29C1189.3 264.383 1189.02 264.503 1188.76 264.65C1188.51 264.797 1188.3 264.987 1188.14 265.22C1187.99 265.447 1187.91 265.73 1187.91 266.07C1187.91 266.363 1187.98 266.643 1188.13 266.91C1188.28 267.177 1188.52 267.393 1188.83 267.56C1189.15 267.727 1189.57 267.81 1190.08 267.81ZM1202.07 269.29C1200.78 269.29 1199.73 269.01 1198.9 268.45C1198.08 267.883 1197.58 267.093 1197.39 266.08L1199.21 265.79C1199.36 266.377 1199.69 266.843 1200.22 267.19C1200.75 267.53 1201.4 267.7 1202.18 267.7C1202.92 267.7 1203.5 267.547 1203.92 267.24C1204.34 266.933 1204.55 266.517 1204.55 265.99C1204.55 265.683 1204.48 265.437 1204.34 265.25C1204.2 265.057 1203.91 264.877 1203.47 264.71C1203.04 264.543 1202.38 264.343 1201.5 264.11C1200.55 263.857 1199.8 263.593 1199.25 263.32C1198.7 263.047 1198.31 262.73 1198.08 262.37C1197.85 262.01 1197.73 261.573 1197.73 261.06C1197.73 260.427 1197.9 259.873 1198.25 259.4C1198.6 258.92 1199.08 258.55 1199.7 258.29C1200.33 258.03 1201.05 257.9 1201.88 257.9C1202.7 257.9 1203.43 258.03 1204.08 258.29C1204.73 258.55 1205.25 258.92 1205.64 259.4C1206.04 259.873 1206.28 260.427 1206.35 261.06L1204.53 261.39C1204.44 260.81 1204.16 260.353 1203.69 260.02C1203.22 259.687 1202.62 259.51 1201.88 259.49C1201.18 259.463 1200.61 259.587 1200.17 259.86C1199.74 260.133 1199.52 260.503 1199.52 260.97C1199.52 261.23 1199.6 261.453 1199.76 261.64C1199.93 261.827 1200.23 262.003 1200.67 262.17C1201.12 262.337 1201.76 262.527 1202.61 262.74C1203.56 262.98 1204.31 263.243 1204.86 263.53C1205.41 263.81 1205.81 264.143 1206.04 264.53C1206.27 264.91 1206.39 265.38 1206.39 265.94C1206.39 266.98 1206.01 267.8 1205.24 268.4C1204.47 268.993 1203.42 269.29 1202.07 269.29ZM1213.27 269.3C1212.21 269.3 1211.29 269.067 1210.49 268.6C1209.71 268.127 1209.09 267.47 1208.65 266.63C1208.21 265.783 1207.99 264.797 1207.99 263.67C1207.99 262.49 1208.21 261.47 1208.64 260.61C1209.08 259.743 1209.68 259.077 1210.45 258.61C1211.23 258.137 1212.15 257.9 1213.19 257.9C1214.28 257.9 1215.2 258.15 1215.96 258.65C1216.73 259.15 1217.3 259.863 1217.68 260.79C1218.07 261.717 1218.24 262.82 1218.18 264.1H1216.38V263.46C1216.36 262.133 1216.09 261.143 1215.57 260.49C1215.05 259.83 1214.28 259.5 1213.25 259.5C1212.15 259.5 1211.32 259.853 1210.74 260.56C1210.17 261.267 1209.88 262.28 1209.88 263.6C1209.88 264.873 1210.17 265.86 1210.74 266.56C1211.32 267.26 1212.13 267.61 1213.19 267.61C1213.91 267.61 1214.53 267.447 1215.05 267.12C1215.58 266.793 1215.99 266.323 1216.29 265.71L1218 266.3C1217.58 267.253 1216.95 267.993 1216.1 268.52C1215.26 269.04 1214.32 269.3 1213.27 269.3ZM1209.28 264.1V262.67H1217.26V264.1H1209.28ZM1230.33 269.3C1228.9 269.3 1227.68 268.983 1226.68 268.35C1225.68 267.717 1224.92 266.837 1224.39 265.71C1223.87 264.583 1223.61 263.28 1223.61 261.8C1223.61 260.32 1223.87 259.017 1224.39 257.89C1224.92 256.763 1225.68 255.883 1226.68 255.25C1227.68 254.617 1228.9 254.3 1230.33 254.3C1231.77 254.3 1232.99 254.617 1233.99 255.25C1234.99 255.883 1235.75 256.763 1236.27 257.89C1236.79 259.017 1237.05 260.32 1237.05 261.8C1237.05 263.28 1236.79 264.583 1236.27 265.71C1235.75 266.837 1234.99 267.717 1233.99 268.35C1232.99 268.983 1231.77 269.3 1230.33 269.3ZM1230.33 267.6C1231.41 267.607 1232.3 267.367 1233.01 266.88C1233.73 266.387 1234.27 265.703 1234.62 264.83C1234.98 263.957 1235.16 262.947 1235.16 261.8C1235.16 260.647 1234.98 259.637 1234.62 258.77C1234.27 257.903 1233.73 257.227 1233.01 256.74C1232.3 256.253 1231.41 256.007 1230.33 256C1229.26 255.993 1228.37 256.233 1227.65 256.72C1226.95 257.207 1226.41 257.887 1226.05 258.76C1225.69 259.633 1225.51 260.647 1225.5 261.8C1225.5 262.947 1225.67 263.953 1226.03 264.82C1226.39 265.687 1226.93 266.367 1227.64 266.86C1228.36 267.347 1229.26 267.593 1230.33 267.6ZM1239.06 269V258.2H1240.65V260.81L1240.39 260.47C1240.52 260.137 1240.68 259.83 1240.88 259.55C1241.09 259.27 1241.32 259.04 1241.57 258.86C1241.85 258.633 1242.17 258.46 1242.52 258.34C1242.88 258.22 1243.24 258.15 1243.6 258.13C1243.97 258.103 1244.31 258.127 1244.63 258.2V259.87C1244.26 259.77 1243.85 259.743 1243.4 259.79C1242.96 259.837 1242.54 260 1242.16 260.28C1241.82 260.527 1241.55 260.827 1241.35 261.18C1241.17 261.533 1241.04 261.917 1240.96 262.33C1240.89 262.737 1240.85 263.153 1240.85 263.58V269H1239.06ZM1250.57 269.3C1249.56 269.3 1248.7 269.05 1247.98 268.55C1247.26 268.043 1246.7 267.36 1246.31 266.5C1245.92 265.64 1245.73 264.67 1245.73 263.59C1245.73 262.51 1245.92 261.54 1246.31 260.68C1246.7 259.82 1247.26 259.143 1247.98 258.65C1248.7 258.15 1249.56 257.9 1250.56 257.9C1251.58 257.9 1252.44 258.147 1253.13 258.64C1253.82 259.133 1254.35 259.81 1254.7 260.67C1255.06 261.53 1255.24 262.503 1255.24 263.59C1255.24 264.663 1255.06 265.633 1254.7 266.5C1254.35 267.36 1253.82 268.043 1253.13 268.55C1252.44 269.05 1251.58 269.3 1250.57 269.3ZM1250.79 267.67C1251.52 267.67 1252.11 267.497 1252.58 267.15C1253.05 266.797 1253.39 266.313 1253.61 265.7C1253.84 265.08 1253.95 264.377 1253.95 263.59C1253.95 262.79 1253.84 262.087 1253.61 261.48C1253.39 260.867 1253.05 260.39 1252.59 260.05C1252.13 259.703 1251.55 259.53 1250.84 259.53C1250.11 259.53 1249.5 259.71 1249.02 260.07C1248.55 260.43 1248.19 260.917 1247.96 261.53C1247.73 262.143 1247.62 262.83 1247.62 263.59C1247.62 264.357 1247.74 265.05 1247.97 265.67C1248.2 266.283 1248.55 266.77 1249.02 267.13C1249.49 267.49 1250.08 267.67 1250.79 267.67ZM1253.95 269V261.05H1253.75V254.6H1255.54V269H1253.95ZM1263.02 269.3C1261.96 269.3 1261.03 269.067 1260.24 268.6C1259.45 268.127 1258.84 267.47 1258.4 266.63C1257.96 265.783 1257.74 264.797 1257.74 263.67C1257.74 262.49 1257.96 261.47 1258.39 260.61C1258.82 259.743 1259.43 259.077 1260.2 258.61C1260.98 258.137 1261.89 257.9 1262.94 257.9C1264.03 257.9 1264.95 258.15 1265.71 258.65C1266.48 259.15 1267.05 259.863 1267.43 260.79C1267.82 261.717 1267.98 262.82 1267.93 264.1H1266.13V263.46C1266.11 262.133 1265.84 261.143 1265.32 260.49C1264.8 259.83 1264.03 259.5 1263 259.5C1261.9 259.5 1261.06 259.853 1260.49 260.56C1259.92 261.267 1259.63 262.28 1259.63 263.6C1259.63 264.873 1259.92 265.86 1260.49 266.56C1261.06 267.26 1261.88 267.61 1262.94 267.61C1263.65 267.61 1264.27 267.447 1264.8 267.12C1265.33 266.793 1265.74 266.323 1266.04 265.71L1267.75 266.3C1267.33 267.253 1266.7 267.993 1265.85 268.52C1265.01 269.04 1264.07 269.3 1263.02 269.3ZM1259.03 264.1V262.67H1267.01V264.1H1259.03ZM1270.16 269V258.2H1271.75V260.81L1271.49 260.47C1271.61 260.137 1271.78 259.83 1271.98 259.55C1272.18 259.27 1272.41 259.04 1272.67 258.86C1272.95 258.633 1273.26 258.46 1273.62 258.34C1273.97 258.22 1274.33 258.15 1274.7 258.13C1275.06 258.103 1275.41 258.127 1275.73 258.2V259.87C1275.35 259.77 1274.94 259.743 1274.5 259.79C1274.05 259.837 1273.64 260 1273.26 260.28C1272.91 260.527 1272.64 260.827 1272.45 261.18C1272.26 261.533 1272.13 261.917 1272.06 262.33C1271.98 262.737 1271.95 263.153 1271.95 263.58V269H1270.16Z" fill="white"/>
<path d="M100 344L462.21 344" stroke="white" stroke-width="3"/>
<path d="M1357.06 345.061C1357.65 344.475 1357.65 343.525 1357.06 342.939L1347.51 333.394C1346.93 332.808 1345.98 332.808 1345.39 333.394C1344.81 333.979 1344.81 334.929 1345.39 335.515L1353.88 344L1345.39 352.485C1344.81 353.071 1344.81 354.021 1345.39 354.607C1345.98 355.192 1346.93 355.192 1347.51 354.607L1357.06 345.061ZM100 345.5L1356 345.5L1356 342.5L100 342.5L100 345.5Z" fill="white"/>
<line x1="101.5" y1="319" x2="101.5" y2="370" stroke="white" stroke-width="3"/>
</svg>
