<svg version="1.2" xmlns="http://www.w3.org/2000/svg" viewBox="0 0 264 1499" width="264" height="1499">
	<title>process-flow-responsive-svg</title>
	<defs>
		<clipPath clipPathUnits="userSpaceOnUse" id="cp1">
			<path d="m4.93 72h88.62v88.62h-88.62z"/>
		</clipPath>
		<clipPath clipPathUnits="userSpaceOnUse" id="cp2">
			<path d="m25.76 101.69h47.85v54.32h-47.85z"/>
		</clipPath>
		<clipPath clipPathUnits="userSpaceOnUse" id="cp3">
			<path d="m0.5 230.8h88.62v88.61h-88.62z"/>
		</clipPath>
		<clipPath clipPathUnits="userSpaceOnUse" id="cp4">
			<path d="m4.93 564.39h88.62v88.61h-88.62z"/>
		</clipPath>
		<clipPath clipPathUnits="userSpaceOnUse" id="cp5">
			<path d="m25.76 594.07h47.85v54.32h-47.85z"/>
		</clipPath>
		<clipPath clipPathUnits="userSpaceOnUse" id="cp6">
			<path d="m0.5 723.18h88.62v88.62h-88.62z"/>
		</clipPath>
		<clipPath clipPathUnits="userSpaceOnUse" id="cp7">
			<path d="m4.93 1056.77h88.62v88.62h-88.62z"/>
		</clipPath>
		<clipPath clipPathUnits="userSpaceOnUse" id="cp8">
			<path d="m25.76 1086.46h47.85v54.32h-47.85z"/>
		</clipPath>
		<clipPath clipPathUnits="userSpaceOnUse" id="cp9">
			<path d="m0.5 1215.57h88.62v88.62h-88.62z"/>
		</clipPath>
		<clipPath clipPathUnits="userSpaceOnUse" id="cp10">
			<path d="m171.69 72h88.62v88.62h-88.62z"/>
		</clipPath>
		<clipPath clipPathUnits="userSpaceOnUse" id="cp11">
			<path d="m171.69 174.79h88.62v88.62h-88.62z"/>
		</clipPath>
		<clipPath clipPathUnits="userSpaceOnUse" id="cp12">
			<path d="m171.69 277.59h88.62v88.62h-88.62z"/>
		</clipPath>
		<clipPath clipPathUnits="userSpaceOnUse" id="cp13">
			<path d="m171.69 380.39h88.62v88.61h-88.62z"/>
		</clipPath>
		<clipPath clipPathUnits="userSpaceOnUse" id="cp14">
			<path d="m167.5 570.08h88.62v88.61h-88.62z"/>
		</clipPath>
		<clipPath clipPathUnits="userSpaceOnUse" id="cp15">
			<path d="m167.5 672.87h88.62v88.62h-88.62z"/>
		</clipPath>
		<clipPath clipPathUnits="userSpaceOnUse" id="cp16">
			<path d="m167.5 775.67h88.62v88.61h-88.62z"/>
		</clipPath>
		<clipPath clipPathUnits="userSpaceOnUse" id="cp17">
			<path d="m167.5 878.46h88.62v88.62h-88.62z"/>
		</clipPath>
	</defs>
	<style>
		.s0 { fill: #ffffff } 
		.s1 { fill: none;stroke: #00dafd;stroke-width: 2.7 } 
		.s2 { fill: #9ba4e9 } 
		.s3 { fill: #67bcab } 
		.s4 { fill: none;stroke: #ffffff;stroke-width: 3 } 
		.s5 { fill: #1e1e1e } 
		.s6 { fill: #00dafd } 
		.s7 { fill: none;stroke: #9ba4e9;stroke-width: 2.3 } 
	</style>
	<path id="Layer" fill-rule="evenodd" class="s0" d="m65.7 18l-5-17.3h3l3.5 12.5 3.4-12.5h3l3.5 12.5 3.4-12.5h3.1l-5.1 17.3h-2.8l-3.6-12.3-3.5 12.3zm19.5-14.9v-2.7h2.9v2.7zm0 14.9v-13h2.9v13zm14.1 0q-1.3 0.2-2.5 0.2-1.2 0-2.2-0.4-1-0.5-1.5-1.4-0.4-0.8-0.5-1.7 0-0.9 0-2v-5.4h-2.3v-2.3h2.3v-3.6h2.9v3.6h3.8v2.3h-3.8v5.2q0 0.8 0 1.4 0 0.6 0.3 1 0.4 0.7 1.3 0.8 1 0.1 2.2-0.1zm11.8 0v-6.3q0-0.6-0.1-1.3-0.1-0.8-0.4-1.4-0.3-0.7-0.9-1.2-0.6-0.4-1.7-0.4-0.5 0-1.1 0.1-0.5 0.2-0.9 0.7-0.5 0.4-0.7 1.2-0.3 0.7-0.3 1.9v6.7h-2.9v-17.3h2.6v5.8q0.4-0.6 1.1-1.1 1.3-0.8 3.1-0.8 1.4 0 2.4 0.5 0.9 0.5 1.5 1.2 0.5 0.8 0.8 1.6 0.2 0.9 0.3 1.6 0.1 0.8 0.1 1.2v7.3zm-100.9 29.3q-2.6 0-4.4-1.1-1.9-1.1-2.9-3.2-0.9-2-0.9-4.7 0-2.6 0.9-4.7 1-2 2.9-3.1 1.8-1.2 4.4-1.2 3 0 5 1.5 2 1.5 2.8 4.1l-2.9 0.8q-0.5-1.7-1.7-2.7-1.2-0.9-3.2-0.9-1.7 0-2.9 0.7-1.1 0.8-1.7 2.2-0.6 1.4-0.6 3.3 0 1.9 0.6 3.3 0.6 1.5 1.7 2.2 1.2 0.8 2.9 0.8 2 0 3.2-0.9 1.2-1 1.7-2.7l2.9 0.8q-0.8 2.5-2.8 4-2 1.5-5 1.5zm10.4-0.3v-13h2.6v2.1q0.1-0.3 0.3-0.5 0.4-0.6 1-0.9 0.5-0.3 1-0.5 0.6-0.2 1.2-0.2 0.7-0.1 1.2 0v2.7q-0.5-0.2-1.3-0.1-0.7 0.1-1.3 0.4-0.6 0.4-1 0.9-0.4 0.5-0.6 1.1-0.2 0.6-0.2 1.4v6.6zm2.6-10.9q-0.2 0.3-0.3 0.7l0.3 0.4zm12.7 11.2q-2 0-3.5-0.8-1.5-0.9-2.3-2.4-0.8-1.5-0.8-3.5 0-2.1 0.8-3.7 0.8-1.5 2.3-2.4 1.4-0.9 3.3-0.9 2 0 3.4 1 1.4 0.9 2.1 2.6 0.7 1.8 0.5 4.1h-1.4v-2.2h-1.5q-0.1-1.3-0.7-2-0.7-0.9-2.3-0.9-1.7 0-2.6 1.1-0.6 0.7-0.8 1.8h-1v2.2h1q0.1 1.4 0.8 2.2 0.9 1.1 2.5 1.1 1.1 0 1.8-0.5 0.8-0.4 1.2-1.3l2.9 0.8q-0.7 1.8-2.3 2.7-1.5 1-3.4 1zm3-6h-6.5q-0.1-0.4-0.1-0.8 0-0.8 0.1-1.4h6.4q0.1 0.5 0.1 1.1zm8.9 6.1q-1.4 0-2.4-0.6-0.9-0.5-1.4-1.4-0.5-0.9-0.5-1.9 0-1 0.3-1.7 0.3-0.8 0.9-1.3 0.7-0.6 1.7-0.9 0.8-0.3 1.8-0.5 1.1-0.2 2.3-0.4 0.8-0.1 1.6-0.2-0.1-1-0.6-1.5-0.6-0.7-2.1-0.7-0.9 0-1.7 0.4-0.8 0.5-1.1 1.4l-2.7-0.8q0.5-1.6 1.9-2.6 1.3-1 3.6-1 1.7 0 3 0.5 1.4 0.6 2 1.9 0.4 0.7 0.4 1.4 0.1 0.7 0.1 1.5v8h-2.5v-1.7q-0.8 0.9-1.7 1.4-1.1 0.7-2.9 0.7zm4.3-8.9q0 0.2 0 0.5l1-0.6q-0.5 0-1 0.1zm0.3 6.8q0.2-0.3 0.4-0.6l-0.4-0.5zm-4-0.2q1 0 1.7-0.4 0.7-0.3 1.1-0.8 0.4-0.5 0.5-1 0.3-0.5 0.3-1.2 0-0.4 0-0.8-0.7 0.2-1.3 0.2-1 0.2-1.6 0.3-0.7 0.2-1.2 0.3-0.5 0.2-0.9 0.5-0.3 0.2-0.5 0.5-0.2 0.3-0.2 0.8 0 0.4 0.2 0.8 0.3 0.4 0.7 0.6 0.5 0.2 1.2 0.2zm3.6-4.2q0.4 0 0.9-0.1l-0.9-0.3q0 0.2 0 0.4zm13.6 6.1q-1.3 0.3-2.5 0.2-1.2 0-2.2-0.4-1-0.4-1.5-1.4-0.4-0.8-0.4-1.7-0.1-0.8-0.1-2v-5.4h-2.3v-2.2h2.3v-3.6h2.9v3.6h3.8v2.2h-3.8v5.3q0 0.8 0 1.3 0 0.6 0.3 1 0.4 0.7 1.4 0.8 0.9 0.1 2.1-0.1zm8 0.4q-1.9 0-3.4-0.9-1.5-0.8-2.3-2.3-0.9-1.6-0.9-3.5 0-2.1 0.8-3.7 0.9-1.6 2.3-2.4 1.5-0.9 3.4-0.9 2 0 3.4 0.9 1.4 1 2.1 2.7 0.7 1.7 0.5 4h-1.4v-2.1h-1.5q-0.2-1.3-0.7-2-0.7-1-2.3-1-1.8 0-2.7 1.1-0.5 0.7-0.7 1.9h-1v2.1h0.9q0.2 1.4 0.8 2.3 0.9 1.1 2.6 1.1 1 0 1.8-0.5 0.8-0.5 1.2-1.4l2.9 0.9q-0.8 1.7-2.3 2.7-1.6 1-3.5 1zm3-6.1h-6.5q0-0.3 0-0.8 0-0.7 0.1-1.3h6.4q0 0.5 0 1.1zm5.6 5.7v-17.3h2.6l6 12.2 5.9-12.2h2.6v17.3h-2.7v-11.1l-5.3 11.1h-1.1l-5.3-11.1v11.1zm26.4 0.3q-1.9 0-3.4-0.8-1.5-0.9-2.4-2.4-0.8-1.5-0.8-3.5 0-2.1 0.8-3.7 0.8-1.5 2.3-2.4 1.4-0.9 3.4-0.9 2 0 3.4 1 1.4 0.9 2.1 2.6 0.7 1.8 0.5 4.1h-1.4v-2.2h-1.5q-0.2-1.3-0.7-2-0.8-0.9-2.3-0.9-1.8 0-2.7 1.1-0.5 0.7-0.7 1.8h-1v2.2h0.9q0.2 1.4 0.8 2.2 0.9 1.1 2.6 1.1 1 0 1.8-0.5 0.8-0.4 1.2-1.3l2.8 0.8q-0.7 1.8-2.3 2.7-1.5 1-3.4 1zm3-7.1q0-0.6 0-1.1h-6.4q-0.1 0.6-0.1 1.4 0 0.4 0 0.8h6.5z"/>
	<path id="Layer" fill-rule="evenodd" class="s0" d="m174.5 18l-5-17.3h3l3.4 12.5 3.5-12.5h3l3.4 12.5 3.5-12.5h3l-5 17.3h-2.9l-3.5-12.3-3.5 12.3zm19.5-14.9v-2.7h2.9v2.7zm0 14.9v-13h2.9v13zm14.1 0q-1.3 0.2-2.6 0.2-1.2 0-2.1-0.4-1-0.5-1.5-1.4-0.5-0.8-0.5-1.7 0-0.9 0-2v-5.4h-2.4v-2.3h2.4v-3.6h2.9v3.6h3.8v2.3h-3.8v5.2q0 0.8 0 1.4 0 0.6 0.2 1 0.5 0.7 1.4 0.8 1 0.1 2.2-0.1zm11.7 0v-6.3q0-0.6-0.1-1.3 0-0.8-0.4-1.4-0.3-0.7-0.9-1.2-0.6-0.4-1.6-0.4-0.6 0-1.1 0.1-0.5 0.2-1 0.7-0.4 0.4-0.7 1.2-0.2 0.7-0.2 1.9v6.7h-3v-17.3h2.6v5.8q0.5-0.6 1.2-1.1 1.2-0.8 3-0.8 1.5 0 2.4 0.5 1 0.5 1.5 1.2 0.6 0.8 0.8 1.6 0.3 0.9 0.4 1.6 0 0.8 0 1.2v7.3zm11.8 0.3q-1.9 0-3.4-0.8-1.4-0.9-2.2-2.5-0.8-1.5-0.8-3.5 0-2 0.8-3.6 0.8-1.5 2.3-2.4 1.4-0.8 3.3-0.8 2 0 3.4 0.8 1.5 0.9 2.3 2.5 0.8 1.5 0.8 3.5 0 2-0.8 3.6-0.8 1.5-2.3 2.4-1.4 0.8-3.4 0.8zm0-2.7q1.8 0 2.6-1.1 0.8-1.2 0.8-3 0-1.9-0.8-3-0.9-1.1-2.6-1.1-1.1 0-1.9 0.5-0.7 0.5-1.1 1.4-0.4 1-0.4 2.2 0 1.9 0.9 3 0.9 1.1 2.5 1.1zm14 2.7q-1.4 0-2.4-0.4-0.9-0.5-1.5-1.3-0.5-0.7-0.8-1.5-0.2-0.9-0.3-1.6-0.1-0.8-0.1-1.2v-7.3h2.9v6.3q0 0.6 0.1 1.3 0.1 0.8 0.4 1.5 0.3 0.6 0.9 1.1 0.6 0.4 1.7 0.4 0.5 0 1-0.2 0.6-0.1 1-0.6 0.5-0.4 0.7-1.2 0.3-0.7 0.3-1.9v-6.7h2.9v13h-2.6v-1.5q-0.5 0.6-1.1 1.1-1.3 0.7-3.1 0.7zm17.8-0.3q-1.3 0.2-2.6 0.2-1.2 0-2.2-0.5-0.9-0.4-1.4-1.3-0.5-0.9-0.5-1.7 0-0.9 0-2v-5.4h-2.4v-2.3h2.4v-3.6h2.9v3.6h3.8v2.3h-3.8v5.2q0 0.8 0 1.4 0 0.6 0.2 0.9 0.5 0.8 1.4 0.8 0.9 0.1 2.2 0zm-104.2 29.3q-2.6 0-4.4-1.1-1.9-1.2-2.9-3.2-0.9-2-0.9-4.7 0-2.7 0.9-4.7 1-2 2.9-3.1 1.8-1.2 4.4-1.2 3 0 5 1.5 2 1.5 2.8 4l-2.9 0.8q-0.5-1.7-1.7-2.6-1.2-1-3.2-1-1.7 0-2.9 0.8-1.1 0.8-1.7 2.2-0.6 1.4-0.6 3.3 0 1.9 0.6 3.3 0.6 1.4 1.7 2.2 1.2 0.8 2.9 0.8 2 0 3.2-1 1.2-0.9 1.7-2.6l2.9 0.8q-0.8 2.5-2.8 4-2 1.5-5 1.5zm10.4-0.3v-13h2.6v2.1q0.1-0.3 0.3-0.5 0.4-0.6 1-0.9 0.5-0.3 1-0.5 0.6-0.2 1.2-0.3 0.7 0 1.2 0.1v2.7q-0.5-0.2-1.3-0.1-0.7 0-1.3 0.4-0.6 0.3-1 0.8-0.4 0.5-0.6 1.2-0.2 0.6-0.2 1.4v6.6zm2.6-10.9q-0.2 0.3-0.3 0.6l0.3 0.4zm12.7 11.3q-2 0-3.5-0.9-1.5-0.8-2.3-2.3-0.8-1.5-0.8-3.5 0-2.1 0.8-3.7 0.8-1.6 2.3-2.4 1.4-0.9 3.3-0.9 2 0 3.4 1 1.4 0.9 2.1 2.6 0.7 1.7 0.5 4.1h-1.4v-2.2h-1.5q-0.1-1.3-0.7-2-0.7-1-2.3-1-1.7 0-2.6 1.2-0.6 0.7-0.8 1.8h-1v2.2h1q0.1 1.4 0.8 2.2 0.9 1.1 2.5 1.1 1.1 0 1.8-0.5 0.8-0.5 1.2-1.4l2.9 0.9q-0.7 1.8-2.3 2.7-1.5 1-3.4 1zm3-6h-6.5q-0.1-0.4-0.1-0.8 0-0.8 0.1-1.4h6.4q0.1 0.5 0.1 1.1zm8.9 6q-1.4 0-2.4-0.5-0.9-0.5-1.4-1.4-0.5-0.9-0.5-2 0-0.9 0.3-1.7 0.3-0.7 0.9-1.2 0.7-0.6 1.7-0.9 0.8-0.3 1.8-0.5 1.1-0.2 2.3-0.4 0.8-0.1 1.6-0.2-0.1-1-0.6-1.6-0.6-0.6-2.1-0.6-0.9 0-1.7 0.4-0.8 0.4-1.1 1.4l-2.7-0.8q0.5-1.6 1.9-2.6 1.3-1 3.6-1 1.7 0 3 0.5 1.4 0.6 2 1.9 0.4 0.7 0.4 1.4 0.1 0.7 0.1 1.5v8h-2.5v-1.8q-0.8 1-1.7 1.5-1.1 0.6-2.9 0.6zm4.3-8.8q0 0.2 0 0.4l1-0.6q-0.5 0.1-1 0.2zm0.3 6.7q0.2-0.2 0.4-0.6l-0.4-0.4zm-4-0.2q1 0 1.7-0.4 0.7-0.3 1.1-0.8 0.4-0.5 0.5-1 0.3-0.5 0.3-1.2 0-0.5 0-0.8-0.7 0.1-1.3 0.2-1 0.2-1.6 0.3-0.7 0.2-1.2 0.3-0.5 0.2-0.9 0.4-0.3 0.3-0.5 0.6-0.2 0.3-0.2 0.7 0 0.5 0.2 0.9 0.3 0.3 0.7 0.6 0.5 0.2 1.2 0.2zm3.6-4.2q0.4-0.1 0.9-0.1l-0.9-0.3q0 0.2 0 0.4zm13.6 6.1q-1.3 0.3-2.5 0.2-1.2 0-2.2-0.4-1-0.5-1.5-1.4-0.4-0.8-0.4-1.7-0.1-0.9-0.1-2v-5.4h-2.3v-2.2h2.3v-3.6h2.9v3.6h3.8v2.2h-3.8v5.3q0 0.7 0 1.3 0 0.6 0.3 1 0.4 0.7 1.4 0.8 0.9 0.1 2.1-0.1zm8 0.4q-1.9 0-3.4-0.9-1.5-0.9-2.3-2.4-0.9-1.5-0.9-3.4 0-2.2 0.8-3.7 0.9-1.6 2.3-2.5 1.5-0.8 3.4-0.8 2 0 3.4 0.9 1.4 1 2.1 2.7 0.7 1.7 0.5 4h-1.4v-2.2h-1.5q-0.2-1.2-0.7-1.9-0.7-1-2.3-1-1.8 0-2.6 1.1-0.6 0.7-0.8 1.8h-1v2.2h0.9q0.2 1.4 0.9 2.3 0.8 1 2.5 1 1 0 1.8-0.4 0.8-0.5 1.2-1.4l2.9 0.9q-0.8 1.7-2.3 2.7-1.6 1-3.5 1zm3-6.1h-6.5q0-0.4 0-0.8 0-0.7 0.1-1.4h6.4q0 0.6 0 1.2zm5.6 5.6v-17.2h2.6l6 12.2 5.9-12.2h2.6v17.2h-2.7v-11l-5.3 11h-1.1l-5.3-11v11zm26.4 0.4q-1.9 0-3.4-0.9-1.5-0.8-2.4-2.3-0.8-1.5-0.8-3.5 0-2.1 0.8-3.7 0.8-1.6 2.3-2.4 1.4-0.9 3.4-0.9 2 0 3.4 1 1.4 0.9 2.1 2.6 0.7 1.7 0.5 4.1h-1.4v-2.2h-1.5q-0.2-1.3-0.7-2-0.8-1-2.3-1-1.8 0-2.7 1.2-0.5 0.7-0.7 1.8h-1v2.2h0.9q0.2 1.4 0.8 2.2 0.9 1.1 2.6 1.1 1 0 1.8-0.5 0.8-0.5 1.2-1.4l2.8 0.9q-0.7 1.8-2.3 2.7-1.5 1-3.4 1zm3-7.1q0-0.6 0-1.1h-6.4q-0.1 0.6-0.1 1.4 0 0.4 0 0.8h6.5z"/>
	<g id="Clip-Path" clip-path="url(#cp1)">
		<g id="Layer">
			<path id="Layer" fill-rule="evenodd" class="s0" d="m4.9 106.8c0-2.1 0.9-4.1 2.3-5.5 1.5-1.5 3.5-2.3 5.6-2.3h6.5c0.7 0 1.3 0.5 1.3 1.2v7.8h27.3v-6.4l-3.3-5.6q-0.2-0.3-0.2-0.7v-3.3h-2.4c-0.7 0-1.3-0.5-1.3-1.2v-4.6h-2.7c-0.7 0-1.3-0.5-1.3-1.2v-11.7c0-0.7 0.6-1.3 1.3-1.3h22.5c0.7 0 1.2 0.6 1.2 1.3v11.7c0 0.6-0.5 1.2-1.2 1.2h-2.8v4.6c0 0.7-0.5 1.2-1.2 1.2h-2.5v3.3q0 0.4-0.1 0.7l-3.3 5.6v6.4h41.7c0.7 0 1.2 0.6 1.2 1.3v50.1c0 0.7-0.5 1.3-1.2 1.3h-79.5c-2.1 0-4.1-0.9-5.6-2.3-1.4-1.5-2.3-3.5-2.3-5.6q0 0.4 0 0zm43.1 3.7h-27.4v35.8c0 0.7-0.6 1.2-1.3 1.2h-6.5c-1.5 0-2.8 0.6-3.8 1.6-1 1-1.6 2.3-1.6 3.7v0.1q0 0.1 0 0c0 1.4 0.6 2.7 1.6 3.7 1 1 2.4 1.6 3.8 1.6h78.3v-47.6h-40.5zm-4.8-24.3v3.3h12v-3.3zm-25.2 15.2h-5.3c-1.4 0-2.8 0.6-3.8 1.6-1 1-1.5 2.4-1.5 3.8v40.2c1.4-1.3 3.3-2 5.3-2h5.3zm41.2-17.8v-9.2h-20v9.2zm-12.3 8.3v3l2.3 3.8 2.3-3.8v-3z"/>
			<g id="Clip-Path" clip-path="url(#cp2)">
				<g id="Layer">
					<path id="Layer" fill-rule="evenodd" class="s1" d="m68.3 123.4h-37.2"/>
					<path id="Layer" fill-rule="evenodd" class="s1" d="m68.3 139.3h-37.2"/>
					<path id="Layer" fill-rule="evenodd" class="s1" d="m46.1 147.3h-15"/>
					<path id="Layer" fill-rule="evenodd" class="s1" d="m68.3 115.4h-15.1"/>
					<path id="Layer" fill-rule="evenodd" class="s1" d="m49.2 111.4v-9.7"/>
					<path id="Layer" fill-rule="evenodd" class="s1" d="m50.1 156v-4.7"/>
					<path id="Layer" fill-rule="evenodd" class="s1" d="m68.3 131.4h-37.2"/>
					<path id="Layer" fill-rule="evenodd" class="s1" d="m68.3 115.4c2.2 0 4 1.8 4 4 0 2.2-1.8 4-4 4"/>
					<path id="Layer" fill-rule="evenodd" class="s1" d="m53.2 115.4c-2.2 0-4-1.8-4-4"/>
					<path id="Layer" fill-rule="evenodd" class="s1" d="m31.1 131.4c-2.2 0-4-1.8-4-4 0-2.2 1.8-4 4-4"/>
					<path id="Layer" fill-rule="evenodd" class="s1" d="m68.3 131.4c2.2 0 4 1.8 4 4 0 2.2-1.8 3.9-4 3.9"/>
					<path id="Layer" fill-rule="evenodd" class="s1" d="m31.1 147.3c-2.2 0-4-1.8-4-4 0-2.2 1.8-4 4-4"/>
					<path id="Layer" fill-rule="evenodd" class="s1" d="m46.1 147.3c2.2 0 4 1.8 4 4"/>
				</g>
			</g>
		</g>
	</g>
	<path id="Layer" fill-rule="evenodd" class="s0" d="m2.5 188.8v-11.5h1.3l4.3 9.2 4.3-9.2h1.3v11.5h-1.3v-8.4l-3.9 8.4h-0.8l-3.9-8.4v8.4zm16 0.2q-1 0-1.7-0.3-0.6-0.4-0.9-1-0.4-0.5-0.4-1.2 0-0.7 0.3-1.2 0.2-0.5 0.7-0.8 0.5-0.4 1.1-0.6 0.7-0.1 1.4-0.2 0.8-0.2 1.6-0.3 0.5 0 0.9-0.1 0-1-0.5-1.5-0.4-0.5-1.6-0.5-0.8 0-1.4 0.3-0.6 0.4-0.8 1.2l-1.4-0.4q0.4-1.2 1.3-1.8 0.8-0.7 2.3-0.7 1.2 0 2 0.5 0.9 0.4 1.2 1.2 0.2 0.4 0.3 0.9 0 0.5 0 1v5.3h-1.3v-1.3q-0.4 0.6-1 1-0.9 0.5-2.1 0.5zm3-5.7q0 0.1 0 0.2l0.5-0.3q-0.2 0.1-0.5 0.1zm0.1 4.2q0.2-0.3 0.3-0.6l-0.3-0.2zm-2.9 0.4q0.7 0 1.3-0.2 0.6-0.3 0.9-0.8 0.3-0.4 0.5-1 0.1-0.4 0.1-0.8 0-0.3 0-0.5-0.4 0-0.9 0.1-0.6 0.1-1.2 0.2-0.6 0.1-1.1 0.2-0.4 0.1-0.7 0.3-0.3 0.2-0.5 0.5-0.2 0.2-0.2 0.6 0 0.4 0.2 0.7 0.2 0.3 0.6 0.5 0.4 0.2 1 0.2zm2.8-3.3q0.2-0.1 0.5-0.1l-0.5-0.2q0 0.1 0 0.3zm9.6 4.3v-4.3q0-0.7-0.1-1.2-0.1-0.6-0.4-1-0.2-0.5-0.7-0.8-0.4-0.2-1.1-0.2-0.6 0-1 0.2-0.4 0.1-0.7 0.5-0.3 0.4-0.5 0.9-0.2 0.6-0.2 1.3v4.6h-1.4v-8.6h1.2v1.1q0.4-0.6 1-0.9 0.8-0.5 1.9-0.5 0.9 0 1.4 0.3 0.6 0.3 1 0.7 0.4 0.4 0.6 1 0.3 0.5 0.4 1.1 0 0.5 0 1v4.8zm6.8 0.2q-0.8 0-1.4-0.3-0.6-0.2-1-0.7-0.4-0.4-0.6-0.9-0.2-0.6-0.3-1.1-0.1-0.6-0.1-1.1v-4.7h1.4v4.3q0 0.6 0.1 1.1 0.2 0.6 0.4 1.1 0.3 0.4 0.7 0.7 0.5 0.2 1.2 0.2 0.5 0 0.9-0.1 0.5-0.2 0.8-0.6 0.3-0.3 0.5-0.9 0.1-0.6 0.1-1.3v-4.5h1.5v8.6h-1.3v-1.1q-0.4 0.5-1 0.8-0.8 0.5-1.9 0.5zm7.2-0.2v-7.5h-1.4v-1.1h1.4v-0.5q0-0.3 0.1-0.7 0-0.3 0.1-0.7 0.1-0.3 0.4-0.6 0.3-0.3 0.6-0.4 0.4-0.2 0.7-0.2 0.4-0.1 0.7-0.1h1.1v1.2h-1q-0.6 0-0.9 0.3-0.4 0.3-0.4 1v0.7h2.3v1.1h-2.3v7.5zm7.2 0.2q-1 0-1.6-0.3-0.7-0.4-1-1-0.3-0.6-0.3-1.3 0-0.6 0.2-1.1 0.3-0.5 0.8-0.9 0.4-0.3 1.1-0.5 0.6-0.2 1.4-0.3 0.7-0.1 1.5-0.2 0.5-0.1 1-0.1-0.1-1-0.5-1.5-0.5-0.6-1.7-0.6-0.7 0-1.3 0.4-0.6 0.4-0.8 1.1l-1.4-0.4q0.3-1.1 1.2-1.7 0.9-0.7 2.4-0.7 1.1 0 2 0.4 0.8 0.5 1.2 1.3 0.2 0.4 0.2 0.9 0.1 0.4 0.1 0.9v5.4h-1.3v-1.4q-0.4 0.7-1.1 1.1-0.8 0.5-2.1 0.5zm3.1-5.7q0 0.1 0 0.2l0.5-0.3q-0.3 0-0.5 0.1zm0.1 4.1q0.2-0.2 0.3-0.5l-0.3-0.2zm-3 0.4q0.8 0 1.4-0.3 0.5-0.3 0.9-0.7 0.3-0.5 0.4-1 0.1-0.4 0.1-0.9 0-0.2 0-0.4-0.4 0-0.8 0.1-0.7 0.1-1.3 0.2-0.6 0.1-1.1 0.2-0.3 0.1-0.6 0.3-0.3 0.2-0.5 0.4-0.2 0.3-0.2 0.7 0 0.4 0.2 0.7 0.2 0.3 0.5 0.5 0.4 0.2 1 0.2zm2.8-3.3q0.3-0.1 0.5-0.1l-0.4-0.2q0 0.1-0.1 0.3zm7.2 4.5q-1.3 0-2.3-0.6-0.9-0.6-1.3-1.6-0.5-1-0.5-2.4 0-1.3 0.5-2.3 0.5-1.1 1.4-1.6 0.9-0.6 2.2-0.6 1.3 0 2.3 0.7 1 0.6 1.4 1.8l-1.5 0.4q-0.2-0.7-0.8-1.1-0.6-0.5-1.4-0.5-0.9 0-1.5 0.5-0.6 0.4-0.8 1.1-0.3 0.7-0.3 1.6 0 1.5 0.6 2.4 0.7 0.8 2 0.8 0.8 0 1.4-0.3 0.5-0.4 0.8-1.2l1.5 0.4q-0.5 1.2-1.4 1.8-1 0.7-2.3 0.7zm10.1-0.3q-0.8 0.2-1.5 0.2-0.8-0.1-1.4-0.3-0.5-0.3-0.8-0.9-0.3-0.5-0.3-1 0-0.5 0-1.2v-4.2h-1.8v-1.2h1.8v-2.4h1.4v2.4h2.6v1.2h-2.6v4.1q0 0.6 0 0.9 0 0.4 0.2 0.7 0.3 0.5 0.9 0.6 0.6 0.1 1.5-0.1zm5 0.2q-0.8 0-1.4-0.2-0.6-0.3-1-0.7-0.4-0.5-0.6-1-0.2-0.5-0.3-1.1-0.1-0.5-0.1-1v-4.8h1.4v4.3q0 0.6 0.1 1.2 0.1 0.6 0.4 1 0.3 0.5 0.7 0.7 0.5 0.3 1.2 0.3 0.5 0 0.9-0.2 0.5-0.2 0.8-0.5 0.3-0.4 0.5-1 0.1-0.5 0.1-1.3v-4.5h1.4v8.6h-1.2v-1.1q-0.4 0.5-1 0.9-0.8 0.4-1.9 0.4zm6.4-0.2v-8.6h1.2v1.4q0.1-0.2 0.2-0.3 0.3-0.3 0.6-0.6 0.3-0.2 0.7-0.4 0.5-0.1 0.9-0.1 0.4-0.1 0.8 0v1.3q-0.4-0.1-1 0-0.5 0-0.9 0.4-0.5 0.3-0.7 0.7-0.2 0.4-0.3 0.9-0.1 0.5-0.1 1v4.3zm1.3-7.2q-0.1 0.2-0.2 0.4l0.2 0.3zm8.2 7.5q-1.2 0-2.2-0.6-0.9-0.5-1.4-1.5-0.6-1.1-0.6-2.4 0-1.4 0.5-2.5 0.6-1 1.5-1.5 0.9-0.6 2.2-0.6 1.3 0 2.2 0.6 0.9 0.6 1.4 1.7 0.4 1.1 0.4 2.6h-0.8v-1.1h-0.7q-0.1-1.1-0.6-1.7-0.7-0.8-1.9-0.8-1.3 0-2 0.8-0.5 0.6-0.6 1.7h-0.5v1.1h0.4q0.1 1.3 0.7 2 0.7 0.8 2 0.8 0.8 0 1.5-0.4 0.6-0.3 0.9-1.1l1.4 0.5q-0.5 1.1-1.5 1.8-1 0.6-2.3 0.6zm2.5-4.7q0-0.3 0-0.6h-5.1q-0.1 0.3-0.1 0.7 0 0.2 0 0.4h5.2z"/>
	<g id="Clip-Path" clip-path="url(#cp3)">
		<g id="Layer">
			<path id="Layer" fill-rule="evenodd" class="s0" d="m18.7 287.2c0.5 0 1 0.5 1 1q0.7-1.4 1.7-2.5c1.6-1.5 3.7-2.5 6.1-2.5 2.3 0 4.5 1 6 2.5q1.1 1.1 1.8 2.5c0-0.5 0.4-1 1-1h28.1q0.1 0 0.1 0h0.1q0-0.1 0-0.2v-30.5c0-1.2-0.5-2.4-1.3-3.2-0.9-0.9-2-1.4-3.3-1.4h-40.4c-1.3 0-2.4 0.5-3.2 1.3-0.8 0.8-1.4 1.8-1.4 3-0.1 0.6-0.6 1-1.1 1-0.6 0-1-0.5-1-1.1 0.1-1.7 0.9-3.3 2.1-4.4 1.2-1.1 2.8-1.8 4.6-1.8h40.4c1.9 0 3.5 0.7 4.7 1.9 1.2 1.2 2 2.9 2 4.7v2.7h7.9q0.7 0 1.4 0.3 0.6 0.2 1.2 0.8l10.8 10.6q0.5 0.6 0.8 1.2 0.3 0.7 0.3 1.4v13.5c0 0.6-0.2 1.2-0.7 1.6-0.4 0.4-0.9 0.7-1.6 0.7h-1q-0.2 0-0.4-0.1 0.4 1.2 0.4 2.6c0 2.3-0.9 4.5-2.5 6-1.5 1.6-3.7 2.5-6 2.5-2.4 0-4.5-0.9-6.1-2.5-1.5-1.5-2.5-3.7-2.5-6q0-1.4 0.4-2.6-0.2 0.1-0.4 0.1h-32.4q-0.5 0-0.7-0.3 0.4 1.3 0.4 2.8c0 2.3-0.9 4.5-2.5 6-1.5 1.6-3.7 2.5-6 2.5-2.4 0-4.5-0.9-6.1-2.5-1.5-1.5-2.5-3.7-2.5-6q0-1.5 0.5-2.8-0.3 0.3-0.7 0.3h-3.5c-0.7 0-1.2-0.3-1.6-0.7-0.4-0.4-0.7-1-0.7-1.6v-4.2c0-0.6 0.5-1 1-1 0.6 0 1.1 0.4 1.1 1v4.2q0 0.1 0 0.2 0.1 0 0.2 0h3.5zm8.8-1.9c-1.8 0-3.4 0.7-4.6 1.9-1.2 1.2-1.9 2.8-1.9 4.6 0 1.8 0.7 3.4 1.9 4.6 1.2 1.2 2.8 1.9 4.6 1.9 1.8 0 3.4-0.7 4.6-1.9 1.2-1.2 1.9-2.8 1.9-4.6 0-1.8-0.7-3.4-1.9-4.6-1.2-1.2-2.8-1.9-4.6-1.9zm-3 3.5c0.8-0.7 1.8-1.2 3-1.2 1.1 0 2.1 0.4 2.9 1.2h0.1c0.7 0.8 1.2 1.8 1.2 3 0 1.1-0.5 2.2-1.2 3h-0.1c-0.7 0.7-1.8 1.2-2.9 1.2-1.2 0-2.2-0.5-3-1.2-0.8-0.8-1.2-1.9-1.2-3 0-1.2 0.4-2.2 1.2-3zm3 0.8c-0.6 0-1.2 0.3-1.6 0.7-0.3 0.4-0.6 0.9-0.6 1.5 0 0.6 0.3 1.1 0.6 1.5 0.4 0.4 1 0.6 1.6 0.6 0.6 0 1.1-0.2 1.5-0.6 0.4-0.4 0.6-0.9 0.6-1.5 0-0.6-0.2-1.1-0.6-1.5v-0.1c-0.4-0.3-0.9-0.6-1.5-0.6zm49.8-4.3c-1.8 0-3.5 0.7-4.6 1.9-1.2 1.2-1.9 2.8-1.9 4.6 0 1.8 0.7 3.4 1.9 4.6 1.1 1.2 2.8 1.9 4.6 1.9 1.8 0 3.4-0.7 4.6-1.9 1.1-1.2 1.9-2.8 1.9-4.6 0-1.8-0.8-3.4-1.9-4.6-1.2-1.2-2.8-1.9-4.6-1.9zm-6.1 0.4c1.6-1.5 3.7-2.5 6.1-2.5 2.3 0 4.5 1 6 2.5q1 1 1.6 2.2c0.1-0.4 0.5-0.7 0.9-0.7h1q0.1 0 0.2 0 0-0.1 0-0.2v-13.4q0.1-0.4-0.1-0.7-0.1-0.3-0.3-0.5l-10.9-10.7q-0.2-0.2-0.5-0.3-0.3-0.1-0.6-0.1h-7.9v25.7q0 0.1 0 0.2h2c0.4 0 0.8 0.3 0.9 0.7q0.7-1.2 1.6-2.2zm3.1 3.1c0.8-0.7 1.8-1.2 3-1.2 1.1 0 2.1 0.4 2.9 1.2 0.8 0.8 1.3 1.8 1.3 3 0 1.2-0.5 2.2-1.3 3-0.7 0.7-1.8 1.2-2.9 1.2-1.2 0-2.3-0.5-3-1.2-0.8-0.8-1.2-1.8-1.2-3 0-1.2 0.4-2.2 1.2-3zm3 0.8c-0.6 0-1.2 0.3-1.6 0.7-0.4 0.4-0.6 0.9-0.6 1.5 0 0.6 0.2 1.1 0.6 1.5 0.4 0.4 1 0.6 1.6 0.6 0.6 0 1.1-0.2 1.5-0.6 0.4-0.4 0.6-0.9 0.6-1.5 0-0.6-0.2-1.1-0.6-1.5l-0.1-0.1c-0.3-0.3-0.9-0.6-1.4-0.6zm-5.9-22.6h5.2q0.4 0 0.7 0.2h0.1q0.4 0.1 0.7 0.5l4.8 4.7q0.4 0.3 0.5 0.7 0.2 0.4 0.2 0.8v2.6c0 0.6-0.2 1.2-0.6 1.6h-0.1c-0.4 0.5-0.9 0.7-1.6 0.7h-9.9c-0.6 0-1.2-0.2-1.6-0.7-0.4-0.4-0.6-0.9-0.6-1.6v-7.2c0-0.6 0.2-1.2 0.6-1.6 0.4-0.4 1-0.7 1.6-0.7zm5.2 2.1h-5.2q-0.1 0-0.1 0-0.1 0.1-0.1 0.2v7.2q0 0.1 0.1 0.2 0 0 0.1 0.1h9.9q0.1-0.1 0.2-0.1 0-0.1 0-0.2v-2.6q0 0 0 0 0 0 0-0.1l-4.8-4.7q0 0 0 0h-0.1z"/>
			<path id="Layer" class="s2" d="m24.5 275.5h-15.4c-1.2 0-2.2 1-2.2 2.2 0 1.2 1 2.2 2.2 2.2h15.4c1.2 0 2.2-1 2.2-2.2 0-1.2-1-2.2-2.2-2.2z"/>
			<path id="Layer" class="s2" d="m21 267.4h-15.4c-1.2 0-2.2 1-2.2 2.2 0 1.2 1 2.2 2.2 2.2h15.4c1.2 0 2.2-1 2.2-2.2 0-1.2-1-2.2-2.2-2.2z"/>
			<path id="Layer" class="s2" d="m18.1 259.1h-15.4c-1.2 0-2.2 1-2.2 2.2 0 1.2 1 2.2 2.2 2.2h15.4c1.2 0 2.2-1 2.2-2.2 0-1.2-1-2.2-2.2-2.2z"/>
		</g>
	</g>
	<path id="Layer" fill-rule="evenodd" class="s0" d="m33.4 347.8q-1.2 0-2.2-0.4-1-0.4-1.6-1.2-0.7-0.7-0.8-1.8l1.4-0.2q0.3 1.1 1.2 1.7 0.9 0.6 2.1 0.6 0.7 0 1.4-0.3 0.6-0.2 1-0.7 0.3-0.4 0.3-1 0-0.4-0.1-0.7-0.1-0.3-0.4-0.5-0.2-0.2-0.5-0.3-0.3-0.1-0.6-0.2l-2.9-0.9q-0.5-0.1-0.9-0.3-0.5-0.3-0.8-0.6-0.4-0.3-0.6-0.8-0.2-0.5-0.2-1.1 0-1 0.5-1.7 0.6-0.8 1.5-1.2 0.9-0.3 2-0.3 1.2 0 2.1 0.4 0.9 0.4 1.5 1.1 0.6 0.8 0.8 1.8l-1.5 0.3q-0.1-0.7-0.5-1.2-0.4-0.5-1-0.8-0.7-0.3-1.4-0.3-0.7 0-1.3 0.2-0.5 0.3-0.9 0.7-0.3 0.4-0.3 0.9 0 0.6 0.3 0.9 0.3 0.3 0.7 0.5 0.5 0.2 0.9 0.3l2.2 0.6q0.4 0.1 0.9 0.3 0.5 0.2 0.9 0.5 0.5 0.4 0.8 0.9 0.3 0.6 0.3 1.4 0 0.8-0.3 1.5-0.4 0.6-1 1-0.6 0.5-1.3 0.7-0.8 0.2-1.7 0.2zm12.1-0.2v-4.3q0-0.6-0.1-1.2-0.1-0.6-0.4-1-0.3-0.5-0.7-0.7-0.5-0.3-1.1-0.3-0.6 0-1 0.2-0.4 0.2-0.8 0.5-0.3 0.4-0.4 1-0.2 0.5-0.2 1.3v4.5h-1.4v-11.5h1.2v4q0.4-0.5 1-0.9 0.8-0.4 1.9-0.4 0.8 0 1.4 0.2 0.6 0.3 1 0.7 0.4 0.4 0.6 1 0.2 0.5 0.3 1.1 0.1 0.5 0.1 1v4.8zm3.7-10.1v-1.5h1.4v1.5zm0 10.1v-8.6h1.4v8.6zm7.8 0.2q-1.2 0-2-0.6-0.3-0.2-0.5-0.4v4.6h-1.5v-12.4h1.3v0.9q0.3-0.3 0.7-0.6 0.8-0.6 2-0.6 1.2 0 2.1 0.6 0.8 0.6 1.3 1.7 0.5 1 0.5 2.3 0 1.3-0.5 2.3-0.5 1-1.3 1.6-0.9 0.6-2.1 0.6zm-0.2-1.3q0.9 0 1.4-0.4 0.6-0.4 0.9-1.2 0.3-0.7 0.3-1.6 0-0.9-0.3-1.7-0.3-0.7-0.9-1.1-0.5-0.5-1.4-0.5-0.8 0-1.4 0.5-0.5 0.4-0.8 1.1-0.3 0.7-0.3 1.7 0 0.9 0.3 1.7 0.2 0.7 0.8 1.1 0.6 0.4 1.4 0.4z"/>
	<path id="Layer" fill-rule="evenodd" class="s3" d="m59.9 410.4c0 8.3-6.8 15.1-15.1 15.1-8.3 0-15.1-6.8-15.1-15.1 0-8.3 6.8-15 15.1-15 8.3 0 15.1 6.7 15.1 15zm-1.8 0c0-7.3-6-13.3-13.3-13.3-7.3 0-13.3 6-13.3 13.3 0 7.3 6 13.3 13.3 13.3 7.3 0 13.3-6 13.3-13.3z"/>
	<path id="Layer" fill-rule="evenodd" class="s3" d="m45.7 404.1v5.4c2.5 0 4.5 2.1 4.5 4.5 0 2.5-2 4.5-4.5 4.5v1.4c0 0.4-0.4 0.8-0.9 0.8-0.5 0-0.9-0.4-0.9-0.8v-1.4c-2.5 0-4.5-2-4.5-4.5 0-0.5 0.4-0.9 0.9-0.9 0.5 0 0.9 0.4 0.9 0.9 0 1.5 1.2 2.7 2.7 2.7v-5.4c-1.2 0-2.3-0.5-3.2-1.3-0.8-0.9-1.3-2-1.3-3.2 0-1.2 0.5-2.3 1.4-3.1 0.8-0.9 1.9-1.4 3.1-1.4v-1.3c0-0.5 0.4-0.9 0.9-0.9 0.5 0 0.9 0.4 0.9 0.9v1.3c2.5 0.1 4.5 2.1 4.5 4.5 0 0.5-0.4 0.9-0.9 0.9-0.5 0-0.9-0.4-0.9-0.9 0-1.5-1.2-2.7-2.7-2.7zm-1.8 5.4v-5.4c-0.7 0-1.4 0.3-1.9 0.8-0.5 0.5-0.8 1.2-0.8 1.9 0 0.7 0.3 1.4 0.8 1.9 0.5 0.5 1.2 0.8 1.9 0.8zm1.8 1.8v5.4c1.5 0 2.7-1.2 2.7-2.7 0-1.5-1.2-2.7-2.7-2.7z"/>
	<path id="Layer" fill-rule="evenodd" class="s0" d="m59.8 444.3q0.1 0.2 0.1 0.3v18c0 0.3-0.2 0.6-0.4 0.8l-14.2 8.9q-0.2 0.1-0.5 0.1-0.2 0-0.5-0.1l-14.1-8.9c-0.3-0.2-0.5-0.5-0.5-0.8v-18q0-0.1 0.1-0.3 0 0 0-0.1 0.1-0.1 0.2-0.2 0.1-0.1 0.2-0.2l14.2-8.1c0.2-0.2 0.6-0.2 0.9 0l14.1 8.1q0.1 0.1 0.2 0.2 0 0 0 0 0.1 0.1 0.2 0.2 0 0.1 0 0.1zm-27.4 0.3l12.4 7.4 12.4-7.4-12.4-7.1zm25.7 17.5v-15.9l-12.8 7.6q-0.2 0.1-0.5 0.1-0.2 0-0.4-0.1l-12.9-7.6v15.9l13.3 8.4z"/>
	<path id="Layer" class="s0" d="m24.9 449.5c-0.5 0-0.9 0.4-0.9 0.9v4.3c-5.9-5.3-9.3-12.8-9.3-20.8 0-8.6 3.9-16.7 10.7-22 0.4-0.3 0.5-0.9 0.2-1.2-0.3-0.4-0.9-0.5-1.3-0.2-7.2 5.7-11.4 14.2-11.4 23.4 0 8.4 3.5 16.2 9.6 21.8h-3.8c-0.5 0-0.9 0.4-0.9 0.9 0 0.5 0.4 0.9 0.9 0.9h6.2q0.2 0 0.3-0.1 0.1 0 0.1-0.1 0.1 0 0.2-0.1 0.1 0 0.1-0.1 0 0 0-0.1 0.1 0 0.1-0.1 0-0.1 0-0.2 0.1-0.1 0.1-0.1v-6.2c0-0.5-0.4-0.9-0.9-0.9z"/>
	<path id="Layer" class="s0" d="m67.1 412.1h3.8c0.5 0 0.9-0.4 0.9-0.9 0-0.5-0.4-0.9-0.9-0.9h-6.2q0 0 0 0-0.1 0-0.2 0.1-0.1 0-0.1 0-0.1 0.1-0.2 0.1-0.1 0.1-0.1 0.1 0 0-0.1 0.1 0 0 0 0.1 0 0-0.1 0.1 0 0.1 0 0.2 0 0.1 0 0.1v6.2c0 0.5 0.4 0.9 0.9 0.9 0.4 0 0.8-0.4 0.8-0.9v-4.3c6 5.3 9.3 12.8 9.3 20.8 0 8.6-3.9 16.7-10.7 22-0.4 0.3-0.4 0.9-0.1 1.2 0.1 0.3 0.4 0.4 0.7 0.4q0.2 0 0.5-0.2c7.3-5.7 11.4-14.2 11.4-23.4 0-8.4-3.5-16.2-9.6-21.8z"/>
	<path id="Layer" fill-rule="evenodd" class="s0" d="m36.3 506.6q-1.2 0-2.2-0.4-1-0.4-1.6-1.2-0.6-0.7-0.8-1.8l1.4-0.2q0.3 1.1 1.2 1.7 0.9 0.6 2.1 0.6 0.7 0 1.4-0.3 0.6-0.2 1-0.7 0.3-0.4 0.3-1 0-0.4-0.1-0.7-0.1-0.3-0.4-0.5-0.2-0.2-0.5-0.3-0.3-0.1-0.6-0.2l-2.9-0.9q-0.5-0.1-0.9-0.4-0.5-0.2-0.8-0.5-0.4-0.3-0.6-0.8-0.2-0.5-0.2-1.1 0-1 0.5-1.7 0.6-0.8 1.5-1.2 0.9-0.3 2-0.3 1.2 0 2.1 0.4 0.9 0.4 1.5 1.1 0.6 0.8 0.8 1.8l-1.5 0.3q-0.1-0.7-0.5-1.2-0.4-0.5-1-0.8-0.7-0.3-1.4-0.3-0.7 0-1.3 0.2-0.5 0.3-0.9 0.7-0.3 0.4-0.3 0.9 0 0.6 0.3 0.9 0.3 0.3 0.7 0.5 0.5 0.2 0.9 0.3l2.2 0.6q0.4 0.1 0.9 0.3 0.5 0.2 0.9 0.5 0.5 0.4 0.8 0.9 0.3 0.5 0.3 1.4 0 0.8-0.3 1.5-0.4 0.6-1 1-0.6 0.5-1.3 0.7-0.8 0.2-1.7 0.2zm9.7 0q-1.3 0-2.2-0.5-1-0.6-1.5-1.6-0.5-1-0.5-2.4 0-1.4 0.5-2.4 0.5-1 1.4-1.6 1-0.6 2.2-0.6 1.3 0 2.2 0.6 1 0.6 1.4 1.7 0.5 1.1 0.4 2.7h-0.7v-1.2h-0.8q-0.1-1.1-0.6-1.7-0.6-0.8-1.8-0.8-1.3 0-2 0.9-0.5 0.6-0.7 1.6h-0.5v1.2h0.5q0.1 1.2 0.7 1.9 0.7 0.9 1.9 0.9 0.9 0 1.5-0.4 0.6-0.4 1-1.1l1.4 0.4q-0.5 1.2-1.5 1.8-1.1 0.6-2.3 0.6zm2.5-4.1h-5.2q0-0.2 0-0.4 0-0.4 0-0.8h5.1q0.1 0.3 0.1 0.7zm3.3 3.9v-11.7h1.5v11.7zm3.9 0v-11.7h1.5v11.7z"/>
	<g id="Layer" style="opacity: .3">
		<g id="Clip-Path" clip-path="url(#cp4)">
			<g id="Layer">
				<path id="Layer" fill-rule="evenodd" class="s0" d="m4.9 599.2c0-2.1 0.9-4.1 2.3-5.6 1.5-1.4 3.5-2.3 5.6-2.3h6.5c0.7 0 1.3 0.6 1.3 1.3v7.8h27.3v-6.4l-3.3-5.7q-0.2-0.2-0.2-0.6v-3.3h-2.4c-0.7 0-1.3-0.5-1.3-1.2v-4.6h-2.7c-0.7 0-1.3-0.6-1.3-1.3v-11.7c0-0.6 0.6-1.2 1.3-1.2h22.5c0.7 0 1.2 0.5 1.2 1.2v11.7c0 0.7-0.5 1.3-1.2 1.3h-2.8v4.6c0 0.7-0.5 1.2-1.2 1.2h-2.5v3.3q0 0.4-0.1 0.6l-3.3 5.7v6.4h41.7c0.7 0 1.2 0.5 1.2 1.2v50.2c0 0.7-0.5 1.2-1.2 1.2h-79.5c-2.1 0-4.1-0.8-5.6-2.3-1.4-1.4-2.3-3.4-2.3-5.5q0 0.4 0 0zm43.1 3.7h-27.4v35.7c0 0.7-0.6 1.3-1.3 1.3h-6.5c-1.5 0-2.8 0.6-3.8 1.6-1 1-1.6 2.3-1.6 3.7q0 0.2 0 0c0 1.5 0.6 2.8 1.6 3.8 1 1 2.4 1.6 3.8 1.6h78.3v-47.6h-40.5zm-4.8-24.3v3.3h12v-3.3zm-25.2 15.2h-5.3c-1.4 0-2.8 0.6-3.8 1.6-1 1-1.5 2.3-1.5 3.7v40.3c1.4-1.3 3.3-2.1 5.3-2.1h5.3zm41.2-17.7v-9.2h-20v9.2zm-12.3 8.3v2.9l2.3 3.9 2.3-3.9v-2.9z"/>
				<g id="Clip-Path" clip-path="url(#cp5)">
					<g id="Layer">
						<path id="Layer" fill-rule="evenodd" class="s1" d="m68.3 615.8h-37.2"/>
						<path id="Layer" fill-rule="evenodd" class="s1" d="m68.3 631.7h-37.2"/>
						<path id="Layer" fill-rule="evenodd" class="s1" d="m46.1 639.7h-15"/>
						<path id="Layer" fill-rule="evenodd" class="s1" d="m68.3 607.8h-15.1"/>
						<path id="Layer" fill-rule="evenodd" class="s1" d="m49.2 603.8v-9.7"/>
						<path id="Layer" fill-rule="evenodd" class="s1" d="m50.1 648.4v-4.7"/>
						<path id="Layer" fill-rule="evenodd" class="s1" d="m68.3 623.8h-37.2"/>
						<path id="Layer" fill-rule="evenodd" class="s1" d="m68.3 607.8c2.2 0 4 1.8 4 4 0 2.2-1.8 4-4 4"/>
						<path id="Layer" fill-rule="evenodd" class="s1" d="m53.2 607.8c-2.2 0-4-1.8-4-4"/>
						<path id="Layer" fill-rule="evenodd" class="s1" d="m31.1 623.8c-2.2 0-4-1.8-4-4 0-2.2 1.8-4 4-4"/>
						<path id="Layer" fill-rule="evenodd" class="s1" d="m68.3 623.8c2.2 0 4 1.7 4 3.9 0 2.3-1.8 4-4 4"/>
						<path id="Layer" fill-rule="evenodd" class="s1" d="m31.1 639.7c-2.2 0-4-1.8-4-4 0-2.2 1.8-4 4-4"/>
						<path id="Layer" fill-rule="evenodd" class="s1" d="m46.1 639.7c2.2 0 4 1.8 4 4"/>
					</g>
				</g>
			</g>
		</g>
		<path id="Layer" fill-rule="evenodd" class="s0" d="m2.5 681.2v-11.5h1.3l4.3 9.1 4.3-9.1h1.3v11.5h-1.3v-8.4l-3.9 8.4h-0.8l-3.9-8.4v8.4zm16 0.2q-1 0-1.7-0.3-0.6-0.4-0.9-1-0.4-0.6-0.4-1.2 0-0.7 0.3-1.2 0.2-0.5 0.7-0.9 0.5-0.3 1.1-0.5 0.7-0.1 1.4-0.3 0.8-0.1 1.6-0.2 0.5-0.1 0.9-0.1 0-1-0.5-1.5-0.4-0.5-1.6-0.5-0.8 0-1.4 0.3-0.6 0.4-0.8 1.2l-1.4-0.4q0.4-1.2 1.3-1.8 0.8-0.7 2.3-0.7 1.2 0 2 0.5 0.9 0.4 1.2 1.2 0.2 0.4 0.3 0.9 0 0.4 0 1v5.3h-1.3v-1.4q-0.4 0.7-1 1.1-0.9 0.5-2.1 0.5zm3-5.7q0 0.1 0 0.2l0.5-0.3q-0.2 0-0.5 0.1zm0.1 4.1q0.2-0.2 0.3-0.5l-0.3-0.2zm-2.9 0.4q0.7 0 1.3-0.3 0.6-0.2 0.9-0.7 0.3-0.4 0.5-1 0.1-0.4 0.1-0.9 0-0.2 0-0.4-0.4 0-0.9 0.1-0.6 0.1-1.2 0.2-0.6 0.1-1.1 0.2-0.4 0.1-0.7 0.3-0.3 0.2-0.5 0.4-0.2 0.3-0.2 0.7 0 0.4 0.2 0.7 0.2 0.3 0.6 0.5 0.4 0.2 1 0.2zm2.8-3.3q0.2-0.1 0.5-0.1l-0.5-0.2q0 0.1 0 0.3zm9.6 4.3v-4.4q0-0.6-0.1-1.1-0.1-0.6-0.4-1.1-0.2-0.4-0.7-0.7-0.4-0.2-1.1-0.2-0.6 0-1 0.2-0.4 0.1-0.7 0.5-0.3 0.4-0.5 0.9-0.2 0.6-0.2 1.3v4.6h-1.4v-8.7h1.2v1.2q0.4-0.6 1-0.9 0.8-0.5 1.9-0.5 0.9 0 1.4 0.3 0.6 0.2 1 0.7 0.4 0.4 0.6 1 0.3 0.5 0.4 1 0 0.6 0 1.1v4.8zm6.8 0.2q-0.8 0-1.4-0.3-0.6-0.2-1-0.7-0.4-0.4-0.6-1-0.2-0.5-0.3-1.1-0.1-0.5-0.1-1v-4.8h1.4v4.4q0 0.6 0.1 1.1 0.2 0.6 0.4 1.1 0.3 0.4 0.7 0.7 0.5 0.2 1.2 0.2 0.5 0 0.9-0.2 0.5-0.1 0.8-0.5 0.3-0.4 0.5-0.9 0.1-0.6 0.1-1.3v-4.6h1.5v8.7h-1.3v-1.2q-0.4 0.6-1 0.9-0.8 0.5-1.9 0.5zm7.2-0.2v-7.5h-1.4v-1.2h1.4v-0.4q0-0.4 0.1-0.7 0-0.4 0.1-0.7 0.1-0.3 0.4-0.6 0.3-0.3 0.6-0.5 0.4-0.1 0.7-0.1 0.4-0.1 0.7-0.1h1.1v1.2h-1q-0.6 0-0.9 0.3-0.4 0.3-0.4 0.9v0.7h2.3v1.2h-2.3v7.5zm7.2 0.2q-1 0-1.6-0.4-0.7-0.3-1-0.9-0.3-0.6-0.3-1.3 0-0.7 0.2-1.1 0.3-0.5 0.8-0.9 0.4-0.3 1.1-0.5 0.6-0.2 1.4-0.3 0.7-0.1 1.5-0.2 0.5-0.1 1-0.1-0.1-1-0.5-1.5-0.5-0.6-1.7-0.6-0.7 0-1.3 0.4-0.6 0.3-0.8 1.1l-1.4-0.4q0.3-1.1 1.2-1.8 0.9-0.6 2.4-0.6 1.1 0 2 0.4 0.8 0.4 1.2 1.3 0.2 0.4 0.2 0.9 0.1 0.4 0.1 0.9v5.4h-1.3v-1.4q-0.4 0.7-1.1 1.1-0.8 0.5-2.1 0.5zm3.1-5.7q0 0.1 0 0.2l0.5-0.3q-0.3 0-0.5 0.1zm0.1 4.1q0.2-0.2 0.3-0.5l-0.3-0.2zm-3 0.4q0.8 0 1.4-0.3 0.5-0.3 0.9-0.7 0.3-0.5 0.4-1 0.1-0.4 0.1-0.9 0-0.3 0-0.5-0.4 0.1-0.8 0.2-0.7 0-1.3 0.1-0.6 0.1-1.1 0.3-0.3 0.1-0.6 0.3-0.3 0.1-0.5 0.4-0.2 0.3-0.2 0.7 0 0.3 0.2 0.7 0.2 0.3 0.5 0.5 0.4 0.2 1 0.2zm2.8-3.4q0.3 0 0.5 0l-0.4-0.2q0 0.1-0.1 0.2zm7.2 4.6q-1.3 0-2.3-0.6-0.9-0.6-1.3-1.6-0.5-1.1-0.5-2.4 0-1.3 0.5-2.3 0.5-1.1 1.4-1.6 0.9-0.6 2.2-0.6 1.3 0 2.3 0.6 1 0.7 1.4 1.9l-1.5 0.4q-0.2-0.7-0.8-1.2-0.6-0.4-1.4-0.4-0.9 0-1.5 0.4-0.6 0.4-0.8 1.2-0.3 0.7-0.3 1.6 0 1.5 0.6 2.3 0.7 0.9 2 0.9 0.8 0 1.4-0.4 0.5-0.3 0.8-1.1l1.5 0.4q-0.5 1.2-1.4 1.8-1 0.7-2.3 0.7zm10.1-0.3q-0.8 0.2-1.5 0.2-0.8-0.1-1.4-0.3-0.5-0.3-0.8-0.9-0.3-0.5-0.3-1 0-0.6 0-1.2v-4.2h-1.8v-1.2h1.8v-2.4h1.4v2.4h2.6v1.2h-2.6v4.1q0 0.5 0 0.9 0 0.4 0.2 0.7 0.3 0.5 0.9 0.6 0.6 0 1.5-0.1zm5 0.2q-0.8 0-1.4-0.2-0.6-0.3-1-0.7-0.4-0.5-0.6-1-0.2-0.5-0.3-1.1-0.1-0.6-0.1-1v-4.8h1.4v4.3q0 0.6 0.1 1.2 0.1 0.6 0.4 1 0.3 0.5 0.7 0.7 0.5 0.3 1.2 0.3 0.5 0 0.9-0.2 0.5-0.2 0.8-0.5 0.3-0.4 0.5-1 0.1-0.5 0.1-1.3v-4.5h1.4v8.6h-1.2v-1.1q-0.4 0.5-1 0.9-0.8 0.4-1.9 0.4zm6.4-0.2v-8.6h1.2v1.4q0.1-0.2 0.2-0.3 0.3-0.4 0.6-0.6 0.3-0.2 0.7-0.4 0.5-0.1 0.9-0.2 0.4 0 0.8 0.1v1.3q-0.4-0.1-1 0-0.5 0-0.9 0.4-0.5 0.3-0.7 0.7-0.2 0.4-0.3 0.9-0.1 0.5-0.1 1v4.3zm1.3-7.2q-0.1 0.2-0.2 0.4l0.2 0.3zm8.2 7.5q-1.2 0-2.2-0.6-0.9-0.6-1.4-1.6-0.6-1-0.6-2.3 0-1.4 0.5-2.5 0.6-1 1.5-1.6 0.9-0.5 2.2-0.5 1.3 0 2.2 0.6 0.9 0.6 1.4 1.7 0.4 1.1 0.4 2.6h-0.8v-1.1h-0.7q-0.1-1.1-0.6-1.8-0.7-0.7-1.9-0.7-1.3 0-2 0.8-0.5 0.6-0.6 1.7h-0.5v1.1h0.4q0.1 1.3 0.7 2 0.7 0.8 2 0.8 0.8 0 1.5-0.4 0.6-0.4 0.9-1.1l1.4 0.5q-0.5 1.1-1.5 1.7-1 0.7-2.3 0.7zm2.5-4.7q0-0.3 0-0.6h-5.1q-0.1 0.3-0.1 0.7 0 0.2 0 0.4h5.2z"/>
		<g id="Clip-Path" clip-path="url(#cp6)">
			<g id="Layer">
				<path id="Layer" fill-rule="evenodd" class="s0" d="m18.7 779.6c0.5 0 1 0.5 1 1q0.7-1.4 1.7-2.5c1.6-1.5 3.7-2.5 6.1-2.5 2.3 0 4.5 1 6 2.5q1.1 1.1 1.8 2.5c0-0.5 0.4-1 1-1h28.1q0.1 0 0.1 0h0.1q0-0.1 0-0.2v-30.5c0-1.3-0.5-2.4-1.3-3.2-0.9-0.9-2-1.4-3.3-1.4h-40.4c-1.3 0-2.4 0.5-3.2 1.3-0.8 0.7-1.4 1.8-1.4 3-0.1 0.6-0.6 1-1.1 1-0.6 0-1-0.5-1-1.1 0.1-1.7 0.9-3.3 2.1-4.4 1.2-1.2 2.8-1.8 4.6-1.8h40.4c1.9 0 3.5 0.7 4.7 1.9 1.2 1.2 2 2.9 2 4.7v2.7h7.9q0.7 0 1.4 0.3 0.6 0.2 1.2 0.7l10.8 10.7q0.5 0.5 0.8 1.2 0.3 0.7 0.3 1.4v13.5c0 0.6-0.2 1.2-0.7 1.6-0.4 0.4-0.9 0.7-1.6 0.7h-1q-0.2 0-0.4-0.1 0.4 1.2 0.4 2.6c0 2.3-0.9 4.5-2.5 6-1.5 1.6-3.7 2.5-6 2.5-2.4 0-4.5-0.9-6.1-2.5-1.5-1.5-2.5-3.7-2.5-6q0-1.4 0.4-2.6-0.2 0.1-0.4 0.1h-32.4q-0.5 0-0.7-0.3 0.4 1.3 0.4 2.8c0 2.3-0.9 4.5-2.5 6-1.5 1.6-3.7 2.5-6 2.5-2.4 0-4.5-0.9-6.1-2.5-1.5-1.5-2.5-3.7-2.5-6q0-1.5 0.5-2.8-0.3 0.3-0.7 0.3h-3.5c-0.7 0-1.2-0.3-1.6-0.7-0.4-0.4-0.7-1-0.7-1.6v-4.2c0-0.6 0.5-1.1 1-1.1 0.6 0 1.1 0.5 1.1 1.1v4.2q0 0.1 0 0.1v0.1q0.1 0 0.2 0h3.5zm8.8-1.9c-1.8 0-3.4 0.7-4.6 1.9-1.2 1.1-1.9 2.8-1.9 4.6 0 1.8 0.7 3.4 1.9 4.6 1.2 1.1 2.8 1.9 4.6 1.9 1.8 0 3.4-0.8 4.6-1.9 1.2-1.2 1.9-2.8 1.9-4.6 0-1.8-0.7-3.5-1.9-4.6-1.2-1.2-2.8-1.9-4.6-1.9zm-3 3.5c0.8-0.8 1.8-1.2 3-1.2 1.1 0 2.1 0.4 2.9 1.1l0.1 0.1c0.7 0.8 1.2 1.8 1.2 3 0 1.1-0.5 2.2-1.2 2.9l-0.1 0.1c-0.7 0.7-1.8 1.2-2.9 1.2-1.2 0-2.2-0.5-3-1.2v-0.1c-0.8-0.7-1.2-1.8-1.2-2.9 0-1.2 0.4-2.2 1.2-3zm3 0.8c-0.6 0-1.2 0.3-1.6 0.6-0.3 0.4-0.6 1-0.6 1.6 0 0.6 0.3 1.1 0.6 1.5 0.4 0.4 1 0.6 1.6 0.6 0.6 0 1.1-0.2 1.5-0.6 0.4-0.4 0.6-0.9 0.6-1.5 0-0.6-0.2-1.2-0.6-1.5v-0.1c-0.4-0.4-0.9-0.6-1.5-0.6zm49.8-4.3c-1.8 0-3.5 0.7-4.6 1.9-1.2 1.2-1.9 2.8-1.9 4.6 0 1.8 0.7 3.4 1.9 4.6 1.1 1.2 2.8 1.9 4.6 1.9 1.8 0 3.4-0.8 4.6-1.9 1.1-1.2 1.9-2.8 1.9-4.6 0-1.8-0.8-3.4-1.9-4.6-1.2-1.2-2.8-1.9-4.6-1.9zm-6.1 0.4c1.6-1.5 3.7-2.5 6.1-2.5 2.3 0 4.5 1 6 2.5q1 1 1.6 2.2c0.1-0.4 0.5-0.7 0.9-0.7h1q0.1 0 0.2 0 0-0.1 0-0.2v-13.5q0.1-0.3-0.1-0.6-0.1-0.3-0.3-0.5l-10.9-10.7q-0.2-0.2-0.5-0.3-0.3-0.1-0.6-0.1h-7.9v25.7q0 0.1 0 0.2h2c0.4 0 0.8 0.3 0.9 0.7q0.7-1.2 1.6-2.2zm3.1 3.1c0.8-0.8 1.8-1.2 3-1.2 1.1 0 2.1 0.4 2.9 1.1v0.1c0.8 0.8 1.3 1.8 1.3 3 0 1.1-0.5 2.2-1.3 2.9v0.1c-0.7 0.7-1.8 1.2-2.9 1.2-1.2 0-2.3-0.5-3-1.2v-0.1c-0.8-0.7-1.2-1.8-1.2-2.9 0-1.2 0.4-2.2 1.2-3zm3 0.8c-0.6 0-1.2 0.3-1.6 0.6v0.1c-0.4 0.3-0.6 0.9-0.6 1.5 0 0.6 0.2 1.1 0.6 1.5 0.4 0.4 1 0.6 1.6 0.6 0.6 0 1.1-0.2 1.5-0.6 0.4-0.4 0.6-0.9 0.6-1.5 0-0.6-0.2-1.2-0.6-1.5l-0.1-0.1c-0.3-0.4-0.9-0.6-1.4-0.6zm-5.9-22.6h5.2q0.4 0 0.7 0.1l0.1 0.1q0.4 0.1 0.7 0.4l4.8 4.8q0.4 0.3 0.5 0.7 0.2 0.4 0.2 0.8v2.6c0 0.6-0.2 1.2-0.6 1.6h-0.1c-0.4 0.4-0.9 0.7-1.6 0.7h-9.9c-0.6 0-1.2-0.3-1.6-0.7-0.4-0.4-0.6-0.9-0.6-1.6v-7.2c0-0.6 0.2-1.2 0.6-1.6 0.4-0.4 1-0.7 1.6-0.7zm5.2 2.1h-5.2q-0.1 0-0.1 0-0.1 0.1-0.1 0.2v7.2q0 0.1 0.1 0.2 0 0 0.1 0h9.9q0.1 0 0.2 0 0-0.1 0-0.2v-2.6q0 0 0 0 0-0.1 0-0.1l-4.8-4.7q0 0 0 0h-0.1z"/>
				<path id="Layer" class="s2" d="m24.5 767.9h-15.4c-1.2 0-2.2 1-2.2 2.2 0 1.2 1 2.2 2.2 2.2h15.4c1.2 0 2.2-1 2.2-2.2 0-1.2-1-2.2-2.2-2.2z"/>
				<path id="Layer" class="s2" d="m21 759.8h-15.4c-1.2 0-2.2 1-2.2 2.2 0 1.2 1 2.2 2.2 2.2h15.4c1.2 0 2.2-1 2.2-2.2 0-1.2-1-2.2-2.2-2.2z"/>
				<path id="Layer" class="s2" d="m18.1 751.5h-15.4c-1.2 0-2.2 1-2.2 2.2 0 1.2 1 2.2 2.2 2.2h15.4c1.2 0 2.2-1 2.2-2.2 0-1.2-1-2.2-2.2-2.2z"/>
			</g>
		</g>
		<path id="Layer" fill-rule="evenodd" class="s0" d="m33.4 840.2q-1.2 0-2.2-0.4-1-0.4-1.6-1.2-0.7-0.8-0.8-1.8l1.4-0.2q0.3 1 1.2 1.7 0.9 0.6 2.1 0.6 0.7 0 1.4-0.3 0.6-0.2 1-0.7 0.3-0.4 0.3-1.1 0-0.3-0.1-0.6-0.1-0.3-0.4-0.5-0.2-0.2-0.5-0.3-0.3-0.1-0.6-0.2l-2.9-0.9q-0.5-0.1-0.9-0.4-0.5-0.2-0.8-0.5-0.4-0.3-0.6-0.8-0.2-0.5-0.2-1.1 0-1 0.5-1.8 0.6-0.7 1.5-1.1 0.9-0.3 2-0.3 1.2 0 2.1 0.4 0.9 0.4 1.5 1.1 0.6 0.8 0.8 1.8l-1.5 0.3q-0.1-0.7-0.5-1.2-0.4-0.5-1-0.8-0.7-0.3-1.4-0.3-0.7 0-1.3 0.2-0.5 0.3-0.9 0.7-0.3 0.4-0.3 0.9 0 0.5 0.3 0.9 0.3 0.3 0.7 0.5 0.5 0.2 0.9 0.3l2.2 0.6q0.4 0.1 0.9 0.3 0.5 0.2 0.9 0.5 0.5 0.3 0.8 0.9 0.3 0.5 0.3 1.4 0 0.8-0.3 1.4-0.4 0.7-1 1.1-0.6 0.5-1.3 0.7-0.8 0.2-1.7 0.2zm12.1-0.2v-4.3q0-0.7-0.1-1.2-0.1-0.6-0.4-1-0.3-0.5-0.7-0.8-0.5-0.2-1.1-0.2-0.6 0-1 0.2-0.4 0.1-0.8 0.5-0.3 0.4-0.4 0.9-0.2 0.6-0.2 1.3v4.6h-1.4v-11.5h1.2v4q0.4-0.5 1-0.9 0.8-0.5 1.9-0.5 0.8 0 1.4 0.3 0.6 0.3 1 0.7 0.4 0.4 0.6 1 0.2 0.5 0.3 1.1 0.1 0.5 0.1 1v4.8zm3.7-10.2v-1.4h1.4v1.4zm0 10.2v-8.6h1.4v8.6zm7.8 0.2q-1.2 0-2-0.6-0.3-0.2-0.5-0.4v4.6h-1.5v-12.4h1.3v0.9q0.3-0.3 0.7-0.6 0.8-0.6 2-0.6 1.2 0 2.1 0.6 0.8 0.6 1.3 1.6 0.5 1.1 0.5 2.4 0 1.3-0.5 2.3-0.5 1-1.3 1.6-0.9 0.6-2.1 0.6zm-0.2-1.3q0.9 0 1.4-0.4 0.6-0.4 0.9-1.2 0.3-0.7 0.3-1.6 0-0.9-0.3-1.7-0.3-0.7-0.9-1.1-0.5-0.5-1.4-0.5-0.8 0-1.4 0.4-0.5 0.4-0.8 1.2-0.3 0.7-0.3 1.7 0 0.9 0.3 1.6 0.2 0.8 0.8 1.2 0.6 0.4 1.4 0.4z"/>
		<path id="Layer" fill-rule="evenodd" class="s3" d="m59.9 902.8c0 8.3-6.8 15.1-15.1 15.1-8.3 0-15.1-6.8-15.1-15.1 0-8.3 6.8-15.1 15.1-15.1 8.3 0 15.1 6.8 15.1 15.1zm-1.8 0c0-7.3-6-13.3-13.3-13.3-7.3 0-13.3 6-13.3 13.3 0 7.3 6 13.3 13.3 13.3 7.3 0 13.3-6 13.3-13.3z"/>
		<path id="Layer" fill-rule="evenodd" class="s3" d="m45.7 896.5v5.4c2.5 0 4.5 2 4.5 4.5 0 2.5-2 4.5-4.5 4.5v1.3c0 0.5-0.4 0.9-0.9 0.9-0.5 0-0.9-0.4-0.9-0.9v-1.3c-2.5 0-4.5-2-4.5-4.5 0-0.5 0.4-0.9 0.9-0.9 0.5 0 0.9 0.4 0.9 0.9 0 1.5 1.2 2.7 2.7 2.7v-5.4c-1.2 0-2.3-0.5-3.2-1.3-0.8-0.9-1.3-2-1.3-3.2 0-1.2 0.5-2.3 1.4-3.2 0.8-0.8 1.9-1.3 3.1-1.3v-1.3c0-0.5 0.4-0.9 0.9-0.9 0.5 0 0.9 0.4 0.9 0.9v1.3c2.5 0 4.5 2 4.5 4.5 0 0.5-0.4 0.9-0.9 0.9-0.5 0-0.9-0.4-0.9-0.9 0-1.5-1.2-2.7-2.7-2.7zm-1.8 5.4v-5.4c-0.7 0-1.4 0.3-1.9 0.8-0.5 0.5-0.8 1.2-0.8 1.9 0 0.7 0.3 1.4 0.8 1.9 0.5 0.5 1.2 0.8 1.9 0.8zm1.8 1.8v5.4c1.5 0 2.7-1.2 2.7-2.7 0-1.5-1.2-2.7-2.7-2.7z"/>
		<path id="Layer" fill-rule="evenodd" class="s0" d="m59.8 936.7q0.1 0.1 0.1 0.3v18c0 0.3-0.2 0.6-0.4 0.8l-14.2 8.9q-0.2 0.1-0.5 0.1-0.2 0-0.5-0.1l-14.1-8.9c-0.3-0.2-0.5-0.5-0.5-0.8v-18q0-0.2 0.1-0.3 0 0 0-0.1 0.1-0.1 0.2-0.2 0.1-0.1 0.2-0.2l14.2-8.1c0.2-0.2 0.6-0.2 0.9 0l14.1 8.1q0.1 0.1 0.2 0.2 0 0 0 0 0.1 0.1 0.2 0.2 0 0.1 0 0.1zm-27.4 0.3l12.4 7.4 12.4-7.4-12.4-7.1zm25.7 17.5v-16l-12.8 7.7q-0.2 0.1-0.5 0.1-0.2 0-0.4-0.1l-12.9-7.7v16l13.3 8.4z"/>
		<path id="Layer" class="s0" d="m24.9 941.9c-0.5 0-0.9 0.4-0.9 0.9v4.3c-5.9-5.3-9.3-12.8-9.3-20.8 0-8.7 3.9-16.7 10.7-22 0.4-0.3 0.5-0.9 0.2-1.3-0.3-0.3-0.9-0.4-1.3-0.1-7.2 5.7-11.4 14.2-11.4 23.4 0 8.4 3.5 16.2 9.6 21.8h-3.8c-0.5 0-0.9 0.4-0.9 0.9 0 0.5 0.4 0.9 0.9 0.9h6.2q0.2 0 0.3-0.1 0.1 0 0.1-0.1 0.1 0 0.2-0.1 0.1-0.1 0.1-0.1 0 0 0-0.1 0.1 0 0.1-0.1 0-0.1 0-0.2 0.1-0.1 0.1-0.1v-6.2c0-0.5-0.4-0.9-0.9-0.9z"/>
		<path id="Layer" class="s0" d="m67.1 904.5h3.8c0.5 0 0.9-0.4 0.9-0.9 0-0.5-0.4-0.9-0.9-0.9h-6.2q0 0 0 0-0.1 0-0.2 0.1-0.1 0-0.1 0-0.1 0-0.2 0.1-0.1 0-0.1 0.1 0 0-0.1 0 0 0.1 0 0.1 0 0.1-0.1 0.2 0 0.1 0 0.2 0 0 0 0.1v6.2c0 0.5 0.4 0.8 0.9 0.8 0.4 0 0.8-0.3 0.8-0.8v-4.3c6 5.3 9.3 12.8 9.3 20.8 0 8.6-3.9 16.6-10.7 22-0.4 0.3-0.4 0.8-0.1 1.2 0.1 0.3 0.4 0.4 0.7 0.4q0.2 0 0.5-0.2c7.3-5.7 11.4-14.2 11.4-23.4 0-8.4-3.5-16.2-9.6-21.8z"/>
		<path id="Layer" fill-rule="evenodd" class="s0" d="m36.3 999q-1.2 0-2.2-0.4-1-0.4-1.6-1.2-0.6-0.8-0.8-1.8l1.4-0.2q0.3 1 1.2 1.7 0.9 0.6 2.1 0.6 0.7 0 1.4-0.3 0.6-0.2 1-0.7 0.3-0.4 0.3-1 0-0.4-0.1-0.7-0.1-0.3-0.4-0.5-0.2-0.2-0.5-0.3-0.3-0.1-0.6-0.2l-2.9-0.9q-0.5-0.1-0.9-0.4-0.5-0.2-0.8-0.5-0.4-0.4-0.6-0.8-0.2-0.5-0.2-1.1 0-1 0.5-1.8 0.6-0.7 1.5-1.1 0.9-0.4 2-0.3 1.2 0 2.1 0.4 0.9 0.4 1.5 1.1 0.6 0.8 0.8 1.8l-1.5 0.3q-0.1-0.7-0.5-1.2-0.4-0.5-1-0.8-0.7-0.3-1.4-0.3-0.7 0-1.3 0.2-0.5 0.3-0.9 0.7-0.3 0.4-0.3 0.9 0 0.5 0.3 0.9 0.3 0.3 0.7 0.5 0.5 0.2 0.9 0.3l2.2 0.6q0.4 0.1 0.9 0.3 0.5 0.2 0.9 0.5 0.5 0.3 0.8 0.9 0.3 0.5 0.3 1.4 0 0.8-0.3 1.4-0.4 0.7-1 1.1-0.6 0.5-1.3 0.7-0.8 0.2-1.7 0.2zm9.7 0q-1.3 0-2.2-0.5-1-0.6-1.5-1.6-0.5-1-0.5-2.4 0-1.4 0.5-2.4 0.5-1.1 1.4-1.6 1-0.6 2.2-0.6 1.3 0 2.2 0.6 1 0.6 1.4 1.7 0.5 1.1 0.4 2.7h-0.7v-1.2h-0.8q-0.1-1.1-0.6-1.7-0.6-0.8-1.8-0.8-1.3 0-2 0.8-0.5 0.7-0.7 1.7h-0.5v1.2h0.5q0.1 1.2 0.7 1.9 0.7 0.9 1.9 0.9 0.9 0 1.5-0.4 0.6-0.4 1-1.1l1.4 0.4q-0.5 1.2-1.5 1.8-1.1 0.6-2.3 0.6zm2.5-4.1h-5.2q0-0.2 0-0.4 0-0.4 0-0.8h5.1q0.1 0.3 0.1 0.6zm3.3 4v-11.8h1.5v11.8zm3.9 0v-11.8h1.5v11.8z"/>
	</g>
	<g id="Layer" style="opacity: .3">
		<g id="Clip-Path" clip-path="url(#cp7)">
			<g id="Layer">
				<path id="Layer" fill-rule="evenodd" class="s0" d="m4.9 1091.5c0-2 0.9-4 2.3-5.5 1.5-1.5 3.5-2.3 5.6-2.3h6.5c0.7 0 1.3 0.6 1.3 1.3v7.8h27.3v-6.4l-3.3-5.7q-0.2-0.3-0.2-0.6v-3.3h-2.4c-0.7 0-1.3-0.5-1.3-1.2v-4.6h-2.7c-0.7 0-1.3-0.6-1.3-1.3v-11.7c0-0.7 0.6-1.2 1.3-1.2h22.5c0.7 0 1.2 0.5 1.2 1.2v11.7c0 0.7-0.5 1.3-1.2 1.3h-2.8v4.6c0 0.7-0.5 1.2-1.2 1.2h-2.5v3.3q0 0.4-0.1 0.6l-3.3 5.7v6.4h41.7c0.7 0 1.2 0.5 1.2 1.2v50.2c0 0.7-0.5 1.2-1.2 1.2h-79.5c-2.1 0-4.1-0.8-5.6-2.3-1.4-1.4-2.3-3.4-2.3-5.5q0 0.4 0 0zm43.1 3.7h-27.4v35.7c0 0.7-0.6 1.3-1.3 1.3h-6.5c-1.5 0-2.8 0.6-3.8 1.6-1 1-1.6 2.3-1.6 3.7q0 0.2 0 0c0 1.4 0.6 2.8 1.6 3.8 1 1 2.4 1.6 3.8 1.6h78.3v-47.7h-40.5zm-4.8-24.2v3.3h12v-3.3zm-25.2 15.2h-5.3c-1.4 0-2.8 0.6-3.8 1.6-1 1-1.5 2.3-1.5 3.7v40.3c1.4-1.3 3.3-2.1 5.3-2.1h5.3zm41.2-17.7v-9.2h-20v9.2zm-12.3 8.3v2.9l2.3 3.9 2.3-3.9v-2.9z"/>
				<g id="Clip-Path" clip-path="url(#cp8)">
					<g id="Layer">
						<path id="Layer" fill-rule="evenodd" class="s1" d="m68.3 1108.2h-37.2"/>
						<path id="Layer" fill-rule="evenodd" class="s1" d="m68.3 1124.1h-37.2"/>
						<path id="Layer" fill-rule="evenodd" class="s1" d="m46.1 1132.1h-15"/>
						<path id="Layer" fill-rule="evenodd" class="s1" d="m68.3 1100.2h-15.1"/>
						<path id="Layer" fill-rule="evenodd" class="s1" d="m49.2 1096.2v-9.7"/>
						<path id="Layer" fill-rule="evenodd" class="s1" d="m50.1 1140.8v-4.7"/>
						<path id="Layer" fill-rule="evenodd" class="s1" d="m68.3 1116.2h-37.2"/>
						<path id="Layer" fill-rule="evenodd" class="s1" d="m68.3 1100.2c2.2 0 4 1.8 4 4 0 2.2-1.8 4-4 4"/>
						<path id="Layer" fill-rule="evenodd" class="s1" d="m53.2 1100.2c-2.2 0-4-1.8-4-4"/>
						<path id="Layer" fill-rule="evenodd" class="s1" d="m31.1 1116.2c-2.2 0-4-1.8-4-4 0-2.3 1.8-4 4-4"/>
						<path id="Layer" fill-rule="evenodd" class="s1" d="m68.3 1116.2c2.2 0 4 1.7 4 3.9 0 2.2-1.8 4-4 4"/>
						<path id="Layer" fill-rule="evenodd" class="s1" d="m31.1 1132.1c-2.2 0-4-1.8-4-4 0-2.2 1.8-4 4-4"/>
						<path id="Layer" fill-rule="evenodd" class="s1" d="m46.1 1132.1c2.2 0 4 1.8 4 4"/>
					</g>
				</g>
			</g>
		</g>
		<path id="Layer" fill-rule="evenodd" class="s0" d="m2.5 1173.6v-11.5h1.3l4.3 9.1 4.3-9.1h1.3v11.5h-1.3v-8.4l-3.9 8.4h-0.8l-3.9-8.4v8.4zm16 0.2q-1 0-1.7-0.3-0.6-0.4-0.9-1-0.4-0.6-0.4-1.3 0-0.6 0.3-1.1 0.2-0.5 0.7-0.9 0.5-0.3 1.1-0.5 0.7-0.2 1.4-0.3 0.8-0.1 1.6-0.2 0.5-0.1 0.9-0.1 0-1-0.5-1.5-0.4-0.6-1.6-0.6-0.8 0-1.4 0.4-0.6 0.3-0.8 1.2l-1.4-0.5q0.4-1.1 1.3-1.7 0.8-0.7 2.3-0.7 1.2 0 2 0.4 0.9 0.4 1.2 1.3 0.2 0.4 0.3 0.9 0 0.4 0 0.9v5.4h-1.3v-1.4q-0.4 0.7-1 1.1-0.9 0.5-2.1 0.5zm3-5.7q0 0.1 0 0.2l0.5-0.3q-0.2 0-0.5 0.1zm0.1 4.1q0.2-0.2 0.3-0.5l-0.3-0.2zm-2.9 0.4q0.7 0 1.3-0.3 0.6-0.3 0.9-0.7 0.3-0.5 0.5-1 0.1-0.4 0.1-0.9 0-0.2 0-0.5-0.4 0.1-0.9 0.2-0.6 0.1-1.2 0.2-0.6 0-1.1 0.2-0.4 0.1-0.7 0.3-0.3 0.2-0.5 0.4-0.2 0.3-0.2 0.7 0 0.4 0.2 0.7 0.2 0.3 0.6 0.5 0.4 0.2 1 0.2zm2.8-3.4q0.2 0 0.5 0l-0.5-0.2q0 0.1 0 0.2zm9.6 4.3v-4.3q0-0.6-0.1-1.2-0.1-0.5-0.4-1-0.2-0.4-0.7-0.7-0.4-0.2-1.1-0.2-0.6 0-1 0.1-0.4 0.2-0.7 0.6-0.3 0.3-0.5 0.9-0.2 0.6-0.2 1.3v4.5h-1.4v-8.6h1.2v1.1q0.4-0.5 1-0.8 0.8-0.5 1.9-0.5 0.9 0 1.4 0.3 0.6 0.2 1 0.7 0.4 0.4 0.6 0.9 0.3 0.6 0.4 1.1 0 0.6 0 1.1v4.7zm6.8 0.3q-0.8 0-1.4-0.3-0.6-0.3-1-0.7-0.4-0.4-0.6-1-0.2-0.5-0.3-1.1-0.1-0.5-0.1-1v-4.8h1.4v4.3q0 0.6 0.1 1.2 0.2 0.6 0.4 1 0.3 0.5 0.7 0.8 0.5 0.2 1.2 0.2 0.5 0 0.9-0.2 0.5-0.1 0.8-0.5 0.3-0.4 0.5-0.9 0.1-0.6 0.1-1.3v-4.6h1.5v8.6h-1.3v-1.1q-0.4 0.6-1 0.9-0.8 0.5-1.9 0.5zm7.2-0.3v-7.4h-1.4v-1.2h1.4v-0.4q0-0.4 0.1-0.7 0-0.4 0.1-0.7 0.1-0.3 0.4-0.6 0.3-0.3 0.6-0.5 0.4-0.1 0.7-0.1 0.4-0.1 0.7-0.1h1.1v1.2h-1q-0.6 0-0.9 0.3-0.4 0.3-0.4 0.9v0.7h2.3v1.2h-2.3v7.4zm7.2 0.3q-1 0-1.6-0.4-0.7-0.3-1-0.9-0.3-0.6-0.3-1.3 0-0.7 0.2-1.2 0.3-0.5 0.8-0.8 0.4-0.3 1.1-0.5 0.6-0.2 1.4-0.3 0.7-0.1 1.5-0.2 0.5-0.1 1-0.2-0.1-0.9-0.5-1.4-0.5-0.6-1.7-0.6-0.7 0-1.3 0.4-0.6 0.3-0.8 1.1l-1.4-0.4q0.3-1.1 1.2-1.8 0.9-0.6 2.4-0.6 1.1 0 2 0.4 0.8 0.4 1.2 1.3 0.2 0.4 0.2 0.8 0.1 0.5 0.1 1v5.3h-1.3v-1.3q-0.4 0.7-1.1 1-0.8 0.6-2.1 0.6zm3.1-5.8q0 0.1 0 0.3l0.5-0.3q-0.3 0-0.5 0zm0.1 4.2q0.2-0.2 0.3-0.5l-0.3-0.2zm-3 0.4q0.8 0 1.4-0.3 0.5-0.3 0.9-0.7 0.3-0.5 0.4-1 0.1-0.4 0.1-0.9 0-0.3 0-0.5-0.4 0.1-0.8 0.1-0.7 0.1-1.3 0.2-0.6 0.1-1.1 0.3-0.3 0.1-0.6 0.2-0.3 0.2-0.5 0.5-0.2 0.3-0.2 0.7 0 0.3 0.2 0.6 0.2 0.4 0.5 0.6 0.4 0.2 1 0.2zm2.8-3.4q0.3 0 0.5-0.1l-0.4-0.2q0 0.2-0.1 0.3zm7.2 4.6q-1.3 0-2.3-0.6-0.9-0.6-1.3-1.6-0.5-1.1-0.5-2.4 0-1.3 0.5-2.4 0.5-1 1.4-1.6 0.9-0.5 2.2-0.5 1.3 0 2.3 0.6 1 0.7 1.4 1.9l-1.5 0.4q-0.2-0.8-0.8-1.2-0.6-0.4-1.4-0.4-0.9 0-1.5 0.4-0.6 0.4-0.8 1.2-0.3 0.7-0.3 1.6 0 1.4 0.6 2.3 0.7 0.9 2 0.9 0.8 0 1.4-0.4 0.5-0.4 0.8-1.1l1.5 0.4q-0.5 1.2-1.4 1.8-1 0.7-2.3 0.7zm10.1-0.3q-0.8 0.2-1.5 0.1-0.8 0-1.4-0.3-0.5-0.2-0.8-0.8-0.3-0.5-0.3-1.1 0-0.5 0-1.1v-4.2h-1.8v-1.2h1.8v-2.4h1.4v2.4h2.6v1.2h-2.6v4.1q0 0.5 0 0.9 0 0.4 0.2 0.6 0.3 0.6 0.9 0.6 0.6 0.1 1.5 0zm5 0.2q-0.8 0-1.4-0.2-0.6-0.3-1-0.7-0.4-0.5-0.6-1-0.2-0.6-0.3-1.1-0.1-0.6-0.1-1.1v-4.7h1.4v4.3q0 0.6 0.1 1.2 0.1 0.5 0.4 1 0.3 0.4 0.7 0.7 0.5 0.3 1.2 0.3 0.5 0 0.9-0.2 0.5-0.2 0.8-0.6 0.3-0.3 0.5-0.9 0.1-0.5 0.1-1.3v-4.5h1.4v8.6h-1.2v-1.1q-0.4 0.5-1 0.8-0.8 0.5-1.9 0.5zm6.4-0.2v-8.6h1.2v1.3q0.1-0.1 0.2-0.2 0.3-0.4 0.6-0.6 0.3-0.3 0.7-0.4 0.5-0.2 0.9-0.2 0.4 0 0.8 0.1v1.3q-0.4-0.1-1-0.1-0.5 0.1-0.9 0.4-0.5 0.3-0.7 0.8-0.2 0.4-0.3 0.9-0.1 0.5-0.1 1v4.3zm1.3-7.3q-0.1 0.3-0.2 0.5l0.2 0.3zm8.2 7.5q-1.2 0-2.2-0.6-0.9-0.6-1.4-1.6-0.6-1-0.6-2.3 0-1.4 0.5-2.5 0.6-1 1.5-1.6 0.9-0.5 2.2-0.5 1.3 0 2.2 0.6 0.9 0.6 1.4 1.7 0.4 1.1 0.4 2.6h-0.8v-1.1h-0.7q-0.1-1.2-0.6-1.8-0.7-0.8-1.9-0.8-1.3 0-2 0.9-0.5 0.6-0.6 1.7h-0.5v1.1h0.4q0.1 1.2 0.7 2 0.7 0.8 2 0.8 0.8 0 1.5-0.4 0.6-0.4 0.9-1.1l1.4 0.5q-0.5 1.1-1.5 1.7-1 0.7-2.3 0.7zm2.5-4.7q0-0.3 0-0.6h-5.1q-0.1 0.3-0.1 0.7 0 0.2 0 0.4h5.2z"/>
		<g id="Clip-Path" clip-path="url(#cp9)">
			<g id="Layer">
				<path id="Layer" fill-rule="evenodd" class="s0" d="m18.7 1272c0.5 0 1 0.5 1 1q0.7-1.4 1.7-2.5c1.6-1.5 3.7-2.5 6.1-2.5 2.3 0 4.5 1 6 2.5q1.1 1.1 1.8 2.5c0-0.5 0.4-1 1-1h28.1q0.1 0 0.1 0l0.1-0.1q0 0 0-0.1v-30.5c0-1.3-0.5-2.4-1.3-3.3-0.9-0.8-2-1.3-3.3-1.3h-40.4c-1.3 0-2.4 0.5-3.2 1.2-0.8 0.8-1.4 1.9-1.4 3.1-0.1 0.6-0.6 1-1.1 1-0.6-0.1-1-0.5-1-1.1 0.1-1.8 0.9-3.3 2.1-4.4 1.2-1.2 2.8-1.9 4.6-1.9h40.4c1.9 0 3.5 0.8 4.7 2 1.2 1.2 2 2.9 2 4.7v2.7h7.9q0.7 0 1.4 0.2 0.6 0.3 1.2 0.8l10.8 10.7q0.5 0.5 0.8 1.2 0.3 0.7 0.3 1.4v13.5c0 0.6-0.2 1.2-0.7 1.6-0.4 0.4-0.9 0.6-1.6 0.6h-1q-0.2 0-0.4 0 0.4 1.2 0.4 2.6c0 2.3-0.9 4.5-2.5 6-1.5 1.6-3.7 2.5-6 2.5-2.4 0-4.5-0.9-6.1-2.5-1.5-1.5-2.5-3.7-2.5-6q0-1.4 0.4-2.6-0.2 0-0.4 0h-32.4q-0.5 0-0.7-0.2 0.4 1.3 0.4 2.8c0 2.3-0.9 4.5-2.5 6-1.5 1.6-3.7 2.5-6 2.5-2.4 0-4.5-0.9-6.1-2.5-1.5-1.5-2.5-3.7-2.5-6q0-1.5 0.5-2.8-0.3 0.2-0.7 0.2h-3.5c-0.7 0-1.2-0.2-1.6-0.6-0.4-0.4-0.7-1-0.7-1.6v-4.2c0-0.6 0.5-1.1 1-1.1 0.6 0 1.1 0.5 1.1 1.1v4.2q0 0.1 0 0.1 0.1 0.1 0.2 0.1zm8.8-1.9c-1.8 0-3.4 0.7-4.6 1.9-1.2 1.1-1.9 2.8-1.9 4.6 0 1.8 0.7 3.4 1.9 4.6 1.2 1.1 2.8 1.9 4.6 1.9 1.8 0 3.4-0.8 4.6-1.9 1.1-1.2 1.9-2.8 1.9-4.6 0-1.8-0.8-3.5-1.9-4.6-1.2-1.2-2.8-1.9-4.6-1.9zm-3 3.5c0.8-0.8 1.8-1.3 3-1.3 1.1 0 2.1 0.5 2.9 1.2v0.1c0.8 0.7 1.3 1.8 1.3 3 0 1.1-0.5 2.2-1.3 2.9-0.7 0.8-1.8 1.3-2.9 1.3-1.2 0-2.2-0.5-3-1.3-0.8-0.7-1.2-1.8-1.2-2.9 0-1.2 0.4-2.3 1.2-3zm3 0.8c-0.6 0-1.2 0.3-1.6 0.6-0.3 0.4-0.6 1-0.6 1.6 0 0.6 0.3 1.1 0.6 1.5 0.4 0.4 1 0.6 1.6 0.6 0.6 0 1.1-0.2 1.5-0.6 0.4-0.4 0.6-0.9 0.6-1.5 0-0.6-0.2-1.2-0.6-1.6-0.4-0.4-1-0.6-1.5-0.6zm49.8-4.3c-1.8 0-3.5 0.7-4.6 1.9-1.2 1.1-1.9 2.8-1.9 4.6 0 1.8 0.7 3.4 1.9 4.6 1.1 1.1 2.8 1.9 4.6 1.9 1.8 0 3.4-0.8 4.6-1.9 1.1-1.2 1.9-2.8 1.9-4.6 0-1.8-0.8-3.5-1.9-4.6-1.2-1.2-2.8-1.9-4.6-1.9zm-6.1 0.4c1.6-1.5 3.7-2.5 6.1-2.5 2.3 0 4.5 1 6 2.5q1 1 1.6 2.2c0.1-0.4 0.5-0.7 0.9-0.7h1q0.1 0 0.2-0.1 0 0 0-0.1v-13.5q0-0.3-0.1-0.6-0.1-0.3-0.3-0.5l-10.9-10.7q-0.2-0.2-0.5-0.3-0.3-0.2-0.6-0.2h-7.9v25.8q0 0.1 0 0.2h2c0.4 0 0.8 0.3 0.9 0.7q0.7-1.2 1.6-2.2zm3.1 3.1c0.7-0.8 1.8-1.2 3-1.2 1.1 0 2.1 0.4 2.9 1.1v0.1c0.8 0.7 1.3 1.8 1.3 3 0 1.1-0.5 2.2-1.3 2.9-0.7 0.8-1.8 1.3-2.9 1.3-1.2 0-2.3-0.5-3-1.3-0.8-0.7-1.3-1.8-1.3-2.9 0-1.2 0.5-2.3 1.3-3zm3 0.8c-0.6 0-1.2 0.3-1.6 0.6-0.4 0.4-0.6 1-0.6 1.6 0 0.6 0.2 1.1 0.6 1.5 0.4 0.4 1 0.6 1.6 0.6 0.5 0 1.1-0.2 1.5-0.6 0.4-0.4 0.6-0.9 0.6-1.5 0-0.6-0.2-1.2-0.6-1.6h-0.1c-0.3-0.4-0.9-0.6-1.4-0.6zm-0.7-22.6q0.4 0 0.7 0.1l0.1 0.1q0.4 0.1 0.7 0.4l4.8 4.8q0.4 0.3 0.5 0.7 0.2 0.4 0.2 0.8v2.6c0 0.6-0.2 1.1-0.6 1.5l-0.1 0.1c-0.4 0.4-0.9 0.7-1.6 0.7h-9.9c-0.6 0-1.2-0.3-1.6-0.7-0.4-0.4-0.7-1-0.7-1.6v-7.2c0-0.7 0.3-1.2 0.7-1.6 0.4-0.4 1-0.7 1.6-0.7zm-5.2 2q-0.1 0-0.1 0.1-0.1 0.1-0.1 0.2v7.2q0 0.1 0.1 0.2 0 0 0.1 0h10q0 0 0.1 0v-0.1q0.1 0 0.1-0.1v-2.6q0 0 0 0-0.1-0.1-0.1-0.1l-4.8-4.7q0 0 0-0.1z"/>
				<path id="Layer" class="s2" d="m24.5 1260.3h-15.4c-1.2 0-2.2 1-2.2 2.2 0 1.2 1 2.2 2.2 2.2h15.4c1.2 0 2.2-1 2.2-2.2 0-1.2-1-2.2-2.2-2.2z"/>
				<path id="Layer" class="s2" d="m21 1252.2h-15.4c-1.2 0-2.2 1-2.2 2.2 0 1.2 1 2.2 2.2 2.2h15.4c1.2 0 2.2-1 2.2-2.2 0-1.2-1-2.2-2.2-2.2z"/>
				<path id="Layer" class="s2" d="m18.1 1243.9h-15.4c-1.2 0-2.2 0.9-2.2 2.1 0 1.3 1 2.2 2.2 2.2h15.4c1.2 0 2.2-0.9 2.2-2.2 0-1.2-1-2.1-2.2-2.1z"/>
			</g>
		</g>
		<path id="Layer" fill-rule="evenodd" class="s0" d="m33.4 1332.6q-1.2 0-2.2-0.4-1-0.4-1.6-1.2-0.7-0.8-0.8-1.8l1.4-0.2q0.3 1 1.2 1.7 0.9 0.6 2.1 0.6 0.7 0 1.4-0.3 0.6-0.2 1-0.7 0.3-0.4 0.3-1.1 0-0.3-0.1-0.6-0.1-0.3-0.4-0.5-0.2-0.2-0.5-0.3-0.3-0.2-0.6-0.2l-2.9-0.9q-0.5-0.2-0.9-0.4-0.5-0.2-0.8-0.5-0.4-0.4-0.6-0.8-0.2-0.5-0.2-1.1 0-1 0.5-1.8 0.6-0.7 1.5-1.1 0.9-0.4 2-0.3 1.2 0 2.1 0.4 0.9 0.4 1.5 1.1 0.6 0.8 0.8 1.8l-1.5 0.3q-0.1-0.7-0.5-1.2-0.4-0.5-1-0.8-0.7-0.3-1.4-0.3-0.7 0-1.3 0.2-0.5 0.2-0.9 0.7-0.3 0.4-0.3 0.9 0 0.5 0.3 0.9 0.3 0.3 0.7 0.5 0.5 0.2 0.9 0.3l2.2 0.6q0.4 0.1 0.9 0.3 0.5 0.2 0.9 0.5 0.5 0.3 0.8 0.9 0.3 0.5 0.3 1.4 0 0.8-0.3 1.4-0.4 0.7-1 1.1-0.6 0.4-1.3 0.7-0.8 0.2-1.7 0.2zm12.1-0.2v-4.3q0-0.7-0.1-1.2-0.1-0.6-0.4-1-0.3-0.5-0.7-0.8-0.5-0.2-1.1-0.2-0.6 0-1 0.2-0.4 0.1-0.8 0.5-0.3 0.4-0.4 0.9-0.2 0.6-0.2 1.3v4.6h-1.4v-11.5h1.2v4q0.4-0.6 1-0.9 0.8-0.5 1.9-0.5 0.8 0 1.4 0.3 0.6 0.3 1 0.7 0.4 0.4 0.6 1 0.2 0.5 0.3 1.1 0.1 0.5 0.1 1v4.8zm3.7-10.2v-1.4h1.4v1.4zm0 10.2v-8.6h1.4v8.6zm7.8 0.2q-1.2 0-2-0.6-0.3-0.2-0.5-0.4v4.6h-1.5v-12.4h1.3v0.9q0.3-0.3 0.7-0.6 0.8-0.6 2-0.6 1.2 0 2.1 0.6 0.8 0.6 1.3 1.6 0.5 1.1 0.5 2.4 0 1.2-0.5 2.3-0.5 1-1.3 1.6-0.9 0.6-2.1 0.6zm-0.2-1.3q0.9 0 1.4-0.4 0.6-0.5 0.9-1.2 0.3-0.7 0.3-1.6 0-1-0.3-1.7-0.3-0.7-0.9-1.2-0.5-0.4-1.4-0.4-0.8 0-1.4 0.4-0.5 0.4-0.8 1.2-0.3 0.7-0.3 1.7 0 0.9 0.3 1.6 0.2 0.8 0.8 1.2 0.6 0.4 1.4 0.4z"/>
		<path id="Layer" fill-rule="evenodd" class="s3" d="m59.9 1395.2c0 8.3-6.8 15-15.1 15-8.3 0-15.1-6.7-15.1-15 0-8.3 6.8-15.1 15.1-15.1 8.3 0 15.1 6.8 15.1 15.1zm-1.8 0c0-7.3-6-13.3-13.3-13.3-7.3 0-13.3 6-13.3 13.3 0 7.3 6 13.3 13.3 13.3 7.3 0 13.3-6 13.3-13.3z"/>
		<path id="Layer" fill-rule="evenodd" class="s3" d="m45.7 1388.9v5.4c2.5 0 4.5 2 4.5 4.5 0 2.5-2 4.5-4.5 4.5v1.3c0 0.5-0.4 0.9-0.9 0.9-0.5 0-0.9-0.4-0.9-0.9v-1.3c-2.5 0-4.5-2.1-4.5-4.5 0-0.5 0.4-0.9 0.9-0.9 0.5 0 0.9 0.4 0.9 0.9 0 1.5 1.2 2.7 2.7 2.7v-5.4c-1.2 0-2.3-0.5-3.2-1.4-0.8-0.8-1.3-1.9-1.3-3.1 0-1.2 0.5-2.3 1.4-3.2 0.8-0.8 1.9-1.3 3.1-1.3v-1.3c0-0.5 0.4-0.9 0.9-0.9 0.5 0 0.9 0.4 0.9 0.9v1.3c2.5 0 4.5 2 4.5 4.5 0 0.5-0.4 0.9-0.9 0.9-0.5 0-0.9-0.4-0.9-0.9 0-1.5-1.2-2.7-2.7-2.7zm-1.8 5.4v-5.4c-0.7 0-1.4 0.3-1.9 0.8-0.5 0.5-0.8 1.2-0.8 1.9 0 0.7 0.3 1.4 0.8 1.9 0.5 0.5 1.2 0.8 1.9 0.8zm1.8 1.8v5.4c1.5 0 2.7-1.2 2.7-2.7 0-1.5-1.2-2.7-2.7-2.7z"/>
		<path id="Layer" fill-rule="evenodd" class="s0" d="m59.9 1429.4v18c0 0.3-0.2 0.6-0.4 0.8l-14.2 8.9q-0.2 0.1-0.5 0.1-0.2 0-0.5-0.1l-14.1-9c-0.3-0.1-0.5-0.4-0.5-0.7v-18q0-0.2 0.1-0.3 0 0 0-0.1 0.1-0.1 0.2-0.2 0.1-0.1 0.2-0.2l14.2-8.1c0.2-0.2 0.6-0.2 0.9 0l14.1 8.1q0.1 0.1 0.2 0.2 0 0 0 0 0.1 0.1 0.2 0.2 0 0.1 0 0.1 0.1 0.1 0.1 0.3zm-27.5 0l12.4 7.4 12.4-7.4-12.4-7.1zm25.7 17.5v-16l-12.8 7.7q-0.2 0.1-0.5 0.1-0.2 0-0.4-0.1l-12.9-7.7v16l13.3 8.4z"/>
		<path id="Layer" class="s0" d="m24.9 1434.3c-0.5 0-0.9 0.4-0.9 0.9v4.3c-5.9-5.3-9.3-12.8-9.3-20.8 0-8.7 3.9-16.7 10.7-22 0.4-0.3 0.5-0.9 0.2-1.3-0.3-0.3-0.9-0.4-1.3-0.1-7.2 5.7-11.4 14.2-11.4 23.4 0 8.4 3.5 16.2 9.6 21.8h-3.8c-0.5 0-0.9 0.4-0.9 0.9 0 0.5 0.4 0.9 0.9 0.9h6.2q0.2-0.1 0.3-0.1 0.1-0.1 0.1-0.1 0.1-0.1 0.2-0.2 0.1 0 0.1 0 0 0 0-0.1 0.1-0.1 0.1-0.1 0-0.1 0-0.2 0.1-0.1 0.1-0.1v-6.2c0-0.5-0.4-0.9-0.9-0.9z"/>
		<path id="Layer" class="s0" d="m67.1 1396.9h3.8c0.5 0 0.9-0.4 0.9-0.9 0-0.5-0.4-0.9-0.9-0.9h-6.2q0 0 0 0-0.1 0-0.2 0-0.1 0.1-0.1 0.1-0.1 0-0.2 0.1-0.1 0-0.1 0.1 0 0-0.1 0 0 0.1 0 0.1 0 0.1-0.1 0.2 0 0.1 0 0.2 0 0 0 0.1v6.2c0 0.4 0.4 0.8 0.9 0.8 0.4 0 0.8-0.4 0.8-0.9v-4.2c6 5.3 9.3 12.8 9.3 20.8 0 8.6-3.9 16.6-10.7 22-0.4 0.3-0.4 0.8-0.1 1.2 0.1 0.2 0.4 0.4 0.7 0.4q0.2 0 0.5-0.2c7.3-5.7 11.4-14.2 11.4-23.4 0-8.4-3.5-16.2-9.6-21.8z"/>
		<path id="Layer" fill-rule="evenodd" class="s0" d="m36.3 1491.4q-1.2 0-2.2-0.4-1-0.4-1.6-1.2-0.6-0.8-0.8-1.8l1.4-0.3q0.3 1.1 1.2 1.7 0.9 0.7 2.1 0.6 0.7 0 1.4-0.2 0.6-0.2 1-0.7 0.3-0.4 0.3-1.1 0-0.3-0.1-0.6-0.1-0.3-0.4-0.5-0.2-0.2-0.5-0.3-0.3-0.2-0.6-0.3l-2.9-0.8q-0.5-0.2-0.9-0.4-0.5-0.2-0.8-0.5-0.4-0.4-0.6-0.8-0.2-0.5-0.2-1.1 0-1.1 0.5-1.8 0.6-0.7 1.5-1.1 0.9-0.4 2-0.4 1.2 0.1 2.1 0.5 0.9 0.4 1.5 1.1 0.6 0.8 0.8 1.8l-1.5 0.3q-0.1-0.7-0.5-1.2-0.4-0.6-1-0.8-0.7-0.3-1.4-0.3-0.7 0-1.3 0.2-0.5 0.2-0.9 0.7-0.3 0.4-0.3 0.9 0 0.5 0.3 0.8 0.3 0.4 0.7 0.6 0.5 0.2 0.9 0.3l2.2 0.6q0.4 0.1 0.9 0.3 0.5 0.2 0.9 0.5 0.5 0.3 0.8 0.9 0.3 0.5 0.3 1.3 0 0.9-0.3 1.5-0.4 0.7-1 1.1-0.6 0.4-1.3 0.7-0.8 0.2-1.7 0.2zm9.7 0q-1.3 0-2.2-0.6-1-0.5-1.5-1.5-0.5-1-0.5-2.4 0-1.4 0.5-2.4 0.5-1.1 1.4-1.6 1-0.6 2.2-0.6 1.3 0 2.2 0.6 1 0.6 1.4 1.7 0.5 1.1 0.4 2.6h-0.7v-1.1h-0.8q-0.1-1.1-0.6-1.7-0.6-0.8-1.8-0.8-1.3 0-2 0.8-0.5 0.7-0.7 1.7h-0.5v1.1h0.5q0.1 1.3 0.7 2 0.7 0.8 1.9 0.8 0.9 0 1.5-0.3 0.6-0.4 1-1.2l1.4 0.5q-0.5 1.2-1.5 1.8-1.1 0.6-2.3 0.6zm2.5-4.2h-5.2q0-0.1 0-0.4 0-0.3 0-0.7h5.1q0.1 0.3 0.1 0.6zm3.3 4v-11.8h1.5v11.8zm3.9 0v-11.8h1.5v11.8z"/>
	</g>
	<path id="Layer" fill-rule="evenodd" class="s4" d="m133 72v443.2"/>
	<path id="Layer" class="s0" d="m132.4 1498.1c0.6 0.6 1.6 0.6 2.2 0l9.5-9.6c0.6-0.6 0.6-1.5 0-2.1-0.6-0.6-1.5-0.6-2.1 0l-8.5 8.5-8.5-8.5c-0.6-0.6-1.5-0.6-2.1 0-0.6 0.6-0.6 1.5 0 2.1zm-0.4-1426v1425h3v-1425z"/>
	<path id="Layer" class="s4" d="m158 73.5h-51"/>
	<path id="Layer" class="s4" d="m133 645.5h-25"/>
	<path id="Layer" class="s5" d="m117 334h25v122h-25z"/>
	<path id="Layer" class="s5" d="m117.5 791h25v159h-25z"/>
	<path id="Layer" fill-rule="evenodd" class="s0" d="m122.6 344.3q0-1.3 0.6-2.5 0.5-1.1 1.5-1.9 1-0.8 2.2-1.2l0.8 2.8q-0.7 0.2-1.2 0.6-0.5 0.5-0.8 1.1-0.3 0.6-0.3 1.2 0 0.9 0.4 1.5 0.4 0.7 1.1 1.2 0.7 0.4 1.5 0.4 0.9 0 1.6-0.5 0.7-0.4 1.1-1.1 0.4-0.7 0.4-1.5 0-1-0.4-1.6-0.3-0.7-0.8-1l0.8-2.5 9.2 0.5v9.4h-2.7v-6.8l-4.3-0.3q0.3 0.5 0.5 1 0.3 0.9 0.3 1.7 0 1.6-0.8 2.9-0.7 1.2-2 1.9-1.2 0.8-2.9 0.8-1.6 0-2.9-0.9-1.3-0.8-2.1-2.2-0.8-1.4-0.8-3zm15-1.9h1l-1-1zm-4.3-0.3q-0.2-0.3-0.4-0.6l-0.7 0.5zm-2.8 10.9h2.3v7.2h-2.3zm-7.8 15.3q0-1.3 0.5-2.5 0.5-1.1 1.4-2 0.9-0.8 2.2-1.2l0.7 2.8q-1 0.3-1.5 1.1-0.6 0.8-0.6 1.8 0 0.8 0.4 1.5 0.4 0.7 1.1 1 0.7 0.4 1.5 0.4 1.3 0 2.1-0.8 0.9-0.8 0.9-2.1 0-0.4-0.1-0.8-0.1-0.4-0.3-0.7l2.3-1.4 4.3 5v-7.1h2.7v10.6h-2.8l-3.7-3.9q-0.2 1.1-0.8 1.9-0.7 1.1-1.9 1.7-1.3 0.6-2.7 0.6-1.6 0-2.9-0.8-1.3-0.8-2.1-2.2-0.7-1.3-0.7-2.9zm14.9 2.1v1.1l0.7-0.2zm-3.8-0.5q0.1-0.4 0.1-0.8h-0.8zm-11.2 13.5q0-1.8 0.8-3.2 0.8-1.4 2.2-2.2 1.4-0.8 3.2-0.8h5.6q1.8 0 3.2 0.8 1.4 0.8 2.2 2.2 0.8 1.4 0.8 3.2 0 1.9-0.8 3.3-0.8 1.4-2.2 2.2-1.4 0.7-3.2 0.7h-5.6q-1.8 0-3.2-0.7-1.4-0.8-2.2-2.2-0.8-1.4-0.8-3.3zm2.7 0q0 0.9 0.5 1.7 0.4 0.7 1.1 1.2 0.8 0.4 1.7 0.4h6q0.9 0 1.6-0.4 0.8-0.5 1.2-1.2 0.5-0.8 0.5-1.7 0-0.9-0.5-1.6-0.4-0.8-1.2-1.2-0.7-0.4-1.6-0.4h-6q-0.9 0-1.7 0.4-0.7 0.4-1.1 1.2-0.5 0.7-0.5 1.6zm-2.7 19.6q0-1.8 0.9-3.1 0.9-1.3 2.4-2.1 1.6-0.7 3.5-0.7 2 0 3.5 0.7 1.6 0.8 2.5 2.1 0.9 1.4 0.9 3.2 0 1.9-0.9 3.1-0.1 0.1-0.1 0.1h4.9v3h-17.3v-2.6h1q-0.2-0.2-0.4-0.5-0.9-1.3-0.9-3.2zm2.6 0.5q0 1.1 0.5 1.8 0.5 0.7 1.5 1.1 1 0.3 2.2 0.3 0 0 0 0 1.3 0 2.2-0.3 1-0.4 1.5-1 0.6-0.7 0.6-1.8 0-1.2-0.6-2-0.6-0.7-1.5-1.1-1-0.3-2.2-0.3-1.2 0-2.1 0.3-1 0.4-1.6 1.1-0.5 0.7-0.5 1.9zm-2.6 12.8q0-1.4 0.5-2.4 0.6-1 1.4-1.5 0.9-0.5 2-0.5 0.9 0 1.7 0.3 0.7 0.3 1.3 1 0.5 0.6 0.9 1.7 0.2 0.7 0.4 1.8 0.2 1 0.4 2.3 0.1 0.7 0.2 1.5 1-0.1 1.6-0.6 0.6-0.6 0.6-2 0-0.9-0.4-1.7-0.4-0.9-1.4-1.2l0.8-2.6q1.7 0.5 2.7 1.8 1 1.4 1 3.7 0 1.7-0.6 3-0.6 1.3-1.8 1.9-0.7 0.4-1.5 0.5-0.7 0-1.5 0h-8v-2.5h1.8q-1-0.7-1.5-1.6-0.6-1.2-0.6-2.9zm8.8 4.2q-0.2 0-0.4 0l0.6 1q-0.1-0.5-0.2-1zm-6.7 0.3q0.3 0.2 0.6 0.4l0.5-0.4zm0.2-4q0 1 0.3 1.7 0.3 0.7 0.9 1.1 0.5 0.4 0.9 0.6 0.6 0.2 1.3 0.2 0.4 0.1 0.7 0.1-0.1-0.8-0.2-1.4-0.2-0.9-0.3-1.6-0.1-0.7-0.3-1.2-0.2-0.5-0.4-0.8-0.3-0.4-0.6-0.6-0.3-0.2-0.7-0.2-0.5 0-0.9 0.3-0.3 0.2-0.5 0.7-0.2 0.4-0.2 1.1zm4.1 3.7q0.1 0.4 0.2 0.9l0.2-0.9q-0.2 0-0.4 0zm-11.9 6.9l5.9 2.2 12.9-5.3v3l-9.3 3.7 9.3 3.5v2.9l-18.8-7.3zm5.9 2.2l-1 0.4 2-0.1zm3.6 1.4l-1-0.3v0.7zm-4 13.2q0-2.4 1-3.9 1.1-1.5 3.1-1.8l0.4 3q-0.9 0.2-1.5 1-0.5 0.7-0.5 1.9 0 1.1 0.4 1.6 0.4 0.6 1.1 0.6 0.5 0 0.7-0.2 0.3-0.2 0.5-0.9 0.3-0.7 0.7-2.2 0.4-1.6 0.9-2.6 0.5-0.9 1.2-1.4 0.7-0.4 1.7-0.4 1.2 0 2.1 0.7 0.9 0.6 1.3 1.7 0.5 1.2 0.5 2.7 0 1.5-0.4 2.7-0.5 1.2-1.4 1.9-0.8 0.7-2 0.9l-0.5-3q0.8-0.1 1.3-0.7 0.5-0.7 0.5-1.7 0.1-1-0.3-1.7-0.3-0.6-1-0.6-0.4 0-0.6 0.3-0.3 0.2-0.6 1-0.2 0.7-0.6 2.2-0.4 1.6-0.9 2.5-0.5 1-1.2 1.4-0.7 0.4-1.8 0.4-1.9 0-3-1.4-1.1-1.5-1.1-4z"/>
	<path id="Layer" fill-rule="evenodd" class="s0" d="m122.7 797.6q0-1.3 0.5-2.4 0.5-1.2 1.4-2 0.9-0.9 2.2-1.2l0.7 2.8q-1 0.3-1.5 1-0.6 0.9-0.6 1.8 0 0.9 0.4 1.5 0.4 0.7 1.1 1.1 0.7 0.4 1.5 0.4 1.3 0 2.1-0.9 0.9-0.8 0.9-2.1 0-0.4-0.1-0.8-0.1-0.3-0.3-0.7l2.3-1.3 4.3 5v-7.2h2.7v10.6h-2.8l-3.7-3.9q-0.2 1.1-0.8 1.9-0.7 1.1-1.9 1.7-1.3 0.6-2.7 0.6-1.6 0-2.9-0.8-1.3-0.8-2.1-2.1-0.7-1.4-0.7-3zm14.9 2.2v1.1l0.7-0.3zm-3.8-0.4q0.1-0.4 0.1-0.9l-0.8 0.1zm-11.2 13.5q0-1.9 0.8-3.3 0.8-1.4 2.2-2.2 1.4-0.7 3.2-0.7h5.6q1.8 0 3.2 0.7 1.4 0.8 2.2 2.2 0.8 1.4 0.8 3.3 0 1.8-0.8 3.2-0.8 1.4-2.2 2.2-1.4 0.8-3.2 0.8h-5.6q-1.8 0-3.2-0.8-1.4-0.8-2.2-2.2-0.8-1.4-0.8-3.2zm2.7 0q0 0.9 0.5 1.6 0.4 0.8 1.1 1.2 0.8 0.4 1.7 0.4h6q0.9 0 1.6-0.4 0.8-0.4 1.2-1.2 0.5-0.7 0.5-1.6 0-0.9-0.5-1.7-0.4-0.7-1.2-1.2-0.7-0.4-1.6-0.4h-6q-0.9 0-1.7 0.4-0.7 0.5-1.1 1.2-0.5 0.8-0.5 1.7zm5.2 9.3h2.2v7.2h-2.2zm-7.6 13.3h14.2l-2-3.2h3.2l1.9 3.2v3h-17.3zm0.1 7h2.5l6.6 7.4q0.7 0.9 1.4 1.2 0.7 0.4 1.4 0.4 0.8 0 1.5-0.4 0.7-0.4 1.1-1 0.4-0.7 0.4-1.5 0-0.9-0.5-1.6-0.4-0.7-1-1.1-0.7-0.4-1.5-0.4v-2.9q1.7 0 3 0.7 1.3 0.8 2 2.2 0.7 1.3 0.7 3.1 0 1.7-0.8 3-0.7 1.3-2 2.1-1.3 0.7-3 0.7-1.2 0-2.1-0.3-0.8-0.3-1.5-1-0.7-0.7-1.6-1.7l-3.9-4.4v7.4h-2.7zm2.7 4.5v-1.1l-0.7 0.3zm-3.1 16.5q0-1.8 0.7-3.2 0.8-1.4 2.2-2.2 1.4-0.8 3.3-0.8h5.6q1.8 0 3.2 0.8 1.4 0.8 2.2 2.2 0.8 1.4 0.8 3.2 0 1.8-0.8 3.2-0.8 1.4-2.2 2.2-1.4 0.8-3.2 0.8h-5.6q-1.9 0-3.3-0.8-1.4-0.8-2.2-2.2-0.7-1.4-0.7-3.2zm2.7 0q0 0.9 0.4 1.7 0.5 0.7 1.2 1.1 0.8 0.5 1.7 0.5h6q0.9 0 1.6-0.5 0.8-0.4 1.2-1.1 0.4-0.8 0.4-1.7 0-0.9-0.4-1.7-0.4-0.7-1.2-1.1-0.7-0.5-1.6-0.5h-6q-0.9 0-1.7 0.5-0.7 0.4-1.2 1.1-0.4 0.8-0.4 1.7zm-2.7 19.6q0-1.8 0.9-3.1 0.9-1.4 2.4-2.1 1.6-0.7 3.5-0.7 2 0 3.5 0.7 1.6 0.7 2.4 2.1 0.9 1.4 0.9 3.2 0 1.8-0.9 3.1 0 0.1 0 0.1h4.9v2.9h-17.3v-2.5h1q-0.2-0.3-0.4-0.5-0.9-1.3-0.9-3.2zm2.6 0.4q0 1.2 0.5 1.9 0.5 0.7 1.5 1 0.9 0.4 2.2 0.4 1.3 0 2.2-0.4 1-0.3 1.5-1 0.6-0.7 0.6-1.8 0-1.1-0.6-1.9-0.6-0.8-1.6-1.1-0.9-0.4-2.1-0.4-1.2 0-2.2 0.4-0.9 0.3-1.5 1.1-0.5 0.7-0.5 1.8zm-2.6 12.8q0-1.4 0.5-2.4 0.5-0.9 1.4-1.4 0.9-0.5 2-0.5 0.9 0 1.7 0.3 0.7 0.3 1.3 1 0.5 0.6 0.9 1.6 0.2 0.8 0.4 1.9 0.2 1 0.4 2.2 0.1 0.8 0.2 1.6 1-0.1 1.6-0.6 0.6-0.6 0.6-2.1 0-0.9-0.4-1.7-0.4-0.8-1.4-1.1l0.8-2.7q1.7 0.5 2.7 1.9 0.9 1.3 0.9 3.6 0 1.7-0.5 3.1-0.6 1.3-1.9 1.9-0.6 0.4-1.4 0.4-0.7 0.1-1.5 0.1h-8v-2.5h1.8q-1-0.8-1.5-1.7-0.6-1.1-0.6-2.9zm8.8 4.3q-0.2 0-0.4 0l0.6 1q-0.1-0.5-0.2-1zm-6.7 0.3q0.3 0.2 0.6 0.4l0.4-0.4zm0.2-4q0 1 0.4 1.7 0.3 0.7 0.8 1.1 0.5 0.4 1 0.5 0.5 0.3 1.2 0.3 0.5 0 0.8 0-0.1-0.7-0.2-1.3-0.2-1-0.3-1.6-0.1-0.7-0.3-1.2-0.2-0.5-0.4-0.9-0.3-0.3-0.6-0.5-0.3-0.2-0.7-0.2-0.5 0-0.9 0.3-0.3 0.2-0.5 0.6-0.3 0.5-0.3 1.2zm4.2 3.6q0.1 0.5 0.1 0.9l0.3-0.9q-0.2 0-0.4 0zm-11.9 7l5.9 2.1 12.9-5.2v3l-9.3 3.6 9.3 3.6v2.8l-18.8-7.2zm5.9 2.1l-1 0.5 2-0.1zm3.6 1.4l-1-0.4v0.8zm-4.1 13.2q0-2.4 1.1-3.9 1.1-1.5 3.1-1.8l0.4 2.9q-1 0.3-1.5 1-0.6 0.8-0.6 2 0 1.1 0.5 1.6 0.4 0.6 1.1 0.6 0.4 0 0.7-0.2 0.3-0.2 0.5-0.9 0.3-0.7 0.7-2.2 0.4-1.6 0.9-2.6 0.5-1 1.2-1.4 0.7-0.4 1.6-0.4 1.2 0 2.1 0.6 0.9 0.7 1.4 1.8 0.5 1.2 0.5 2.7 0 1.5-0.5 2.7-0.4 1.2-1.3 1.9-0.8 0.7-2 0.9l-0.5-3q0.8-0.1 1.3-0.7 0.4-0.7 0.5-1.8 0.1-1-0.3-1.6-0.4-0.6-1-0.6-0.4 0-0.7 0.2-0.2 0.3-0.5 1-0.3 0.8-0.6 2.3-0.4 1.6-0.9 2.5-0.6 0.9-1.3 1.3-0.7 0.5-1.7 0.5-1.9 0-3-1.5-1.2-1.4-1.2-3.9zm3.6 16.8h4.3v-4.3h2.3v4.3h4.3v2.3h-4.3v4.3h-2.3v-4.3h-4.3z"/>
	<g id="Clip-Path" clip-path="url(#cp10)">
		<g id="Layer">
			<path id="Layer" fill-rule="evenodd" class="s0" d="m252 97.4h1.2c0.5 0 0.8 0.4 0.9 0.8l0.5 8.6 1.3 20.3h2.4c0.4 0 0.8 0.4 0.8 0.8v32.1c0 0.5-0.4 0.9-0.8 0.9h-85.8c-0.5 0-0.8-0.4-0.8-0.9v-32.1c0-0.4 0.3-0.8 0.8-0.8h3.1l27.3-14.3c0.2-0.1 0.5-0.1 0.7 0 0.3 0.2 0.4 0.4 0.5 0.7l1.4 13.1 26.4-13.8c0.3-0.1 0.6-0.1 0.8 0 0.2 0.2 0.4 0.4 0.4 0.7l1.5 13.6h5.1v-28.9c0-0.4 0.4-0.8 0.8-0.8h0.3m0.6 20.1l10.3-9.8h-10.3zm1.2 1.1h11.1l-0.6-9.9zm9.8-19.6h-11.1v7h11.5zm-11 28h12.8l-0.4-6.8h-12.4zm-9.8-12.2l-23.4 12.2h24.8zm-52.5 12.2h24.8l-1.4-12.2zm78.3 32.1v-30.4h-84.2v12.1h67.2c0.5 0 0.9 0.4 0.9 0.9v17.4h16.1zm-84.2 0h8.2v-8.8c0-0.5 0.4-0.9 0.8-0.9h16.8c0.5 0 0.8 0.4 0.8 0.9v8.8h12.5v-8.8c0-0.5 0.4-0.9 0.8-0.9h16.8c0.5 0 0.8 0.4 0.8 0.9v8.8h8.9v-16.6h-66.4zm55.9 0v-8h-15.1v8zm-30.9 0v-8h-15.1v8z"/>
			<path id="Layer" fill-rule="evenodd" class="s6" d="m185.5 79c0-2.4 2-4.4 4.4-4.4h6.8c2.4 0 4.4 2 4.4 4.4 0 2.5-2 4.4-4.4 4.4h-6.8c-2.4 0-4.4-1.9-4.4-4.4zm1.7 0c0 1.5 1.2 2.8 2.7 2.8h6.8c1.5 0 2.7-1.3 2.7-2.8 0-1.5-1.2-2.7-2.7-2.7h-6.8c-1.5 0-2.7 1.2-2.7 2.7z"/>
			<path id="Layer" fill-rule="evenodd" class="s6" d="m184.1 92.9c0-3.1 2.5-5.6 5.6-5.6h9.1c3.1 0 5.6 2.5 5.6 5.6 0 3.1-2.5 5.7-5.6 5.7h-9.1c-3.1 0-5.6-2.6-5.6-5.7zm5.6-3.9c-2.2 0-4 1.8-4 3.9 0 2.2 1.8 4 4 4h9.1c2.2 0 3.9-1.8 3.9-4 0-2.1-1.7-3.9-3.9-3.9h-9.1z"/>
			<path id="Layer" fill-rule="evenodd" class="s6" d="m236 99h-2.7c-2.8 0-5.1-2.1-5.5-4.8h-10.8c-3.1 0-5.7-2.5-5.7-5.6q0-0.2 0.1-0.4h-0.3c-2.4 0-4.4-2-4.4-4.4 0-2.4 2-4.4 4.4-4.4h6.8c2.2 0 4 1.5 4.4 3.6h11.8c-0.8-0.8-1.2-1.9-1.2-3.1 0-2.5 2-4.5 4.5-4.5h7c2.5 0 4.6 2 4.6 4.5 0 2.5-2.1 4.5-4.6 4.5h-2.3c0.9 0.9 1.6 2.1 1.8 3.4h10.7c3.1 0 5.7 2.5 5.7 5.6 0 3.1-2.6 5.6-5.7 5.6h-0.5m-19.6-19.1c0 1.6 1.3 2.9 2.9 2.9h7c1.6 0 2.9-1.3 2.9-2.9 0-1.6-1.3-2.8-2.9-2.8h-7c-1.6 0-2.9 1.2-2.9 2.8zm-5.1 13.5c0 2.2 1.8 3.9 3.9 3.9h21.3c2.2 0 4-1.7 4-3.9 0-2.2-1.8-4-4-4h-11.5c-0.5 0-0.9-0.3-0.9-0.8 0-2.2-1.7-4-3.9-4h-16.8c-0.4 0-0.8-0.3-0.8-0.8 0-1.5-1.3-2.7-2.8-2.7h-6.8c-1.5 0-2.7 1.2-2.7 2.7 0 1.5 1.2 2.7 2.7 2.7h1.2c0.3 0 0.5 0.2 0.7 0.4 0.2 0.2 0.2 0.4 0.2 0.7q-0.2 0.5-0.2 1c0 2.2 1.8 3.9 4 3.9h11.5c0.5 0 0.9 0.4 0.9 0.9z"/>
		</g>
	</g>
	<g id="Clip-Path" clip-path="url(#cp11)">
		<g id="Layer">
			<path id="Layer" fill-rule="evenodd" class="s0" d="m252 200.2h1.2c0.5 0 0.8 0.4 0.9 0.8l0.5 8.6 1.3 20.3h2.4c0.4 0 0.8 0.4 0.8 0.8v32.1c0 0.5-0.4 0.9-0.8 0.9h-85.8c-0.5 0-0.8-0.4-0.8-0.9v-32.1c0-0.4 0.3-0.8 0.8-0.8h3.1l27.3-14.3c0.2-0.1 0.5-0.1 0.7 0 0.3 0.2 0.4 0.4 0.5 0.7l1.4 13.1 26.4-13.8c0.3-0.1 0.6-0.1 0.8 0 0.2 0.2 0.4 0.4 0.4 0.7l1.5 13.6h5.1v-28.9c0-0.4 0.4-0.8 0.8-0.8h0.3m0.6 20.1l10.3-9.8h-10.3zm1.2 1.1h11.1l-0.6-9.9zm9.8-19.6h-11.1v7h11.5zm-11 28h12.8l-0.4-6.8h-12.4zm-9.8-12.2l-23.4 12.2h24.8zm-52.5 12.2h24.8l-1.4-12.2zm78.3 32.1v-30.4h-84.2v12.1h67.2c0.5 0 0.9 0.4 0.9 0.9v17.4h16.1zm-84.2 0h8.2v-8.8c0-0.5 0.4-0.9 0.8-0.9h16.8c0.5 0 0.8 0.4 0.8 0.9v8.8h12.5v-8.8c0-0.5 0.4-0.9 0.8-0.9h16.8c0.5 0 0.8 0.4 0.8 0.9v8.8h8.9v-16.6h-66.4zm55.9 0v-8h-15.1v8zm-30.9 0v-8h-15.1v8z"/>
			<path id="Layer" fill-rule="evenodd" class="s6" d="m185.5 181.8c0-2.4 2-4.4 4.4-4.4h6.8c2.4 0 4.4 2 4.4 4.4 0 2.5-2 4.4-4.4 4.4h-6.8c-2.4 0-4.4-1.9-4.4-4.4zm1.7 0c0 1.5 1.2 2.8 2.7 2.8h6.8c1.5 0 2.7-1.3 2.7-2.8 0-1.5-1.2-2.7-2.7-2.7h-6.8c-1.5 0-2.7 1.2-2.7 2.7z"/>
			<path id="Layer" fill-rule="evenodd" class="s6" d="m184.1 195.7c0-3.1 2.5-5.6 5.6-5.6h9.1c3.1 0 5.6 2.5 5.6 5.6 0 3.1-2.5 5.7-5.6 5.7h-9.1c-3.1 0-5.6-2.6-5.6-5.7zm5.6-3.9c-2.2 0-4 1.8-4 3.9 0 2.2 1.8 4 4 4h9.1c2.2 0 3.9-1.8 3.9-4 0-2.1-1.7-3.9-3.9-3.9h-9.1z"/>
			<path id="Layer" fill-rule="evenodd" class="s6" d="m236 201.8h-2.7c-2.8 0-5.1-2.1-5.5-4.8h-10.8c-3.1 0-5.7-2.5-5.7-5.6q0-0.2 0.1-0.4h-0.3c-2.4 0-4.4-2-4.4-4.4 0-2.4 2-4.4 4.4-4.4h6.8c2.2 0 4 1.5 4.4 3.6h11.8c-0.8-0.8-1.2-1.9-1.2-3.1 0-2.5 2-4.5 4.5-4.5h7c2.5 0 4.6 2 4.6 4.5 0 2.5-2.1 4.5-4.6 4.5h-2.3c0.9 0.9 1.6 2 1.8 3.3l10.7 0.1c3.1 0 5.7 2.5 5.7 5.6 0 3.1-2.6 5.6-5.7 5.6h-0.5m-19.6-19.1c0 1.6 1.3 2.9 2.9 2.9h7c1.6 0 2.9-1.3 2.9-2.9 0-1.6-1.3-2.9-2.9-2.9h-7c-1.6 0-2.9 1.3-2.9 2.9zm-5.1 13.5c0 2.1 1.8 3.9 3.9 3.9h21.3c2.2 0 4-1.7 4-3.9 0-2.2-1.8-4-4-4h-11.5c-0.5 0-0.9-0.4-0.9-0.8 0-2.2-1.7-4-3.9-4h-16.8c-0.4 0-0.8-0.3-0.8-0.8 0-1.5-1.3-2.7-2.8-2.7h-6.8c-1.5 0-2.7 1.2-2.7 2.7 0 1.5 1.2 2.7 2.7 2.7h1.2c0.3 0 0.5 0.2 0.7 0.4 0.2 0.2 0.2 0.4 0.2 0.7q-0.2 0.5-0.2 1c0 2.2 1.8 3.9 4 3.9h11.5c0.5 0 0.9 0.4 0.9 0.9z"/>
		</g>
	</g>
	<g id="Clip-Path" clip-path="url(#cp12)">
		<g id="Layer">
			<path id="Layer" fill-rule="evenodd" class="s0" d="m252 303h1.2c0.5 0 0.8 0.3 0.9 0.8l0.5 8.6 1.3 20.3h2.4c0.4 0 0.8 0.4 0.8 0.8v32.1c0 0.5-0.4 0.9-0.8 0.9h-85.8c-0.5 0-0.8-0.4-0.8-0.9v-32.1c0-0.4 0.3-0.8 0.8-0.8h3.1l27.3-14.3c0.2-0.1 0.5-0.1 0.7 0 0.3 0.2 0.4 0.4 0.5 0.7l1.4 13.1 26.4-13.8c0.3-0.1 0.6-0.1 0.8 0 0.2 0.2 0.4 0.4 0.4 0.7l1.5 13.6h5.1v-28.9c0-0.4 0.4-0.8 0.8-0.8h0.3m0.6 20.1l10.3-9.8h-10.3zm1.2 1.1h11.1l-0.6-9.9zm9.8-19.6h-11.1v7h11.5zm-11 28h12.8l-0.4-6.8h-12.4zm-9.8-12.2l-23.4 12.2h24.8zm-52.5 12.2h24.8l-1.4-12.2zm78.3 32.1v-30.4h-84.2v12.1h67.2c0.5 0 0.9 0.4 0.9 0.8v17.5zm-84.1 0h8.1v-8.8c0-0.5 0.4-0.9 0.8-0.9h16.8c0.5 0 0.9 0.4 0.9 0.9v8.8h12.4v-8.8c0-0.5 0.4-0.9 0.9-0.9h16.7c0.5 0 0.9 0.4 0.9 0.9v8.8h8.8v-16.6h-66.3zm55.8 0v-8h-15.1v8zm-30.9 0v-8h-15.1v8z"/>
			<path id="Layer" fill-rule="evenodd" class="s6" d="m185.5 284.6c0-2.4 2-4.4 4.4-4.4h6.8c2.4 0 4.4 2 4.4 4.4 0 2.5-2 4.4-4.4 4.4h-6.8c-2.4 0-4.4-1.9-4.4-4.4zm1.7 0c0 1.5 1.2 2.8 2.7 2.8h6.8c1.5 0 2.7-1.3 2.7-2.8 0-1.5-1.2-2.7-2.7-2.7h-6.8c-1.5 0-2.7 1.2-2.7 2.7z"/>
			<path id="Layer" fill-rule="evenodd" class="s6" d="m184.1 298.5c0-3.1 2.5-5.6 5.6-5.6h9.1c3.1 0 5.6 2.5 5.6 5.6 0 3.1-2.5 5.7-5.6 5.7h-9.1c-3.1 0-5.6-2.6-5.6-5.7zm5.6-3.9c-2.2 0-4 1.8-4 3.9 0 2.2 1.8 4 4 4h9.1c2.2 0 3.9-1.8 3.9-4 0-2.1-1.7-3.9-3.9-3.9h-9.1z"/>
			<path id="Layer" fill-rule="evenodd" class="s6" d="m236 304.6h-2.7c-2.8 0-5.1-2.1-5.5-4.8h-10.8c-3.1 0-5.7-2.5-5.7-5.6q0-0.2 0.1-0.4h-0.3c-2.4 0-4.4-2-4.4-4.4 0-2.4 2-4.4 4.4-4.4h6.8c2.2 0 4 1.5 4.4 3.6h11.8c-0.8-0.8-1.2-1.9-1.2-3.1 0-2.5 2-4.5 4.5-4.5h7c2.5 0 4.6 2 4.6 4.5 0 2.5-2.1 4.5-4.6 4.5h-2.3c0.9 0.9 1.6 2 1.8 3.3h10.7c3.1 0 5.7 2.6 5.7 5.7 0 3.1-2.6 5.6-5.7 5.6h-0.5m-19.6-19.1c0 1.6 1.3 2.9 2.9 2.9h7c1.6 0 2.9-1.3 2.9-2.9 0-1.6-1.3-2.9-2.9-2.9h-7c-1.6 0-2.9 1.3-2.9 2.9zm-5.1 13.5c0 2.1 1.8 3.9 3.9 3.9h21.3c2.2 0 4-1.7 4-3.9 0-2.2-1.8-4-4-4h-11.5c-0.5 0-0.9-0.4-0.9-0.8 0-2.2-1.7-4-3.9-4h-16.8c-0.4 0-0.8-0.3-0.8-0.8 0-1.5-1.3-2.7-2.8-2.7h-6.8c-1.5 0-2.7 1.2-2.7 2.7 0 1.5 1.2 2.7 2.7 2.7h1.2c0.3 0 0.5 0.2 0.7 0.4 0.2 0.2 0.2 0.4 0.2 0.7q-0.2 0.5-0.2 1c0 2.2 1.8 3.9 4 3.9h11.5c0.5 0 0.9 0.4 0.9 0.9z"/>
		</g>
	</g>
	<g id="Clip-Path" clip-path="url(#cp13)">
		<g id="Layer">
			<path id="Layer" fill-rule="evenodd" class="s0" d="m252 405.8h1.2c0.5 0 0.8 0.3 0.9 0.8l0.5 8.6 1.3 20.3h2.4c0.4 0 0.8 0.4 0.8 0.8v32.1c0 0.5-0.4 0.8-0.8 0.8h-85.8c-0.5 0-0.8-0.3-0.8-0.8v-32.1c0-0.4 0.3-0.8 0.8-0.8h3.1l27.3-14.3c0.2-0.1 0.5-0.1 0.7 0 0.3 0.1 0.4 0.4 0.5 0.7l1.4 13.1 26.4-13.8c0.3-0.1 0.6-0.1 0.8 0 0.2 0.1 0.4 0.4 0.4 0.7l1.5 13.6h5.1v-28.9c0-0.4 0.4-0.8 0.8-0.8h0.3m0.6 20.1l10.3-9.8h-10.3zm1.2 1.1h11.1l-0.6-9.9zm9.8-19.6h-11.1v7h11.5zm-11 28h12.8l-0.4-6.8h-12.4zm-9.8-12.2l-23.4 12.2h24.8zm-52.5 12.2h24.8l-1.4-12.2zm78.3 32.1v-30.4h-84.2v12.1h67.2c0.5 0 0.9 0.4 0.9 0.8v17.5zm-84.1 0h8.1v-8.8c0-0.5 0.4-0.9 0.8-0.9h16.8c0.5 0 0.9 0.4 0.9 0.9v8.8h12.4v-8.8c0-0.5 0.4-0.9 0.9-0.9h16.7c0.5 0 0.9 0.4 0.9 0.9v8.8h8.8v-16.6h-66.3zm55.8 0v-8h-15.1v8zm-30.9 0v-8h-15.1v8z"/>
			<path id="Layer" fill-rule="evenodd" class="s6" d="m185.5 387.4c0-2.4 2-4.4 4.4-4.4h6.8c2.4 0 4.4 2 4.4 4.4 0 2.5-2 4.4-4.4 4.4h-6.8c-2.4 0-4.4-1.9-4.4-4.4zm1.7 0c0 1.5 1.2 2.8 2.7 2.8h6.8c1.5 0 2.7-1.3 2.7-2.8 0-1.5-1.2-2.7-2.7-2.7h-6.8c-1.5 0-2.7 1.2-2.7 2.7z"/>
			<path id="Layer" fill-rule="evenodd" class="s6" d="m184.1 401.3c0-3.1 2.5-5.6 5.6-5.6h9.1c3.1 0 5.6 2.5 5.6 5.6 0 3.1-2.5 5.7-5.6 5.7h-9.1c-3.1 0-5.6-2.6-5.6-5.7zm5.6-3.9c-2.2 0-4 1.7-4 3.9 0 2.2 1.8 4 4 4h9.1c2.2 0 3.9-1.8 3.9-4 0-2.1-1.7-3.9-3.9-3.9h-9.1z"/>
			<path id="Layer" fill-rule="evenodd" class="s6" d="m236 407.4h-2.7c-2.8 0-5.1-2.1-5.5-4.8h-10.8c-3.1 0-5.7-2.5-5.7-5.6q0-0.2 0.1-0.4h-0.3c-2.4 0-4.4-2-4.4-4.4 0-2.4 2-4.4 4.4-4.4h6.8c2.2 0 4 1.5 4.4 3.5h11.8c-0.8-0.8-1.2-1.8-1.2-3 0-2.5 2-4.5 4.5-4.5h7c2.5 0 4.6 2 4.6 4.5 0 2.5-2.1 4.5-4.6 4.5h-2.3c0.9 0.9 1.6 2 1.8 3.3h10.7c3.1 0 5.7 2.6 5.7 5.7 0 3.1-2.6 5.6-5.7 5.6h-0.5m-19.6-19.1c0 1.6 1.3 2.9 2.9 2.9h7c1.6 0 2.9-1.3 2.9-2.9 0-1.6-1.3-2.9-2.9-2.9h-7c-1.6 0-2.9 1.3-2.9 2.9zm-5.1 13.5c0 2.1 1.8 3.9 3.9 3.9h21.3c2.2 0 4-1.8 4-3.9 0-2.2-1.8-4-4-4h-11.5c-0.5 0-0.9-0.4-0.9-0.8 0-2.2-1.7-4-3.9-4h-16.8c-0.4 0-0.8-0.4-0.8-0.8 0-1.5-1.3-2.8-2.8-2.8h-6.8c-1.5 0-2.7 1.3-2.7 2.8 0 1.5 1.2 2.7 2.7 2.7h1.2c0.3 0 0.5 0.1 0.7 0.4 0.2 0.2 0.2 0.4 0.2 0.7q-0.2 0.5-0.2 1c0 2.2 1.8 3.9 4 3.9h11.5c0.5 0 0.9 0.4 0.9 0.9z"/>
		</g>
	</g>
	<path id="Layer" fill-rule="evenodd" class="s0" d="m168.8 497.2v-11.5h1.3l4.3 9.1 4.3-9.1h1.4v11.5h-1.4v-8.4l-3.9 8.4h-0.7l-3.9-8.4v8.4zm15.9 0.2q-1 0-1.6-0.3-0.7-0.4-1-1-0.3-0.6-0.3-1.2 0-0.7 0.2-1.2 0.3-0.5 0.8-0.8 0.4-0.4 1.1-0.6 0.6-0.1 1.3-0.3 0.8-0.1 1.6-0.2 0.5-0.1 0.9-0.1 0-1-0.4-1.5-0.5-0.5-1.7-0.5-0.8 0-1.3 0.3-0.6 0.4-0.9 1.2l-1.3-0.4q0.3-1.2 1.2-1.8 0.9-0.7 2.3-0.7 1.2 0 2 0.5 0.9 0.4 1.3 1.2 0.1 0.4 0.2 0.9 0 0.4 0 1v5.3h-1.2v-1.4q-0.5 0.7-1.1 1.1-0.9 0.5-2.1 0.5zm3-5.7q0 0.1 0 0.2l0.6-0.3q-0.3 0-0.6 0.1zm0.2 4.1q0.1-0.2 0.3-0.5l-0.3-0.2zm-3 0.4q0.8 0 1.3-0.3 0.6-0.2 0.9-0.7 0.4-0.4 0.5-1 0.1-0.4 0.1-0.9 0-0.2 0-0.4-0.4 0-0.8 0.1-0.7 0.1-1.3 0.2-0.6 0.1-1.1 0.2-0.3 0.1-0.6 0.3-0.3 0.2-0.5 0.4-0.2 0.3-0.2 0.7 0 0.4 0.1 0.7 0.2 0.3 0.6 0.5 0.4 0.2 1 0.2zm2.8-3.3q0.3-0.1 0.5-0.1l-0.5-0.2q0 0.1 0 0.3zm9.6 4.3v-4.4q0-0.6-0.1-1.1-0.1-0.6-0.3-1-0.3-0.5-0.8-0.8-0.4-0.2-1.1-0.2-0.5 0-1 0.2-0.4 0.1-0.7 0.5-0.3 0.4-0.5 0.9-0.2 0.6-0.2 1.3v4.6h-1.4v-8.7h1.3v1.2q0.4-0.6 0.9-0.9 0.8-0.5 2-0.5 0.8 0 1.4 0.3 0.6 0.2 1 0.7 0.4 0.4 0.6 1 0.2 0.5 0.3 1.1 0.1 0.5 0.1 1v4.8zm6.8 0.2q-0.9 0-1.5-0.3-0.6-0.2-0.9-0.7-0.4-0.4-0.7-1-0.2-0.5-0.3-1-0.1-0.6-0.1-1.1v-4.8h1.5v4.4q0 0.6 0.1 1.1 0.1 0.6 0.4 1.1 0.2 0.4 0.7 0.7 0.4 0.2 1.1 0.2 0.5 0 1-0.1 0.4-0.2 0.7-0.6 0.3-0.4 0.5-0.9 0.2-0.6 0.2-1.3v-4.6h1.4v8.7h-1.3v-1.2q-0.4 0.6-0.9 0.9-0.8 0.5-1.9 0.5zm7.2-0.2v-7.5h-1.5v-1.2h1.5v-0.4q0-0.4 0-0.7 0-0.4 0.1-0.7 0.1-0.3 0.4-0.6 0.3-0.3 0.6-0.5 0.4-0.1 0.8-0.1 0.3-0.1 0.6-0.1h1.1v1.2h-1q-0.6 0-0.9 0.3-0.3 0.3-0.3 1v0.6h2.2v1.2h-2.2v7.5zm7.1 0.2q-0.9 0-1.6-0.4-0.6-0.3-1-0.9-0.3-0.6-0.3-1.3 0-0.6 0.3-1.1 0.2-0.5 0.7-0.9 0.5-0.3 1.1-0.5 0.6-0.2 1.4-0.3 0.8-0.1 1.6-0.2 0.4-0.1 0.9-0.1 0-1-0.5-1.5-0.4-0.6-1.6-0.6-0.8 0-1.4 0.4-0.6 0.3-0.8 1.1l-1.4-0.4q0.4-1.1 1.2-1.7 0.9-0.7 2.4-0.7 1.2 0 2 0.4 0.9 0.4 1.2 1.3 0.2 0.4 0.3 0.9 0 0.4 0 0.9v5.4h-1.3v-1.4q-0.4 0.7-1 1.1-0.9 0.5-2.2 0.5zm3.1-5.7q0 0.1 0 0.2l0.5-0.3q-0.2 0-0.5 0.1zm0.1 4.1q0.2-0.2 0.3-0.5l-0.3-0.2zm-2.9 0.4q0.7 0 1.3-0.3 0.6-0.3 0.9-0.7 0.3-0.5 0.4-1 0.2-0.4 0.2-0.9 0-0.3 0-0.5-0.5 0.1-0.9 0.2-0.7 0-1.3 0.1-0.5 0.1-1 0.3-0.4 0.1-0.7 0.3-0.3 0.1-0.5 0.4-0.2 0.3-0.2 0.7 0 0.3 0.2 0.7 0.2 0.3 0.6 0.5 0.3 0.2 1 0.2zm2.8-3.4q0.2 0 0.5 0l-0.5-0.2q0 0.1 0 0.2zm7.1 4.6q-1.3 0-2.2-0.6-0.9-0.6-1.4-1.6-0.5-1.1-0.5-2.4 0-1.3 0.5-2.3 0.5-1.1 1.4-1.6 0.9-0.6 2.2-0.6 1.4 0 2.4 0.7 1 0.6 1.3 1.8l-1.4 0.4q-0.3-0.7-0.9-1.2-0.6-0.4-1.4-0.4-0.9 0-1.5 0.4-0.5 0.5-0.8 1.2-0.3 0.7-0.3 1.6 0 1.5 0.7 2.3 0.6 0.9 1.9 0.9 0.8 0 1.4-0.4 0.6-0.3 0.9-1.1l1.4 0.4q-0.5 1.2-1.4 1.8-1 0.7-2.3 0.7zm10.1-0.3q-0.7 0.2-1.5 0.2-0.7-0.1-1.3-0.3-0.6-0.3-0.9-0.9-0.3-0.5-0.3-1 0-0.6 0-1.2v-4.2h-1.7v-1.2h1.7v-2.4h1.4v2.4h2.6v1.2h-2.6v4.1q0 0.5 0 0.9 0 0.4 0.2 0.7 0.3 0.5 0.9 0.6 0.6 0 1.5-0.1zm5 0.2q-0.8 0-1.4-0.2-0.6-0.3-1-0.7-0.4-0.5-0.6-1-0.2-0.5-0.3-1.1-0.1-0.6-0.1-1v-4.8h1.4v4.3q0 0.6 0.2 1.2 0.1 0.6 0.3 1 0.3 0.5 0.8 0.7 0.4 0.3 1.1 0.3 0.5 0 1-0.2 0.4-0.2 0.7-0.5 0.3-0.4 0.5-1 0.2-0.5 0.2-1.3v-4.5h1.4v8.6h-1.3v-1.1q-0.4 0.5-0.9 0.9-0.8 0.4-2 0.4zm6.4-0.2v-8.6h1.3v1.4q0.1-0.2 0.2-0.3 0.2-0.4 0.5-0.6 0.4-0.2 0.8-0.4 0.4-0.1 0.8-0.2 0.5 0 0.9 0.1v1.3q-0.5-0.1-1 0-0.6 0-1 0.4-0.4 0.3-0.7 0.7-0.2 0.4-0.3 0.9-0.1 0.5-0.1 1v4.3zm1.3-7.2q-0.1 0.2-0.2 0.4l0.2 0.3zm8.3 7.5q-1.3 0-2.2-0.6-1-0.6-1.5-1.6-0.5-1-0.5-2.3 0-1.4 0.5-2.5 0.5-1 1.4-1.6 1-0.5 2.2-0.5 1.3 0 2.2 0.6 0.9 0.6 1.4 1.7 0.4 1.1 0.4 2.6h-0.7v-1.1h-0.8q-0.1-1.1-0.6-1.8-0.6-0.7-1.8-0.7-1.4 0-2 0.8-0.6 0.6-0.7 1.7h-0.5v1.1h0.5q0.1 1.3 0.7 2 0.6 0.8 1.9 0.8 0.9 0 1.5-0.4 0.6-0.4 1-1.1l1.3 0.5q-0.5 1.1-1.5 1.7-1 0.7-2.2 0.7zm2.4-4.7q0-0.3 0-0.6h-5.1q0 0.3 0 0.7 0 0.2 0 0.4h5.1z"/>
	<g id="Clip-Path" clip-path="url(#cp14)">
		<g id="Layer">
			<path id="Layer" fill-rule="evenodd" class="s2" d="m171.8 622.8v-6.8q0-0.6 0.3-1.1-0.3-0.5-0.3-1.2v-6.8q0-0.6 0.3-1.1-0.3-0.5-0.3-1.2v-6.8c0-1.3 1-2.3 2.3-2.3h6.8q0.6 0 1.2 0.3 0.5-0.3 1.1-0.3h6.8c1.3 0 2.4 1 2.4 2.3v6.8h6.7c1.3 0 2.4 1 2.4 2.3v6.8h6.7c1.3 0 2.4 1 2.4 2.3v6.8m-29.7 0v-6.7h-6.7v6.7zm2.3 0h6.8v-6.7h-6.8q0 0 0 0v6.7zm15.9 0v-6.7h-6.8v6.7zm-18.2-18.2v-6.7h-6.7v6.7zm9.1 0v-6.7h-6.7q0 0 0 0v6.7zm0 2.4h-6.7q0 0.1 0 0.1v6.6h6.7zm9.1 0h-6.7v6.7h6.7zm2.4 15.8h6.7v-6.7h-6.7q0 0 0 0zm-20.6-15.8h-6.7v6.7h0.1 6.6z"/>
			<path id="Layer" fill-rule="evenodd" class="s0" d="m210.6 622.8h7.8l3.2-26.1c-3.9-0.1-6.9-3.4-6.9-7.3v-1.4c0-0.6 0.5-1.2 1.2-1.2h6.9l0.7-5.5c0.1-0.6 0.6-1 1.2-1h1.7c0.6 0 1.1 0.4 1.1 1l0.7 5.5h7c0.7 0 1.2 0.6 1.2 1.2v1.4c0 3.9-3.1 7.2-7 7.3l3.2 26.1h2.5l3.1-3.9c0.2-0.3 0.6-0.5 1-0.5h15.7c0.8 0 1.4 0.8 1.2 1.5-1.6 5.8-2.9 10.3-4.5 15.5-0.5 1.9-1.1 3.8-1.7 6q0 0.1-0.1 0.2c-0.3 1-0.6 1.9-1.2 2.8-1.6 2.6-4.1 4-7.1 4h-60.6c-4.2 0-7.2-2.8-8.3-6.7l-5-17.3q-0.1-0.2-0.1-0.4c0-0.7 0.5-1.2 1.2-1.2h3.1m3.6 19.6c1 2.2 2.9 3.7 5.5 3.7h60.6c2.6 0 4.4-1.5 5.5-3.7zm41.7-53.2v0.2c0 2.7 2.2 5 4.9 5h7.1c2.7 0 4.9-2.3 4.9-5v-0.2zm18.7 36zm-65.4 0l4.2 14.8h73.3c2-6.8 3.4-11.8 5.5-19.2h-13.6l-3.1 3.9c-0.2 0.3-0.6 0.5-0.9 0.5zm50.5-2.4h9.4l-3.2-26.1h-3zm-35.9 7.2c1.5 1.5 1.5 3.9 0 5.4-1.5 1.4-3.9 1.4-5.3 0-1.5-1.5-1.5-3.9 0-5.4 1.4-1.4 3.8-1.4 5.3 0zm-1.3 2.7c0-1.2-1.5-1.8-2.3-1-0.9 0.9-0.3 2.4 0.9 2.4 0.8 0 1.4-0.6 1.4-1.4zm53.2-2.7c1.5 1.5 1.5 3.9 0 5.4-1.5 1.4-3.8 1.4-5.3 0-1.5-1.5-1.5-3.9 0-5.4 1.5-1.4 3.8-1.4 5.3 0zm-1.3 2.7c0-1.2-1.5-1.8-2.3-1-0.9 0.9-0.3 2.4 1 2.4 0.7 0 1.3-0.6 1.3-1.4zm-11.7-2.7c1.5 1.5 1.5 3.9 0 5.4-1.4 1.4-3.8 1.4-5.3 0-1.5-1.5-1.5-3.9 0-5.4 1.5-1.4 3.9-1.4 5.3 0zm-1.3 2.7c0-1.2-1.4-1.8-2.3-1-0.9 0.9-0.2 2.4 1 2.4 0.7 0 1.3-0.6 1.3-1.4zm-11.6-2.7c1.4 1.5 1.4 3.9 0 5.4-1.5 1.4-3.9 1.4-5.4 0-1.4-1.5-1.4-3.9 0-5.4 1.5-1.4 3.9-1.4 5.4 0zm-1.3 2.7c0-1.2-1.5-1.8-2.4-1-0.8 0.9-0.2 2.4 1 2.4 0.7 0 1.4-0.6 1.4-1.4zm-11.7-2.7c1.4 1.5 1.4 3.9 0 5.4-1.5 1.4-3.9 1.4-5.4 0-1.4-1.5-1.4-3.9 0-5.4 1.5-1.4 3.9-1.4 5.4 0zm-1.3 2.7c0-1.2-1.5-1.8-2.4-1-0.8 0.9-0.2 2.4 1 2.4 0.8 0 1.4-0.6 1.4-1.4zm29.2-45.8l-0.3-2.4-0.3 2.4zm-51.7 35.9h6.7zm9.1 0h6.8m2.3 0h6.8zm9.1 0h6.7z"/>
		</g>
	</g>
	<g id="Clip-Path" clip-path="url(#cp15)">
		<g id="Layer">
			<path id="Layer" fill-rule="evenodd" class="s0" d="m199.2 678.4l16.7 5.7c12.6-6.4 21.4-10.2 25.1-10.9 1.9-0.3 4.8-0.7 8.1 0.4 0.3 0.1 1 0.3 1.7 0.7 1.9 0.8 4.3 2.2 5 4.1 1.4 3.3-0.9 8.8-29 21.9l-7.9 19.7c-0.7 1.9-2.3 3.5-4 4.3l-8 4c-0.3 0.2-0.5 0.2-0.6 0.2-0.4 0-0.7-0.2-0.9-0.4-0.5-0.3-0.7-0.9-0.5-1.4l3.9-18.4c-6 2.5-11.9 5-16.7 6.9l-2.2 0.8c-0.6 0.4-1.9 0.9-3.7 0.9-0.7 0-1.5-0.2-2.4-0.5-2.9-1.2-17.6-13.8-16.2-18.3 0.2-0.5 0.5-1.1 1-1.2 1.8-0.9 4.9 0.1 11.4 2.9 1.2 0.5 2.6 1.2 3.3 1.4 5.9-3.3 11.2-6.2 16.2-8.8l-14.3-7.3c-0.3-0.1-0.7-0.7-0.7-1.2 0-0.5 0.2-1 0.7-1.2l7.8-3.8c1.9-1 4.1-1.2 6.2-0.5zm4 15.2c-5.7 3.1-12.1 6.5-19 10.3-0.9 0.6-1.4 0.2-5.2-1.3-2.1-0.9-6.6-2.8-8.5-3.1 1.2 3.1 11.6 13.1 14.5 14.3 1.8 0.7 3.5 0 4.2-0.4l2.2-0.8c5.2-2.3 11.8-4.9 18.5-7.8l1.4-6c0-0.7 0.8-1.2 1.5-1.1 0.7 0 1.2 0.9 1.1 1.6l-5.4 25 5.4-2.6c1.2-0.7 2-1.7 2.5-2.9l8.2-20v-0.2l3.4-8.5c0.2-0.7 1-1 1.7-0.7 0.7 0.2 1.1 1.1 0.7 1.8l-2 5.3c24.5-11.9 25.2-16.2 24.8-17.2-0.3-0.7-1.5-1.6-2.9-2.3l-8.5 4.2c-0.3 0.1-0.5 0.1-0.7 0.1-0.5 0-1-0.1-1.2-0.7-0.3-0.7 0-1.5 0.7-1.9l6.1-2.9c-2.1-0.3-3.8-0.2-5.2 0-3.3 0.7-12.3 4.7-24.7 10.9-3.8 1.7-8.1 4-13.6 6.9zm-0.6-2.8c3.8-2 7.1-3.8 10-5.2l-14.1-4.6c-1.4-0.4-2.9-0.4-4.2 0.3l-5.3 2.6z"/>
			<path id="Layer" class="s7" d="m182.6 748.5h46.3v11.9h-46.3z"/>
			<path id="Layer" class="s7" d="m182.5 738.3h-9.8v22.1h9.8z"/>
			<path id="Layer" class="s7" d="m186.6 728.5h-17.9v9.8h17.9z"/>
			<path id="Layer" class="s7" d="m230.1 760.3h26"/>
		</g>
	</g>
	<g id="Clip-Path" clip-path="url(#cp16)">
		<g id="Layer">
			<path id="Layer" fill-rule="evenodd" class="s0" d="m199.2 781.2l16.7 5.7c12.6-6.4 21.4-10.2 25.1-10.9 1.9-0.3 4.8-0.7 8.1 0.4 0.3 0.1 1 0.3 1.7 0.6 1.9 0.9 4.3 2.3 5 4.2 1.4 3.3-0.9 8.8-29 21.9l-7.9 19.7c-0.7 1.9-2.3 3.4-4 4.3l-8 4c-0.3 0.2-0.5 0.2-0.6 0.2-0.4 0-0.7-0.2-0.9-0.4-0.5-0.3-0.7-0.9-0.5-1.4l3.9-18.4c-6 2.5-11.9 5-16.7 6.9l-2.2 0.8c-0.6 0.4-1.9 0.9-3.7 0.9-0.7 0-1.5-0.2-2.4-0.5-2.9-1.2-17.6-13.8-16.2-18.3 0.2-0.5 0.5-1.1 1-1.2 1.8-0.9 4.9 0.1 11.4 2.9 1.2 0.5 2.6 1.2 3.3 1.4 5.9-3.3 11.2-6.2 16.2-8.8l-14.3-7.3c-0.3-0.2-0.7-0.7-0.7-1.2 0-0.5 0.2-1 0.7-1.2l7.8-3.8c1.9-1 4.1-1.2 6.2-0.5zm4 15.2c-5.7 3.1-12.1 6.5-19 10.3-0.9 0.6-1.4 0.2-5.2-1.3-2.1-0.9-6.6-2.8-8.5-3.1 1.2 3.1 11.6 13.1 14.5 14.3 1.8 0.7 3.5 0 4.2-0.4l2.2-0.8c5.2-2.3 11.8-4.9 18.5-7.8l1.4-6c0-0.7 0.8-1.2 1.5-1.1 0.7 0 1.2 0.9 1.1 1.6l-5.4 25 5.4-2.6c1.2-0.7 2-1.7 2.5-2.9l8.2-20v-0.2l3.4-8.5c0.2-0.7 1-1 1.7-0.7 0.7 0.2 1.1 1.1 0.7 1.8l-2 5.3c24.5-11.9 25.2-16.2 24.8-17.2-0.3-0.7-1.5-1.6-2.9-2.3l-8.5 4.2c-0.3 0.1-0.5 0.1-0.7 0.1-0.5 0-1-0.1-1.2-0.7-0.3-0.7 0-1.5 0.7-1.9l6.1-2.9c-2.1-0.3-3.8-0.2-5.2 0-3.3 0.7-12.3 4.7-24.7 10.9-3.8 1.7-8.1 3.9-13.6 6.9zm-0.6-2.8c3.8-2.1 7.1-3.8 10-5.2l-14.1-4.6c-1.4-0.4-2.9-0.4-4.2 0.3l-5.3 2.6z"/>
			<path id="Layer" class="s7" d="m182.6 851.3h46.3v11.9h-46.3z"/>
			<path id="Layer" class="s7" d="m182.5 841.1h-9.8v22.1h9.8z"/>
			<path id="Layer" class="s7" d="m186.6 831.3h-17.9v9.8h17.9z"/>
			<path id="Layer" class="s7" d="m230.1 863.1h26"/>
		</g>
	</g>
	<g id="Clip-Path" clip-path="url(#cp17)">
		<g id="Layer">
			<path id="Layer" fill-rule="evenodd" class="s0" d="m199.2 884l16.7 5.7c12.6-6.4 21.4-10.2 25.1-10.9 1.9-0.3 4.8-0.7 8.1 0.4 0.3 0.1 1 0.3 1.7 0.6 1.9 0.9 4.3 2.3 5 4.2 1.4 3.3-0.9 8.8-29 21.9l-7.9 19.7c-0.7 1.9-2.3 3.4-4 4.3l-8 4c-0.3 0.1-0.5 0.1-0.6 0.1-0.4 0-0.7-0.1-0.9-0.3-0.5-0.3-0.7-0.9-0.5-1.4l3.9-18.4c-6 2.5-11.9 5-16.7 6.9l-2.2 0.8c-0.6 0.4-1.9 0.9-3.7 0.9-0.7 0-1.5-0.2-2.4-0.5-2.9-1.2-17.6-13.8-16.2-18.3 0.2-0.6 0.5-1.1 1-1.2 1.8-0.9 4.9 0.1 11.4 2.9 1.2 0.5 2.6 1.2 3.3 1.4 5.9-3.3 11.2-6.2 16.2-8.8l-14.3-7.3c-0.3-0.2-0.7-0.7-0.7-1.2 0-0.5 0.2-1 0.7-1.2l7.8-3.8c1.9-1 4.1-1.2 6.2-0.5zm4 15.2c-5.7 3.1-12.1 6.5-19 10.3-0.9 0.6-1.4 0.2-5.2-1.3-2.1-0.9-6.6-2.8-8.5-3.2 1.2 3.2 11.6 13.2 14.5 14.4 1.8 0.7 3.5 0 4.2-0.4l2.2-0.8c5.2-2.3 11.8-4.9 18.5-7.8l1.4-6c0-0.7 0.8-1.3 1.5-1.1 0.7 0 1.2 0.9 1.1 1.6l-5.4 25 5.4-2.6c1.2-0.7 2-1.7 2.5-2.9l8.2-20v-0.2l3.4-8.5c0.2-0.7 1-1 1.7-0.7 0.7 0.2 1.1 1.1 0.7 1.8l-2 5.3c24.5-11.9 25.2-16.2 24.8-17.3-0.3-0.6-1.5-1.5-2.9-2.2l-8.5 4.1c-0.3 0.2-0.5 0.2-0.7 0.2-0.5 0-1-0.2-1.2-0.7-0.3-0.7 0-1.5 0.7-1.9l6.1-2.9c-2.1-0.4-3.8-0.2-5.2 0-3.3 0.7-12.3 4.7-24.7 10.9-3.8 1.7-8.1 3.9-13.6 6.9zm-0.6-2.8c3.8-2.1 7.1-3.8 10-5.2l-14.1-4.6c-1.4-0.4-2.9-0.4-4.2 0.3l-5.3 2.6z"/>
			<path id="Layer" class="s7" d="m182.6 954.1h46.3v11.9h-46.3z"/>
			<path id="Layer" class="s7" d="m182.5 943.9h-9.8v22.1h9.8z"/>
			<path id="Layer" class="s7" d="m186.6 934.1h-17.9v9.8h17.9z"/>
			<path id="Layer" class="s7" d="m230.1 965.9h26"/>
		</g>
	</g>
	<path id="Layer" fill-rule="evenodd" class="s0" d="m195.6 995.5q-1.2 0-2.2-0.4-1-0.4-1.6-1.2-0.7-0.8-0.9-1.8l1.5-0.3q0.3 1.1 1.2 1.7 0.9 0.7 2.1 0.7 0.7 0 1.3-0.3 0.7-0.2 1-0.7 0.4-0.4 0.4-1.1 0-0.3-0.1-0.6-0.2-0.3-0.4-0.5-0.2-0.2-0.5-0.3-0.3-0.2-0.6-0.2l-2.9-0.9q-0.5-0.2-0.9-0.4-0.5-0.2-0.8-0.5-0.4-0.4-0.6-0.8-0.2-0.5-0.2-1.1 0-1.1 0.5-1.8 0.6-0.7 1.5-1.1 0.9-0.4 2-0.4 1.2 0 2.1 0.5 0.9 0.4 1.5 1.1 0.6 0.8 0.8 1.8l-1.5 0.3q-0.1-0.7-0.5-1.2-0.4-0.5-1.1-0.8-0.6-0.3-1.3-0.3-0.7 0-1.3 0.2-0.5 0.2-0.9 0.7-0.3 0.4-0.3 0.9 0 0.5 0.3 0.8 0.3 0.4 0.7 0.6 0.5 0.2 0.9 0.3l2.2 0.6q0.4 0.1 0.9 0.3 0.4 0.2 0.9 0.5 0.5 0.3 0.8 0.9 0.3 0.5 0.3 1.3 0 0.9-0.4 1.5-0.3 0.7-0.9 1.1-0.6 0.4-1.3 0.7-0.8 0.2-1.7 0.2zm12.1-0.2v-4.4q0-0.6-0.1-1.1-0.1-0.6-0.4-1-0.3-0.5-0.7-0.8-0.5-0.2-1.1-0.2-0.6 0-1 0.2-0.5 0.1-0.8 0.5-0.3 0.4-0.5 0.9-0.1 0.6-0.1 1.3v4.6h-1.5v-11.5h1.3v4q0.4-0.6 1-0.9 0.8-0.5 1.9-0.5 0.8 0 1.4 0.3 0.6 0.2 1 0.7 0.4 0.4 0.6 1 0.2 0.5 0.3 1.1 0.1 0.5 0.1 1v4.8zm3.7-10.2v-1.5h1.4v1.5zm0 10.2v-8.7h1.4v8.7zm7.8 0.2q-1.2 0-2-0.6-0.3-0.2-0.5-0.4v4.6h-1.5v-12.5h1.3v1q0.3-0.3 0.7-0.6 0.8-0.6 2-0.6 1.2 0 2.1 0.6 0.8 0.6 1.3 1.6 0.5 1.1 0.5 2.3 0 1.3-0.5 2.4-0.5 1-1.3 1.6-0.9 0.6-2.1 0.6zm-0.2-1.3q0.9 0 1.4-0.4 0.6-0.5 0.9-1.2 0.3-0.7 0.3-1.7 0-0.9-0.3-1.6-0.3-0.7-0.9-1.2-0.5-0.4-1.4-0.4-0.9 0-1.4 0.4-0.6 0.4-0.8 1.2-0.3 0.7-0.3 1.6 0 1 0.3 1.7 0.2 0.8 0.8 1.2 0.6 0.4 1.4 0.4zm11.9-10.4h1.4l-3 11.5h-1.5zm-55.2 27.5v-11.5h3.6q0.2 0 0.6 0 0.4 0 0.8 0 1.4 0.2 2.3 1 0.9 0.8 1.3 2 0.5 1.2 0.5 2.7 0 1.5-0.5 2.7-0.4 1.2-1.3 2-0.9 0.8-2.3 1-0.4 0-0.8 0-0.5 0-0.6 0.1zm1.4-1.4h2.1q0.3 0 0.7 0 0.4 0 0.7-0.1 0.9-0.2 1.5-0.8 0.6-0.6 0.8-1.5 0.3-0.9 0.3-2 0-1.1-0.3-2-0.3-0.9-0.8-1.5-0.6-0.6-1.5-0.8-0.3-0.1-0.7-0.1-0.4 0-0.7 0h-2.1zm9.6-8.8v-1.4h1.4v1.4zm0 10.2v-8.6h1.4v8.6zm7.1 0.2q-1.5 0-2.5-0.7-1-0.6-1.2-1.8l1.4-0.3q0.2 0.7 0.8 1.1 0.7 0.4 1.6 0.4 0.9 0 1.4-0.3 0.5-0.4 0.5-1 0-0.4-0.2-0.6-0.2-0.2-0.7-0.4-0.5-0.2-1.6-0.5-1.1-0.3-1.7-0.6-0.7-0.4-1-0.8-0.3-0.4-0.3-1.1 0-0.7 0.5-1.3 0.4-0.6 1.1-0.9 0.8-0.3 1.8-0.3 0.9 0 1.7 0.3 0.8 0.3 1.3 0.9 0.4 0.6 0.5 1.3l-1.4 0.3q-0.1-0.7-0.7-1.1-0.6-0.4-1.4-0.4-0.9 0-1.4 0.3-0.5 0.3-0.5 0.9 0 0.3 0.2 0.5 0.2 0.2 0.7 0.4 0.5 0.2 1.5 0.5 1.2 0.3 1.8 0.6 0.7 0.4 1 0.8 0.2 0.5 0.2 1.1 0 1.3-0.9 2-0.9 0.7-2.5 0.7zm10-0.2q-0.7 0.1-1.5 0.1-0.7 0-1.3-0.3-0.6-0.3-0.9-0.9-0.3-0.5-0.3-1 0-0.5 0-1.2v-4.2h-1.7v-1.1h1.7v-2.4h1.4v2.4h2.6v1.1h-2.6v4.2q0 0.5 0 0.9 0 0.3 0.2 0.6 0.3 0.5 0.9 0.6 0.6 0.1 1.5 0zm1.8 0v-8.7h1.2v1.4q0.1-0.1 0.2-0.3 0.3-0.3 0.6-0.5 0.3-0.3 0.7-0.4 0.4-0.2 0.9-0.2 0.4 0 0.8 0v1.4q-0.4-0.1-1-0.1-0.5 0.1-1 0.4-0.4 0.3-0.6 0.7-0.2 0.4-0.3 0.9-0.1 0.5-0.1 1v4.4zm1.3-7.3q-0.2 0.2-0.2 0.5l0.2 0.2zm4.8-2.9v-1.4h1.4v1.4zm0 10.2v-8.6h1.4v8.6zm7.8 0.2q-1.2 0-2-0.6-0.4-0.3-0.7-0.6v1h-1.3v-11.5h1.5v3.6q0.2-0.2 0.5-0.4 0.8-0.6 2-0.6 1.2 0 2.1 0.6 0.8 0.6 1.3 1.6 0.5 1.1 0.5 2.4 0 1.2-0.5 2.3-0.5 1-1.3 1.6-0.9 0.6-2.1 0.6zm-0.2-1.3q0.9 0 1.4-0.4 0.6-0.5 0.9-1.2 0.3-0.7 0.3-1.6 0-1-0.3-1.7-0.3-0.7-0.9-1.2-0.5-0.4-1.4-0.4-0.8 0-1.4 0.4-0.5 0.4-0.8 1.2-0.3 0.7-0.3 1.7 0 0.9 0.3 1.6 0.3 0.8 0.8 1.2 0.6 0.4 1.4 0.4zm9.1 1.3q-0.8 0-1.4-0.3-0.6-0.2-1-0.7-0.4-0.4-0.6-0.9-0.3-0.6-0.4-1.1 0-0.6 0-1.1v-4.7h1.4v4.3q0 0.6 0.1 1.1 0.1 0.6 0.4 1.1 0.3 0.4 0.7 0.7 0.5 0.2 1.1 0.2 0.6 0 1-0.1 0.4-0.2 0.8-0.6 0.3-0.4 0.4-0.9 0.2-0.6 0.2-1.3v-4.5h1.4v8.6h-1.2v-1.1q-0.4 0.5-1 0.8-0.8 0.5-1.9 0.5zm11.2-0.2q-0.8 0.1-1.5 0.1-0.8 0-1.4-0.3-0.5-0.3-0.9-0.9-0.2-0.5-0.2-1 0-0.5 0-1.2v-4.2h-1.8v-1.1h1.8v-2.4h1.4v2.4h2.6v1.1h-2.6v4.2q0 0.5 0 0.9 0 0.3 0.1 0.6 0.3 0.5 1 0.6 0.6 0.1 1.5 0zm5.1 0.2q-1.3 0-2.2-0.6-1-0.5-1.5-1.5-0.5-1.1-0.5-2.4 0-1.4 0.5-2.4 0.5-1.1 1.4-1.6 1-0.6 2.2-0.6 1.3 0 2.2 0.6 1 0.6 1.4 1.7 0.5 1.1 0.4 2.6h-0.7v-1.1h-0.8q-0.1-1.1-0.6-1.7-0.6-0.8-1.8-0.8-1.3 0-2 0.8-0.5 0.7-0.7 1.7h-0.5v1.1h0.5q0.1 1.3 0.7 2 0.7 0.8 1.9 0.8 0.9 0 1.5-0.3 0.6-0.4 1-1.2l1.4 0.5q-0.5 1.1-1.5 1.8-1.1 0.6-2.3 0.6zm2.5-4.7q0-0.3-0.1-0.6h-5.1q0 0.3 0 0.7 0 0.2 0 0.4h5.2z"/>
	<path id="Layer" fill-rule="evenodd" class="s3" d="m226.9 1105c0 8.3-6.8 15-15.1 15-8.3 0-15.1-6.7-15.1-15 0-8.3 6.8-15.1 15.1-15.1 8.3 0 15.1 6.8 15.1 15.1zm-1.8 0c0-7.3-6-13.3-13.3-13.3-7.3 0-13.3 6-13.3 13.3 0 7.3 6 13.3 13.3 13.3 7.3 0 13.3-6 13.3-13.3z"/>
	<path id="Layer" fill-rule="evenodd" class="s3" d="m212.7 1098.7v5.4c2.5 0 4.5 2 4.5 4.5 0 2.4-2 4.4-4.5 4.4v1.4c0 0.5-0.4 0.9-0.9 0.9-0.5 0-0.9-0.4-0.9-0.9v-1.4c-2.5 0-4.5-2-4.5-4.4 0-0.5 0.4-0.9 0.9-0.9 0.5 0 0.9 0.4 0.9 0.9 0 1.5 1.2 2.7 2.7 2.7v-5.4c-1.2 0-2.3-0.5-3.2-1.4-0.8-0.8-1.3-1.9-1.3-3.1 0-1.2 0.5-2.3 1.4-3.2 0.8-0.8 1.9-1.3 3.1-1.3v-1.4c0-0.5 0.4-0.8 0.9-0.8 0.5 0 0.9 0.3 0.9 0.8v1.4c2.5 0 4.5 2 4.5 4.5 0 0.5-0.4 0.9-0.9 0.9-0.5 0-0.9-0.4-0.9-0.9 0-1.5-1.2-2.7-2.7-2.7zm-1.8 5.4v-5.4c-0.7 0-1.4 0.3-1.9 0.8-0.5 0.5-0.8 1.2-0.8 1.9 0 0.7 0.3 1.4 0.8 1.9 0.5 0.5 1.2 0.8 1.9 0.8zm1.8 1.8v5.4c1.5 0 2.7-1.2 2.7-2.7 0-1.5-1.2-2.7-2.7-2.7z"/>
	<path id="Layer" fill-rule="evenodd" class="s0" d="m226.9 1139.2v18c0 0.3-0.2 0.6-0.4 0.7l-14.2 9q-0.2 0.1-0.5 0.1-0.2 0-0.5-0.1l-14.1-9c-0.3-0.1-0.5-0.4-0.5-0.7v-18q0-0.2 0.1-0.3 0-0.1 0-0.1 0.1-0.1 0.2-0.3 0.1 0 0.2-0.1l14.2-8.1c0.2-0.2 0.6-0.2 0.9 0l14.1 8.1q0.1 0.1 0.2 0.1 0 0 0 0.1 0.1 0.1 0.2 0.2 0 0 0 0.1 0.1 0.1 0.1 0.3zm-27.5 0l12.4 7.4 12.4-7.4-12.4-7.1zm25.7 17.5v-16l-12.8 7.6q-0.2 0.2-0.5 0.2-0.2 0-0.4-0.2l-12.9-7.6v16l13.3 8.3z"/>
	<path id="Layer" class="s0" d="m191.9 1144.1c-0.5 0-0.9 0.4-0.9 0.9v4.3c-5.9-5.3-9.3-12.8-9.3-20.8 0-8.7 3.9-16.7 10.7-22 0.4-0.3 0.5-0.9 0.2-1.3-0.3-0.4-0.9-0.4-1.3-0.1-7.2 5.7-11.4 14.2-11.4 23.4 0 8.3 3.5 16.2 9.6 21.8h-3.8c-0.5 0-0.9 0.4-0.9 0.9 0 0.5 0.4 0.8 0.9 0.8h6.2q0.2 0 0.3 0 0.1-0.1 0.1-0.1 0.1-0.1 0.2-0.2 0.1 0 0.1 0 0 0 0-0.1 0.1-0.1 0.1-0.2 0 0 0-0.1 0.1-0.1 0.1-0.1v-6.2c0-0.5-0.4-0.9-0.9-0.9z"/>
	<path id="Layer" class="s0" d="m234.1 1106.7h3.8c0.5 0 0.9-0.5 0.9-0.9 0-0.5-0.4-0.9-0.9-0.9h-6.2q0 0 0 0-0.1 0-0.2 0-0.1 0-0.1 0.1-0.1 0-0.2 0.1-0.1 0-0.1 0.1 0 0-0.1 0 0 0.1 0 0.1 0 0.1-0.1 0.2 0 0.1 0 0.2 0 0 0 0.1v6.1c0 0.5 0.4 0.9 0.9 0.9 0.4 0 0.8-0.4 0.8-0.9v-4.2c6 5.3 9.3 12.8 9.3 20.8 0 8.6-3.9 16.6-10.7 22-0.4 0.3-0.4 0.8-0.1 1.2 0.1 0.2 0.4 0.3 0.7 0.3q0.2 0 0.5-0.1c7.3-5.7 11.4-14.2 11.4-23.4 0-8.4-3.4-16.2-9.6-21.8z"/>
	<path id="Layer" fill-rule="evenodd" class="s3" d="m226.9 1207.8c0 8.3-6.8 15-15.1 15-8.3 0-15.1-6.7-15.1-15 0-8.3 6.8-15.1 15.1-15.1 8.3 0 15.1 6.8 15.1 15.1zm-1.8 0c0-7.4-6-13.3-13.3-13.3-7.3 0-13.3 5.9-13.3 13.3 0 7.3 6 13.3 13.3 13.3 7.3 0 13.3-6 13.3-13.3z"/>
	<path id="Layer" fill-rule="evenodd" class="s3" d="m212.7 1201.5v5.4c2.5 0 4.5 2 4.5 4.5 0 2.4-2 4.4-4.5 4.4v1.4c0 0.5-0.4 0.9-0.9 0.9-0.5 0-0.9-0.4-0.9-0.9v-1.4c-2.5 0-4.5-2-4.5-4.4 0-0.5 0.4-0.9 0.9-0.9 0.5 0 0.9 0.4 0.9 0.9 0 1.5 1.2 2.7 2.7 2.7v-5.4c-1.2 0-2.3-0.5-3.2-1.4-0.8-0.8-1.3-1.9-1.3-3.1 0-1.2 0.5-2.4 1.4-3.2 0.8-0.8 1.9-1.3 3.1-1.3v-1.4c0-0.5 0.4-0.8 0.9-0.8 0.5-0.1 0.9 0.3 0.9 0.8v1.4c2.5 0 4.5 2 4.5 4.5 0 0.5-0.4 0.9-0.9 0.9-0.5 0-0.9-0.4-0.9-0.9 0-1.5-1.2-2.7-2.7-2.7zm-1.8 5.4v-5.4c-0.7 0-1.4 0.3-1.9 0.8-0.5 0.5-0.8 1.2-0.8 1.9 0 0.7 0.3 1.4 0.8 1.9 0.5 0.5 1.2 0.8 1.9 0.8zm1.8 1.8v5.4c1.5 0 2.7-1.2 2.7-2.7 0-1.5-1.2-2.7-2.7-2.7z"/>
	<path id="Layer" fill-rule="evenodd" class="s0" d="m226.8 1241.7q0.1 0.1 0.1 0.3v18c0 0.3-0.2 0.6-0.4 0.7l-14.2 9q-0.2 0.1-0.5 0.1-0.2 0-0.5-0.1l-14.1-9c-0.3-0.1-0.5-0.4-0.5-0.7v-18q0-0.2 0.1-0.3 0-0.1 0-0.1 0.1-0.1 0.2-0.3 0.1 0 0.2-0.1l14.2-8.1c0.2-0.2 0.6-0.2 0.9 0l14.1 8.1q0.1 0.1 0.2 0.1 0 0.1 0 0 0.1 0.2 0.2 0.3 0 0 0 0.1zm-27.4 0.3l12.4 7.4 12.4-7.4-12.4-7.1zm25.7 17.5v-16l-12.8 7.6q-0.2 0.2-0.5 0.2-0.2 0-0.4-0.2l-12.9-7.6v16l13.3 8.3z"/>
	<path id="Layer" class="s0" d="m191.9 1246.9c-0.5 0-0.9 0.4-0.9 0.9v4.2c-5.9-5.3-9.3-12.7-9.3-20.8 0-8.6 3.9-16.6 10.7-21.9 0.4-0.3 0.5-0.9 0.2-1.3-0.3-0.4-0.9-0.4-1.3-0.1-7.2 5.6-11.4 14.2-11.4 23.3 0 8.4 3.5 16.2 9.6 21.9h-3.8c-0.5 0-0.9 0.4-0.9 0.8 0 0.5 0.4 0.9 0.9 0.9h6.2q0.2 0 0.3-0.1 0.1 0 0.1 0 0.1-0.1 0.2-0.2 0.1 0 0.1 0 0-0.1 0-0.1 0.1-0.1 0.1-0.2 0-0.1 0-0.1 0.1-0.1 0.1-0.2v-6.1c0-0.5-0.4-0.9-0.9-0.9z"/>
	<path id="Layer" class="s0" d="m234.1 1209.5h3.8c0.5 0 0.9-0.5 0.9-0.9 0-0.5-0.4-0.9-0.9-0.9h-6.2q0 0 0 0-0.1 0-0.2 0-0.1 0-0.1 0.1-0.1 0-0.2 0.1-0.1 0-0.1 0.1 0 0-0.1 0 0 0.1 0 0.1 0 0.1-0.1 0.2 0 0.1 0 0.2 0 0 0 0.1v6.1c0 0.5 0.4 0.9 0.9 0.9 0.4 0 0.8-0.4 0.8-0.9v-4.2c6 5.3 9.3 12.7 9.3 20.8 0 8.6-3.9 16.6-10.7 21.9-0.4 0.3-0.4 0.9-0.1 1.3 0.1 0.2 0.4 0.3 0.7 0.3q0.2 0 0.5-0.1c7.3-5.7 11.4-14.2 11.4-23.4 0-8.4-3.4-16.2-9.6-21.8z"/>
	<path id="Layer" fill-rule="evenodd" class="s3" d="m226.9 1310.6c0 8.3-6.8 15-15.1 15-8.3 0-15.1-6.7-15.1-15 0-8.3 6.8-15.1 15.1-15.1 8.3 0 15.1 6.8 15.1 15.1zm-1.8 0c0-7.4-6-13.3-13.3-13.3-7.3 0-13.3 5.9-13.3 13.3 0 7.3 6 13.3 13.3 13.3 7.3 0 13.3-6 13.3-13.3z"/>
	<path id="Layer" fill-rule="evenodd" class="s3" d="m212.7 1304.3v5.4c2.5 0 4.5 2 4.5 4.5 0 2.4-2 4.4-4.5 4.4v1.4c0 0.5-0.4 0.9-0.9 0.9-0.5 0-0.9-0.4-0.9-0.9v-1.4c-2.5 0-4.5-2-4.5-4.4 0-0.5 0.4-0.9 0.9-0.9 0.5 0 0.9 0.4 0.9 0.9 0 1.5 1.2 2.7 2.7 2.7v-5.4c-1.2 0-2.3-0.5-3.2-1.4-0.8-0.8-1.3-1.9-1.3-3.1 0-1.2 0.5-2.3 1.4-3.2 0.8-0.8 1.9-1.3 3.1-1.3v-1.4c0-0.5 0.4-0.8 0.9-0.8 0.5-0.1 0.9 0.3 0.9 0.8v1.4c2.5 0 4.5 2 4.5 4.5 0 0.5-0.4 0.9-0.9 0.9-0.5 0-0.9-0.4-0.9-0.9 0-1.5-1.2-2.7-2.7-2.7zm-1.8 5.4v-5.4c-0.7 0-1.4 0.3-1.9 0.8-0.5 0.5-0.8 1.2-0.8 1.9 0 0.7 0.3 1.4 0.8 1.9 0.5 0.5 1.2 0.8 1.9 0.8zm1.8 1.8v5.4c1.5 0 2.7-1.2 2.7-2.7 0-1.5-1.2-2.7-2.7-2.7z"/>
	<path id="Layer" fill-rule="evenodd" class="s0" d="m226.9 1344.8v18c0 0.3-0.2 0.6-0.4 0.7l-14.2 9q-0.2 0.1-0.5 0.1-0.2 0-0.5-0.1l-14.1-9c-0.3-0.1-0.5-0.4-0.5-0.7v-18q0-0.2 0.1-0.3 0-0.1 0-0.1 0.1-0.1 0.2-0.3 0.1 0 0.2-0.1l14.2-8.1c0.2-0.2 0.6-0.2 0.9 0l14.1 8.1q0.1 0.1 0.2 0.1 0 0 0 0.1 0.1 0.1 0.2 0.2 0 0 0 0.1 0.1 0.1 0.1 0.3zm-27.5 0l12.4 7.4 12.4-7.4-12.4-7.1zm25.7 17.5v-16l-12.8 7.6q-0.2 0.2-0.5 0.2-0.2 0-0.4-0.2l-12.9-7.6v16l13.3 8.3z"/>
	<path id="Layer" class="s0" d="m191.9 1349.7c-0.5 0-0.9 0.4-0.9 0.9v4.2c-5.9-5.3-9.3-12.7-9.3-20.8 0-8.6 3.9-16.6 10.7-21.9 0.4-0.4 0.5-0.9 0.2-1.3-0.3-0.4-0.9-0.4-1.3-0.1-7.2 5.6-11.4 14.2-11.4 23.3 0 8.4 3.5 16.2 9.6 21.9h-3.8c-0.5 0-0.9 0.3-0.9 0.8 0 0.5 0.4 0.9 0.9 0.9h6.2q0.2 0 0.3-0.1 0.1 0 0.1 0 0.1-0.1 0.2-0.2 0.1 0 0.1 0 0-0.1 0-0.1 0.1-0.1 0.1-0.2 0-0.1 0-0.2 0.1 0 0.1-0.1v-6.1c0-0.5-0.4-0.9-0.9-0.9z"/>
	<path id="Layer" class="s0" d="m234.1 1312.2h3.8c0.5 0 0.9-0.4 0.9-0.8 0-0.5-0.4-0.9-0.9-0.9h-6.2q0 0 0 0-0.1 0-0.2 0-0.1 0-0.1 0.1-0.1 0-0.2 0.1-0.1 0-0.1 0.1 0 0-0.1 0 0 0.1 0 0.1 0 0.1-0.1 0.2 0 0.1 0 0.1 0 0.1 0 0.2v6.1c0 0.5 0.4 0.9 0.9 0.9 0.4 0 0.8-0.4 0.8-0.9v-4.2c6 5.3 9.3 12.7 9.3 20.7 0 8.7-3.9 16.7-10.7 22-0.4 0.3-0.4 0.9-0.1 1.3 0.1 0.2 0.4 0.3 0.7 0.3q0.2 0 0.5-0.1c7.3-5.7 11.4-14.3 11.4-23.4 0-8.4-3.4-16.2-9.6-21.9z"/>
	<path id="Layer" fill-rule="evenodd" class="s0" d="m203.3 1406.8q-1.2 0-2.2-0.4-1-0.5-1.6-1.2-0.7-0.8-0.8-1.9l1.4-0.2q0.3 1.1 1.2 1.7 0.9 0.6 2.1 0.6 0.7 0 1.4-0.2 0.6-0.3 1-0.7 0.3-0.5 0.3-1.1 0-0.4-0.1-0.6-0.1-0.3-0.4-0.5-0.2-0.2-0.5-0.3-0.3-0.2-0.6-0.3l-2.9-0.8q-0.5-0.2-0.9-0.4-0.5-0.2-0.8-0.5-0.4-0.4-0.6-0.8-0.2-0.5-0.2-1.2 0-1 0.5-1.7 0.6-0.7 1.5-1.1 0.9-0.4 2-0.4 1.2 0 2.1 0.4 0.9 0.4 1.5 1.2 0.6 0.7 0.8 1.8l-1.5 0.2q-0.1-0.7-0.5-1.2-0.4-0.5-1-0.7-0.7-0.3-1.4-0.3-0.7 0-1.3 0.2-0.5 0.2-0.9 0.6-0.3 0.4-0.3 1 0 0.5 0.3 0.8 0.3 0.3 0.7 0.5 0.5 0.2 0.9 0.4l2.2 0.6q0.4 0.1 0.9 0.3 0.5 0.1 0.9 0.5 0.5 0.3 0.8 0.9 0.3 0.5 0.3 1.3 0 0.9-0.3 1.5-0.4 0.7-1 1.1-0.6 0.4-1.3 0.6-0.8 0.3-1.7 0.3zm9.7 0q-1.3 0-2.2-0.6-1-0.5-1.5-1.5-0.5-1.1-0.5-2.4 0-1.4 0.5-2.5 0.5-1 1.4-1.5 1-0.6 2.2-0.6 1.3 0 2.2 0.6 1 0.6 1.4 1.7 0.5 1.1 0.4 2.6h-0.7v-1.1h-0.8q-0.1-1.1-0.6-1.7-0.6-0.8-1.8-0.8-1.3 0-2 0.8-0.5 0.6-0.7 1.7h-0.5v1.1h0.5q0.1 1.3 0.7 2 0.7 0.8 1.9 0.8 0.9 0 1.5-0.4 0.6-0.4 1-1.1l1.4 0.5q-0.5 1.1-1.5 1.8-1.1 0.6-2.3 0.6zm2.5-4.2h-5.2q0-0.2 0-0.4 0-0.4 0-0.7h5.1q0.1 0.3 0.1 0.6zm3.3 3.9v-11.7h1.5v11.7zm3.9 0v-11.7h1.5v11.7z"/>
</svg>