<svg version="1.2" xmlns="http://www.w3.org/2000/svg" viewBox="0 0 299 83" width="299" height="83">
	<title>Icons</title>
	<style>
		.s0 { fill: #67bcab } 
		.s1 { fill: none;stroke: #ffffff;stroke-linecap: round;stroke-width: 2.5 } 
		.s2 { fill: #ffffff } 
	</style>
	<path fill-rule="evenodd" class="s0" d="m1 8.2c-0.5-0.4-0.6-1-0.5-1.6 0.2-0.6 0.6-1.1 1.2-1.2 0.6-0.2 1.2 0 1.6 0.4l7.3 7.5 11.8-12.2c0.4-0.4 1-0.6 1.6-0.4 0.6 0.1 1 0.6 1.2 1.2 0.1 0.6 0 1.2-0.4 1.7l-13 13.4c-0.4 0.3-0.8 0.5-1.2 0.5-0.5 0-0.9-0.2-1.2-0.5l-8.5-8.8z"/>
	<path fill-rule="evenodd" class="s1" d="m42.8 7.6h49.4"/>
	<path fill-rule="evenodd" class="s0" d="m1 40.7c-0.5-0.4-0.6-1.1-0.5-1.7 0.2-0.6 0.6-1 1.2-1.2 0.6-0.1 1.2 0 1.6 0.5l7.3 7.5 11.8-12.2c0.4-0.5 1-0.6 1.6-0.5 0.6 0.2 1 0.6 1.2 1.2 0.1 0.6 0 1.3-0.4 1.7l-13 13.4c-0.4 0.4-0.8 0.5-1.2 0.5-0.5 0-0.9-0.1-1.2-0.5l-8.5-8.7z"/>
	<path fill-rule="evenodd" class="s1" d="m42.8 39h49.4"/>
	<path fill-rule="evenodd" class="s0" d="m1 73.1c-0.5-0.4-0.6-1-0.5-1.6 0.2-0.6 0.6-1.1 1.2-1.2 0.6-0.2 1.2 0 1.6 0.4l7.3 7.5 11.8-12.2c0.4-0.4 1-0.6 1.6-0.4 0.6 0.1 1 0.6 1.2 1.2 0.1 0.6 0 1.2-0.4 1.7l-13 13.4c-0.4 0.3-0.8 0.5-1.2 0.5-0.5 0-0.9-0.2-1.2-0.5l-8.5-8.8z"/>
	<path fill-rule="evenodd" class="s1" d="m42.8 70.4h49.4"/>
	<path fill-rule="evenodd" class="s2" d="m112.1 11.2c-0.3-0.4-0.3-1 0-1.4 0.2-0.4 0.7-0.7 1.2-0.7h12.8c1.1 0 2.1 0.4 3 1 0.9 0.6 1.5 1.5 1.8 2.5l3.3 9.7h12c0.4-5.1 2.7-10 6.5-13.5 3.8-3.6 8.8-5.6 14-5.6 5.2 0 10.2 2 13.9 5.6 3.8 3.5 6.1 8.4 6.5 13.5h7.9c1.6 0 3.1 0.8 4 2.1 1 1.3 1.3 3 0.8 4.5l-8.6 26.5c-0.4 1-1 1.9-1.9 2.5-0.8 0.7-1.9 1-2.9 1h-42c-1.3 0-2.4 0.7-3.1 1.8-0.6 1.1-0.6 2.4 0 3.5 0.7 1.1 1.8 1.8 3.1 1.8h46.9q0.2 0 0.5 0.1l7.1 2.5c0.5 0.2 0.8 0.6 0.9 1.1 0.1 0.4-0.1 0.9-0.5 1.2-0.3 0.4-0.8 0.5-1.3 0.3l-6.9-2.5h-1.4c1.5 0.9 2.5 2.4 2.8 4.1 0.3 1.8-0.2 3.5-1.3 4.9-1.1 1.3-2.8 2.1-4.5 2.1-1.8 0-3.4-0.8-4.5-2.1-1.2-1.4-1.7-3.1-1.4-4.9 0.3-1.7 1.4-3.2 2.9-4.1h-30.9c1.5 0.9 2.5 2.4 2.8 4.1 0.3 1.8-0.2 3.5-1.3 4.9-1.1 1.3-2.8 2.1-4.5 2.1-1.8 0-3.4-0.8-4.5-2.1-1.2-1.4-1.7-3.1-1.4-4.9 0.3-1.7 1.4-3.2 2.9-4.1h-2.4c-2 0-3.9-1-5.1-2.6-1.2-1.7-1.5-3.8-0.8-5.7 0.6-1.9 2.2-3.4 4.1-4l-14.3-42.9c-0.1-0.5-0.4-0.9-0.8-1.2-0.4-0.3-0.9-0.4-1.4-0.4h-12.8c-0.5 0-1-0.3-1.2-0.7zm54.6-5.2c-4.7 0-9.2 1.9-12.6 5.2-3.3 3.3-5.2 7.8-5.2 12.5 0 4.7 1.9 9.2 5.2 12.5 3.4 3.4 7.9 5.2 12.6 5.2 4.7 0 9.2-1.8 12.5-5.2 3.3-3.3 5.2-7.8 5.2-12.5 0-4.7-1.9-9.2-5.2-12.5-3.3-3.3-7.8-5.2-12.5-5.2zm22.2 70.1c0.6-0.6 1-1.4 1-2.3 0-0.8-0.4-1.6-1-2.2-0.6-0.6-1.4-0.9-2.2-0.9-0.9 0-1.7 0.3-2.3 0.9-0.6 0.6-0.9 1.4-0.9 2.2 0 0.9 0.3 1.7 0.9 2.3 0.6 0.6 1.4 0.9 2.3 0.9 0.8 0 1.6-0.3 2.2-0.9zm-36.9 0c0.6-0.6 1-1.4 1-2.3 0-0.8-0.4-1.6-1-2.2-0.6-0.6-1.4-0.9-2.2-0.9-0.9 0-1.7 0.3-2.3 0.9-0.6 0.6-0.9 1.4-0.9 2.2 0 0.9 0.3 1.7 0.9 2.3 0.6 0.6 1.4 0.9 2.3 0.9 0.8 0 1.6-0.3 2.2-0.9zm-5.8-51h-11.1l10.3 31h41c0.4 0.1 0.9-0.1 1.3-0.4 0.4-0.3 0.7-0.7 0.8-1.1l8.6-26.5c0.3-0.7 0.1-1.5-0.3-2.1-0.4-0.6-1.1-0.9-1.8-0.9h-7.9c-0.4 5.2-2.7 10-6.5 13.6-3.7 3.5-8.7 5.5-13.9 5.5-5.2 0-10.2-2-14-5.5-3.8-3.6-6.1-8.4-6.5-13.6z"/>
	<path fill-rule="evenodd" class="s0" d="m156.8 23.1c-0.3-0.4-0.5-0.9-0.3-1.4 0.1-0.4 0.5-0.8 0.9-0.9 0.5-0.2 1 0 1.4 0.3l6 6 9.8-9.7c0.3-0.4 0.8-0.5 1.3-0.4 0.5 0.1 0.9 0.5 1 1 0.1 0.4 0 1-0.4 1.3l-10.7 10.8c-0.3 0.2-0.7 0.4-1 0.4-0.4 0-0.7-0.2-1-0.4l-7-7z"/>
	<path class="s0" d="m265 1c-8.8 0-15.8 7.1-15.8 15.9 0 8.7 7 15.8 15.8 15.8 8.7 0 15.8-7.1 15.8-15.8 0-8.8-7.1-15.9-15.8-15.9zm0 29.8c-7.7 0-14-6.3-14-13.9 0-7.7 6.3-14 14-14 7.7 0 13.9 6.3 13.9 14 0 7.6-6.2 13.9-13.9 13.9z"/>
	<path class="s0" d="m268.7 13.1c0 0.5 0.5 0.9 1 0.9 0.5 0 0.9-0.4 0.9-0.9 0-2.6-2.1-4.7-4.7-4.7v-1.4c0-0.6-0.4-1-0.9-1-0.5 0-0.9 0.4-0.9 1v1.4h-0.1c-1.2 0-2.4 0.5-3.3 1.4-0.9 0.8-1.4 2-1.4 3.3 0 1.2 0.5 2.4 1.4 3.3 0.9 0.9 2.1 1.4 3.3 1.4v5.7c-1.5 0-2.8-1.3-2.8-2.9 0-0.5-0.4-0.9-0.9-0.9-0.6 0-1 0.4-1 0.9 0 2.6 2.1 4.7 4.7 4.7v1.5c0 0.5 0.4 0.9 0.9 0.9 0.6 0 1-0.4 1-0.9v-1.5c2.6 0 4.7-2.1 4.7-4.7 0-2.6-2.1-4.7-4.7-4.7v-5.7c1.6 0.1 2.8 1.3 2.8 2.9zm-6.7 2c-0.5-0.6-0.8-1.3-0.8-2 0-0.8 0.3-1.5 0.8-2 0.6-0.6 1.3-0.9 2-0.9v5.7c-0.7 0-1.4-0.3-2-0.8zm6.7 5.5c0 1.6-1.2 2.9-2.8 2.9v-5.7c1.6 0 2.8 1.3 2.8 2.8z"/>
	<path class="s2" d="m280.7 52.4q0 0 0 0-0.1-0.2-0.2-0.3 0 0 0 0-0.1-0.1-0.2-0.2l-14.9-8.5c-0.3-0.2-0.6-0.2-0.9 0l-14.9 8.5q-0.1 0.1-0.2 0.2-0.1 0.1-0.1 0.3-0.1 0-0.1 0 0 0.2 0 0.3v19c0 0.3 0.1 0.6 0.4 0.7l14.9 9.4q0.2 0.2 0.5 0.2 0.2 0 0.5-0.2l14.8-9.4c0.3-0.1 0.5-0.4 0.5-0.7v-19q0-0.1-0.1-0.3zm-15.7-7.1l13 7.5-13 7.7-13.1-7.7zm0 34.6l-13.9-8.8v-16.7l13.4 8q0.3 0.1 0.5 0.1 0.3 0 0.5-0.1l13.5-8v16.7z"/>
	<path class="s2" d="m244 57.9c-0.5 0-0.9 0.4-0.9 0.9v4.5c-6.2-5.5-9.8-13.4-9.8-21.8 0-9.1 4.1-17.5 11.3-23.1 0.4-0.3 0.5-0.9 0.2-1.3-0.3-0.4-0.9-0.5-1.3-0.1-7.6 5.9-12 14.9-12 24.5 0 8.8 3.6 17 10 22.9h-3.9c-0.5 0-1 0.4-1 0.9 0 0.5 0.5 0.9 1 0.9h6.4q0.2 0 0.4 0 0.1-0.1 0.1-0.1 0.1-0.1 0.2-0.2 0.1 0 0.1 0 0-0.1 0-0.1 0.1-0.1 0.1-0.2 0-0.1 0-0.2 0.1 0 0.1-0.1v-6.5c0-0.5-0.4-0.9-1-0.9z"/>
	<path class="s2" d="m288.4 18.6h4c0.5 0 0.9-0.4 0.9-0.9 0-0.5-0.4-0.9-0.9-0.9h-6.5q0 0-0.1 0-0.1 0-0.2 0 0 0-0.1 0.1-0.1 0-0.2 0.1 0 0-0.1 0.1 0 0 0 0-0.1 0.1-0.1 0.1 0 0.1-0.1 0.2 0 0.1 0 0.2 0 0 0 0.1v6.5c0 0.5 0.4 0.9 0.9 0.9 0.5 0 0.9-0.4 0.9-0.9v-4.5c6.3 5.5 9.8 13.4 9.8 21.8 0 9.1-4.1 17.5-11.3 23.1-0.4 0.3-0.5 0.9-0.1 1.3 0.1 0.2 0.4 0.4 0.7 0.4q0.3 0 0.6-0.2c7.6-6 12-14.9 12-24.6 0-8.8-3.7-17-10.1-22.9z"/>
</svg>