<svg version="1.2" xmlns="http://www.w3.org/2000/svg" viewBox="0 0 108 106" width="108" height="106">
	<title>Group 74</title>
	<style>
		.s0 { fill: #00dafd } 
	</style>
	<path class="s0" d="m93.1 23l-2.8-17.1-13.4 11zm-84.2 48.6c-12-20.7-3.4-48.4 19.6-61.7l-1.5-2.6c-24.2 14-33.7 43.4-20.7 65.8zm19.6-61.7c18.7-10.8 41-8.6 55.1 3.8l1.9-2.3c-15.1-13.3-38.7-15.5-58.5-4.1z"/>
	<path class="s0" d="m15.1 83l2.8 17.1 13.4-11zm84.2-48.6c12 20.7 3.4 48.4-19.6 61.7l1.5 2.6c24.2-14 33.7-43.4 20.7-65.8zm-19.6 61.7c-18.7 10.8-41 8.6-55.1-3.8l-2 2.3c15.2 13.3 38.8 15.5 58.6 4.1z"/>
</svg>