<svg version="1.2" xmlns="http://www.w3.org/2000/svg" viewBox="0 0 65 78" width="65" height="78">
	<title>noun-sell-6865162 1</title>
	<style>
		.s0 { fill: #67bcab } 
		.s1 { fill: #ffffff } 
	</style>
	<path class="s0" d="m32.3 0.6c-8.3 0-15.1 6.7-15.1 15 0 8.3 6.8 15.1 15.1 15.1 8.3 0 15.1-6.8 15.1-15.1 0-8.3-6.8-15-15.1-15zm0 28.3c-7.3 0-13.3-6-13.3-13.3 0-7.3 6-13.3 13.3-13.3 7.3 0 13.3 6 13.3 13.3 0 7.3-6 13.3-13.3 13.3z"/>
	<path class="s0" d="m35.9 12c0 0.5 0.4 0.9 0.9 0.9 0.5 0 0.9-0.4 0.9-0.9 0-2.4-2-4.4-4.5-4.4v-1.4c0-0.5-0.4-0.9-0.9-0.9-0.5 0-0.9 0.4-0.9 0.9v1.4c-1.2 0-2.3 0.4-3.1 1.3-0.9 0.8-1.4 1.9-1.4 3.1 0 1.2 0.5 2.3 1.3 3.2 0.9 0.8 2 1.3 3.2 1.3v5.4c-1.5 0-2.7-1.2-2.7-2.7 0-0.5-0.4-0.9-0.9-0.9-0.5 0-0.9 0.4-0.9 0.9 0 2.5 2 4.5 4.5 4.5v1.4c0 0.4 0.4 0.8 0.9 0.8 0.5 0 0.9-0.4 0.9-0.8v-1.4c2.5 0 4.5-2 4.5-4.5 0-2.4-2-4.5-4.5-4.5v-5.4c1.5 0 2.7 1.2 2.7 2.7zm-6.4 1.9c-0.5-0.5-0.8-1.2-0.8-1.9 0-0.7 0.3-1.4 0.8-1.9 0.5-0.5 1.2-0.8 1.9-0.8v5.4c-0.7 0-1.4-0.3-1.9-0.8zm6.4 5.3c0 1.5-1.2 2.7-2.7 2.7v-5.4c1.5 0 2.7 1.2 2.7 2.7z"/>
	<path class="s1" d="m47.3 49.5q0 0 0-0.1-0.1-0.1-0.2-0.2 0 0 0 0-0.1-0.1-0.2-0.1l-14.1-8.2c-0.3-0.1-0.7-0.1-0.9 0l-14.2 8.2q-0.1 0-0.2 0.1-0.1 0.1-0.2 0.2 0 0.1 0 0.1-0.1 0.2-0.1 0.3v18c0 0.3 0.2 0.6 0.5 0.8l14.1 8.9q0.3 0.2 0.5 0.2 0.3 0 0.5-0.2l14.2-8.9c0.2-0.2 0.4-0.5 0.4-0.8v-18q0-0.1-0.1-0.3zm-15-6.8l12.4 7.1-12.4 7.4-12.4-7.4zm0 33l-13.3-8.3v-16l12.8 7.6q0.2 0.2 0.5 0.2 0.2 0 0.4-0.2l12.9-7.6v16z"/>
	<path class="s1" d="m12.4 54.7c-0.5 0-0.9 0.4-0.9 0.9v4.3c-5.9-5.3-9.3-12.8-9.3-20.8 0-8.6 3.9-16.7 10.7-22 0.4-0.3 0.5-0.9 0.2-1.2-0.3-0.4-0.9-0.5-1.3-0.2-7.2 5.7-11.4 14.2-11.4 23.4 0 8.4 3.5 16.2 9.6 21.8h-3.8c-0.5 0-0.9 0.4-0.9 0.9 0 0.5 0.4 0.9 0.9 0.9h6.2q0.2 0 0.3-0.1 0.1 0 0.1-0.1 0.1 0 0.2-0.1 0.1 0 0.1-0.1 0 0 0-0.1 0.1 0 0.1-0.1 0-0.1 0-0.2 0.1 0 0.1-0.1v-6.2c0-0.5-0.4-0.9-0.9-0.9z"/>
	<path class="s1" d="m54.6 17.3h3.8c0.5 0 0.9-0.4 0.9-0.9 0-0.5-0.4-0.9-0.9-0.9h-6.2q0 0 0 0-0.1 0-0.2 0.1-0.1 0-0.1 0-0.1 0.1-0.2 0.1-0.1 0.1-0.1 0.1 0 0-0.1 0.1 0 0 0 0.1 0 0-0.1 0.1 0 0.1 0 0.2 0 0.1 0 0.1v6.2c0 0.5 0.4 0.9 0.9 0.9 0.4 0 0.8-0.4 0.8-0.9v-4.3c6 5.3 9.3 12.8 9.3 20.8 0 8.6-3.9 16.7-10.7 22-0.4 0.3-0.4 0.9-0.1 1.2 0.1 0.3 0.4 0.4 0.7 0.4q0.2 0 0.5-0.2c7.3-5.7 11.4-14.2 11.4-23.4 0-8.4-3.4-16.2-9.6-21.8z"/>
</svg>