<svg version="1.2" xmlns="http://www.w3.org/2000/svg" viewBox="0 0 158 108" width="158" height="108">
	<title>Icons</title>
	<style>
		.s0 { fill: none;stroke: #9ba4e9;stroke-linecap: round;stroke-linejoin: round;stroke-width: 2 } 
		.s1 { fill: none;stroke: #ffffff;stroke-linejoin: round;stroke-width: 2 } 
		.s2 { fill: none;stroke: #ffffff;stroke-linecap: round;stroke-linejoin: round;stroke-width: 2 } 
	</style>
	<path class="s0" d="m8.1 34.2h3.8"/>
	<path class="s0" d="m16.3 34.2h10.9"/>
	<path class="s0" d="m15.7 38.7h-7.6"/>
	<path class="s0" d="m3.6 38.7h-2"/>
	<path class="s1" d="m36.6 18.8c0.6 0 1.2-0.3 1.6-0.9 0.3-0.5 0.4-1.2 0.1-1.8l-8.2-15.1h3.7l15 16.9c0.3 0.6 0.9 0.9 1.5 0.9z"/>
	<path class="s2" d="m22.1 18.8h50.7c4.7 0 8.6 3.8 8.6 8.6h-26.8c-0.3 0-0.6 0.1-0.9 0.4l-16.1 16.9c-0.4 0.3-0.8 0.5-1.3 0.5h-3.7c-0.7 0-1.2-0.8-0.8-1.5l9.5-15.5c0.2-0.3 0-0.7-0.4-0.7h-26.6l-10.3-5.6c-0.5-0.3-0.8-0.8-0.8-1.4v-0.7c0-0.6 0.5-1 1-1h7.8l-3.9-11.7h4.2l9.8 11.7z"/>
	<path class="s2" d="m79 106.2h23.5"/>
	<path class="s2" d="m120.6 106.2h29.3"/>
	<path class="s2" d="m108.1 106.2h7.2"/>
	<path class="s0" d="m105.8 71.9v-8.8c0-0.5-0.4-1-1-1h-50v10.1"/>
	<path class="s0" d="m95.5 71.6v-18.6c0-0.6-0.5-1-1-1h-38.7c-0.6 0-1 0.4-1 1v19.3"/>
	<path class="s0" d="m65.1 52v20.3"/>
	<path class="s0" d="m85.5 71.6v-19.6"/>
	<path class="s0" d="m75.3 71.6v-19.6"/>
	<path class="s2" d="m46.7 72.3h88.2l3.8-4.6h17.7l-7.1 24c-1.1 4-4.6 6.7-8.7 6.7h-79.4c-3.9 0-7.5-2.7-8.6-6.5l-5.9-19.6z"/>
	<path class="s2" d="m149.3 91.7h-96.7"/>
	<path class="s2" d="m112.4 32.2h21.8v1.4c0 3.9-3.2 7-7.1 7h-7.6c-3.9 0-7.1-3.1-7.1-7v-1.4z"/>
	<path class="s2" d="m125.4 32.2l-0.9-7.2h-1.9l-0.9 7.2"/>
	<path class="s2" d="m120.7 40.6l-3.8 31 13.3 0.1-3.8-31.1"/>
	<path class="s2" d="m61 84.8c1.5 0 2.8-1.3 2.8-2.9 0-1.6-1.3-2.8-2.8-2.8-1.6 0-2.9 1.2-2.9 2.8 0 1.6 1.3 2.9 2.9 2.9z"/>
	<path class="s2" d="m75.4 84.8c1.6 0 2.9-1.3 2.9-2.9 0-1.6-1.3-2.8-2.9-2.8-1.6 0-2.9 1.2-2.9 2.8 0 1.6 1.3 2.9 2.9 2.9z"/>
	<path class="s2" d="m89.9 84.8c1.5 0 2.8-1.3 2.8-2.9 0-1.6-1.3-2.8-2.8-2.8-1.6 0-2.9 1.2-2.9 2.8 0 1.6 1.3 2.9 2.9 2.9z"/>
	<path class="s2" d="m118.8 84.8c1.5 0 2.8-1.3 2.8-2.9 0-1.6-1.3-2.8-2.8-2.8-1.6 0-2.9 1.2-2.9 2.8 0 1.6 1.3 2.9 2.9 2.9z"/>
	<path class="s2" d="m133.2 84.8c1.6 0 2.9-1.3 2.9-2.9 0-1.6-1.3-2.8-2.9-2.8-1.6 0-2.9 1.2-2.9 2.8 0 1.6 1.3 2.9 2.9 2.9z"/>
	<path class="s2" d="m104.3 84.8c1.6 0 2.9-1.3 2.9-2.9 0-1.6-1.3-2.8-2.9-2.8-1.6 0-2.9 1.2-2.9 2.8 0 1.6 1.3 2.9 2.9 2.9z"/>
</svg>