<svg version="1.2" xmlns="http://www.w3.org/2000/svg" viewBox="0 0 89 51" width="89" height="51">
	<title>noun-shipping-6824830 1</title>
	<style>
		.s0 { fill: #ffffff } 
		.s1 { fill: #9ba4e9 } 
	</style>
	<path class="s0" d="m18.3 37.4c0.5 0 1 0.5 1 1q0.6-1.4 1.7-2.5c1.6-1.5 3.7-2.5 6.1-2.5 2.3 0 4.5 1 6 2.5q1.1 1.1 1.8 2.5c0-0.5 0.4-1 1-1h28.1q0.1 0 0.1 0h0.1q0-0.1 0-0.2v-30.5c0-1.2-0.5-2.4-1.3-3.2-0.9-0.9-2-1.4-3.3-1.4h-40.4c-1.3 0-2.4 0.5-3.2 1.3-0.8 0.8-1.4 1.8-1.4 3-0.1 0.6-0.6 1-1.1 1-0.6 0-1-0.5-1-1.1 0.1-1.7 0.9-3.3 2.1-4.4 1.2-1.1 2.8-1.8 4.5-1.8h40.5c1.9 0 3.5 0.7 4.7 1.9 1.2 1.2 2 2.9 2 4.7v2.7h7.9q0.7 0 1.4 0.3 0.6 0.3 1.1 0.8l10.9 10.6q0.5 0.6 0.8 1.2 0.3 0.7 0.3 1.5v13.4c0 0.6-0.3 1.2-0.7 1.6-0.4 0.4-0.9 0.7-1.6 0.7h-1q-0.2 0-0.4-0.1 0.4 1.2 0.4 2.6c0 2.4-0.9 4.5-2.5 6-1.5 1.6-3.7 2.5-6 2.5-2.4 0-4.5-0.9-6.1-2.5-1.5-1.5-2.5-3.6-2.5-6q0-1.4 0.4-2.6-0.2 0.1-0.4 0.1h-32.4q-0.5 0-0.7-0.3 0.4 1.3 0.4 2.8c0 2.4-0.9 4.5-2.5 6-1.5 1.6-3.7 2.5-6 2.5-2.4 0-4.5-0.9-6.1-2.5-1.5-1.5-2.5-3.6-2.5-6q0-1.5 0.5-2.8-0.3 0.3-0.7 0.3h-3.5c-0.7 0-1.2-0.3-1.6-0.7-0.4-0.4-0.7-1-0.7-1.6v-4.2c0-0.6 0.5-1 1-1 0.6 0 1.1 0.4 1.1 1v4.2q0 0.1 0 0.2 0.1 0 0.2 0h3.5zm8.8-1.9c-1.8 0-3.4 0.7-4.6 1.9-1.2 1.2-1.9 2.8-1.9 4.6 0 1.8 0.7 3.4 1.9 4.6 1.2 1.2 2.8 1.9 4.6 1.9 1.8 0 3.4-0.7 4.6-1.9 1.1-1.2 1.9-2.8 1.9-4.6 0-1.8-0.8-3.4-1.9-4.6-1.2-1.2-2.8-1.9-4.6-1.9zm-3 3.5c0.8-0.7 1.8-1.2 3-1.2 1.1 0 2.1 0.4 2.9 1.2 0.8 0.8 1.3 1.8 1.3 3 0 1.2-0.5 2.2-1.3 3-0.7 0.7-1.8 1.2-2.9 1.2-1.2 0-2.2-0.5-3-1.2-0.8-0.8-1.2-1.8-1.2-3 0-1.2 0.4-2.2 1.2-3zm3 0.8c-0.6 0-1.2 0.3-1.6 0.7-0.3 0.4-0.6 0.9-0.6 1.5 0 0.6 0.3 1.1 0.6 1.5 0.4 0.4 1 0.7 1.6 0.7 0.6 0 1.1-0.3 1.5-0.7 0.4-0.4 0.6-0.9 0.6-1.5 0-0.6-0.2-1.1-0.6-1.5v-0.1c-0.4-0.3-1-0.6-1.5-0.6zm49.8-4.3c-1.8 0-3.5 0.7-4.6 1.9-1.2 1.2-1.9 2.8-1.9 4.6 0 1.8 0.7 3.4 1.9 4.6 1.1 1.2 2.8 1.9 4.6 1.9 1.8 0 3.4-0.7 4.6-1.9 1.1-1.2 1.9-2.8 1.9-4.6 0-1.8-0.8-3.4-1.9-4.6-1.2-1.2-2.8-1.9-4.6-1.9zm-6.1 0.4c1.6-1.5 3.7-2.5 6.1-2.5 2.3 0 4.5 1 6 2.5q1 1 1.6 2.2c0.1-0.4 0.5-0.7 0.9-0.7h1q0.1 0 0.2 0 0-0.1 0-0.2v-13.4q0-0.4-0.1-0.7-0.1-0.3-0.3-0.5l-10.9-10.7q-0.2-0.2-0.5-0.3-0.3-0.1-0.6-0.1h-7.9v25.7q0 0.1 0 0.2h2c0.4 0 0.8 0.3 0.9 0.7q0.7-1.2 1.6-2.2zm3.1 3.1c0.7-0.7 1.8-1.2 3-1.2 1.1 0 2.1 0.4 2.9 1.2 0.8 0.8 1.3 1.8 1.3 3 0 1.2-0.5 2.2-1.3 3-0.7 0.7-1.8 1.2-2.9 1.2-1.2 0-2.3-0.5-3-1.2-0.8-0.8-1.3-1.8-1.3-3 0-1.2 0.5-2.2 1.3-3zm3 0.8c-0.6 0-1.2 0.3-1.6 0.7-0.4 0.4-0.6 0.9-0.6 1.5 0 0.6 0.2 1.1 0.6 1.5 0.4 0.4 1 0.7 1.6 0.7 0.6 0 1.1-0.3 1.5-0.7 0.4-0.4 0.6-0.9 0.6-1.5 0-0.6-0.2-1.1-0.6-1.5l-0.1-0.1c-0.3-0.3-0.9-0.6-1.4-0.6zm-5.9-22.6h5.2q0.4 0 0.7 0.2h0.1q0.4 0.2 0.7 0.5l4.8 4.7q0.4 0.3 0.5 0.7 0.2 0.4 0.2 0.9v2.6c0 0.5-0.2 1.1-0.6 1.5l-0.1 0.1c-0.4 0.4-0.9 0.6-1.6 0.6h-9.9c-0.6 0-1.2-0.2-1.6-0.6v-0.1c-0.4-0.4-0.7-0.9-0.7-1.5v-7.3c0-0.6 0.3-1.2 0.7-1.6 0.4-0.4 1-0.7 1.6-0.7zm5.2 2.1h-5.2q-0.1 0-0.1 0-0.1 0.1-0.1 0.2v7.2q0 0.1 0.1 0.2 0 0.1 0.1 0.1h9.9q0.1 0 0.2-0.1 0-0.1 0-0.2v-2.6q0 0 0 0 0 0 0-0.1l-4.8-4.7q0 0 0 0h-0.1z"/>
	<path class="s1" d="m24.1 25.7h-15.4c-1.2 0-2.2 1-2.2 2.2 0 1.2 1 2.2 2.2 2.2h15.4c1.2 0 2.2-1 2.2-2.2 0-1.2-1-2.2-2.2-2.2z"/>
	<path class="s1" d="m20.6 17.6h-15.4c-1.2 0-2.2 1-2.2 2.2 0 1.2 1 2.2 2.2 2.2h15.4c1.2 0 2.2-1 2.2-2.2 0-1.2-1-2.2-2.2-2.2z"/>
	<path class="s1" d="m17.7 9.3h-15.4c-1.2 0-2.2 1-2.2 2.2 0 1.2 1 2.2 2.2 2.2h15.4c1.2 0 2.2-1 2.2-2.2 0-1.2-1-2.2-2.2-2.2z"/>
</svg>