<svg version="1.2" xmlns="http://www.w3.org/2000/svg" viewBox="0 0 304 90" width="304" height="90">
	<title>Icons copy</title>
	<style>
		.s0 { fill: none;stroke: #ffffff;stroke-width: 2.5 } 
		.s1 { fill: none;stroke: #00dafd;stroke-width: 2 } 
		.s2 { fill: #ffffff } 
		.s3 { fill: #000000;stroke: #00dafd;stroke-width: 2.5 } 
		.s4 { fill: none;stroke: #ffffff;stroke-width: 2.7 } 
		.s5 { fill: none;stroke: #ffffff;stroke-linecap: round;stroke-width: 2.7 } 
		.s6 { fill: none;stroke: #00dafd;stroke-width: 2.7 } 
	</style>
	<path fill-rule="evenodd" class="s0" d="m35.7 69.4c-18.7 0-33.8-15.1-33.8-33.8 0-18.7 15.1-33.8 33.8-33.8 18.7 0 33.8 15.1 33.8 33.8 0 18.7-15.1 33.8-33.8 33.8z"/>
	<path fill-rule="evenodd" class="s1" d="m35.7 62.6c-14.9 0-27-12.1-27-27 0-15 12.1-27 27-27 15 0 27 12 27 27 0 14.9-12 27-27 27z"/>
	<path class="s2" d="m76.8 89c1.1 1.2 3 1.2 4.2 0 1.2-1.1 1.2-3 0-4.2zm-24-24l24 24 4.3-4.2-24-24z"/>
	<path fill-rule="evenodd" class="s0" d="m123 12.1h54c4.5 0 8.2 3.7 8.2 8.2v54c0 4.6-3.7 8.3-8.2 8.3h-54c-4.6 0-8.3-3.7-8.3-8.3v-54c0-4.5 3.7-8.2 8.3-8.2z"/>
	<path fill-rule="evenodd" class="s0" d="m150.5 66.6c-11 0-19.8-8.9-19.8-19.8 0-10.9 8.8-19.7 19.8-19.7 10.9 0 19.7 8.8 19.7 19.7 0 10.9-8.8 19.8-19.7 19.8z"/>
	<path fill-rule="evenodd" class="s0" d="m173.5 30.1c-3.2 0-5.8-2.6-5.8-5.8 0-3.2 2.6-5.7 5.8-5.7 3.1 0 5.7 2.5 5.7 5.7 0 3.2-2.6 5.8-5.7 5.8z"/>
	<path class="s3" d="m128.2 23.9c2.1-1.7 4-3.5 5.4-5.3 0.6-0.8 1.2-2.1 1.7-3.5 0.5-1.5 0.8-2.9 0.9-3.9-0.2-1.6-0.7-3.6-1.6-4.7-0.6-0.7-1.3-1.3-2-1.8-1.1-0.8-2.5-1.2-3.8-1.1-1.4 0-2.8 0.4-4.2 1.5q-0.9 0.7-1.7 1.6l-0.9 1.2-1-1.2q-0.8-0.9-1.6-1.6zm0 0c-2.1 1.6-4.2 2.9-6.2 3.7q-0.1 0-0.1 0l-0.5 1.2m6.8-4.9l-11.5 0.8m-7.4-18.1c-1.3 1.6-1.7 3.6-1.6 5.7zm0 0c0.6-0.7 1.2-1.3 2-1.8 1.1-0.8 2.4-1.2 3.8-1.1 1.4 0 2.8 0.4 4.2 1.5zm7.4 18.1c-0.8-0.6-2.1-1.8-3.4-3-1.4-1.2-2.6-2.4-3-3zm0 0c1.7 1.2 3.5 2.3 5.2 2.9l-0.5 1.2m0 0c0.3 0.1 0.7 0.1 1 0l-6.5-3.1c1.8 1.3 3.7 2.4 5.5 3.1zm-11.2-10.2c-1.4-1.8-2.4-4.1-2.5-6.3z"/>
	<path fill-rule="evenodd" class="s4" d="m225.6 9h67.7c4.8 0 8.8 4 8.8 8.8v44.7c0 4.9-4 8.8-8.8 8.8h-67.7c-4.9 0-8.8-3.9-8.8-8.8v-44.7c0-4.8 3.9-8.8 8.8-8.8z"/>
	<path class="s5" d="m233 82.2h52.8"/>
	<path class="s5" d="m216.8 59.1h85.3"/>
	<path class="s5" d="m254.7 65.9h8.1"/>
	<path class="s5" d="m273.6 82.2l-5.4-10.9"/>
	<path class="s5" d="m245.2 82.2l5.4-10.9"/>
	<path fill-rule="evenodd" class="s6" d="m248.9 34.4l-10.9 10.8"/>
	<path fill-rule="evenodd" class="s6" d="m281.4 24.8l-10.8 12.2"/>
	<path fill-rule="evenodd" class="s6" d="m263.5 38.7l-9.5-5.5"/>
	<path fill-rule="evenodd" class="s6" d="m250.6 34.8c-2.2 0-4-1.8-4-4.1 0-2.2 1.8-4.1 4-4.1 2.3 0 4.1 1.9 4.1 4.1 0 2.3-1.8 4.1-4.1 4.1z"/>
	<path fill-rule="evenodd" class="s6" d="m266.9 44.2c-2.3 0-4.1-1.8-4.1-4 0-2.3 1.8-4.1 4.1-4.1 2.2 0 4 1.8 4 4.1 0 2.2-1.8 4-4 4z"/>
	<path fill-rule="evenodd" class="s6" d="m284.5 25.3c-2.3 0-4.1-1.8-4.1-4.1 0-2.2 1.8-4 4.1-4 2.2 0 4 1.8 4 4 0 2.3-1.8 4.1-4 4.1z"/>
	<path fill-rule="evenodd" class="s6" d="m234.4 52.4c-2.3 0-4.1-1.8-4.1-4.1 0-2.2 1.8-4.1 4.1-4.1 2.2 0 4 1.9 4 4.1 0 2.3-1.8 4.1-4 4.1z"/>
</svg>