<svg width="22" height="22" viewBox="0 0 22 22" fill="none" xmlns="http://www.w3.org/2000/svg">
<path d="M14.5905 2.69455C15.9506 3.77466 18.9509 6.2149 20.391 7.37501C20.7911 7.69504 21.1111 8.3351 21.1111 8.85515V19.1362C21.1111 20.2163 20.231 21.0563 19.1909 21.0563H2.54931C1.4692 21.0563 0.629118 20.2163 0.629118 19.1362V8.85515C0.629118 8.3351 0.909145 7.69504 1.30918 7.37501C2.74932 6.2149 5.74962 3.77466 7.10975 2.69455C7.98984 1.97448 9.38997 0.574345 10.8701 0.574345C12.3103 0.574345 13.7504 2.01449 14.5905 2.69455ZM19.1909 19.7762C19.511 19.7762 19.831 19.4962 19.831 19.1362V8.85515C19.831 8.65513 19.711 8.45511 19.591 8.3351C18.5109 7.49502 14.7105 4.41472 13.7904 3.69465C13.0703 3.13459 11.7902 1.85447 10.8701 1.85447C9.91002 1.85447 8.6299 3.13459 7.90983 3.69465C6.98974 4.41472 3.18937 7.49502 2.10926 8.3351C1.98925 8.45511 1.90924 8.65513 1.90924 8.85515V19.1362C1.90924 19.4962 2.18927 19.7762 2.54931 19.7762H19.1909ZM18.8309 11.1354C18.9909 11.3354 18.9509 11.6554 18.7509 11.8154C17.8308 12.5755 16.5507 13.5756 14.5905 15.1358C13.7504 15.8158 12.3103 17.256 10.8301 17.216C9.38997 17.256 7.94983 15.8158 7.10975 15.1358C5.14956 13.5756 3.86943 12.5755 2.94934 11.8154C2.74932 11.6554 2.70932 11.3354 2.86934 11.1354L3.06936 10.8954C3.22937 10.6953 3.5494 10.6553 3.74942 10.8153C4.66951 11.5754 5.94964 12.5755 7.90983 14.1357C8.58989 14.6957 9.91002 15.9758 10.8701 15.9358C11.7902 15.9758 13.1103 14.6957 13.7904 14.1357C15.7506 12.5755 17.0307 11.5754 17.9508 10.8153C18.1508 10.6553 18.4709 10.6953 18.6309 10.8954L18.8309 11.1354Z" fill="#019ED9"/>
</svg>
