<svg width="18" height="25" viewBox="0 0 18 25" fill="none" xmlns="http://www.w3.org/2000/svg">
<path d="M9.1065 4.69525C6.69784 4.69525 4.65975 6.73334 4.65975 9.142C4.65975 11.597 6.69784 13.5888 9.1065 13.5888C11.5615 13.5888 13.5533 11.597 13.5533 9.142C13.5533 6.73334 11.5615 4.69525 9.1065 4.69525ZM9.1065 12.1065C7.48529 12.1065 6.142 10.8095 6.142 9.142C6.142 7.52079 7.48529 6.1775 9.1065 6.1775C10.774 6.1775 12.071 7.52079 12.071 9.142C12.071 10.8095 10.774 12.1065 9.1065 12.1065ZM9.1065 0.2485C4.19655 0.2485 0.213 4.23205 0.213 9.142C0.213 12.755 1.46365 13.774 8.22641 23.5013C8.6433 24.1498 9.61602 24.1498 10.0329 23.5013C16.7957 13.774 18 12.755 18 9.142C18 4.23205 14.0628 0.2485 9.1065 0.2485ZM9.1065 22.2043C2.66798 12.8939 1.69525 12.1528 1.69525 9.142C1.69525 7.19655 2.4827 5.34373 3.8723 3.9078C5.30823 2.5182 7.16105 1.73075 9.1065 1.73075C11.0983 1.73075 12.9511 2.5182 14.387 3.9078C15.7766 5.34373 16.5178 7.19655 16.5178 9.142C16.5178 12.1528 15.5913 12.8939 9.1065 22.2043Z" fill="#019ED9"/>
</svg>
