<svg width="23" height="24" viewBox="0 0 23 24" fill="none" xmlns="http://www.w3.org/2000/svg">
<path d="M1.2163 1.98072C0.553081 2.11336 0.110932 2.64394 0.110932 3.30716C0.110932 14.4935 9.21919 23.5133 20.3613 23.5133C21.0246 23.5133 21.5551 23.0712 21.6878 22.4522L22.7489 17.9865C22.8816 17.3675 22.5279 16.7043 21.9531 16.439L17.1336 14.3609C16.5589 14.1398 15.8956 14.2724 15.5419 14.7588L13.5965 17.1464C10.5014 15.6431 8.02539 13.1671 6.52208 10.072L8.90969 8.12658C9.39605 7.77286 9.52869 7.10964 9.30762 6.53484L7.22952 1.71543C6.96423 1.09642 6.30101 0.786915 5.63779 0.91956L1.2163 1.98072ZM20.3171 22.0985C9.97084 22.0985 1.57002 13.6976 1.57002 3.35138L5.94729 2.33443L7.98117 7.06542L4.75349 9.71831C6.92002 14.2724 9.39605 16.7485 13.9502 18.915L16.6031 15.6873L21.3341 17.7212L20.3171 22.0985Z" fill="#019ED9"/>
</svg>
