<svg width="514" height="164" viewBox="0 0 514 164" fill="none" xmlns="http://www.w3.org/2000/svg">
<circle cx="101" cy="22" r="20" stroke="url(#paint0_linear_15184_72327)" stroke-width="2"/>
<circle cx="101" cy="142" r="20" stroke="url(#paint1_linear_15184_72327)" stroke-width="2"/>
<circle cx="21" cy="102" r="20" stroke="url(#paint2_linear_15184_72327)" stroke-width="2"/>
<circle cx="141" cy="102" r="20" stroke="url(#paint3_linear_15184_72327)" stroke-width="2"/>
<circle cx="193" cy="82.0001" r="20" stroke="url(#paint4_linear_15184_72327)" stroke-width="2"/>
<circle cx="313" cy="82.0001" r="20" stroke="url(#paint5_linear_15184_72327)" stroke-width="2"/>
<circle cx="253" cy="22" r="20" stroke="url(#paint6_linear_15184_72327)" stroke-width="2"/>
<circle cx="253" cy="142" r="20" stroke="url(#paint7_linear_15184_72327)" stroke-width="2"/>
<path d="M1 102C1 90.9544 9.9543 82.0001 21 82.0001H141C152.046 82.0001 161 90.9544 161 102C161 113.046 152.046 122 141 122H21C9.9543 122 1 113.046 1 102Z" stroke="url(#paint8_linear_15184_72327)" stroke-width="2"/>
<path d="M101 162C89.9543 162 81 153.046 81 142L81 22.0001C81 10.9544 89.9543 2.00006 101 2.00006C112.046 2.00006 121 10.9544 121 22.0001L121 142C121 153.046 112.046 162 101 162Z" stroke="url(#paint9_linear_15184_72327)" stroke-width="2"/>
<path d="M7.14214 115.995C-0.668351 108.184 -0.668351 95.5212 7.14214 87.7107L86.7107 8.14216C94.5212 0.331675 107.184 0.331668 114.995 8.14215C122.805 15.9526 122.805 28.6159 114.995 36.4264L35.4264 115.995C27.6159 123.805 14.9526 123.805 7.14214 115.995Z" stroke="url(#paint10_linear_15184_72327)" stroke-width="2"/>
<circle cx="453" cy="22" r="20" stroke="url(#paint11_linear_15184_72327)" stroke-width="2"/>
<circle cx="453" cy="142" r="20" stroke="url(#paint12_linear_15184_72327)" stroke-width="2"/>
<circle cx="373" cy="102" r="20" stroke="url(#paint13_linear_15184_72327)" stroke-width="2"/>
<circle cx="493" cy="102" r="20" stroke="url(#paint14_linear_15184_72327)" stroke-width="2"/>
<path d="M353 102C353 90.9544 361.954 82.0001 373 82.0001H493C504.046 82.0001 513 90.9544 513 102C513 113.046 504.046 122 493 122H373C361.954 122 353 113.046 353 102Z" stroke="url(#paint15_linear_15184_72327)" stroke-width="2"/>
<path d="M453 162C441.954 162 433 153.046 433 142L433 22.0001C433 10.9544 441.954 2.00006 453 2.00006C464.046 2.00006 473 10.9544 473 22.0001L473 142C473 153.046 464.046 162 453 162Z" stroke="url(#paint16_linear_15184_72327)" stroke-width="2"/>
<path d="M359.142 115.995C351.332 108.184 351.332 95.5212 359.142 87.7107L438.711 8.14216C446.521 0.331675 459.184 0.331668 466.995 8.14215C474.805 15.9526 474.805 28.6159 466.995 36.4264L387.426 115.995C379.616 123.805 366.953 123.805 359.142 115.995Z" stroke="url(#paint17_linear_15184_72327)" stroke-width="2"/>
<circle cx="253" cy="82" r="80" stroke="url(#paint18_linear_15184_72327)" stroke-width="2"/>
<circle cx="253" cy="82" r="40" stroke="url(#paint19_linear_15184_72327)" stroke-width="2"/>
<line x1="8.74228e-08" y1="1" x2="513" y2="1.00004" stroke="url(#paint20_linear_15184_72327)" stroke-width="2"/>
<line x1="-8.74228e-08" y1="163" x2="513" y2="163" stroke="url(#paint21_linear_15184_72327)" stroke-width="2"/>
<defs>
<linearGradient id="paint0_linear_15184_72327" x1="81" y1="22" x2="121" y2="22" gradientUnits="userSpaceOnUse">
<stop stop-color="#0040C1"/>
<stop offset="1" stop-color="#4F7471"/>
</linearGradient>
<linearGradient id="paint1_linear_15184_72327" x1="81" y1="142" x2="121" y2="142" gradientUnits="userSpaceOnUse">
<stop stop-color="#0040C1"/>
<stop offset="1" stop-color="#4F7471"/>
</linearGradient>
<linearGradient id="paint2_linear_15184_72327" x1="1" y1="102" x2="41" y2="102" gradientUnits="userSpaceOnUse">
<stop stop-color="#0040C1"/>
<stop offset="1" stop-color="#4F7471"/>
</linearGradient>
<linearGradient id="paint3_linear_15184_72327" x1="121" y1="102" x2="161" y2="102" gradientUnits="userSpaceOnUse">
<stop stop-color="#0040C1"/>
<stop offset="1" stop-color="#4F7471"/>
</linearGradient>
<linearGradient id="paint4_linear_15184_72327" x1="173" y1="82.0001" x2="213" y2="82.0001" gradientUnits="userSpaceOnUse">
<stop stop-color="#0040C1"/>
<stop offset="1" stop-color="#4F7471"/>
</linearGradient>
<linearGradient id="paint5_linear_15184_72327" x1="293" y1="82.0001" x2="333" y2="82.0001" gradientUnits="userSpaceOnUse">
<stop stop-color="#0040C1"/>
<stop offset="1" stop-color="#4F7471"/>
</linearGradient>
<linearGradient id="paint6_linear_15184_72327" x1="233" y1="22" x2="273" y2="22" gradientUnits="userSpaceOnUse">
<stop stop-color="#0040C1"/>
<stop offset="1" stop-color="#4F7471"/>
</linearGradient>
<linearGradient id="paint7_linear_15184_72327" x1="233" y1="142" x2="273" y2="142" gradientUnits="userSpaceOnUse">
<stop stop-color="#0040C1"/>
<stop offset="1" stop-color="#4F7471"/>
</linearGradient>
<linearGradient id="paint8_linear_15184_72327" x1="1" y1="102" x2="161" y2="102" gradientUnits="userSpaceOnUse">
<stop stop-color="#0040C1"/>
<stop offset="1" stop-color="#4F7471"/>
</linearGradient>
<linearGradient id="paint9_linear_15184_72327" x1="101" y1="162" x2="101" y2="2.00006" gradientUnits="userSpaceOnUse">
<stop stop-color="#0040C1"/>
<stop offset="1" stop-color="#4F7471"/>
</linearGradient>
<linearGradient id="paint10_linear_15184_72327" x1="7.14214" y1="115.995" x2="114.995" y2="8.14215" gradientUnits="userSpaceOnUse">
<stop stop-color="#0040C1"/>
<stop offset="1" stop-color="#4F7471"/>
</linearGradient>
<linearGradient id="paint11_linear_15184_72327" x1="433" y1="22" x2="473" y2="22" gradientUnits="userSpaceOnUse">
<stop stop-color="#0040C1"/>
<stop offset="1" stop-color="#4F7471"/>
</linearGradient>
<linearGradient id="paint12_linear_15184_72327" x1="433" y1="142" x2="473" y2="142" gradientUnits="userSpaceOnUse">
<stop stop-color="#0040C1"/>
<stop offset="1" stop-color="#4F7471"/>
</linearGradient>
<linearGradient id="paint13_linear_15184_72327" x1="353" y1="102" x2="393" y2="102" gradientUnits="userSpaceOnUse">
<stop stop-color="#0040C1"/>
<stop offset="1" stop-color="#4F7471"/>
</linearGradient>
<linearGradient id="paint14_linear_15184_72327" x1="473" y1="102" x2="513" y2="102" gradientUnits="userSpaceOnUse">
<stop stop-color="#0040C1"/>
<stop offset="1" stop-color="#4F7471"/>
</linearGradient>
<linearGradient id="paint15_linear_15184_72327" x1="353" y1="102" x2="513" y2="102" gradientUnits="userSpaceOnUse">
<stop stop-color="#0040C1"/>
<stop offset="1" stop-color="#4F7471"/>
</linearGradient>
<linearGradient id="paint16_linear_15184_72327" x1="453" y1="162" x2="453" y2="2.00006" gradientUnits="userSpaceOnUse">
<stop stop-color="#0040C1"/>
<stop offset="1" stop-color="#4F7471"/>
</linearGradient>
<linearGradient id="paint17_linear_15184_72327" x1="359.142" y1="115.995" x2="466.995" y2="8.14215" gradientUnits="userSpaceOnUse">
<stop stop-color="#0040C1"/>
<stop offset="1" stop-color="#4F7471"/>
</linearGradient>
<linearGradient id="paint18_linear_15184_72327" x1="173" y1="82" x2="333" y2="82" gradientUnits="userSpaceOnUse">
<stop stop-color="#0040C1"/>
<stop offset="1" stop-color="#4F7471"/>
</linearGradient>
<linearGradient id="paint19_linear_15184_72327" x1="213" y1="82" x2="293" y2="82" gradientUnits="userSpaceOnUse">
<stop stop-color="#0040C1"/>
<stop offset="1" stop-color="#4F7471"/>
</linearGradient>
<linearGradient id="paint20_linear_15184_72327" x1="-4.37114e-08" y1="2.5" x2="513" y2="2.50004" gradientUnits="userSpaceOnUse">
<stop stop-color="#0040C1"/>
<stop offset="1" stop-color="#4F7471"/>
</linearGradient>
<linearGradient id="paint21_linear_15184_72327" x1="4.37114e-08" y1="164.5" x2="513" y2="164.5" gradientUnits="userSpaceOnUse">
<stop stop-color="#0040C1"/>
<stop offset="1" stop-color="#4F7471"/>
</linearGradient>
</defs>
</svg>
