<svg width="21" height="20" viewBox="0 0 21 20" fill="none" xmlns="http://www.w3.org/2000/svg">
<g id="box">
<path id="Icon" d="M17.5827 6.66667V13.5C17.5827 14.9001 17.5827 15.6002 17.3102 16.135C17.0705 16.6054 16.6881 16.9878 16.2177 17.2275C15.6829 17.5 14.9828 17.5 13.5827 17.5H7.41602C6.01588 17.5 5.31582 17.5 4.78104 17.2275C4.31063 16.9878 3.92818 16.6054 3.6885 16.135C3.41602 15.6002 3.41602 14.9001 3.41602 13.5V6.66667M3.49935 2.5H17.4993C17.9661 2.5 18.1994 2.5 18.3777 2.59083C18.5345 2.67072 18.662 2.79821 18.7419 2.95501C18.8327 3.13327 18.8327 3.36662 18.8327 3.83333V5.33333C18.8327 5.80004 18.8327 6.0334 18.7419 6.21166C18.662 6.36846 18.5345 6.49594 18.3777 6.57584C18.1994 6.66667 17.9661 6.66667 17.4994 6.66667H3.49935C3.03264 6.66667 2.79928 6.66667 2.62102 6.57584C2.46422 6.49594 2.33674 6.36846 2.25684 6.21166C2.16602 6.0334 2.16602 5.80004 2.16602 5.33333V3.83333C2.16602 3.36662 2.16602 3.13327 2.25684 2.95501C2.33674 2.79821 2.46422 2.67072 2.62102 2.59083C2.79928 2.5 3.03264 2.5 3.49935 2.5ZM8.49935 9.58333H12.4993C12.9661 9.58333 13.1994 9.58333 13.3777 9.67416C13.5345 9.75406 13.662 9.88154 13.7419 10.0383C13.8327 10.2166 13.8327 10.45 13.8327 10.9167V11.5833C13.8327 12.05 13.8327 12.2834 13.7419 12.4617C13.662 12.6185 13.5345 12.7459 13.3777 12.8258C13.1994 12.9167 12.9661 12.9167 12.4993 12.9167H8.49935C8.03264 12.9167 7.79928 12.9167 7.62102 12.8258C7.46422 12.7459 7.33674 12.6185 7.25684 12.4617C7.16602 12.2834 7.16602 12.05 7.16602 11.5833V10.9167C7.16602 10.45 7.16602 10.2166 7.25684 10.0383C7.33674 9.88154 7.46422 9.75406 7.62102 9.67416C7.79928 9.58333 8.03264 9.58333 8.49935 9.58333Z" stroke="url(#paint0_linear_14793_21550)" stroke-width="1.66667" stroke-linecap="round" stroke-linejoin="round"/>
</g>
<defs>
<linearGradient id="paint0_linear_14793_21550" x1="2.16602" y1="10" x2="18.8327" y2="10" gradientUnits="userSpaceOnUse">
<stop stop-color="#0040C1"/>
<stop offset="1" stop-color="#4F7471"/>
</linearGradient>
</defs>
</svg>
