<svg width="32" height="32" viewBox="0 0 32 32" fill="none" xmlns="http://www.w3.org/2000/svg">
<g id="Content">
<path d="M0.1 12.8C0.1 10.5581 0.100078 8.88276 0.208661 7.55376C0.31715 6.22593 0.533455 5.25268 0.961049 4.41348C1.71845 2.92699 2.92699 1.71845 4.41348 0.961049C5.25268 0.533455 6.22593 0.31715 7.55376 0.208661C8.88276 0.100078 10.5581 0.1 12.8 0.1H19.2C21.4419 0.1 23.1172 0.100078 24.4462 0.208661C25.7741 0.31715 26.7473 0.533455 27.5865 0.961049C29.073 1.71845 30.2816 2.92699 31.039 4.41348C31.4665 5.25268 31.6828 6.22593 31.7913 7.55376C31.8999 8.88276 31.9 10.5581 31.9 12.8V19.2C31.9 21.4419 31.8999 23.1172 31.7913 24.4462C31.6828 25.7741 31.4665 26.7473 31.039 27.5865C30.2816 29.073 29.073 30.2816 27.5865 31.039C26.7473 31.4665 25.7741 31.6828 24.4462 31.7913C23.1172 31.8999 21.4419 31.9 19.2 31.9H12.8C10.5581 31.9 8.88276 31.8999 7.55376 31.7913C6.22593 31.6828 5.25268 31.4665 4.41348 31.039C2.92699 30.2816 1.71845 29.073 0.961049 27.5865C0.533455 26.7473 0.31715 25.7741 0.208661 24.4462C0.100078 23.1172 0.1 21.4419 0.1 19.2V12.8Z" fill="url(#paint0_linear_14655_18222)"/>
<path d="M0.1 12.8C0.1 10.5581 0.100078 8.88276 0.208661 7.55376C0.31715 6.22593 0.533455 5.25268 0.961049 4.41348C1.71845 2.92699 2.92699 1.71845 4.41348 0.961049C5.25268 0.533455 6.22593 0.31715 7.55376 0.208661C8.88276 0.100078 10.5581 0.1 12.8 0.1H19.2C21.4419 0.1 23.1172 0.100078 24.4462 0.208661C25.7741 0.31715 26.7473 0.533455 27.5865 0.961049C29.073 1.71845 30.2816 2.92699 31.039 4.41348C31.4665 5.25268 31.6828 6.22593 31.7913 7.55376C31.8999 8.88276 31.9 10.5581 31.9 12.8V19.2C31.9 21.4419 31.8999 23.1172 31.7913 24.4462C31.6828 25.7741 31.4665 26.7473 31.039 27.5865C30.2816 29.073 29.073 30.2816 27.5865 31.039C26.7473 31.4665 25.7741 31.6828 24.4462 31.7913C23.1172 31.8999 21.4419 31.9 19.2 31.9H12.8C10.5581 31.9 8.88276 31.8999 7.55376 31.7913C6.22593 31.6828 5.25268 31.4665 4.41348 31.039C2.92699 30.2816 1.71845 29.073 0.961049 27.5865C0.533455 26.7473 0.31715 25.7741 0.208661 24.4462C0.100078 23.1172 0.1 21.4419 0.1 19.2V12.8Z" stroke="#D0D5DD" stroke-width="0.2"/>
<g id="Vector">
<path d="M6.5836 23.1129H6.5843C6.5843 23.2596 6.63674 23.3837 6.74162 23.4852C6.84649 23.5875 6.97165 23.6382 7.11707 23.6382C7.2625 23.6382 7.38556 23.5875 7.48624 23.4852C7.58692 23.3837 7.63796 23.2589 7.63796 23.1129V19.5103C7.21146 19.4962 6.8437 19.4736 6.5836 19.4545V23.1129Z" fill="url(#paint1_linear_14655_18222)"/>
<path d="M17.4446 22.7095C17.4446 22.7095 14.7129 19.7662 13.3544 18.3023C13.8159 18.1585 14.2494 17.9631 14.6528 17.7135C15.1534 17.404 15.5855 17.0295 15.9491 16.5895C16.3127 16.1495 16.5951 15.6509 16.7972 15.0925C16.9992 14.5347 17.0999 13.9339 17.0999 13.2901C17.0999 12.5243 16.9545 11.8177 16.6636 11.1704C16.3728 10.523 15.9791 9.96527 15.4827 9.49634C14.9863 9.02812 14.4025 8.66144 13.732 8.397C13.0615 8.13257 12.3469 8 11.5876 8H7.11707C6.97165 8 6.84649 8.04866 6.74162 8.14667C6.63674 8.24469 6.5843 8.37091 6.5843 8.52534V12.4509C6.55004 12.4509 5.66139 12.3557 4.89229 12.6561C4.26513 12.9015 3.69041 13.2858 3.3576 13.8895C3.15554 14.2568 3.05765 14.6546 3.0164 15.0699C2.97794 15.4584 3.00521 15.8688 3.11848 16.2433C3.32474 16.9259 3.80088 17.4709 4.40636 17.8278C4.92166 18.131 5.50967 18.3101 6.09628 18.4074C6.25779 18.4342 6.42069 18.4568 6.5836 18.4751C6.71015 18.4913 7.30445 18.5639 7.63796 18.5682H10.9584L9.94595 17.5048H7.63866V9.06126H11.6121C12.2581 9.06126 12.8517 9.17338 13.3929 9.39762C13.9341 9.62186 14.4025 9.92719 14.7982 10.3143C15.194 10.7015 15.5009 11.1513 15.7191 11.6647C15.9372 12.178 16.0463 12.7196 16.0463 13.2901C16.0463 13.8605 15.9393 14.4 15.7253 14.9091C15.5114 15.4182 15.2087 15.866 14.8164 16.2531C14.4249 16.6403 13.9522 16.9456 13.3992 17.1698C13.1768 17.2594 12.837 17.3447 12.5238 17.4068C11.9274 16.7686 8.71959 13.3747 8.52592 13.1631L8.52382 14.6595C8.59653 14.7392 16.635 23.4556 16.635 23.4556C16.7301 23.5628 16.8426 23.6086 16.9685 23.6206C17.0936 23.6326 17.2824 23.5945 17.3957 23.5043C17.5166 23.4147 17.5852 23.2906 17.6019 23.1319C17.618 22.9733 17.5656 22.8322 17.4446 22.7103V22.7095ZM6.5046 17.4061C6.08089 17.344 5.66139 17.2432 5.26356 17.0817C5.1447 17.0281 5.02863 16.9689 4.91606 16.9019C4.85104 16.8631 4.78742 16.8215 4.72519 16.7778C4.71051 16.7672 4.68743 16.7489 4.66856 16.7334C4.68114 16.7439 4.69862 16.7587 4.72239 16.7785C4.69373 16.7538 4.66366 16.7305 4.63499 16.7059C4.57626 16.6544 4.51963 16.6001 4.46579 16.5437C4.44132 16.5176 4.41825 16.4915 4.39518 16.4647C4.38888 16.4576 4.38329 16.4499 4.377 16.4428C4.30149 16.3342 4.23437 16.2221 4.17843 16.1022C4.12739 15.9661 4.08964 15.8258 4.06517 15.6827C4.04279 15.4704 4.04489 15.2561 4.06796 15.0438C4.09523 14.8746 4.13788 14.7089 4.19941 14.5488C4.25115 14.4381 4.31058 14.3323 4.38119 14.2329C4.39797 14.2124 4.41475 14.192 4.43223 14.1722C4.47838 14.1208 4.52662 14.0714 4.57766 14.0249C4.59304 14.0107 4.60913 13.9973 4.62521 13.9832C4.56368 14.034 4.60563 13.9938 4.63499 13.972C4.63919 13.9691 4.64408 13.9663 4.64828 13.9628C4.65038 13.9607 4.65317 13.9586 4.65527 13.9564C4.66646 13.9473 4.67834 13.9381 4.68953 13.9289C4.67555 13.9409 4.66436 13.9501 4.65387 13.9586C4.70072 13.9247 4.74756 13.8916 4.7965 13.8613C4.89579 13.7999 4.99927 13.747 5.10554 13.6998C5.33207 13.5771 5.62783 13.4974 5.9026 13.4918C6.20395 13.4854 6.42069 13.5312 6.5822 13.5947V17.4145H6.5843C6.55773 17.4124 6.53116 17.4096 6.5046 17.4061Z" fill="url(#paint2_linear_14655_18222)"/>
<path d="M4.64968 13.9628C4.64199 13.9691 4.6343 13.9762 4.6266 13.9825C4.6343 13.9762 4.64408 13.9684 4.65527 13.9586C4.65317 13.96 4.65108 13.9614 4.64968 13.9628Z" fill="url(#paint3_linear_14655_18222)"/>
<path d="M4.66925 16.7326C4.62241 16.6939 4.63989 16.7087 4.66925 16.7326V16.7326Z" fill="url(#paint4_linear_14655_18222)"/>
<path d="M28.8706 19.4813C28.7762 19.3699 28.6545 19.3008 28.5042 19.274C28.3546 19.2479 28.2273 19.2797 28.1232 19.3692C28.0553 19.4278 27.984 19.5314 27.9092 19.6816C27.7603 20.1202 27.5785 20.4961 27.3653 20.8084C27.1758 21.0997 26.8723 21.4248 26.4549 21.7844C25.5145 22.5932 24.4217 22.9705 23.1772 22.9169C21.9215 22.8513 20.8671 22.388 20.012 21.5277L27.7379 14.8837C27.861 14.778 27.9246 14.656 27.9302 14.5178C27.9351 14.3795 27.8882 14.2512 27.789 14.1334C27.2807 13.5319 26.6752 13.0546 25.9725 12.7006C25.2698 12.3466 24.5315 12.1386 23.7575 12.0765C22.9772 12.0201 22.2116 12.1132 21.4621 12.3565C20.7126 12.5997 20.0393 12.9777 19.4436 13.4903C18.8409 14.0086 18.3633 14.62 18.0096 15.3259C17.6558 16.0317 17.4488 16.775 17.3873 17.5556C17.3307 18.3425 17.4223 19.1125 17.6607 19.8657C17.8991 20.6188 18.2752 21.2992 18.7891 21.9064C19.303 22.5142 19.9092 22.9958 20.6091 23.3526C21.309 23.7095 22.0452 23.9189 22.8199 23.9809C23.5939 24.043 24.3546 23.9534 25.1013 23.713C25.848 23.4725 26.522 23.0932 27.1247 22.5749C27.6533 22.12 28.0504 21.6984 28.3161 21.3098C28.6084 20.8768 28.8237 20.4347 28.9622 19.9834C29.0335 19.8043 29.0041 19.6372 28.8727 19.482H28.8706V19.4813ZM18.4787 17.4343H18.478C18.613 16.1629 19.1625 15.1122 20.1274 14.2822C21.0985 13.4473 22.2179 13.0574 23.4855 13.1124C24.6797 13.1639 25.7054 13.6025 26.5647 14.4261L19.3065 20.7076C18.6381 19.7331 18.3612 18.6422 18.4787 17.4343Z" fill="url(#paint5_linear_14655_18222)"/>
</g>
</g>
<defs>
<linearGradient id="paint0_linear_14655_18222" x1="0" y1="16" x2="32" y2="16" gradientUnits="userSpaceOnUse">
<stop stop-color="#0040C1"/>
<stop offset="1" stop-color="#4F7471"/>
</linearGradient>
<linearGradient id="paint1_linear_14655_18222" x1="-28.7789" y1="15.9592" x2="182.24" y2="15.9592" gradientUnits="userSpaceOnUse">
<stop stop-color="#F5F8FF"/>
<stop offset="0.57" stop-color="#D1E0FF"/>
<stop offset="1" stop-color="#F4F7F7"/>
</linearGradient>
<linearGradient id="paint2_linear_14655_18222" x1="-28.7789" y1="15.9592" x2="182.24" y2="15.9592" gradientUnits="userSpaceOnUse">
<stop stop-color="#F5F8FF"/>
<stop offset="0.57" stop-color="#D1E0FF"/>
<stop offset="1" stop-color="#F4F7F7"/>
</linearGradient>
<linearGradient id="paint3_linear_14655_18222" x1="-28.7789" y1="15.9592" x2="182.24" y2="15.9592" gradientUnits="userSpaceOnUse">
<stop stop-color="#F5F8FF"/>
<stop offset="0.57" stop-color="#D1E0FF"/>
<stop offset="1" stop-color="#F4F7F7"/>
</linearGradient>
<linearGradient id="paint4_linear_14655_18222" x1="-28.7789" y1="15.9592" x2="182.24" y2="15.9592" gradientUnits="userSpaceOnUse">
<stop stop-color="#F5F8FF"/>
<stop offset="0.57" stop-color="#D1E0FF"/>
<stop offset="1" stop-color="#F4F7F7"/>
</linearGradient>
<linearGradient id="paint5_linear_14655_18222" x1="-28.7789" y1="15.9592" x2="182.24" y2="15.9592" gradientUnits="userSpaceOnUse">
<stop stop-color="#F5F8FF"/>
<stop offset="0.57" stop-color="#D1E0FF"/>
<stop offset="1" stop-color="#F4F7F7"/>
</linearGradient>
</defs>
</svg>
