<svg width="28" height="28" viewBox="0 0 28 28" fill="none" xmlns="http://www.w3.org/2000/svg">
<path d="M10.6667 18.1669H17.3333M13.1814 6.30353L7.52949 10.6995C7.15168 10.9933 6.96278 11.1402 6.82669 11.3242C6.70614 11.4872 6.61633 11.6709 6.56169 11.8661C6.5 12.0865 6.5 12.3258 6.5 12.8044V18.8335C6.5 19.7669 6.5 20.2337 6.68166 20.5902C6.84144 20.9038 7.09641 21.1587 7.41002 21.3185C7.76654 21.5002 8.23325 21.5002 9.16667 21.5002H18.8333C19.7668 21.5002 20.2335 21.5002 20.59 21.3185C20.9036 21.1587 21.1586 20.9038 21.3183 20.5902C21.5 20.2337 21.5 19.7669 21.5 18.8335V12.8044C21.5 12.3258 21.5 12.0865 21.4383 11.8661C21.3837 11.6709 21.2939 11.4872 21.1733 11.3242C21.0372 11.1402 20.8483 10.9933 20.4705 10.6995L14.8186 6.30353C14.5258 6.07582 14.3794 5.96196 14.2178 5.9182C14.0752 5.87958 13.9248 5.87958 13.7822 5.9182C13.6206 5.96196 13.4742 6.07582 13.1814 6.30353Z" stroke="#667085" stroke-width="1.66667" stroke-linecap="round" stroke-linejoin="round"/>
</svg>
