<svg width="20" height="20" viewBox="0 0 20 20" fill="none" xmlns="http://www.w3.org/2000/svg">
<g id="Check icon">
<path d="M0 10C0 4.47715 4.47715 0 10 0C15.5228 0 20 4.47715 20 10C20 15.5228 15.5228 20 10 20C4.47715 20 0 15.5228 0 10Z" fill="#EFF4FF"/>
<path id="Icon" d="M14.5916 6.51816L14.6471 6.46459C14.6895 6.43698 14.7232 6.43065 14.7429 6.4298C14.7651 6.42885 14.779 6.43389 14.7859 6.43752C14.7839 6.45569 14.7675 6.53382 14.6453 6.65874L14.6319 6.6724L14.6197 6.68705L15.0027 7.00838C14.6197 6.68705 14.6196 6.68708 14.6196 6.68713L14.6194 6.68737L14.6186 6.6883L14.6155 6.69201L14.6032 6.70666L14.5553 6.76383L14.373 6.98115L13.7203 7.75973C13.1789 8.40576 12.4538 9.27123 11.7193 10.149C10.2579 11.8953 8.73949 13.7138 8.58079 13.921L8.56873 13.9368L8.55795 13.9534C8.46835 14.0919 8.30275 14.1834 8.12773 14.1834C7.9379 14.1834 7.78183 14.0937 7.6918 13.9574L5.82389 10.919C5.76103 10.8079 5.78174 10.6667 5.90382 10.5722C6.05476 10.4704 6.23806 10.4905 6.34277 10.5811L7.91268 12.2584L8.25962 12.6291L8.62495 12.2765L14.5916 6.51816Z" fill="#155EEF" stroke="#667085"/>
</g>
</svg>
