<svg width="9" height="15" viewBox="0 0 9 15" fill="none" xmlns="http://www.w3.org/2000/svg">
<path d="M4.712 2.76C4.20533 2.75467 3.73067 2.84 3.288 3.016C2.85067 3.18667 2.496 3.42667 2.224 3.736C1.952 4.04 1.816 4.39733 1.816 4.808C1.816 5.288 1.94133 5.65867 2.192 5.92C2.448 6.176 2.79467 6.368 3.232 6.496C3.66933 6.624 4.16267 6.73867 4.712 6.84C5.42667 6.96267 6.09067 7.15467 6.704 7.416C7.31733 7.672 7.81067 8.016 8.184 8.448C8.55733 8.87467 8.744 9.40267 8.744 10.032C8.744 10.6293 8.57867 11.1547 8.248 11.608C7.92267 12.0613 7.488 12.424 6.944 12.696C6.4 12.968 5.80267 13.1307 5.152 13.184V14.792H4.296V13.184C3.74667 13.1467 3.22133 13.032 2.72 12.84C2.224 12.6427 1.792 12.3787 1.424 12.048C1.06133 11.7173 0.8 11.3307 0.64 10.888L1.688 10.496C1.80533 10.8267 2.01867 11.112 2.328 11.352C2.64267 11.5867 3.008 11.768 3.424 11.896C3.84533 12.024 4.27467 12.088 4.712 12.088C5.224 12.088 5.70133 12.0027 6.144 11.832C6.58667 11.6613 6.944 11.424 7.216 11.12C7.488 10.8107 7.624 10.448 7.624 10.032C7.624 9.61067 7.48267 9.264 7.2 8.992C6.91733 8.72 6.552 8.50667 6.104 8.352C5.66133 8.192 5.19733 8.06933 4.712 7.984C3.94933 7.85067 3.264 7.66933 2.656 7.44C2.05333 7.21067 1.576 6.888 1.224 6.472C0.872 6.05067 0.696 5.496 0.696 4.808C0.696 4.21067 0.858667 3.68533 1.184 3.232C1.51467 2.77867 1.952 2.416 2.496 2.144C3.04533 1.872 3.64533 1.712 4.296 1.664V0.00799942H5.152V1.664C5.68 1.70133 6.18933 1.816 6.68 2.008C7.17067 2.2 7.60267 2.46133 7.976 2.792C8.35467 3.11733 8.62933 3.50933 8.8 3.968L7.736 4.352C7.61867 4.016 7.40267 3.73067 7.088 3.496C6.77867 3.256 6.416 3.07467 6 2.952C5.584 2.824 5.15467 2.76 4.712 2.76Z" fill="#475467"/>
</svg>
