<svg width="16" height="16" viewBox="0 0 16 16" fill="none" xmlns="http://www.w3.org/2000/svg">
<g id="currency-dollar-circle" clip-path="url(#clip0_14758_19553)">
<path id="Icon" d="M5.66732 9.77779C5.66732 10.6369 6.36376 11.3333 7.22287 11.3333H8.66732C9.58779 11.3333 10.334 10.5872 10.334 9.66668C10.334 8.7462 9.58779 8.00001 8.66732 8.00001H7.33398C6.41351 8.00001 5.66732 7.25382 5.66732 6.33334C5.66732 5.41287 6.41351 4.66668 7.33398 4.66668H8.77843C9.63754 4.66668 10.334 5.36312 10.334 6.22223M8.00065 3.66668V4.66668M8.00065 11.3333V12.3333M14.6673 8.00001C14.6673 11.6819 11.6826 14.6667 8.00065 14.6667C4.31875 14.6667 1.33398 11.6819 1.33398 8.00001C1.33398 4.31811 4.31875 1.33334 8.00065 1.33334C11.6826 1.33334 14.6673 4.31811 14.6673 8.00001Z" stroke="#667085" stroke-width="1.5" stroke-linecap="round" stroke-linejoin="round"/>
</g>
<defs>
<clipPath id="clip0_14758_19553">
<rect width="16" height="16" fill="white"/>
</clipPath>
</defs>
</svg>
