<svg width="20" height="20" viewBox="0 0 20 20" fill="none" xmlns="http://www.w3.org/2000/svg">
<g id="edit-03">
<path id="Icon" d="M9.99998 16.6666H17.5M2.5 16.6666H3.89545C4.3031 16.6666 4.50693 16.6666 4.69874 16.6206C4.8688 16.5798 5.03138 16.5124 5.1805 16.421C5.34869 16.318 5.49282 16.1738 5.78107 15.8856L16.25 5.41663C16.9404 4.72628 16.9404 3.60699 16.25 2.91663C15.5597 2.22628 14.4404 2.22628 13.75 2.91663L3.28105 13.3856C2.9928 13.6738 2.84867 13.818 2.7456 13.9862C2.65422 14.1353 2.58688 14.2979 2.54605 14.4679C2.5 14.6597 2.5 14.8636 2.5 15.2712V16.6666Z" stroke="url(#paint0_linear_14574_34713)" stroke-width="2" stroke-linecap="round" stroke-linejoin="round"/>
</g>
<defs>
<linearGradient id="paint0_linear_14574_34713" x1="2.5" y1="9.53275" x2="17.5" y2="9.53275" gradientUnits="userSpaceOnUse">
<stop stop-color="#0040C1"/>
<stop offset="1" stop-color="#4F7471"/>
</linearGradient>
</defs>
</svg>
