<svg width="20" height="20" viewBox="0 0 20 20" fill="none" xmlns="http://www.w3.org/2000/svg">
<g id="eye">
<g id="Icon">
<path d="M2.01677 10.5943C1.90328 10.4146 1.84654 10.3248 1.81477 10.1862C1.79091 10.0821 1.79091 9.91794 1.81477 9.81384C1.84654 9.67525 1.90328 9.5854 2.01677 9.40571C2.95461 7.92072 5.74617 4.16669 10.0003 4.16669C14.2545 4.16669 17.0461 7.92072 17.9839 9.4057C18.0974 9.5854 18.1541 9.67525 18.1859 9.81384C18.2098 9.91794 18.2098 10.0821 18.1859 10.1862C18.1541 10.3248 18.0974 10.4146 17.9839 10.5943C17.0461 12.0793 14.2545 15.8334 10.0003 15.8334C5.74617 15.8334 2.95461 12.0793 2.01677 10.5943Z" stroke="url(#paint0_linear_14793_21521)" stroke-width="1.66667" stroke-linecap="round" stroke-linejoin="round"/>
<path d="M10.0003 12.5C11.381 12.5 12.5003 11.3807 12.5003 10C12.5003 8.61931 11.381 7.50002 10.0003 7.50002C8.61962 7.50002 7.50034 8.61931 7.50034 10C7.50034 11.3807 8.61962 12.5 10.0003 12.5Z" stroke="url(#paint1_linear_14793_21521)" stroke-width="1.66667" stroke-linecap="round" stroke-linejoin="round"/>
</g>
</g>
<defs>
<linearGradient id="paint0_linear_14793_21521" x1="1.79688" y1="10" x2="18.2038" y2="10" gradientUnits="userSpaceOnUse">
<stop stop-color="#0040C1"/>
<stop offset="1" stop-color="#4F7471"/>
</linearGradient>
<linearGradient id="paint1_linear_14793_21521" x1="1.79688" y1="10" x2="18.2038" y2="10" gradientUnits="userSpaceOnUse">
<stop stop-color="#0040C1"/>
<stop offset="1" stop-color="#4F7471"/>
</linearGradient>
</defs>
</svg>
