<svg width="20" height="20" viewBox="0 0 20 20" fill="none" xmlns="http://www.w3.org/2000/svg">
<g id="face-smile" clip-path="url(#clip0_15328_2631)">
<path id="Icon" d="M6.66602 11.6666C6.66602 11.6666 7.91602 13.3333 9.99935 13.3333C12.0827 13.3333 13.3327 11.6666 13.3327 11.6666M12.4993 7.49996H12.5077M7.49935 7.49996H7.50768M18.3327 9.99996C18.3327 14.6023 14.6017 18.3333 9.99935 18.3333C5.39698 18.3333 1.66602 14.6023 1.66602 9.99996C1.66602 5.39759 5.39698 1.66663 9.99935 1.66663C14.6017 1.66663 18.3327 5.39759 18.3327 9.99996ZM12.916 7.49996C12.916 7.73008 12.7295 7.91663 12.4993 7.91663C12.2692 7.91663 12.0827 7.73008 12.0827 7.49996C12.0827 7.26984 12.2692 7.08329 12.4993 7.08329C12.7295 7.08329 12.916 7.26984 12.916 7.49996ZM7.91602 7.49996C7.91602 7.73008 7.72947 7.91663 7.49935 7.91663C7.26923 7.91663 7.08268 7.73008 7.08268 7.49996C7.08268 7.26984 7.26923 7.08329 7.49935 7.08329C7.72947 7.08329 7.91602 7.26984 7.91602 7.49996Z" stroke="#667085" stroke-width="1.66667" stroke-linecap="round" stroke-linejoin="round"/>
</g>
<defs>
<clipPath id="clip0_15328_2631">
<rect width="20" height="20" fill="white"/>
</clipPath>
</defs>
</svg>
