<svg width="20" height="20" viewBox="0 0 20 20" fill="none" xmlns="http://www.w3.org/2000/svg">
<g id="globe-05" clip-path="url(#clip0_14574_40794)">
<path id="Icon" d="M12.4998 2.04819C11.7106 1.80032 10.8708 1.66669 9.99984 1.66669C5.39746 1.66669 1.6665 5.39765 1.6665 10C1.6665 14.6024 5.39746 18.3334 9.99984 18.3334C14.6022 18.3334 18.3332 14.6024 18.3332 10C18.3332 8.57058 17.9733 7.2252 17.3391 6.04956M14.1665 4.79169H14.1707M8.74988 18.2402L8.74997 16.4041C8.74998 16.3047 8.78556 16.2085 8.85028 16.133L10.9218 13.7162C11.092 13.5176 11.0393 13.2131 10.8121 13.0833L8.43195 11.7231C8.36728 11.6862 8.3137 11.6326 8.27678 11.5679L6.72522 8.84888C6.64447 8.70737 6.48865 8.62591 6.32636 8.64036L1.71999 9.05064M17.4998 5.00002C17.4998 6.84097 15.8332 8.33335 14.1665 10C12.4998 8.33335 10.8332 6.84097 10.8332 5.00002C10.8332 3.15907 12.3256 1.66669 14.1665 1.66669C16.0075 1.66669 17.4998 3.15907 17.4998 5.00002ZM14.3748 4.79169C14.3748 4.90675 14.2816 5.00002 14.1665 5.00002C14.0514 5.00002 13.9582 4.90675 13.9582 4.79169C13.9582 4.67663 14.0514 4.58335 14.1665 4.58335C14.2816 4.58335 14.3748 4.67663 14.3748 4.79169Z" stroke="white" stroke-width="1.67" stroke-linecap="round" stroke-linejoin="round"/>
</g>
<defs>
<clipPath id="clip0_14574_40794">
<rect width="20" height="20" fill="white"/>
</clipPath>
</defs>
</svg>
