<svg version="1.2" xmlns="http://www.w3.org/2000/svg" viewBox="0 0 297 148" width="297" height="148">
	<path fill="#7a8c53" d="m296.9 68c0.1-1.1-0.7-2.1-1.8-2.2-1-0.2-2.1 0.6-2.2 1.7zm-92.7-57.7c-13.7-4-26.1 2.5-36.1 14-10 11.4-17.9 28-22.9 45.2-5 17.2-7.1 35.2-5.4 49.5 1.7 14.2 7.4 25.7 18.9 27.9l0.8-3.9c-8.8-1.7-14-10.6-15.7-24.4-1.7-13.7 0.4-31.1 5.3-48 4.9-16.8 12.5-32.9 22-43.7 9.5-10.9 20.4-16.2 32-12.8zm-161.3 109.4l-0.9 1.8zm-36.3-114.9c-0.1 0.4-0.3 0.6-0.3 0.6 0 0 0.1-0.1 0.5-0.2q1.1-0.3 3.4-0.4c3.1-0.1 7.3 0.3 11.5 0.8 4.2 0.5 8.5 1.1 11.6 1.6 1.6 0.3 2.9 0.5 3.8 0.7q0.7 0.1 1.1 0.2 0.2 0 0.3 0 0 0 0 0 0 0 0.1 0 0 0 0 0.1 0 0 0 0c0 0 0 0 0.3-2 0.4-2 0.4-2 0.4-2q0 0 0 0 0 0 0 0 0 0 0 0 0 0-0.1 0-0.1 0-0.3-0.1-0.4 0-1.1-0.1c-0.9-0.2-2.2-0.5-3.8-0.7-3.2-0.5-7.5-1.2-11.8-1.7-4.3-0.5-8.7-0.9-12.1-0.8-1.6 0-3.2 0.2-4.4 0.5-0.6 0.2-1.3 0.5-1.9 0.9-0.6 0.5-1.1 1.2-1.2 2.2zm-6.3 42.4c0 1.1 0.8 2 1.9 2 1.1 0.1 2.1-0.8 2.1-1.9zm38.3-39c1.1 0.2 2.1-0.5 2.3-1.6 0.2-1.1-0.5-2.1-1.6-2.3zm256.3 59.6c-2-0.3-2-0.3-2-0.3q0 0 0 0 0 0 0 0 0 0 0 0 0 0.1 0 0.2 0 0.2-0.1 0.6-0.1 0.9-0.3 2.4c-0.4 2-0.9 5-1.6 8.5-1.5 6.9-3.8 16.2-7.1 25.2-3.4 9.1-7.7 17.7-13.2 23.8-5.4 5.9-11.8 9.1-19.4 7.8l-0.6 4c9.3 1.6 17-2.5 23-9.2 6-6.5 10.5-15.8 13.9-25 3.4-9.3 5.8-18.7 7.3-25.8 0.7-3.6 1.3-6.6 1.6-8.6q0.3-1.6 0.4-2.5 0-0.4 0.1-0.6 0-0.2 0-0.2 0 0 0-0.1 0 0 0 0 0 0 0 0c0 0 0 0-2-0.2zm-43.7 68.2c-7.1-1.2-10.9-7.6-12.9-18.4-2-10.8-2.1-24.7-2.7-39.2-0.7-14.5-1.8-29.4-6.1-41.8-4.3-12.4-11.8-22.4-25.3-26.3l-1.1 3.8c11.8 3.5 18.6 12.2 22.6 23.8 4.1 11.8 5.2 26.2 5.9 40.6 0.6 14.3 0.7 28.7 2.8 39.8 2 11 6.3 19.9 16.2 21.7zm-92.6 10.9c5.6 1.1 10.6 0 14.8-2.6 4.3-2.6 7.7-6.8 10.5-11.9 5.5-10.1 8.6-24.2 9.5-38.7 0.9-14.5-0.2-29.5-3.4-41.4-1.6-6-3.6-11.3-6.3-15.4-2.6-4.1-5.8-7.1-9.8-8.3l-1.1 3.9c2.7 0.7 5.2 2.9 7.6 6.6 2.3 3.6 4.2 8.4 5.7 14.2 3.1 11.4 4.2 26 3.3 40.1-0.9 14.2-3.9 27.7-9 37.1-2.6 4.7-5.6 8.2-9.1 10.4-3.4 2.1-7.3 2.9-11.9 2.1zm0.4-2l0.4-2zm14.8-116.3c-7.4-2.1-14.8 0-21.8 4.1-7 4.1-13.7 10.3-19.8 17.1-6.1 6.7-11.5 14-16 20.2-4.5 6.3-7.9 11.4-9.9 13.9l3.1 2.5c2.1-2.6 5.7-8 10.1-14.1 4.4-6.1 9.8-13.3 15.7-19.9 5.9-6.6 12.3-12.5 18.8-16.3 6.5-3.8 12.8-5.3 18.7-3.6zm-67.5 55.2c-4.5 5.5-12.1 18.1-23 27.5-5.4 4.6-11.4 8.3-18 9.8-6.5 1.5-13.7 0.9-21.5-3.3l-1.9 3.6c8.7 4.6 16.9 5.3 24.3 3.6 7.5-1.7 14-5.8 19.7-10.7 11.3-9.7 19.5-23.1 23.5-28zm-62.5 34.1c-7.7-4.1-11.9-10.9-14.3-19.7-2.4-8.9-2.9-19.6-3.4-30.9-0.5-11.2-0.9-23.1-3.1-34-2.3-10.9-6.5-21.1-14.6-29l-2.8 2.9c7.4 7.1 11.3 16.4 13.5 26.9 2.1 10.6 2.5 22 3 33.4 0.5 11.2 1 22.3 3.6 31.7 2.6 9.5 7.3 17.5 16.2 22.2zm-41.6-70.6c2 0.1 2 0.1 2 0.1q0 0 0-0.1 0 0 0 0 0 0 0 0 0 0 0-0.1 0.1-0.1 0.1-0.3 0-0.4 0-1.2c0.1-1 0.1-2.5 0.2-4.3 0.2-3.7 0.4-8.6 0.7-13.6 0.5-10.1 1.1-20.7 1.4-23l-4-0.5c-0.3 2.5-0.9 13.3-1.4 23.3-0.3 5-0.5 9.9-0.7 13.6-0.1 1.8-0.1 3.3-0.2 4.3q0 0.8 0 1.2 0 0.2 0 0.4 0 0-0.1 0 0 0 0 0.1 0 0 0 0 0 0 0 0c0 0 0 0 2 0.1zm6.3-42.9c-0.8-0.8-2.1-0.8-2.9 0-0.7 0.8-0.7 2.1 0.1 2.8z"/>
</svg>