<svg width="16" height="16" viewBox="0 0 16 16" fill="none" xmlns="http://www.w3.org/2000/svg">
<g id="help-circle" clip-path="url(#clip0_14758_19571)">
<path id="Icon" d="M6.06065 6C6.21739 5.55444 6.52675 5.17873 6.93395 4.93942C7.34116 4.7001 7.81991 4.61262 8.28544 4.69247C8.75096 4.77232 9.1732 5.01434 9.47737 5.37568C9.78154 5.73702 9.94802 6.19434 9.94732 6.66666C9.94732 8 7.94732 8.66666 7.94732 8.66666M8.00065 11.3333H8.00732M14.6673 8C14.6673 11.6819 11.6826 14.6667 8.00065 14.6667C4.31875 14.6667 1.33398 11.6819 1.33398 8C1.33398 4.3181 4.31875 1.33333 8.00065 1.33333C11.6826 1.33333 14.6673 4.3181 14.6673 8Z" stroke="#667085" stroke-width="1.5" stroke-linecap="round" stroke-linejoin="round"/>
</g>
<defs>
<clipPath id="clip0_14758_19571">
<rect width="16" height="16" fill="white"/>
</clipPath>
</defs>
</svg>
