<svg width="16" height="16" viewBox="0 0 16 16" fill="none" xmlns="http://www.w3.org/2000/svg">
<g id="help-circle" clip-path="url(#clip0_15152_60831)">
<path id="Icon" d="M6.0626 5.99998C6.21934 5.55442 6.52871 5.17872 6.93591 4.9394C7.34311 4.70009 7.82187 4.61261 8.28739 4.69245C8.75291 4.7723 9.17515 5.01433 9.47932 5.37567C9.7835 5.737 9.94997 6.19433 9.94927 6.66665C9.94927 7.99998 7.94927 8.66665 7.94927 8.66665M8.0026 11.3333H8.00927M14.6693 7.99998C14.6693 11.6819 11.6845 14.6666 8.0026 14.6666C4.32071 14.6666 1.33594 11.6819 1.33594 7.99998C1.33594 4.31808 4.32071 1.33331 8.0026 1.33331C11.6845 1.33331 14.6693 4.31808 14.6693 7.99998Z" stroke="#667085" stroke-width="1.33333" stroke-linecap="round" stroke-linejoin="round"/>
</g>
<defs>
<clipPath id="clip0_15152_60831">
<rect width="16" height="16" fill="white"/>
</clipPath>
</defs>
</svg>
