<svg width="16" height="16" viewBox="0 0 16 16" fill="none" xmlns="http://www.w3.org/2000/svg">
<g id="lightbulb-04">
<path id="Icon" d="M6.33594 14.6666H9.66927M6.66927 6.66659H9.33594M8.0026 6.66659L8.0026 10.6666M10.0026 10.2175C11.5792 9.46852 12.6693 7.86152 12.6693 5.99992C12.6693 3.42259 10.5799 1.33325 8.0026 1.33325C5.42528 1.33325 3.33594 3.42259 3.33594 5.99992C3.33594 7.86152 4.42597 9.46852 6.0026 10.2175V10.6666C6.0026 11.2878 6.0026 11.5985 6.1041 11.8435C6.23942 12.1702 6.49899 12.4298 6.82569 12.5651C7.07072 12.6666 7.38135 12.6666 8.0026 12.6666C8.62386 12.6666 8.93449 12.6666 9.17952 12.5651C9.50622 12.4298 9.76579 12.1702 9.90111 11.8435C10.0026 11.5985 10.0026 11.2878 10.0026 10.6666V10.2175Z" stroke="url(#paint0_linear_14629_84346)" stroke-width="1.66667" stroke-linecap="round" stroke-linejoin="round"/>
</g>
<defs>
<linearGradient id="paint0_linear_14629_84346" x1="3.33594" y1="7.99992" x2="12.6693" y2="7.99992" gradientUnits="userSpaceOnUse">
<stop stop-color="#0040C1"/>
<stop offset="1" stop-color="#4F7471"/>
</linearGradient>
</defs>
</svg>
