<svg width="20" height="20" viewBox="0 0 20 20" fill="none" xmlns="http://www.w3.org/2000/svg">
<g id="lock-unlocked-01">
<path id="Icon" d="M5.8335 8.33333V6.66667C5.8335 4.36548 7.69898 2.5 10.0002 2.5C11.7088 2.5 13.1772 3.52841 13.8201 5M10.0002 12.0833V13.75M7.3335 17.5H12.6668C14.067 17.5 14.767 17.5 15.3018 17.2275C15.7722 16.9878 16.1547 16.6054 16.3943 16.135C16.6668 15.6002 16.6668 14.9001 16.6668 13.5V12.3333C16.6668 10.9332 16.6668 10.2331 16.3943 9.69836C16.1547 9.22795 15.7722 8.8455 15.3018 8.60582C14.767 8.33333 14.067 8.33333 12.6668 8.33333H7.3335C5.93336 8.33333 5.2333 8.33333 4.69852 8.60582C4.22811 8.8455 3.84566 9.22795 3.60598 9.69836C3.3335 10.2331 3.3335 10.9332 3.3335 12.3333V13.5C3.3335 14.9001 3.3335 15.6002 3.60598 16.135C3.84566 16.6054 4.22811 16.9878 4.69852 17.2275C5.2333 17.5 5.93336 17.5 7.3335 17.5Z" stroke="#98A2B3" stroke-width="2" stroke-linecap="round" stroke-linejoin="round"/>
</g>
</svg>
