<svg width="20" height="20" viewBox="0 0 20 20" fill="none" xmlns="http://www.w3.org/2000/svg">
<g id="Icon-left">
<path id="Icon" d="M17.9165 15L12.3808 10M7.61889 10L2.0832 15M1.6665 5.83334L8.4706 10.5962C9.02158 10.9819 9.29707 11.1747 9.59672 11.2494C9.86142 11.3154 10.1383 11.3154 10.403 11.2494C10.7026 11.1747 10.9781 10.9819 11.5291 10.5962L18.3332 5.83334M5.6665 16.6667H14.3332C15.7333 16.6667 16.4334 16.6667 16.9681 16.3942C17.4386 16.1545 17.821 15.7721 18.0607 15.3017C18.3332 14.7669 18.3332 14.0668 18.3332 12.6667V7.33334C18.3332 5.93321 18.3332 5.23315 18.0607 4.69837C17.821 4.22796 17.4386 3.84551 16.9681 3.60583C16.4334 3.33334 15.7333 3.33334 14.3332 3.33334H5.6665C4.26637 3.33334 3.56631 3.33334 3.03153 3.60583C2.56112 3.84551 2.17867 4.22796 1.93899 4.69837C1.6665 5.23315 1.6665 5.93321 1.6665 7.33334V12.6667C1.6665 14.0668 1.6665 14.7669 1.93899 15.3017C2.17867 15.7721 2.56112 16.1545 3.03153 16.3942C3.56631 16.6667 4.26637 16.6667 5.6665 16.6667Z" stroke="#98A2B3" stroke-width="2" stroke-linecap="round" stroke-linejoin="round"/>
</g>
</svg>
