<svg width="20" height="20" viewBox="0 0 20 20" fill="none" xmlns="http://www.w3.org/2000/svg">
<g id="mail-01">
<path id="Icon" d="M1.66602 5.83331L8.47012 10.5962C9.02109 10.9819 9.29658 11.1747 9.59624 11.2494C9.86093 11.3154 10.1378 11.3154 10.4025 11.2494C10.7021 11.1747 10.9776 10.9819 11.5286 10.5962L18.3327 5.83331M5.66602 16.6666H14.3327C15.7328 16.6666 16.4329 16.6666 16.9677 16.3942C17.4381 16.1545 17.8205 15.772 18.0602 15.3016C18.3327 14.7668 18.3327 14.0668 18.3327 12.6666V7.33331C18.3327 5.93318 18.3327 5.23312 18.0602 4.69834C17.8205 4.22793 17.4381 3.84548 16.9677 3.6058C16.4329 3.33331 15.7328 3.33331 14.3327 3.33331H5.66602C4.26588 3.33331 3.56582 3.33331 3.03104 3.6058C2.56063 3.84548 2.17818 4.22793 1.9385 4.69834C1.66602 5.23312 1.66602 5.93318 1.66602 7.33331V12.6666C1.66602 14.0668 1.66602 14.7668 1.9385 15.3016C2.17818 15.772 2.56063 16.1545 3.03104 16.3942C3.56582 16.6666 4.26588 16.6666 5.66602 16.6666Z" stroke="#667085" stroke-width="2" stroke-linecap="round" stroke-linejoin="round"/>
</g>
</svg>
