<svg width="24" height="26" viewBox="0 0 24 26" fill="none" xmlns="http://www.w3.org/2000/svg">
<g id="mother-and-son-svgrepo-com 1">
<g id="Vector">
<mask id="path-1-outside-1_15221_41218" maskUnits="userSpaceOnUse" x="1.25391" y="0" width="21" height="26" fill="black">
<rect fill="white" x="1.25391" width="21" height="26"/>
<path d="M11.7366 17.8575L11.2004 13.4346C11.1642 13.1367 10.8937 12.9243 10.5958 12.9607C10.2979 12.9968 10.0858 13.2675 10.1219 13.5654L10.5853 17.3879H10.3243C10.3161 17.3877 10.3081 17.3877 10.3001 17.3879H6.63142C6.62333 17.3877 6.6153 17.3877 6.60728 17.3879H6.34667L7.07615 11.3708C7.11224 11.073 6.90011 10.8023 6.60227 10.7662C6.30413 10.7296 6.03381 10.9423 5.99766 11.2401L5.19558 17.8575C5.19376 17.8709 5.19244 17.8845 5.19159 17.8982C5.18767 17.962 5.19503 18.0242 5.21205 18.0827C5.23456 18.1603 5.27385 18.2307 5.32582 18.2898C5.32594 18.2899 5.32612 18.2901 5.32624 18.2903L5.3263 18.2903C5.37947 18.3507 5.44604 18.3995 5.5222 18.4316C5.52256 18.4317 5.52287 18.4319 5.52323 18.432C5.57815 18.4552 5.63766 18.4695 5.7 18.4733C5.71412 18.4743 5.72812 18.4746 5.74213 18.4744H6.20581L7.71118 23.9135H6.53691C6.23689 23.9135 5.99373 24.1566 5.99373 24.4566C5.99373 24.7567 6.23689 24.9998 6.53691 24.9998H8.40819C8.41374 25 8.41923 25.0001 8.42479 25.0001C8.43028 25.0001 8.43583 25 8.44138 24.9998H10.395C10.695 24.9998 10.9382 24.7567 10.9382 24.4566C10.9382 24.1566 10.695 23.9135 10.395 23.9135H9.21932L10.7257 18.4744H11.1898C11.2035 18.4746 11.2174 18.4743 11.2313 18.4734C11.2944 18.4696 11.3546 18.455 11.41 18.4316C11.486 18.3995 11.5525 18.3507 11.6057 18.2905C11.6057 18.2904 11.6058 18.2903 11.6059 18.2903C11.606 18.2902 11.6061 18.29 11.6061 18.2899C11.6581 18.2308 11.6974 18.1604 11.72 18.0828C11.737 18.0243 11.7443 17.9621 11.7404 17.8982C11.7398 17.8845 11.7384 17.8709 11.7366 17.8575ZM8.4654 22.5657L7.33301 18.4743H9.59852L8.4654 22.5657ZM17.8003 16.4705C19.0191 16.4705 20.0107 15.4789 20.0107 14.2602C20.0107 13.0414 19.0191 12.0498 17.8003 12.0498C16.5816 12.0498 15.59 13.0414 15.59 14.2602C15.59 15.4789 16.5815 16.4705 17.8003 16.4705ZM17.8003 13.1361C18.4202 13.1361 18.9243 13.6404 18.9243 14.2602C18.9243 14.88 18.4202 15.3842 17.8003 15.3842C17.1806 15.3842 16.6763 14.88 16.6763 14.2602C16.6763 13.6404 17.1806 13.1361 17.8003 13.1361ZM21.7155 21.2728L20.4943 17.8288C20.4175 17.612 20.2124 17.4672 19.9824 17.4672H19.3362C19.3286 17.4671 19.3211 17.4671 19.3135 17.4672H16.2874C16.2798 17.4671 16.2721 17.4671 16.2644 17.4672H15.275L12.705 9.62477C12.3391 8.52569 11.7792 7.17996 10.6875 6.51306C10.6663 6.49948 10.6439 6.48735 10.6206 6.47667C10.562 6.44987 10.5006 6.43436 10.439 6.42941C10.3582 6.42296 10.2783 6.4346 10.2048 6.46219C10.1306 6.48983 10.0622 6.53382 10.0052 6.59255C9.9622 6.63679 9.92623 6.68905 9.89986 6.74771C9.88954 6.77053 9.88097 6.79376 9.87397 6.81724L7.94836 12.8598C7.85729 13.1456 8.01511 13.4512 8.301 13.5423C8.58683 13.6332 8.8924 13.4755 8.98347 13.1897L10.662 7.92211C11.1447 8.50209 11.4615 9.3288 11.6734 9.96539L14.3651 18.1795C14.4382 18.4026 14.6464 18.5535 14.8813 18.5535H15.8457L17.1136 23.9134H16.4537C16.1537 23.9134 15.9105 24.1565 15.9105 24.4565C15.9105 24.7565 16.1537 24.9997 16.4537 24.9997H17.7837C17.789 24.9999 17.7944 24.9999 17.7998 24.9999C17.8001 25.0001 17.8005 24.9999 17.8008 24.9999C17.8061 24.9999 17.8115 24.9999 17.8168 24.9997H19.1468C19.4468 24.9997 19.69 24.7565 19.69 24.4565C19.69 24.1565 19.4468 23.9134 19.1468 23.9134H18.487L19.6924 18.8178L20.6916 21.6358C20.7919 21.9186 21.1025 22.0666 21.3851 21.9663C21.6678 21.866 21.8158 21.5556 21.7155 21.2728ZM17.8003 22.0971L16.9621 18.5535H18.6386L17.8003 22.0971ZM8.46607 5.8347C9.79901 5.8347 10.8834 4.75023 10.8834 3.41729C10.8834 2.08435 9.79901 1 8.46607 1C7.13313 1 6.04866 2.08441 6.04866 3.41735C6.04866 4.75029 7.13313 5.8347 8.46607 5.8347ZM8.46607 2.08634C9.20001 2.08634 9.79708 2.68347 9.79708 3.41735C9.79708 4.1513 9.19995 4.74842 8.46607 4.74842C7.73212 4.74842 7.135 4.1513 7.135 3.41735C7.135 2.68347 7.73212 2.08634 8.46607 2.08634ZM5.25774 9.96793L3.31258 15.8115C3.23678 16.0391 3.02476 16.1833 2.7973 16.1833C2.74038 16.1833 2.68257 16.1743 2.62565 16.1552C2.34103 16.0606 2.18707 15.753 2.28189 15.4683L4.22704 9.62471C4.59435 8.52177 5.15683 7.17054 6.25603 6.506C6.51089 6.35186 6.84205 6.43195 6.99866 6.68458L8.13431 8.47204C8.29515 8.72522 8.22031 9.06089 7.96707 9.22179C7.7139 9.38251 7.37816 9.3078 7.21732 9.05456L6.40316 7.7731C5.84466 8.35332 5.48931 9.27249 5.25774 9.96793Z"/>
</mask>
<path d="M11.7366 17.8575L11.2004 13.4346C11.1642 13.1367 10.8937 12.9243 10.5958 12.9607C10.2979 12.9968 10.0858 13.2675 10.1219 13.5654L10.5853 17.3879H10.3243C10.3161 17.3877 10.3081 17.3877 10.3001 17.3879H6.63142C6.62333 17.3877 6.6153 17.3877 6.60728 17.3879H6.34667L7.07615 11.3708C7.11224 11.073 6.90011 10.8023 6.60227 10.7662C6.30413 10.7296 6.03381 10.9423 5.99766 11.2401L5.19558 17.8575C5.19376 17.8709 5.19244 17.8845 5.19159 17.8982C5.18767 17.962 5.19503 18.0242 5.21205 18.0827C5.23456 18.1603 5.27385 18.2307 5.32582 18.2898C5.32594 18.2899 5.32612 18.2901 5.32624 18.2903L5.3263 18.2903C5.37947 18.3507 5.44604 18.3995 5.5222 18.4316C5.52256 18.4317 5.52287 18.4319 5.52323 18.432C5.57815 18.4552 5.63766 18.4695 5.7 18.4733C5.71412 18.4743 5.72812 18.4746 5.74213 18.4744H6.20581L7.71118 23.9135H6.53691C6.23689 23.9135 5.99373 24.1566 5.99373 24.4566C5.99373 24.7567 6.23689 24.9998 6.53691 24.9998H8.40819C8.41374 25 8.41923 25.0001 8.42479 25.0001C8.43028 25.0001 8.43583 25 8.44138 24.9998H10.395C10.695 24.9998 10.9382 24.7567 10.9382 24.4566C10.9382 24.1566 10.695 23.9135 10.395 23.9135H9.21932L10.7257 18.4744H11.1898C11.2035 18.4746 11.2174 18.4743 11.2313 18.4734C11.2944 18.4696 11.3546 18.455 11.41 18.4316C11.486 18.3995 11.5525 18.3507 11.6057 18.2905C11.6057 18.2904 11.6058 18.2903 11.6059 18.2903C11.606 18.2902 11.6061 18.29 11.6061 18.2899C11.6581 18.2308 11.6974 18.1604 11.72 18.0828C11.737 18.0243 11.7443 17.9621 11.7404 17.8982C11.7398 17.8845 11.7384 17.8709 11.7366 17.8575ZM8.4654 22.5657L7.33301 18.4743H9.59852L8.4654 22.5657ZM17.8003 16.4705C19.0191 16.4705 20.0107 15.4789 20.0107 14.2602C20.0107 13.0414 19.0191 12.0498 17.8003 12.0498C16.5816 12.0498 15.59 13.0414 15.59 14.2602C15.59 15.4789 16.5815 16.4705 17.8003 16.4705ZM17.8003 13.1361C18.4202 13.1361 18.9243 13.6404 18.9243 14.2602C18.9243 14.88 18.4202 15.3842 17.8003 15.3842C17.1806 15.3842 16.6763 14.88 16.6763 14.2602C16.6763 13.6404 17.1806 13.1361 17.8003 13.1361ZM21.7155 21.2728L20.4943 17.8288C20.4175 17.612 20.2124 17.4672 19.9824 17.4672H19.3362C19.3286 17.4671 19.3211 17.4671 19.3135 17.4672H16.2874C16.2798 17.4671 16.2721 17.4671 16.2644 17.4672H15.275L12.705 9.62477C12.3391 8.52569 11.7792 7.17996 10.6875 6.51306C10.6663 6.49948 10.6439 6.48735 10.6206 6.47667C10.562 6.44987 10.5006 6.43436 10.439 6.42941C10.3582 6.42296 10.2783 6.4346 10.2048 6.46219C10.1306 6.48983 10.0622 6.53382 10.0052 6.59255C9.9622 6.63679 9.92623 6.68905 9.89986 6.74771C9.88954 6.77053 9.88097 6.79376 9.87397 6.81724L7.94836 12.8598C7.85729 13.1456 8.01511 13.4512 8.301 13.5423C8.58683 13.6332 8.8924 13.4755 8.98347 13.1897L10.662 7.92211C11.1447 8.50209 11.4615 9.3288 11.6734 9.96539L14.3651 18.1795C14.4382 18.4026 14.6464 18.5535 14.8813 18.5535H15.8457L17.1136 23.9134H16.4537C16.1537 23.9134 15.9105 24.1565 15.9105 24.4565C15.9105 24.7565 16.1537 24.9997 16.4537 24.9997H17.7837C17.789 24.9999 17.7944 24.9999 17.7998 24.9999C17.8001 25.0001 17.8005 24.9999 17.8008 24.9999C17.8061 24.9999 17.8115 24.9999 17.8168 24.9997H19.1468C19.4468 24.9997 19.69 24.7565 19.69 24.4565C19.69 24.1565 19.4468 23.9134 19.1468 23.9134H18.487L19.6924 18.8178L20.6916 21.6358C20.7919 21.9186 21.1025 22.0666 21.3851 21.9663C21.6678 21.866 21.8158 21.5556 21.7155 21.2728ZM17.8003 22.0971L16.9621 18.5535H18.6386L17.8003 22.0971ZM8.46607 5.8347C9.79901 5.8347 10.8834 4.75023 10.8834 3.41729C10.8834 2.08435 9.79901 1 8.46607 1C7.13313 1 6.04866 2.08441 6.04866 3.41735C6.04866 4.75029 7.13313 5.8347 8.46607 5.8347ZM8.46607 2.08634C9.20001 2.08634 9.79708 2.68347 9.79708 3.41735C9.79708 4.1513 9.19995 4.74842 8.46607 4.74842C7.73212 4.74842 7.135 4.1513 7.135 3.41735C7.135 2.68347 7.73212 2.08634 8.46607 2.08634ZM5.25774 9.96793L3.31258 15.8115C3.23678 16.0391 3.02476 16.1833 2.7973 16.1833C2.74038 16.1833 2.68257 16.1743 2.62565 16.1552C2.34103 16.0606 2.18707 15.753 2.28189 15.4683L4.22704 9.62471C4.59435 8.52177 5.15683 7.17054 6.25603 6.506C6.51089 6.35186 6.84205 6.43195 6.99866 6.68458L8.13431 8.47204C8.29515 8.72522 8.22031 9.06089 7.96707 9.22179C7.7139 9.38251 7.37816 9.3078 7.21732 9.05456L6.40316 7.7731C5.84466 8.35332 5.48931 9.27249 5.25774 9.96793Z" fill="url(#paint0_linear_15221_41218)"/>
<path d="M11.7366 17.8575L11.2004 13.4346C11.1642 13.1367 10.8937 12.9243 10.5958 12.9607C10.2979 12.9968 10.0858 13.2675 10.1219 13.5654L10.5853 17.3879H10.3243C10.3161 17.3877 10.3081 17.3877 10.3001 17.3879H6.63142C6.62333 17.3877 6.6153 17.3877 6.60728 17.3879H6.34667L7.07615 11.3708C7.11224 11.073 6.90011 10.8023 6.60227 10.7662C6.30413 10.7296 6.03381 10.9423 5.99766 11.2401L5.19558 17.8575C5.19376 17.8709 5.19244 17.8845 5.19159 17.8982C5.18767 17.962 5.19503 18.0242 5.21205 18.0827C5.23456 18.1603 5.27385 18.2307 5.32582 18.2898C5.32594 18.2899 5.32612 18.2901 5.32624 18.2903L5.3263 18.2903C5.37947 18.3507 5.44604 18.3995 5.5222 18.4316C5.52256 18.4317 5.52287 18.4319 5.52323 18.432C5.57815 18.4552 5.63766 18.4695 5.7 18.4733C5.71412 18.4743 5.72812 18.4746 5.74213 18.4744H6.20581L7.71118 23.9135H6.53691C6.23689 23.9135 5.99373 24.1566 5.99373 24.4566C5.99373 24.7567 6.23689 24.9998 6.53691 24.9998H8.40819C8.41374 25 8.41923 25.0001 8.42479 25.0001C8.43028 25.0001 8.43583 25 8.44138 24.9998H10.395C10.695 24.9998 10.9382 24.7567 10.9382 24.4566C10.9382 24.1566 10.695 23.9135 10.395 23.9135H9.21932L10.7257 18.4744H11.1898C11.2035 18.4746 11.2174 18.4743 11.2313 18.4734C11.2944 18.4696 11.3546 18.455 11.41 18.4316C11.486 18.3995 11.5525 18.3507 11.6057 18.2905C11.6057 18.2904 11.6058 18.2903 11.6059 18.2903C11.606 18.2902 11.6061 18.29 11.6061 18.2899C11.6581 18.2308 11.6974 18.1604 11.72 18.0828C11.737 18.0243 11.7443 17.9621 11.7404 17.8982C11.7398 17.8845 11.7384 17.8709 11.7366 17.8575ZM8.4654 22.5657L7.33301 18.4743H9.59852L8.4654 22.5657ZM17.8003 16.4705C19.0191 16.4705 20.0107 15.4789 20.0107 14.2602C20.0107 13.0414 19.0191 12.0498 17.8003 12.0498C16.5816 12.0498 15.59 13.0414 15.59 14.2602C15.59 15.4789 16.5815 16.4705 17.8003 16.4705ZM17.8003 13.1361C18.4202 13.1361 18.9243 13.6404 18.9243 14.2602C18.9243 14.88 18.4202 15.3842 17.8003 15.3842C17.1806 15.3842 16.6763 14.88 16.6763 14.2602C16.6763 13.6404 17.1806 13.1361 17.8003 13.1361ZM21.7155 21.2728L20.4943 17.8288C20.4175 17.612 20.2124 17.4672 19.9824 17.4672H19.3362C19.3286 17.4671 19.3211 17.4671 19.3135 17.4672H16.2874C16.2798 17.4671 16.2721 17.4671 16.2644 17.4672H15.275L12.705 9.62477C12.3391 8.52569 11.7792 7.17996 10.6875 6.51306C10.6663 6.49948 10.6439 6.48735 10.6206 6.47667C10.562 6.44987 10.5006 6.43436 10.439 6.42941C10.3582 6.42296 10.2783 6.4346 10.2048 6.46219C10.1306 6.48983 10.0622 6.53382 10.0052 6.59255C9.9622 6.63679 9.92623 6.68905 9.89986 6.74771C9.88954 6.77053 9.88097 6.79376 9.87397 6.81724L7.94836 12.8598C7.85729 13.1456 8.01511 13.4512 8.301 13.5423C8.58683 13.6332 8.8924 13.4755 8.98347 13.1897L10.662 7.92211C11.1447 8.50209 11.4615 9.3288 11.6734 9.96539L14.3651 18.1795C14.4382 18.4026 14.6464 18.5535 14.8813 18.5535H15.8457L17.1136 23.9134H16.4537C16.1537 23.9134 15.9105 24.1565 15.9105 24.4565C15.9105 24.7565 16.1537 24.9997 16.4537 24.9997H17.7837C17.789 24.9999 17.7944 24.9999 17.7998 24.9999C17.8001 25.0001 17.8005 24.9999 17.8008 24.9999C17.8061 24.9999 17.8115 24.9999 17.8168 24.9997H19.1468C19.4468 24.9997 19.69 24.7565 19.69 24.4565C19.69 24.1565 19.4468 23.9134 19.1468 23.9134H18.487L19.6924 18.8178L20.6916 21.6358C20.7919 21.9186 21.1025 22.0666 21.3851 21.9663C21.6678 21.866 21.8158 21.5556 21.7155 21.2728ZM17.8003 22.0971L16.9621 18.5535H18.6386L17.8003 22.0971ZM8.46607 5.8347C9.79901 5.8347 10.8834 4.75023 10.8834 3.41729C10.8834 2.08435 9.79901 1 8.46607 1C7.13313 1 6.04866 2.08441 6.04866 3.41735C6.04866 4.75029 7.13313 5.8347 8.46607 5.8347ZM8.46607 2.08634C9.20001 2.08634 9.79708 2.68347 9.79708 3.41735C9.79708 4.1513 9.19995 4.74842 8.46607 4.74842C7.73212 4.74842 7.135 4.1513 7.135 3.41735C7.135 2.68347 7.73212 2.08634 8.46607 2.08634ZM5.25774 9.96793L3.31258 15.8115C3.23678 16.0391 3.02476 16.1833 2.7973 16.1833C2.74038 16.1833 2.68257 16.1743 2.62565 16.1552C2.34103 16.0606 2.18707 15.753 2.28189 15.4683L4.22704 9.62471C4.59435 8.52177 5.15683 7.17054 6.25603 6.506C6.51089 6.35186 6.84205 6.43195 6.99866 6.68458L8.13431 8.47204C8.29515 8.72522 8.22031 9.06089 7.96707 9.22179C7.7139 9.38251 7.37816 9.3078 7.21732 9.05456L6.40316 7.7731C5.84466 8.35332 5.48931 9.27249 5.25774 9.96793Z" stroke="url(#paint1_linear_15221_41218)" stroke-width="0.4" mask="url(#path-1-outside-1_15221_41218)"/>
</g>
</g>
<defs>
<linearGradient id="paint0_linear_15221_41218" x1="2.25391" y1="13" x2="21.7469" y2="13" gradientUnits="userSpaceOnUse">
<stop stop-color="#0040C1"/>
<stop offset="1" stop-color="#4F7471"/>
</linearGradient>
<linearGradient id="paint1_linear_15221_41218" x1="2.25391" y1="13" x2="21.7469" y2="13" gradientUnits="userSpaceOnUse">
<stop stop-color="#0040C1"/>
<stop offset="1" stop-color="#4F7471"/>
</linearGradient>
</defs>
</svg>
