<svg width="21" height="20" viewBox="0 0 21 20" fill="none" xmlns="http://www.w3.org/2000/svg">
<g id="package-check">
<path id="Icon" d="M17.5833 6.06478L10.5 9.99996M10.5 9.99996L3.41664 6.06478M10.5 9.99996L10.5 17.9167M12.1667 17.4074L11.1475 17.9736C10.9112 18.1049 10.793 18.1705 10.6679 18.1963C10.5571 18.2191 10.4429 18.2191 10.3321 18.1963C10.207 18.1705 10.0888 18.1049 9.85248 17.9736L3.68581 14.5477C3.43621 14.409 3.3114 14.3397 3.22053 14.241C3.14013 14.1538 3.07929 14.0504 3.04207 13.9378C3 13.8104 3 13.6677 3 13.3821V6.61786C3 6.33233 3 6.18956 3.04207 6.06223C3.07929 5.94958 3.14013 5.84618 3.22053 5.75894C3.3114 5.66032 3.43621 5.59099 3.68581 5.45232L9.85248 2.02639C10.0888 1.8951 10.207 1.82944 10.3321 1.80371C10.4429 1.78093 10.5571 1.78093 10.6679 1.80371C10.793 1.82944 10.9112 1.89509 11.1475 2.02639L17.3142 5.45232C17.5638 5.59099 17.6886 5.66032 17.7795 5.75893C17.8599 5.84618 17.9207 5.94958 17.9579 6.06222C18 6.18956 18 6.33232 18 6.61786L18 10.4167M6.75 3.74999L14.25 7.91665M13.8333 15L15.5 16.6667L18.8333 13.3333" stroke="url(#paint0_linear_15184_73022)" stroke-width="1.66667" stroke-linecap="round" stroke-linejoin="round"/>
</g>
<defs>
<linearGradient id="paint0_linear_15184_73022" x1="3" y1="9.99999" x2="18.8333" y2="9.99999" gradientUnits="userSpaceOnUse">
<stop stop-color="#0040C1"/>
<stop offset="1" stop-color="#4F7471"/>
</linearGradient>
</defs>
</svg>
