<svg width="20" height="20" viewBox="0 0 20 20" fill="none" xmlns="http://www.w3.org/2000/svg">
<g id="phone-call-01" clip-path="url(#clip0_15328_2043)">
<path id="Icon" d="M11.7074 4.99999C12.5213 5.15879 13.2694 5.55687 13.8558 6.14327C14.4422 6.72967 14.8403 7.47771 14.9991 8.29166M11.7074 1.66666C13.3985 1.85452 14.9754 2.6118 16.1793 3.81416C17.3831 5.01652 18.1424 6.5925 18.3324 8.28332M8.52155 11.5525C7.52023 10.5512 6.72958 9.41903 6.14958 8.21101C6.09969 8.10711 6.07475 8.05515 6.05558 7.98941C5.98748 7.75578 6.0364 7.4689 6.17807 7.27104C6.21794 7.21536 6.26557 7.16773 6.36083 7.07247C6.65217 6.78114 6.79784 6.63547 6.89308 6.48898C7.25224 5.93658 7.25224 5.22442 6.89308 4.67202C6.79784 4.52553 6.65217 4.37987 6.36083 4.08853L6.19844 3.92614C5.75557 3.48327 5.53414 3.26183 5.29632 3.14155C4.82335 2.90232 4.2648 2.90232 3.79183 3.14155C3.55401 3.26183 3.33258 3.48327 2.88971 3.92614L2.75835 4.0575C2.31699 4.49885 2.09632 4.71953 1.92778 5.01955C1.74076 5.35248 1.60629 5.86955 1.60743 6.2514C1.60845 6.59553 1.67521 6.83071 1.80871 7.30108C2.52619 9.82891 3.87992 12.2142 5.8699 14.2042C7.85988 16.1942 10.2452 17.5479 12.773 18.2654C13.2434 18.3989 13.4786 18.4656 13.8227 18.4667C14.2045 18.4678 14.7216 18.3333 15.0545 18.1463C15.3546 17.9778 15.5752 17.7571 16.0166 17.3158L16.148 17.1844C16.5908 16.7415 16.8123 16.5201 16.9325 16.2823C17.1718 15.8093 17.1718 15.2507 16.9325 14.7778C16.8123 14.54 16.5908 14.3185 16.148 13.8757L15.9856 13.7133C15.6942 13.4219 15.5486 13.2763 15.4021 13.181C14.8497 12.8219 14.1375 12.8219 13.5851 13.181C13.4386 13.2763 13.293 13.4219 13.0016 13.7133C12.9064 13.8085 12.8587 13.8562 12.8031 13.896C12.6052 14.0377 12.3183 14.0866 12.0847 14.0185C12.0189 13.9994 11.967 13.9744 11.8631 13.9245C10.6551 13.3445 9.52286 12.5539 8.52155 11.5525Z" stroke="#004EEB" stroke-width="1.66667" stroke-linecap="round" stroke-linejoin="round"/>
</g>
<defs>
<clipPath id="clip0_15328_2043">
<rect width="20" height="20" fill="white"/>
</clipPath>
</defs>
</svg>
