<svg width="20" height="20" viewBox="0 0 20 20" fill="none" xmlns="http://www.w3.org/2000/svg">
<g id="ruler">
<path id="Icon" d="M12.0835 4.58334L13.3335 5.83334M9.58347 7.08334L10.8335 8.33334M7.08347 9.58334L8.33347 10.8333M4.58347 12.0833L5.83347 13.3333M2.13817 14.6381L5.36203 17.862C5.52704 18.027 5.60954 18.1095 5.70468 18.1404C5.78836 18.1676 5.87851 18.1676 5.96219 18.1404C6.05733 18.1095 6.13983 18.027 6.30484 17.862L17.862 6.30478C18.027 6.13977 18.1095 6.05727 18.1405 5.96213C18.1676 5.87844 18.1676 5.7883 18.1405 5.70462C18.1095 5.60948 18.027 5.52697 17.862 5.36197L14.6382 2.13811C14.4732 1.9731 14.3907 1.8906 14.2955 1.85969C14.2118 1.8325 14.1217 1.8325 14.038 1.85969C13.9429 1.8906 13.8604 1.9731 13.6954 2.13811L2.13817 13.6953C1.97316 13.8603 1.89066 13.9428 1.85975 14.0379C1.83256 14.1216 1.83256 14.2118 1.85975 14.2955C1.89066 14.3906 1.97316 14.4731 2.13817 14.6381Z" stroke="url(#paint0_linear_14117_270500)" stroke-width="1.66667" stroke-linecap="round" stroke-linejoin="round"/>
</g>
<defs>
<linearGradient id="paint0_linear_14117_270500" x1="1.83936" y1="10" x2="18.1608" y2="10" gradientUnits="userSpaceOnUse">
<stop stop-color="#0040C1"/>
<stop offset="1" stop-color="#4F7471"/>
</linearGradient>
</defs>
</svg>
