<svg width="20" height="20" viewBox="0 0 20 20" fill="none" xmlns="http://www.w3.org/2000/svg">
<g id="send-01">
<path id="Icon" d="M8.74976 11.2501L17.4998 2.50005M8.85608 11.5234L11.0462 17.1551C11.2391 17.6512 11.3356 17.8993 11.4746 17.9717C11.5951 18.0345 11.7386 18.0346 11.8592 17.9719C11.9983 17.8997 12.095 17.6517 12.2886 17.1558L17.7805 3.08272C17.9552 2.63507 18.0426 2.41124 17.9948 2.26822C17.9533 2.14401 17.8558 2.04654 17.7316 2.00504C17.5886 1.95726 17.3647 2.04461 16.9171 2.2193L2.84398 7.71125C2.34808 7.90477 2.10013 8.00153 2.02788 8.14062C1.96524 8.26119 1.96532 8.40474 2.0281 8.52523C2.10052 8.66424 2.34859 8.7607 2.84471 8.95364L8.47638 11.1437C8.57708 11.1829 8.62744 11.2025 8.66984 11.2327C8.70742 11.2595 8.74028 11.2924 8.76709 11.33C8.79734 11.3724 8.81692 11.4227 8.85608 11.5234Z" stroke="url(#paint0_linear_14574_58960)" stroke-width="1.66667" stroke-linecap="round" stroke-linejoin="round"/>
</g>
<defs>
<linearGradient id="paint0_linear_14574_58960" x1="1.98096" y1="10.0055" x2="18.0077" y2="10.0055" gradientUnits="userSpaceOnUse">
<stop stop-color="#0040C1"/>
<stop offset="1" stop-color="#4F7471"/>
</linearGradient>
</defs>
</svg>
