<svg width="20" height="20" viewBox="0 0 20 20" fill="none" xmlns="http://www.w3.org/2000/svg">
<g id="dots-horizontal">
<g id="Icon">
<path d="M10.0007 10.8333C10.4609 10.8333 10.834 10.4602 10.834 9.99996C10.834 9.53972 10.4609 9.16663 10.0007 9.16663C9.54041 9.16663 9.16732 9.53972 9.16732 9.99996C9.16732 10.4602 9.54041 10.8333 10.0007 10.8333Z" stroke="#667085" stroke-width="1.66667" stroke-linecap="round" stroke-linejoin="round"/>
<path d="M15.834 10.8333C16.2942 10.8333 16.6673 10.4602 16.6673 9.99996C16.6673 9.53972 16.2942 9.16663 15.834 9.16663C15.3737 9.16663 15.0007 9.53972 15.0007 9.99996C15.0007 10.4602 15.3737 10.8333 15.834 10.8333Z" stroke="#667085" stroke-width="1.66667" stroke-linecap="round" stroke-linejoin="round"/>
<path d="M4.16732 10.8333C4.62755 10.8333 5.00065 10.4602 5.00065 9.99996C5.00065 9.53972 4.62755 9.16663 4.16732 9.16663C3.70708 9.16663 3.33398 9.53972 3.33398 9.99996C3.33398 10.4602 3.70708 10.8333 4.16732 10.8333Z" stroke="#667085" stroke-width="1.66667" stroke-linecap="round" stroke-linejoin="round"/>
</g>
</g>
</svg>
