<svg width="16" height="16" viewBox="0 0 16 16" fill="none" xmlns="http://www.w3.org/2000/svg">
<g id="settings-01" clip-path="url(#clip0_14758_19562)">
<g id="Icon">
<path d="M8.00065 10C9.10522 10 10.0007 9.10456 10.0007 8C10.0007 6.89543 9.10522 6 8.00065 6C6.89608 6 6.00065 6.89543 6.00065 8C6.00065 9.10456 6.89608 10 8.00065 10Z" stroke="#667085" stroke-width="1.5" stroke-linecap="round" stroke-linejoin="round"/>
<path d="M12.4855 9.81818C12.4048 10.001 12.3808 10.2037 12.4164 10.4004C12.4521 10.597 12.5458 10.7784 12.6855 10.9212L12.7219 10.9576C12.8346 11.0701 12.924 11.2038 12.985 11.351C13.046 11.4981 13.0774 11.6559 13.0774 11.8151C13.0774 11.9744 13.046 12.1322 12.985 12.2793C12.924 12.4265 12.8346 12.5601 12.7219 12.6727C12.6093 12.7854 12.4756 12.8748 12.3285 12.9358C12.1813 12.9968 12.0236 13.0282 11.8643 13.0282C11.705 13.0282 11.5473 12.9968 11.4001 12.9358C11.253 12.8748 11.1193 12.7854 11.0067 12.6727L10.9703 12.6364C10.8275 12.4966 10.6461 12.4029 10.4495 12.3673C10.2529 12.3316 10.0501 12.3557 9.86732 12.4364C9.68806 12.5132 9.53519 12.6408 9.4275 12.8034C9.31982 12.966 9.26204 13.1565 9.26126 13.3515V13.4545C9.26126 13.776 9.13355 14.0843 8.90623 14.3116C8.67892 14.539 8.37061 14.6667 8.04914 14.6667C7.72766 14.6667 7.41935 14.539 7.19204 14.3116C6.96472 14.0843 6.83701 13.776 6.83701 13.4545V13.4C6.83232 13.1994 6.76739 13.0048 6.65066 12.8416C6.53393 12.6784 6.37079 12.5541 6.18247 12.4848C5.99967 12.4042 5.7969 12.3801 5.60029 12.4158C5.40369 12.4514 5.22227 12.5451 5.07944 12.6848L5.04308 12.7212C4.9305 12.8339 4.79682 12.9233 4.64967 12.9843C4.50252 13.0453 4.34479 13.0767 4.1855 13.0767C4.02621 13.0767 3.86848 13.0453 3.72133 12.9843C3.57418 12.9233 3.4405 12.8339 3.32792 12.7212C3.21523 12.6086 3.12582 12.475 3.06482 12.3278C3.00382 12.1807 2.97242 12.0229 2.97242 11.8636C2.97242 11.7043 3.00382 11.5466 3.06482 11.3995C3.12582 11.2523 3.21523 11.1186 3.32792 11.0061L3.36429 10.9697C3.50401 10.8269 3.59773 10.6454 3.63338 10.4488C3.66903 10.2522 3.64496 10.0495 3.56429 9.86666C3.48746 9.68741 3.3599 9.53453 3.1973 9.42685C3.0347 9.31917 2.84416 9.26138 2.64914 9.2606H2.54611C2.22463 9.2606 1.91632 9.1329 1.68901 8.90558C1.46169 8.67826 1.33398 8.36995 1.33398 8.04848C1.33398 7.72701 1.46169 7.4187 1.68901 7.19138C1.91632 6.96406 2.22463 6.83636 2.54611 6.83636H2.60065C2.80125 6.83167 2.99581 6.76673 3.15901 6.65C3.32222 6.53327 3.44654 6.37014 3.5158 6.18181C3.59648 5.99902 3.62054 5.79624 3.5849 5.59964C3.54925 5.40304 3.45552 5.22162 3.3158 5.07878L3.27944 5.04242C3.16674 4.92985 3.07734 4.79616 3.01634 4.64901C2.95534 4.50186 2.92394 4.34413 2.92394 4.18484C2.92394 4.02555 2.95534 3.86782 3.01634 3.72067C3.07734 3.57352 3.16674 3.43984 3.27944 3.32727C3.39201 3.21457 3.5257 3.12516 3.67284 3.06417C3.81999 3.00317 3.97772 2.97177 4.13701 2.97177C4.29631 2.97177 4.45404 3.00317 4.60118 3.06417C4.74833 3.12516 4.88202 3.21457 4.99459 3.32727L5.03095 3.36363C5.17379 3.50335 5.35521 3.59708 5.55181 3.63272C5.74841 3.66837 5.95119 3.64431 6.13398 3.56363H6.18247C6.36172 3.48681 6.5146 3.35924 6.62228 3.19664C6.72997 3.03404 6.78775 2.8435 6.78853 2.64848V2.54545C6.78853 2.22397 6.91624 1.91567 7.14355 1.68835C7.37087 1.46103 7.67918 1.33333 8.00065 1.33333C8.32213 1.33333 8.63043 1.46103 8.85775 1.68835C9.08507 1.91567 9.21277 2.22397 9.21277 2.54545V2.59999C9.21355 2.79502 9.27134 2.98556 9.37902 3.14816C9.4867 3.31076 9.63958 3.43832 9.81883 3.51515C10.0016 3.59582 10.2044 3.61989 10.401 3.58424C10.5976 3.54859 10.779 3.45487 10.9219 3.31515L10.9582 3.27878C11.0708 3.16608 11.2045 3.07668 11.3516 3.01568C11.4988 2.95468 11.6565 2.92328 11.8158 2.92328C11.9751 2.92328 12.1328 2.95468 12.28 3.01568C12.4271 3.07668 12.5608 3.16608 12.6734 3.27878C12.7861 3.39136 12.8755 3.52504 12.9365 3.67219C12.9975 3.81934 13.0289 3.97707 13.0289 4.13636C13.0289 4.29565 12.9975 4.45338 12.9365 4.60053C12.8755 4.74768 12.7861 4.88136 12.6734 4.99393L12.637 5.0303C12.4973 5.17313 12.4036 5.35455 12.3679 5.55115C12.3323 5.74776 12.3563 5.95053 12.437 6.13333V6.18181C12.5138 6.36107 12.6414 6.51395 12.804 6.62163C12.9666 6.72931 13.1571 6.7871 13.3522 6.78787H13.4552C13.7767 6.78787 14.085 6.91558 14.3123 7.1429C14.5396 7.37021 14.6673 7.67852 14.6673 8C14.6673 8.32147 14.5396 8.62978 14.3123 8.85709C14.085 9.08441 13.7767 9.21212 13.4552 9.21212H13.4007C13.2056 9.21289 13.0151 9.27068 12.8525 9.37836C12.6899 9.48605 12.5623 9.63892 12.4855 9.81818Z" stroke="#667085" stroke-width="1.5" stroke-linecap="round" stroke-linejoin="round"/>
</g>
</g>
<defs>
<clipPath id="clip0_14758_19562">
<rect width="16" height="16" fill="white"/>
</clipPath>
</defs>
</svg>
