<svg width="16" height="14" viewBox="0 0 16 14" fill="none" xmlns="http://www.w3.org/2000/svg">
<path id="Star background" d="M7.63067 0.287966C7.76731 -0.0405509 8.23269 -0.0405518 8.36933 0.287965L10.0222 4.26195C10.0798 4.40044 10.21 4.49507 10.3596 4.50706L14.6498 4.851C15.0045 4.87944 15.1483 5.32204 14.8781 5.55351L11.6094 8.35351C11.4954 8.45109 11.4457 8.6042 11.4805 8.75011L12.4791 12.9367C12.5617 13.2827 12.1852 13.5563 11.8816 13.3708L8.2085 11.1273C8.0805 11.0492 7.9195 11.0492 7.7915 11.1273L4.11845 13.3708C3.81481 13.5563 3.43831 13.2828 3.52086 12.9367L4.51951 8.75011C4.55431 8.6042 4.50456 8.45109 4.39065 8.35351L1.12193 5.55351C0.851716 5.32204 0.995526 4.87944 1.35019 4.851L5.64044 4.50706C5.78995 4.49507 5.9202 4.40044 5.9778 4.26195L7.63067 0.287966Z" fill="#F2F4F7"/>
</svg>
