<svg width="20" height="20" viewBox="0 0 20 20" fill="none" xmlns="http://www.w3.org/2000/svg">
<g id="star-06" clip-path="url(#clip0_14117_270507)">
<path id="Icon" d="M3.74984 18.3334V14.1667M3.74984 5.83335V1.66669M1.6665 3.75002H5.83317M1.6665 16.25H5.83317M10.8332 2.50002L9.38802 6.25741C9.15301 6.86843 9.03551 7.17394 8.85278 7.43093C8.69083 7.65869 8.49184 7.85768 8.26408 8.01963C8.00709 8.20236 7.70158 8.31986 7.09055 8.55487L3.33317 10L7.09056 11.4452C7.70158 11.6802 8.00709 11.7977 8.26408 11.9804C8.49184 12.1424 8.69083 12.3414 8.85278 12.5691C9.03551 12.8261 9.15301 13.1316 9.38802 13.7426L10.8332 17.5L12.2783 13.7426C12.5133 13.1316 12.6308 12.8261 12.8136 12.5691C12.9755 12.3414 13.1745 12.1424 13.4023 11.9804C13.6592 11.7977 13.9648 11.6802 14.5758 11.4452L18.3332 10L14.5758 8.55487C13.9648 8.31986 13.6592 8.20236 13.4023 8.01963C13.1745 7.85768 12.9755 7.65869 12.8136 7.43093C12.6308 7.17394 12.5133 6.86843 12.2783 6.25741L10.8332 2.50002Z" stroke="url(#paint0_linear_14117_270507)" stroke-width="1.66667" stroke-linecap="round" stroke-linejoin="round"/>
</g>
<defs>
<linearGradient id="paint0_linear_14117_270507" x1="1.6665" y1="10" x2="18.3332" y2="10" gradientUnits="userSpaceOnUse">
<stop stop-color="#0040C1"/>
<stop offset="1" stop-color="#4F7471"/>
</linearGradient>
<clipPath id="clip0_14117_270507">
<rect width="20" height="20" fill="white"/>
</clipPath>
</defs>
</svg>
