<svg width="20" height="20" viewBox="0 0 20 20" fill="none" xmlns="http://www.w3.org/2000/svg">
<g id="star-01">
<path id="Icon" d="M9.40156 2.87774C9.59363 2.48863 9.68967 2.29407 9.82004 2.23191C9.93347 2.17782 10.0653 2.17782 10.1787 2.23191C10.3091 2.29407 10.4051 2.48863 10.5972 2.87774L12.4194 6.56938C12.4761 6.68426 12.5045 6.7417 12.5459 6.78629C12.5826 6.82578 12.6266 6.85777 12.6754 6.8805C12.7306 6.90617 12.794 6.91543 12.9208 6.93396L16.9968 7.52973C17.4261 7.59247 17.6407 7.62384 17.74 7.72868C17.8264 7.81989 17.8671 7.94523 17.8506 8.06979C17.8317 8.21296 17.6763 8.3643 17.3656 8.66696L14.4172 11.5387C14.3253 11.6282 14.2794 11.6729 14.2497 11.7262C14.2235 11.7734 14.2066 11.8252 14.2001 11.8787C14.1928 11.9392 14.2036 12.0025 14.2253 12.1289L14.921 16.1851C14.9944 16.6129 15.031 16.8268 14.9621 16.9537C14.9021 17.0642 14.7955 17.1416 14.6719 17.1645C14.5299 17.1909 14.3378 17.0899 13.9536 16.8878L10.3097 14.9715C10.1961 14.9118 10.1394 14.8819 10.0796 14.8702C10.0266 14.8598 9.97213 14.8598 9.91918 14.8702C9.85937 14.8819 9.8026 14.9118 9.68906 14.9715L6.04512 16.8878C5.66095 17.0899 5.46886 17.1909 5.32683 17.1645C5.20325 17.1416 5.09662 17.0642 5.03663 16.9537C4.96768 16.8268 5.00437 16.6129 5.07774 16.1851L5.77342 12.1289C5.79511 12.0025 5.80595 11.9392 5.79862 11.8787C5.79212 11.8252 5.77528 11.7734 5.74902 11.7262C5.71937 11.6729 5.67341 11.6282 5.5815 11.5387L2.63315 8.66696C2.3224 8.3643 2.16703 8.21296 2.14812 8.06979C2.13167 7.94523 2.17231 7.81989 2.25872 7.72868C2.35804 7.62384 2.57266 7.59247 3.00189 7.52973L7.07794 6.93396C7.2047 6.91543 7.26808 6.90617 7.32328 6.8805C7.37215 6.85777 7.41615 6.82578 7.45284 6.78629C7.49427 6.7417 7.52262 6.68426 7.57933 6.56938L9.40156 2.87774Z" stroke="url(#paint0_linear_14793_21544)" stroke-width="1.66667" stroke-linecap="round" stroke-linejoin="round"/>
</g>
<defs>
<linearGradient id="paint0_linear_14793_21544" x1="2.14453" y1="9.68" x2="17.8542" y2="9.68" gradientUnits="userSpaceOnUse">
<stop stop-color="#0040C1"/>
<stop offset="1" stop-color="#4F7471"/>
</linearGradient>
</defs>
</svg>
