<svg width="24" height="24" viewBox="0 0 24 24" fill="none" xmlns="http://www.w3.org/2000/svg">
<g id="student-head-svgrepo-com 1">
<path id="Vector" d="M16.2397 14.07C16.2398 14.6599 16.1222 15.2439 15.8939 15.7879C15.6656 16.3318 15.3311 16.8247 14.91 17.2378C14.4889 17.6509 13.9896 17.9759 13.4414 18.1937C12.8931 18.4115 12.307 18.5177 11.7172 18.5063C10.5367 18.4595 9.42111 17.9542 8.60739 17.0977C7.79368 16.2413 7.34606 15.1013 7.35968 13.92V7.74001C7.3595 7.73124 7.36241 7.72268 7.36789 7.71583C7.37337 7.70898 7.38108 7.70427 7.38968 7.70251C8.88959 7.47634 10.403 7.35106 11.9197 7.32751C13.3729 7.35044 14.8228 7.47575 16.2584 7.70251C16.2667 7.70432 16.274 7.70918 16.2789 7.71613C16.2837 7.72308 16.2858 7.73161 16.2847 7.74001L16.2397 14.07Z" stroke="#344054" stroke-width="1.7"/>
<path id="Vector_2" d="M7.36287 9.75001L3.37662 7.67626C3.37028 7.67319 3.36494 7.66839 3.36119 7.66243C3.35745 7.65646 3.35547 7.64955 3.35547 7.64251C3.35547 7.63546 3.35745 7.62856 3.36119 7.62259C3.36494 7.61662 3.37028 7.61183 3.37662 7.60876L11.8104 3.32251H11.8441L20.2516 7.56376C20.258 7.56683 20.2633 7.57163 20.2671 7.57759C20.2708 7.58356 20.2728 7.59047 20.2728 7.59751C20.2728 7.60455 20.2708 7.61146 20.2671 7.61743C20.2633 7.62339 20.258 7.62819 20.2516 7.63126L16.2879 9.75001" stroke="#344054" stroke-width="1.7"/>
<path id="Vector_3" d="M19.7695 16.89V7.88623" stroke="#344054" stroke-width="1.7"/>
<path id="Vector_4" d="M19.7686 18.6262C20.247 18.6262 20.6348 18.2384 20.6348 17.76C20.6348 17.2816 20.247 16.8937 19.7686 16.8937C19.2902 16.8937 18.9023 17.2816 18.9023 17.76C18.9023 18.2384 19.2902 18.6262 19.7686 18.6262Z" stroke="#344054" stroke-width="1.7"/>
<path id="Vector_5" d="M14.1583 17.8237V20.6812H9.70703V17.9812" stroke="#344054" stroke-width="1.7"/>
<path id="Vector_6" d="M16.2844 11.2988C14.8478 11.0395 13.3903 10.914 11.9306 10.9238C10.3981 10.8934 8.86646 11.019 7.35938 11.2988" stroke="#344054" stroke-width="1.7"/>
</g>
</svg>
