<svg width="21" height="20" viewBox="0 0 21 20" fill="none" xmlns="http://www.w3.org/2000/svg">
<g id="truck-02">
<path id="Icon" d="M13.8346 13.3333V5.16667C13.8346 4.23325 13.8346 3.76654 13.653 3.41002C13.4932 3.09641 13.2382 2.84144 12.9246 2.68166C12.5681 2.5 12.1014 2.5 11.168 2.5H4.83464C3.90121 2.5 3.4345 2.5 3.07798 2.68166C2.76438 2.84144 2.50941 3.09641 2.34962 3.41002C2.16797 3.76654 2.16797 4.23325 2.16797 5.16667V10.6667C2.16797 11.6001 2.16797 12.0668 2.34962 12.4233C2.50941 12.7369 2.76438 12.9919 3.07798 13.1517C3.4345 13.3333 3.90121 13.3333 4.83464 13.3333H13.8346ZM13.8346 13.3333H17.5013C17.968 13.3333 18.2014 13.3333 18.3796 13.2425C18.5364 13.1626 18.6639 13.0351 18.7438 12.8783C18.8346 12.7001 18.8346 12.4667 18.8346 12V9.71895C18.8346 9.51513 18.8346 9.41321 18.8116 9.31731C18.7912 9.23228 18.7575 9.15099 18.7118 9.07643C18.6603 8.99233 18.5882 8.92027 18.4441 8.77614L16.7252 7.05719C16.581 6.91306 16.509 6.841 16.4249 6.78947C16.3503 6.74378 16.269 6.71011 16.184 6.68969C16.0881 6.66667 15.9862 6.66667 15.7824 6.66667H13.8346M8.0013 15.4167C8.0013 16.5673 7.06856 17.5 5.91797 17.5C4.76738 17.5 3.83464 16.5673 3.83464 15.4167C3.83464 14.2661 4.76738 13.3333 5.91797 13.3333C7.06856 13.3333 8.0013 14.2661 8.0013 15.4167ZM17.168 15.4167C17.168 16.5673 16.2352 17.5 15.0846 17.5C13.934 17.5 13.0013 16.5673 13.0013 15.4167C13.0013 14.2661 13.934 13.3333 15.0846 13.3333C16.2352 13.3333 17.168 14.2661 17.168 15.4167Z" stroke="url(#paint0_linear_14956_7277)" stroke-width="1.66667" stroke-linecap="round" stroke-linejoin="round"/>
</g>
<defs>
<linearGradient id="paint0_linear_14956_7277" x1="2.16797" y1="10" x2="18.8346" y2="10" gradientUnits="userSpaceOnUse">
<stop stop-color="#0040C1"/>
<stop offset="1" stop-color="#4F7471"/>
</linearGradient>
</defs>
</svg>
