<svg width="20" height="20" viewBox="0 0 20 20" fill="none" xmlns="http://www.w3.org/2000/svg">
<g id="truck-01">
<path id="Icon" d="M11.6665 5.83331H13.6142C13.818 5.83331 13.92 5.83331 14.0159 5.85634C14.1009 5.87675 14.1822 5.91042 14.2567 5.95611C14.3408 6.00765 14.4129 6.07971 14.557 6.22384L17.9426 9.60946C18.0868 9.75358 18.1588 9.82564 18.2104 9.90974C18.2561 9.9843 18.2897 10.0656 18.3101 10.1506C18.3332 10.2465 18.3332 10.3484 18.3332 10.5523V12.9166C18.3332 13.3049 18.3332 13.4991 18.2697 13.6522C18.1852 13.8564 18.0229 14.0186 17.8187 14.1032C17.6656 14.1666 17.4715 14.1666 17.0832 14.1666M12.9165 14.1666H11.6665M11.6665 14.1666V5.99998C11.6665 5.06656 11.6665 4.59985 11.4848 4.24333C11.3251 3.92973 11.0701 3.67476 10.7565 3.51497C10.4 3.33331 9.93326 3.33331 8.99984 3.33331H4.33317C3.39975 3.33331 2.93304 3.33331 2.57652 3.51497C2.26292 3.67476 2.00795 3.92973 1.84816 4.24333C1.6665 4.59985 1.6665 5.06656 1.6665 5.99998V12.5C1.6665 13.4205 2.4127 14.1666 3.33317 14.1666M11.6665 14.1666H8.33317M8.33317 14.1666C8.33317 15.5474 7.21388 16.6666 5.83317 16.6666C4.45246 16.6666 3.33317 15.5474 3.33317 14.1666M8.33317 14.1666C8.33317 12.7859 7.21388 11.6666 5.83317 11.6666C4.45246 11.6666 3.33317 12.7859 3.33317 14.1666M17.0832 14.5833C17.0832 15.7339 16.1504 16.6666 14.9998 16.6666C13.8492 16.6666 12.9165 15.7339 12.9165 14.5833C12.9165 13.4327 13.8492 12.5 14.9998 12.5C16.1504 12.5 17.0832 13.4327 17.0832 14.5833Z" stroke="#475467" stroke-width="1.66667" stroke-linecap="round" stroke-linejoin="round"/>
</g>
</svg>
