<svg width="12" height="12" viewBox="0 0 12 12" fill="none" xmlns="http://www.w3.org/2000/svg">
<g id="Verified tick" clip-path="url(#clip0_14574_38344)">
<path id="Vector" d="M9.26684 2.12518C9.38081 2.40081 9.59958 2.61991 9.87504 2.73429L10.841 3.13439C11.1166 3.24857 11.3356 3.46758 11.4498 3.74323C11.564 4.01889 11.564 4.32862 11.4498 4.60427L11.05 5.5695C10.9358 5.84527 10.9356 6.15531 11.0504 6.43096L11.4495 7.39589C11.5061 7.53242 11.5352 7.67877 11.5352 7.82657C11.5353 7.97436 11.5062 8.12072 11.4496 8.25726C11.393 8.39381 11.3101 8.51788 11.2056 8.62237C11.1011 8.72686 10.977 8.80973 10.8404 8.86625L9.8752 9.26606C9.59957 9.38003 9.38047 9.59879 9.26609 9.87426L8.86599 10.8402C8.75181 11.1158 8.53281 11.3348 8.25715 11.449C7.98149 11.5632 7.67177 11.5632 7.39611 11.449L6.43089 11.0492C6.15522 10.9353 5.84561 10.9355 5.57012 11.0499L4.6042 11.4494C4.3287 11.5633 4.01924 11.5632 3.74381 11.4491C3.46838 11.335 3.24949 11.1163 3.13523 10.8409L2.73502 9.87471C2.62105 9.59907 2.40228 9.37998 2.12682 9.26559L1.16091 8.8655C0.885369 8.75137 0.666426 8.5325 0.552203 8.257C0.43798 7.9815 0.437825 7.67192 0.551772 7.39631L0.951581 6.43109C1.06548 6.15542 1.06525 5.84581 0.950934 5.57031L0.551699 4.60371C0.495096 4.46718 0.46595 4.32083 0.465926 4.17303C0.465902 4.02524 0.495001 3.87888 0.551561 3.74234C0.608121 3.60579 0.691033 3.48172 0.795558 3.37723C0.900084 3.27274 1.02417 3.18987 1.16074 3.13335L2.12596 2.73354C2.40136 2.61967 2.62032 2.40118 2.73479 2.12604L3.13489 1.16012C3.24907 0.884465 3.46807 0.665457 3.74373 0.551276C4.01939 0.437095 4.32911 0.437095 4.60477 0.551276L5.56999 0.951085C5.84566 1.06498 6.15527 1.06475 6.43076 0.950438L7.39708 0.551896C7.6727 0.43778 7.98236 0.437803 8.25796 0.551961C8.53357 0.666119 8.75254 0.885065 8.86674 1.16065L9.26696 2.12685L9.26684 2.12518Z" fill="url(#paint0_linear_14574_38344)"/>
<path id="Vector_2" fill-rule="evenodd" clip-rule="evenodd" d="M8.34995 4.42718C8.43011 4.30127 8.45697 4.14867 8.42462 4.00296C8.39227 3.85724 8.30336 3.73035 8.17745 3.65018C8.05153 3.57002 7.89894 3.54316 7.75322 3.57551C7.6075 3.60786 7.48061 3.69677 7.40045 3.82268L5.1977 7.28393L4.1897 6.02393C4.09651 5.90737 3.96083 5.8326 3.81251 5.81608C3.66419 5.79955 3.51538 5.84262 3.39882 5.93581C3.28226 6.029 3.20749 6.16468 3.19096 6.313C3.17444 6.46131 3.21751 6.61012 3.3107 6.72668L4.8107 8.60168C4.8666 8.67165 4.9384 8.72726 5.02012 8.76388C5.10185 8.8005 5.19114 8.81708 5.28056 8.81224C5.36999 8.8074 5.45696 8.78128 5.53426 8.73604C5.61155 8.69081 5.67692 8.62778 5.72495 8.55218L8.34995 4.42718Z" fill="white"/>
</g>
<defs>
<linearGradient id="paint0_linear_14574_38344" x1="0.551202" y1="3.7432" x2="11.4495" y2="8.25744" gradientUnits="userSpaceOnUse">
<stop stop-color="#0040C1"/>
<stop offset="1" stop-color="#4F7471"/>
</linearGradient>
<clipPath id="clip0_14574_38344">
<rect width="12" height="12" fill="white"/>
</clipPath>
</defs>
</svg>
