<svg width="317" height="41" viewBox="0 0 317 41" fill="none" xmlns="http://www.w3.org/2000/svg">
<path d="M0.362396 33.0722H4.37657C7.18099 33.0722 8.06081 31.5875 8.06081 28.3431V1.72863H16.3091V28.7281C16.3091 36.5365 12.4599 40.2207 6.02623 40.2207H0.362396V33.0722ZM49.5481 12.5064V40.2207H41.8496V36.3715C40.31 39.011 37.2306 40.6606 33.4364 40.6606C27.2226 40.6606 23.1535 36.0966 23.1535 29.7729V12.5064H30.7969V28.0682C30.7969 31.4225 32.9965 33.842 36.1308 33.842C39.4851 33.842 41.8496 31.2026 41.8496 27.6833V12.5064H49.5481ZM74.5683 18.8851H70.0043C66.2101 18.8851 64.5054 22.0194 64.5054 26.7485V40.2207H56.807V12.5064H64.5054V17.1255C65.9901 13.6612 68.0797 12.5064 71.434 12.5064H74.5683V18.8851ZM79.5555 0.463886H87.6939V8.54722H79.5555V0.463886ZM79.7755 40.2207V12.5064H87.4739V40.2207H79.7755ZM104.861 40.6606C98.097 40.6606 93.478 36.8664 93.203 30.8726H99.8017C100.077 33.3471 102.001 34.8868 104.861 34.8868C107.225 34.8868 108.875 33.732 108.875 32.1924C108.875 26.5285 93.9729 32.0824 93.9729 20.4248C93.9729 15.5308 98.207 12.0665 103.871 12.0665C110.524 12.0665 115.034 15.6408 115.308 21.0846H108.655C108.325 18.7201 106.18 17.4554 104.091 17.4554C101.946 17.4554 100.462 18.3902 100.462 20.1498C100.462 25.8137 115.638 19.38 115.638 31.9174C115.638 37.1963 111.349 40.6606 104.861 40.6606ZM139.559 40.6606C129.716 40.6606 120.643 34.117 120.643 20.9747C120.643 7.83237 129.991 1.28872 140.164 1.28872C149.842 1.28872 156.77 6.95255 157.265 15.2009H149.072C148.467 11.0767 145.058 8.38226 140.109 8.38226C133.565 8.38226 128.506 13.0013 128.506 20.9747C128.506 28.948 133.565 33.952 139.944 33.952C144.728 33.952 149.457 30.4877 149.457 26.9134C149.457 25.9786 148.852 25.3738 147.917 25.3738H140.494V19.16H150.942C154.516 19.16 157.155 22.0194 157.155 25.3738V40.2207H149.842V34.3369C148.577 38.1311 144.508 40.6606 139.559 40.6606ZM182.015 18.8851H177.451C173.657 18.8851 171.952 22.0194 171.952 26.7485V40.2207H164.254V12.5064H171.952V17.1255C173.437 13.6612 175.527 12.5064 178.881 12.5064H182.015V18.8851ZM199.507 40.6606C190.984 40.6606 184.88 34.6119 184.88 26.3636C184.88 18.1153 190.984 12.0665 199.507 12.0665C208.03 12.0665 214.134 18.1153 214.134 26.3636C214.134 34.6119 208.03 40.6606 199.507 40.6606ZM199.507 34.062C203.631 34.062 206.435 30.9276 206.435 26.3636C206.435 21.7445 203.631 18.6102 199.507 18.6102C195.383 18.6102 192.578 21.7445 192.578 26.3636C192.578 30.9276 195.383 34.062 199.507 34.062ZM225.602 40.2207L216.583 12.5064H224.282L228.956 29.6079L233.85 12.5064H240.833L245.782 29.6079L250.456 12.5064H258.1L249.137 40.2207H242.428L237.369 22.9543L232.255 40.2207H225.602ZM266.752 4.31309H274.395V12.5064H281.819V18.8851H274.395V29.8278C274.395 32.5223 275.825 33.787 278.3 33.787H281.819V40.2207H277.255C270.876 40.2207 266.752 36.5915 266.752 30.1578V18.8851H261.418V12.5064H266.752V4.31309ZM289.701 40.2207V0.463886H297.344V16.3556C298.939 13.6612 301.963 12.0665 305.812 12.0665C312.026 12.0665 316.095 16.5756 316.095 22.9543V40.2207H308.452V24.6589C308.452 21.3046 306.252 18.8851 303.063 18.8851C299.709 18.8851 297.344 21.4696 297.344 25.0438V40.2207H289.701Z" fill="white"/>
</svg>
