<svg version="1.2" xmlns="http://www.w3.org/2000/svg" viewBox="0 0 157 52" width="157" height="52">
	<g id="&lt;Group&gt;">
		<g id="&lt;Group&gt;">
			<path id="&lt;Path&gt;" fill="currentColor" d="m4.2 15l2.8-3.1 6.2 8.5h4.9l-8.3-11.5 8-8.8h-5l-8.6 9.5v-9.5h-4v20.3h4z"/>
			<path id="&lt;Compound Path&gt;" fill-rule="evenodd" fill="currentColor" d="m19.7 17.7q-0.8-1.5-0.9-3.3v-3.2q0.1-1.9 0.9-3.3 0.9-1.5 2.5-2.4 1.5-0.8 3.4-0.8 1.9 0 3.5 0.8 1.5 0.9 2.4 2.4 0.9 1.4 0.9 3.3v3.2q0 1.8-0.9 3.3-0.9 1.5-2.4 2.3-1.6 0.9-3.5 0.9-1.9 0-3.4-0.9-1.6-0.8-2.5-2.3zm3.5-8.4q-0.4 0.6-0.4 1.3v4.4q0 0.7 0.4 1.2 0.4 0.6 1 0.9 0.6 0.3 1.4 0.3 0.8 0 1.4-0.3 0.7-0.3 1-0.9 0.4-0.5 0.4-1.2v-4.4q0-0.7-0.4-1.3-0.3-0.5-1-0.9-0.6-0.3-1.4-0.3-0.8 0-1.4 0.3-0.6 0.4-1 0.9z"/>
			<path id="&lt;Path&gt;" fill="currentColor" d="m55.5 5.5q-1.3-0.7-3-0.7-1.9 0-3.3 0.9-0.9 0.6-1.5 1.4-0.6-1.1-1.6-1.7-1.2-0.6-2.9-0.6-1.9 0-3.1 0.7-0.7 0.5-1.1 1.1v-1.4h-4v15.2h4v-9.5q0-0.9 0.3-1.5 0.4-0.6 1.1-0.9 0.7-0.3 1.7-0.3 1.2 0 1.8 0.6 0.6 0.6 0.6 1.8v9.8h4v-9.5q0-0.9 0.3-1.5 0.4-0.6 1.1-0.9 0.7-0.3 1.7-0.3 1.2 0 1.8 0.6 0.7 0.6 0.7 1.8v9.8h3.9v-9.2q0-2.1-0.6-3.5-0.7-1.4-1.9-2.2z"/>
			<path id="&lt;Path&gt;" fill="currentColor" d="m74.2 20.4v-9.5q0-0.9 0.3-1.5 0.4-0.6 1-0.9 0.7-0.3 1.8-0.3 1.2 0 1.8 0.6 0.6 0.6 0.6 1.8v9.8h4v-9.2q0-2.1-0.7-3.5-0.6-1.4-1.9-2.2-1.2-0.7-2.9-0.7-2 0-3.3 0.9-0.9 0.6-1.5 1.4-0.6-1.1-1.6-1.7-1.2-0.6-2.9-0.6-1.9 0-3.1 0.7-0.7 0.5-1.2 1.1v-1.4h-4v15.2h4v-9.5q0-0.9 0.4-1.5 0.3-0.6 1-0.9 0.8-0.3 1.8-0.3 1.2 0 1.8 0.6 0.6 0.6 0.6 1.8v9.8z"/>
			<path id="&lt;Compound Path&gt;" fill-rule="evenodd" fill="currentColor" d="m87.2 17.7q-0.9-1.5-0.9-3.3v-3.2q0-1.9 0.9-3.3 0.9-1.5 2.4-2.4 1.6-0.8 3.5-0.8 1.9 0 3.4 0.8 1.6 0.9 2.4 2.4 0.9 1.4 0.9 3.3v3.2q0 1.8-0.9 3.3-0.8 1.5-2.4 2.3-1.5 0.9-3.4 0.9-1.9 0-3.5-0.9-1.5-0.8-2.4-2.3zm8.3-1.5q0.4-0.5 0.4-1.2v-4.4q0-0.7-0.4-1.3-0.4-0.5-1-0.9-0.6-0.3-1.4-0.3-0.8 0-1.4 0.3-0.7 0.4-1 0.9-0.4 0.6-0.4 1.3v4.4q0 0.7 0.4 1.2 0.3 0.6 1 0.9 0.6 0.3 1.4 0.3 0.8 0 1.4-0.3 0.6-0.3 1-0.9z"/>
			<path id="&lt;Compound Path&gt;" fill-rule="evenodd" fill="currentColor" d="m112.3 0.1h4v20.3h-4v-0.9q-0.4 0.4-0.9 0.7-1.2 0.7-2.6 0.7-1.7 0-3.2-0.9-1.4-0.9-2.3-2.3-0.9-1.5-0.9-3.3v-3q0-2 0.8-3.5 0.8-1.5 2.2-2.3 1.5-0.8 3.2-0.8 2 0 3 0.8 0.4 0.2 0.7 0.5zm0 14.9v-4.1q0-0.7-0.4-1.4-0.3-0.6-1-0.9-0.6-0.4-1.5-0.4-0.8 0-1.5 0.4-0.7 0.3-1.1 0.9-0.4 0.6-0.4 1.3v4.2q0 0.7 0.4 1.3 0.3 0.5 1 0.9 0.6 0.3 1.5 0.3 0.9 0 1.6-0.3 0.6-0.4 1-0.9 0.4-0.6 0.4-1.3z"/>
			<path id="&lt;Path&gt;" fill="currentColor" d="m124.9 5.2h-5.6v3.4h3v11.8h3.9v-13.9q0-0.6-0.3-0.9-0.4-0.4-1-0.4z"/>
			<path id="&lt;Path&gt;" fill="currentColor" d="m125.4 0.1h-2.3q-0.3 0-0.6 0.3-0.2 0.2-0.2 0.6v2.2q0 0.4 0.2 0.6 0.3 0.3 0.6 0.3h2.3q0.3 0 0.6-0.3 0.2-0.2 0.2-0.6v-2.2q0-0.4-0.2-0.6-0.3-0.3-0.6-0.3z"/>
			<path id="&lt;Path&gt;" fill="currentColor" d="m136.6 16.6q-0.4-0.3-0.4-0.8v-7.2h3.6v-3.4h-3.6v-3.4h-4v3.4h-2.6v3.4h2.6v6.4q0 1.7 0.7 2.9 0.6 1.3 2 1.9 1.2 0.6 3 0.6h2.2v-3.4h-2.3q-0.7 0-1.2-0.4z"/>
			<path id="&lt;Path&gt;" fill="currentColor" d="m152.2 5.2v9.3q0 0.8-0.4 1.4-0.4 0.6-1.1 1-0.7 0.4-1.5 0.4-1.2 0-2.1-0.7-0.8-0.7-0.8-1.8v-9.6h-3.9v9q0 1.9 0.7 3.3 0.8 1.5 2.1 2.4 1.4 0.8 3 0.8 1.4 0 2.5-0.7 0.9-0.5 1.5-1.2v2.4q0 0.4-0.3 0.7-0.2 0.3-0.7 0.5-0.4 0.2-1 0.2h-6.5v3.4h6.4q1.9 0 3.3-0.6 1.3-0.7 2-2 0.7-1.3 0.7-3.1v-15.1z"/>
		</g>
		<g id="&lt;Group&gt;">
			<path id="&lt;Path&gt;" fill="currentColor" d="m17.9 25.5h-17.7v3.7h6.9v16.6h3.9v-16.6h6.9z"/>
			<path id="&lt;Compound Path&gt;" fill-rule="evenodd" fill="currentColor" d="m55.3 25.5h3.9v20.3h-3.9v-0.9q-0.5 0.4-1 0.7-1.1 0.7-2.5 0.7-1.8 0-3.2-0.9-1.5-0.8-2.3-2.3-0.9-1.5-0.9-3.3v-3q0-2 0.8-3.5 0.8-1.5 2.2-2.3 1.4-0.8 3.2-0.8 1.9 0 3 0.8 0.4 0.3 0.7 0.6zm0 14.8v-4.1q0-0.7-0.4-1.3-0.4-0.7-1-1-0.7-0.4-1.5-0.4-0.9 0-1.6 0.4-0.6 0.3-1 0.9-0.4 0.6-0.4 1.4v4.1q0 0.7 0.3 1.3 0.4 0.6 1.1 0.9 0.6 0.3 1.4 0.3 0.9 0 1.6-0.3 0.7-0.4 1.1-0.9 0.4-0.6 0.4-1.3z"/>
			<path id="&lt;Path&gt;" fill="currentColor" d="m67.9 30.6h-5.6v3.4h2.9v11.8h4v-13.9q0-0.5-0.4-0.9-0.4-0.4-0.9-0.4z"/>
			<path id="&lt;Path&gt;" fill="currentColor" d="m68.3 25.5h-2.2q-0.4 0-0.6 0.3-0.3 0.3-0.3 0.6v2.3q0 0.3 0.3 0.6 0.2 0.2 0.6 0.2h2.2q0.4 0 0.6-0.2 0.3-0.3 0.3-0.6v-2.3q0-0.4-0.3-0.6-0.2-0.3-0.6-0.3z"/>
			<path id="&lt;Path&gt;" fill="currentColor" d="m83.9 31q-1.2-0.8-3-0.8-1.9 0-3.1 0.8-0.7 0.4-1.2 1.1v-1.5h-4v15.2h4v-9.5q0-0.9 0.4-1.5 0.3-0.6 1.1-0.9 0.7-0.3 1.8-0.3 0.9 0 1.4 0.3 0.6 0.3 0.9 0.9 0.3 0.6 0.3 1.4v9.6h4v-9q-0.1-2.1-0.7-3.6-0.6-1.5-1.9-2.2z"/>
			<path id="&lt;Compound Path&gt;" fill-rule="evenodd" fill="currentColor" d="m98.9 30.6h4v15.1q0 1.9-0.7 3.1-0.7 1.3-2.1 2-1.3 0.7-3.2 0.7h-6.2v-3.4h6.3q0.8 0 1.4-0.5 0.5-0.4 0.5-1v-1.7q-0.4 0.4-0.9 0.7-1.2 0.7-2.6 0.7-1.7 0-3.2-0.9-1.4-0.8-2.3-2.3-0.8-1.5-0.8-3.3v-3q0-2 0.7-3.5 0.7-1.5 2.1-2.3 1.3-0.8 3.1-0.8 1.8 0 3 0.8 0.5 0.4 0.9 0.9zm0 9.8v-4.1q0-0.8-0.3-1.4-0.3-0.6-1-1-0.6-0.3-1.5-0.3-0.9 0-1.6 0.3-0.7 0.4-1.1 1-0.4 0.5-0.4 1.3v4.2q0 0.7 0.4 1.2 0.4 0.6 1 0.9 0.7 0.3 1.5 0.3 0.8 0 1.5-0.3 0.7-0.3 1.1-0.9 0.4-0.5 0.4-1.2z"/>
			<g id="&lt;Group&gt;">
				<path id="&lt;Compound Path&gt;" fill-rule="evenodd" fill="currentColor" d="m42.8 36.1v9.7h-3.9v-1.3q-0.5 0.6-1.2 1-1.3 0.8-3 0.8-1.7 0-2.9-0.7-1.2-0.7-1.8-1.9-0.6-1.1-0.6-2.4 0-2.4 1.7-3.7 1.6-1.3 4.2-1.3h3.6v-1.1q0-0.6-0.4-0.9-0.5-0.3-1.3-0.3h-5.5l1.4-2.5c0.3-0.5 1-0.9 1.6-0.9h2.4q1.8 0 3.1 0.6 1.3 0.7 2 1.9 0.6 1.2 0.6 3zm-3.9 3.2h-3.5q-1 0-1.4 0.5-0.5 0.5-0.6 1.4 0 0.6 0.2 1 0.2 0.3 0.6 0.5 0.5 0.1 1.2 0.1 1.1 0 1.9-0.3 0.8-0.3 1.2-1 0.4-0.6 0.4-1.6z"/>
				<path id="&lt;Path&gt;" fill="currentColor" d="m28.2 30.6h-0.2-1.8q-1.4 0-2.6 0.9-0.4 0.3-0.8 0.6v-1.5h-4v15.2h4v-9.6q0.1-0.5 0.4-0.9 0.5-0.6 1.2-0.9 0.9-0.4 1.7-0.4h1.9 0.2c0.7 0 1.3-0.3 1.6-0.9l1.4-2.5z"/>
			</g>
		</g>
	</g>
</svg>