<svg version="1.2" xmlns="http://www.w3.org/2000/svg" viewBox="0 0 284 28" width="284" height="28">
	<path id="&lt;Path&gt;" fill="#ffffff" d="m155.2 3075.6h-0.2-1.8q-1.4 0-2.6 0.9-0.4 0.3-0.8 0.6v-1.5h-4v15.2h4v-9.6q0.1-0.5 0.4-0.9 0.5-0.6 1.2-0.9 0.9-0.4 1.7-0.4h1.9 0.2c0.7 0 1.3-0.3 1.6-0.9l1.4-2.5z"/>
	<g id="&lt;Group&gt;">
		<g id="&lt;Group&gt;">
			<path id="&lt;Path&gt;" fill="currentColor" d="m4.7 15.9l2.9-3.3 6.6 9h5.3l-8.9-12.2 8.5-9.4h-5.3l-9.1 10.1v-10.1h-4.3v21.6h4.3z"/>
			<path id="&lt;Compound Path&gt;" fill-rule="evenodd" fill="currentColor" d="m21.2 18.8q-1-1.6-1-3.6v-3.4q0-1.9 1-3.5 0.9-1.6 2.6-2.5 1.6-0.9 3.6-0.9 2.1 0 3.7 0.9 1.6 0.9 2.6 2.5 0.9 1.6 0.9 3.5v3.4q0 2-0.9 3.6-1 1.5-2.6 2.4-1.6 0.9-3.7 0.9-2 0-3.6-0.9-1.7-0.9-2.6-2.4zm3.7-8.9q-0.4 0.6-0.4 1.3v4.6q0 0.8 0.4 1.4 0.3 0.6 1 0.9 0.7 0.4 1.5 0.4 0.9 0 1.6-0.4 0.6-0.3 1-0.9 0.4-0.6 0.4-1.4v-4.6q0-0.7-0.4-1.3-0.4-0.6-1-1-0.7-0.3-1.6-0.3-0.8 0-1.5 0.3-0.7 0.4-1 1z"/>
			<path id="&lt;Path&gt;" fill="currentColor" d="m59.2 5.8q-1.3-0.8-3.1-0.8-2.1 0-3.6 1-0.9 0.6-1.5 1.5-0.7-1.2-1.8-1.8-1.2-0.7-3-0.7-2 0-3.3 0.8-0.8 0.5-1.3 1.1v-1.5h-4.2v16.2h4.2v-10.1q0-0.9 0.4-1.6 0.4-0.6 1.1-0.9 0.8-0.4 1.9-0.4 1.2 0 1.9 0.7 0.7 0.6 0.7 1.9v10.4h4.2v-10.1q0-0.9 0.4-1.6 0.3-0.6 1.1-0.9 0.7-0.4 1.8-0.4 1.3 0 1.9 0.7 0.7 0.6 0.7 1.9v10.4h4.2v-9.8q0-2.2-0.7-3.7-0.7-1.5-2-2.3z"/>
			<path id="&lt;Path&gt;" fill="currentColor" d="m79.1 21.6v-10.1q0-0.9 0.4-1.6 0.3-0.6 1.1-0.9 0.7-0.4 1.8-0.4 1.3 0 2 0.7 0.6 0.6 0.6 1.9v10.4h4.3v-9.8q0-2.2-0.7-3.7-0.8-1.5-2.1-2.3-1.3-0.8-3.1-0.8-2.1 0-3.5 1-1 0.6-1.6 1.5-0.7-1.2-1.7-1.8-1.3-0.7-3.1-0.7-2 0-3.3 0.8-0.7 0.5-1.2 1.1v-1.5h-4.3v16.2h4.3v-10.1q0-0.9 0.3-1.6 0.4-0.6 1.2-0.9 0.7-0.4 1.8-0.4 1.3 0 1.9 0.7 0.7 0.6 0.7 1.9v10.4z"/>
			<path id="&lt;Compound Path&gt;" fill-rule="evenodd" fill="currentColor" d="m93 18.8q-1-1.6-1-3.6v-3.4q0-1.9 1-3.5 0.9-1.6 2.6-2.5 1.6-0.9 3.6-0.9 2.1 0 3.7 0.9 1.6 0.9 2.6 2.5 0.9 1.6 0.9 3.5v3.4q0 2-0.9 3.6-1 1.5-2.6 2.4-1.6 0.9-3.7 0.9-2 0-3.6-0.9-1.7-0.9-2.6-2.4zm8.8-1.6q0.4-0.6 0.4-1.4v-4.6q0-0.7-0.4-1.3-0.4-0.6-1-1-0.7-0.3-1.6-0.3-0.8 0-1.5 0.3-0.7 0.4-1 1-0.4 0.6-0.4 1.3v4.6q0 0.8 0.4 1.4 0.3 0.6 1 0.9 0.7 0.4 1.5 0.4 0.9 0 1.6-0.4 0.6-0.3 1-0.9z"/>
			<path id="&lt;Compound Path&gt;" fill-rule="evenodd" fill="currentColor" d="m119.7 0h4.2v21.6h-4.2v-1q-0.5 0.5-1 0.8-1.2 0.7-2.7 0.7-1.9 0-3.4-0.9-1.6-0.9-2.5-2.5-0.9-1.5-0.9-3.5v-3.2q0-2.1 0.8-3.7 0.9-1.6 2.4-2.5 1.5-0.8 3.4-0.8 2.1 0 3.2 0.8 0.4 0.3 0.7 0.7zm0 15.8v-4.4q0-0.8-0.4-1.4-0.4-0.7-1.1-1.1-0.7-0.4-1.6-0.4-0.9 0-1.6 0.4-0.7 0.4-1.2 1-0.4 0.7-0.4 1.4v4.5q0 0.7 0.4 1.3 0.4 0.6 1.1 1 0.7 0.3 1.6 0.3 0.9 0 1.7-0.3 0.7-0.4 1.1-1 0.4-0.6 0.4-1.3z"/>
			<path id="&lt;Path&gt;" fill="currentColor" d="m133.1 5.4h-5.9v3.7h3.1v12.5h4.2v-14.7q0-0.7-0.4-1.1-0.4-0.4-1-0.4z"/>
			<path id="&lt;Path&gt;" fill="currentColor" d="m133.6 0h-2.4q-0.4 0-0.6 0.3-0.3 0.3-0.3 0.7v2.4q0 0.3 0.3 0.6 0.2 0.3 0.6 0.3h2.4q0.4 0 0.6-0.3 0.3-0.3 0.3-0.6v-2.4q0-0.4-0.3-0.7-0.2-0.3-0.6-0.3z"/>
			<path id="&lt;Path&gt;" fill="currentColor" d="m145.6 17.6q-0.5-0.3-0.5-0.9v-7.6h3.8v-3.7h-3.8v-3.6h-4.2v3.6h-2.8v3.7h2.8v6.7q0 1.9 0.7 3.2 0.7 1.3 2.1 2 1.4 0.6 3.3 0.6h2.2v-3.6h-2.3q-0.8 0-1.3-0.4z"/>
			<path id="&lt;Path&gt;" fill="currentColor" d="m162.1 5.4v10q0 0.8-0.4 1.4-0.4 0.7-1.1 1.1-0.7 0.4-1.6 0.4-1.3 0-2.2-0.7-0.9-0.7-0.9-1.9v-10.3h-4.2v9.7q0 1.9 0.8 3.5 0.8 1.6 2.2 2.5 1.5 0.8 3.2 0.8 1.4 0 2.7-0.7 0.9-0.5 1.5-1.3v2.5q0 0.5-0.2 0.8-0.3 0.4-0.8 0.6-0.5 0.2-1.1 0.2h-6.9v3.6h6.9q2 0 3.4-0.7 1.4-0.7 2.2-2.1 0.7-1.3 0.7-3.3v-16.1z"/>
		</g>
		<g id="&lt;Group&gt;">
			<path id="&lt;Path&gt;" fill="currentColor" d="m193.4 0h-18.7v4h7.2v17.6h4.2v-17.6h7.3z"/>
			<path id="&lt;Compound Path&gt;" fill-rule="evenodd" fill="currentColor" d="m233.2 0h4.2v21.6h-4.2v-1q-0.4 0.5-1 0.8-1.2 0.7-2.7 0.7-1.8 0-3.4-0.9-1.6-0.9-2.5-2.5-0.9-1.5-0.9-3.5v-3.2q0-2.1 0.9-3.7 0.8-1.6 2.3-2.5 1.5-0.8 3.4-0.8 2.1 0 3.2 0.8 0.4 0.3 0.7 0.7zm0 15.8v-4.4q0-0.8-0.4-1.4-0.4-0.7-1.1-1.1-0.7-0.4-1.5-0.4-0.9 0-1.7 0.4-0.7 0.4-1.1 1-0.4 0.7-0.4 1.4v4.5q0 0.7 0.3 1.3 0.4 0.6 1.1 1 0.7 0.3 1.6 0.3 0.9 0 1.7-0.3 0.7-0.4 1.1-1 0.4-0.6 0.4-1.3z"/>
			<path id="&lt;Path&gt;" fill="currentColor" d="m246.6 5.4h-5.9v3.7h3.1v12.5h4.2v-14.7q0-0.7-0.4-1.1-0.4-0.4-1-0.4z"/>
			<path id="&lt;Path&gt;" fill="currentColor" d="m247.1 0h-2.4q-0.3 0-0.6 0.3-0.3 0.3-0.3 0.7v2.4q0 0.3 0.3 0.6 0.3 0.3 0.6 0.3h2.4q0.4 0 0.7-0.3 0.2-0.3 0.2-0.6v-2.4q0-0.4-0.2-0.7-0.3-0.3-0.7-0.3z"/>
			<path id="&lt;Path&gt;" fill="currentColor" d="m263.7 5.8q-1.3-0.8-3.2-0.8-2 0-3.3 0.8-0.8 0.5-1.3 1.2v-1.6h-4.2v16.2h4.2v-10.1q0-0.9 0.4-1.6 0.4-0.6 1.2-0.9 0.8-0.4 2-0.4 0.8 0 1.5 0.3 0.6 0.4 0.9 1 0.3 0.6 0.3 1.5v10.2h4.2v-9.6q0-2.2-0.7-3.8-0.6-1.6-2-2.4z"/>
			<path id="&lt;Compound Path&gt;" fill-rule="evenodd" fill="currentColor" d="m279.7 5.4h4.2v16.1q0 2-0.7 3.3-0.8 1.4-2.2 2.1-1.5 0.7-3.5 0.7h-6.6v-3.6h6.7q0.9 0 1.5-0.5 0.6-0.4 0.6-1.1v-1.8q-0.5 0.5-1 0.8-1.3 0.7-2.8 0.7-1.8 0-3.3-0.9-1.6-0.9-2.5-2.5-0.9-1.5-0.9-3.5v-3.2q0-2.1 0.8-3.7 0.8-1.6 2.2-2.5 1.4-0.8 3.3-0.8 2 0 3.2 0.9 0.5 0.4 1 0.9zm0 10.4v-4.3q0-0.8-0.4-1.5-0.3-0.6-1-1-0.7-0.4-1.7-0.4-0.9 0-1.6 0.3-0.8 0.4-1.2 1-0.4 0.7-0.4 1.5v4.4q0 0.7 0.4 1.3 0.4 0.6 1.1 1 0.7 0.3 1.6 0.3 0.9 0 1.6-0.3 0.7-0.4 1.2-1 0.4-0.6 0.4-1.3z"/>
			<g id="&lt;Group&gt;">
				<path id="&lt;Compound Path&gt;" fill-rule="evenodd" fill="currentColor" d="m220 11.2v10.4h-4.2v-1.4q-0.6 0.6-1.3 1.1-1.3 0.8-3.2 0.8-1.8 0-3.1-0.7-1.3-0.8-1.9-2-0.6-1.2-0.6-2.6 0-2.5 1.8-3.9 1.7-1.4 4.4-1.4h3.9v-1.2q0-0.6-0.5-0.9-0.4-0.3-1.3-0.3h-5.8l1.4-2.7c0.4-0.6 1.1-1 1.8-1h2.5q1.9 0 3.3 0.7 1.4 0.7 2.1 2 0.7 1.3 0.7 3.1zm-4.2 3.5h-3.8q-0.9 0-1.5 0.5-0.5 0.6-0.5 1.6 0 0.6 0.2 0.9 0.2 0.4 0.7 0.6 0.4 0.2 1.1 0.2 1.3 0 2.1-0.4 0.9-0.4 1.3-1.1 0.4-0.6 0.4-1.7z"/>
				<path id="&lt;Path&gt;" fill="currentColor" d="m204.4 5.4h-0.2-1.9q-1.5 0-2.8 0.9-0.4 0.4-0.8 0.7v-1.6h-4.2v16.2h4.2v-10.2q0.1-0.5 0.4-1 0.5-0.6 1.3-1c0.6-0.2 1.2-0.3 1.8-0.3h2 0.2c0.7 0 1.4-0.4 1.7-1l1.5-2.7z"/>
			</g>
		</g>
	</g>
</svg>