<svg version="1.2" xmlns="http://www.w3.org/2000/svg" viewBox="0 0 19 19" width="19" height="19">
	<path id="icon 00000174592035238044028850000011500451890854859906" fill-rule="evenodd" fill="currentColor" d="m18.5 3.3v13.3c0 1.4-1.1 2.5-2.5 2.5h-13.3c-1.4 0-2.5-1.1-2.5-2.5v-13.3c0-1.3 1.1-2.5 2.5-2.5h13.3c1.4 0 2.5 1.2 2.5 2.5zm-12.1 5.1c0-0.2-0.1-0.4-0.3-0.4h-1.7c-0.2 0-0.4 0.2-0.4 0.4v6.9q0 0 0 0c0 0.2 0.2 0.4 0.4 0.4h1.7q0 0 0 0c0.2 0 0.3-0.2 0.3-0.4zm0.4-2.6c0-0.9-0.7-1.6-1.6-1.6-0.8 0-1.5 0.7-1.5 1.6 0 0.9 0.7 1.6 1.5 1.6 0.9 0 1.6-0.7 1.6-1.6zm8.2 6.2c0-1.5 0-4.1-2.8-4.1-1.3 0-1.9 0.5-2.3 1.1v-0.6c0-0.2-0.1-0.4-0.3-0.4h-1.7q0 0 0 0c-0.2 0-0.4 0.2-0.4 0.4v6.9q0 0 0 0c0 0.2 0.2 0.4 0.4 0.4h1.7c0.2 0 0.3-0.2 0.3-0.4v-3.7c0.1-0.5 0.3-1.6 1.4-1.6 1.4 0 1.2 1.6 1.2 2.1v3.2q0 0 0 0c0 0.2 0.2 0.4 0.4 0.4h1.8q0 0 0 0c0.2 0 0.3-0.2 0.3-0.4z"/>
</svg>