<svg version="1.2" xmlns="http://www.w3.org/2000/svg" viewBox="0 0 48 48" width="48" height="48">
	<g id="&lt;Group&gt;">
		<path id="&lt;Path&gt;" fill="none" stroke="#000000" stroke-miterlimit="10" stroke-width="1.3" d="m24.1 46.9c-12.8 0-23.1-10.3-23.1-23.1 0-12.8 10.3-23.2 23.1-23.2 12.8 0 23.2 10.4 23.2 23.2 0 12.8-10.4 23.1-23.2 23.1z"/>
		<g id="&lt;Group&gt;">
			<path id="&lt;Path&gt;" fill="none" stroke="#000000" stroke-miterlimit="10" stroke-width="1.3" d="m24.1 15.2c-6.3 0-11.8 3.5-14.8 8.6 3 5.1 8.5 8.5 14.8 8.5 6.4 0 11.9-3.4 14.9-8.5-3-5.1-8.5-8.6-14.9-8.6z"/>
			<path id="&lt;Path&gt;" fill="none" stroke="#000000" stroke-miterlimit="10" stroke-width="1.3" d="m24.1 29.1c-2.9 0-5.2-2.4-5.2-5.3 0-3 2.3-5.3 5.2-5.3 3 0 5.3 2.3 5.3 5.3 0 2.9-2.3 5.3-5.3 5.3z"/>
		</g>
	</g>
</svg>