<svg width="338" height="317" viewBox="0 0 338 317" fill="none" xmlns="http://www.w3.org/2000/svg">
<path d="M261.932 251.737C414.401 180.269 291.694 -47.4651 142.711 33.5661C-59.9906 146.541 78.8095 354.934 271.14 246.51" fill="#FFE0B2"/>
<path d="M121.125 56.5711C121.125 66.4052 125.032 75.8365 131.985 82.7902C138.939 89.7439 148.37 93.6505 158.204 93.6505C168.038 93.6505 177.47 89.7439 184.423 82.7902C191.377 75.8365 195.284 66.4052 195.284 56.5711C195.284 46.737 191.377 37.3057 184.423 30.352C177.47 23.3983 168.038 19.4917 158.204 19.4917C148.37 19.4917 138.939 23.3983 131.985 30.352C125.032 37.3057 121.125 46.737 121.125 56.5711Z" stroke="#8C31F9" stroke-width="8" stroke-linecap="round" stroke-linejoin="round"/>
<path d="M204.554 186.349V158.539C204.554 146.247 199.671 134.458 190.979 125.766C182.286 117.073 170.497 112.19 158.205 112.19C145.912 112.19 134.123 117.073 125.431 125.766C116.739 134.458 111.855 146.247 111.855 158.539V186.349H130.395L139.665 260.508H176.744L186.014 186.349H204.554Z" stroke="#8C31F9" stroke-width="8" stroke-linecap="round" stroke-linejoin="round"/>
<path d="M37.6963 84.3806C37.6963 91.7561 40.6262 98.8296 45.8415 104.045C51.0568 109.26 58.1303 112.19 65.5058 112.19C72.8814 112.19 79.9549 109.26 85.1702 104.045C90.3855 98.8296 93.3154 91.7561 93.3154 84.3806C93.3154 77.005 90.3855 69.9316 85.1702 64.7163C79.9549 59.501 72.8814 56.571 65.5058 56.571C58.1303 56.571 51.0568 59.501 45.8415 64.7163C40.6262 69.9316 37.6963 77.005 37.6963 84.3806Z" stroke="#8C31F9" stroke-width="8" stroke-linecap="round" stroke-linejoin="round"/>
<path d="M80.3382 133.165C73.3654 130.819 65.9344 130.165 58.6589 131.257C51.3833 132.348 44.4718 135.155 38.495 139.445C32.5182 143.735 27.6475 149.386 24.2851 155.929C20.9227 162.473 19.1651 169.723 19.1572 177.08V186.35H37.6969L46.9668 241.969H84.0462L88.6935 214.085" stroke="#8C31F9" stroke-width="8" stroke-linecap="round" stroke-linejoin="round"/>
<path d="M223.094 84.3806C223.094 91.7561 226.024 98.8296 231.239 104.045C236.454 109.26 243.528 112.19 250.903 112.19C258.279 112.19 265.352 109.26 270.568 104.045C275.783 98.8296 278.713 91.7561 278.713 84.3806C278.713 77.005 275.783 69.9316 270.568 64.7163C265.352 59.501 258.279 56.571 250.903 56.571C243.528 56.571 236.454 59.501 231.239 64.7163C226.024 69.9316 223.094 77.005 223.094 84.3806Z" stroke="#8C31F9" stroke-width="8" stroke-linecap="round" stroke-linejoin="round"/>
<path d="M236.072 133.165C243.045 130.819 250.476 130.165 257.751 131.257C265.027 132.348 271.939 135.155 277.915 139.445C283.892 143.735 288.763 149.386 292.125 155.929C295.488 162.473 297.245 169.723 297.253 177.08V186.35H278.713L269.443 241.969H232.364L227.717 214.085" stroke="#8C31F9" stroke-width="8" stroke-linecap="round" stroke-linejoin="round"/>
<path d="M297.253 269.778C297.253 285.141 234.996 297.587 158.205 297.587C81.4135 297.587 19.1572 285.141 19.1572 269.778" stroke="#8C31F9" stroke-width="8" stroke-linecap="round" stroke-linejoin="round"/>
</svg>
