<svg width="68" height="68" viewBox="0 0 68 68" fill="none" xmlns="http://www.w3.org/2000/svg">
<path d="M63.5593 58.6538C63.411 61.095 61.8226 62.9857 59.3975 63.3022C57.5253 63.5466 54.8197 63.75 51 63.75C47.1804 63.75 44.4747 63.5466 42.6026 63.3022C40.1774 62.9857 38.589 61.095 38.4407 58.6538C38.3346 56.9078 38.25 54.4376 38.25 51C38.25 47.5623 38.3346 45.0922 38.4407 43.3462C38.589 40.905 40.1774 39.0143 42.6026 38.6978C44.4747 38.4534 47.1804 38.25 51 38.25C54.8197 38.25 57.5253 38.4534 59.3975 38.6978C61.8226 39.0143 63.4111 40.905 63.5593 43.3462C63.6654 45.0922 63.75 47.5623 63.75 51C63.75 54.4376 63.6654 56.9078 63.5593 58.6538Z" stroke="#FF8620" stroke-width="3" stroke-linejoin="round"/>
<path d="M63.5593 9.34618C63.4111 6.90498 61.8226 5.01429 59.3975 4.69781C57.5253 4.45344 54.8197 4.25 51 4.25C47.1804 4.25 44.4747 4.45343 42.6026 4.69781C40.1774 5.01429 38.589 6.90498 38.4407 9.34618C38.3346 11.0922 38.25 13.5623 38.25 17C38.25 20.4377 38.3346 22.9078 38.4407 24.6538C38.589 27.095 40.1774 28.9857 42.6026 29.3022C44.4747 29.5466 47.1804 29.75 51 29.75C54.8197 29.75 57.5253 29.5466 59.3975 29.3022C61.8226 28.9857 63.411 27.095 63.5593 24.6538C63.6654 22.9078 63.75 20.4377 63.75 17C63.75 13.5623 63.6654 11.0922 63.5593 9.34618Z" stroke="#FF8620" stroke-width="3" stroke-linejoin="round"/>
<path d="M9.34618 63.5593C6.90498 63.411 5.01429 61.8226 4.69781 59.3974C4.45344 57.5253 4.25 54.8197 4.25 51C4.25 47.1804 4.45344 44.4747 4.69781 42.6026C5.0143 40.1774 6.90498 38.589 9.34618 38.4407C11.0922 38.3346 13.5623 38.25 17 38.25C20.4377 38.25 22.9078 38.3346 24.6538 38.4407C27.095 38.589 28.9857 40.1774 29.3022 42.6026C29.5466 44.4747 29.75 47.1804 29.75 51C29.75 54.8197 29.5466 57.5253 29.3022 59.3975C28.9857 61.8226 27.095 63.411 24.6538 63.5593C22.9078 63.6654 20.4377 63.75 17 63.75C13.5623 63.75 11.0922 63.6654 9.34618 63.5593Z" stroke="#FF8620" stroke-width="3" stroke-linejoin="round"/>
<circle cx="16.75" cy="16.75" r="12.75" stroke="#FF8620" stroke-width="3" stroke-linejoin="round"/>
</svg>
