<svg width="49" height="48" viewBox="0 0 49 48" fill="none" xmlns="http://www.w3.org/2000/svg">
<path d="M45.3654 41.4027C45.2607 43.1259 44.1395 44.4605 42.4276 44.6839C41.1061 44.8564 39.1962 45 36.5 45C33.8038 45 31.8939 44.8564 30.5724 44.6839C28.8605 44.4605 27.7393 43.1259 27.6346 41.4027C27.5597 40.1702 27.5 38.4265 27.5 36C27.5 33.5734 27.5597 31.8298 27.6346 30.5973C27.7393 28.8741 28.8605 27.5395 30.5724 27.3161C31.8939 27.1436 33.8038 27 36.5 27C39.1962 27 41.1061 27.1436 42.4276 27.3161C44.1395 27.5395 45.2607 28.8741 45.3654 30.5973C45.4403 31.8298 45.5 33.5734 45.5 36C45.5 38.4265 45.4403 40.1702 45.3654 41.4027Z" stroke="#FF8620" stroke-width="3" stroke-linejoin="round"/>
<path d="M45.3654 6.5973C45.2607 4.8741 44.1395 3.5395 42.4276 3.3161C41.1061 3.1436 39.1962 3 36.5 3C33.8038 3 31.8939 3.1436 30.5724 3.3161C28.8605 3.5395 27.7393 4.8741 27.6346 6.5973C27.5597 7.8298 27.5 9.5734 27.5 12C27.5 14.4266 27.5597 16.1702 27.6346 17.4027C27.7393 19.1259 28.8605 20.4605 30.5724 20.6839C31.8939 20.8564 33.8038 21 36.5 21C39.1962 21 41.1061 20.8564 42.4276 20.6839C44.1395 20.4605 45.2607 19.1259 45.3654 17.4027C45.4403 16.1702 45.5 14.4266 45.5 12C45.5 9.5734 45.4403 7.8298 45.3654 6.5973Z" stroke="#FF8620" stroke-width="3" stroke-linejoin="round"/>
<path d="M7.0973 44.8654C5.3741 44.7607 4.0395 43.6395 3.8161 41.9276C3.6436 40.6061 3.5 38.6962 3.5 36C3.5 33.3038 3.6436 31.3939 3.8161 30.0724C4.0395 28.3605 5.3741 27.2393 7.0973 27.1346C8.3298 27.0597 10.0734 27 12.5 27C14.9266 27 16.6702 27.0597 17.9027 27.1346C19.6259 27.2393 20.9605 28.3605 21.1839 30.0724C21.3564 31.3939 21.5 33.3038 21.5 36C21.5 38.6962 21.3564 40.6061 21.1839 41.9276C20.9605 43.6395 19.6259 44.7607 17.9027 44.8654C16.6702 44.9403 14.9266 45 12.5 45C10.0734 45 8.3298 44.9403 7.0973 44.8654Z" stroke="#FF8620" stroke-width="3" stroke-linejoin="round"/>
<circle cx="12.3232" cy="11.8235" r="9" stroke="#FF8620" stroke-width="3" stroke-linejoin="round"/>
</svg>
