<svg width="22" height="22" viewBox="0 0 22 22" fill="none" xmlns="http://www.w3.org/2000/svg">
<path d="M17.417 10.0831H7.17788L11.6512 5.60978C12.0087 5.25228 12.0087 4.66561 11.6512 4.30811C11.5664 4.22313 11.4657 4.15572 11.3548 4.10972C11.2439 4.06372 11.125 4.04004 11.005 4.04004C10.8849 4.04004 10.766 4.06372 10.6551 4.10972C10.5442 4.15572 10.4435 4.22313 10.3587 4.30811L4.31788 10.3489C4.2329 10.4337 4.16548 10.5345 4.11948 10.6454C4.07348 10.7563 4.0498 10.8751 4.0498 10.9952C4.0498 11.1153 4.07348 11.2341 4.11948 11.345C4.16548 11.4559 4.2329 11.5566 4.31788 11.6414L10.3587 17.6823C10.4436 17.7671 10.5443 17.8345 10.6552 17.8804C10.7661 17.9263 10.8849 17.95 11.005 17.95C11.125 17.95 11.2438 17.9263 11.3547 17.8804C11.4656 17.8345 11.5663 17.7671 11.6512 17.6823C11.7361 17.5974 11.8034 17.4967 11.8493 17.3858C11.8953 17.2749 11.9189 17.156 11.9189 17.036C11.9189 16.916 11.8953 16.7972 11.8493 16.6863C11.8034 16.5754 11.7361 16.4746 11.6512 16.3898L7.17788 11.9164H17.417C17.9212 11.9164 18.3337 11.5039 18.3337 10.9998C18.3337 10.4956 17.9212 10.0831 17.417 10.0831Z" fill="#8C31F9"/>
</svg>
