<svg width="69" height="68" viewBox="0 0 69 68" fill="none" xmlns="http://www.w3.org/2000/svg">
<path d="M34.3333 22.0371C34.3333 19.1983 33.1393 16.4757 31.0139 14.4684C28.8885 12.4611 26.0058 11.3334 23 11.3334H12C9.17157 11.3334 7.75736 11.3334 6.87868 12.2121C6 13.0907 6 14.5049 6 17.3334V45.4723C6 48.3007 6 49.7149 6.87868 50.5936C7.75736 51.4723 9.17157 51.4723 12 51.4723H25.8333C28.0877 51.4723 30.2497 52.318 31.8437 53.8235C33.4378 55.329 34.3333 57.3709 34.3333 59.5M34.3333 22.0371V59.5M34.3333 22.0371C34.3333 19.1983 35.5274 16.4757 37.6528 14.4684C39.7782 12.4611 42.6609 11.3334 45.6667 11.3334H56.6667C59.4951 11.3334 60.9093 11.3334 61.788 12.2121C62.6667 13.0907 62.6667 14.5049 62.6667 17.3334V45.4723C62.6667 48.3007 62.6667 49.7149 61.788 50.5936C60.9093 51.4723 59.4951 51.4723 56.6667 51.4723H42.8333C40.579 51.4723 38.417 52.318 36.8229 53.8235C35.2289 55.329 34.3333 57.3709 34.3333 59.5" stroke="#FF8620" stroke-width="3" stroke-linecap="round" stroke-linejoin="round"/>
</svg>
