<svg width="48" height="48" viewBox="0 0 48 48" fill="none" xmlns="http://www.w3.org/2000/svg">
<path d="M3.68844 36.2781C3.85124 37.4419 4.60022 38.409 5.66032 38.9161C9.47422 40.7405 18.9223 45 24 45C29.0777 45 38.5258 40.7405 42.3397 38.9161C43.3998 38.409 44.1488 37.4419 44.3116 36.2781C44.605 34.18 45 30.204 45 24C45 17.796 44.605 13.82 44.3116 11.7219C44.1488 10.5581 43.3998 9.591 42.3397 9.08389C38.5258 7.25947 29.0777 3 24 3C18.9223 3 9.47422 7.25947 5.66032 9.08389C4.60022 9.591 3.85124 10.5581 3.68844 11.7219C3.39495 13.82 3 17.796 3 24C3 30.204 3.39495 34.18 3.68844 36.2781Z" stroke="#FF8620" stroke-width="3" stroke-linejoin="round"/>
<path d="M44.2813 11.7559C41.0329 13.3553 27.7136 19.7999 23.9995 19.7999C20.2855 19.7999 6.96611 13.3553 3.71777 11.7559" stroke="#FF8620" stroke-width="3" stroke-linecap="round" stroke-linejoin="round"/>
<path d="M24 19.7998V44.75" stroke="#FF8620" stroke-width="3" stroke-linecap="round" stroke-linejoin="round"/>
</svg>
