<svg width="148" height="33" viewBox="0 0 148 33" fill="none" xmlns="http://www.w3.org/2000/svg">
<g clip-path="url(#clip0_561_13465)">
<path d="M36.1373 12.8247C36.1373 16.3792 34.1462 17.9419 30.2637 18.0645C25.9829 18.2177 25.8171 18.8612 25.8171 12.8554C25.8171 7.15601 25.7839 7.86078 29.7659 7.86078C34.2458 7.86078 36.1373 9.66864 36.1373 12.8247ZM42.9731 12.8554C42.9399 6.8496 38.5265 3.75477 30.33 3.75477H14.2359C6.1722 3.81606 0 9.82186 0 16.0421C0.0331839 20.8529 2.92018 23.8252 8.49504 23.8252C12.9085 23.8252 15.6627 21.5271 15.5964 18.4935C15.5964 16.2566 14.2027 14.8165 12.5435 14.8165C10.6852 14.8165 9.88881 16.1034 9.5238 17.2371C9.25828 18.8612 8.72733 19.5966 7.33363 19.5966C5.74081 19.5966 4.81166 18.4322 4.81166 16.226C4.81166 11.7523 7.93094 7.89142 14.2359 7.9527C19.0475 7.9527 19.0807 7.83014 19.1139 9.63799V25.4492C19.1139 27.5022 18.9812 27.6247 17.0233 28.0231C15.165 28.2989 14.5677 28.4827 14.5677 29.9842C14.5677 31.5775 15.1982 31.5163 22.1668 31.5163C29.8987 31.5163 30.4296 31.6388 30.4296 29.8003C30.4296 28.5747 30.0314 28.3602 27.9077 28.0844C25.5848 27.7473 25.8171 27.7473 25.8171 23.7026C25.8171 21.4045 25.3856 21.6802 30.1309 21.7108C39.0574 21.7721 43.0063 18.6467 42.9731 12.8554ZM56.4457 23.9477C56.4457 26.1233 54.9856 27.8086 52.6627 27.8086C51.0036 27.8086 50.0744 27.0119 50.0744 25.4186C50.0744 23.6413 51.5346 22.5382 54.1892 22.5382C55.6825 22.5076 56.4457 22.5076 56.4457 23.9477ZM65.9031 28.0844C65.9031 27.1038 65.8036 26.5829 65.0071 26.5829H64.8744C64.3767 26.5829 64.2108 26.7975 63.5802 26.7668C62.8834 26.7668 62.3525 26.3378 62.3525 25.3879C62.3525 24.2542 62.7839 20.2095 62.7839 17.4517C62.8171 13.0086 60.0627 10.7411 54.1229 10.7411C50.904 10.7411 48.2494 11.354 46.3246 12.6103C44.8977 13.4989 43.869 14.7552 43.869 16.3179C43.869 18.1871 45.3623 18.9838 47.287 18.9838C48.9794 18.9838 49.7426 18.1871 50.1077 16.8695C50.539 15.3374 51.3023 14.8778 52.8287 14.8778C55.3506 14.8778 56.4789 15.9808 56.5452 18.3097C56.5452 20.0869 56.3462 20.3014 55.7157 20.3014C54.9525 20.3014 54.0897 19.9336 51.269 19.9336C46.391 19.9336 43.67 22.4156 43.67 26.2152C43.67 29.4939 45.5283 32.1904 50.4394 32.1904C52.8287 32.1904 54.1892 31.3937 55.052 30.5051C55.7821 29.6471 55.9479 28.973 56.5452 28.973C57.1094 28.973 57.0762 29.6471 57.8394 30.5664C58.7354 31.6695 59.6977 32.1291 61.1579 32.1291C64.1444 32.0984 65.9031 29.6165 65.9031 28.0844ZM91.3884 3.50964C91.3884 1.70177 89.9285 0.108398 86.7095 0.108398C80.8691 0.108398 77.2188 5.83842 75.9246 11.6604C75.626 12.886 75.5928 13.5908 75.1946 13.5908C74.7632 13.5908 74.73 13.2844 74.6637 12.3038C74.4646 10.8024 73.8673 10.3121 72.9381 10.3121C71.7435 10.3121 70.0843 10.833 68.6906 11.691C67.2637 12.4877 66.069 13.2231 66.069 14.2343C66.069 15.3067 67.3964 15.0616 69.1883 15.2149C70.2502 15.3374 70.3498 15.5825 70.3498 16.5018C70.3498 18.3403 70.3166 23.0285 70.2502 25.1121C70.2171 27.3184 70.3166 27.5022 68.6242 27.9925C67.1309 28.4214 66.6996 28.5747 66.6996 29.5858C66.6996 31.8227 67.4627 31.5163 73.635 31.5163C80.8024 31.5163 81.1675 31.7921 81.1675 29.3407C81.1675 28.4214 80.7694 28.3602 78.9775 27.9618C76.887 27.4409 76.9202 27.4409 76.9202 25.1428V21.7721C76.9202 15.0923 79.7076 6.02227 85.3156 6.02227C86.3773 6.02227 86.942 6.42061 87.904 6.42061C90.2937 6.45126 91.3554 5.13366 91.3884 3.50964ZM96.5982 18.6467C96.5982 19.6273 96.167 19.4127 91.0232 19.4127C88.4348 19.4127 88.0367 19.6273 88.0037 19.0451C87.871 16.4405 89.6631 14.7245 91.986 14.7245C94.6074 14.6939 96.5982 16.5937 96.5982 18.6467ZM102.903 19.7804C102.903 14.1117 99.0538 10.6186 92.948 10.6186C85.581 10.6186 81.7322 15.9808 81.7322 21.8028C81.7322 27.8086 86.2446 32.1597 92.915 32.1597C97.4612 32.1597 100.979 30.2906 101.775 27.3797C102.073 26.3991 101.974 25.3879 101.111 25.3879C100.68 25.3879 100.215 25.6943 99.6515 25.9395C98.6227 26.4297 97.162 26.9813 94.6074 26.9813C90.7908 26.9813 87.9707 25.296 87.9369 23.4575C87.904 22.8447 88.1034 22.6608 88.767 22.6608H99.1865C102.273 22.6914 102.903 22.2931 102.903 19.7804ZM129.185 28.0844C127.592 27.5941 127.625 27.4103 127.559 25.2041V24.3461C127.559 21.5271 127.825 19.5047 127.825 17.0534C127.825 13.3456 124.904 10.8637 120.425 10.8637C117.736 10.8637 116.077 11.8749 115.148 12.886C114.053 14.1117 114.053 14.6939 113.489 14.6939C112.925 14.6939 113.123 13.8973 113.123 13.1312C113.123 11.8442 112.095 11.0169 110.237 11.0169C109.009 11.0169 107.748 11.5071 106.52 12.3038C104.894 13.3456 104.231 14.2649 104.231 15.1229C104.231 16.4405 105.127 16.7163 106.587 16.7163C107.814 16.7469 108.146 16.8695 108.146 18.0032V24.5912V25.2653C108.146 27.9312 107.681 27.6554 106.122 28.1456C104.794 28.5747 104.396 28.636 104.396 29.6471C104.396 30.3825 104.429 30.9647 104.927 31.2405C105.69 31.6388 107.25 31.6082 112.394 31.5775C115.413 31.5775 116.575 31.5775 116.575 29.402C116.575 28.4827 116.21 28.5134 115.248 28.115C114.119 27.5941 114.119 27.5941 114.119 25.296V24.8364V21.4964C114.119 18.5547 115.347 15.8583 118.566 15.8583C120.69 15.8583 121.42 17.084 121.42 19.2289V25.0202C121.42 27.3184 121.42 27.5634 120.258 28.115C119.263 28.5134 118.931 28.4827 118.931 29.402C118.931 31.8227 120.092 31.5775 123.179 31.5775C129.948 31.5775 130.944 31.884 130.944 29.6471C130.977 28.5747 130.579 28.5134 129.185 28.0844ZM140.368 24.438C140.368 23.243 140.401 21.2512 140.401 19.4434C140.401 16.5018 139.804 16.5937 142.757 16.5937C146.673 16.5937 147.668 16.7163 147.735 14.9697C147.768 14.173 147.9 13.744 147.9 13.0393C147.9 11.5684 146.971 11.5991 143.919 11.5991C141.098 11.5991 140.898 11.9055 140.898 10.3734C140.898 9.0558 140.401 8.65749 139.638 8.65749C138.012 8.65749 137.182 10.1589 134.892 11.262C131.541 12.7941 130.28 12.2425 130.28 14.5714C130.28 15.9195 130.346 16.4099 132.569 16.4099C134.162 16.4099 134.229 16.2566 134.196 18.4628C134.196 21.1287 133.897 23.4268 133.897 25.5717C133.897 29.5245 136.917 32.1904 141.463 32.1904C145.478 32.1904 147.967 29.9842 148 27.6554C148 26.6749 147.668 26.3684 147.071 26.3684C146.208 26.3684 145.113 27.0425 143.288 27.0425C141.231 27.0119 140.368 25.9701 140.368 24.438Z" fill="#FF9C00"/>
</g>
<defs>
<clipPath id="clip0_561_13465">
<rect width="148" height="32.1739" fill="white" transform="translate(0 0.108398)"/>
</clipPath>
</defs>
</svg>
