<svg width="49" height="48" viewBox="0 0 49 48" fill="none" xmlns="http://www.w3.org/2000/svg">
<path d="M14.0161 33.3833C10.0489 30.2712 7.5 25.4333 7.5 20C7.5 10.6112 15.1112 3 24.5 3C33.8888 3 41.5 10.6112 41.5 20C41.5 25.4333 38.9511 30.2712 34.9839 33.3833C34.6623 34.6828 34.2991 35.9295 34.0125 36.8625C33.7059 37.8607 32.8768 38.5863 31.8383 38.6947C30.4447 38.8402 28.0956 39 24.5 39C20.9044 39 18.5553 38.8402 17.1617 38.6947C16.1232 38.5863 15.2941 37.8607 14.9875 36.8625C14.7009 35.9295 14.3377 34.6828 14.0161 33.3833Z" stroke="#FF8620" stroke-width="3" stroke-linecap="round" stroke-linejoin="round"/>
<path d="M16.9883 38.6703C17.1909 39.9803 17.4021 41.1725 17.5789 42.1141C17.8276 43.4389 18.7698 44.503 20.1026 44.7046C21.1487 44.8629 22.6019 44.9997 24.4999 44.9997C26.3049 44.9997 27.788 44.876 28.9172 44.7277C30.5015 44.5198 31.6113 43.2021 31.7834 41.6135L32.1042 38.6523" stroke="#FF8620" stroke-width="3" stroke-linecap="round" stroke-linejoin="round"/>
<path d="M34.5 19C34.5 13.4772 30.0228 9 24.5 9" stroke="#FF8620" stroke-width="3" stroke-linecap="round" stroke-linejoin="round"/>
</svg>
