<svg width="48" height="48" viewBox="0 0 48 48" fill="none" xmlns="http://www.w3.org/2000/svg">
<path d="M25.9912 6.63538C25.9616 5.78247 25.6005 5.13246 25.1266 5.07913C24.7466 5.03636 24.2217 5 23.5352 5C22.8486 5 22.3237 5.03636 21.9437 5.07913C21.4699 5.13245 21.1087 5.78247 21.0791 6.63538C21.0554 7.31934 21.0352 8.26423 21.0352 9.5C21.0352 10.7357 21.0554 11.6807 21.0791 12.3646C21.1087 13.2176 21.4699 13.8676 21.9437 13.9209C22.3237 13.9637 22.8486 14 23.5352 14C24.2217 14 24.7466 13.9637 25.1266 13.9209C25.6005 13.8676 25.9616 13.2176 25.9912 12.3646C26.015 11.6807 26.0352 10.7357 26.0352 9.5C26.0352 8.26423 26.015 7.31935 25.9912 6.63538Z" stroke="#FF8620" stroke-width="3" stroke-linecap="round" stroke-linejoin="round"/>
<path d="M29.9208 15.6354C29.8438 14.7825 28.905 14.1325 27.6729 14.0791C26.685 14.0364 25.3201 14 23.5352 14C21.7502 14 20.3853 14.0364 19.3974 14.0791C18.1654 14.1325 17.2265 14.7825 17.1495 15.6354C17.0877 16.3193 17.0352 17.2642 17.0352 18.5C17.0352 19.7357 17.0877 20.6807 17.1494 21.3646C17.2265 22.2176 18.1654 22.8676 19.3974 22.9209C20.3853 22.9637 21.7502 23 23.5352 23C25.3201 23 26.685 22.9637 27.6729 22.9209C28.905 22.8676 29.8438 22.2176 29.9208 21.3646C29.9827 20.6807 30.0352 19.7357 30.0352 18.5C30.0352 17.2642 29.9827 16.3193 29.9208 15.6354Z" stroke="#FF8620" stroke-width="3" stroke-linecap="round" stroke-linejoin="round"/>
<path d="M33.8505 26.6354C33.7261 25.7825 32.2094 25.1325 30.2192 25.0791C28.6233 25.0364 26.4186 25 23.5352 25C20.6517 25 18.447 25.0364 16.851 25.0791C14.8609 25.1325 13.3442 25.7825 13.2198 26.6354C13.12 27.3193 13.0352 28.2642 13.0352 29.5C13.0352 30.7357 13.12 31.6807 13.2198 32.3646C13.3442 33.2176 14.8609 33.8676 16.851 33.9209C18.4469 33.9637 20.6517 34 23.5352 34C26.4186 34 28.6233 33.9637 30.2192 33.9209C32.2094 33.8676 33.7261 33.2176 33.8505 32.3646C33.9503 31.6807 34.0352 30.7357 34.0352 29.5C34.0352 28.2642 33.9503 27.3193 33.8505 26.6354Z" stroke="#FF8620" stroke-width="3" stroke-linecap="round" stroke-linejoin="round"/>
<path d="M37.7801 37.6354C37.6084 36.7825 35.5139 36.1325 32.7655 36.0791C30.5617 36.0364 27.517 36 23.5352 36C19.5532 36 16.5086 36.0364 14.3047 36.0791C11.5565 36.1325 9.46196 36.7825 9.29013 37.6354C9.15232 38.3193 9.03516 39.2642 9.03516 40.5C9.03516 41.7357 9.15232 42.6807 9.29011 43.3646C9.46196 44.2176 11.5565 44.8676 14.3047 44.9209C16.5086 44.9637 19.5532 45 23.5352 45C27.517 45 30.5617 44.9637 32.7655 44.9209C35.5139 44.8676 37.6084 44.2176 37.7801 43.3646C37.918 42.6807 38.0352 41.7357 38.0352 40.5C38.0352 39.2642 37.918 38.3193 37.7801 37.6354Z" stroke="#FF8620" stroke-width="3" stroke-linecap="round" stroke-linejoin="round"/>
</svg>
