<svg width="134" height="30" viewBox="0 0 134 30" fill="none" xmlns="http://www.w3.org/2000/svg">
<path d="M0 11.0691H12.2833H19.7427V3.67676L0 11.0691Z" fill="#FF9D28"/>
<path d="M19.7422 3.67736V29.8074L29.0775 0.193359L19.7422 3.67736Z" fill="#68C5ED"/>
<path d="M19.7425 11.0703H12.2832L19.7425 29.7856V11.0703Z" fill="#044D80"/>
<path d="M0 11.0703L14.204 15.872L12.2833 11.0703H0Z" fill="#E54747"/>
<path d="M45.2473 22.9063C45.1356 23.018 44.9569 23.152 44.7113 23.3083C44.4656 23.4647 44.1306 23.6433 43.7286 23.7997C43.3266 23.956 42.8353 24.1123 42.2323 24.224C41.6516 24.3357 40.9816 24.4027 40.2223 24.4027C38.7706 24.4027 37.4976 24.157 36.4256 23.7103C35.3536 23.2413 34.4826 22.5937 33.7903 21.745C33.0979 20.8963 32.5843 19.9137 32.2716 18.7747C31.9366 17.6357 31.7803 16.3627 31.7803 15.0003C31.7803 13.638 31.9589 12.365 32.3163 11.2037C32.6736 10.0423 33.1873 9.03733 33.9019 8.18866C34.5943 7.34 35.4876 6.67 36.5373 6.201C37.5869 5.732 38.8376 5.48633 40.2669 5.48633C40.9593 5.48633 41.6069 5.55333 42.1653 5.66499C42.7236 5.79899 43.2373 5.93299 43.6616 6.11166C44.0859 6.29033 44.4433 6.469 44.7113 6.64766C45.0016 6.82633 45.2026 7.00499 45.3366 7.11666C45.4929 7.25066 45.6493 7.42933 45.7609 7.63033C45.8726 7.83133 45.9396 8.05466 45.9396 8.278C45.9396 8.63533 45.8056 8.99266 45.5376 9.34999C45.2696 9.70733 44.9793 10.0423 44.6443 10.355C44.4209 10.1317 44.1753 9.90833 43.9073 9.68499C43.6393 9.46166 43.3266 9.26066 42.9916 9.082C42.6566 8.90333 42.2769 8.76933 41.8526 8.65766C41.4283 8.546 40.9593 8.47899 40.4233 8.47899C39.5076 8.47899 38.7259 8.65766 38.1006 9.03733C37.4753 9.41699 36.9839 9.88599 36.6043 10.489C36.2246 11.092 35.9566 11.762 35.8003 12.5213C35.6439 13.2807 35.5546 14.0623 35.5546 14.8663C35.5546 15.715 35.6439 16.519 35.8003 17.3007C35.9566 18.0823 36.2469 18.7523 36.6489 19.3553C37.0509 19.9583 37.5646 20.4273 38.2123 20.7847C38.8599 21.142 39.6416 21.3207 40.6019 21.3207C41.1156 21.3207 41.5623 21.2537 41.9866 21.142C42.4109 21.008 42.7906 20.8517 43.1033 20.673C43.4383 20.4943 43.7063 20.2933 43.9519 20.1147C44.1976 19.9137 44.3986 19.735 44.5549 19.601C44.6666 19.735 44.7783 19.8913 44.9346 20.07C45.0909 20.2487 45.2249 20.4497 45.3366 20.6283C45.4706 20.8293 45.5599 21.0303 45.6716 21.2313C45.7609 21.4323 45.8056 21.611 45.8056 21.7673C45.8056 22.013 45.7609 22.1917 45.6716 22.3703C45.5823 22.5267 45.4259 22.7053 45.2473 22.9063ZM59.1833 20.8293C59.1833 22.2587 59.3843 23.3083 59.8086 23.956C59.4736 24.09 59.1833 24.1793 58.8929 24.224C58.6026 24.2687 58.3123 24.3133 57.9996 24.3133C57.3519 24.3133 56.8606 24.1793 56.5256 23.9337C56.1906 23.688 55.9673 23.3083 55.8779 22.8393C55.4759 23.2637 54.9623 23.621 54.2923 23.9113C53.6446 24.2017 52.8406 24.3357 51.9026 24.3357C51.4113 24.3357 50.9199 24.2687 50.4286 24.1347C49.9373 24.0007 49.4906 23.7773 49.0886 23.4647C48.6866 23.152 48.3739 22.75 48.1059 22.2363C47.8603 21.7227 47.7263 21.0973 47.7263 20.3603C47.7263 19.4447 47.9496 18.6853 48.3963 18.1047C48.8429 17.524 49.4013 17.0773 50.0713 16.7423C50.7413 16.4073 51.4783 16.184 52.2376 16.05C53.0193 15.916 53.7339 15.849 54.3816 15.8043C54.6049 15.782 54.8059 15.782 55.0293 15.782H55.6099V15.2907C55.6099 14.5983 55.4313 14.107 55.0516 13.7943C54.6719 13.504 54.0689 13.3477 53.2426 13.3477C52.4609 13.3477 51.7686 13.4817 51.1656 13.7273C50.5626 13.973 49.9596 14.2633 49.3789 14.5983C49.1333 14.2857 48.9099 13.9507 48.7759 13.571C48.6196 13.1913 48.5526 12.9233 48.5526 12.7447C48.5526 12.499 48.6866 12.2533 48.9769 12.0077C49.2673 11.762 49.6469 11.561 50.1383 11.36C50.6296 11.159 51.1879 11.025 51.8356 10.891C52.4609 10.7793 53.1309 10.7123 53.8456 10.7123C54.8283 10.7123 55.6546 10.8017 56.3246 11.0027C56.9946 11.2037 57.5529 11.5163 57.9773 11.9183C58.4016 12.3427 58.7143 12.8563 58.8929 13.4817C59.0716 14.107 59.1609 14.844 59.1609 15.6703L59.1833 20.8293ZM55.6993 17.6803H55.3196C55.1856 17.6803 55.0739 17.6803 54.9399 17.7027C54.4933 17.7473 54.0466 17.792 53.5999 17.859C53.1533 17.926 52.7513 18.06 52.4163 18.2387C52.0813 18.4173 51.7909 18.663 51.5676 18.9533C51.3443 19.2437 51.2326 19.6233 51.2326 20.07C51.2326 20.5837 51.3666 21.008 51.6569 21.3653C51.9473 21.7227 52.4386 21.9013 53.1309 21.9013C53.4659 21.9013 53.8009 21.8567 54.1136 21.7673C54.4263 21.678 54.6943 21.5663 54.9399 21.41C55.1856 21.2537 55.3643 21.0973 55.4983 20.941C55.6323 20.7623 55.6993 20.606 55.6993 20.472V17.6803ZM65.9503 12.3203C66.2406 11.9853 66.6873 11.628 67.3126 11.2707C67.9379 10.9133 68.6973 10.7347 69.6353 10.7347C70.3053 10.7347 70.9529 10.8463 71.5559 11.0697C72.1589 11.293 72.6949 11.6727 73.1639 12.164C73.6329 12.6777 74.0126 13.3477 74.2806 14.174C74.5709 15.0003 74.7049 16.0277 74.7049 17.256C74.7049 18.663 74.5486 19.8467 74.2136 20.7623C73.8786 21.678 73.4766 22.415 72.9629 22.9287C72.4493 23.4647 71.8686 23.8443 71.2433 24.0677C70.6179 24.291 69.9703 24.4027 69.3449 24.4027C68.8313 24.4027 68.3623 24.3357 67.9826 24.224C67.6029 24.1123 67.2679 23.9783 66.9999 23.822C66.7319 23.688 66.5309 23.5317 66.3746 23.3977C66.2406 23.2637 66.1289 23.152 66.1066 23.1073V29.8073H62.3993V11.1367C62.4886 11.1143 62.6003 11.092 62.7343 11.092C62.8459 11.0697 62.9799 11.0697 63.1139 11.0473C63.2703 11.0473 63.4266 11.025 63.6276 11.025C64.2306 11.025 64.7443 11.1143 65.1686 11.3153C65.5706 11.5163 65.8386 11.8513 65.9503 12.3203ZM70.8636 17.3453C70.8636 16.8093 70.8189 16.2957 70.7296 15.8267C70.6403 15.3577 70.4839 14.9557 70.2829 14.5983C70.0819 14.2633 69.7916 13.9953 69.4343 13.7943C69.0769 13.5933 68.6526 13.504 68.1389 13.504C67.3796 13.504 66.8436 13.6603 66.5533 13.9283C66.2629 14.2187 66.1066 14.5313 66.1066 14.8887V20.673C66.2406 20.8293 66.5086 20.9857 66.8883 21.1867C67.2679 21.3877 67.6923 21.477 68.1836 21.477C69.0993 21.477 69.7693 21.1197 70.2159 20.3827C70.6403 19.668 70.8636 18.663 70.8636 17.3453ZM77.5636 22.0353C77.4296 21.678 77.3626 21.2983 77.3179 20.8963C77.2733 20.4943 77.2733 20.0923 77.2733 19.6903V7.072C77.4073 7.04966 77.5413 7.02733 77.6753 7.02733C77.8093 7.00499 77.9433 7.005 78.0773 6.98266C78.2113 6.98266 78.3676 6.96033 78.5016 6.96033C78.7919 6.96033 79.0823 6.98266 79.3726 7.04966C79.6629 7.09433 79.9309 7.20599 80.1543 7.38466C80.3999 7.541 80.5786 7.76433 80.7349 8.05466C80.8689 8.345 80.9583 8.70233 80.9583 9.14899V11.092H84.7773V13.839H80.9806V19.6457C80.9806 20.9187 81.4943 21.544 82.5216 21.544C82.7673 21.544 83.0129 21.4993 83.2363 21.4323C83.4596 21.343 83.6606 21.2537 83.8393 21.1643C84.0179 21.075 84.1743 20.9633 84.3083 20.8517C84.4423 20.74 84.5316 20.6507 84.5986 20.606C84.8666 21.008 85.0899 21.343 85.2239 21.6333C85.3579 21.9237 85.4473 22.1917 85.4473 22.4597C85.4473 22.7053 85.3579 22.9287 85.1569 23.152C84.9559 23.3753 84.6879 23.5987 84.3529 23.7773C84.0179 23.9783 83.5936 24.1347 83.1023 24.2463C82.6109 24.358 82.0749 24.425 81.4943 24.425C80.3776 24.425 79.4843 24.2017 78.8589 23.7773C78.2783 23.3083 77.8316 22.75 77.5636 22.0353ZM94.1573 21.678C94.6039 21.678 95.0059 21.6333 95.3633 21.5217C95.6983 21.4323 96.0109 21.2983 96.3013 21.1643C96.5693 21.0303 96.8149 20.8517 97.0159 20.6953C97.2169 20.5167 97.3956 20.3603 97.5519 20.2263C97.7753 20.4943 97.9986 20.8517 98.2443 21.276C98.4899 21.7003 98.6016 22.0577 98.6016 22.3257C98.6016 22.7277 98.3783 23.085 97.9316 23.42C97.5519 23.7103 97.0159 23.956 96.3013 24.1793C95.6089 24.3803 94.7826 24.492 93.8446 24.492C92.9959 24.492 92.1473 24.3803 91.3209 24.157C90.4946 23.9337 89.7576 23.554 89.1099 23.018C88.4623 22.482 87.9486 21.745 87.5466 20.8293C87.1446 19.9137 86.9436 18.7523 86.9436 17.3677C86.9436 16.2287 87.1223 15.246 87.4796 14.4197C87.8369 13.5933 88.3059 12.901 88.8866 12.365C89.4673 11.829 90.1373 11.427 90.8966 11.159C91.6336 10.9133 92.3929 10.7793 93.1746 10.7793C94.1796 10.7793 95.0506 10.9357 95.7653 11.2483C96.4799 11.561 97.0383 11.9853 97.4849 12.5213C97.9316 13.0573 98.2443 13.6603 98.4453 14.3527C98.6463 15.045 98.7356 15.7597 98.7356 16.519V16.8987C98.7356 17.055 98.7356 17.189 98.7133 17.3677C98.7133 17.524 98.6909 17.6803 98.6909 17.8367C98.6909 17.993 98.6686 18.1047 98.6463 18.194H90.6286C90.6956 19.199 91.0083 20.0253 91.5666 20.6953C92.1026 21.343 92.9736 21.678 94.1573 21.678ZM95.4079 16.1617C95.4079 15.2907 95.2293 14.576 94.8943 14.04C94.5593 13.504 93.9563 13.2137 93.0853 13.2137C92.3259 13.2137 91.7453 13.4817 91.2986 13.9953C90.8519 14.509 90.6286 15.2237 90.6286 16.1617H95.4079ZM105.19 12.3873C105.302 12.231 105.436 12.0523 105.614 11.8513C105.793 11.6503 106.016 11.4717 106.284 11.3153C106.552 11.159 106.843 11.025 107.155 10.9133C107.468 10.8017 107.803 10.757 108.183 10.757C108.406 10.757 108.629 10.7793 108.875 10.8017C109.121 10.8463 109.344 10.9133 109.545 11.0027C109.746 11.092 109.925 11.226 110.059 11.4047C110.193 11.5833 110.26 11.7843 110.26 12.03C110.26 12.432 110.17 12.8787 109.969 13.3923C109.768 13.906 109.567 14.3527 109.366 14.71C109.054 14.4643 108.741 14.2633 108.451 14.1293C108.138 13.9953 107.781 13.9283 107.356 13.9283C106.798 13.9283 106.329 14.0847 105.949 14.4197C105.57 14.7547 105.369 15.1343 105.369 15.6033V24.4027H101.661V11.1143C101.751 11.092 101.862 11.0697 101.996 11.0697C102.108 11.0473 102.242 11.0473 102.376 11.025C102.51 11.025 102.689 11.0027 102.89 11.0027C103.47 11.0027 103.984 11.1143 104.408 11.3377C104.81 11.5833 105.078 11.9183 105.19 12.3873ZM115.709 12.3873C115.821 12.231 115.955 12.0523 116.133 11.8513C116.312 11.6503 116.535 11.4717 116.803 11.3153C117.071 11.159 117.362 11.025 117.674 10.9133C117.987 10.8017 118.322 10.757 118.702 10.757C118.925 10.757 119.148 10.7793 119.394 10.8017C119.64 10.8463 119.863 10.9133 120.064 11.0027C120.265 11.092 120.444 11.226 120.578 11.4047C120.712 11.5833 120.779 11.7843 120.779 12.03C120.779 12.432 120.689 12.8787 120.488 13.3923C120.287 13.906 120.086 14.3527 119.885 14.71C119.573 14.4643 119.26 14.2633 118.97 14.1293C118.657 13.9953 118.3 13.9283 117.875 13.9283C117.317 13.9283 116.848 14.0847 116.468 14.4197C116.089 14.7547 115.888 15.1343 115.888 15.6033V24.4027H112.18V11.1143C112.27 11.092 112.381 11.0697 112.515 11.0697C112.627 11.0473 112.761 11.0473 112.895 11.025C113.029 11.025 113.208 11.0027 113.409 11.0027C113.989 11.0027 114.503 11.1143 114.927 11.3377C115.329 11.5833 115.597 11.9183 115.709 12.3873ZM133.375 20.8293C133.375 22.2587 133.576 23.3083 134 23.956C133.665 24.09 133.375 24.1793 133.084 24.224C132.794 24.2687 132.504 24.3133 132.191 24.3133C131.543 24.3133 131.052 24.1793 130.717 23.9337C130.382 23.688 130.159 23.3083 130.069 22.8393C129.667 23.2637 129.154 23.621 128.484 23.9113C127.836 24.2017 127.032 24.3357 126.094 24.3357C125.603 24.3357 125.111 24.2687 124.62 24.1347C124.129 24.0007 123.682 23.7773 123.28 23.4647C122.878 23.152 122.565 22.75 122.297 22.2363C122.052 21.7227 121.918 21.0973 121.918 20.3603C121.918 19.4447 122.141 18.6853 122.588 18.1047C123.034 17.524 123.593 17.0773 124.263 16.7423C124.933 16.4073 125.67 16.184 126.429 16.05C127.211 15.916 127.925 15.849 128.573 15.8043C128.796 15.782 128.997 15.782 129.221 15.782H129.801V15.2907C129.801 14.5983 129.623 14.107 129.243 13.7943C128.863 13.504 128.26 13.3477 127.434 13.3477C126.652 13.3477 125.96 13.4817 125.357 13.7273C124.754 13.973 124.151 14.2633 123.57 14.5983C123.325 14.2857 123.101 13.9507 122.967 13.571C122.811 13.1913 122.744 12.9233 122.744 12.7447C122.744 12.499 122.878 12.2533 123.168 12.0077C123.459 11.762 123.838 11.561 124.33 11.36C124.821 11.159 125.379 11.025 126.027 10.891C126.652 10.7793 127.322 10.7123 128.037 10.7123C129.02 10.7123 129.846 10.8017 130.516 11.0027C131.186 11.2037 131.744 11.5163 132.169 11.9183C132.593 12.3427 132.906 12.8563 133.084 13.4817C133.263 14.107 133.352 14.844 133.352 15.6703L133.375 20.8293ZM129.891 17.6803H129.511C129.377 17.6803 129.265 17.6803 129.131 17.7027C128.685 17.7473 128.238 17.792 127.791 17.859C127.345 17.926 126.943 18.06 126.608 18.2387C126.273 18.4173 125.982 18.663 125.759 18.9533C125.536 19.2437 125.424 19.6233 125.424 20.07C125.424 20.5837 125.558 21.008 125.848 21.3653C126.139 21.7227 126.63 21.9013 127.322 21.9013C127.657 21.9013 127.992 21.8567 128.305 21.7673C128.618 21.678 128.886 21.5663 129.131 21.41C129.377 21.2537 129.556 21.0973 129.69 20.941C129.824 20.7623 129.891 20.606 129.891 20.472V17.6803Z" fill="#044D80"/>
</svg>
