<svg width="69" height="68" viewBox="0 0 69 68" fill="none" xmlns="http://www.w3.org/2000/svg">
<path d="M54.5007 55.25C48.2414 55.25 43.1673 50.1759 43.1673 43.9167C43.1673 37.6575 48.2414 32.5834 54.5007 32.5834C60.7599 32.5834 65.834 37.6575 65.834 43.9167C65.834 50.1759 60.7599 55.25 54.5007 55.25Z" stroke="#FF8620" stroke-width="3" stroke-linecap="round" stroke-linejoin="round"/>
<path d="M53.0833 14.1666C47.4167 14.875 43.875 17 43.875 17L53.0833 43.2083" stroke="#FF8620" stroke-width="3" stroke-linecap="round" stroke-linejoin="round"/>
<path d="M46.0003 23.375C43.6392 27.8612 33.2503 42.5 33.2503 42.5C33.2503 42.5 21.917 44.625 13.417 42.5L25.4587 27.625" stroke="#FF8620" stroke-width="3" stroke-linecap="round" stroke-linejoin="round"/>
<path d="M20.3059 33.9898C18.6836 33.0935 16.8179 32.5834 14.8333 32.5834C8.5741 32.5834 3.5 37.6574 3.5 43.9167C3.5 50.176 8.5741 55.25 14.8333 55.25C21.0926 55.25 26.1667 50.176 26.1667 43.9167C26.1667 43.717 26.1614 43.5183 26.1512 43.3211" stroke="#FF8620" stroke-width="3" stroke-linecap="round" stroke-linejoin="round"/>
<path d="M33.2507 42.5C30.8266 37.1667 25.4495 27.2917 23.334 21.9584" stroke="#FF8620" stroke-width="3" stroke-linecap="round" stroke-linejoin="round"/>
<path d="M29.7087 20.5416C29.7087 20.5416 23.3337 20.5416 17.667 22.6666" stroke="#FF8620" stroke-width="3" stroke-linecap="round" stroke-linejoin="round"/>
</svg>
