<svg width="20" height="20" viewBox="0 0 20 20" fill="none" xmlns="http://www.w3.org/2000/svg">
<path d="M0.833008 7.24967C0.833008 5.52084 0.833008 4.65734 1.37017 4.12017C1.90734 3.58301 2.77084 3.58301 4.49967 3.58301H15.4997C17.2285 3.58301 18.092 3.58301 18.6292 4.12017C19.1663 4.65734 19.1663 5.52084 19.1663 7.24967C19.1663 7.68142 19.1663 7.89776 19.0325 8.03251C18.8978 8.16634 18.6805 8.16634 18.2497 8.16634H1.74967C1.31792 8.16634 1.10159 8.16634 0.966841 8.03251C0.833008 7.89776 0.833008 7.68051 0.833008 7.24967ZM0.833008 15.4997C0.833008 17.2285 0.833008 18.092 1.37017 18.6292C1.90734 19.1663 2.77084 19.1663 4.49967 19.1663H15.4997C17.2285 19.1663 18.092 19.1663 18.6292 18.6292C19.1663 18.092 19.1663 17.2285 19.1663 15.4997V10.9163C19.1663 10.4846 19.1663 10.2683 19.0325 10.1335C18.8978 9.99967 18.6805 9.99967 18.2497 9.99967H1.74967C1.31792 9.99967 1.10159 9.99967 0.966841 10.1335C0.833008 10.2683 0.833008 10.4855 0.833008 10.9163V15.4997Z" fill="#8C31F9"/>
<path d="M5.41602 1.75V4.5M14.5827 1.75V4.5" stroke="#8C31F9" stroke-width="1.83333" stroke-linecap="round"/>
</svg>
