<svg width="49" height="48" viewBox="0 0 49 48" fill="none" xmlns="http://www.w3.org/2000/svg">
<path d="M24.5 5C33.5312 5 41.5 17.2587 41.5 32.5952C41.5 35.3095 41.4999 43 24.5 43C7.5 43 7.5 35.3095 7.5 32.5952C7.5 17.2587 15.4688 5 24.5 5Z" stroke="#FF8620" stroke-width="3" stroke-linecap="round" stroke-linejoin="round"/>
<path d="M18.1506 7.0752C9.11982 7.9007 3.5 15.3401 3.5 20.9999C3.5 23.1727 4.27589 26.3948 7.74155 28.0064" stroke="#FF8620" stroke-width="3" stroke-linecap="round" stroke-linejoin="round"/>
<path d="M41.2587 28.0064C44.7244 26.3949 45.5003 23.1727 45.5003 20.9999C45.5003 15.3401 39.8804 7.90066 30.8496 7.0752" stroke="#FF8620" stroke-width="3" stroke-linecap="round" stroke-linejoin="round"/>
<path d="M24.5 33V36" stroke="#FF8620" stroke-width="3" stroke-linecap="round" stroke-linejoin="round"/>
<path d="M30.5 20V21" stroke="#FF8620" stroke-width="3" stroke-linecap="round" stroke-linejoin="round"/>
<path d="M18.5 20V21" stroke="#FF8620" stroke-width="3" stroke-linecap="round" stroke-linejoin="round"/>
<path d="M16.5 36C16.5 36 17.5 38 20.5 38C23.5 38 24.5 36 24.5 36" stroke="#FF8620" stroke-width="3" stroke-linecap="round" stroke-linejoin="round"/>
<path d="M24.5 36C24.5 36 25.5 38 28.5 38C31.5 38 32.5 36 32.5 36" stroke="#FF8620" stroke-width="3" stroke-linecap="round" stroke-linejoin="round"/>
<path d="M24.5 33C22.375 33 20.5 31.387 20.5 29.369C20.5 29.0119 20.5 28 24.5 28C28.5 28 28.5 29.0119 28.5 29.369C28.5 31.387 26.625 33 24.5 33Z" stroke="#FF8620" stroke-width="3" stroke-linecap="round" stroke-linejoin="round"/>
</svg>
