<svg width="25" height="25" viewBox="0 0 25 25" fill="none" xmlns="http://www.w3.org/2000/svg">
<g clip-path="url(#clip0_398_19475)">
<path d="M12.259 0.38916C5.4886 0.38916 0 5.87776 0 12.6482C0 18.3971 3.95818 23.2213 9.29771 24.5462V16.3945H6.76991V12.6482H9.29771V11.0339C9.29771 6.86142 11.1861 4.92744 15.2826 4.92744C16.0593 4.92744 17.3994 5.07994 17.9477 5.23195V8.62769C17.6583 8.59729 17.1557 8.58209 16.5315 8.58209C14.5215 8.58209 13.7448 9.34362 13.7448 11.3232V12.6482H17.7491L17.0611 16.3945H13.7448V24.8174C19.8149 24.0843 24.5185 18.9159 24.5185 12.6482C24.518 5.87776 19.0294 0.38916 12.259 0.38916Z" fill="#FF8800"/>
</g>
<defs>
<clipPath id="clip0_398_19475">
<rect width="24.518" height="24.518" fill="white" transform="translate(0 0.38916)"/>
</clipPath>
</defs>
</svg>
