<svg width="69" height="68" viewBox="0 0 69 68" fill="none" xmlns="http://www.w3.org/2000/svg">
<path d="M44.1979 11.454C43.6491 10.3161 43.2477 9.01526 43.7631 7.86181C44.9132 5.28762 47.632 4.53059 49.4907 4.32316C50.7152 4.18654 51.896 4.69592 52.7123 5.61876C57.8132 11.3856 62.9687 23.9553 62.6508 38.2711C62.4387 47.8231 58.8245 54.3499 56.0643 57.9666C54.2075 60.3996 51.4111 61.8085 48.4027 62.371C43.8946 63.2141 36.5358 64.1852 28.7287 63.5409C25.535 63.2774 22.3676 62.46 19.6516 60.7594C14.1102 57.2899 10.2084 51.8439 9.13229 44.114C8.74442 41.3279 10.2292 38.6004 12.9323 37.8218C13.4569 37.6706 14.0212 37.5356 14.619 37.4301C16.7868 37.0474 18.4099 38.9882 19.1056 41.0768C20.6826 45.8113 25.0631 48.8181 29.3703 47.5303C30.249 47.1903 31.1029 46.6773 31.8647 46.1297C33.9156 44.6548 34.7953 41.9387 33.6539 39.6851C31.5801 35.5904 27.3429 33.8018 22.2036 35.1319C19.8879 35.7312 17.3077 35.4819 15.9405 33.5192C15.6481 33.0997 15.3503 32.6429 15.0586 32.1527C13.3995 29.364 14.4974 25.7991 17.4162 24.3813C22.8527 21.7406 28.7692 21.9975 34.428 24.1807C32.1379 20.3908 29.3596 16.9326 26.099 14.2817C24.786 13.2142 23.7093 11.6942 24.072 10.0414C24.5991 7.63866 26.1963 6.10517 27.5203 5.21389C28.7046 4.41648 30.2198 4.49714 31.4735 5.18056C37.9599 8.71644 43.4149 14.6829 46.5376 18.7146C46.0046 16.0252 45.1965 13.5249 44.1979 11.454Z" stroke="#FF8620" stroke-width="3" stroke-linecap="round" stroke-linejoin="round"/>
</svg>
