<svg width="27" height="28" viewBox="0 0 27 28" fill="none" xmlns="http://www.w3.org/2000/svg">
<path d="M13.4998 26.0709C20.1665 26.0709 25.5708 20.6666 25.5708 13.9999C25.5708 7.33322 20.1665 1.92883 13.4998 1.92883C6.8331 1.92883 1.42871 7.33322 1.42871 13.9999C1.42871 20.6666 6.8331 26.0709 13.4998 26.0709Z" stroke="#FF8800" stroke-width="2" stroke-linecap="round" stroke-linejoin="round"/>
<path d="M10.7139 19.571H16.2851" stroke="#FF8800" stroke-width="2" stroke-linecap="round" stroke-linejoin="round"/>
<path d="M13.4997 19.5711V13.0713H11.6426" stroke="#FF8800" stroke-width="2" stroke-linecap="round" stroke-linejoin="round"/>
<path d="M13.4994 8.8929C13.243 8.8929 13.0352 8.68503 13.0352 8.42863C13.0352 8.17222 13.243 7.96436 13.4994 7.96436" stroke="#FF8800" stroke-width="2" stroke-linecap="round" stroke-linejoin="round"/>
<path d="M13.499 8.8929C13.7554 8.8929 13.9633 8.68503 13.9633 8.42863C13.9633 8.17222 13.7554 7.96436 13.499 7.96436" stroke="#FF8800" stroke-width="2" stroke-linecap="round" stroke-linejoin="round"/>
</svg>
