<svg width="26" height="25" viewBox="0 0 26 25" fill="none" xmlns="http://www.w3.org/2000/svg">
<g clip-path="url(#clip0_398_19478)">
<path d="M13.1013 2.59674C16.3767 2.59674 16.7646 2.6111 18.0528 2.66857C19.2499 2.72124 19.8964 2.92237 20.3274 3.08997C20.8972 3.31025 21.3091 3.57841 21.7352 4.00461C22.1662 4.43559 22.4296 4.84262 22.6499 5.41247C22.8175 5.84345 23.0186 6.49471 23.0713 7.68709C23.1288 8.98003 23.1431 9.36792 23.1431 12.6386C23.1431 15.914 23.1288 16.3019 23.0713 17.5901C23.0186 18.7872 22.8175 19.4337 22.6499 19.8647C22.4296 20.4345 22.1614 20.8464 21.7352 21.2725C21.3043 21.7035 20.8972 21.9669 20.3274 22.1872C19.8964 22.3548 19.2451 22.5559 18.0528 22.6086C16.7598 22.666 16.3719 22.6804 13.1013 22.6804C9.82583 22.6804 9.43795 22.666 8.1498 22.6086C6.95263 22.5559 6.30616 22.3548 5.87518 22.1872C5.30533 21.9669 4.8935 21.6987 4.46731 21.2725C4.03633 20.8416 3.77295 20.4345 3.55267 19.8647C3.38507 19.4337 3.18394 18.7824 3.13127 17.5901C3.07381 16.2971 3.05944 15.9092 3.05944 12.6386C3.05944 9.36313 3.07381 8.97524 3.13127 7.68709C3.18394 6.48992 3.38507 5.84345 3.55267 5.41247C3.77295 4.84262 4.04112 4.4308 4.46731 4.00461C4.89829 3.57363 5.30533 3.31025 5.87518 3.08997C6.30616 2.92237 6.95742 2.72124 8.1498 2.66857C9.43795 2.6111 9.82583 2.59674 13.1013 2.59674ZM13.1013 0.38916C9.77315 0.38916 9.35654 0.403526 8.04923 0.46099C6.74671 0.518454 5.85123 0.729156 5.07547 1.03084C4.26618 1.34689 3.5814 1.76351 2.90141 2.44829C2.21663 3.12828 1.80002 3.81306 1.48397 4.61756C1.18228 5.39811 0.971579 6.2888 0.914115 7.59132C0.856651 8.90341 0.842285 9.32003 0.842285 12.6482C0.842285 15.9763 0.856651 16.3929 0.914115 17.7002C0.971579 19.0027 1.18228 19.8982 1.48397 20.674C1.80002 21.4832 2.21663 22.168 2.90141 22.848C3.5814 23.528 4.26618 23.9494 5.07068 24.2607C5.85123 24.5624 6.74193 24.7731 8.04444 24.8305C9.35175 24.888 9.76836 24.9024 13.0965 24.9024C16.4246 24.9024 16.8412 24.888 18.1485 24.8305C19.4511 24.7731 20.3465 24.5624 21.1223 24.2607C21.9268 23.9494 22.6116 23.528 23.2916 22.848C23.9716 22.168 24.393 21.4832 24.7042 20.6788C25.0059 19.8982 25.2166 19.0075 25.2741 17.705C25.3315 16.3977 25.3459 15.9811 25.3459 12.6529C25.3459 9.32482 25.3315 8.9082 25.2741 7.6009C25.2166 6.29838 25.0059 5.4029 24.7042 4.62713C24.4025 3.81306 23.9859 3.12828 23.3011 2.44829C22.6212 1.7683 21.9364 1.34689 21.1319 1.03563C20.3513 0.733944 19.4606 0.523243 18.1581 0.465779C16.846 0.403526 16.4294 0.38916 13.1013 0.38916Z" fill="#FF8800"/>
<path d="M13.1013 6.35107C9.62473 6.35107 6.8042 9.1716 6.8042 12.6482C6.8042 16.1247 9.62473 18.9453 13.1013 18.9453C16.5779 18.9453 19.3984 16.1247 19.3984 12.6482C19.3984 9.1716 16.5779 6.35107 13.1013 6.35107ZM13.1013 16.7329C10.8458 16.7329 9.01656 14.9036 9.01656 12.6482C9.01656 10.3927 10.8458 8.56344 13.1013 8.56344C15.3568 8.56344 17.186 10.3927 17.186 12.6482C17.186 14.9036 15.3568 16.7329 13.1013 16.7329Z" fill="#FF8800"/>
<path d="M21.1175 6.10202C21.1175 6.9161 20.4567 7.57214 19.6474 7.57214C18.8333 7.57214 18.1772 6.91131 18.1772 6.10202C18.1772 5.28795 18.8381 4.6319 19.6474 4.6319C20.4567 4.6319 21.1175 5.29273 21.1175 6.10202Z" fill="#FF8800"/>
</g>
<defs>
<clipPath id="clip0_398_19478">
<rect width="24.518" height="24.518" fill="white" transform="translate(0.842285 0.38916)"/>
</clipPath>
</defs>
</svg>
