<svg width="68" height="69" viewBox="0 0 68 69" fill="none" xmlns="http://www.w3.org/2000/svg">
<path d="M29.4656 17.5066C29.631 17.1755 29.8853 16.8969 30.2001 16.7022C30.515 16.5075 30.8778 16.4043 31.248 16.4043H38.7439C39.0834 16.4043 39.4172 16.4911 39.7138 16.6563C40.0103 16.8216 40.2596 17.0599 40.4382 17.3486C40.6168 17.6374 40.7186 17.9669 40.734 18.306C40.7494 18.6452 40.6779 18.9826 40.5263 19.2863L35.992 28.3574H41.4799C41.864 28.3585 42.2396 28.4705 42.5615 28.6801C42.8834 28.8897 43.1379 29.1879 43.2942 29.5387C43.4506 29.8896 43.5021 30.2782 43.4427 30.6577C43.3833 31.0372 43.2155 31.3914 42.9594 31.6777L30.1456 45.9152C30.0035 46.0739 29.8143 46.1828 29.6057 46.226C29.3972 46.2692 29.1802 46.2444 28.9868 46.1553C28.7934 46.0661 28.6336 45.9173 28.5309 45.7307C28.4283 45.5441 28.3881 45.3295 28.4164 45.1184L30.0102 32.3285H25.2714C24.9319 32.3285 24.5981 32.2417 24.3016 32.0765C24.0051 31.9112 23.7557 31.6729 23.5771 31.3842C23.3986 31.0955 23.2968 30.7659 23.2814 30.4268C23.2659 30.0876 23.3374 29.7502 23.4891 29.4465L29.4656 17.5066Z" stroke="#FF8800" stroke-width="3" stroke-linecap="round" stroke-linejoin="round"/>
<path d="M8.10165 12.8795V33.1042C8.10171 39.4968 10.0389 45.7394 13.6579 51.009C17.2769 56.2786 22.4077 60.3279 28.3742 62.6231L31.1393 63.6856C32.9807 64.3939 35.0194 64.3939 36.8609 63.6856L39.626 62.6231C45.5924 60.3279 50.7233 56.2786 54.3423 51.009C57.9613 45.7394 59.8985 39.4968 59.8985 33.1042V12.8795C59.9036 12.1184 59.6887 11.3721 59.2797 10.7303C58.8707 10.0885 58.2849 9.57848 57.5929 9.26168C50.155 6.01518 42.1153 4.37593 34.0001 4.45121C25.8849 4.37593 17.8452 6.01518 10.4073 9.26168C9.71527 9.57848 9.12952 10.0885 8.72049 10.7303C8.31145 11.3721 8.09656 12.1184 8.10165 12.8795Z" stroke="#FF8800" stroke-width="3" stroke-linecap="round" stroke-linejoin="round"/>
</svg>
