<svg width="22" height="22" viewBox="0 0 22 22" fill="none" xmlns="http://www.w3.org/2000/svg">
<g clip-path="url(#clip0_479_2074)">
<path d="M5.313 16.5H8.514C7.76286 15.9286 7.17492 15.17 6.809 14.3H5.5C4.62479 14.3 3.78542 13.9523 3.16655 13.3335C2.54768 12.7146 2.2 11.8752 2.2 11C2.2 10.1248 2.54768 9.28542 3.16655 8.66655C3.78542 8.04768 4.62479 7.7 5.5 7.7H8.8C9.32715 7.70148 9.84628 7.82923 10.3139 8.07255C10.7816 8.31586 11.1841 8.66767 11.4879 9.09852C11.7916 9.52937 11.9877 10.0267 12.0598 10.5489C12.1318 11.0711 12.0777 11.603 11.902 12.1H14.212C14.2667 11.7986 14.2961 11.4933 14.3 11.187V10.813C14.3 9.4039 13.7402 8.05252 12.7439 7.05614C11.7475 6.05976 10.3961 5.5 8.987 5.5H5.313C3.9039 5.5 2.55252 6.05976 1.55614 7.05614C0.559761 8.05252 0 9.4039 0 10.813L0 11.187C0 12.5961 0.559761 13.9475 1.55614 14.9439C2.55252 15.9402 3.9039 16.5 5.313 16.5Z" fill="#8C31F9"/>
<path d="M16.6872 5.5H13.4862C14.2373 6.07141 14.8253 6.83004 15.1912 7.7H16.5002C17.3754 7.7 18.2148 8.04768 18.8336 8.66655C19.4525 9.28542 19.8002 10.1248 19.8002 11C19.8002 11.8752 19.4525 12.7146 18.8336 13.3335C18.2148 13.9523 17.3754 14.3 16.5002 14.3H13.2002C12.673 14.2985 12.1539 14.1708 11.6863 13.9275C11.2186 13.6841 10.8161 13.3323 10.5123 12.9015C10.2086 12.4706 10.0125 11.9733 9.94043 11.4511C9.86838 10.9289 9.92248 10.397 10.0982 9.9H7.7882C7.73349 10.2014 7.70406 10.5067 7.7002 10.813V11.187C7.7002 12.5961 8.25996 13.9475 9.25634 14.9439C10.2527 15.9402 11.6041 16.5 13.0132 16.5H16.6872C17.3849 16.5 18.0758 16.3626 18.7204 16.0956C19.365 15.8286 19.9507 15.4372 20.4441 14.9439C20.9374 14.4505 21.3288 13.8648 21.5958 13.2202C21.8628 12.5756 22.0002 11.8847 22.0002 11.187V10.813C22.0002 10.1153 21.8628 9.42441 21.5958 8.7798C21.3288 8.1352 20.9374 7.5495 20.4441 7.05614C19.9507 6.56278 19.365 6.17143 18.7204 5.90443C18.0758 5.63742 17.3849 5.5 16.6872 5.5Z" fill="#8C31F9"/>
</g>
<defs>
<clipPath id="clip0_479_2074">
<rect width="22" height="22" fill="white"/>
</clipPath>
</defs>
</svg>
