<svg width="26" height="25" viewBox="0 0 26 25" fill="none" xmlns="http://www.w3.org/2000/svg">
<g clip-path="url(#clip0_398_19476)">
<path d="M23.3173 0.38916H2.42437C1.42354 0.38916 0.614258 1.17929 0.614258 2.15618V23.1353C0.614258 24.1122 1.42354 24.9071 2.42437 24.9071H23.3173C24.3182 24.9071 25.1322 24.1122 25.1322 23.1401V2.15618C25.1322 1.17929 24.3182 0.38916 23.3173 0.38916ZM7.88825 21.2821H4.24886V9.57862H7.88825V21.2821ZM6.06855 7.98399C4.90012 7.98399 3.95675 7.04062 3.95675 5.87697C3.95675 4.71333 4.90012 3.76996 6.06855 3.76996C7.2322 3.76996 8.17557 4.71333 8.17557 5.87697C8.17557 7.03583 7.2322 7.98399 6.06855 7.98399ZM21.5072 21.2821H17.8726V15.5932C17.8726 14.238 17.8487 12.4901 15.9811 12.4901C14.0896 12.4901 13.8023 13.9698 13.8023 15.4974V21.2821H10.1724V9.57862H13.6586V11.178H13.7065C14.1901 10.2586 15.3777 9.28651 17.1447 9.28651C20.8272 9.28651 21.5072 11.7096 21.5072 14.8605V21.2821Z" fill="#FF8800"/>
</g>
<defs>
<clipPath id="clip0_398_19476">
<rect width="24.518" height="24.518" fill="white" transform="translate(0.614258 0.38916)"/>
</clipPath>
</defs>
</svg>
