<svg width="68" height="69" viewBox="0 0 68 69" fill="none" xmlns="http://www.w3.org/2000/svg">
<path d="M55.2505 25.7012C55.2238 21.9137 54.1853 18.2022 52.2425 14.9509C50.2997 11.6995 47.5232 9.02653 44.2005 7.2086C40.8777 5.39066 37.1295 4.49385 33.3437 4.611C29.558 4.72815 25.8723 5.85501 22.6683 7.87491C19.4643 9.89482 16.8584 12.7344 15.1204 16.0996C13.3824 19.4648 12.5754 23.2335 12.7829 27.0153C12.9905 30.7972 14.205 34.4548 16.3009 37.6097C18.3968 40.7645 21.2978 43.3018 24.7036 44.959V55.0527C24.7036 55.7572 24.9834 56.4328 25.4816 56.931C25.9797 57.4291 26.6553 57.709 27.3598 57.709H40.6411C41.3456 57.709 42.0212 57.4291 42.5193 56.931C43.0175 56.4328 43.2973 55.7572 43.2973 55.0527V44.959C46.9041 43.2043 49.9406 40.4646 52.0558 37.0568C54.1711 33.6489 55.2786 29.712 55.2505 25.7012Z" stroke="#FF8800" stroke-width="3" stroke-linecap="round" stroke-linejoin="round"/>
<path d="M27.3594 57.5762H40.6406V61.5605C40.6406 62.265 40.3608 62.9407 39.8626 63.4388C39.3645 63.9369 38.6889 64.2168 37.9844 64.2168H30.0156C29.3111 64.2168 28.6355 63.9369 28.1374 63.4388C27.6392 62.9407 27.3594 62.265 27.3594 61.5605V57.5762Z" stroke="#FF8800" stroke-width="3" stroke-linecap="round" stroke-linejoin="round"/>
<path d="M24.7031 49.6074H43.2969" stroke="#FF8800" stroke-width="3" stroke-linecap="round" stroke-linejoin="round"/>
</svg>
