<svg width="69" height="68" viewBox="0 0 69 68" fill="none" xmlns="http://www.w3.org/2000/svg">
<path d="M63.8035 18.4592L51.6398 37.7777C50.7366 39.2121 49.4303 40.3482 47.849 40.9587C44.8277 42.1251 39.6124 43.9169 36.0833 43.9169C36.0833 43.9169 36.395 39.9786 32.5417 36.1253C28.6883 32.2719 24.75 32.5836 24.75 32.5836C24.75 28.9856 26.6863 23.7354 27.9109 20.7749C28.5239 19.2929 29.6085 18.068 30.96 17.2047L50.2494 4.88268C50.6889 4.60196 51.1528 4.35808 51.6583 4.22974C53.3694 3.79529 57.7192 3.21952 61.5914 7.09171C65.488 10.9883 64.8711 15.3963 64.432 17.0965C64.3057 17.5847 64.0723 18.0325 63.8035 18.4592Z" stroke="#FF8620" stroke-width="3" stroke-linecap="round" stroke-linejoin="round"/>
<path d="M24.7502 32.5833C7.51279 32.5833 6.89675 43.4693 6.43155 51.69C6.30068 54.0026 6.18175 56.1042 5.70813 57.6933C5.64523 57.9044 5.57547 58.1167 5.50544 58.3298C5.18882 59.2933 4.86695 60.2728 5.15 61.2277C5.65388 62.9276 6.99463 63.75 9.36916 63.75C25.4931 63.75 35.9968 60.9399 36.0829 43.4261" stroke="#FF8620" stroke-width="3" stroke-linecap="round" stroke-linejoin="round"/>
<path d="M50.1969 39.5028C49.9629 36.8206 48.7702 31.1189 43.1587 25.5074C37.7062 20.0548 32.1684 18.7742 29.3984 18.4913" stroke="#FF8620" stroke-width="3" stroke-linecap="round" stroke-linejoin="round"/>
</svg>
