<svg width="25" height="25" viewBox="0 0 25 25" fill="none" xmlns="http://www.w3.org/2000/svg">
<g clip-path="url(#clip0_398_19480)">
<path d="M12.3293 0.38916C5.55813 0.38916 0.0703125 5.87698 0.0703125 12.6482C0.0703125 17.8439 3.30266 22.2782 7.86148 24.0643C7.75613 23.0922 7.65556 21.6078 7.90458 20.5495C8.12964 19.5917 9.34118 14.4583 9.34118 14.4583C9.34118 14.4583 8.97245 13.7256 8.97245 12.6386C8.97245 10.9338 9.95891 9.66002 11.1896 9.66002C12.2335 9.66002 12.7411 10.4454 12.7411 11.3887C12.7411 12.4422 12.0707 14.0129 11.7259 15.4687C11.4386 16.6898 12.3389 17.6858 13.5408 17.6858C15.7197 17.6858 17.3957 15.3873 17.3957 12.0735C17.3957 9.13806 15.2887 7.08372 12.2766 7.08372C8.79048 7.08372 6.74093 9.69833 6.74093 12.4039C6.74093 13.4574 7.14796 14.5876 7.65556 15.2005C7.75613 15.3202 7.77049 15.4304 7.74176 15.5501C7.65077 15.938 7.44007 16.7712 7.40176 16.9388C7.34909 17.1639 7.22458 17.2118 6.98994 17.1016C5.45757 16.3881 4.49983 14.1518 4.49983 12.3513C4.49983 8.48201 7.31078 4.93361 12.5975 4.93361C16.8498 4.93361 20.154 7.96484 20.154 12.016C20.154 16.2397 17.4915 19.6396 13.7946 19.6396C12.5544 19.6396 11.3859 18.9931 10.9837 18.2317C10.9837 18.2317 10.3707 20.5734 10.2223 21.148C9.94455 22.2111 9.19752 23.5472 8.69949 24.3612C9.84877 24.7156 11.0651 24.9071 12.3293 24.9071C19.1005 24.9071 24.5883 19.4193 24.5883 12.6482C24.5883 5.87698 19.1005 0.38916 12.3293 0.38916Z" fill="#FF8800"/>
</g>
<defs>
<clipPath id="clip0_398_19480">
<rect width="24.518" height="24.518" fill="white" transform="translate(0.0703125 0.38916)"/>
</clipPath>
</defs>
</svg>
