<svg width="67" height="66" viewBox="0 0 67 66" fill="none" xmlns="http://www.w3.org/2000/svg">
<path d="M3 33.16C3 41.1591 6.21337 48.8305 11.9332 54.4866C17.6531 60.1428 25.4109 63.3202 33.5 63.3202C41.5891 63.3202 49.347 60.1428 55.0669 54.4866C60.7865 48.8305 64 41.1591 64 33.16C64 25.1612 60.7865 17.4898 55.0669 11.8337C49.347 6.17758 41.5891 3 33.5 3C25.4109 3 17.6531 6.17758 11.9332 11.8337C6.21337 17.4898 3 25.1612 3 33.16Z" stroke="white" stroke-width="4.24655" stroke-linecap="round" stroke-linejoin="round"/>
<path d="M25.3672 42.8517C25.3679 43.6935 25.6136 44.5176 26.0751 45.2251C26.5365 45.9326 27.1941 46.494 27.9693 46.842C28.7447 47.1899 29.6047 47.3098 30.447 47.1875C31.2893 47.065 32.0783 46.7058 32.7197 46.1519L42.4888 37.7022C45.2548 35.3098 45.2555 31.0206 42.4902 28.6274L32.7197 20.1713C32.0788 19.6164 31.2896 19.2559 30.447 19.1329C29.6041 19.0099 28.7433 19.1297 27.9677 19.4779C27.192 19.8261 26.5342 20.3879 26.073 21.0961C25.6118 21.8044 25.3668 22.6291 25.3672 23.4715L25.3672 42.8517Z" stroke="white" stroke-width="4.24655" stroke-linecap="round" stroke-linejoin="round"/>
</svg>
