<svg width="48" height="48" viewBox="0 0 48 48" fill="none" xmlns="http://www.w3.org/2000/svg">
<path d="M18.0652 9.67266C18.1327 8.1972 19.1971 7.13279 20.6725 7.06522C21.4983 7.02739 22.5849 7 24 7C25.415 7 26.5015 7.02739 27.3273 7.06521C28.8029 7.13279 29.8673 8.19728 29.9348 9.67282C29.9726 10.4986 30 11.5851 30 13C30 14.4146 29.9726 15.5009 29.9349 16.3267C29.8673 17.8026 28.8025 18.8674 27.3265 18.9349C26.5008 18.9727 25.4146 19 24 19C22.5854 19 21.499 18.9727 20.6733 18.9349C19.1974 18.8674 18.1327 17.8027 18.0652 16.3269C18.0274 15.5011 18 14.4147 18 13C18 11.585 18.0274 10.4984 18.0652 9.67266Z" stroke="#FF8620" stroke-width="3" stroke-linecap="round" stroke-linejoin="round"/>
<path d="M18.009 14.3428C13.2742 16.5879 10 21.4114 10 26.9998V28.9998M38 28.9998V26.9998C38 21.4114 34.7258 16.5879 29.991 14.3428" stroke="#FF8620" stroke-width="3" stroke-linecap="round" stroke-linejoin="round"/>
<path d="M32.0652 31.6727C32.1327 30.1972 33.1971 29.1328 34.6725 29.0652C35.4983 29.0274 36.5849 29 38 29C39.415 29 40.5015 29.0274 41.3273 29.0652C42.8029 29.1328 43.8673 30.1973 43.9348 31.6728C43.9726 32.4986 44 33.5851 44 35C44 36.4146 43.9726 37.5009 43.9349 38.3267C43.8673 39.8026 42.8025 40.8674 41.3265 40.9349C40.5008 40.9727 39.4146 41 38 41C36.5854 41 35.499 40.9727 34.6733 40.9349C33.1974 40.8674 32.1327 39.8027 32.0652 38.3269C32.0274 37.5011 32 36.4147 32 35C32 33.585 32.0274 32.4984 32.0652 31.6727Z" stroke="#FF8620" stroke-width="3" stroke-linecap="round" stroke-linejoin="round"/>
<path d="M4.06518 31.6727C4.13272 30.1972 5.19706 29.1328 6.67251 29.0652C7.49834 29.0274 8.5849 29 10 29C11.415 29 12.5015 29.0274 13.3273 29.0652C14.8029 29.1328 15.8673 30.1973 15.9348 31.6728C15.9726 32.4986 16 33.5851 16 35C16 36.4146 15.9726 37.5009 15.9349 38.3267C15.8673 39.8026 14.8025 40.8674 13.3265 40.9349C12.5008 40.9727 11.4146 41 10 41C8.58535 41 7.49903 40.9727 6.6733 40.9349C5.19743 40.8674 4.13269 39.8027 4.06515 38.3269C4.02736 37.5011 4 36.4147 4 35C4 33.585 4.02737 32.4984 4.06518 31.6727Z" stroke="#FF8620" stroke-width="3" stroke-linecap="round" stroke-linejoin="round"/>
</svg>
