<svg width="68" height="69" viewBox="0 0 68 69" fill="none" xmlns="http://www.w3.org/2000/svg">
<path d="M24.0681 46.2605C20.8372 45.0097 18.1929 42.5928 16.6574 39.4872C15.1219 36.3816 14.8069 32.813 15.7745 29.4864C16.7421 26.1598 18.922 23.317 21.8837 21.5195C24.8454 19.722 28.3735 19.1005 31.7712 19.7777" stroke="#FF8800" stroke-width="3" stroke-linecap="round" stroke-linejoin="round"/>
<path d="M23.9643 57.7276C17.5966 56.3986 12.0014 52.6311 8.37508 47.2308C4.74872 41.8304 3.37894 35.2256 4.55858 28.8285C5.73822 22.4314 9.37366 16.7496 14.6877 12.9979C20.0017 9.24609 26.5726 7.7221 32.9956 8.75169" stroke="#FF8800" stroke-width="3" stroke-linecap="round" stroke-linejoin="round"/>
<path d="M28.0234 33.9595L39.092 22.8909" stroke="#FF8800" stroke-width="3" stroke-linecap="round" stroke-linejoin="round"/>
<path d="M39.0918 22.8909L40.6005 12.9299L49.228 4.45117L50.5615 11.4212L57.5315 12.7546L49.0527 21.3821L39.0918 22.8909Z" stroke="#FF8800" stroke-width="3" stroke-linecap="round" stroke-linejoin="round"/>
<path d="M32.0078 48.2793C32.0078 52.5062 33.6869 56.56 36.6758 59.5488C39.6647 62.5377 43.7184 64.2168 47.9453 64.2168C52.1722 64.2168 56.226 62.5377 59.2148 59.5488C62.2037 56.56 63.8828 52.5062 63.8828 48.2793C63.8828 44.0524 62.2037 39.9986 59.2148 37.0098C56.226 34.0209 52.1722 32.3418 47.9453 32.3418C43.7184 32.3418 39.6647 34.0209 36.6758 37.0098C33.6869 39.9986 32.0078 44.0524 32.0078 48.2793Z" stroke="#FF8800" stroke-width="3" stroke-linecap="round" stroke-linejoin="round"/>
<path d="M55.0478 43.6442L47.3314 53.9345C47.1598 54.1627 46.9412 54.3514 46.6904 54.4879C46.4396 54.6243 46.1625 54.7054 45.8777 54.7255C45.5929 54.7457 45.3071 54.7044 45.0396 54.6046C44.7721 54.5048 44.5291 54.3488 44.3271 54.147L40.3428 50.1626" stroke="#FF8800" stroke-width="3" stroke-linecap="round" stroke-linejoin="round"/>
</svg>
