<svg width="68" height="68" viewBox="0 0 68 68" fill="none" xmlns="http://www.w3.org/2000/svg">
<path d="M32.5833 44.0577C28.2303 41.6701 25.0577 39.7018 25.0577 39.7018C27.9215 42.0398 29.75 45.5981 29.75 49.5833C29.75 56.625 24.0417 62.3333 17 62.3333C9.95837 62.3333 4.25 56.625 4.25 49.5833C4.25 45.3208 6.34169 41.5468 9.55462 39.2319C11.2365 37.859 14.0018 36.0276 17.3549 34C14.0018 31.9723 11.2365 30.141 9.55462 28.7681C6.34169 26.4531 4.25 22.6791 4.25 18.4166C4.25 11.375 9.95837 5.66663 17 5.66663C24.0417 5.66663 29.75 11.375 29.75 18.4166C29.75 22.4019 27.9215 25.9601 25.0577 28.2982C25.0577 28.2982 45.5522 15.5833 53.8333 15.5833C59.9423 15.5833 63.0211 19.143 64.2701 21.1457C64.7013 21.8373 64.3205 22.6808 63.5456 22.934C59.3052 24.3193 46.2774 28.6907 34 34C38.826 36.087 43.7681 38.029 48.2467 39.7018M21.25 18.4166C21.25 20.7639 19.3473 22.6666 17 22.6666C14.6527 22.6666 12.75 20.7639 12.75 18.4166C12.75 16.0694 14.6527 14.1666 17 14.1666C19.3473 14.1666 21.25 16.0694 21.25 18.4166ZM21.25 49.5833C21.25 47.236 19.3473 45.3333 17 45.3333C14.6527 45.3333 12.75 47.236 12.75 49.5833C12.75 51.9306 14.6527 53.8333 17 53.8333C19.3473 53.8333 21.25 51.9306 21.25 49.5833Z" stroke="#FF8620" stroke-width="3" stroke-linecap="round" stroke-linejoin="round"/>
<path d="M43.9163 46.75H41.083" stroke="#FF8620" stroke-width="3" stroke-linecap="round" stroke-linejoin="round"/>
<path d="M53.8333 46.75H51" stroke="#FF8620" stroke-width="3" stroke-linecap="round" stroke-linejoin="round"/>
<path d="M63.7503 46.75H60.917" stroke="#FF8620" stroke-width="3" stroke-linecap="round" stroke-linejoin="round"/>
</svg>
