<svg width="26" height="26" viewBox="0 0 26 26" fill="none" xmlns="http://www.w3.org/2000/svg">
<path d="M21.6667 21.6666L17.2792 17.2791M17.2792 17.2791C17.9834 16.5749 18.5421 15.7389 18.9232 14.8188C19.3043 13.8987 19.5004 12.9125 19.5004 11.9166C19.5004 10.9207 19.3043 9.93454 18.9232 9.01444C18.5421 8.09434 17.9834 7.25832 17.2792 6.55411C16.575 5.84989 15.739 5.29128 14.8189 4.91016C13.8988 4.52904 12.9126 4.33289 11.9167 4.33289C10.9208 4.33289 9.93466 4.52904 9.01456 4.91016C8.09446 5.29128 7.25844 5.84989 6.55423 6.55411C5.132 7.97633 4.33301 9.90528 4.33301 11.9166C4.33301 13.9279 5.132 15.8569 6.55423 17.2791C7.97645 18.7013 9.9054 19.5003 11.9167 19.5003C13.9281 19.5003 15.857 18.7013 17.2792 17.2791Z" stroke="#8C31F9" stroke-width="1.33333" stroke-linecap="round" stroke-linejoin="round"/>
</svg>
