<svg width="16" height="16" viewBox="0 0 16 16" fill="none" xmlns="http://www.w3.org/2000/svg">
<g clip-path="url(#clip0_561_8949)">
<path d="M12.6664 9.33332C12.2195 9.3342 11.7773 9.42496 11.3661 9.60018C10.955 9.77541 10.5833 10.0315 10.2731 10.3533L6.61308 8.51999C6.64469 8.34835 6.66253 8.17446 6.66641 7.99999C6.66253 7.82551 6.64469 7.65162 6.61308 7.47999L10.2731 5.64665C10.8116 6.20217 11.5266 6.55304 12.2955 6.63913C13.0644 6.72523 13.8393 6.54117 14.4873 6.11851C15.1354 5.69585 15.6162 5.06093 15.8474 4.32258C16.0786 3.58423 16.0458 2.78846 15.7545 2.07167C15.4633 1.35489 14.9317 0.761749 14.2511 0.393934C13.5704 0.0261193 12.783 -0.0934582 12.0238 0.0557014C11.2646 0.204861 10.5809 0.613467 10.09 1.21147C9.5991 1.80947 9.3315 2.55962 9.33308 3.33332C9.33697 3.5078 9.3548 3.68169 9.38641 3.85332L5.72641 5.68665C5.26526 5.20824 4.67164 4.87857 4.02177 4.73997C3.3719 4.60137 2.69544 4.66016 2.07922 4.9088C1.46301 5.15744 0.935167 5.58458 0.563465 6.13538C0.191763 6.68618 -0.00683594 7.3355 -0.00683594 7.99999C-0.00683594 8.66447 0.191763 9.31379 0.563465 9.86459C0.935167 10.4154 1.46301 10.8425 2.07922 11.0912C2.69544 11.3398 3.3719 11.3986 4.02177 11.26C4.67164 11.1214 5.26526 10.7917 5.72641 10.3133L9.38641 12.1467C9.3548 12.3183 9.33697 12.4922 9.33308 12.6667C9.33308 13.3259 9.52858 13.9704 9.89485 14.5186C10.2611 15.0667 10.7817 15.494 11.3908 15.7462C11.9999 15.9985 12.6701 16.0646 13.3167 15.9359C13.9633 15.8073 14.5573 15.4898 15.0234 15.0237C15.4896 14.5575 15.8071 13.9636 15.9357 13.317C16.0643 12.6703 15.9983 12.0001 15.746 11.391C15.4937 10.782 15.0665 10.2614 14.5183 9.89509C13.9701 9.52882 13.3257 9.33332 12.6664 9.33332Z" fill="#8C31F9"/>
</g>
<defs>
<clipPath id="clip0_561_8949">
<rect width="16" height="16" fill="white"/>
</clipPath>
</defs>
</svg>
