<svg width="17" height="17" viewBox="0 0 17 17" fill="none" xmlns="http://www.w3.org/2000/svg">
<path d="M7.61226 1.22327C7.91666 0.646329 8.74294 0.64633 9.04734 1.22327L10.9953 4.91532C11.1127 5.13781 11.3266 5.29326 11.5745 5.33615L15.6878 6.04786C16.3306 6.15907 16.5859 6.94491 16.1313 7.4127L13.2219 10.4062C13.0466 10.5866 12.9648 10.8381 13.0006 11.0871L13.5948 15.219C13.6877 15.8647 13.0192 16.3504 12.4338 16.0626L8.68778 14.2206C8.46204 14.1096 8.19757 14.1096 7.97182 14.2206L4.22577 16.0626C3.64038 16.3504 2.97191 15.8647 3.06476 15.219L3.65897 11.0871C3.69478 10.8381 3.61306 10.5866 3.43773 10.4062L0.528329 7.4127C0.0736873 6.94491 0.329024 6.15907 0.971795 6.04786L5.08509 5.33615C5.33297 5.29326 5.54693 5.13781 5.66431 4.91532L7.61226 1.22327Z" fill="#FF9A26"/>
</svg>
