<svg width="14" height="14" viewBox="0 0 14 14" fill="none" xmlns="http://www.w3.org/2000/svg">
<path d="M8.27858 1.52148L11.7228 1.52148C12.1883 1.52148 12.5657 1.89889 12.5657 2.36445L12.5657 5.80862C12.5657 6.03219 12.4769 6.2466 12.3188 6.40469L6.62881 12.0947C6.29961 12.4239 5.76588 12.4239 5.43667 12.0947L1.9925 8.65053C1.66331 8.32133 1.66331 7.78759 1.9925 7.45839L7.68252 1.76838C7.8406 1.6103 8.05501 1.52148 8.27858 1.52148Z" stroke="#8C17FF" stroke-width="0.847314" stroke-linecap="round" stroke-linejoin="round"/>
<path d="M9.8292 4.68281C9.59642 4.68281 9.40771 4.4941 9.40771 4.26133C9.40771 4.02855 9.59642 3.83984 9.8292 3.83984C10.0619 3.83984 10.2507 4.02855 10.2507 4.26133C10.2507 4.4941 10.0619 4.68281 9.8292 4.68281Z" stroke="#8C17FF" stroke-width="0.847314" stroke-linecap="round" stroke-linejoin="round"/>
</svg>
