<svg width="49" height="48" viewBox="0 0 49 48" fill="none" xmlns="http://www.w3.org/2000/svg">
<path d="M19.223 13.7515C18.9997 12.4427 19.6771 11.3621 20.854 10.7475C25.0417 8.5605 30.7527 6.05959 37.1562 4.08771C39.0283 3.51119 40.984 4.47069 41.6202 6.32343C42.2034 8.0221 42.9635 10.4321 43.8189 13.6248C44.6744 16.8175 45.2212 19.2847 45.5655 21.0474C45.9409 22.97 44.727 24.7788 42.8174 25.2156C36.2859 26.7096 30.0895 27.3993 25.3694 27.5992C24.0428 27.6554 22.916 27.0582 22.455 25.8131C22.0302 24.666 21.4348 22.8151 20.6367 19.8365C19.8386 16.8579 19.4288 14.9573 19.223 13.7515Z" stroke="#FF8620" stroke-width="3" stroke-linejoin="round"/>
<path d="M19.3513 14.4541C15.6525 15.9815 11.6906 17.5905 8.88672 18.6568" stroke="#FF8620" stroke-width="3" stroke-linejoin="round"/>
<path d="M11.0508 26.7333C14.0122 26.2548 18.2478 25.6673 22.2148 25.1406" stroke="#FF8620" stroke-width="3" stroke-linejoin="round"/>
<path d="M8.64959 17.8652C8.3448 16.8669 7.48379 16.199 6.46121 16.4083C6.25584 16.4503 6.03058 16.503 5.78493 16.5688C5.53927 16.6346 5.31785 16.7016 5.11898 16.7679C4.12876 17.098 3.71706 18.1069 3.95224 19.1238C4.18544 20.1322 4.56689 21.6823 5.18185 23.9774C5.79681 26.2724 6.24149 27.8055 6.54373 28.7954C6.84853 29.7937 7.70953 30.4616 8.73211 30.2523C8.93748 30.2103 9.16274 30.1576 9.4084 30.0918C9.65405 30.026 9.87547 29.959 10.0743 29.8927C11.0646 29.5626 11.4763 28.5537 11.2411 27.5368C11.0079 26.5284 10.6265 24.9783 10.0115 22.6833C9.39652 20.3882 8.95183 18.8551 8.64959 17.8652Z" stroke="#FF8620" stroke-width="3" stroke-linejoin="round"/>
<path d="M21.5 45L29.5 28L37.5 45" stroke="#FF8620" stroke-width="3" stroke-linecap="round" stroke-linejoin="round"/>
</svg>
