<svg width="22" height="22" viewBox="0 0 22 22" fill="none" xmlns="http://www.w3.org/2000/svg">
<path d="M15.5835 3.06124C16.9661 3.85953 18.1162 5.00506 18.92 6.38443C19.7238 7.76381 20.1534 9.3292 20.1663 10.9256C20.1792 12.5221 19.7749 14.0942 18.9935 15.4864C18.2121 16.8786 17.0806 18.0425 15.7111 18.863C14.3416 19.6835 12.7816 20.1322 11.1854 20.1645C9.58926 20.1968 8.01233 19.8116 6.61075 19.0472C5.20918 18.2828 4.03154 17.1656 3.19444 15.8061C2.35734 14.4467 1.88979 12.8922 1.83808 11.2966L1.8335 10.9996L1.83808 10.7026C1.88942 9.11948 2.35008 7.57671 3.17517 6.22465C4.00025 4.8726 5.1616 3.75741 6.54598 2.9878C7.93037 2.2182 9.49055 1.82044 11.0744 1.83331C12.6583 1.84618 14.2118 2.26924 15.5835 3.06124ZM11.0002 5.49958C10.7756 5.49961 10.5589 5.58204 10.3912 5.73123C10.2234 5.88043 10.1162 6.08601 10.0899 6.30899L10.0835 6.41624V10.9996L10.0917 11.1197C10.1126 11.2787 10.1749 11.4295 10.2723 11.5569L10.3521 11.6486L13.1021 14.3986L13.1882 14.4737C13.349 14.5985 13.5467 14.6662 13.7502 14.6662C13.9536 14.6662 14.1513 14.5985 14.3121 14.4737L14.3982 14.3977L14.4743 14.3115C14.5991 14.1507 14.6668 13.953 14.6668 13.7496C14.6668 13.5461 14.5991 13.3484 14.4743 13.1877L14.3982 13.1015L11.9168 10.6192V6.41624L11.9104 6.30899C11.8841 6.08601 11.777 5.88043 11.6092 5.73123C11.4414 5.58204 11.2247 5.49961 11.0002 5.49958Z" fill="#8C31F9"/>
</svg>
