<svg width="25" height="25" viewBox="0 0 25 25" fill="none" xmlns="http://www.w3.org/2000/svg">
<g clip-path="url(#clip0_398_19479)">
<path d="M24.7298 7.7446C24.7298 7.7446 24.4904 6.0542 23.7529 5.31196C22.8191 4.33507 21.7752 4.33028 21.2963 4.27281C17.8677 4.0238 12.7198 4.0238 12.7198 4.0238H12.7103C12.7103 4.0238 7.56244 4.0238 4.13375 4.27281C3.65489 4.33028 2.61096 4.33507 1.67717 5.31196C0.93971 6.0542 0.705065 7.7446 0.705065 7.7446C0.705065 7.7446 0.456055 9.7319 0.456055 11.7144V13.5724C0.456055 15.5549 0.700277 17.5422 0.700277 17.5422C0.700277 17.5422 0.93971 19.2326 1.67238 19.9749C2.60617 20.9517 3.83207 20.9182 4.37797 21.0236C6.34133 21.2103 12.715 21.2678 12.715 21.2678C12.715 21.2678 17.8677 21.2582 21.2963 21.014C21.7752 20.9565 22.8191 20.9517 23.7529 19.9749C24.4904 19.2326 24.7298 17.5422 24.7298 17.5422C24.7298 17.5422 24.974 15.5597 24.974 13.5724V11.7144C24.974 9.7319 24.7298 7.7446 24.7298 7.7446ZM10.1818 15.8279V8.93698L16.8046 12.3944L10.1818 15.8279Z" fill="#FF8800"/>
</g>
<defs>
<clipPath id="clip0_398_19479">
<rect width="24.518" height="24.518" fill="white" transform="translate(0.456055 0.38916)"/>
</clipPath>
</defs>
</svg>
