<svg width="20" height="20" viewBox="0 0 20 20" fill="none" xmlns="http://www.w3.org/2000/svg">
<g clip-path="url(#clip0_8741_62773)">
<path d="M4.16662 11.6667H15.1131C15.9571 11.6667 16.3791 11.6667 16.715 11.5094C17.011 11.3708 17.2597 11.1482 17.4301 10.8694C17.6236 10.5529 17.6702 10.1334 17.7634 9.29457L18.2509 4.90704C18.2794 4.65082 18.2936 4.52271 18.2524 4.42355C18.2162 4.33646 18.1516 4.26422 18.069 4.21865C17.975 4.16675 17.8461 4.16675 17.5883 4.16675H3.74995M1.6665 1.66675H2.70687C2.92739 1.66675 3.03765 1.66675 3.12391 1.70869C3.19985 1.7456 3.26278 1.80473 3.30437 1.87822C3.3516 1.96169 3.35848 2.07174 3.37224 2.29183L4.12744 14.375C4.14119 14.5951 4.14807 14.7051 4.19531 14.7886C4.23689 14.8621 4.29982 14.9212 4.37576 14.9581C4.46203 15.0001 4.57229 15.0001 4.7928 15.0001H15.8332M6.24984 17.9167H6.25817M13.7498 17.9167H13.7582M6.6665 17.9167C6.6665 18.1469 6.47996 18.3334 6.24984 18.3334C6.01972 18.3334 5.83317 18.1469 5.83317 17.9167C5.83317 17.6866 6.01972 17.5001 6.24984 17.5001C6.47996 17.5001 6.6665 17.6866 6.6665 17.9167ZM14.1665 17.9167C14.1665 18.1469 13.98 18.3334 13.7498 18.3334C13.5197 18.3334 13.3332 18.1469 13.3332 17.9167C13.3332 17.6866 13.5197 17.5001 13.7498 17.5001C13.98 17.5001 14.1665 17.6866 14.1665 17.9167Z" stroke="white" stroke-width="2" stroke-linecap="round" stroke-linejoin="round"/>
</g>
<defs>
<clipPath id="clip0_8741_62773">
<rect width="20" height="20" fill="white"/>
</clipPath>
</defs>
</svg>
