<svg xmlns="http://www.w3.org/2000/svg" width="70" height="70" version="1.2" viewBox="0 0 29 29">
	<path fill="none" stroke="#00ac8d" stroke-linecap="round" stroke-linejoin="round" stroke-width="1.5" d="m14 15l6-6"/>
	<path fill="none" stroke="#00ac8d" stroke-linecap="round" stroke-linejoin="round" stroke-width="1.5" d="m28 5h-4v-4l-4 4v4h4z"/>
	<path fill="none" stroke="#00ac8d" stroke-linecap="round" stroke-linejoin="round" stroke-width="1.5" d="m14 21c-3.3 0-6-2.7-6-6 0-3.3 2.7-6 6-6 3.3 0 6 2.7 6 6 0 3.3-2.7 6-6 6z"/>
	<path fill-rule="evenodd" fill="none" stroke="#00ac8d" stroke-linecap="round" stroke-linejoin="round" stroke-width="1.5" d="m25 8c1.3 2 2 4.4 2 7 0 7.2-5.8 13-13 13-7.2 0-13-5.8-13-13 0-7.2 5.8-13 13-13 2.6 0 5 0.7 7 2"/>
</svg>