<svg width="65" height="70" version="1.2" xmlns="http://www.w3.org/2000/svg" viewBox="0 0 113 123">
	<g>
		<path fill-rule="evenodd" fill="#00ac8d" d="m44.1 102.1c-1.1 0-2.1-0.8-2.3-2-0.1-1.2 0.7-2.3 1.9-2.5-1.3-7.4-4.9-11.5-8.6-15.8-3-3.3-6-6.8-8.4-11.9-2.3-5-3.6-10.2-3.6-15.6 0.1-5.4 1.4-11 4.4-16.7q0-0.1 0.1-0.1c3.9-6.6 9.4-11.1 15.4-13.5 5.2-2.1 10.7-2.8 16.1-2.3 5.5 0.5 10.8 2.2 15.4 4.9 5.9 3.5 10.8 8.7 13.4 15.2 1.5 3.5 2.5 7.5 2.6 11.8 0.1 4.3-0.6 9-2.6 13.9-2.7 6.6-6.2 10.7-9.5 14.5-3 3.6-5.9 6.8-7.4 11.9 0.9 0.2 1.6 0.9 1.7 1.9 0.2 1.2-0.7 2.4-1.9 2.5l-0.8 0.1q-0.2 1.7-0.3 3.5h0.3c1.2-0.2 2.4 0.7 2.5 1.9 0.2 1.3-0.7 2.4-1.9 2.6l-0.8 0.1q0 0.2 0.1 0.5 0.1 1.3 0 2.5h0.1c1.3-0.2 2.4 0.7 2.6 2 0.1 1.2-0.8 2.3-2 2.5l-1.7 0.2c-1.2 3.1-3.4 5.5-5.9 7-1.7 1-3.7 1.5-5.6 1.7-2 0.1-4-0.3-5.8-1.2-2-1-3.9-2.7-5.3-5.1-0.6-0.3-1.1-1-1.2-1.8q0-0.4 0.1-0.8-0.6-1.8-0.9-3.9h-0.1c-1.2 0.2-2.3-0.7-2.5-1.9-0.2-1.2 0.7-2.4 1.9-2.6h0.6q0-1.9-0.1-3.5zm3.8-5.1l18.5-2.7c1.6-6.7 5-10.7 8.8-15 3-3.6 6.3-7.5 8.7-13.4 1.8-4.3 2.4-8.4 2.3-12.2-0.1-3.7-0.9-7.2-2.2-10.3-2.3-5.7-6.5-10.1-11.6-13.2-4.2-2.4-8.8-3.9-13.6-4.3-4.8-0.5-9.7 0.2-14.2 2-5.2 2.1-10 5.9-13.4 11.7-2.6 5.1-3.8 10-3.9 14.7 0 4.8 1.1 9.4 3.2 13.8 2.2 4.6 5 7.8 7.7 11 4.3 4.8 8.3 9.4 9.7 17.9zm-45.7-38.1c-1.2 0-2.2-0.9-2.2-2.1 0-1.2 0.9-2.1 2-2.2l8.7-0.3c1.2 0 2.2 0.9 2.2 2.1 0.1 1.2-0.9 2.1-2 2.2zm108.5-8.6c1.1-0.2 2.2 0.7 2.3 1.8 0.1 1.2-0.7 2.2-1.9 2.4l-8.6 0.9c-1.2 0.1-2.2-0.8-2.4-1.9-0.1-1.2 0.8-2.2 1.9-2.3zm-15.7-35.5c0.6-1 1.9-1.2 2.9-0.6 1 0.7 1.2 2 0.6 2.9l-4.9 7.3c-0.6 1-1.9 1.2-2.9 0.6-1-0.7-1.2-2-0.6-3zm-37.3-12.7c0.1-1.2 1-2.1 2.2-2 1.2 0 2.1 1 2 2.1l-0.2 8.7c0 1.2-1 2.1-2.1 2.1-1.2-0.1-2.1-1-2.1-2.2zm-43.7 13.5c-0.9-0.8-0.9-2.2-0.1-3 0.8-0.9 2.1-0.9 2.9-0.1l6.4 5.9c0.9 0.8 0.9 2.2 0.1 3-0.8 0.9-2.1 0.9-3 0.1zm56.3 25.5l2.8 2.8c0.8 0.8 0.8 2 0 2.8l-2.3 2.3q1 1.8 1.5 3.8h2.9c1.1 0 2 0.8 2 1.9v4.1c0 1-0.9 1.9-2 1.9h-3.2q-0.6 2-1.7 3.7l2.1 2.1c0.7 0.8 0.7 2 0 2.8l-2.9 2.8c-0.7 0.8-1.9 0.8-2.7 0l-2.3-2.3q-1.8 1-3.8 1.4v3c0 1.1-0.9 2-2 2h-4c-1.1 0-1.9-0.9-1.9-2v-3.2q-2-0.6-3.8-1.7l-2.1 2.1c-0.7 0.7-1.9 0.7-2.7 0l-2.9-2.9c-0.7-0.7-0.7-2 0-2.7l2.3-2.3q-0.9-1.8-1.4-3.8h-3c-1 0-1.9-0.9-1.9-2v-4c0-1.1 0.9-1.9 1.9-1.9h3.3q0.6-2 1.7-3.8l-2.1-2.1c-0.8-0.7-0.8-2 0-2.7l2.8-2.9c0.8-0.7 2-0.7 2.8 0l2.3 2.3q1.8-0.9 3.8-1.4v-3c0-1 0.9-1.9 1.9-1.9h4.1c1 0 1.9 0.9 1.9 1.9v3.3q2 0.6 3.7 1.7l2.1-2.1c0.8-0.8 2-0.8 2.8 0zm-4.5 58l-17.3 2.5q0.1 1.6 0.1 3.4l17-2.4q0-1.8 0.2-3.5zm-17.2 10.5q0.2 1.4 0.6 2.6l16.5-2.1q0.2-1.3 0.1-2.7v-0.2zm2.8 6.8q1 1 2.1 1.6c1.2 0.5 2.5 0.8 3.7 0.7 1.3-0.1 2.6-0.5 3.8-1.1 1.1-0.7 2-1.6 2.8-2.7zm-2.2-60.2c0 4.4 3.6 7.9 8 7.9 4.4 0 7.9-3.5 7.9-7.9 0-4.4-3.6-8-7.9-8-4.4 0-8 3.6-8 8z"/>
	</g>
</svg>