<svg width="77" height="70" version="1.2" xmlns="http://www.w3.org/2000/svg" viewBox="0 0 22 20">
	<path fill-rule="evenodd" fill="#00ac8d" d="m21.7 14.6c0.5 1.2 0.3 2.6-0.5 3.7-0.8 1.1-2 1.7-3.3 1.6-1.3 0-2.5-0.7-3.2-1.8q-0.9 0.4-1.8 0.7-0.9 0.2-1.9 0.2-1 0-1.9-0.2-0.9-0.3-1.8-0.7c-0.7 1.1-1.9 1.8-3.2 1.8-1.3 0.1-2.6-0.5-3.3-1.6-0.8-1.1-1-2.5-0.5-3.7 0.5-1.2 1.5-2.1 2.8-2.4q-0.2-1.2 0-2.4 0.2-1.2 0.7-2.3 0.5-1.1 1.4-2 0.8-0.9 1.9-1.4 0-0.1-0.1-0.1c0-1 0.5-2.1 1.2-2.8 0.7-0.7 1.8-1.2 2.8-1.2 1 0 2.1 0.5 2.8 1.2 0.7 0.7 1.2 1.8 1.2 2.8q-0.1 0-0.1 0.1 1.1 0.5 1.9 1.4 0.9 0.9 1.4 2 0.5 1.1 0.7 2.3 0.2 1.2 0 2.4c1.3 0.3 2.3 1.2 2.8 2.4zm-11.8-13.3q-0.6 0.2-1 0.6-0.4 0.4-0.6 1-0.2 0.5-0.2 1.1c0 1.2 0.7 2.3 1.8 2.7 1.1 0.5 2.3 0.2 3.2-0.6 0.8-0.9 1.1-2.1 0.6-3.2-0.4-1.1-1.5-1.8-2.7-1.8q-0.6 0-1.1 0.2zm-4.8 17.4q0.6-0.2 1-0.6 0.4-0.4 0.6-1 0.2-0.5 0.2-1.1c0-1.2-0.7-2.3-1.8-2.7-1.1-0.5-2.3-0.2-3.2 0.6-0.8 0.9-1.1 2.1-0.6 3.2 0.4 1.1 1.5 1.8 2.7 1.8q0.6 0 1.1-0.2zm4.2-0.9q0.9 0.2 1.7 0.2 0.8 0 1.7-0.2 0.8-0.2 1.6-0.6-0.1-0.2-0.1-0.3-0.1-0.1-0.1-0.3 0-0.1 0-0.3-0.1-0.1-0.1-0.3 0.1-0.8 0.3-1.5 0.3-0.7 0.9-1.3 0.5-0.5 1.2-0.8 0.7-0.3 1.5-0.3 0-0.2 0.1-0.3 0-0.1 0-0.3 0-0.1 0-0.2 0-0.2 0-0.3 0-0.9-0.2-1.7-0.2-0.9-0.7-1.7-0.4-0.7-1-1.4-0.6-0.6-1.3-1.1c-0.3 0.8-0.8 1.6-1.4 2.1-0.7 0.5-1.5 0.8-2.4 0.8-0.9 0-1.7-0.3-2.4-0.8-0.6-0.5-1.1-1.3-1.4-2.1q-0.7 0.5-1.3 1.1-0.6 0.7-1 1.4-0.5 0.8-0.7 1.7-0.2 0.8-0.2 1.7 0 0.1 0 0.3 0 0.1 0 0.2 0 0.2 0 0.3 0.1 0.1 0.1 0.3 0.8 0 1.5 0.3 0.7 0.3 1.2 0.8 0.6 0.6 0.9 1.3 0.2 0.7 0.3 1.5 0 0.2-0.1 0.3 0 0.2 0 0.3 0 0.2-0.1 0.3 0 0.1 0 0.3 0.7 0.4 1.5 0.6zm9.8 0.9q0.6-0.2 1-0.6 0.4-0.4 0.6-1 0.2-0.5 0.2-1.1c0-1.2-0.7-2.3-1.8-2.7-1.1-0.5-2.3-0.2-3.2 0.6-0.8 0.9-1.1 2.1-0.6 3.2 0.4 1.1 1.5 1.8 2.7 1.8q0.6 0 1.1-0.2z"/>
	<path fill-rule="evenodd" fill="none" d="m-1-1h24v24h-24z"/>
</svg>