<svg width="97" height="70" version="1.2" xmlns="http://www.w3.org/2000/svg" viewBox="0 0 512 371">
	<path fill-rule="evenodd" fill="#00ac8d" d="m387.9 153.1q0-3.2 0.4-6l-21.8-14.5c-3.1-2.1-6.5-4.5-10-6.9-5.8-4.1-11.8-8.3-17.9-11.9q3.2-5.6 5.6-11.6c6.8 3.9 13.3 8.5 19.7 13 3.2 2.2 6.3 4.4 9.8 6.7l19.3 12.9q1.5-2 3.4-3.7c5.5-5 13.4-7.5 23.6-7.5h55.1c11.5 0 20.9 2.1 27.4 7.1 7.2 5.6 10.6 14 9.2 26.2l-12.2 125.9c-0.9 11.2-3.9 20-9.2 26.1-5.6 6.5-13.4 9.7-23.7 9.2h-49.5c-7 0.4-12.9-1.5-17.8-5.4-3.6-2.9-6.6-6.8-9-11.8h-17.1c2.3 6.8 2.2 13.2 0.3 18.9-1.9 5.8-5.5 10.8-10.3 14.6-4.6 3.6-10.2 6.1-16.1 7.1-5.7 0.9-11.7 0.4-17.3-1.9-6.5 6.8-13.4 11.1-20.5 13-7.2 2-14.4 1.6-21.8-1-7 7.8-14.7 12.6-23.2 14.5-8.6 1.8-17.8 0.5-27.6-4.1q-4.5 3.6-9.5 5.7-7.1 2.9-14.8 2.7c-12.3-0.4-20.7-4.1-27.3-10-6.3-5.6-10.5-12.9-15.3-21.2l-27.3-47.6h-21.2c-1.2 6.1-3.4 11.3-6.6 15.5-5.4 6.9-13.3 10.6-24.3 10.4h-46.2c-9.2 1.5-17-0.8-23.1-7.9-5.5-6.3-9.2-16.5-10.8-31.5l-0.1-0.6-9.5-118.3c-1.9-12.7 0.2-21.8 5.3-27.9 5.2-6.2 13-9.1 22.6-9.5l0.8-0.1h58.5v0.1c9.2-0.1 17.2 1.4 23.2 5.3 4.9 3.1 8.3 7.6 10.1 13.6h39.8c10-6.8 19.4-12.1 29.8-15.3q2.3-0.7 4.6-1.3 3.2 4 6.8 7.6 0.5 0.5 0.9 0.9 0.5 0.5 1 0.9 0.4 0.5 0.9 0.9 0.5 0.4 1 0.9c-4 0.4-7.8 1.2-11.4 2.4-9.4 2.9-18.1 8-27.6 14.5-1.1 0.8-2.5 1.3-4 1.3h-40.5v125.2h23.7c2.5 0 4.7 1.4 5.7 3.5l29.1 50.6c4.2 7.4 8 13.8 12.7 18.1 4.4 3.9 10.2 6.4 19.1 6.6q5 0.2 9.5-1.7 2.8-1.2 5.5-3.1l-18.9-35.4q-0.6-1.1-0.7-2.4-0.1-1.3 0.2-2.5 0.4-1.2 1.2-2.2 0.8-1 1.9-1.6 1.2-0.6 2.4-0.7 1.3-0.1 2.5 0.2 1.2 0.4 2.2 1.2 1 0.8 1.6 1.9l20.6 38.5c7.6 3.9 14.6 5.1 20.8 3.8 5.7-1.3 11.1-4.7 16.1-10.2l-29.6-46.5q-0.7-1.1-0.9-2.4-0.2-1.2 0.1-2.5 0.3-1.2 1-2.2 0.7-1.1 1.8-1.8 1.1-0.7 2.3-0.9 1.3-0.2 2.5 0.1 1.3 0.3 2.3 1 1.1 0.7 1.7 1.8l31.3 49c5.4 2.2 10.7 2.7 15.7 1.4 4.8-1.4 9.6-4.4 14.4-9.4l-28.3-53.2c-1.7-3.2-0.5-7.1 2.6-8.7q1.2-0.6 2.4-0.8 1.3-0.1 2.5 0.3 1.3 0.4 2.3 1.2 0.9 0.8 1.6 1.9l29.2 55.1c3.8 2.2 8.2 2.8 12.5 2.1 3.7-0.6 7.2-2.2 10.1-4.5 2.8-2.2 5-5.1 6.1-8.4 1.2-3.7 1.1-7.9-1-12.6q-0.1-0.3-0.2-0.7-0.1-0.3-0.2-0.7-0.1-0.4-0.1-0.8 0-0.4 0-0.7-0.6-0.3-1.2-0.8-0.6-0.4-1.1-1-0.5-0.5-0.8-1.1-0.4-0.7-0.5-1.4l-64.3-115.9c-7.1-11.9-13.5-12.2-19.8-8.5-4.4 2.6-9 6.9-13.7 11.1-2.8 2.6-5.6 5.2-7.9 7.1l-11.4 9.4c-8 6.3-16.9 9.7-25.4 10.4-5.6 0.5-11.1-0.3-16.1-2.1-5.1-1.9-9.5-5-12.9-9.2-3.7-4.6-6.1-10.3-6.6-17.2-0.2-1.9 0.5-3.8 1.8-5l31-36.9c3.4 2.6 7 5 10.8 7.1l-30.5 36.2c0.6 3.1 1.8 5.7 3.5 7.7 1.9 2.4 4.5 4.2 7.4 5.3 3.1 1.1 6.7 1.6 10.5 1.3 6.1-0.5 12.6-3 18.4-7.6l11.3-9.3c2.8-2.3 5.1-4.5 7.5-6.6 5.2-4.8 10.3-9.5 15.7-12.7 12.6-7.5 25.1-7.8 37.5 13l63.4 114.3h21.5zm-374.4 5l9.6 118.7c1.2 12.2 3.9 20.1 7.6 24.4 3 3.5 7 4.5 11.9 3.6q0.6-0.1 1.1-0.1l46.3-0.1 0.7 0.1c6.5 0.1 11-1.9 13.8-5.5 3.3-4.2 4.9-10.9 5.1-19.5v-130.8q-0.2-0.8-0.2-1.8 0-0.2 0-0.5c-0.7-4.1-2.6-7-5.3-8.7-3.7-2.4-9.3-3.3-16.1-3.3h-0.1v0.1h-58.8c-6 0.2-10.6 1.7-13.2 4.8-2.8 3.4-3.8 9.1-2.5 18.1zm250-158.2c38.9 0 70.4 31.6 70.4 70.4 0 38.9-31.5 70.4-70.4 70.4-38.9 0-70.4-31.5-70.4-70.4 0-38.9 31.6-70.4 70.4-70.4zm-20.2 63.6l-19.9 4.5 3.2 2.2c6.9 4.7 11.9 9.7 16 15.3 4.2 5.6 7.5 11.9 11 19.5l1.5 3.1 1.6-3.1c6.8-13.1 13-23.2 19.9-32.8 7-9.6 14.8-18.6 24.6-29.5l2.5-2.9h-18.8l-0.3 0.2c-3.6 1.4-8.9 6.1-14.1 11.8-6.4 6.7-12.8 14.8-16.2 19.8q-0.5-0.5-1-1-0.5-0.5-1-0.9-0.5-0.5-1-0.9-0.5-0.4-1.1-0.9c-1.8-1.4-3.9-2.7-6.3-4.1zm-177.6 186.2c6.1 0 11.1 4.9 11.1 11 0 6.1-5 11.1-11.1 11.1-6.1 0-11.1-5-11.1-11.1 0-6.1 5-11 11.1-11zm367.7 11c0 6.1 5 11.1 11.1 11.1 6.1 0 11.1-5 11.1-11.1 0-6.1-5-11-11.1-11-6.1 0-11.1 4.9-11.1 11z"/>
</svg>