<svg xmlns="http://www.w3.org/2000/svg" width="57" height="50" viewBox="0 0 121 107" fill="none">
<path d="M12.094 67.2401L0 73.7589L60.5 106.369L121 73.7589L108.866 67.2188L101.632 71.1182L106.531 73.7589L60.5 98.5697L14.4692 73.7589L19.2471 71.1836L12.094 67.2401Z" fill="#00ac8d"></path>
<path d="M45.4008 49.293L52.6128 53.1704L26.3402 67.3605L19.1055 63.461L45.4008 49.293Z" fill="#00ac8d"></path>
<path d="M75.6455 49.2695L68.4263 53.1827L94.725 67.3584L101.96 63.4589L75.6455 49.2695Z" fill="#00ac8d"></path>
<path d="M0 53.2509L60.5 85.8607L121 53.2509L108.866 46.7109L101.632 50.6104L106.531 53.2509L60.5 78.0617L14.4692 53.2509L19.2471 50.6756L12.094 46.7323L0 53.2509Z" fill="#00ac8d"></path>
<path d="M60.5447 20.6211L101.847 42.9215L94.6141 46.8221L60.499 28.4377L60.5447 20.6211Z" fill="#00ac8d"></path>
<path d="M60.5457 20.6211L19.2021 42.9145L26.4347 46.815L60.6025 28.3984L60.5457 20.6211Z" fill="#00ac8d"></path>
<path fill-rule="evenodd" clip-rule="evenodd" d="M60.5 65.2195L0 32.6098L60.5 0L121 32.6098L60.5 65.2195ZM60.5 57.4206L14.4692 32.6098L60.5 7.79899L106.531 32.6098L60.5 57.4206Z" fill="#00ac8d"></path>
</svg>