<svg width="45" height="50" version="1.2" xmlns="http://www.w3.org/2000/svg" viewBox="0 0 156 163">
	<path fill-rule="evenodd" fill="#00ac8d" d="m119.8 54.3c12.9 1.9 24.1 9.8 30.4 21.2 6.4 11.4 7.1 25.1 2 37.1-5.1 12-15.5 20.9-28.1 24.3-12.6 3.3-26.1 0.6-36.4-7.3l-15.7 15.7q0.1 0.4 0.3 0.9 0.1 0.5 0.2 1 0 0.5 0.1 1 0 0.5 0 1c0 5.5-3.3 10.6-8.5 12.7-5.1 2.1-11 0.9-14.9-3-4-3.9-5.2-9.8-3-15 2.1-5.1 7.1-8.5 12.7-8.5q0.5 0 1 0.1 0.5 0 1 0.1 0.5 0.1 0.9 0.2 0.5 0.1 1 0.3l15.9-15.9c-2.5-3.4-4.4-7.2-5.7-11.2-1.3-4-2-8.2-2-12.4-0.1-4.3 0.5-8.5 1.7-12.5 1.2-4.1 3-7.9 5.3-11.4l-52-40.5c-7 4-15.9 2.5-21.2-3.6-5.3-6-5.6-15-0.6-21.4 4.9-6.4 13.6-8.4 20.8-4.8 7.2 3.5 10.9 11.7 8.9 19.5l52.9 41.2q2.2-1.7 4.5-3.2 2.4-1.4 4.9-2.5 2.6-1.1 5.2-1.9 2.7-0.8 5.4-1.2v-19.3q-1.9-0.9-3.5-2.3-1.6-1.4-2.7-3.1-1.2-1.8-1.8-3.8-0.5-2.1-0.6-4.2v-0.4c0-2 0.4-3.9 1.2-5.7 0.7-1.8 1.8-3.4 3.2-4.8 1.4-1.4 3-2.5 4.8-3.2 1.8-0.8 3.7-1.2 5.7-1.2h0.4c2 0 3.9 0.4 5.7 1.2 1.8 0.7 3.4 1.8 4.8 3.2 1.4 1.4 2.5 3 3.2 4.8 0.8 1.8 1.1 3.7 1.1 5.7v0.4q0 2.1-0.6 4.2-0.6 2-1.7 3.8-1.1 1.7-2.7 3.1-1.6 1.4-3.5 2.3v19.3m-6.5 63.4c2.9 0 5.7-0.6 8.3-1.7 2.6-1.1 5-2.7 7.1-4.7 2-2 3.6-4.4 4.6-7 1.1-2.6 1.7-5.5 1.7-8.3 0-8.8-5.3-16.7-13.4-20-8.1-3.4-17.4-1.6-23.6 4.6-6.2 6.2-8.1 15.5-4.7 23.6 3.3 8.2 11.2 13.4 20 13.5z"/>
</svg>