<svg xmlns="http://www.w3.org/2000/svg" width="48" height="50" viewBox="0 0 102 107" fill="none">
<path d="M37.5599 8.25035C38.0626 5.22302 40.6878 3 43.7598 3H58.2429C61.3149 3 63.9401 5.22302 64.4428 8.25035L65.6325 15.4053C65.9844 17.4943 67.3808 19.237 69.2351 20.2647C69.6485 20.4881 70.0562 20.7283 70.4639 20.9741C72.2736 22.0688 74.4855 22.4095 76.4683 21.6667L83.2659 19.1197C84.6589 18.5958 86.1926 18.5834 87.5939 19.0846C88.9952 19.5858 90.1732 20.5681 90.9179 21.8566L98.1567 34.4071C98.8999 35.6957 99.1618 37.2062 98.8959 38.6698C98.63 40.1333 97.8535 41.4551 96.7045 42.3999L91.1023 47.0191C89.4657 48.3596 88.6558 50.443 88.6949 52.5599C88.7039 53.0346 88.7039 53.5095 88.6949 53.9842C88.6558 56.0955 89.4657 58.1733 91.0967 59.5138L96.7101 64.1386C99.0783 66.0935 99.6927 69.4671 98.1623 72.1258L90.9124 84.6764C90.1686 85.9646 88.992 86.9472 87.5919 87.4494C86.1917 87.9516 84.6588 87.9407 83.2659 87.4188L76.4683 84.8719C74.4855 84.129 72.2792 84.4697 70.4584 85.5645C70.0534 85.8107 69.6437 86.0491 69.2296 86.2794C67.3808 87.3016 65.9844 89.0442 65.6325 91.1332L64.4428 98.2826C63.9401 101.316 61.3149 103.539 58.2429 103.539H43.7542C40.6822 103.539 38.057 101.316 37.5543 98.2882L36.3646 91.1332C36.0183 89.0442 34.622 87.3016 32.7676 86.2738C32.3534 86.0454 31.9437 85.8089 31.5388 85.5645C29.7235 84.4697 27.5172 84.129 25.5288 84.8719L18.7313 87.4188C17.339 87.9412 15.8066 87.9529 14.4065 87.4518C13.0064 86.9506 11.8294 85.9692 11.0848 84.682L3.84043 72.1314C3.09725 70.8428 2.83531 69.3323 3.10123 67.8688C3.36715 66.4052 4.14368 65.0834 5.29265 64.1386L10.9005 59.5194C12.5314 58.1789 13.3413 56.0955 13.3022 53.9786C13.2935 53.5039 13.2935 53.029 13.3022 52.5543C13.3413 50.443 12.5314 48.3652 10.9005 47.0247L5.29265 42.3999C4.14506 41.4554 3.36943 40.1347 3.10355 38.6723C2.83767 37.21 3.09876 35.7007 3.84043 34.4127L11.0848 21.8621C11.8287 20.5727 13.0063 19.5892 14.4077 19.0869C15.8091 18.5847 17.3432 18.5963 18.7369 19.1197L25.5288 21.6667C27.5172 22.4095 29.7235 22.0688 31.5388 20.9741C31.9409 20.7283 32.3543 20.4881 32.7676 20.2591C34.622 19.237 36.0183 17.4943 36.3646 15.4053L37.5599 8.25035Z" stroke="#00ac8d" stroke-width="6" stroke-linecap="round" stroke-linejoin="round"></path>
<path d="M67.7526 53.2711C67.7526 57.7151 65.9872 61.9772 62.8447 65.1196C59.7023 68.2621 55.4402 70.0275 50.9962 70.0275C46.5521 70.0275 42.29 68.2621 39.1476 65.1196C36.0051 61.9772 34.2397 57.7151 34.2397 53.2711C34.2397 48.827 36.0051 44.5649 39.1476 41.4225C42.29 38.28 46.5521 36.5146 50.9962 36.5146C55.4402 36.5146 59.7023 38.28 62.8447 41.4225C65.9872 44.5649 67.7526 48.827 67.7526 53.2711Z" stroke="#00ac8d" stroke-width="6" stroke-linecap="round" stroke-linejoin="round"></path>
</svg>