<svg width="44" height="44" viewBox="0 0 44 44" fill="none" xmlns="http://www.w3.org/2000/svg">
<path d="M16.2483 23.7962C16.8954 23.7962 17.5137 23.6093 18.0457 23.2498C18.5777 22.8903 18.9947 22.3871 19.2392 21.7975C19.4836 21.208 19.5555 20.5609 19.4261 19.9282C19.2967 19.2956 18.9947 18.7204 18.5346 18.2747C18.0888 17.8289 17.4993 17.5126 16.881 17.3832C16.2483 17.2537 15.6013 17.3256 15.0117 17.5701C14.4222 17.8145 13.9189 18.2315 13.5594 18.7635C13.2 19.2956 13.013 19.9282 13.013 20.5609C13.013 21.4237 13.3581 22.2433 13.9621 22.8472C14.566 23.4511 15.3856 23.7962 16.2483 23.7962ZM23.0496 28.9152C23.1215 29.1884 23.0784 29.4903 22.9346 29.7348C22.7908 29.9792 22.5464 30.1662 22.2732 30.2381C22 30.3099 21.698 30.2668 21.4536 30.123C21.2091 29.9792 21.0222 29.7348 20.9503 29.4616C20.4326 27.4629 18.4196 25.9531 16.2483 25.9531C14.0771 25.9531 12.0496 27.4629 11.5464 29.4616C11.4745 29.7348 11.3019 29.9792 11.0431 30.123C10.7843 30.2668 10.4967 30.3099 10.2235 30.2381C9.95029 30.1662 9.70584 29.9936 9.56205 29.7348C9.41826 29.4903 9.37512 29.1884 9.44702 28.9152C9.69146 28.0237 10.1085 27.1897 10.6836 26.4564C11.2588 25.723 11.9777 25.1335 12.783 24.6877C11.9346 23.9832 11.3163 23.0198 11.0287 21.9557C10.7411 20.8916 10.7843 19.7557 11.1581 18.706C11.532 17.6707 12.2222 16.7648 13.1281 16.1322C14.0339 15.4995 15.1124 15.1544 16.2196 15.1544C17.3268 15.1544 18.4052 15.4995 19.3111 16.1322C20.217 16.7648 20.9071 17.6707 21.281 18.706C21.6549 19.7413 21.7124 20.8773 21.4104 21.9557C21.1228 23.0198 20.5045 23.9832 19.6562 24.6877C20.4758 25.1335 21.1804 25.7374 21.7555 26.4564C22.3307 27.1897 22.7477 28.0237 22.9921 28.9152H23.0496ZM38.1764 9.05766C38.1764 8.95701 38.1333 8.87073 38.0758 8.79884C38.0183 8.72694 37.9176 8.69818 37.817 8.69818H6.18297C6.08231 8.69818 5.99604 8.74132 5.92414 8.79884C5.85225 8.85635 5.82349 8.95701 5.82349 9.05766V34.94C5.82349 35.0407 5.86663 35.1269 5.92414 35.1988C5.98166 35.2707 6.08231 35.2995 6.18297 35.2995H37.817C37.9176 35.2995 38.0039 35.2564 38.0758 35.1988C38.1477 35.1413 38.1764 35.0407 38.1764 34.94V9.05766ZM40.3333 9.05766V34.94C40.3333 35.6014 40.0745 36.2485 39.6 36.723C39.1255 37.1975 38.4928 37.4564 37.817 37.4564H6.18297C5.52153 37.4564 4.87447 37.1975 4.39996 36.723C3.92545 36.2485 3.66663 35.6158 3.66663 34.94V9.05766C3.66663 8.39622 3.92545 7.74916 4.39996 7.27465C4.87447 6.80014 5.50715 6.54132 6.18297 6.54132H37.817C38.4784 6.54132 39.1255 6.80014 39.6 7.27465C40.0745 7.74916 40.3333 8.38184 40.3333 9.05766ZM33.5032 23.7962H26.3137C26.0261 23.7962 25.7529 23.9113 25.5516 24.1126C25.3503 24.3139 25.2353 24.5871 25.2353 24.8747C25.2353 25.1622 25.3503 25.4354 25.5516 25.6367C25.7529 25.8381 26.0261 25.9531 26.3137 25.9531H33.5032C33.7908 25.9531 34.064 25.8381 34.2653 25.6367C34.4666 25.4354 34.5817 25.1622 34.5817 24.8747C34.5817 24.5871 34.4666 24.3139 34.2653 24.1126C34.064 23.9113 33.7908 23.7962 33.5032 23.7962ZM34.5817 19.123C34.5817 19.4106 34.4666 19.6838 34.2653 19.8851C34.064 20.0864 33.7908 20.2015 33.5032 20.2015H26.3137C26.0261 20.2015 25.7529 20.0864 25.5516 19.8851C25.3503 19.6838 25.2353 19.4106 25.2353 19.123C25.2353 18.8354 25.3503 18.5622 25.5516 18.3609C25.7529 18.1596 26.0261 18.0446 26.3137 18.0446H33.5032C33.7908 18.0446 34.064 18.1596 34.2653 18.3609C34.4666 18.5622 34.5817 18.8354 34.5817 19.123Z" fill="#004687"/>
</svg>
