<svg width="44" height="44" viewBox="0 0 44 44" fill="none" xmlns="http://www.w3.org/2000/svg">
<path d="M36.3785 38.1765H7.62034C7.51969 38.1765 7.43342 38.1333 7.36152 38.0758C7.28962 38.0183 7.26087 37.9176 7.26087 37.817V17.3268H36.738V37.817C36.738 37.9176 36.6949 38.0039 36.6373 38.0758C36.5798 38.1477 36.4792 38.1765 36.3785 38.1765ZM7.62034 8.69934H12.2935V10.4967C12.2935 10.7843 12.4086 11.0575 12.6099 11.2588C12.8112 11.4601 13.0844 11.5752 13.372 11.5752C13.6596 11.5752 13.9328 11.4601 14.1341 11.2588C14.3354 11.0575 14.4504 10.7843 14.4504 10.4967V8.69934H29.5484V10.4967C29.5484 10.7843 29.6635 11.0575 29.8648 11.2588C30.0661 11.4601 30.3393 11.5752 30.6269 11.5752C30.9145 11.5752 31.1877 11.4601 31.389 11.2588C31.5903 11.0575 31.7053 10.7843 31.7053 10.4967V8.69934H36.3785C36.4792 8.69934 36.5654 8.74247 36.6373 8.79999C36.7092 8.85751 36.738 8.95816 36.738 9.05881V15.1699H7.26087V9.05881C7.26087 8.95816 7.304 8.87189 7.36152 8.79999C7.41904 8.72809 7.51969 8.69934 7.62034 8.69934ZM36.3785 6.54247H31.7053V4.74509C31.7053 4.45751 31.5903 4.1843 31.389 3.983C31.1877 3.78169 30.9145 3.66666 30.6269 3.66666C30.3393 3.66666 30.0661 3.78169 29.8648 3.983C29.6635 4.1843 29.5484 4.45751 29.5484 4.74509V6.54247H14.4504V4.74509C14.4504 4.45751 14.3354 4.1843 14.1341 3.983C13.9328 3.78169 13.6596 3.66666 13.372 3.66666C13.0844 3.66666 12.8112 3.78169 12.6099 3.983C12.4086 4.1843 12.2935 4.45751 12.2935 4.74509V6.54247H7.62034C6.95891 6.54247 6.31185 6.8013 5.83734 7.27581C5.36283 7.75032 5.104 8.383 5.104 9.05881V37.817C5.104 38.4784 5.36283 39.1255 5.83734 39.6C6.31185 40.0745 6.94453 40.3333 7.62034 40.3333H36.3785C37.0399 40.3333 37.687 40.0745 38.1615 39.6C38.636 39.1255 38.8949 38.4928 38.8949 37.817V9.05881C38.8949 8.39738 38.636 7.75032 38.1615 7.27581C37.687 6.8013 37.0543 6.54247 36.3785 6.54247Z" fill="#004687"/>
</svg>
