<svg width="44" height="44" viewBox="0 0 44 44" fill="none" xmlns="http://www.w3.org/2000/svg">
<path d="M14.044 12.3112C14.044 12.657 13.9471 12.989 13.7534 13.2656C13.5597 13.556 13.2968 13.7773 12.9786 13.9018C12.6603 14.0263 12.3144 14.0678 11.9823 13.9986C11.6503 13.9295 11.332 13.7635 11.0968 13.5284C10.8616 13.2932 10.6956 12.9751 10.6264 12.6432C10.5572 12.3112 10.5987 11.9654 10.7232 11.6473C10.8478 11.3292 11.0691 11.0664 11.3597 10.8728C11.6503 10.6791 11.9823 10.5823 12.3144 10.5823C12.771 10.5823 13.2138 10.7621 13.532 11.0941C13.8503 11.4122 14.044 11.8548 14.044 12.3112ZM38.161 23.5007L23.5081 38.148C23.5081 38.148 23.439 38.2033 23.3974 38.2172C23.3559 38.231 23.3144 38.2448 23.2591 38.2448C23.2037 38.2448 23.1622 38.2448 23.1207 38.2172C23.0792 38.2033 23.0377 38.1757 23.01 38.148L5.83895 20.9696C5.83895 20.9696 5.7421 20.8174 5.7421 20.7206V5.74138H20.7408C20.8377 5.74138 20.9207 5.78287 20.9899 5.83819L38.161 23.0028C38.161 23.0028 38.2163 23.0719 38.2301 23.1134C38.244 23.1549 38.2578 23.1964 38.2578 23.2517C38.2578 23.3071 38.2578 23.3486 38.2301 23.3901C38.2163 23.4316 38.1886 23.4731 38.161 23.5007ZM39.6276 21.5505L22.4427 4.37208C22.2213 4.15078 21.9446 3.97097 21.654 3.84649C21.3635 3.72201 21.0591 3.66669 20.7408 3.66669H4.70436C4.42763 3.66669 4.16474 3.77734 3.97103 3.97097C3.77732 4.16461 3.66663 4.42741 3.66663 4.70403V20.7345C3.66663 21.0526 3.72197 21.3707 3.8465 21.6612C3.97103 21.9516 4.1509 22.2282 4.37229 22.4495L21.5434 39.628C21.7647 39.8493 22.0415 40.0291 22.332 40.1535C22.6226 40.278 22.9408 40.3334 23.2591 40.3334C23.5773 40.3334 23.8956 40.2642 24.1861 40.1535C24.4767 40.0291 24.7534 39.8493 24.9748 39.628L39.6276 24.9807C39.849 24.7594 40.0289 24.4827 40.1534 24.1923C40.2779 23.9018 40.3333 23.5837 40.3333 23.2656C40.3333 22.9475 40.2641 22.6293 40.1534 22.3389C40.0289 22.0484 39.849 21.7718 39.6276 21.5505Z" fill="#004687"/>
</svg>
