<svg width="44" height="44" viewBox="0 0 44 44" fill="none" xmlns="http://www.w3.org/2000/svg">
<path d="M34.2227 13.814V30.1861C34.2227 30.4589 34.1109 30.7182 33.9154 30.9092C33.7198 31.1002 33.4544 31.2093 33.175 31.2093H30.3814C30.102 31.2093 29.8366 31.1002 29.6411 30.9092C29.4455 30.7182 29.3338 30.4589 29.3338 30.1861C29.3338 29.9132 29.4455 29.654 29.6411 29.463C29.8366 29.2719 30.102 29.1628 30.3814 29.1628H32.1274V14.8372H11.8735V16.5426C11.8735 16.8155 11.7617 17.0747 11.5662 17.2657C11.3706 17.4568 11.1052 17.5659 10.8258 17.5659C10.5465 17.5659 10.2811 17.4568 10.0855 17.2657C9.88997 17.0747 9.77822 16.8155 9.77822 16.5426V13.814C9.77822 13.5411 9.88997 13.2819 10.0855 13.0909C10.2811 12.8999 10.5465 12.7907 10.8258 12.7907H33.175C33.4544 12.7907 33.7198 12.8999 33.9154 13.0909C34.1109 13.2819 34.2227 13.5411 34.2227 13.814ZM37.7147 34.2791C37.7147 34.3746 37.6728 34.4564 37.617 34.5247C37.5611 34.5929 37.4633 34.6202 37.3655 34.6202H27.2804C26.0652 32.4782 24.1236 30.8137 21.7909 29.9132C22.9084 29.0946 23.7325 27.9622 24.1376 26.6661C24.5566 25.3699 24.5427 23.9783 24.0957 22.6822C23.6487 21.3861 22.8106 20.2673 21.6792 19.476C20.5477 18.6847 19.1928 18.2481 17.796 18.2481C16.3992 18.2481 15.0443 18.671 13.9128 19.476C12.7814 20.2809 11.9433 21.3997 11.4963 22.6822C11.0493 23.9783 11.0493 25.3699 11.4544 26.6661C11.8735 27.9622 12.6976 29.1082 13.8011 29.9132C11.4684 30.8137 9.52679 32.4782 8.31155 34.6202H6.60743C6.50965 34.6202 6.42584 34.5792 6.356 34.5247C6.28616 34.4701 6.25822 34.3746 6.25822 34.2791V9.72094C6.25822 9.62544 6.30012 9.54358 6.356 9.47536C6.41187 9.40714 6.50965 9.37986 6.60743 9.37986H37.3376C37.4354 9.37986 37.5192 9.42079 37.589 9.47536C37.6589 9.52993 37.6868 9.62544 37.6868 9.72094V34.2791H37.7147ZM13.2703 24.7287C13.2703 23.8555 13.5357 22.996 14.0385 22.2592C14.5414 21.5361 15.2398 20.9631 16.0779 20.622C16.902 20.2809 17.8239 20.1991 18.7039 20.3764C19.5839 20.5538 20.3941 20.9631 21.0227 21.5907C21.6512 22.2183 22.0843 22.996 22.2658 23.8555C22.4474 24.715 22.3496 25.6019 22.0144 26.4205C21.6792 27.2391 21.0925 27.9213 20.3382 28.4124C19.5979 28.9036 18.7179 29.1628 17.81 29.1628C16.6087 29.1628 15.4493 28.6989 14.5973 27.8667C13.7452 27.0344 13.2703 25.902 13.2703 24.7287ZM37.3655 7.33334H6.63536C5.99282 7.33334 5.36425 7.57892 4.9033 8.02916C4.44235 8.47939 4.19092 9.0797 4.19092 9.72094V34.2791C4.19092 34.9067 4.44235 35.5206 4.9033 35.9709C5.36425 36.4211 5.97885 36.6667 6.63536 36.6667H8.96806C9.16362 36.6667 9.35917 36.6121 9.52679 36.503C9.69441 36.3938 9.83409 36.2574 9.9179 36.08C10.6303 34.6202 11.7477 33.3923 13.1446 32.5191C14.5414 31.6459 16.1617 31.1957 17.81 31.1957C19.4582 31.1957 21.0785 31.6595 22.4754 32.5191C23.8722 33.3786 24.9896 34.6202 25.702 36.08C25.7858 36.2574 25.9255 36.4075 26.0931 36.503C26.2608 36.6121 26.4563 36.6667 26.6519 36.6667H37.3655C38.0081 36.6667 38.6366 36.4211 39.0976 35.9709C39.5585 35.5206 39.81 34.9203 39.81 34.2791V9.72094C39.81 9.09334 39.5585 8.47939 39.0976 8.02916C38.6366 7.57892 38.022 7.33334 37.3655 7.33334Z" fill="#004687"/>
</svg>
