<svg width="195" height="71" viewBox="0 0 195 71" fill="none" xmlns="http://www.w3.org/2000/svg">
<path d="M76.2065 17.4263C76.2065 8.39836 56.3997 0.962188 30.9304 0C51.6138 2.39953 66.3623 8.67157 66.3623 16.0127C66.3623 25.4327 42.1013 33.0708 12.1897 33.0708C7.99617 33.0708 3.92109 32.9282 0 32.6431C7.45125 34.1161 16.099 34.9595 25.3153 34.9595C53.4263 34.9595 76.2065 27.1076 76.2065 17.4263Z" fill="white"/>
<path d="M62.228 15.9652C62.228 8.90915 46.7332 3.08851 26.8198 2.34014C42.9898 4.217 54.528 9.11109 54.528 14.8605C54.528 22.2254 35.5622 28.2004 12.166 28.2004C8.88464 28.2004 5.69801 28.0816 2.62985 27.8559C8.45818 29.0082 15.2223 29.6734 22.4248 29.6734C44.4113 29.6734 62.228 23.532 62.228 15.9652Z" fill="white"/>
<path d="M185.677 70.7505H188.319V65.7733C188.319 64.4666 188.733 62.3878 190.641 62.3878C192.335 62.3878 192.358 64.0746 192.358 65.31V70.7505H195V64.3241C195 62.0315 193.958 60.3328 191.553 60.3328C190.179 60.3328 189.03 60.9624 188.354 61.9483H188.319V55.9138H185.677V70.7505Z" fill="white"/>
<path d="M183.805 60.6654C183.071 60.4516 182.301 60.3328 181.247 60.3328C178.072 60.3328 176.342 62.661 176.342 65.607C176.342 68.7074 178.013 70.9881 181.353 70.9881C182.443 70.9881 183.225 70.8931 183.995 70.6555L183.876 68.4579C183.426 68.6599 182.597 68.9331 181.851 68.9331C179.991 68.9331 179.114 67.4957 179.114 65.607C179.114 63.7183 180.157 62.3878 181.792 62.3878C182.597 62.3878 183.118 62.5422 183.592 62.7679L183.829 60.6773L183.805 60.6654Z" fill="white"/>
<path d="M171.699 70.7505H174.459V67.9828H171.699V70.7505Z" fill="white"/>
<path fill-rule="evenodd" clip-rule="evenodd" d="M169.021 68.0184C168.038 68.5767 166.936 69.0519 165.645 69.0519C164.01 69.0519 162.861 68.1253 162.743 66.486H169.768C169.768 62.9224 168.701 60.3328 164.934 60.3328C161.783 60.3328 160.22 62.7679 160.22 65.7139C160.22 69.0519 162.174 70.9881 165.527 70.9881C166.948 70.9881 168.05 70.7149 169.021 70.1804V68.0184ZM162.755 64.6686C162.873 63.3025 163.619 62.2809 165.1 62.2809C166.581 62.2809 167.173 63.3856 167.244 64.6686H162.755Z" fill="white"/>
<path d="M159.13 60.6654C158.395 60.4516 157.637 60.3328 156.571 60.3328C153.396 60.3328 151.667 62.661 151.667 65.607C151.667 68.7074 153.337 70.9881 156.678 70.9881C157.767 70.9881 158.549 70.8931 159.319 70.6555L159.201 68.4579C158.751 68.6599 157.921 68.9331 157.175 68.9331C155.315 68.9331 154.439 67.4957 154.439 65.607C154.439 63.7183 155.481 62.3878 157.116 62.3878C157.921 62.3878 158.431 62.5422 158.905 62.7679L159.142 60.6773L159.13 60.6654Z" fill="white"/>
<path d="M140.377 70.7505H143.019V65.7733C143.019 64.4666 143.434 62.3878 145.341 62.3878C147.035 62.3878 147.059 64.0746 147.059 65.31V70.7505H149.7V64.3241C149.7 62.0315 148.658 60.3328 146.253 60.3328C144.879 60.3328 143.753 60.7842 142.924 61.9483H142.889V60.5585H140.389V70.7387L140.377 70.7505Z" fill="white"/>
<path d="M130.059 63.3738L130.07 63.3653L130.071 63.3856L130.059 63.3738Z" fill="white"/>
<path fill-rule="evenodd" clip-rule="evenodd" d="M130.07 63.3653C130.957 62.6931 132.078 62.269 133.198 62.269C134.762 62.269 135.485 62.8273 135.485 64.4666H134.028C132.926 64.4666 131.623 64.5617 130.616 65.0606C129.609 65.5595 128.875 66.4504 128.875 67.9709C128.875 69.9071 130.628 71 132.428 71C133.625 71 134.952 70.3704 135.568 69.2419H135.603C135.61 69.33 135.614 69.4442 135.62 69.5744C135.634 69.9183 135.653 70.3747 135.722 70.7624H138.044C137.984 69.9665 137.949 69.2657 137.925 68.4936C137.901 67.7452 137.89 66.9731 137.89 65.9396V64.6329C137.89 61.6276 136.61 60.3447 133.518 60.3447C132.393 60.3447 131.019 60.6416 129.988 61.1168L130.07 63.3653ZM131.398 67.8046C131.398 66.2366 133.151 66.0465 134.336 66.0465H135.485C135.485 66.8424 135.366 67.567 134.928 68.1372C134.513 68.6955 133.886 69.0519 133.068 69.0519C132.12 69.0519 131.398 68.6717 131.398 67.8046Z" fill="white"/>
<path d="M122.632 67.6858C122.632 69.7052 123.781 70.9881 125.842 70.9881C126.636 70.9881 127.24 70.905 127.797 70.7505L127.714 68.6599C127.441 68.838 126.979 68.9331 126.517 68.9331C125.51 68.9331 125.273 68.1253 125.273 67.2463V62.5066H127.619V60.5704H125.273V57.6838L122.632 58.5391V60.5704H120.677V62.5066H122.632V67.6858Z" fill="white"/>
<path d="M119.327 60.7129C119.253 60.6971 119.18 60.6811 119.106 60.6651C118.351 60.5005 117.582 60.3328 116.448 60.3328C114.375 60.3328 112.468 61.3068 112.468 63.4926C112.468 65.6136 113.993 66.0597 115.286 66.4381C116.238 66.7166 117.064 66.9584 117.064 67.8046C117.064 68.7905 115.998 69.0519 115.323 69.0519C114.422 69.0519 113.546 68.7905 112.716 68.3748L112.562 70.5486C113.534 70.8099 114.553 70.9881 115.56 70.9881C117.704 70.9881 119.824 70.0378 119.824 67.662C119.824 65.4468 118.161 64.9382 116.835 64.5328C115.958 64.2644 115.228 64.0412 115.228 63.3975C115.228 62.5304 116.081 62.269 116.792 62.269C117.763 62.269 118.355 62.4235 119.161 62.7085L119.338 60.7129H119.327Z" fill="white"/>
<path d="M107.717 58.7172H110.359V56.187H107.717V58.7172Z" fill="white"/>
<path d="M107.717 70.7505H110.359V60.5704H107.717V70.7505Z" fill="white"/>
<path fill-rule="evenodd" clip-rule="evenodd" d="M93.6796 70.7505H97.4467C101.664 70.7505 105.395 69.3251 105.395 63.8489C105.395 58.3728 101.664 56.9473 97.4467 56.9473H93.6796V70.7505ZM96.4398 59.133H97.9798C100.29 59.133 102.517 60.8554 102.517 63.8608C102.517 66.8661 100.29 68.5886 97.9798 68.5886H96.4398V59.133Z" fill="white"/>
<path d="M88.2067 58.7172H90.8484V56.187H88.2067V58.7172Z" fill="white"/>
<path d="M88.2067 70.7505H90.8484V60.5704H88.2067V70.7505Z" fill="white"/>
<path d="M76.3013 70.7505H78.943V65.7733C78.943 64.4666 79.3576 62.3878 81.2648 62.3878C82.9588 62.3878 82.9825 64.0746 82.9825 65.31V70.7505H85.6242V64.3241C85.6242 62.0315 84.5817 60.3328 82.177 60.3328C80.791 60.3328 79.6774 60.7842 78.8482 61.9483H78.8127V60.5585H76.3131V70.7387L76.3013 70.7505Z" fill="white"/>
<path d="M62.3109 65.7733C62.3109 69.4676 64.3959 70.9881 67.926 70.9881C71.4562 70.9881 73.5411 69.4676 73.5411 65.7733V56.9592H70.7809V64.9299C70.7809 67.2819 70.0346 68.8262 67.926 68.8262C65.8174 68.8262 65.0711 67.2819 65.0711 64.9299V56.9592H62.3109V65.7733Z" fill="white"/>
<path d="M149.973 49.1191H147.331V34.2824H149.973V40.3169H150.008C150.683 39.3309 151.821 38.7014 153.207 38.7014C155.611 38.7014 156.654 40.4 156.654 42.6927V49.1191H154.012V43.6786C154.012 42.4432 153.989 40.7564 152.295 40.7564C150.387 40.7564 149.973 42.8352 149.973 44.1419V49.1191Z" fill="white"/>
<path d="M142.912 38.7014C143.979 38.7014 144.737 38.8201 145.471 39.034L145.483 39.0458L145.246 41.1365C144.784 40.9108 144.263 40.7564 143.457 40.7564C141.822 40.7564 140.78 42.0987 140.78 43.9756C140.78 45.8524 141.657 47.3017 143.517 47.3017C144.263 47.3017 145.092 47.0284 145.542 46.8265L145.661 49.0241C144.891 49.2617 144.097 49.3567 143.019 49.3567C139.678 49.3567 138.008 47.076 138.008 43.9756C138.008 41.0296 139.738 38.7014 142.912 38.7014Z" fill="white"/>
<path d="M136.124 49.1191H133.364V46.3513H136.124V49.1191Z" fill="white"/>
<path d="M130.699 37.0858H128.057V34.5556H130.699V37.0858Z" fill="white"/>
<path d="M130.699 49.1191H128.057V38.9389H130.699V49.1191Z" fill="white"/>
<path d="M118.805 49.1191H116.164L116.176 49.1072V38.9271H118.675V40.3169H118.711C119.54 39.1528 120.653 38.7014 122.039 38.7014C124.444 38.7014 125.487 40.4 125.487 42.6927V49.1191H122.845V43.6786C122.845 42.4432 122.821 40.7564 121.127 40.7564C119.22 40.7564 118.805 42.8352 118.805 44.1419V49.1191Z" fill="white"/>
<path d="M107.788 49.3567C104.258 49.3567 102.173 47.8362 102.173 44.1419V35.3278H104.933V43.2985C104.933 45.6505 105.68 47.1947 107.788 47.1947C109.897 47.1947 110.643 45.6505 110.643 43.2985V35.3278H113.404V44.1419C113.404 47.8362 111.319 49.3567 107.788 49.3567Z" fill="white"/>
<path d="M92.8504 49.1191H90.2087L90.2205 49.1072V38.9271H92.7201V40.3169H92.7556C93.5849 39.1528 94.6984 38.7014 96.0844 38.7014C98.4892 38.7014 99.5316 40.4 99.5316 42.6927V49.1191H96.8899V43.6786C96.8899 42.4432 96.8662 40.7564 95.1722 40.7564C93.265 40.7564 92.8504 42.8352 92.8504 44.1419V49.1191Z" fill="white"/>
<path d="M85.4347 49.1191H82.793V38.9152H85.1385V41.2316H85.1741C85.2925 40.2812 86.3824 38.6776 87.9579 38.6776C88.2067 38.6776 88.491 38.6776 88.7635 38.7607V41.4335C88.5265 41.3028 88.0527 41.2197 87.5788 41.2197C85.4347 41.2197 85.4347 43.9162 85.4347 45.3773V49.1191Z" fill="white"/>
<path fill-rule="evenodd" clip-rule="evenodd" d="M76.6567 47.4204C77.9479 47.4204 79.0496 46.9453 80.0328 46.387V48.5489C79.0614 49.0835 77.9597 49.3567 76.5382 49.3567C73.1857 49.3567 71.2311 47.4204 71.2311 44.0825C71.2311 41.1365 72.7948 38.7014 75.9459 38.7014C79.713 38.7014 80.7791 41.2909 80.7791 44.8546H73.7543C73.8728 46.4939 75.0219 47.4204 76.6567 47.4204ZM76.0999 40.6376C74.6191 40.6376 73.8728 41.6592 73.7543 43.0253H78.2559C78.173 41.7423 77.5807 40.6376 76.0999 40.6376Z" fill="white"/>
<path d="M65.0829 49.1191H62.3228V35.3278H69.9754V37.5016H65.0829V40.8989H69.7385V43.0728H65.0829V49.1191Z" fill="white"/>
<path d="M62.4835 15.6926C62.4835 8.60156 47.0185 2.75208 27.1434 2C43.2823 3.88616 54.7983 8.8045 54.7983 14.5824C54.7983 21.9837 35.869 27.9884 12.5178 27.9884C9.24275 27.9884 6.06226 27.869 3 27.6422C8.81711 28.8002 15.5683 29.4687 22.7569 29.4687C44.7011 29.4687 62.4835 23.2969 62.4835 15.6926Z" fill="white"/>
<path d="M185.695 70.7493H188.332V65.7474C188.332 64.4343 188.745 62.3452 190.649 62.3452C192.34 62.3452 192.363 64.0403 192.363 65.2818V70.7493H195V64.291C195 61.987 193.96 60.2799 191.559 60.2799C190.188 60.2799 189.041 60.9126 188.367 61.9035H188.332V55.8391H185.695V70.7493Z" fill="white"/>
<path d="M183.827 60.6142C183.094 60.3993 182.325 60.2799 181.273 60.2799C178.104 60.2799 176.378 62.6197 176.378 65.5803C176.378 68.696 178.045 70.9881 181.379 70.9881C182.467 70.9881 183.248 70.8926 184.016 70.6538L183.898 68.4453C183.449 68.6483 182.621 68.9228 181.876 68.9228C180.02 68.9228 179.145 67.4784 179.145 65.5803C179.145 63.6822 180.185 62.3452 181.817 62.3452C182.621 62.3452 183.141 62.5003 183.614 62.7272L183.851 60.6261L183.827 60.6142Z" fill="white"/>
<path d="M171.743 70.7493H174.498V67.9678H171.743V70.7493Z" fill="white"/>
<path fill-rule="evenodd" clip-rule="evenodd" d="M169.071 68.0036C168.09 68.5647 166.99 69.0422 165.702 69.0422C164.07 69.0422 162.923 68.1111 162.805 66.4637H169.816C169.816 62.8824 168.752 60.2799 164.992 60.2799C161.847 60.2799 160.287 62.7272 160.287 65.6877C160.287 69.0422 162.237 70.9881 165.583 70.9881C167.002 70.9881 168.102 70.7135 169.071 70.1763V68.0036ZM162.817 64.6372C162.935 63.2644 163.68 62.2377 165.158 62.2377C166.636 62.2377 167.227 63.3479 167.298 64.6372H162.817Z" fill="white"/>
<path d="M159.199 60.6142C158.466 60.3993 157.709 60.2799 156.645 60.2799C153.476 60.2799 151.75 62.6197 151.75 65.5803C151.75 68.696 153.417 70.9881 156.751 70.9881C157.839 70.9881 158.619 70.8926 159.388 70.6538L159.27 68.4453C158.82 68.6483 157.993 68.9228 157.248 68.9228C155.392 68.9228 154.517 67.4784 154.517 65.5803C154.517 63.6822 155.557 62.3452 157.189 62.3452C157.993 62.3452 158.501 62.5003 158.974 62.7272L159.211 60.6261L159.199 60.6142Z" fill="white"/>
<path d="M140.482 70.7493H143.119V65.7474C143.119 64.4343 143.533 62.3452 145.436 62.3452C147.127 62.3452 147.151 64.0403 147.151 65.2818V70.7493H149.787V64.291C149.787 61.987 148.747 60.2799 146.347 60.2799C144.975 60.2799 143.852 60.7336 143.024 61.9035H142.989V60.5067H140.494V70.7374L140.482 70.7493Z" fill="white"/>
<path d="M130.184 63.336L130.195 63.3275L130.196 63.3479L130.184 63.336Z" fill="white"/>
<path fill-rule="evenodd" clip-rule="evenodd" d="M130.195 63.3275C131.08 62.652 132.199 62.2258 133.317 62.2258C134.878 62.2258 135.599 62.7868 135.599 64.4343H134.145C133.045 64.4343 131.745 64.5298 130.74 65.0311C129.735 65.5325 129.002 66.4279 129.002 67.9559C129.002 69.9017 130.752 71 132.549 71C133.743 71 135.067 70.3673 135.682 69.2332H135.718C135.724 69.3218 135.729 69.4364 135.734 69.5674C135.748 69.9129 135.767 70.3716 135.836 70.7612H138.153C138.094 69.9614 138.059 69.2571 138.035 68.4811C138.011 67.7291 137.999 66.9531 137.999 65.9145V64.6014C137.999 61.5811 136.723 60.2919 133.637 60.2919C132.513 60.2919 131.142 60.5903 130.113 61.0678L130.195 63.3275ZM131.52 67.7888C131.52 66.213 133.27 66.022 134.452 66.022H135.599C135.599 66.8218 135.481 67.55 135.044 68.123C134.63 68.6841 134.003 69.0422 133.187 69.0422C132.241 69.0422 131.52 68.6602 131.52 67.7888Z" fill="white"/>
<path d="M122.771 67.6694C122.771 69.6988 123.918 70.9881 125.975 70.9881C126.767 70.9881 127.37 70.9045 127.926 70.7493L127.843 68.6483C127.571 68.8273 127.11 68.9228 126.649 68.9228C125.644 68.9228 125.408 68.1111 125.408 67.2277V62.4645H127.749V60.5187H125.408V57.6178L122.771 58.4773V60.5187H120.82V62.4645H122.771V67.6694Z" fill="white"/>
<path d="M119.472 60.6619C119.399 60.6461 119.326 60.63 119.252 60.6139C118.499 60.4485 117.731 60.2799 116.599 60.2799C114.53 60.2799 112.626 61.2588 112.626 63.4554C112.626 65.5869 114.148 66.0353 115.439 66.4155C116.389 66.6954 117.214 66.9384 117.214 67.7888C117.214 68.7796 116.15 69.0422 115.476 69.0422C114.577 69.0422 113.702 68.7796 112.875 68.3618L112.721 70.5464C113.691 70.809 114.707 70.9881 115.712 70.9881C117.852 70.9881 119.969 70.033 119.969 67.6455C119.969 65.4193 118.309 64.9081 116.986 64.5008C116.11 64.231 115.381 64.0067 115.381 63.3599C115.381 62.4884 116.233 62.2258 116.942 62.2258C117.911 62.2258 118.503 62.381 119.307 62.6675L119.484 60.6619H119.472Z" fill="white"/>
<path d="M107.885 58.6564H110.522V56.1137H107.885V58.6564Z" fill="white"/>
<path d="M107.885 70.7493H110.522V60.5187H107.885V70.7493Z" fill="white"/>
<path fill-rule="evenodd" clip-rule="evenodd" d="M93.8746 70.7493H97.6344C101.844 70.7493 105.568 69.3168 105.568 63.8135C105.568 58.3102 101.844 56.8777 97.6344 56.8777H93.8746V70.7493ZM96.6294 59.0742H98.1665C100.472 59.0742 102.695 60.8052 102.695 63.8254C102.695 66.8457 100.472 68.5766 98.1665 68.5766H96.6294V59.0742Z" fill="white"/>
<path d="M88.4121 58.6564H91.0488V56.1137H88.4121V58.6564Z" fill="white"/>
<path d="M88.4121 70.7493H91.0488V60.5187H88.4121V70.7493Z" fill="white"/>
<path d="M76.5297 70.7493H79.1663V65.7474C79.1663 64.4343 79.5801 62.3452 81.4837 62.3452C83.1744 62.3452 83.198 64.0403 83.198 65.2818V70.7493H85.8347V64.291C85.8347 61.987 84.7942 60.2799 82.3941 60.2799C81.0107 60.2799 79.8993 60.7336 79.0717 61.9035H79.0362V60.5067H76.5415V70.7374L76.5297 70.7493Z" fill="white"/>
<path d="M62.5662 65.7474C62.5662 69.46 64.6471 70.9881 68.1705 70.9881C71.6939 70.9881 73.7748 69.46 73.7748 65.7474V56.8896H71.02V64.8998C71.02 67.2635 70.2751 68.8154 68.1705 68.8154C66.066 68.8154 65.3211 67.2635 65.3211 64.8998V56.8896H62.5662V65.7474Z" fill="white"/>
</svg>
