<svg width="44" height="44" viewBox="0 0 44 44" fill="none" xmlns="http://www.w3.org/2000/svg">
<path d="M37.3468 29.7191C32.092 33.9857 27.6457 31.785 22.4957 29.24C17.765 26.9045 12.4653 24.2847 6.65663 28.0124V8.29585C11.9114 4.02917 16.3577 6.22988 21.5077 8.77491C26.2384 11.1104 31.5381 13.7302 37.3468 10.0175V29.7191ZM4.80025 6.91853C4.68049 7.02333 4.57569 7.15806 4.51581 7.2928C4.45592 7.44251 4.41101 7.59222 4.41101 7.7569V39.2105C4.41101 39.51 4.53078 39.7944 4.74037 40.004C4.94996 40.2136 5.2344 40.3334 5.53382 40.3334C5.83324 40.3334 6.11768 40.2136 6.32727 40.004C6.53686 39.7944 6.65663 39.51 6.65663 39.2105V30.752C11.9114 26.4854 16.3577 28.6861 21.5077 31.2311C24.5318 32.7282 27.7804 34.3301 31.2387 34.3301C33.7837 34.3301 36.4335 33.4767 39.2031 31.0664C39.3229 30.9616 39.4277 30.8269 39.4876 30.6922C39.5624 30.5425 39.5924 30.3927 39.5924 30.2281V7.77187C39.5924 7.56228 39.5325 7.35268 39.4127 7.15806C39.293 6.97842 39.1283 6.82871 38.9337 6.73888C38.7391 6.64906 38.5145 6.61912 38.3049 6.64906C38.0953 6.679 37.8857 6.76882 37.736 6.91853C32.3166 11.6194 27.7655 9.37374 22.4957 6.75385C17.2859 4.17888 11.3275 1.25957 4.80025 6.91853Z" fill="#004687"/>
</svg>
