<svg width="44" height="44" viewBox="0 0 44 44" fill="none" xmlns="http://www.w3.org/2000/svg">
<path d="M33.1449 21.9971C33.1449 22.2846 33.0299 22.5578 32.8286 22.7591C32.6273 22.9603 32.3542 23.0753 32.0666 23.0753H22.0029C21.7154 23.0753 21.4422 22.9603 21.2409 22.7591C21.0396 22.5578 20.9246 22.2846 20.9246 21.9971V11.9333C20.9246 11.6458 21.0396 11.3726 21.2409 11.1714C21.4422 10.9701 21.7154 10.8551 22.0029 10.8551C22.2904 10.8551 22.5636 10.9701 22.7649 11.1714C22.9661 11.3726 23.0811 11.6458 23.0811 11.9333V20.9188H32.0666C32.3542 20.9188 32.6273 21.0338 32.8286 21.2351C33.0299 21.4364 33.1449 21.7096 33.1449 21.9971ZM22.0029 38.171C18.7969 38.171 15.6771 37.2221 13.0174 35.4394C10.3577 33.6567 8.28743 31.1407 7.06541 28.1791C5.84338 25.2175 5.52709 21.9683 6.14529 18.8342C6.76349 15.7001 8.31619 12.8103 10.5733 10.5532C12.8305 8.29601 15.7202 6.7577 18.8544 6.12512C21.9885 5.50692 25.2377 5.8232 28.1993 7.04523C31.1609 8.26726 33.6768 10.3375 35.4596 12.9972C37.2423 15.6569 38.1912 18.7911 38.1912 21.9827C38.1912 26.267 36.4803 30.3788 33.4468 33.4123C30.4133 36.4458 26.3015 38.1566 22.0173 38.1566L22.0029 38.171ZM22.0029 3.66669C18.3799 3.66669 14.8289 4.74495 11.8241 6.7577C8.805 8.77045 6.46158 11.6314 5.06703 14.9812C3.67249 18.331 3.31307 22.0115 4.01753 25.5769C4.72199 29.128 6.47596 32.3915 9.03503 34.965C11.5941 37.524 14.8576 39.278 18.4231 39.9825C21.9741 40.6869 25.669 40.3275 29.0188 38.9329C32.3686 37.5528 35.2295 35.195 37.2423 32.1759C39.255 29.1567 40.3333 25.62 40.3333 21.9971C40.3333 17.1377 38.3924 12.4797 34.9564 9.04361C31.5203 5.60755 26.8622 3.66669 22.0029 3.66669Z" fill="#004687"/>
</svg>
