<svg width="24" height="24" viewBox="0 0 24 24" fill="none" xmlns="http://www.w3.org/2000/svg">
<path fill-rule="evenodd" clip-rule="evenodd" d="M3 7.2C3 5.98497 3.98497 5 5.2 5H18.8C20.015 5 21 5.98497 21 7.2V16.8C21 18.015 20.015 19 18.8 19H5.2C3.98497 19 3 18.015 3 16.8V7.2ZM18.6416 9.34829C19.0652 8.99394 19.1214 8.36327 18.767 7.93965C18.4127 7.51602 17.782 7.45986 17.3584 7.8142L12.1283 12.189C12.054 12.2511 11.9459 12.2511 11.8717 12.189L6.6416 7.81421C6.21797 7.45987 5.5873 7.51603 5.23296 7.93966C4.87861 8.36328 4.93478 8.99395 5.3584 9.3483L10.5885 13.723C11.4054 14.4064 12.5946 14.4064 13.4115 13.723L18.6416 9.34829Z" fill="#919478"/>
</svg>
