<svg width="24" height="24" viewBox="0 0 24 24" fill="none" xmlns="http://www.w3.org/2000/svg">
<path d="M12 3C7.02944 3 3 7.04583 3 12.0366C3 16.6358 6.42191 20.4325 10.8488 21V14.8737H9.69767C9.0619 14.8737 8.54651 14.3562 8.54651 13.7178C8.54651 13.0795 9.0619 12.562 9.69767 12.562H10.8488V10.3629C10.8488 9.58056 11.1583 8.83032 11.7093 8.27715C12.2602 7.72399 13.0074 7.41323 13.7865 7.41323H14.9302C15.566 7.41323 16.0814 7.93072 16.0814 8.56908C16.0814 9.20743 15.566 9.72492 14.9302 9.72492H13.7865C13.618 9.72492 13.4564 9.79213 13.3373 9.91177C13.2181 10.0314 13.1512 10.1937 13.1512 10.3629V12.562H14.3023C14.9381 12.562 15.4535 13.0795 15.4535 13.7178C15.4535 14.3562 14.9381 14.8737 14.3023 14.8737H13.1512V21C17.5781 20.4325 21 16.6358 21 12.0366C21 7.04583 16.9706 3 12 3Z" fill="#919478"/>
</svg>
