<svg width="24" height="24" viewBox="0 0 24 24" fill="none" xmlns="http://www.w3.org/2000/svg">
<path d="M12 9.74359C10.7538 9.74359 9.74359 10.7538 9.74359 12C9.74359 13.2462 10.7538 14.2564 12 14.2564C13.2462 14.2564 14.2564 13.2462 14.2564 12C14.2564 10.7538 13.2462 9.74359 12 9.74359Z" fill="#919478"/>
<path fill-rule="evenodd" clip-rule="evenodd" d="M8.10256 4C5.83678 4 4 5.83678 4 8.10256V15.8974C4 18.1632 5.83678 20 8.10256 20H15.8974C18.1632 20 20 18.1632 20 15.8974V8.10256C20 5.83678 18.1632 4 15.8974 4H8.10256ZM7.69231 12C7.69231 9.62093 9.62093 7.69231 12 7.69231C14.3791 7.69231 16.3077 9.62093 16.3077 12C16.3077 14.3791 14.3791 16.3077 12 16.3077C9.62093 16.3077 7.69231 14.3791 7.69231 12ZM18.0513 7.15897C18.0513 6.47924 17.5002 5.9282 16.8205 5.9282C16.1408 5.9282 15.5897 6.47924 15.5897 7.15897V7.19999C15.5897 7.87973 16.1408 8.43076 16.8205 8.43076C17.5002 8.43076 18.0513 7.87973 18.0513 7.19999V7.15897Z" fill="#919478"/>
</svg>
