<svg width="24" height="24" viewBox="0 0 24 24" fill="none" xmlns="http://www.w3.org/2000/svg">
<path fill-rule="evenodd" clip-rule="evenodd" d="M4 9.80981C4 5.41299 7.48766 2 12 2C16.5123 2 20 5.41299 20 9.80981C20 12.181 18.7216 14.4882 17.347 16.31C15.9503 18.1611 14.3312 19.6708 13.4094 20.4711C12.5971 21.1763 11.4028 21.1763 10.5905 20.4711C9.66866 19.6708 8.04961 18.161 6.65299 16.31C5.27841 14.4882 4 12.181 4 9.80981ZM12 12.9899C13.586 12.9899 14.8718 11.7143 14.8718 10.1407C14.8718 8.56709 13.586 7.29144 12 7.29144C10.414 7.29144 9.12821 8.56709 9.12821 10.1407C9.12821 11.7143 10.414 12.9899 12 12.9899Z" fill="#919478"/>
</svg>
