<svg width="24" height="24" viewBox="0 0 24 24" fill="none" xmlns="http://www.w3.org/2000/svg">
<path d="M8.82969 5.02315C8.09764 3.93643 6.54052 3.66964 5.45109 4.44427L5.3133 4.54224C3.30773 5.9683 2.50032 8.45098 3.31239 10.6948C4.06295 12.7686 5.30613 14.6526 6.94666 16.2024L8.07673 17.2699C9.7076 18.8106 11.687 19.9819 13.866 20.6959C16.2825 21.4877 18.9631 20.6969 20.4732 18.7468L20.5507 18.6468C21.3448 17.6212 21.0564 16.1751 19.9216 15.493L17.062 13.7739C16.1016 13.1965 14.8454 13.3268 14.0404 14.0873L13.9622 14.1611C13.876 14.2426 13.7362 14.2426 13.6499 14.1611L10.224 10.9248C10.1378 10.8433 10.1378 10.7112 10.224 10.6298L10.3022 10.5559C11.1072 9.79543 11.2451 8.6088 10.6339 7.70146L8.82969 5.02315Z" fill="#919478"/>
</svg>
