<svg width="24" height="24" viewBox="0 0 24 24" fill="none" xmlns="http://www.w3.org/2000/svg">
<path d="M17.5502 5.24021C17.9698 5.59922 18.0189 6.23032 17.6598 6.64981L14.1782 10.7167L18.8225 17.4317C19.034 17.7374 19.0583 18.1353 18.8856 18.4645C18.713 18.7937 18.3718 19 18 19H14.6146C14.0892 19 13.5973 18.7422 13.2986 18.3102L10.7867 14.6784L7.38965 18.6466C7.03054 19.0661 6.39927 19.1151 5.97968 18.7561C5.56008 18.3971 5.51105 17.766 5.87016 17.3465L9.61032 12.9775L5.17748 6.56835C4.966 6.26258 4.94169 5.86475 5.11436 5.53552C5.28703 5.20629 5.62816 5.00002 6 5.00002H9.38541C9.91076 5.00002 10.4026 5.25786 10.7014 5.68986L13.0018 9.01584L16.1403 5.3497C16.4994 4.93022 17.1306 4.8812 17.5502 5.24021Z" fill="#919478"/>
</svg>
