<svg version="1.2" xmlns="http://www.w3.org/2000/svg" viewBox="0 0 188 58" width="188" height="58">
	<title>Logo-svg</title>
	<defs>
		<clipPath clipPathUnits="userSpaceOnUse" id="cp1">
			<path d="m0-2h188.06v60h-188.06z"/>
		</clipPath>
	</defs>
	<style>
		.s0 { fill: #73c3d5 } 
		.s1 { fill: #b5dc79 } 
		.s2 { fill: #009abf } 
		.s3 { fill: #ffffff } 
	</style>
	<g id="Clip-Path" clip-path="url(#cp1)">
		<g id="Layer">
			<path id="Layer" class="s0" d="m0 43.6h16.7l-4.2-7.2z"/>
			<path id="Layer" class="s0" d="m33.4 43.6l16.7-28.8-25.1 14.4v14.4z"/>
			<path id="Layer" class="s1" d="m25 58l25.1-14.4h-16.7z"/>
			<path id="Layer" class="s1" d="m12.5 36.4l12.5-7.2v-28.8l-16.7 28.8z"/>
			<path id="Layer" class="s1" d="m16.7 43.6l8.3 14.4v-14.4z"/>
			<path id="Layer" class="s0" d="m0 14.8v28.8l8.3-14.4z"/>
			<path id="Layer" class="s2" d="m50.1 14.8l-16.7 28.8h16.7z"/>
			<path id="Layer" class="s2" d="m25 29.2l-12.5 7.2 4.2 7.2h8.3z"/>
			<path id="Layer" class="s2" d="m25 0.4l-25 14.4 8.3 14.4z"/>
			<path id="Layer" fill-rule="evenodd" class="s3" d="m155.3 21.4c1.5-1.4 3.5-2.2 5.6-2.2 2.1 0 4.2 0.8 5.7 2.2 2.1 2.2 2.5 4.8 2.5 8 0 3.2-0.4 5.8-2.5 8-3.2 2.9-8.1 2.9-11.3 0-2.2-2.2-2.5-4.8-2.5-8 0-3.2 0.3-5.8 2.5-8zm8.8 13.6c1.3-1.4 1.4-3.8 1.4-5.6 0-1.8-0.1-4.2-1.4-5.6-0.9-0.9-2-1.3-3.2-1.3-1.1 0-2.3 0.4-3.1 1.3-1.3 1.4-1.4 3.8-1.4 5.6 0 1.8 0.1 4.2 1.4 5.6 1.7 1.8 4.5 1.8 6.3 0zm-17.7-3.6h-4.7l0.1-2.9h8.1v10.7h-0.6l-2.1-2.2c-1.1 1.7-3 2.6-5 2.6-2.1 0.1-4.3-0.7-5.8-2.2-2.1-2.2-2.6-4.8-2.6-8 0-3.2 0.5-5.7 2.6-7.8 1.6-1.5 3.7-2.3 5.8-2.3 2.2-0.1 4.3 0.7 5.9 2.2 1 1 1.7 2.4 1.8 3.9h-3.7c-0.1-0.6-0.4-1.3-0.8-1.8-0.9-0.8-2-1.2-3.2-1.2-1.2 0.1-2.3 0.5-3.2 1.4-1.4 1.4-1.5 3.8-1.5 5.6 0 1.8 0.2 4.3 1.5 5.7 0.9 0.9 2 1.3 3.2 1.3 1.1 0 2.2-0.4 2.9-1.2 1-1 1.4-2.4 1.3-3.8zm-70.4-11.8h3.5v19.6h-3.5v-8.5h-8.1v8.5h-3.6v-19.6h3.6v7.7h8.1zm7.3 0h13.4v3.2h-9.8v4.6h8.6v3.2h-8.6v5.3h9.8v3.3h-13.4zm27.9 0h3.9l-6.1 9.6 6.1 10h-3.9l-4.4-7.2-4.4 7.2h-3.9l6.2-10-6.1-9.6h3.9l4.4 6.8zm4.2 19.7l6.9-19.7h3.9l6.9 19.7h-3.8l-1.2-3.8h-7.8l-1.3 3.8zm8.8-15.3l-2.8 8.3h5.6zm59.9 8.9v-13.3h3.5v19.6h-3.7l-8.5-13.4v13.4h-3.5v-19.6h3.8z"/>
		</g>
	</g>
</svg>