<svg width="181" height="57" viewBox="0 0 181 57" fill="none" xmlns="http://www.w3.org/2000/svg">
<path d="M52.1785 56.0788C50.4642 56.0788 48.944 55.7554 47.6502 55.1408C46.3564 54.5263 45.2567 53.653 44.4157 52.5856C43.5424 51.4858 42.8955 50.2244 42.475 48.7365C42.0545 47.2486 41.8281 45.6637 41.8281 43.9818C41.8281 42.2999 42.0545 40.7149 42.475 39.2271C42.8955 37.7392 43.5424 36.4454 44.4157 35.378C45.289 34.2783 46.3564 33.4373 47.6502 32.8228C48.944 32.2082 50.4642 31.8848 52.1785 31.8848C53.8928 31.8848 55.413 32.2082 56.7068 32.8228C58.0006 33.4373 59.068 34.3106 59.9413 35.378C60.8146 36.4778 61.4615 37.7392 61.882 39.2271C62.3349 40.7149 62.5289 42.2999 62.5289 43.9818C62.5289 45.6637 62.3025 47.2486 61.882 48.7365C61.4292 50.2244 60.7823 51.5182 59.9413 52.5856C59.068 53.6853 58.0006 54.5263 56.7068 55.1408C55.3807 55.7554 53.8928 56.0788 52.1785 56.0788ZM52.1785 53.4265C54.6044 53.4265 56.4157 52.5856 57.6125 50.8713C58.8093 49.1893 59.3915 46.8605 59.3915 43.9171C59.3915 40.9737 58.8093 38.6772 57.6125 36.9629C56.4157 35.281 54.6044 34.4077 52.1785 34.4077C49.7527 34.4077 47.9413 35.2486 46.7446 36.9629C45.5478 38.6449 44.9656 40.9737 44.9656 43.9171C44.9656 46.8605 45.5478 49.157 46.7446 50.8713C47.9413 52.5856 49.7527 53.4265 52.1785 53.4265Z" fill="#404040"/>
<path d="M81.1598 52.6172C81.3215 52.9083 81.4509 53.3288 81.5802 53.8463C81.7096 54.3638 81.8067 54.7843 81.8713 55.1077C81.1274 55.3665 80.2541 55.5929 79.2837 55.787C78.3134 55.9811 77.246 56.0457 76.0492 56.0457C72.2649 56.0457 69.3862 55.0107 67.4131 52.9406C65.4401 50.8706 64.4697 47.8625 64.4697 43.9487C64.4697 42.2344 64.6961 40.6172 65.1813 39.1617C65.6665 37.7061 66.3781 36.4123 67.3161 35.3126C68.2541 34.2129 69.4185 33.3719 70.8417 32.7573C72.2325 32.1428 73.8821 31.8193 75.7258 31.8193C76.8902 31.8193 77.9576 31.9164 79.025 32.0781C80.0924 32.2398 80.901 32.4339 81.4832 32.6603C81.4832 33.0484 81.4185 33.5013 81.3215 34.0188C81.2244 34.5363 81.0951 34.9568 80.9657 35.2479C80.3511 35.0215 79.6072 34.8598 78.6692 34.698C77.7312 34.5363 76.7608 34.4716 75.6934 34.4716C74.335 34.4716 73.1382 34.698 72.1355 35.1832C71.1328 35.6684 70.2595 36.3153 69.5802 37.1563C68.901 37.9972 68.3835 38.9999 68.06 40.1644C67.7366 41.3288 67.5748 42.5902 67.5748 43.9811C67.5748 47.2479 68.3511 49.6414 69.9037 51.1617C71.4563 52.6819 73.5587 53.4581 76.2433 53.4581C77.149 53.4581 78.0223 53.3935 78.8633 53.2317C79.7366 53.0377 80.4805 52.8436 81.1598 52.6172Z" fill="#404040"/>
<path d="M83.7473 32.3695C83.9414 32.3372 84.2001 32.3048 84.5236 32.3048C84.847 32.3048 85.1058 32.2725 85.2352 32.2725C85.4293 32.2725 85.6557 32.2725 85.9791 32.3048C86.3026 32.3048 86.5613 32.3372 86.7231 32.3695V45.4045C86.7231 47.0218 86.8848 48.3803 87.2082 49.4153C87.5317 50.4504 88.0169 51.259 88.6961 51.8735C89.343 52.4558 90.1516 52.8762 91.0896 53.1027C92.0276 53.3291 93.095 53.4584 94.2594 53.4584C95.2621 53.4584 96.1355 53.3938 96.9441 53.2967C97.7204 53.1997 98.432 53.038 99.0465 52.8762V32.4018C99.2406 32.3695 99.4993 32.3372 99.8228 32.3372C100.146 32.3372 100.405 32.3048 100.534 32.3048C100.728 32.3048 100.955 32.3048 101.278 32.3372C101.602 32.3372 101.861 32.3695 102.022 32.4018V54.9463C100.89 55.2374 99.6611 55.5285 98.2702 55.7549C96.8794 55.9814 95.4886 56.1107 94.033 56.1107C92.6099 56.1107 91.2837 55.9814 90.0222 55.6903C88.7608 55.4315 87.6934 54.8816 86.7554 54.1377C85.8174 53.3614 85.1058 52.294 84.5559 50.9355C84.0061 49.577 83.7473 47.7981 83.7473 45.631V32.3695Z" fill="#404040"/>
<path d="M106.292 22.181C106.486 22.1487 106.712 22.1163 107.036 22.1163C107.359 22.1163 107.618 22.084 107.78 22.084C107.941 22.084 108.168 22.084 108.491 22.1163C108.815 22.1163 109.073 22.1487 109.267 22.181V50.1595C109.267 50.9357 109.365 51.5503 109.526 52.0031C109.72 52.456 109.947 52.7471 110.205 52.9411C110.464 53.1352 110.788 53.2646 111.111 53.2969C111.435 53.3293 111.758 53.3616 112.017 53.3616C112.34 53.3616 112.696 53.3293 113.052 53.2969C113.408 53.2646 113.731 53.1999 113.958 53.1352C114.119 53.491 114.216 53.8791 114.281 54.2996C114.346 54.7201 114.378 55.1082 114.41 55.464C113.99 55.6258 113.505 55.7228 112.987 55.7875C112.47 55.8522 111.952 55.8845 111.499 55.8845C110.852 55.8845 110.238 55.8198 109.591 55.6905C108.944 55.5611 108.394 55.3023 107.877 54.9142C107.391 54.526 106.971 54.0085 106.68 53.3616C106.389 52.7147 106.227 51.8414 106.227 50.8064V22.181H106.292Z" fill="#404040"/>
<path d="M130.518 40.2299C130.518 38.2245 130.033 36.769 129.127 35.8633C128.189 34.9253 126.798 34.4725 124.955 34.4725C123.758 34.4725 122.626 34.5695 121.656 34.7312C120.653 34.893 119.78 35.087 118.971 35.3458C118.809 35.087 118.68 34.6666 118.583 34.1814C118.486 33.6639 118.421 33.1787 118.421 32.7259C119.197 32.4994 120.168 32.273 121.332 32.1113C122.497 31.9496 123.661 31.8525 124.858 31.8525C127.801 31.8525 129.968 32.4994 131.391 33.7932C132.815 35.087 133.526 37.0924 133.526 39.8418V55.1409C132.459 55.3674 131.197 55.5614 129.677 55.7878C128.157 56.0143 126.734 56.1113 125.375 56.1113C122.561 56.1113 120.362 55.5614 118.744 54.4294C117.127 53.2973 116.319 51.486 116.319 48.9954C116.319 47.7986 116.545 46.6989 117.03 45.7609C117.483 44.8229 118.162 44.0143 118.971 43.3674C119.812 42.7205 120.815 42.2353 121.979 41.8795C123.143 41.556 124.437 41.3943 125.828 41.3943C126.928 41.3943 127.866 41.4267 128.642 41.5237C129.418 41.5884 130.065 41.6531 130.583 41.7178V40.2299H130.518ZM130.518 44.273C130.001 44.2083 129.354 44.1436 128.577 44.079C127.801 44.0143 127.057 43.9496 126.378 43.9496C124.114 43.9496 122.367 44.3701 121.106 45.211C119.877 46.052 119.262 47.2811 119.262 48.8337C119.262 49.8364 119.456 50.645 119.844 51.2272C120.232 51.8418 120.718 52.2946 121.332 52.618C121.947 52.9415 122.594 53.1356 123.337 53.2649C124.049 53.362 124.793 53.4267 125.505 53.4267C126.443 53.4267 127.316 53.3943 128.125 53.2973C128.933 53.2002 129.742 53.0709 130.518 52.9415V44.273Z" fill="#404040"/>
<path d="M135.564 32.3695C135.758 32.3372 136.017 32.3048 136.34 32.3048C136.664 32.3048 136.987 32.2725 137.278 32.2725C137.505 32.2725 137.828 32.2725 138.184 32.3048C138.54 32.3048 138.831 32.3372 138.993 32.3695L146.303 52.3911L153.742 32.3695C153.936 32.3372 154.162 32.3048 154.453 32.3048C154.745 32.3048 155.036 32.2725 155.262 32.2725C155.488 32.2725 155.78 32.2725 156.071 32.3048C156.362 32.3048 156.621 32.3372 156.782 32.3695L147.564 55.4962C147.111 55.5932 146.626 55.6256 146.173 55.6256C145.688 55.6256 145.203 55.5932 144.718 55.4962L135.564 32.3695Z" fill="#404040"/>
<path d="M159.014 34.9246H155.165C155.133 34.7629 155.1 34.6012 155.1 34.3748C155.1 34.1484 155.068 33.9219 155.068 33.6955C155.068 33.4691 155.068 33.2103 155.1 32.9839C155.1 32.7252 155.133 32.4664 155.165 32.3047H162.022V55.5284C161.828 55.5608 161.602 55.5931 161.278 55.5931C160.955 55.5931 160.696 55.6254 160.534 55.6254C160.373 55.6254 160.146 55.6254 159.823 55.5931C159.499 55.5931 159.241 55.5608 159.047 55.5284V34.9246H159.014Z" fill="#404040"/>
<path d="M166.162 52.3592C166.842 52.6179 167.683 52.8767 168.75 53.0707C169.817 53.2648 170.82 53.3619 171.79 53.3619C173.602 53.3619 175.057 52.9737 176.092 52.1651C177.16 51.3565 177.677 50.3861 177.677 49.1893C177.677 48.3807 177.515 47.7015 177.192 47.184C176.869 46.6664 176.448 46.2136 175.931 45.8578C175.413 45.502 174.799 45.2109 174.152 44.9845C173.472 44.7581 172.793 44.5317 172.114 44.2729C171.37 44.0465 170.594 43.7554 169.882 43.4643C169.138 43.1732 168.491 42.785 167.909 42.2999C167.327 41.847 166.874 41.2648 166.518 40.5856C166.162 39.9063 166.001 39.0977 166.001 38.095C166.001 36.2513 166.68 34.7635 168.006 33.599C169.365 32.4346 171.435 31.8848 174.249 31.8848C175.413 31.8848 176.577 31.9818 177.677 32.2082C178.777 32.4346 179.65 32.661 180.232 32.8875C180.071 33.7608 179.877 34.6341 179.586 35.4751C178.939 35.2486 178.13 35.0546 177.16 34.8282C176.189 34.6017 175.154 34.5047 174.087 34.5047C172.243 34.5047 170.949 34.8282 170.173 35.4751C169.397 36.122 169.009 36.9953 169.009 38.0303C169.009 38.6125 169.138 39.0977 169.397 39.5182C169.656 39.9387 170.011 40.2621 170.432 40.5532C170.885 40.8443 171.37 41.1031 171.92 41.2972C172.47 41.5236 173.084 41.7176 173.699 41.8794C174.507 42.1381 175.348 42.4616 176.157 42.7527C176.998 43.0761 177.742 43.4966 178.421 44.0141C179.1 44.5317 179.65 45.1786 180.103 45.9548C180.556 46.7311 180.75 47.7338 180.75 48.8982C180.75 49.998 180.524 50.9683 180.103 51.874C179.65 52.7796 179.036 53.5236 178.259 54.1381C177.483 54.7527 176.545 55.2379 175.445 55.5613C174.346 55.8848 173.149 56.0465 171.855 56.0465C170.4 56.0465 169.106 55.9495 167.974 55.7877C166.842 55.5937 165.936 55.3672 165.224 55.0761C165.483 54.1705 165.774 53.2648 166.162 52.3592Z" fill="#404040"/>
<path d="M158.205 28.4557C158.173 28.197 158.141 27.8412 158.141 27.453C158.141 27.0649 158.108 26.7415 158.108 26.4503C158.108 26.2239 158.108 25.9005 158.141 25.5447C158.141 25.1889 158.173 24.8654 158.205 24.639C158.464 24.6067 158.82 24.5743 159.208 24.5743C159.596 24.5743 159.92 24.542 160.211 24.542C160.437 24.542 160.761 24.542 161.116 24.5743C161.472 24.5743 161.796 24.6067 162.022 24.639C162.055 24.8654 162.087 25.1889 162.087 25.5447C162.087 25.9005 162.119 26.2239 162.119 26.4503C162.119 26.7091 162.119 27.0649 162.087 27.453C162.087 27.8412 162.055 28.1646 162.022 28.4557C161.763 28.4881 161.472 28.5204 161.116 28.5204C160.761 28.5204 160.437 28.5528 160.211 28.5528C159.952 28.5528 159.596 28.5528 159.208 28.5204C158.82 28.5204 158.497 28.4881 158.205 28.4557Z" fill="#404040"/>
<path d="M35.6826 25.2862L34.8093 25.6744C34.6152 25.7714 34.5182 25.9978 34.6152 26.2242L35.7796 28.8442L10.0654 40.1649L3.07884 24.3159L16.308 18.4938C18.0546 17.7175 19.9953 17.2323 22.033 17.1029C26.2379 16.8442 30.184 18.1703 33.2567 20.5639C33.3538 20.6609 33.5155 20.6609 33.6449 20.5962C33.9036 20.4992 33.936 20.1434 33.7419 19.9816C30.4104 17.0059 25.9144 15.2916 21.1274 15.6151C18.9926 15.7445 16.9872 16.262 15.1435 17.0706L0.75 23.4102L9.1597 42.4938L38.1085 29.7498L36.2325 25.5126C36.1354 25.2862 35.8767 25.1892 35.6826 25.2862Z" fill="#404040"/>
<path d="M10.2271 17.2974L11.1005 16.9093C11.2945 16.8122 11.3916 16.5858 11.2945 16.3594L10.1301 13.7394L35.8444 2.41868L42.8309 18.2677L29.6018 24.0898C27.8552 24.8661 25.9145 25.3513 23.8767 25.4807C19.6719 25.7394 15.7258 24.4133 12.653 22.0198C12.556 21.9227 12.3943 21.9227 12.2649 21.9874C12.0061 22.0845 11.9738 22.4402 12.1678 22.602C15.4994 25.5777 19.9953 27.292 24.7824 26.9685C26.9172 26.8392 28.9226 26.3216 30.7662 25.513L45.1598 19.1734L36.7501 0.0898438L7.80127 12.8338L9.67728 17.071C9.77432 17.2974 10.0331 17.3944 10.2271 17.2974Z" fill="#404040"/>
<path d="M23.165 24.8339C25.0764 24.8339 26.6259 23.2844 26.6259 21.373C26.6259 19.4616 25.0764 17.9121 23.165 17.9121C21.2536 17.9121 19.7041 19.4616 19.7041 21.373C19.7041 23.2844 21.2536 24.8339 23.165 24.8339Z" fill="#404040"/>
</svg>
