<svg width="181" height="38" viewBox="0 0 181 38" fill="none" xmlns="http://www.w3.org/2000/svg">
<path d="M14.795 6.36519C15.168 6.07951 15.4825 5.72459 15.7213 5.31988C15.9656 4.90579 16.1249 4.44718 16.19 3.97081C16.2114 3.8092 16.2221 3.64634 16.2219 3.48331V3.45238C16.2219 3.40175 16.2219 3.35113 16.2172 3.3005C16.2177 3.29489 16.2177 3.28924 16.2172 3.28363C16.2172 3.24988 16.2125 3.21613 16.2097 3.18144C16.1716 2.80912 16.0529 2.44955 15.8619 2.12769C15.6272 1.73212 15.2904 1.40705 14.8867 1.18665C14.483 0.966255 14.0274 0.858665 13.5678 0.875188H13.5022C12.8351 0.879877 12.1894 1.1113 11.6713 1.53144C11.1913 1.92331 10.9691 2.41925 10.7534 2.98175L9.72219 5.68925L2.06094 25.7189L0.5 29.7877H6.2975L6.44844 29.3677L12.0078 14.8843C12.3913 13.8588 12.4393 12.7381 12.1447 11.6836C12.045 11.3099 11.9945 10.9248 11.9947 10.538C11.9943 10.2809 12.0166 10.0243 12.0612 9.77113C12.1044 9.52348 12.169 9.28006 12.2544 9.04362C12.3386 8.81268 12.4417 8.5891 12.5628 8.37519C12.8039 7.94917 13.1141 7.56615 13.4806 7.24175C13.5953 7.13937 13.7155 7.04329 13.8406 6.95394C14.0853 6.77769 14.3656 6.66613 14.6159 6.49831C14.6769 6.45238 14.7369 6.40644 14.795 6.36519Z" fill="#404040"/>
<path d="M20.5448 13.2203L19.2042 9.7281C19.0182 9.24334 18.6952 8.82311 18.2747 8.5186C17.8541 8.21408 17.3541 8.03841 16.8355 8.01298C16.3169 7.98755 15.8021 8.11345 15.3538 8.37535C14.9055 8.63725 14.5429 9.02386 14.3104 9.4881L14.1229 9.97653C13.9699 10.5274 13.9985 11.1129 14.2045 11.6462L15.5329 15.1093L21.1673 29.7878H26.901L20.5448 13.2203Z" fill="#404040"/>
<path d="M36.6435 30.1346C31.8238 30.1346 28.2866 27.0483 28.2866 21.6736V11.9302H32.6216V21.6736C32.6216 24.4477 34.3204 25.9383 36.6435 25.9383C38.9319 25.9383 40.6654 24.4477 40.6654 21.6736V11.9302H45.0004V21.6736C45.0004 27.0483 41.4632 30.1346 36.6435 30.1346Z" fill="#404040"/>
<path d="M57.8084 37.7627C53.2662 37.7627 50.0065 35.3008 48.9668 31.2433H53.6477C54.2374 32.7002 55.6934 33.7399 57.8084 33.7399C60.6209 33.7399 62.5587 32.1461 62.5587 29.2671V27.3255C61.2068 28.9193 59.2305 29.7527 57.0809 29.7527C51.9837 29.7527 48.0996 26.0074 48.0996 20.8755C48.0996 15.5018 52.053 11.583 57.4624 11.583C62.9374 11.583 66.8937 15.4999 66.8937 20.8436V29.2699C66.8937 34.6071 63.1137 37.7627 57.8084 37.7627ZM57.5271 15.813C54.5805 15.813 52.4993 17.9636 52.4993 20.8755C52.4993 23.7874 54.6499 25.938 57.5965 25.938C60.4746 25.938 62.5212 23.7883 62.5212 20.8755C62.5212 17.9627 60.4062 15.813 57.5309 15.813H57.5271Z" fill="#404040"/>
<path d="M86.4688 29.7874H82.1291V19.7664C82.1291 17.2352 80.6732 15.813 78.6604 15.813C76.6476 15.813 75.1579 17.2352 75.1579 19.7664V29.7874H70.8257V19.7664C70.8257 14.5999 74.1538 11.583 78.4541 11.583C80.9507 11.583 83.031 12.6236 84.3135 14.5652C85.5622 12.6236 87.6426 11.583 90.1738 11.583C94.4732 11.583 97.7676 14.5999 97.7676 19.7664V29.7874H93.4335V19.7664C93.4335 17.2352 91.9766 15.813 89.9647 15.813C87.9529 15.813 86.4688 17.2352 86.4688 19.7664V29.7874Z" fill="#404040"/>
<path d="M110.159 30.1343C104.785 30.1343 100.936 26.2849 100.936 20.8755C100.936 15.3977 104.889 11.583 110.368 11.583C115.638 11.583 119.244 15.1896 119.244 20.0786C119.246 20.8479 119.164 21.6152 119.002 22.3671H106.138C105.652 22.3671 105.409 22.6099 105.409 23.0233C105.409 24.6874 107.524 26.3514 110.333 26.3514C112.17 26.3514 114.113 25.7964 114.875 24.2364H119.14C117.823 28.3661 114.32 30.1343 110.159 30.1343ZM105.305 19.038H114.459C114.806 19.038 115.014 18.8299 115.014 18.483C115.014 16.8893 113.211 15.2589 110.437 15.2589C107.732 15.2589 105.756 16.6802 105.305 19.038Z" fill="#404040"/>
<path d="M131.116 11.583C136.075 11.583 139.751 14.7039 139.751 20.148V29.7874H135.417V20.2521C135.417 17.3739 133.578 15.813 131.116 15.813C128.654 15.813 126.817 17.3739 126.817 20.2521V29.7874H122.483V20.148C122.483 14.7039 126.125 11.583 131.116 11.583Z" fill="#404040"/>
<path d="M153.079 29.9955C148.814 29.9955 146.386 27.7071 146.386 23.0955V15.8824H141.98V11.9299H145.101C145.933 11.9299 146.383 11.4789 146.383 10.6464V5.68799H150.718V11.9299H157.306V15.8824H150.718V22.6792C150.718 24.8289 151.586 25.7992 153.906 25.7992C155.043 25.8002 156.178 25.7194 157.303 25.5574V29.718C155.903 29.9071 154.492 29.9998 153.079 29.9955Z" fill="#404040"/>
<path d="M159.889 5.55029C159.891 4.8049 160.188 4.09054 160.715 3.56347C161.242 3.0364 161.956 2.73953 162.702 2.73779C164.227 2.73779 165.476 4.02029 165.476 5.55029C165.476 7.08029 164.227 8.35811 162.702 8.35811C161.957 8.35638 161.243 8.06015 160.716 7.53409C160.19 7.00803 159.892 6.29487 159.889 5.55029ZM164.844 11.93V29.7875H160.51V11.93H164.844Z" fill="#404040"/>
<path d="M180.5 11.9302V16.1949H178.489C175.576 16.1949 173.6 18.2414 173.6 21.2921V29.7877H169.266V21.2921C169.266 14.6696 172.906 11.9302 178.489 11.9302H180.5Z" fill="#404040"/>
</svg>
