<svg width="181" height="29" viewBox="0 0 181 29" fill="none" xmlns="http://www.w3.org/2000/svg">
<path d="M180.112 11.8251H175.441C175.232 10.531 174.211 9.84828 172.561 9.84828C171.122 9.84828 170.173 10.4251 170.173 11.287C170.173 11.9341 170.664 12.2579 172.245 12.6168L175.372 13.2995C177.444 13.7317 178.499 14.1996 179.235 14.9882C180.043 15.7793 180.499 17.074 180.499 18.474C180.499 22.1396 177.585 24.4428 172.877 24.4428C168.169 24.4428 165.255 22.1778 164.974 18.3325H169.644C169.926 19.9856 170.978 20.7416 172.981 20.7416C174.562 20.7416 175.58 20.0945 175.58 19.0529C175.58 18.2261 175.016 17.7939 173.683 17.4701L170.593 16.7523C166.871 15.9255 165.431 14.5224 165.431 11.7544C165.431 8.26856 168.135 6.14762 172.665 6.14762C177.195 6.14762 179.655 8.15959 180.112 11.8282M162.901 12.8693H158.159C157.878 11.2163 156.754 10.2805 155.069 10.2805C152.787 10.2805 151.557 12.0425 151.557 15.2051C151.557 18.5468 152.787 20.3089 155.104 20.3089C156.894 20.3089 157.877 19.3736 158.265 17.326L163.111 17.5791C162.41 21.965 159.458 24.4449 154.963 24.4449C149.801 24.4449 146.533 20.9208 146.533 15.3492C146.533 9.77753 149.764 6.14762 155.138 6.14762C159.564 6.14762 162.585 8.73643 162.901 12.8693M142.987 4.20589H138.001V-0.000854492H142.987V4.20589ZM142.987 23.9775H138.001V6.6124H142.987V23.9775ZM135.121 6.82981V10.4246H132.066V17.1819C132.066 19.9148 132.172 20.1297 133.33 20.1297H135.121V23.9775H132.066C129.887 23.9775 128.801 23.6537 128.062 22.8274C127.289 21.9655 127.079 21.0298 127.079 18.3325V10.4251H124.691V6.83033H127.079V1.32892H132.066V6.82981H135.121ZM113.941 10.2098C111.412 10.2098 109.972 12.0425 109.972 15.2784C109.972 18.5143 111.412 20.3822 113.975 20.3822C116.539 20.3822 117.944 18.5494 117.944 15.3843C117.944 12.0425 116.539 10.2067 113.941 10.2067M113.941 6.14453C119.315 6.14453 122.969 9.8834 122.969 15.4199C122.969 20.6678 119.175 24.4423 113.941 24.4423C108.707 24.4423 104.951 20.6678 104.951 15.2758C104.951 9.88391 108.673 6.14453 113.941 6.14453ZM93.745 10.2774C91.5664 10.2774 90.1264 12.2894 90.1264 15.2753C90.1264 18.2613 91.5664 20.3089 93.745 20.3089C95.9236 20.3089 97.3262 18.3671 97.3262 15.3492C97.3262 12.3312 95.9554 10.2805 93.745 10.2805M85.3524 23.9775V-0.000854492H90.3388V7.8358C91.9538 6.61498 93.2879 6.14711 95.0094 6.14711C99.3293 6.14711 102.244 9.7419 102.244 15.0636C102.244 20.3853 99.1164 24.4449 94.7621 24.4449C92.6557 24.4449 91.4599 23.7978 90.1264 22.0001V23.977H85.3499H85.3529L85.3524 23.9775ZM59.2926 14.8813L65.5439 23.977H59.7497L56.554 19.0173L53.4268 23.977H47.736L53.8118 14.8813L48.2618 6.61189H53.8118L56.5852 10.9978L59.2553 6.61189H64.8053L59.2901 14.8813H59.2931H59.2926ZM34.4261 13.1931H41.3096C41.0997 11.1429 39.9388 10.0306 38.0074 10.0306C36.076 10.0306 34.8116 11.1455 34.4261 13.1931ZM46.4368 16.7879H34.3913C34.7077 19.1619 36.0785 20.4535 38.2198 20.4535C39.5533 20.4535 40.5019 19.9856 41.1689 18.9088H46.2274C45.2789 22.2888 42.1174 24.4454 38.0795 24.4454C32.8459 24.4454 29.3681 20.7798 29.3681 15.3141C29.3681 9.84828 32.9145 6.14762 38.0422 6.14762C41.6235 6.14762 44.3278 7.98039 45.5927 11.2514C46.1906 12.7604 46.4348 14.3783 46.4348 16.7879M25.8181 23.9775H20.8317V-0.000854492H25.8181V23.9775ZM17.71 -0.000854492V4.59992H5.76846V9.95673H16.2358V14.3783H5.76846V23.977H0.5V-0.000854492H17.71Z" fill="#404040"/>
<path d="M83.2743 6.61591H77.5865L74.4594 11.5756L71.2636 6.61591H65.4694L71.7207 15.709L62.0264 29.0001H67.9931L74.4251 19.592L77.1985 23.9784H82.7485L77.1985 15.709L83.2743 6.61591Z" fill="#404040"/>
<mask id="mask0_1778_477" style="mask-type:luminance" maskUnits="userSpaceOnUse" x="62" y="6" width="22" height="23">
<path d="M83.274 6.61591H77.5863L74.4591 11.5756L71.2633 6.61591H65.4691L71.7205 15.709L62.0261 29.0001H67.9929L74.4248 19.592L77.1983 23.9784H82.7483L77.1983 15.709L83.274 6.61591Z" fill="white"/>
</mask>
<g mask="url(#mask0_1778_477)">
<path d="M83.2745 6.61603H62.0261V28.9997H83.2745V6.61603Z" fill="#404040"/>
</g>
</svg>
