<svg version="1.2" xmlns="http://www.w3.org/2000/svg" viewBox="0 0 131 31" width="131" height="31">
	<title>cohort-one-logo-4-svg</title>
	<defs>
		<clipPath clipPathUnits="userSpaceOnUse" id="cp1">
			<path d="m0.23 0.5h130.54v30h-130.54z"/>
		</clipPath>
		<clipPath clipPathUnits="userSpaceOnUse" id="cp2">
			<path d="m130.77 0.5h-130.54v30h130.54z"/>
		</clipPath>
	</defs>
	<style>
		.s0 { fill: #404040 } 
	</style>
	<g id="Clip-Path" clip-path="url(#cp1)">
		<g>
			<g id="Clip-Path" clip-path="url(#cp2)">
				<g>
					<path fill-rule="evenodd" class="s0" d="m18.8 29.8l-5.6-8h-6.2v8h-6.7v-28.7h12.5c7.8 0 12.6 4 12.6 10.4 0 4.3-2.2 7.5-6 9.1l6.5 9.2h-7.1zm-6.3-23.3h-5.5v10h5.5c4.1 0 6.1-1.9 6.1-5 0-3.1-2-5-6.1-5z"/>
					<path class="s0" d="m30.7 1.1h6.7v28.7h-6.7z"/>
					<path class="s0" d="m44.2 1.1h6.7v28.7h-6.7z"/>
					<path class="s0" d="m57.8 1.1h6.6v28.7h-6.6z"/>
					<path class="s0" d="m69.5 15.5c0-8.7 6.7-14.9 15.7-14.9 4.9 0 9.1 1.8 11.8 5.1l-4.2 4c-2-2.2-4.4-3.4-7.3-3.4-5.4 0-9.3 3.8-9.3 9.2 0 5.4 3.9 9.2 9.3 9.2q4.3 0 7.3-3.4l4.2 3.9c-2.7 3.3-6.9 5.1-11.9 5.1-8.9 0-15.6-6.2-15.6-14.8z"/>
					<path fill-rule="evenodd" class="s0" d="m99.1 15.5c0-8.6 6.7-14.9 15.8-14.9 9.1 0 15.8 6.3 15.8 14.9 0 8.5-6.7 14.8-15.8 14.8-9.1 0-15.8-6.3-15.8-14.8zm24.8 0c0-5.5-3.8-9.2-9-9.2-5.1 0-9 3.7-9 9.2 0 5.4 3.9 9.1 9 9.1 5.2 0 9-3.7 9-9.1z"/>
				</g>
			</g>
		</g>
	</g>
</svg>