<svg width="141" height="36" viewBox="0 0 141 36" fill="none" xmlns="http://www.w3.org/2000/svg">
<mask id="mask0_1778_497" style="mask-type:luminance" maskUnits="userSpaceOnUse" x="-61" y="-75" width="266" height="189">
<path d="M-60.9216 -74.6525H204.712V113.171H-60.9216V-74.6525Z" fill="white"/>
</mask>
<g mask="url(#mask0_1778_497)">
<path d="M133.411 18.9114L140.103 9.54992H135.809L131.206 16.397L126.795 9.54992H122.192L128.846 19.1433L121.496 29.5495H125.79L131.051 21.6968L136.273 29.5495H140.876L133.411 18.9114ZM117.703 16.5905C117.703 15.7392 117.632 15.0236 117.491 14.4433C117.348 13.8631 117.09 13.4053 116.717 13.0702C116.342 12.7351 115.846 12.4963 115.227 12.3543C114.608 12.2129 113.821 12.1416 112.868 12.1416C111.836 12.1416 111.011 12.2189 110.392 12.3738C109.773 12.5284 109.29 12.8184 108.941 13.244C108.593 13.6697 108.361 14.2565 108.245 15.0043C108.129 15.7527 108.071 16.7198 108.071 17.9055H117.703V16.5905ZM121.533 16.8609C121.533 17.7894 121.481 18.5243 121.378 19.066C121.275 19.6078 121.107 20.0274 120.875 20.3234C120.643 20.6203 120.353 20.8137 120.005 20.9036C119.657 20.9942 119.237 21.039 118.748 21.039H108.071C108.071 22.1222 108.129 22.9993 108.245 23.6698C108.361 24.3406 108.593 24.8685 108.941 25.2556C109.29 25.6424 109.773 25.9072 110.392 26.0488C111.011 26.1908 111.836 26.2612 112.868 26.2612H115.711C116.858 26.2612 118.348 26.2359 120.179 26.1839L119.483 29.5495C118.683 29.5748 117.999 29.5943 117.432 29.6076C116.865 29.6202 116.342 29.6268 115.866 29.6268H114.454H112.868C111.036 29.6268 109.547 29.4142 108.4 28.9885C107.252 28.5629 106.349 27.9574 105.691 27.1705C105.034 26.3839 104.589 25.4298 104.357 24.3078C104.125 23.1858 104.009 21.942 104.009 20.5749V18.4085C104.009 16.9385 104.131 15.6171 104.376 14.4433C104.621 13.2702 105.073 12.277 105.73 11.4645C106.388 10.6523 107.303 10.0273 108.477 9.58841C109.65 9.15015 111.178 8.93086 113.061 8.93086C114.789 8.93086 116.201 9.1309 117.297 9.53035C118.393 9.93043 119.257 10.4722 119.889 11.155C120.52 11.8387 120.953 12.6253 121.185 13.5148C121.417 14.4045 121.533 15.3271 121.533 16.2809V16.8609ZM99.8994 10.4394C98.4682 9.43349 96.2305 8.93086 93.188 8.93086C90.1444 8.93086 87.9074 9.43349 86.4759 10.4394C85.0447 11.4452 84.3291 13.1087 84.3291 15.4296V29.5495H88.3908V16.2421C88.3908 15.5978 88.4296 15.0302 88.5072 14.5399C88.5845 14.0502 88.7776 13.6378 89.0871 13.3021C89.3967 12.9673 89.8737 12.7159 90.5186 12.548C91.1633 12.3805 92.0527 12.2965 93.188 12.2965C94.3223 12.2965 95.2123 12.3805 95.8569 12.548C96.5012 12.7159 96.9786 12.9673 97.2885 13.3021C97.5977 13.6378 97.7911 14.0502 97.8684 14.5399C97.946 15.0302 97.9848 15.5978 97.9848 16.2421V29.5495H102.047V15.4296C102.047 13.1087 101.331 11.4452 99.8994 10.4394ZM77.7404 29.5495H81.8021V9.5496H77.7404V29.5495ZM71.1636 8.91319C69.4355 8.91319 67.9785 9.08137 66.7924 9.41614C65.6057 9.75185 64.6453 10.274 63.9104 10.983C63.1753 11.6926 62.6465 12.6209 62.3243 13.7681C62.0015 14.916 61.8406 16.3018 61.8406 17.9267V29.5495H65.9026V21.039H71.3571L72.0534 17.6733H65.9026C65.9026 16.5128 65.9733 15.6382 66.1153 14.9286C66.257 14.2196 66.5217 13.6716 66.9082 13.2847C67.2954 12.8976 67.8302 12.6335 68.5136 12.4915C69.1967 12.3502 70.0805 12.2789 71.1636 12.2789H71.2971H71.322H71.5C71.9509 12.2789 72.409 12.2855 72.8731 12.2981C73.3373 12.3117 73.4878 12.3243 73.9396 12.3369C74.3902 12.3502 74.7966 12.3562 75.1581 12.3562L75.8542 8.9905C75.0808 8.96526 74.4422 8.94601 73.9396 8.93276C73.4367 8.91982 71.7306 8.91319 71.1636 8.91319ZM56.1341 22.7024C56.1341 22.2127 56.0821 21.7874 55.9795 21.4258C55.876 21.0652 55.67 20.7749 55.3605 20.5553C55.0509 20.3366 54.5994 20.1751 54.0066 20.0719C53.4131 19.969 52.6265 19.917 51.6468 19.917H50.757C49.906 19.917 49.2031 19.9624 48.6487 20.0527C48.094 20.1432 47.6558 20.2978 47.3336 20.5168C47.0108 20.7361 46.7852 21.0264 46.6565 21.387C46.5271 21.7486 46.4631 22.1995 46.4631 22.7412V23.5534C46.4631 24.4567 46.7338 25.1335 47.2755 25.5844C47.817 26.0362 48.8096 26.2612 50.2541 26.2612H56.1341V22.7024ZM60.0024 15.3968V26.2227C60.0024 27.4605 59.7184 28.3247 59.1514 28.8144C58.5838 29.3047 57.5524 29.5495 56.0568 29.5495H50.2541C47.5463 29.5495 45.6052 29.0532 44.4321 28.0603C43.2583 27.0676 42.6721 25.5784 42.6721 23.5922V22.7412C42.6721 20.5749 43.3104 19.0275 44.5867 18.099C45.8636 17.1707 47.8558 16.7062 50.5636 16.7062C52.1112 16.7062 53.3228 16.829 54.2 17.0738C55.0765 17.3193 55.7214 17.5834 56.1341 17.867V16.7062C56.1341 16.062 56.0887 14.9264 55.9988 14.449C55.9082 13.9723 55.6892 13.5728 55.3412 13.2497C54.9929 12.9276 54.4903 12.6827 53.8324 12.5149C53.1748 12.3473 52.2785 12.2634 51.1438 12.2634C50.0607 12.2634 48.9062 12.27 47.6816 12.2826C46.4565 12.2959 45.4055 12.3155 44.5289 12.3407L45.2638 8.97504C45.9854 8.94979 46.8752 8.93055 47.9331 8.9173C48.9901 8.90436 50.0607 8.89773 51.1438 8.89773C54.264 8.89773 56.521 9.4458 57.9137 10.5419C59.3064 11.6383 60.0024 13.2567 60.0024 15.3968ZM41.4794 8.87849H38.6167C37.4818 8.87849 36.4503 8.9946 35.5221 9.22682C34.5935 9.45873 33.8006 9.82631 33.1431 10.3293C32.4855 10.8322 31.9759 11.4897 31.615 12.3019C31.2537 13.1144 31.0736 14.101 31.0736 15.2615V29.5495H35.1353V16.7451C35.1353 16.126 35.1674 14.9778 35.2318 14.4875C35.2962 13.9981 35.4574 13.5851 35.7155 13.25C35.973 12.9149 36.3601 12.6635 36.876 12.4956C37.3915 12.3281 38.1008 12.2441 39.0038 12.2441H40.1255C40.5124 12.2441 40.8733 12.2508 41.2087 12.2634C41.5435 12.2766 41.8278 12.2826 42.0597 12.2826H42.4468L43.1429 8.9173C42.7043 8.89174 42.1499 8.87849 41.4794 8.87849ZM13.0989 22.4235C10.5609 24.4927 7.32523 26.6224 3.39857 28.8077C7.25361 28.1931 13.1466 28.6642 17.8904 35.1731C18.3606 33.8949 19.451 30.2727 18.122 27.055C17.2796 25.0145 15.5897 23.4587 13.0989 22.4235ZM19.9262 10.8041C20.4042 14.053 18.5865 17.5323 14.5144 21.2109C17.0215 22.4216 18.7594 24.1702 19.6864 26.423C20.6809 28.8412 20.5456 31.3685 20.1729 33.2695C23.0423 28.1054 27.7035 16.6422 18.8342 7.89532C19.3895 8.79392 19.7725 9.76163 19.9262 10.8041ZM0.969999 28.2105C12.0719 15.0182 3.36702 3.50138 0.123779 0.000671387C1.82538 0.382454 5.04464 1.19429 8.30082 2.49108C12.5159 4.16902 17.6645 7.0166 18.2574 11.0505C18.9654 15.8676 12.9945 21.7811 0.969999 28.2105Z" fill="#404040"/>
</g>
</svg>
