<svg width="157" height="31" viewBox="0 0 157 31" fill="none" xmlns="http://www.w3.org/2000/svg">
<g clip-path="url(#clip0_1963_3856)">
<path d="M0.53833 13.4106C1.50112 9.68149 3.13368 6.40242 6.29763 3.96056C11.0383 0.304749 17.9558 -0.120833 22.9441 3.15824C23.5616 3.56289 24.7825 3.82452 24.0988 5.04893C23.3104 6.46521 22.2151 6.81754 21.0116 6.13731C13.8046 2.07335 5.41856 6.12684 4.30926 14.2094C3.7267 18.4443 5.8267 22.7245 9.58368 24.971C13.2674 27.1722 18.193 26.9873 21.6011 24.521C22.9476 23.5478 24.2069 23.7641 25.1976 25.142C25.8604 26.0664 24.9639 26.3873 24.4965 26.7745C19.3337 31.0408 11.9976 31.1908 6.55926 27.2559C3.21391 24.8385 1.52554 21.4443 0.53833 17.5896V13.4141V13.4106Z" fill="#404040"/>
<path d="M63.3012 30.465C62.321 30.1266 61.3372 29.7987 60.3605 29.4499C58.7872 28.8882 59.1047 27.7231 59.5093 26.5894C60.0012 25.215 60.8593 26.1847 61.4872 26.401C63.8349 27.2068 66.1896 27.6359 68.6454 26.9696C70.6721 26.4219 72.2872 25.4068 72.6814 23.1673C73.0896 20.8545 71.9349 19.2952 70.0791 18.1231C68.8024 17.3138 67.414 16.7347 66.0221 16.1557C64.85 15.6673 63.6675 15.158 62.5896 14.4952C59.8512 12.8103 58.6896 10.3126 59.1152 7.12427C59.5093 4.17311 61.3721 2.41497 63.9814 1.30218C64.6686 1.00916 65.3872 0.785901 66.0919 0.53125C67.4872 0.53125 68.8826 0.53125 70.2745 0.53125C71.2617 0.862645 72.2384 1.21846 73.2361 1.52195C74.4465 1.88823 74.5163 2.5859 74.0733 3.65334C73.6442 4.6859 73.1907 4.88823 72.1128 4.43125C69.5907 3.36381 67.0058 3.29753 64.5605 4.70334C61.8256 6.2766 61.5884 9.27311 63.9814 11.3452C65.1884 12.3882 66.65 12.9708 68.0942 13.5882C69.9675 14.3906 71.8093 15.2522 73.3407 16.6336C78.1512 20.9731 76.6826 27.8173 70.5082 29.8371C69.8489 30.0533 69.1861 30.2522 68.5268 30.4615H63.2977L63.3012 30.465Z" fill="#404040"/>
<path d="M104.007 15.4444C104.031 7.31296 110.624 0.842032 118.836 0.894358C126.66 0.943195 133.351 7.74203 133.281 15.5734C133.212 23.4746 126.542 30.1304 118.707 30.1165C110.499 30.1025 103.982 23.6002 104.007 15.4444Z" fill="#404040"/>
<path d="M137.209 15.4999C137.209 11.2685 137.241 7.03715 137.188 2.80575C137.171 1.51854 137.502 0.880172 138.932 0.935986C142.002 1.0511 145.086 0.789474 148.149 1.23947C152.516 1.88482 155.286 4.45924 155.928 8.49878C156.594 12.6813 154.819 16.1418 150.891 18.0116C149.816 18.5244 149.879 18.9569 150.395 19.822C152.153 22.7558 153.831 25.7383 155.579 28.6755C156.165 29.6627 156.127 30.0116 154.829 30.1092C153.088 30.2383 152.066 29.6418 151.246 28.0825C149.495 24.7476 147.549 21.5174 145.686 18.2418C144.865 16.7999 145.263 16.0104 146.879 15.8732C151.229 15.5069 153.657 12.3011 152.562 8.35575C151.86 5.83017 149.949 4.79064 147.573 4.38599C145.909 4.10343 144.221 4.13133 142.539 4.06854C141.109 4.01622 140.61 4.52552 140.621 5.96971C140.673 13.3895 140.621 20.8092 140.663 28.229C140.67 29.5267 140.335 30.1302 138.905 30.0988C137.631 30.0709 137.167 29.6592 137.185 28.372C137.241 24.0848 137.206 19.7941 137.206 15.5034L137.209 15.4999Z" fill="#404040"/>
<path d="M92.1709 17.136C92.1709 20.8442 92.1325 24.5558 92.1883 28.264C92.2093 29.593 91.7802 30.1233 90.3883 30.1093C89.0244 30.0953 88.7418 29.4779 88.7488 28.2884C88.7767 20.9279 88.707 13.5674 88.8011 6.21047C88.8256 4.41047 88.2325 3.86977 86.5058 3.98489C84.5977 4.11396 82.6756 3.98489 80.7604 4.01628C79.7314 4.03372 79.3023 3.61512 79.2884 2.57558C79.2779 1.52558 79.5744 0.939538 80.75 0.943026C87.2523 0.960468 93.7546 0.960468 100.257 0.93605C101.453 0.932561 101.698 1.55698 101.691 2.58954C101.684 3.63256 101.255 4.0407 100.226 4.02326C98.136 3.98838 96.043 4.07907 93.957 3.99884C92.5686 3.94651 92.136 4.51512 92.1535 5.8407C92.2058 9.60814 92.1709 13.3756 92.1709 17.1395V17.136Z" fill="#404040"/>
<path d="M53.7221 30.0847C52.6267 30.287 51.957 29.7044 51.5697 28.5288C50.9 26.4916 50.0977 24.4998 49.4174 22.466C49.0756 21.437 48.4965 20.987 47.3837 21.0044C44.1325 21.0533 40.8814 21.0428 37.6267 21.0114C36.6046 21.0009 36.0395 21.4056 35.6907 22.3684C34.9442 24.4405 34.1209 26.4847 33.3081 28.5288C32.757 29.9172 31.0756 30.6114 29.7779 29.9974C28.8325 29.5509 29.4465 28.8812 29.6453 28.3754C30.95 25.0265 32.307 21.6986 33.643 18.3637C35.7535 13.0893 37.9267 7.8393 39.9325 2.52651C40.543 0.907908 41.6453 0.94628 42.957 0.918373C44.2407 0.886978 45.0953 1.15558 45.6081 2.54744C48.7407 11.0905 51.9709 19.5986 55.1488 28.1242C55.7977 29.8684 55.6337 30.0777 53.7221 30.0881V30.0847Z" fill="#404040"/>
<path d="M129.552 15.6501C129.514 21.6187 124.588 26.5791 118.707 26.5617C112.47 26.5443 107.537 21.5838 107.576 15.371C107.611 9.32217 112.7 4.38263 118.815 4.45938C124.798 4.53263 129.591 9.52798 129.552 15.6536V15.6501Z" fill="#F8F8F8"/>
<path d="M42.5732 17.6527C41.3593 17.6527 40.1418 17.6422 38.9279 17.6596C38.0104 17.6701 37.6128 17.3422 37.979 16.3969C39.3988 12.7341 40.8081 9.06779 42.2348 5.40848C42.3325 5.16081 42.5104 4.82941 42.7162 4.7736C43.0651 4.67593 43.1558 5.08407 43.2465 5.33174C44.586 9.02244 45.9151 12.7201 47.2372 16.4178C47.5825 17.3806 47.0941 17.6666 46.2186 17.6562C45.0046 17.6422 43.7872 17.6562 42.5732 17.6562V17.6527Z" fill="#F8F8F8"/>
<path d="M115.585 15.4618C115.606 13.7281 116.935 12.3851 118.637 12.3746C120.469 12.3607 121.976 13.8781 121.909 15.6607C121.847 17.2758 120.385 18.6293 118.69 18.6397C116.848 18.6502 115.564 17.3351 115.585 15.4618Z" fill="#404040"/>
</g>
<defs>
<clipPath id="clip0_1963_3856">
<rect width="156.279" height="30" fill="white" transform="translate(0.5 0.5)"/>
</clipPath>
</defs>
</svg>
