<svg width="120" height="49" viewBox="0 0 120 49" fill="none" xmlns="http://www.w3.org/2000/svg">
<path d="M74.5983 26.3457C72.0364 16.788 79.3788 6.51392 90.9999 3.40065C102.621 0.287383 114.117 5.51358 116.675 15.0713C119.237 24.629 111.895 34.9031 100.274 38.0164C88.6559 41.1296 77.1602 35.9067 74.5983 26.3457Z" stroke="#A7A7A7" stroke-width="3.91539" stroke-linejoin="round"/>
<path d="M77.1835 25.7817C74.9319 17.3762 81.3896 8.34673 91.6042 5.60652C101.819 2.86962 111.928 7.46194 114.18 15.8674C116.431 24.2729 109.977 33.3024 99.7588 36.0393C89.5441 38.7762 79.4351 34.1839 77.1835 25.7784V25.7817Z" stroke="#A7A7A7" stroke-width="1.9577" stroke-linejoin="round"/>
<path d="M12.2308 19.9829H13.4656L24.4198 47.9165H22.2342L18.3748 38.0616H7.07728L3.19807 47.9165H1.04883L12.2308 19.9829ZM83.9647 22.2411H84.9354V27.2263H91.0034V28.8638H84.9354V41.9937C84.9354 43.585 85.216 44.7603 85.7739 45.5229C86.3319 46.2856 87.2068 46.6685 88.3986 46.6685C89.5904 46.6685 90.6304 46.5662 91.5185 46.3648V47.8604C90.604 48.1575 89.5541 48.3061 88.359 48.3061C86.5333 48.3061 85.1863 47.8174 84.318 46.8402C83.4497 45.863 83.0139 44.3278 83.0139 42.2314V28.8671H79.9502V27.7644L83.0139 26.9094L83.9647 22.2477V22.2411ZM12.802 23.0434C12.4586 24.2616 12.0856 25.3643 11.6795 26.3547L7.78048 36.3416H17.7278L13.9443 26.3151C13.6274 25.5293 13.2477 24.4366 12.802 23.0434ZM36.4272 26.8367C38.2133 26.8367 39.9267 27.1471 41.5609 27.771L41.0459 29.4449C39.2598 28.8473 37.7048 28.5502 36.3876 28.5502C33.852 28.5502 31.9306 29.3326 30.6265 30.9008C29.3191 32.4657 28.6688 34.7206 28.6688 37.6655C28.6688 40.4552 29.3224 42.6408 30.6265 44.2189C31.9306 45.7969 33.7596 46.5893 36.1036 46.5893C37.9788 46.5893 39.722 46.2526 41.3331 45.5824V47.3321C40.0158 47.9792 38.2826 48.3027 36.1399 48.3027C33.1851 48.3027 30.8708 47.3717 29.197 45.5064C27.5232 43.6411 26.6879 41.0396 26.6879 37.7051C26.6879 34.3706 27.5562 31.6139 29.2927 29.7024C31.0293 27.7941 33.4063 26.84 36.4239 26.84L36.4272 26.8367ZM54.1989 26.8367C56.6353 26.8367 58.5568 27.6819 59.9632 29.3755C61.3729 31.0692 62.0761 33.367 62.0761 36.269V37.7843H47.1767C47.2031 40.6434 47.8634 42.8256 49.1642 44.3311C50.4649 45.8366 52.3269 46.5893 54.7502 46.5893C55.9288 46.5893 56.9688 46.5068 57.8602 46.3417C58.7549 46.1766 59.8873 45.8201 61.2574 45.2753V46.9888C60.0887 47.4972 59.0124 47.8438 58.0219 48.0254C57.0315 48.2103 55.942 48.3027 54.7502 48.3027C51.7426 48.3027 49.3986 47.3783 47.7181 45.5229C46.0377 43.6708 45.1958 41.0759 45.1958 37.7414C45.1958 34.4069 46.008 31.8021 47.6323 29.8146C49.2566 27.8305 51.4455 26.8367 54.1956 26.8367H54.1989ZM75.9125 26.8367C76.7874 26.8367 77.725 26.9259 78.7253 27.1041L78.3655 28.9133C77.5038 28.6987 76.6091 28.5898 75.6847 28.5898C73.9217 28.5898 72.479 29.3392 71.3499 30.8348C70.2208 32.3303 69.6596 34.2188 69.6596 36.5034V47.9132H67.7777V27.2263H69.3756L69.5671 30.9635H69.6992C70.5476 29.4416 71.4556 28.3719 72.4163 27.7578C73.3803 27.1438 74.5457 26.8367 75.9158 26.8367H75.9125ZM103.163 26.8763C105.434 26.8763 107.131 27.4673 108.254 28.6459C109.376 29.8245 109.937 31.6634 109.937 34.1626V47.9132H108.547L108.072 44.6414H107.92C106.88 45.9752 105.81 46.9194 104.714 47.4741C103.618 48.0254 102.321 48.3027 100.822 48.3027C98.7916 48.3027 97.2135 47.7811 96.0844 46.7412C94.9553 45.7012 94.3907 44.2618 94.3907 42.4196C94.3907 40.4024 95.2326 38.8342 96.913 37.7183C98.5935 36.6024 101.027 36.0114 104.213 35.9487L108.151 35.8332V34.4631C108.151 32.4987 107.752 31.0131 106.953 30.0127C106.154 29.0091 104.866 28.5106 103.09 28.5106C101.175 28.5106 99.1877 29.0421 97.1342 30.1085L96.431 28.4709C98.7024 27.4046 100.947 26.873 103.169 26.873L103.163 26.8763ZM54.1989 28.4742C52.2081 28.4742 50.6069 29.1345 49.4019 30.4518C48.1968 31.7691 47.4936 33.6674 47.2889 36.1501H60.0755C60.0755 33.7434 59.5538 31.8648 58.5139 30.5079C57.4739 29.1543 56.0345 28.4742 54.1956 28.4742H54.1989ZM108.072 37.3948L104.457 37.5466C101.552 37.6853 99.4783 38.1409 98.2435 38.9068C97.0055 39.6761 96.3881 40.8712 96.3881 42.4955C96.3881 43.7897 96.7843 44.7966 97.5766 45.513C98.369 46.2294 99.4882 46.5893 100.934 46.5893C103.143 46.5893 104.883 45.9587 106.157 44.6943C107.431 43.4298 108.069 41.6767 108.069 39.4318V37.3948H108.072Z" fill="#404040"/>
<path d="M100.822 48.3868C98.7815 48.3868 97.1671 47.8552 96.0281 46.8054C94.8858 45.7522 94.308 44.2798 94.308 42.4243C94.308 40.3874 95.1697 38.7828 96.8667 37.6538C98.5537 36.5346 101.023 35.9337 104.209 35.871L108.068 35.7587V34.4679C108.068 32.5299 107.672 31.0508 106.887 30.067C106.107 29.0898 104.83 28.5946 103.087 28.5946C101.192 28.5946 99.2008 29.1294 97.1671 30.1826L97.0879 30.2222L96.3153 28.4295L96.3879 28.3965C98.6593 27.3301 100.937 26.792 103.159 26.792C105.381 26.792 107.177 27.3961 108.309 28.588C109.442 29.7765 110.016 31.6517 110.016 34.1608V47.9939H108.475L107.999 44.7222H107.96C106.923 46.0427 105.843 46.9936 104.751 47.5449C103.648 48.0995 102.324 48.3835 100.822 48.3835V48.3868ZM104.46 37.6306C101.584 37.7693 99.5078 38.2216 98.2863 38.9776C97.0812 39.7271 96.4705 40.909 96.4705 42.497C96.4705 43.7614 96.8601 44.7552 97.6326 45.4518C98.4051 46.1517 99.5177 46.5049 100.937 46.5049C103.113 46.5049 104.85 45.8744 106.104 44.6363C107.355 43.395 107.993 41.6452 107.993 39.4299V37.4788L104.463 37.6273L104.46 37.6306ZM88.3588 48.3868C86.5166 48.3868 85.1366 47.8849 84.2551 46.8945C83.3769 45.9074 82.9312 44.3359 82.9312 42.2329V28.9511H79.8675V27.7032L82.9411 26.8448L83.8953 22.1633H85.0145V27.1485H91.0825V28.9511H85.0145V41.9985C85.0145 43.5633 85.2918 44.7354 85.8365 45.4782C86.3746 46.2144 87.2363 46.5908 88.3951 46.5908C89.5539 46.5908 90.617 46.4884 91.4985 46.287L91.6008 46.2639V47.9213L91.5447 47.9411C90.6302 48.2382 89.5572 48.3901 88.3621 48.3901L88.3588 48.3868ZM54.7501 48.3868C51.7325 48.3868 49.3456 47.4425 47.6585 45.5805C45.9715 43.7218 45.1164 41.084 45.1164 37.7429C45.1164 34.4018 45.9418 31.7574 47.5694 29.7633C49.2036 27.7659 51.4321 26.7557 54.1987 26.7557C56.6484 26.7557 58.6095 27.6206 60.0291 29.3242C61.4421 31.0244 62.1618 33.3619 62.1618 36.2704V37.8683H47.2624C47.2987 40.6515 47.9623 42.8073 49.23 44.2765C50.5077 45.7555 52.3664 46.5082 54.7534 46.5082C55.9221 46.5082 56.962 46.4257 57.8501 46.2639C58.7349 46.1022 59.8706 45.7423 61.2308 45.2042L61.343 45.1579V47.0464L61.2935 47.0662C60.1248 47.5746 59.032 47.9246 58.0416 48.1094C57.0512 48.2943 55.9452 48.3868 54.7534 48.3868H54.7501ZM59.9961 36.0691C59.9828 33.7316 59.4645 31.8795 58.4543 30.5589C57.4341 29.2318 56.0046 28.5583 54.1987 28.5583C52.241 28.5583 50.6464 29.2152 49.4644 30.5061C48.2924 31.7871 47.5925 33.6557 47.3812 36.0658H59.9961V36.0691ZM36.1398 48.3868C33.1751 48.3868 30.8178 47.4359 29.1374 45.5607C27.457 43.6888 26.6052 41.0443 26.6052 37.7033C26.6052 34.3622 27.49 31.5626 29.2331 29.6444C30.9796 27.7263 33.3996 26.7524 36.427 26.7524C38.2164 26.7524 39.953 27.0693 41.5905 27.69L41.6631 27.7164L41.1019 29.5454L41.0226 29.519C39.2497 28.928 37.6915 28.6276 36.3907 28.6276C33.8915 28.6276 31.9733 29.4067 30.6924 30.9485C29.4048 32.4936 28.7511 34.7485 28.7511 37.6604C28.7511 40.4171 29.4048 42.6059 30.6924 44.1609C31.9767 45.7126 33.7957 46.4983 36.1068 46.4983C37.9622 46.4983 39.7119 46.1616 41.3065 45.498L41.4221 45.4518V47.3765L41.3759 47.3996C40.052 48.05 38.2923 48.3802 36.1464 48.3802L36.1398 48.3868ZM67.695 47.9972V27.1452H69.4547L69.6462 30.8825H69.6528C70.498 29.377 71.4125 28.304 72.3765 27.69C73.3504 27.0693 74.5423 26.7557 75.919 26.7557C76.7938 26.7557 77.7447 26.8448 78.7483 27.0231L78.8308 27.0363L78.4347 29.0139L78.3521 28.994C77.5003 28.7828 76.6057 28.6738 75.6912 28.6738C73.9645 28.6738 72.5284 29.4166 71.4224 30.8858C70.3098 32.3615 69.7485 34.25 69.7485 36.5048V47.9972H67.7016H67.695ZM22.1779 47.9972L18.3186 38.1424H7.13324L3.25404 47.9972H0.926514L12.1746 19.9019H13.5215L24.5418 48.0005H22.1779V47.9972ZM17.6087 36.2638L13.8649 26.3496C13.5678 25.6167 13.2112 24.6031 12.8051 23.3321C12.4849 24.4446 12.1316 25.4747 11.7553 26.3892L7.90248 36.2638H17.6087Z" fill="#404040"/>
<path d="M13.4655 19.9838L24.4197 47.9174H22.2342L18.3748 38.0625H7.0772L3.19799 47.9174H1.04875L12.2308 19.9838H13.4655ZM7.78041 36.3458H17.7277L13.9442 26.3193C13.6273 25.5335 13.2476 24.4408 12.8019 23.0476C12.4586 24.2658 12.0855 25.3685 11.6794 26.3589L7.78041 36.3458ZM84.9353 22.242V27.2272H91.0034V28.8647H84.9353V41.9946C84.9353 43.5859 85.2159 44.7612 85.7739 45.5238C86.3318 46.2865 87.2067 46.6694 88.3985 46.6694C89.5903 46.6694 90.6303 46.5671 91.5184 46.3657V47.8612C90.6039 48.1584 89.554 48.3069 88.3589 48.3069C86.5332 48.3069 85.1862 47.8183 84.3179 46.8411C83.4497 45.8639 83.0139 44.3287 83.0139 42.2323V28.868H79.9501V27.7653L83.0139 26.9102L83.9647 22.2486H84.9353M75.9124 26.8376C76.7873 26.8376 77.7249 26.9268 78.7253 27.105L78.3654 28.9142C77.5037 28.6996 76.609 28.5907 75.6846 28.5907C73.9217 28.5907 72.4789 29.3401 71.3498 30.8357C70.2207 32.3312 69.6595 34.2197 69.6595 36.5043V47.9141H67.7777V27.2272H69.3756L69.567 30.9644H69.6991C70.5476 29.4425 71.4555 28.3728 72.4162 27.7587C73.3802 27.1446 74.5456 26.8376 75.9157 26.8376M54.1988 26.8376C56.6353 26.8376 58.5567 27.6828 59.9631 29.3764C61.3729 31.0701 62.0761 33.3679 62.0761 36.2699V37.7852H47.1766C47.203 40.6443 47.8666 42.8265 49.1641 44.332C50.4649 45.8375 52.3269 46.5902 54.7501 46.5902C55.9288 46.5902 56.9687 46.5077 57.8601 46.3426C58.7548 46.1775 59.8872 45.8209 61.2573 45.2762V46.9897C60.0886 47.4981 59.0123 47.8447 58.0219 48.0263C57.0314 48.2112 55.942 48.3036 54.7501 48.3036C51.7425 48.3036 49.3985 47.3792 47.7181 45.5238C46.0376 43.6717 45.1957 41.0768 45.1957 37.7423C45.1957 34.4078 46.0079 31.803 47.6322 29.8155C49.2565 27.8314 51.4454 26.8376 54.1955 26.8376M47.2922 36.151H60.0787C60.0787 33.7442 59.5571 31.8657 58.5171 30.5088C57.4771 29.1552 56.0377 28.4751 54.1988 28.4751C52.208 28.4751 50.6068 29.1354 49.4018 30.4527C48.1968 31.77 47.4936 33.6683 47.2889 36.151M36.4271 26.8376C38.2132 26.8376 39.9266 27.148 41.5608 27.7719L41.0458 29.4458C39.2597 28.8515 37.7048 28.5511 36.3875 28.5511C33.852 28.5511 31.9305 29.3335 30.6264 30.9017C29.3191 32.4666 28.6687 34.7215 28.6687 37.6664C28.6687 40.4561 29.3224 42.6417 30.6264 44.2197C31.9338 45.7978 33.7595 46.5902 36.1035 46.5902C37.9788 46.5902 39.7219 46.2534 41.333 45.5832V47.333C40.0158 47.9801 38.2825 48.3036 36.1399 48.3036C33.1851 48.3036 30.8708 47.3726 29.1969 45.5073C27.5231 43.642 26.6878 41.0405 26.6878 37.706C26.6878 34.3715 27.5561 31.6115 29.2927 29.7033C31.0292 27.795 33.4063 26.8409 36.4238 26.8409M103.163 26.8772C105.434 26.8772 107.131 27.4682 108.253 28.6468C109.376 29.8254 109.937 31.6643 109.937 34.1635V47.9141H108.547L108.072 44.6423H107.92C106.88 45.9761 105.81 46.9203 104.714 47.475C103.618 48.0263 102.321 48.3036 100.822 48.3036C98.7915 48.3036 97.2134 47.782 96.0843 46.7421C94.9552 45.7021 94.3907 44.2627 94.3907 42.4205C94.3907 40.4033 95.2325 38.8351 96.913 37.7192C98.5934 36.6033 101.027 36.0123 104.212 35.9496L108.151 35.8341V34.464C108.151 32.4996 107.752 31.0139 106.953 30.0136C106.154 29.01 104.866 28.5114 103.09 28.5114C101.175 28.5114 99.1877 29.043 97.1342 30.1094L96.4309 28.4718C98.7023 27.4055 100.947 26.8739 103.169 26.8739M100.934 46.5902C103.143 46.5902 104.883 45.9596 106.157 44.6952C107.431 43.4307 108.069 41.6776 108.069 39.4326V37.3957L104.453 37.5475C101.548 37.6862 99.4782 38.1418 98.2402 38.9077C97.0021 39.677 96.3847 40.8721 96.3847 42.4964C96.3847 43.7906 96.7809 44.7975 97.5732 45.5139C98.3656 46.2303 99.4848 46.5902 100.934 46.5902ZM13.5811 19.8187H12.1218L12.0789 19.9211L0.893583 47.8546L0.804443 48.0824H3.31024L3.34986 47.9768L7.18945 38.2243H18.2625L22.0823 47.9768L22.1219 48.0824H24.664L24.5749 47.8579L13.6207 19.9211L13.5811 19.8154V19.8187ZM8.02141 36.1807L11.8313 26.4183C12.1779 25.5732 12.5048 24.6322 12.8085 23.6121C13.1816 24.7643 13.5117 25.692 13.789 26.382L17.4867 36.1807H8.02141ZM85.1004 22.0769H83.8293L83.8029 22.209L82.8719 26.7749L79.9072 27.6036L79.785 27.6366V29.0298H82.8488V42.229C82.8488 44.3551 83.3011 45.9431 84.1925 46.9467C85.0905 47.957 86.4903 48.4687 88.3589 48.4687C89.5639 48.4687 90.6435 48.3168 91.5679 48.0131L91.6802 47.9768V46.1577L91.4788 46.2039C90.6039 46.402 89.5672 46.5044 88.3952 46.5044C87.2232 46.5044 86.4342 46.1511 85.9026 45.4281C85.3678 44.6985 85.0971 43.543 85.0971 41.9946V29.0298H91.1651V27.0621H85.0971V22.0769H85.1004ZM75.9124 26.6725C74.5192 26.6725 73.3109 26.9928 72.3238 27.6201C71.4027 28.2077 70.5212 29.2114 69.709 30.6079L69.5373 27.2173L69.5307 27.0621H67.6093V48.0791H69.8213V36.5043C69.8213 34.2692 70.3792 32.3973 71.4786 30.9347C72.5681 29.4887 73.9811 28.7558 75.6813 28.7558C76.5892 28.7558 77.4773 28.8614 78.3225 29.0727L78.4909 29.1156L78.5239 28.9472L78.8837 27.138L78.9168 26.973L78.7517 26.9433C77.7447 26.765 76.7873 26.6725 75.9091 26.6725H75.9124ZM54.1988 26.6725C51.4058 26.6725 49.1542 27.696 47.5068 29.7099C45.8659 31.7172 45.034 34.4177 45.034 37.739C45.034 41.0603 45.8957 43.7575 47.5992 45.6328C49.3061 47.5113 51.7128 48.4654 54.7534 48.4654C55.9486 48.4654 57.0612 48.373 58.0549 48.1881C59.0519 48.0032 60.1513 47.65 61.3266 47.1382L61.4257 47.0953V45.0319L61.2012 45.121C59.8476 45.6592 58.7152 46.0157 57.837 46.1775C56.9555 46.3393 55.9189 46.4218 54.7567 46.4218C52.3962 46.4218 50.5573 45.6823 49.2961 44.2197C48.0548 42.7803 47.3978 40.6707 47.3483 37.947H62.2477V36.2666C62.2477 33.3382 61.5247 30.9809 60.0985 29.2675C58.6657 27.5441 56.6815 26.6692 54.2054 26.6692L54.1988 26.6725ZM47.4704 35.9859C47.6883 33.6386 48.3783 31.8162 49.5239 30.565C50.6927 29.2906 52.2641 28.6435 54.1988 28.6435C55.975 28.6435 57.3847 29.3071 58.3883 30.6112C59.3788 31.8987 59.8905 33.7079 59.9136 35.9859H47.4704ZM36.4271 26.6725C33.3766 26.6725 30.9335 27.6531 29.1738 29.591C27.4174 31.5224 26.526 34.2527 26.526 37.7027C26.526 41.1527 27.3844 43.7278 29.0781 45.6163C30.775 47.508 33.1521 48.4687 36.1432 48.4687C38.3023 48.4687 40.0719 48.1353 41.409 47.4816L41.5014 47.4354V45.3356L41.2736 45.4314C39.6922 46.0917 37.9524 46.4251 36.1069 46.4251C33.8256 46.4251 32.023 45.6493 30.7552 44.1174C29.4808 42.5756 28.8338 40.4066 28.8338 37.6697C28.8338 34.7809 29.4808 32.5392 30.7552 31.0106C32.023 29.492 33.918 28.7194 36.3908 28.7194C37.6849 28.7194 39.2333 29.0166 40.9963 29.6042L41.1581 29.6571L41.2076 29.4953L41.7226 27.8214L41.7688 27.6729L41.6236 27.6168C39.9762 26.9895 38.2297 26.6725 36.4304 26.6725H36.4271ZM103.163 26.7122C100.928 26.7122 98.6396 27.2536 96.355 28.3266L96.2098 28.3959L96.2725 28.5412L96.9757 30.1787L97.045 30.3405L97.2035 30.2579C99.224 29.2114 101.205 28.6798 103.083 28.6798C104.8 28.6798 106.055 29.1651 106.817 30.1193C107.59 31.0866 107.979 32.5491 107.979 34.4673V35.6756L104.199 35.7845C101 35.8473 98.5142 36.4514 96.8139 37.5805C95.0906 38.7261 94.219 40.3538 94.219 42.4172C94.219 44.2957 94.8066 45.7912 95.9654 46.8609C97.1209 47.924 98.7519 48.4654 100.815 48.4654C102.331 48.4654 103.664 48.1815 104.78 47.6169C105.857 47.0755 106.916 46.1544 107.933 44.8767L108.376 47.9306L108.395 48.0725H110.092V34.1569C110.092 31.628 109.511 29.733 108.362 28.528C107.213 27.3196 105.46 26.7089 103.153 26.7089L103.163 26.7122ZM100.934 46.4251C99.5376 46.4251 98.4448 46.0785 97.6855 45.3918C96.9328 44.7117 96.5498 43.7377 96.5498 42.4964C96.5498 40.9183 97.1309 39.7925 98.326 39.0497C99.5343 38.3002 101.598 37.8513 104.46 37.7126L107.903 37.5673V39.4326C107.903 41.6215 107.276 43.3548 106.038 44.5796C104.8 45.8044 103.083 46.4251 100.931 46.4251H100.934Z" fill="#404040"/>
</svg>
