<svg width="110" height="109" viewBox="0 0 110 109" fill="none" xmlns="http://www.w3.org/2000/svg">
<path d="M5.67825 86.4187C7.63884 86.4187 9.13036 86.8609 10.1498 87.7423C11.1728 88.6237 11.6829 89.881 11.6829 91.5117C11.6829 94.2473 10.328 95.8882 7.62198 96.4314L11.7069 103.23C11.7906 103.379 11.8069 103.497 11.7563 103.588C11.7069 103.68 11.6166 103.725 11.4817 103.725H10.0125C9.81379 103.725 9.68614 103.708 9.62713 103.676C9.56812 103.642 9.48984 103.544 9.38988 103.379L5.3296 96.6041H2.63981C2.39052 96.6041 2.2448 96.6256 2.20386 96.6668C2.16291 96.7075 2.14063 96.8515 2.14063 97.0995V103.231C2.14063 103.412 2.1039 103.54 2.02863 103.613C1.95457 103.688 1.82571 103.725 1.64326 103.725H0.497374C0.314923 103.725 0.186666 103.688 0.110795 103.613C0.0355267 103.54 0 103.412 0 103.231V86.9141C0 86.733 0.0355267 86.6051 0.110795 86.5304C0.186666 86.4569 0.314923 86.4193 0.497374 86.4193H5.67825V86.4187ZM2.14124 94.132C2.14124 94.38 2.16351 94.524 2.20446 94.5646C2.24541 94.6071 2.39113 94.6274 2.64041 94.6274H5.82939C8.33673 94.6274 9.591 93.5894 9.591 91.5117C9.591 89.434 8.33673 88.3966 5.82939 88.3966H2.64041C2.39113 88.3966 2.24541 88.4181 2.20446 88.4594C2.16351 88.5 2.14124 88.6446 2.14124 88.892V94.132Z" fill="#404040"/>
<path d="M18.9586 103.725C18.8267 103.725 18.7309 103.716 18.6731 103.7C18.6141 103.684 18.5527 103.642 18.4853 103.576C18.4184 103.511 18.3606 103.395 18.3112 103.231L12.5071 86.9141C12.3903 86.5848 12.4987 86.4187 12.8305 86.4187H14.0751C14.2094 86.4187 14.2997 86.4241 14.3491 86.4324C14.3997 86.4408 14.4533 86.4569 14.5111 86.4814C14.5701 86.5059 14.6153 86.552 14.6478 86.6177C14.6821 86.6828 14.7237 86.782 14.7742 86.9141L19.4078 100.289C19.4409 100.372 19.4896 100.412 19.5559 100.412C19.6221 100.412 19.6739 100.372 19.707 100.289L24.3393 86.9141C24.423 86.6828 24.5007 86.5442 24.5766 86.4934C24.6506 86.4444 24.8042 86.4187 25.0372 86.4187H26.2819C26.6136 86.4187 26.7232 86.5848 26.6052 86.9141L20.8023 103.231C20.7186 103.461 20.6361 103.601 20.5542 103.65C20.4705 103.7 20.3375 103.725 20.1538 103.725H18.9586Z" fill="#404040"/>
<path d="M28.4724 103.665C28.4314 103.706 28.3273 103.727 28.1629 103.727C27.9985 103.727 27.8913 103.706 27.8504 103.665C27.8088 103.623 27.7883 103.521 27.7883 103.355V93.7983C27.7883 93.634 27.8088 93.5306 27.8504 93.4894C27.8913 93.4488 27.9955 93.4279 28.1629 93.4279C28.3303 93.4279 28.4314 93.4482 28.4724 93.4894C28.5151 93.53 28.5356 93.634 28.5356 93.7983V94.5399C29.3389 93.8258 30.23 93.4284 31.2127 93.3454C32.5278 93.2635 33.5449 93.6609 34.2644 94.5399C35.0665 93.8258 35.9589 93.4284 36.9416 93.3454C37.9508 93.2773 38.8359 93.548 39.5982 94.1593C40.3594 94.77 40.7393 95.597 40.7393 96.6421V103.356C40.7393 103.522 40.72 103.624 40.6779 103.666C40.6363 103.706 40.5328 103.727 40.3666 103.727C40.2004 103.727 40.0974 103.707 40.0553 103.666C40.0131 103.624 39.9939 103.522 39.9939 103.356V96.6421C39.9939 95.8587 39.6952 95.2301 39.0997 94.7568C38.5047 94.2836 37.8069 94.0601 37.0054 94.0876C36.0636 94.1282 35.2339 94.4521 34.5131 95.0562C34.5968 95.3173 34.6396 95.6334 34.6396 96.0033V103.356C34.6396 103.522 34.6179 103.625 34.5763 103.666C34.5354 103.707 34.4312 103.728 34.2656 103.728C34.1 103.728 33.9953 103.708 33.9543 103.666C33.9134 103.625 33.8911 103.522 33.8911 103.356V96.0661C33.8911 95.447 33.7044 94.9869 33.3317 94.6851C32.8054 94.2591 32.1202 94.0607 31.2754 94.0876C30.2391 94.1282 29.3262 94.5268 28.5368 95.2821V103.356C28.5368 103.522 28.5163 103.625 28.4736 103.666L28.4724 103.665Z" fill="#404040"/>
<path d="M49.7747 103.666C49.7337 103.707 49.6296 103.728 49.4634 103.728C49.2972 103.728 49.1948 103.707 49.1521 103.666C49.1099 103.624 49.0906 103.522 49.0906 103.356V102.553C48.3699 103.309 47.4239 103.728 46.2473 103.811C45.2495 103.879 44.3776 103.602 43.6316 102.975C42.8831 102.351 42.5098 101.51 42.5098 100.453C42.5098 99.396 42.8825 98.5511 43.6316 97.9188C44.3776 97.2878 45.2489 97.0064 46.2473 97.0757C47.3944 97.1575 48.3422 97.5764 49.0906 98.3312V96.8074C49.0906 95.9696 48.8203 95.3069 48.2801 94.8199C47.7412 94.3317 47.0831 94.0879 46.3087 94.0879C45.3947 94.0879 44.6347 94.4171 44.0266 95.0768C43.8869 95.2412 43.7357 95.2412 43.5683 95.0768L43.4449 94.9531C43.3323 94.8295 43.3546 94.6854 43.5063 94.5205C44.2259 93.7383 45.1731 93.3463 46.3497 93.3463C47.3462 93.3463 48.1772 93.6594 48.8407 94.2839C49.5043 94.9083 49.8361 95.7222 49.8361 96.7243V103.357C49.8361 103.523 49.8168 103.625 49.7747 103.667V103.666ZM49.0906 99.0309C48.3283 98.2487 47.451 97.8298 46.4532 97.7736C45.5964 97.7192 44.8521 97.9248 44.2229 98.3927C43.5936 98.8594 43.2781 99.5448 43.2781 100.452C43.2781 101.36 43.5936 102.046 44.2229 102.512C44.8521 102.979 45.5964 103.185 46.4532 103.13C47.451 103.076 48.3283 102.657 49.0906 101.873V99.0309Z" fill="#404040"/>
<path d="M53.3488 94.4453C54.0822 93.7103 54.9746 93.3434 56.026 93.3434C56.6486 93.3434 57.2339 93.4875 57.7794 93.7761C58.3262 94.0647 58.773 94.4495 59.1186 94.93V93.7964C59.1186 93.6321 59.1367 93.5281 59.171 93.4875C59.2053 93.4462 59.3053 93.4259 59.4714 93.4259C59.6376 93.4259 59.7388 93.4462 59.7731 93.4875C59.8074 93.5281 59.8249 93.6315 59.8249 93.7964V97.2981C59.7689 98.3008 59.3757 99.1457 58.6423 99.8311C57.9089 100.518 57.037 100.861 56.0266 100.861C55.0162 100.861 54.1033 100.512 53.3699 99.8114C52.8719 99.8807 52.5022 100.073 52.2595 100.388C52.0169 100.704 51.8964 101.048 51.8964 101.418C51.8964 101.83 52.0482 102.208 52.3529 102.551C52.6575 102.894 53.1278 103.066 53.7637 103.066H57.9986C58.8296 103.066 59.4901 103.313 59.9809 103.808C60.4728 104.302 60.7251 104.892 60.739 105.579C60.7528 106.582 60.3482 107.374 59.5244 107.957C58.7019 108.541 57.6054 108.833 56.2343 108.833C54.8632 108.833 53.7679 108.541 52.9442 107.957C52.1216 107.373 51.717 106.581 51.7308 105.579C51.7308 104.782 52.0416 104.137 52.6642 103.642C52.2071 103.464 51.8416 103.173 51.5646 102.767C51.2877 102.361 51.1492 101.912 51.1492 101.417C51.1492 100.896 51.3045 100.426 51.617 100.006C51.9265 99.5873 52.3324 99.3029 52.8316 99.1517C52.4426 98.5344 52.2505 97.8538 52.2505 97.1122C52.2505 96.0689 52.6166 95.1791 53.35 94.4447L53.3488 94.4453ZM59.0776 107.402C59.7141 106.941 60.0182 106.361 59.9905 105.661C59.9766 105.154 59.7888 104.717 59.4299 104.353C59.071 103.989 58.5785 103.808 57.9564 103.808H54.4068C53.8119 103.822 53.3458 104.009 53.0056 104.374C52.6654 104.737 52.4895 105.167 52.4763 105.661C52.4486 106.361 52.7533 106.941 53.3892 107.402C54.0256 107.862 54.974 108.092 56.2325 108.092C57.491 108.092 58.4394 107.862 59.077 107.402H59.0776ZM53.8667 99.2449C54.4477 99.8287 55.1673 100.12 56.0254 100.12C56.8834 100.12 57.606 99.8287 58.1943 99.2449C58.7826 98.6611 59.077 97.9512 59.077 97.1128C59.077 96.2745 58.7826 95.561 58.1943 94.97C57.6066 94.3796 56.8834 94.0844 56.0254 94.0844C55.1673 94.0844 54.4658 94.3766 53.8775 94.9604C53.2892 95.5443 52.9947 96.2607 52.9947 97.1128C52.9947 97.965 53.2856 98.6611 53.8667 99.2449Z" fill="#404040"/>
<path d="M62.8587 103.665C62.8178 103.706 62.7136 103.727 62.5474 103.727C62.3812 103.727 62.277 103.706 62.2361 103.665C62.1951 103.623 62.1729 103.521 62.1729 103.355V93.7981C62.1729 93.6338 62.1951 93.5298 62.2361 93.4892C62.277 93.448 62.3812 93.4276 62.5474 93.4276C62.7136 93.4276 62.8171 93.448 62.8587 93.4892C62.9002 93.5298 62.9207 93.6332 62.9207 93.7981V94.5397C63.2537 94.2517 63.6897 93.9917 64.2286 93.7575C64.7687 93.5232 65.2956 93.3864 65.8062 93.3452C66.8305 93.277 67.7542 93.5477 68.5767 94.159C69.4004 94.7697 69.8117 95.5968 69.8117 96.6419V103.355C69.8117 103.522 69.7912 103.624 69.7503 103.666C69.7075 103.706 69.6051 103.727 69.439 103.727C69.2728 103.727 69.1692 103.707 69.1264 103.666C69.0855 103.624 69.065 103.522 69.065 103.355V96.6419C69.065 95.8585 68.7363 95.2299 68.0793 94.7566C67.4212 94.2833 66.6847 94.0599 65.8682 94.0873C65.3293 94.1011 64.782 94.229 64.2286 94.4686C63.6764 94.7094 63.2405 94.9801 62.9207 95.2819V103.356C62.9207 103.522 62.9002 103.624 62.8587 103.666V103.665Z" fill="#404040"/>
<path d="M72.4727 98.9795C72.4317 99.0136 72.4179 99.0859 72.4317 99.1958C72.5564 100.322 73.0062 101.259 73.7806 102.008C74.5549 102.756 75.5521 103.11 76.769 103.069C77.8902 103.041 78.8789 102.671 79.737 101.957C79.9592 101.778 80.1459 101.785 80.2976 101.977C80.4632 102.182 80.4361 102.369 80.2157 102.533C79.1915 103.371 78.0155 103.796 76.6871 103.811C75.1504 103.825 73.9263 103.32 73.0134 102.297C72.1 101.274 71.6423 100.034 71.6423 98.5785C71.6423 97.1229 72.0783 95.8519 72.9502 94.8498C73.8221 93.8483 74.971 93.3463 76.3969 93.3463C77.8228 93.3463 78.9452 93.8375 79.8105 94.8199C80.6757 95.8005 81.1225 97.0195 81.1496 98.4752V98.5785C81.1496 98.811 81.0117 98.9281 80.7342 98.9281H72.7641C72.6118 98.9281 72.5148 98.9454 72.4733 98.9801L72.4727 98.9795ZM72.4727 98.177C72.5142 98.211 72.6112 98.2272 72.7635 98.2272H80.0278C80.1802 98.2272 80.2771 98.2104 80.3187 98.177C80.3608 98.1417 80.3747 98.0694 80.3608 97.9607C80.2494 96.848 79.8412 95.9242 79.1354 95.1898C78.4297 94.4548 77.5163 94.0879 76.3963 94.0879C75.2763 94.0879 74.3616 94.4554 73.6559 95.1898C72.9502 95.9242 72.5431 96.848 72.4317 97.9607C72.4179 98.0694 72.4317 98.1417 72.4727 98.177Z" fill="#404040"/>
<path d="M83.7477 94.8494C83.7067 94.8087 83.6026 94.7878 83.4364 94.7878H82.6891C82.5235 94.7878 82.4187 94.7675 82.3778 94.7263C82.3369 94.6844 82.3152 94.5823 82.3152 94.4161C82.3152 94.25 82.3369 94.1496 82.3778 94.1078C82.4187 94.0672 82.5235 94.0463 82.6891 94.0463H83.4364C83.6026 94.0463 83.7067 94.0259 83.7477 93.9835C83.7886 93.9429 83.8109 93.8395 83.8109 93.6752V91.5951C83.8109 91.4307 83.8314 91.3268 83.8723 91.2861C83.9133 91.2455 84.0175 91.2234 84.1836 91.2234C84.3498 91.2234 84.4534 91.2449 84.4944 91.2861C84.5371 91.3268 84.5576 91.4301 84.5576 91.5951V93.6752C84.5576 93.8395 84.5781 93.9429 84.619 93.9835C84.6599 94.0259 84.7641 94.0463 84.9303 94.0463H86.6741C86.8397 94.0463 86.9445 94.0666 86.9854 94.1078C87.0264 94.1502 87.0481 94.2518 87.0481 94.4161C87.0481 94.5805 87.0264 94.6844 86.9854 94.7263C86.9445 94.7675 86.8403 94.7878 86.6741 94.7878H84.9303C84.7641 94.7878 84.6599 94.8081 84.619 94.8494C84.5781 94.8912 84.5576 94.9934 84.5576 95.1595V101.215C84.5576 101.846 84.7304 102.313 85.076 102.615C85.4229 102.917 85.8028 103.069 86.2177 103.069C86.6741 103.069 87.1173 102.856 87.546 102.43C87.7122 102.252 87.8844 102.252 88.0645 102.43C88.2319 102.595 88.2235 102.781 88.044 102.986C87.5599 103.536 86.9517 103.811 86.2177 103.811C85.5529 103.811 84.9869 103.577 84.5148 103.111C84.0446 102.644 83.8103 102.067 83.8103 101.38V95.1601C83.8103 94.994 83.788 94.8918 83.7471 94.85L83.7477 94.8494Z" fill="#404040"/>
<path d="M89.8319 90.3264C89.9692 90.1824 90.136 90.1101 90.3292 90.1101C90.5225 90.1101 90.6923 90.1824 90.8381 90.3264C90.9832 90.471 91.056 90.6395 91.056 90.8314C91.056 91.0232 90.9838 91.1893 90.8381 91.3249C90.6923 91.4636 90.5225 91.5317 90.3292 91.5317C90.136 91.5317 89.9686 91.4636 89.8319 91.3249C89.6934 91.1887 89.6235 91.0232 89.6235 90.8314C89.6235 90.6395 89.6934 90.471 89.8319 90.3264ZM90.6406 103.664C90.5996 103.705 90.4948 103.725 90.3292 103.725C90.1637 103.725 90.0595 103.705 90.0179 103.664C89.9764 103.622 89.9547 103.52 89.9547 103.354V93.797C89.9547 93.6327 89.9764 93.5287 90.0179 93.4881C90.0589 93.4469 90.1631 93.4266 90.3292 93.4266C90.4954 93.4266 90.5996 93.4469 90.6406 93.4881C90.6815 93.5287 90.702 93.6321 90.702 93.797V103.354C90.702 103.52 90.6815 103.622 90.6406 103.664Z" fill="#404040"/>
<path d="M94.2844 94.878C95.3152 93.855 96.5569 93.3434 98.0104 93.3434C99.2003 93.3434 100.272 93.708 101.228 94.4358C101.449 94.6001 101.478 94.7854 101.311 94.9909C101.201 95.1146 101.114 95.1732 101.051 95.1666C100.989 95.16 100.889 95.108 100.751 95.013C99.9614 94.394 99.0485 94.085 98.011 94.085C96.7664 94.085 95.7012 94.5242 94.8154 95.4032C93.9297 96.2822 93.4859 97.3393 93.4859 98.5757C93.4859 99.812 93.9297 100.868 94.8154 101.747C95.7012 102.626 96.7664 103.066 98.011 103.066C99.0485 103.066 99.962 102.756 100.751 102.138C100.89 102.043 100.99 101.991 101.051 101.985C101.115 101.978 101.201 102.035 101.311 102.159C101.478 102.366 101.449 102.551 101.228 102.716C100.272 103.443 99.2003 103.808 98.0104 103.808C96.5569 103.808 95.3152 103.296 94.2844 102.273C93.2535 101.25 92.738 100.018 92.738 98.5757C92.738 97.1338 93.2535 95.901 94.2844 94.878Z" fill="#404040"/>
<path d="M104.386 97.0005C104.759 97.3232 105.216 97.5909 105.756 97.803C106.295 98.017 106.839 98.2398 107.385 98.4723C107.932 98.7065 108.409 99.0179 108.817 99.4099C109.226 99.8019 109.451 100.264 109.492 100.8C109.562 101.706 109.285 102.434 108.663 102.984C108.039 103.534 107.181 103.808 106.089 103.808C104.996 103.808 103.895 103.527 102.83 102.964C102.609 102.854 102.559 102.682 102.684 102.448C102.795 102.215 102.989 102.166 103.266 102.304C104.317 102.812 105.258 103.067 106.089 103.067C106.92 103.067 107.531 102.891 108.009 102.54C108.486 102.191 108.725 101.72 108.725 101.13C108.725 100.636 108.538 100.214 108.164 99.8628C107.791 99.5132 107.334 99.2318 106.795 99.0179C106.255 98.8057 105.712 98.5852 105.165 98.3594C104.619 98.1323 104.145 97.8299 103.743 97.4535C103.342 97.0752 103.121 96.6181 103.08 96.0832C103.024 95.2861 103.284 94.6306 103.857 94.1161C104.431 93.6004 105.183 93.3434 106.11 93.3434C106.982 93.3434 107.86 93.5771 108.746 94.0438C108.925 94.1406 108.961 94.2983 108.85 94.5171C108.793 94.627 108.746 94.6993 108.705 94.7334C108.664 94.7674 108.614 94.7782 108.56 94.7644C108.504 94.7507 108.421 94.7154 108.31 94.6611C107.59 94.2774 106.857 94.0844 106.11 94.0844C105.364 94.0844 104.831 94.2625 104.43 94.6204C104.028 94.9772 103.828 95.3961 103.828 95.8759C103.828 96.302 104.015 96.676 104.389 96.9999L104.386 97.0005Z" fill="#404040"/>
<path d="M71.5514 37.0642C71.5514 36.6046 71.4677 36.166 71.4129 35.7244C70.7397 30.0381 65.9226 25.6179 60.0155 25.6179C54.1084 25.6179 49.3021 30.0285 48.6108 35.6987C48.5615 36.1535 48.4766 36.5981 48.4766 37.0648C48.4766 43.3869 53.6424 48.5098 60.0155 48.5098C66.3886 48.5098 71.5514 43.3863 71.5514 37.0648V37.0642Z" fill="#404040"/>
<path d="M93.9964 23.7702C93.3852 22.2166 92.6205 20.7394 91.795 19.2969C91.4289 18.6563 91.0766 18.0044 90.675 17.3853C87.4697 12.4375 83.0982 8.26658 77.8932 5.33496C70.5699 1.21181 61.9676 -0.301212 53.6833 1.07795C45.3977 2.45473 37.7619 6.66692 32.1908 12.9329C30.5837 14.7393 29.1946 16.7095 27.9909 18.78C27.0611 20.3761 26.2308 22.026 25.5534 23.7374C24.0594 27.4978 23.1857 31.4973 23.0201 35.5702C22.7215 42.7983 19.7083 49.3756 14.9568 54.3037V70.6756C27.1707 63.6925 35.5171 50.8241 36.1253 36.105C36.1801 34.8197 36.3517 33.5594 36.6082 32.3273C36.8051 31.3778 37.0767 30.4551 37.3922 29.5492C40.1446 21.5497 47.1428 15.368 55.8468 13.9207C66.6108 12.1346 77.2929 18.0128 81.5235 27.9388C81.603 28.1336 81.7 28.3171 81.7758 28.5143C81.9541 28.9702 82.1022 29.4297 82.2515 29.891C85.4634 39.8374 81.606 50.9137 72.7147 56.6951C63.4134 62.7472 50.9399 61.4792 43.0626 53.6876L33.798 62.9103C39.7502 68.7969 47.6401 72.5065 56.0148 73.3568C64.3949 74.206 72.8809 72.1581 79.908 67.5886C86.9308 63.0203 92.2129 56.1179 94.7762 48.1554C97.3371 40.1953 97.0613 31.5325 93.9976 23.7696L93.9964 23.7702Z" fill="#404040"/>
</svg>
