<svg width="181" height="34" viewBox="0 0 181 34" fill="none" xmlns="http://www.w3.org/2000/svg">
<mask id="mask0_1963_3809" style="mask-type:luminance" maskUnits="userSpaceOnUse" x="17" y="5" width="18" height="18">
<path d="M28.9821 22.4111L34.4783 16.915C34.4802 16.9079 34.4802 16.9004 34.4783 16.8934V5.79893C34.4783 5.79113 34.4752 5.78364 34.4697 5.77812C34.4641 5.77259 34.4566 5.76949 34.4488 5.76949H23.378C23.371 5.76694 23.3633 5.76694 23.3564 5.76949L17.8602 11.2657C17.856 11.2701 17.8532 11.2755 17.8521 11.2815C17.851 11.2874 17.8516 11.2935 17.8539 11.2991C17.8562 11.3047 17.86 11.3095 17.865 11.313C17.8699 11.3165 17.8757 11.3184 17.8818 11.3187H28.9075C28.9153 11.3187 28.9228 11.3218 28.9283 11.3273C28.9339 11.3328 28.937 11.3403 28.937 11.3481V22.3739C28.935 22.3799 28.9348 22.3863 28.9366 22.3924C28.9383 22.3985 28.9419 22.4039 28.9468 22.408C28.9516 22.412 28.9576 22.4145 28.9639 22.415C28.9702 22.4156 28.9766 22.4142 28.9821 22.4111Z" fill="white"/>
</mask>
<g mask="url(#mask0_1963_3809)">
<path d="M34.6903 5.57324L28.7328 11.5307H17.2124L23.1699 5.57324H34.6903Z" fill="#666666"/>
<path d="M28.7349 23.0511L34.6904 17.0956V5.57324L28.7329 11.5287L28.7349 23.0511Z" fill="#404040"/>
<path d="M34.6558 5.57536L28.7 11.5312L28.7333 11.5646L34.6892 5.60867L34.6558 5.57536Z" fill="url(#paint0_linear_1963_3809)"/>
</g>
<mask id="mask1_1963_3809" style="mask-type:luminance" maskUnits="userSpaceOnUse" x="6" y="16" width="18" height="18">
<path d="M17.8523 33.5391L23.3485 28.0429C23.3545 28.0373 23.358 28.0295 23.3583 28.0213V16.9288C23.3583 16.9205 23.355 16.9125 23.3491 16.9066C23.3432 16.9007 23.3352 16.8974 23.3269 16.8974H12.2502C12.2468 16.8958 12.2431 16.895 12.2394 16.895C12.2356 16.895 12.2319 16.8958 12.2286 16.8974L6.73237 22.3936C6.72792 22.3977 6.72484 22.4031 6.72356 22.409C6.72228 22.4149 6.72287 22.4211 6.72523 22.4267C6.72759 22.4323 6.73162 22.437 6.73676 22.4402C6.7419 22.4434 6.74791 22.445 6.75397 22.4446H17.7738C17.7818 22.4451 17.7893 22.4487 17.7948 22.4545C17.8002 22.4603 17.8033 22.468 17.8033 22.476V33.4998C17.7981 33.5063 17.7956 33.5146 17.7966 33.5229C17.7975 33.5312 17.8017 33.5388 17.8082 33.544C17.8147 33.5492 17.823 33.5516 17.8313 33.5507C17.8395 33.5498 17.8471 33.5456 17.8523 33.5391Z" fill="white"/>
</mask>
<g mask="url(#mask1_1963_3809)">
<path d="M23.5626 16.7012L17.6051 22.6586H6.08472L12.0402 16.7012H23.5626Z" fill="#666666"/>
<path d="M17.6052 34.179L23.5627 28.2235V16.7012L17.6052 22.6586V34.179Z" fill="#404040"/>
<path d="M23.5282 16.7018L17.5723 22.6577L17.6056 22.691L23.5615 16.7351L23.5282 16.7018Z" fill="url(#paint1_linear_1963_3809)"/>
</g>
<mask id="mask2_1963_3809" style="mask-type:luminance" maskUnits="userSpaceOnUse" x="1" y="0" width="17" height="17">
<path d="M12.2893 16.8463L17.7855 11.3502C17.7874 11.3431 17.7874 11.3356 17.7855 11.3286V0.236094C17.7855 0.228094 17.7825 0.220389 17.777 0.214552C17.7715 0.208715 17.764 0.205187 17.7561 0.204687H6.68517C6.67823 0.201953 6.67051 0.201953 6.66358 0.204687L1.16739 5.70087C1.16381 5.70529 1.1615 5.71061 1.16071 5.71624C1.15991 5.72188 1.16067 5.72762 1.16288 5.73286C1.1651 5.73811 1.1687 5.74265 1.1733 5.746C1.1779 5.74935 1.18332 5.75139 1.18899 5.75191H12.2147C12.2227 5.75241 12.2302 5.75593 12.2357 5.76177C12.2411 5.76761 12.2442 5.77531 12.2442 5.78331V16.8071C12.2415 16.8132 12.2409 16.82 12.2424 16.8265C12.2439 16.833 12.2474 16.8388 12.2524 16.8432C12.2574 16.8476 12.2637 16.8502 12.2703 16.8508C12.277 16.8514 12.2836 16.8498 12.2893 16.8463Z" fill="white"/>
</mask>
<g mask="url(#mask2_1963_3809)">
<path d="M17.9974 0.00830078L12.0399 5.96577H0.519531L6.477 0.00830078H17.9974Z" fill="#666666"/>
<path d="M12.04 17.4862L17.9975 11.5307V0.00830078L12.04 5.96577V17.4862Z" fill="#404040"/>
<path d="M17.9613 0.00992989L12.0054 5.96582L12.0387 5.99913L17.9946 0.0432426L17.9613 0.00992989Z" fill="url(#paint2_linear_1963_3809)"/>
</g>
<path d="M50.0972 17.4431C50.0921 17.4503 50.089 17.4587 50.0879 17.4675C50.0868 17.4763 50.0878 17.4852 50.0909 17.4934C50.094 17.5017 50.099 17.5091 50.1056 17.5151C50.1121 17.521 50.12 17.5252 50.1286 17.5275C50.5955 17.6528 51.0423 17.8438 51.4555 18.0947C51.9367 18.3916 52.3713 18.7581 52.7451 19.1822C53.5486 20.1215 53.9801 21.3226 53.9582 22.5584C53.97 23.3704 53.8018 24.1748 53.4655 24.9139C53.1476 25.6088 52.6868 26.2288 52.1131 26.7336C51.5241 27.2505 50.8419 27.6502 50.1031 27.9113C49.3206 28.1933 48.4948 28.3361 47.6631 28.3334C46.9784 28.3386 46.2969 28.2406 45.6413 28.0428C45.0409 27.8618 44.4702 27.594 43.9473 27.2479C43.4432 26.9117 42.9881 26.5075 42.5949 26.0465C42.2219 25.6015 41.8988 25.1171 41.6311 24.6018C41.6218 24.5849 41.619 24.5651 41.6233 24.5463C41.6277 24.5275 41.6388 24.5109 41.6546 24.4998L43.8924 22.9157C43.9082 22.9043 43.9278 22.8994 43.9471 22.9019C43.9664 22.9045 43.9841 22.9143 43.9964 22.9294C44.6285 23.7578 44.9582 24.1425 45.5157 24.5528C46.1113 24.9793 46.8308 25.198 47.563 25.175C48.3101 25.2022 49.0419 24.9589 49.6241 24.4899C49.8972 24.2581 50.1133 23.9664 50.2556 23.6376C50.3979 23.3088 50.4626 22.9516 50.4446 22.5938C50.4618 22.2475 50.3908 21.9026 50.2384 21.5912C50.086 21.2798 49.8571 21.0122 49.5731 20.8134C48.9842 20.3992 48.1637 20.1931 46.9604 20.1931H45.0191C44.9779 20.1931 44.9622 20.1656 44.9818 20.1303L48.2383 14.4889C48.2579 14.4555 48.2383 14.428 48.201 14.428H42.9109C42.8918 14.4275 42.8736 14.4197 42.8601 14.4062C42.8466 14.3927 42.8388 14.3745 42.8383 14.3554V11.411C42.8388 11.3921 42.8467 11.3741 42.8602 11.3609C42.8738 11.3477 42.892 11.3403 42.9109 11.3403H53.5519C53.5912 11.3403 53.6069 11.3678 53.5872 11.4012L50.0972 17.4431Z" fill="#404040"/>
<path d="M64.1221 21.3847C64.1006 21.426 64.0885 21.4716 64.0868 21.5182V27.9408C64.0863 27.9599 64.0785 27.9781 64.065 27.9916C64.0515 28.0052 64.0333 28.013 64.0142 28.0135H60.7459C60.7268 28.013 60.7086 28.0052 60.6951 27.9916C60.6816 27.9781 60.6738 27.9599 60.6733 27.9408V21.5613C60.6716 21.5141 60.6595 21.4679 60.638 21.4259L54.9455 11.3895C54.9259 11.3541 54.9455 11.3267 54.9828 11.3267H58.6319C58.6533 11.3278 58.6741 11.3342 58.6925 11.3451C58.711 11.356 58.7265 11.3713 58.7379 11.3895L62.332 17.8946C62.3496 17.928 62.381 17.928 62.4007 17.8946L66.0223 11.3973C66.0333 11.3789 66.0488 11.3635 66.0673 11.3525C66.0858 11.3415 66.1068 11.3354 66.1283 11.3345H69.7518C69.7911 11.3345 69.8068 11.362 69.7891 11.3973L64.1221 21.3847Z" fill="#404040"/>
<path d="M86.3975 16.2498C85.9506 15.2184 85.3057 14.2848 84.4993 13.5017C83.687 12.7172 82.7295 12.0985 81.6806 11.6801C79.4593 10.8006 76.9864 10.8006 74.7652 11.6801C73.7218 12.1015 72.7695 12.72 71.9602 13.5017C71.1544 14.2849 70.5102 15.2185 70.064 16.2498C69.6054 17.3342 69.3691 18.4997 69.3691 19.6771C69.3691 20.8545 69.6054 22.0199 70.064 23.1043C70.509 24.1328 71.1481 25.0659 71.9464 25.8524C72.7539 26.637 73.7076 27.2552 74.7534 27.672C76.9792 28.5489 79.4548 28.5489 81.6806 27.672C82.7295 27.2544 83.6869 26.6363 84.4993 25.8524C85.3055 25.0692 85.9504 24.1356 86.3975 23.1043C86.856 22.0199 87.0923 20.8545 87.0923 19.6771C87.0923 18.4997 86.856 17.3342 86.3975 16.2498ZM83.1979 21.903C82.9454 22.551 82.5626 23.1403 82.0731 23.6343C81.5849 24.1197 81.0042 24.5022 80.3654 24.7591C79.6916 25.0324 78.9706 25.1704 78.2435 25.1654C77.504 25.1738 76.7701 25.0357 76.0843 24.7591C75.4512 24.4991 74.8755 24.1169 74.3903 23.6343C73.9024 23.1417 73.5239 22.5517 73.2792 21.903C73.0112 21.1919 72.8781 20.437 72.8867 19.6771C72.8774 18.9215 73.0105 18.171 73.2792 17.4648C73.5237 16.8206 73.8978 16.2334 74.3782 15.7394C74.8586 15.2455 75.4353 14.8553 76.0725 14.5931C76.7581 14.3155 77.4921 14.1774 78.2317 14.1868C78.9629 14.1792 79.6882 14.3173 80.3654 14.5931C81.0067 14.8505 81.5881 15.2374 82.0731 15.7296C82.5584 16.227 82.9406 16.8154 83.1979 17.4609C83.4759 18.1649 83.614 18.9163 83.6042 19.6731C83.6137 20.4357 83.4757 21.1928 83.1979 21.903Z" fill="#404040"/>
<path d="M103.357 21.045C103.382 22.0982 103.197 23.1457 102.813 24.1268C102.479 24.9809 101.971 25.7563 101.322 26.4038C100.685 27.0317 99.9221 27.5174 99.0839 27.8289C98.1856 28.1696 97.2318 28.3407 96.271 28.3334C95.3091 28.3421 94.3537 28.1745 93.4523 27.8387C92.6089 27.5293 91.8414 27.0434 91.2008 26.4136C90.5536 25.7669 90.05 24.9911 89.7227 24.1366C89.3482 23.1533 89.1676 22.1068 89.1908 21.0549L89.1711 11.4149C89.1711 11.3962 89.1786 11.3782 89.1918 11.365C89.2051 11.3517 89.2231 11.3443 89.2418 11.3443H92.512C92.5308 11.3443 92.5488 11.3517 92.562 11.365C92.5753 11.3782 92.5827 11.3962 92.5827 11.4149L92.6043 21.3081C92.6043 21.3473 92.6043 21.4121 92.6043 21.4514C92.6043 21.4514 92.6043 22.3995 92.8771 23.0217C93.0547 23.464 93.3159 23.868 93.6466 24.2112C93.9785 24.532 94.3755 24.7777 94.8106 24.9316C95.7529 25.2535 96.7754 25.2535 97.7177 24.9316C98.1531 24.7781 98.5501 24.5324 98.8817 24.2112C99.2198 23.8735 99.4827 23.4682 99.6532 23.0217C99.8563 22.4733 99.951 21.8906 99.9319 21.3061L99.9103 11.413C99.9103 11.4035 99.9122 11.3942 99.9159 11.3855C99.9195 11.3768 99.9249 11.3689 99.9317 11.3623C99.9385 11.3557 99.9465 11.3506 99.9553 11.3471C99.9641 11.3437 99.9735 11.3421 99.9829 11.3423H103.251C103.27 11.3423 103.288 11.3497 103.302 11.3629C103.315 11.3761 103.323 11.3941 103.324 11.413L103.357 21.045Z" fill="#404040"/>
<path d="M112.699 11.3345H112.842C112.842 11.3345 114.452 11.4562 115.184 11.7094C115.882 11.9413 116.527 12.3111 117.08 12.7968C117.611 13.269 118.034 13.851 118.319 14.5026C118.62 15.2008 118.771 15.9545 118.762 16.7148C118.784 17.7273 118.511 18.7243 117.977 19.5846C117.462 20.3866 116.73 21.0263 115.867 21.4298C115.858 21.4343 115.851 21.4406 115.845 21.4483C115.84 21.456 115.836 21.4648 115.834 21.4742C115.832 21.4836 115.832 21.4933 115.834 21.5026C115.837 21.5119 115.841 21.5205 115.847 21.5279L120.468 27.9585C120.49 27.9918 120.478 28.0174 120.437 28.0174H116.738C116.717 28.0161 116.695 28.0104 116.676 28.0006C116.656 27.9908 116.639 27.9772 116.625 27.9604L112.387 22.1894C112.373 22.1724 112.355 22.1584 112.336 22.1483C112.316 22.1382 112.295 22.1322 112.273 22.1305H109.939C109.92 22.131 109.902 22.1389 109.888 22.1524C109.874 22.1659 109.867 22.1841 109.866 22.2032V27.9408C109.866 27.9502 109.865 27.9596 109.861 27.9684C109.858 27.9772 109.853 27.9853 109.846 27.992C109.84 27.9988 109.832 28.0042 109.823 28.0079C109.814 28.0115 109.805 28.0134 109.796 28.0134H106.525C106.516 28.0134 106.506 28.0115 106.498 28.0079C106.489 28.0042 106.481 27.9988 106.475 27.992C106.468 27.9853 106.463 27.9772 106.459 27.9684C106.456 27.9596 106.454 27.9502 106.455 27.9408V11.4071C106.455 11.3882 106.462 11.37 106.475 11.3564C106.488 11.3429 106.506 11.335 106.525 11.3345H112.699ZM109.939 14.3436C109.92 14.3441 109.902 14.3519 109.888 14.3655C109.874 14.379 109.867 14.3972 109.866 14.4163V19.0507C109.867 19.0696 109.875 19.0876 109.888 19.1008C109.902 19.114 109.92 19.1214 109.939 19.1214H112.673C113.598 19.1214 114.177 18.9035 114.614 18.4618C115.038 17.9845 115.272 17.3686 115.272 16.7305C115.272 16.0925 115.038 15.4765 114.614 14.9993C114.177 14.5615 113.592 14.3436 112.673 14.3436H109.939Z" fill="#404040"/>
<path d="M138.462 27.9408C138.462 27.9599 138.454 27.9781 138.44 27.9916C138.427 28.0051 138.408 28.013 138.389 28.0134H135.119C135.1 28.0129 135.082 28.0051 135.069 27.9915C135.056 27.9779 135.048 27.9597 135.049 27.9408V19.5964C135.049 19.5572 135.027 19.5493 135.001 19.5788L130.332 24.9964C130.326 25.0034 130.319 25.009 130.311 25.0129C130.302 25.0168 130.294 25.0188 130.284 25.0188C130.275 25.0188 130.267 25.0168 130.258 25.0129C130.25 25.009 130.243 25.0034 130.237 24.9964L125.564 19.5768C125.538 19.5454 125.517 19.5533 125.517 19.5945V27.9408C125.517 27.9597 125.509 27.9779 125.496 27.9915C125.483 28.0051 125.465 28.0129 125.446 28.0134H122.176C122.157 28.013 122.138 28.0051 122.125 27.9916C122.111 27.9781 122.104 27.9599 122.103 27.9408V11.1029C122.103 11.0617 122.125 11.0538 122.152 11.0832L130.222 20.0302C130.228 20.0373 130.235 20.0429 130.243 20.0468C130.252 20.0506 130.261 20.0527 130.27 20.0527C130.279 20.0527 130.288 20.0506 130.296 20.0468C130.305 20.0429 130.312 20.0373 130.318 20.0302L138.413 11.0832C138.438 11.0538 138.462 11.0617 138.462 11.1009V27.9408Z" fill="#404040"/>
<path d="M145.052 11.3345H141.783C141.743 11.3345 141.711 11.367 141.711 11.4071V27.9486C141.711 27.9888 141.743 28.0213 141.783 28.0213H145.052C145.092 28.0213 145.124 27.9888 145.124 27.9486V11.4071C145.124 11.367 145.092 11.3345 145.052 11.3345Z" fill="#404040"/>
<path d="M159.114 20.874C159.143 20.9015 159.167 20.8917 159.167 20.8505V11.4088C159.167 11.3899 159.175 11.3719 159.189 11.3587C159.202 11.3455 159.221 11.3382 159.24 11.3382H162.51C162.529 11.3382 162.546 11.3456 162.56 11.3589C162.573 11.3721 162.58 11.3901 162.58 11.4088V28.2546C162.58 28.2939 162.557 28.3037 162.527 28.2782L151.841 18.4263C151.814 18.4008 151.79 18.4106 151.79 18.4498V27.9406C151.79 27.9597 151.782 27.9779 151.768 27.9914C151.755 28.0049 151.737 28.0127 151.718 28.0132H148.443C148.425 28.0127 148.407 28.0048 148.393 27.9912C148.38 27.9777 148.373 27.9595 148.373 27.9406V11.1007C148.373 11.0614 148.396 11.0516 148.426 11.0771L159.114 20.874Z" fill="#404040"/>
<path d="M171.274 11.3343C172.549 11.3084 173.818 11.5078 175.023 11.9231C176.082 12.2864 177.055 12.8607 177.885 13.6112C178.683 14.3423 179.316 15.2341 179.744 16.2278C180.637 18.4024 180.637 20.841 179.744 23.0156C179.315 24.0197 178.682 24.9239 177.885 25.6714C177.054 26.4346 176.078 27.0233 175.016 27.4027C173.815 27.8393 172.544 28.0496 171.266 28.023H165.902C165.883 28.0225 165.865 28.0146 165.852 28.0011C165.838 27.9875 165.831 27.9693 165.831 27.9504V11.4049C165.831 11.3862 165.838 11.3682 165.852 11.3549C165.865 11.3417 165.883 11.3343 165.902 11.3343H171.274ZM169.311 14.418C169.302 14.418 169.293 14.4198 169.284 14.4234C169.276 14.4269 169.268 14.4321 169.261 14.4387C169.255 14.4453 169.25 14.4531 169.246 14.4616C169.242 14.4702 169.241 14.4794 169.241 14.4887V24.8647C169.241 24.8836 169.248 24.9018 169.261 24.9153C169.274 24.9289 169.292 24.9368 169.311 24.9373H171.237C172.044 24.9594 172.848 24.831 173.608 24.5585C174.264 24.3242 174.865 23.9582 175.375 23.4828C175.868 23.0125 176.256 22.4432 176.513 21.8123C177.052 20.4003 177.052 18.8392 176.513 17.4272C176.258 16.8073 175.869 16.2511 175.375 15.7979C174.864 15.3367 174.262 14.987 173.608 14.7713C172.844 14.5178 172.042 14.3983 171.237 14.418H169.311Z" fill="#404040"/>
<defs>
<linearGradient id="paint0_linear_1963_3809" x1="28.6996" y1="8.57005" x2="34.6904" y2="8.57008" gradientUnits="userSpaceOnUse">
<stop stop-color="#5181CE"/>
<stop offset="0.5" stop-color="#87AFEB"/>
<stop offset="0.52" stop-color="#94B9EE"/>
<stop offset="0.57" stop-color="#ACC9F4"/>
<stop offset="0.62" stop-color="#BDD6F8"/>
<stop offset="0.68" stop-color="#C7DDFA"/>
<stop offset="0.75" stop-color="#CADFFB"/>
<stop offset="0.82" stop-color="#C7DDFA"/>
<stop offset="0.88" stop-color="#BDD6F8"/>
<stop offset="0.93" stop-color="#ACC9F4"/>
<stop offset="0.98" stop-color="#94B9EE"/>
<stop offset="1" stop-color="#87AFEB"/>
</linearGradient>
<linearGradient id="paint1_linear_1963_3809" x1="17.5731" y1="19.6954" x2="23.5618" y2="19.6955" gradientUnits="userSpaceOnUse">
<stop stop-color="#5181CE"/>
<stop offset="0.5" stop-color="#87AFEB"/>
<stop offset="0.52" stop-color="#94B9EE"/>
<stop offset="0.57" stop-color="#ACC9F4"/>
<stop offset="0.62" stop-color="#BDD6F8"/>
<stop offset="0.68" stop-color="#C7DDFA"/>
<stop offset="0.75" stop-color="#CADFFB"/>
<stop offset="0.82" stop-color="#C7DDFA"/>
<stop offset="0.88" stop-color="#BDD6F8"/>
<stop offset="0.93" stop-color="#ACC9F4"/>
<stop offset="0.98" stop-color="#94B9EE"/>
<stop offset="1" stop-color="#87AFEB"/>
</linearGradient>
<linearGradient id="paint2_linear_1963_3809" x1="12.0057" y1="3.00416" x2="17.9966" y2="3.00409" gradientUnits="userSpaceOnUse">
<stop stop-color="#5181CE"/>
<stop offset="0.5" stop-color="#87AFEB"/>
<stop offset="0.52" stop-color="#94B9EE"/>
<stop offset="0.57" stop-color="#ACC9F4"/>
<stop offset="0.62" stop-color="#BDD6F8"/>
<stop offset="0.68" stop-color="#C7DDFA"/>
<stop offset="0.75" stop-color="#CADFFB"/>
<stop offset="0.82" stop-color="#C7DDFA"/>
<stop offset="0.88" stop-color="#BDD6F8"/>
<stop offset="0.93" stop-color="#ACC9F4"/>
<stop offset="0.98" stop-color="#94B9EE"/>
<stop offset="1" stop-color="#87AFEB"/>
</linearGradient>
</defs>
</svg>
