<svg width="181" height="47" viewBox="0 0 181 47" fill="none" xmlns="http://www.w3.org/2000/svg">
<mask id="mask0_1963_4194" style="mask-type:luminance" maskUnits="userSpaceOnUse" x="0" y="0" width="181" height="47">
<path d="M180.419 0.0678711H0.5V46.6196H180.419V0.0678711Z" fill="white"/>
</mask>
<g mask="url(#mask0_1963_4194)">
<path d="M1.20703 44.1851V37.0415H2.1807V44.1851H1.20703Z" fill="#404040"/>
<path d="M13.9522 41.6283V44.1855H12.9785V41.6283C12.9785 40.7674 12.7172 40.2908 11.9639 40.2908C11.3746 40.2908 10.8673 40.8391 10.8673 41.7513V44.1855H9.89355V39.476H10.8673V40.1269C11.0619 39.7938 11.4668 39.394 12.1433 39.394C13.3014 39.394 13.9471 40.1831 13.9471 41.6283H13.9522Z" fill="#404040"/>
<path d="M25.7179 36.8833V44.1858H24.7442V43.5555C24.4726 43.9604 23.9345 44.2679 23.3042 44.2679C22.0692 44.2679 21.1724 43.1712 21.1724 41.8337C21.1724 40.4961 22.064 39.3995 23.3042 39.3995C23.9345 39.3995 24.4726 39.7019 24.7442 40.1118V36.8833H25.7179ZM24.7442 41.8337C24.7442 40.9933 24.2163 40.2912 23.4477 40.2912C22.679 40.2912 22.1512 40.9933 22.1512 41.8337C22.1512 42.6741 22.679 43.3762 23.4477 43.3762C24.2163 43.3762 24.7442 42.6741 24.7442 41.8337Z" fill="#404040"/>
<path d="M33.1846 42.0332V39.4761H34.1582V42.1151C34.1582 42.8941 34.4196 43.3707 35.1729 43.3707C35.7623 43.3707 36.2696 42.8224 36.2696 41.8282V39.4761H37.2433V44.1856H36.2696V43.5347C36.0748 43.8678 35.67 44.2675 34.9936 44.2675C33.8355 44.2675 33.1897 43.4783 33.1897 42.0332H33.1846Z" fill="#404040"/>
<path d="M47.9586 42.7868C47.9586 43.6682 47.1797 44.2678 46.3444 44.2678C45.3297 44.2678 44.7404 43.6887 44.5508 43.4992L45.0376 42.7868C45.3194 43.0584 45.6986 43.3659 46.2829 43.3762C46.7697 43.3864 46.9849 43.0533 46.9849 42.838C46.9849 42.6229 46.8722 42.3819 46.3546 42.2384C45.1759 41.9156 44.7916 41.4903 44.7916 40.7472C44.7916 40.0042 45.2989 39.3994 46.3341 39.3994C46.7697 39.3994 47.2053 39.5224 47.6409 39.8658L47.1848 40.5781C46.9593 40.4141 46.6775 40.2963 46.3341 40.2963C45.9703 40.2963 45.7653 40.4294 45.7653 40.7216C45.7653 40.9727 45.9395 41.1367 46.5033 41.27C47.6921 41.5415 47.9535 42.1923 47.9535 42.7919L47.9586 42.7868Z" fill="#404040"/>
<path d="M56.8039 40.3724V42.5453C56.8039 43.1244 56.9679 43.3754 57.2804 43.3754C57.4445 43.3754 57.5419 43.314 57.6546 43.2115L58.1004 43.9443C57.8595 44.1391 57.5623 44.2672 57.1678 44.2672C56.2761 44.2672 55.8302 43.6881 55.8302 42.4992V40.3674H55.0205V39.4756H55.8302V37.3644L56.8039 37.0415V39.4756H58.1004V40.3674H56.8039V40.3724Z" fill="#404040"/>
<path d="M68.2522 39.3994V40.4346C68.0062 40.3834 67.7347 40.3732 67.4425 40.4756C66.8122 40.7011 66.6328 41.2955 66.6328 41.9874V44.1909H65.6592V39.4814H66.6328V40.204C66.925 39.6865 67.422 39.4046 68.2574 39.4046L68.2522 39.3994Z" fill="#404040"/>
<path d="M79.3671 39.4761L76.6972 46.6197H75.6621L76.6767 43.9498L74.9805 39.4761H76.0362L77.1738 42.6635L78.3115 39.4761H79.3671Z" fill="#404040"/>
<path d="M123.116 37.9332V40.1675H125.228V41.0592H123.116V44.1852H122.143V37.0415H125.878V37.9332H123.116Z" fill="#404040"/>
<path d="M133.099 42.0332V39.4761H134.072V42.1151C134.072 42.8941 134.334 43.3707 135.087 43.3707C135.676 43.3707 136.184 42.8224 136.184 41.8282V39.4761H137.157V44.1856H136.184V43.5347C135.989 43.8678 135.584 44.2675 134.907 44.2675C133.75 44.2675 133.104 43.4783 133.104 42.0332H133.099Z" fill="#404040"/>
<path d="M146.33 40.3725V42.5454C146.33 43.1244 146.495 43.3755 146.807 43.3755C146.971 43.3755 147.069 43.314 147.181 43.2116L147.627 43.9443C147.386 44.1391 147.088 44.2672 146.694 44.2672C145.802 44.2672 145.357 43.6882 145.357 42.4992V40.3674H144.547V39.4757H145.357V37.3644L146.33 37.0415V39.4757H147.627V40.3674H146.33V40.3725Z" fill="#404040"/>
<path d="M155.011 42.0332V39.4761H155.985V42.1151C155.985 42.8941 156.247 43.3707 157 43.3707C157.589 43.3707 158.096 42.8224 158.096 41.8282V39.4761H159.07V44.1856H158.096V43.5347C157.902 43.8678 157.497 44.2675 156.821 44.2675C155.662 44.2675 155.017 43.4783 155.017 42.0332H155.011Z" fill="#404040"/>
<path d="M169.299 39.3994V40.4346C169.052 40.3834 168.781 40.3732 168.489 40.4756C167.859 40.7011 167.68 41.2955 167.68 41.9874V44.1909H166.705V39.4814H167.68V40.204C167.971 39.6865 168.469 39.4046 169.304 39.4046L169.299 39.3994Z" fill="#404040"/>
<path d="M180.378 42.2382H177.052C177.206 42.8891 177.703 43.3759 178.39 43.3759C178.928 43.3759 179.189 43.1811 179.405 42.9505L180.097 43.5194C179.733 43.9652 179.143 44.2727 178.39 44.2727C177.011 44.2727 176.037 43.176 176.037 41.8385C176.037 40.501 176.889 39.4043 178.287 39.4043C179.476 39.4043 180.419 40.3267 180.419 41.777C180.419 41.9512 180.409 42.0998 180.378 42.2433V42.2382ZM177.073 41.3465H179.405C179.363 40.7572 178.938 40.2908 178.287 40.2908C177.637 40.2908 177.211 40.7367 177.068 41.3465H177.073Z" fill="#404040"/>
<path d="M18.2926 18.0758C18.2926 22.524 14.7771 26.4699 9.39628 26.4699C4.37419 26.4699 1.10983 22.8826 0.5 21.8783L3.69262 17.8605C5.48622 20.1923 7.38744 21.3043 9.39628 21.3043C11.4051 21.3043 12.5531 19.7618 12.5531 18.4346C12.5531 16.7127 11.6562 15.8518 9.68326 15.0985C4.51767 13.1255 1.93488 11.1883 1.93488 7.02722C1.93488 2.86605 5.48622 0.0680283 10.042 0.0680283C10.8312 0.0680283 13.8803 -0.0754601 17.0729 2.86605L13.9879 7.09896C13.2705 6.34565 11.7639 5.23361 9.97023 5.23361C8.57122 5.23361 7.67442 6.13041 7.67442 6.9196C7.67442 7.88814 8.17663 8.60559 9.97023 9.28716C14.2749 10.9373 18.2926 12.3363 18.2926 18.0758Z" fill="#404040"/>
<path d="M48.9938 25.8956H43.2543V11.5467L37.5147 20.443L31.7752 11.5467V25.8956H26.0356V0.641602H31.2012L37.5147 11.2597L43.8282 0.641602H48.9938V25.8956Z" fill="#404040"/>
<path d="M71.3781 21.8779H63.3428L62.0514 25.8956H55.8813L64.7777 0.641602H69.9433L78.8395 25.8956H72.6696L71.3781 21.8779ZM69.728 16.7123L67.3605 9.2509L64.9929 16.7123H69.728Z" fill="#404040"/>
<path d="M98.349 16.8917L102.654 25.8956H96.3402L93.0041 18.1472H91.1746V25.8956H85.4351V0.641602H92.8247C99.6404 0.641602 102.654 4.73102 102.654 9.2509C102.654 12.3 101.147 15.2775 98.349 16.8917ZM91.1746 12.9816H92.7888C95.264 12.9816 96.9141 11.4032 96.9141 9.39439C96.9141 7.13445 95.264 5.80718 92.7888 5.80718H91.1746V12.9816Z" fill="#404040"/>
<path d="M125.325 0.641602V5.80718H119.586V25.8956H113.845V5.80718H108.106V0.641602H125.325Z" fill="#404040"/>
<path d="M150.287 9.2509C150.287 13.7708 146.986 18.1472 141.031 18.1472H138.807V25.8956H133.068V0.641602H140.457C147.273 0.641602 150.287 4.73102 150.287 9.2509ZM144.546 9.39439C144.546 7.13445 142.896 5.80718 140.422 5.80718H138.807V12.9816H140.422C142.896 12.9816 144.546 11.4032 144.546 9.39439Z" fill="#404040"/>
<path d="M180.419 25.8956H174.68V11.5467L168.94 20.443L163.2 11.5467V25.8956H157.461V0.641602H162.626L168.94 11.2597L175.253 0.641602H180.419V25.8956Z" fill="#404040"/>
<path d="M102.377 36.4121H101.608V44.8984H102.377V36.4121Z" fill="#404040"/>
</g>
</svg>
