<svg width="155" height="54" viewBox="0 0 155 54" fill="none" xmlns="http://www.w3.org/2000/svg">
<g clip-path="url(#clip0_1963_3935)">
<path d="M20.8279 20.0767L28.3637 28.1042L38.9079 25.5356C36.6486 23.1049 33.7837 21.3184 30.6067 20.3591C27.4298 19.3999 24.0549 19.3024 20.8279 20.0767Z" fill="#CACACA"/>
<path opacity="0.5" d="M25.364 38.6988C28.586 37.9026 31.5383 36.264 33.9184 33.9511C36.2986 31.6381 38.021 28.734 38.9092 25.5361L28.3649 28.1047L25.364 38.6988Z" fill="#404040"/>
<path d="M25.3641 38.6994L28.3647 28.1037L20.828 20.0762H20.8247C19.9129 23.3084 19.8517 26.7215 20.647 29.9844C21.4423 33.2473 23.0672 36.2493 25.3641 38.6994Z" fill="#A7A7A7"/>
<path d="M22.3946 49.2555C22.3481 49.264 22.3018 49.2716 22.2552 49.2785C22.2086 49.2854 22.1611 49.2932 22.1135 49.3021C21.9305 49.3349 21.7481 49.3677 21.5637 49.3939C21.4076 49.4176 21.2514 49.4376 21.0959 49.4569C20.9158 49.4792 20.7351 49.4992 20.5524 49.516C20.3945 49.5308 20.2362 49.5438 20.0777 49.555C20.0364 49.5579 19.9957 49.5612 19.955 49.5652C19.9143 49.5691 19.8815 49.5721 19.8448 49.5744C19.7405 49.5799 19.6352 49.5829 19.5308 49.5865L19.3127 49.594C19.2714 49.5957 19.23 49.5973 19.1864 49.598C18.8912 49.6042 18.5838 49.6032 18.2712 49.5947C18.2246 49.5947 18.1783 49.5914 18.1324 49.5888L18.034 49.5848C17.7873 49.5747 17.5386 49.5596 17.2956 49.5402L17.2142 49.534C17.1591 49.5294 17.104 49.5255 17.0482 49.5202C16.7202 49.4897 16.4194 49.4546 16.1254 49.4123C16.1008 49.409 16.0762 49.4048 16.051 49.4002L15.9713 49.3877C15.7138 49.3487 15.4464 49.3021 15.1781 49.2493C15.096 49.2332 15.014 49.2165 14.9307 49.2001C14.5748 49.1253 14.2812 49.057 14.0073 48.9849C10.4214 48.0514 7.19465 46.0713 4.73846 43.297C4.53705 43.0693 4.33727 42.8315 4.14503 42.5917C3.76057 42.1114 3.39513 41.6052 3.05758 41.0869C2.88831 40.8265 2.72232 40.5585 2.56552 40.2888C1.31649 38.1615 0.501778 35.8076 0.168546 33.3633C-0.164687 30.919 -0.00982533 28.4329 0.624165 26.0489C0.712409 25.7113 0.814756 25.3672 0.93646 24.9972L0.964015 24.9089C1.06833 24.5966 1.18479 24.2771 1.32158 23.933L1.3721 23.8018C1.49446 23.501 1.63027 23.19 1.77657 22.8783L1.84415 22.7337C1.98652 22.4384 2.13939 22.1393 2.29849 21.848C2.32375 21.801 2.34966 21.7551 2.37591 21.7072C2.5419 21.41 2.71281 21.1213 2.88437 20.8487L2.96179 20.7277C3.15238 20.4305 3.34396 20.1471 3.5316 19.8859L3.59425 19.801C3.81798 19.4939 4.02792 19.2203 4.24148 18.9592L4.25919 18.9379C4.48193 18.6666 4.71845 18.395 4.96087 18.1299L4.99761 18.0892C5.21904 17.8501 5.45687 17.606 5.72685 17.3449L5.8105 17.2629C6.04407 17.0395 6.28846 16.8181 6.55811 16.5858L6.66931 16.49C6.9183 16.2794 7.17876 16.0705 7.44448 15.8691L7.57077 15.7743C7.83977 15.5722 8.11303 15.3806 8.38169 15.1999L8.50864 15.1165C8.80651 14.9214 9.08665 14.7475 9.36549 14.5858L9.47571 14.5228C9.747 14.3673 10.0006 14.2275 10.2469 14.1026C10.1511 14.4687 10.0668 14.8295 9.99402 15.1851C9.78407 16.2099 9.56953 17.544 9.35434 19.1544C6.86924 21.1668 5.08656 23.9156 4.2628 27.0054C4.19719 27.2521 4.1388 27.5027 4.0873 27.7491C4.08205 27.7738 4.07746 27.7985 4.07352 27.8232L4.06794 27.8537C4.01677 28.1057 3.97905 28.313 3.94854 28.5062L3.94624 28.5216C3.42738 31.925 4.08969 35.4034 5.82294 38.3779C7.55619 41.3524 10.2558 43.6436 13.4726 44.8702L13.5054 44.8834C13.7291 44.967 13.9518 45.0412 14.1227 45.0969L14.1578 45.1097C14.1818 45.1176 14.2054 45.1264 14.2313 45.1343C14.4728 45.2111 14.7198 45.2829 14.9652 45.3472L15.0439 45.3679C15.915 45.5889 16.8044 45.7309 17.701 45.792C17.877 45.813 18.054 45.8239 18.2311 45.8248H18.2528C20.2511 45.7749 22.2343 45.4639 24.152 44.8998L24.1687 44.8945C28.6176 43.457 33.1213 40.5929 36.8501 36.8303C40.885 32.7576 43.5704 28.4711 44.8324 24.0904L44.9396 23.7158L44.6516 23.4534C41.178 20.3042 36.4348 17.8262 31.2944 16.4743C26.1724 15.1264 20.8384 14.9466 16.274 15.9688L15.8833 16.056L15.7997 16.4481C14.8208 21.018 15.0501 26.3497 16.4446 31.4615C17.5625 35.6903 19.5076 39.6555 22.1676 43.1277C21.6428 43.2396 21.0595 43.3389 20.4008 43.4278C19.5716 43.5457 18.7366 43.6178 17.8995 43.6437C13.1272 36.4617 10.9023 27.8864 11.5808 19.2902C11.5991 19.1127 11.6162 18.9389 11.6283 18.7765C11.8234 16.7151 12.2559 14.6831 12.9172 12.7208C12.9251 12.7008 12.9333 12.6802 12.9402 12.6598C13.0658 12.299 13.1905 11.9709 13.3223 11.6521L13.3325 11.6285C13.4637 11.3106 13.6126 10.9835 13.7721 10.6552L13.8049 10.584C13.9479 10.2924 14.1057 9.99351 14.2874 9.66875L14.353 9.55099C14.5108 9.27445 14.6853 8.98675 14.8723 8.6961L14.9596 8.56128C15.1357 8.29229 15.3247 8.01968 15.5209 7.75167L15.6193 7.61783C15.8213 7.34753 16.026 7.08707 16.2298 6.84202L16.3282 6.72392C16.5558 6.45427 16.773 6.20988 16.9928 5.97631L17.0794 5.88643C17.3359 5.61678 17.5751 5.37797 17.8122 5.1549L17.8591 5.11192C18.118 4.86983 18.384 4.63396 18.6517 4.41057L18.6822 4.38433C18.9394 4.17077 19.2097 3.95787 19.5085 3.7371L19.5987 3.67149C19.8592 3.48057 20.1318 3.29227 20.4336 3.09545L20.5553 3.01508C20.8243 2.8422 21.113 2.669 21.4082 2.50038L21.549 2.42133C21.8399 2.25894 22.1365 2.1028 22.4311 1.95879L22.5734 1.8899C22.8834 1.7413 23.1931 1.60188 23.4939 1.47722L23.6219 1.42572C23.9679 1.28499 24.2868 1.16525 24.5945 1.05962L24.6834 1.03043C25.057 0.904792 25.4002 0.799157 25.7331 0.708618C26.0349 0.625951 26.3475 0.549195 26.6628 0.478994C26.6851 0.473746 26.7074 0.470463 26.7284 0.46587C26.7589 0.460293 26.7891 0.454393 26.8189 0.44816C27.1329 0.382552 27.3743 0.33564 27.6085 0.296603L27.6551 0.289055C31.9067 -0.403214 36.2671 0.387179 40.0051 2.52773C43.7432 4.66829 46.6318 8.02887 48.1866 12.0461L48.1912 12.0562C48.2794 12.2859 48.3709 12.5404 48.4694 12.8366C48.4779 12.8626 48.4871 12.8882 48.4969 12.9134C48.5028 12.9295 48.5084 12.9462 48.5136 12.961C48.6147 13.2703 48.7075 13.579 48.7892 13.8795C48.8666 14.1629 48.9414 14.47 49.0188 14.819L49.0516 14.9666C49.1123 15.2583 49.1687 15.5633 49.2186 15.8766C49.2265 15.9288 49.2347 15.9816 49.2445 16.0446C49.2934 16.3726 49.3318 16.6741 49.361 16.9683L49.3708 17.0838C49.4013 17.4033 49.423 17.7172 49.4364 18.0187L49.4394 18.0728C49.4515 18.3681 49.4555 18.6778 49.4518 19.0242L49.4502 19.1751C49.4469 19.3735 49.44 19.5746 49.4295 19.7747C49.2288 19.5779 49.0274 19.3882 48.8253 19.2056C48.0022 18.4613 46.8833 17.5362 45.4976 16.454C45.4158 15.9196 45.3041 15.3903 45.163 14.8685C44.3976 12.0563 42.8298 9.52777 40.651 7.59186C38.4723 5.65594 35.7769 4.3964 32.8942 3.96709C30.0114 3.53777 27.066 3.95726 24.4177 5.17431C21.7694 6.39136 19.5328 8.3533 17.9812 10.8205L17.2821 11.9257L18.5812 11.7754C27.8287 10.8289 37.1054 13.2716 44.6877 18.6495C46.3735 19.8456 47.9154 21.2326 49.2826 22.7829C51.1391 24.9204 52.4913 27.4479 53.2391 30.1786C53.9773 32.8765 54.1031 35.7054 53.6071 38.4582C53.1111 41.211 52.006 43.8181 50.3725 46.0888C48.7391 48.3594 46.6186 50.2361 44.1663 51.5816C41.714 52.9271 38.992 53.7073 36.1993 53.8651C35.8975 53.8819 35.5888 53.8911 35.2565 53.8927C35.1984 53.8943 35.1407 53.8927 35.0826 53.8904C35.0367 53.8904 34.9908 53.8881 34.9455 53.8881C34.711 53.8852 34.5151 53.8822 34.3167 53.8737C34.2346 53.8697 34.1526 53.8638 34.0716 53.8583L33.9466 53.8497C33.7574 53.8376 33.5677 53.8258 33.3785 53.8074C33.28 53.7982 33.18 53.7867 33.0806 53.7746L32.9871 53.7638C32.8064 53.7431 32.6263 53.7211 32.4465 53.6955C32.3195 53.6772 32.1936 53.6558 32.0673 53.6348L32.0473 53.6312C31.8711 53.6021 31.6956 53.5709 31.5204 53.5364C31.3866 53.5105 31.2541 53.4826 31.1209 53.4531C30.9477 53.4151 30.7748 53.375 30.6016 53.3314C30.4704 53.2993 30.3392 53.2654 30.2079 53.2297C30.0364 53.1828 29.8655 53.1313 29.6942 53.0811L29.6772 53.0759C29.5538 53.0385 29.4311 53.0017 29.3088 52.9617C29.1356 52.9053 28.964 52.8446 28.7918 52.7833L28.7127 52.755C28.6163 52.7222 28.5198 52.6868 28.4231 52.6494C28.2469 52.5838 28.0737 52.5107 27.8933 52.4355L27.7831 52.3903C27.7073 52.3594 27.6305 52.3283 27.5534 52.2945C27.3687 52.2134 27.189 52.1282 26.9734 52.0242C26.9338 52.0045 26.8937 51.9861 26.8534 51.9678C26.8029 51.9441 26.7523 51.9212 26.7031 51.8959C26.4174 51.7529 26.1386 51.6049 25.8739 51.4563C25.8561 51.4458 25.8388 51.435 25.8217 51.4235C25.7964 51.4081 25.7712 51.3924 25.7449 51.3776C25.4874 51.2297 25.2653 51.0965 25.0665 50.9708C25.0085 50.9341 24.9511 50.8964 24.8943 50.858L24.7802 50.7812C24.6119 50.671 24.4446 50.5608 24.2792 50.4443C24.2081 50.3945 24.1385 50.3423 24.0686 50.2905L23.9643 50.2131C23.8151 50.1028 23.6655 49.9926 23.5185 49.8768C23.4306 49.8079 23.344 49.7374 23.258 49.6662L23.1967 49.6157C23.156 49.5829 23.1154 49.5501 23.0743 49.5173C23.0222 49.4759 22.97 49.4339 22.9189 49.391L22.6892 49.1958L22.3946 49.2555ZM39.0785 49.6101C39.3196 49.5445 39.5663 49.47 39.8114 49.3897C39.835 49.3821 39.8583 49.3736 39.8819 49.3651L39.9101 49.3549C40.1492 49.2752 40.348 49.204 40.5429 49.1295L40.5567 49.124C43.7635 47.8705 46.4443 45.5563 48.1525 42.5668C49.8608 39.5773 50.4935 36.0929 49.9452 32.6937L49.9419 32.6691C49.9091 32.4683 49.8675 32.257 49.8133 32.0035L49.8094 31.9798C49.8048 31.9575 49.8009 31.9356 49.7963 31.9142C49.7412 31.663 49.6798 31.4127 49.6132 31.1706C49.3329 30.1508 48.9461 29.1633 48.4592 28.2244L47.8497 27.0435L47.3291 28.2651C45.6774 32.1432 43.0504 35.9157 39.5217 39.4769C36.2931 42.7656 32.4849 45.4298 28.2886 47.3351L27.0932 47.8659L28.2571 48.4626C30.3895 49.5597 32.7525 50.1332 35.1505 50.1356C36.4777 50.1358 37.799 49.959 39.0795 49.6101H39.0785Z" fill="#404040"/>
<path d="M22.3946 49.2555C22.3481 49.264 22.3018 49.2716 22.2552 49.2785C22.2086 49.2854 22.1611 49.2932 22.1135 49.3021C21.9305 49.3349 21.7481 49.3677 21.5637 49.3939C21.4076 49.4176 21.2514 49.4376 21.0959 49.4569C20.9158 49.4792 20.7351 49.4992 20.5524 49.516C20.3945 49.5308 20.2362 49.5438 20.0777 49.555C20.0364 49.5579 19.9957 49.5612 19.955 49.5652C19.9143 49.5691 19.8815 49.5721 19.8448 49.5744C19.7405 49.5799 19.6352 49.5829 19.5308 49.5865L19.3127 49.594C19.2714 49.5957 19.23 49.5973 19.1864 49.598C18.8912 49.6042 18.5838 49.6032 18.2712 49.5947C18.2246 49.5947 18.1783 49.5914 18.1324 49.5888L18.034 49.5848C17.7873 49.5747 17.5386 49.5596 17.2956 49.5402L17.2142 49.534C17.1591 49.5294 17.104 49.5255 17.0482 49.5202C16.7202 49.4897 16.4194 49.4546 16.1254 49.4123C16.1008 49.409 16.0762 49.4048 16.051 49.4002L15.9713 49.3877C15.7138 49.3487 15.4464 49.3021 15.1781 49.2493C15.096 49.2332 15.014 49.2165 14.9307 49.2001C14.5748 49.1253 14.2812 49.057 14.0073 48.9849C10.4214 48.0514 7.19465 46.0713 4.73846 43.297C4.53705 43.0693 4.33727 42.8315 4.14503 42.5917C3.76057 42.1114 3.39513 41.6052 3.05758 41.0869C2.88831 40.8265 2.72232 40.5585 2.56552 40.2888C1.31649 38.1615 0.501778 35.8076 0.168546 33.3633C-0.164687 30.919 -0.00982533 28.4329 0.624165 26.0489C0.712409 25.7113 0.814756 25.3672 0.93646 24.9972L0.964015 24.9089C1.06833 24.5966 1.18479 24.2771 1.32158 23.933L1.3721 23.8018C1.49446 23.501 1.63027 23.19 1.77657 22.8783L1.84415 22.7337C1.98652 22.4384 2.13939 22.1393 2.29849 21.848C2.32375 21.801 2.34966 21.7551 2.37591 21.7072C2.5419 21.41 2.71281 21.1213 2.88437 20.8487L2.96179 20.7277C3.15238 20.4305 3.34396 20.1471 3.5316 19.8859L3.59425 19.801C3.81798 19.4939 4.02792 19.2203 4.24148 18.9592L4.25919 18.9379C4.48193 18.6666 4.71845 18.395 4.96087 18.1299L4.99761 18.0892C5.21904 17.8501 5.45687 17.606 5.72685 17.3449L5.8105 17.2629C6.04407 17.0395 6.28846 16.8181 6.55811 16.5858L6.66931 16.49C6.9183 16.2794 7.17876 16.0705 7.44448 15.8691L7.57077 15.7743C7.83977 15.5722 8.11303 15.3806 8.38169 15.1999L8.50864 15.1165C8.80651 14.9214 9.08665 14.7475 9.36549 14.5858L9.47571 14.5228C9.747 14.3673 10.0006 14.2275 10.2469 14.1026C10.1511 14.4687 10.0668 14.8295 9.99402 15.1851C9.78407 16.2099 9.56953 17.544 9.35434 19.1544C6.86924 21.1668 5.08656 23.9156 4.2628 27.0054C4.19719 27.2521 4.1388 27.5027 4.0873 27.7491C4.08205 27.7738 4.07746 27.7985 4.07352 27.8232L4.06794 27.8537C4.01677 28.1057 3.97905 28.313 3.94854 28.5062L3.94624 28.5216C3.42738 31.925 4.08969 35.4034 5.82294 38.3779C7.55619 41.3524 10.2558 43.6436 13.4726 44.8702L13.5054 44.8834C13.7291 44.967 13.9518 45.0412 14.1227 45.0969L14.1578 45.1097C14.1818 45.1176 14.2054 45.1264 14.2313 45.1343C14.4728 45.2111 14.7198 45.2829 14.9652 45.3472L15.0439 45.3679C15.915 45.5889 16.8044 45.7309 17.701 45.792C17.877 45.813 18.054 45.8239 18.2311 45.8248H18.2528C20.2511 45.7749 22.2343 45.4639 24.152 44.8998L24.1687 44.8945C28.6176 43.457 33.1213 40.5929 36.8501 36.8303C40.885 32.7576 43.5704 28.4711 44.8324 24.0904L44.9396 23.7158L44.6516 23.4534C41.178 20.3042 36.4348 17.8262 31.2944 16.4743C26.1724 15.1264 20.8384 14.9466 16.274 15.9688L15.8833 16.056L15.7997 16.4481C14.8208 21.018 15.0501 26.3497 16.4446 31.4615C17.5625 35.6903 19.5076 39.6555 22.1676 43.1277C21.6428 43.2396 21.0595 43.3389 20.4008 43.4278C19.5716 43.5457 18.7366 43.6178 17.8995 43.6437C13.1272 36.4617 10.9023 27.8864 11.5808 19.2902C11.5991 19.1127 11.6162 18.9389 11.6283 18.7765C11.8234 16.7151 12.2559 14.6831 12.9172 12.7208C12.9251 12.7008 12.9333 12.6802 12.9402 12.6598C13.0658 12.299 13.1905 11.9709 13.3223 11.6521L13.3325 11.6285C13.4637 11.3106 13.6126 10.9835 13.7721 10.6552L13.8049 10.584C13.9479 10.2924 14.1057 9.99351 14.2874 9.66875L14.353 9.55099C14.5108 9.27445 14.6853 8.98675 14.8723 8.6961L14.9596 8.56128C15.1357 8.29229 15.3247 8.01968 15.5209 7.75167L15.6193 7.61783C15.8213 7.34753 16.026 7.08707 16.2298 6.84202L16.3282 6.72392C16.5558 6.45427 16.773 6.20988 16.9928 5.97631L17.0794 5.88643C17.3359 5.61678 17.5751 5.37797 17.8122 5.1549L17.8591 5.11192C18.118 4.86983 18.384 4.63396 18.6517 4.41057L18.6822 4.38433C18.9394 4.17077 19.2097 3.95787 19.5085 3.7371L19.5987 3.67149C19.8592 3.48057 20.1318 3.29227 20.4336 3.09545L20.5553 3.01508C20.8243 2.8422 21.113 2.669 21.4082 2.50038L21.549 2.42133C21.8399 2.25894 22.1365 2.1028 22.4311 1.95879L22.5734 1.8899C22.8834 1.7413 23.1931 1.60188 23.4939 1.47722L23.6219 1.42572C23.9679 1.28499 24.2868 1.16525 24.5945 1.05962L24.6834 1.03043C25.057 0.904792 25.4002 0.799157 25.7331 0.708618C26.0349 0.625951 26.3475 0.549195 26.6628 0.478994C26.6851 0.473746 26.7074 0.470463 26.7284 0.46587C26.7589 0.460293 26.7891 0.454393 26.8189 0.44816C27.1329 0.382552 27.3743 0.33564 27.6085 0.296603L27.6551 0.289055C31.9067 -0.403214 36.2671 0.387179 40.0051 2.52773C43.7432 4.66829 46.6318 8.02887 48.1866 12.0461L48.1912 12.0562C48.2794 12.2859 48.3709 12.5404 48.4694 12.8366C48.4779 12.8626 48.4871 12.8882 48.4969 12.9134C48.5028 12.9295 48.5084 12.9462 48.5136 12.961C48.6147 13.2703 48.7075 13.579 48.7892 13.8795C48.8666 14.1629 48.9414 14.47 49.0188 14.819L49.0516 14.9666C49.1123 15.2583 49.1687 15.5633 49.2186 15.8766C49.2265 15.9288 49.2347 15.9816 49.2445 16.0446C49.2934 16.3726 49.3318 16.6741 49.361 16.9683L49.3708 17.0838C49.4013 17.4033 49.423 17.7172 49.4364 18.0187L49.4394 18.0728C49.4515 18.3681 49.4555 18.6778 49.4518 19.0242L49.4502 19.1751C49.4469 19.3735 49.44 19.5746 49.4295 19.7747C49.2288 19.5779 49.0274 19.3882 48.8253 19.2056C48.0022 18.4613 46.8833 17.5362 45.4976 16.454C45.4158 15.9196 45.3041 15.3903 45.163 14.8685C44.3976 12.0563 42.8298 9.52777 40.651 7.59186C38.4723 5.65594 35.7769 4.3964 32.8942 3.96709C30.0114 3.53777 27.066 3.95726 24.4177 5.17431C21.7694 6.39136 19.5328 8.3533 17.9812 10.8205L17.2821 11.9257L18.5812 11.7754C27.8287 10.8289 37.1054 13.2716 44.6877 18.6495C46.3735 19.8456 47.9154 21.2326 49.2826 22.7829C51.1391 24.9204 52.4913 27.4479 53.2391 30.1786C53.9773 32.8765 54.1031 35.7054 53.6071 38.4582C53.1111 41.211 52.006 43.8181 50.3725 46.0888C48.7391 48.3594 46.6186 50.2361 44.1663 51.5816C41.714 52.9271 38.992 53.7073 36.1993 53.8651C35.8975 53.8819 35.5888 53.8911 35.2565 53.8927C35.1984 53.8943 35.1407 53.8927 35.0826 53.8904C35.0367 53.8904 34.9908 53.8881 34.9455 53.8881C34.711 53.8852 34.5151 53.8822 34.3167 53.8737C34.2346 53.8697 34.1526 53.8638 34.0716 53.8583L33.9466 53.8497C33.7574 53.8376 33.5677 53.8258 33.3785 53.8074C33.28 53.7982 33.18 53.7867 33.0806 53.7746L32.9871 53.7638C32.8064 53.7431 32.6263 53.7211 32.4465 53.6955C32.3195 53.6772 32.1936 53.6558 32.0673 53.6348L32.0473 53.6312C31.8711 53.6021 31.6956 53.5709 31.5204 53.5364C31.3866 53.5105 31.2541 53.4826 31.1209 53.4531C30.9477 53.4151 30.7748 53.375 30.6016 53.3314C30.4704 53.2993 30.3392 53.2654 30.2079 53.2297C30.0364 53.1828 29.8655 53.1313 29.6942 53.0811L29.6772 53.0759C29.5538 53.0385 29.4311 53.0017 29.3088 52.9617C29.1356 52.9053 28.964 52.8446 28.7918 52.7833L28.7127 52.755C28.6163 52.7222 28.5198 52.6868 28.4231 52.6494C28.2469 52.5838 28.0737 52.5107 27.8933 52.4355L27.7831 52.3903C27.7073 52.3594 27.6305 52.3283 27.5534 52.2945C27.3687 52.2134 27.189 52.1282 26.9734 52.0242C26.9338 52.0045 26.8937 51.9861 26.8534 51.9678C26.8029 51.9441 26.7523 51.9212 26.7031 51.8959C26.4174 51.7529 26.1386 51.6049 25.8739 51.4563C25.8561 51.4458 25.8388 51.435 25.8217 51.4235C25.7964 51.4081 25.7712 51.3924 25.7449 51.3776C25.4874 51.2297 25.2653 51.0965 25.0665 50.9708C25.0085 50.9341 24.9511 50.8964 24.8943 50.858L24.7802 50.7812C24.6119 50.671 24.4446 50.5608 24.2792 50.4443C24.2081 50.3945 24.1385 50.3423 24.0686 50.2905L23.9643 50.2131C23.8151 50.1028 23.6655 49.9926 23.5185 49.8768C23.4306 49.8079 23.344 49.7374 23.258 49.6662L23.1967 49.6157C23.156 49.5829 23.1154 49.5501 23.0743 49.5173C23.0222 49.4759 22.97 49.4339 22.9189 49.391L22.6892 49.1958L22.3946 49.2555ZM39.0785 49.6101C39.3196 49.5445 39.5663 49.47 39.8114 49.3897C39.835 49.3821 39.8583 49.3736 39.8819 49.3651L39.9101 49.3549C40.1492 49.2752 40.348 49.204 40.5429 49.1295L40.5567 49.124C43.7635 47.8705 46.4443 45.5563 48.1525 42.5668C49.8608 39.5773 50.4935 36.0929 49.9452 32.6937L49.9419 32.6691C49.9091 32.4683 49.8675 32.257 49.8133 32.0035L49.8094 31.9798C49.8048 31.9575 49.8009 31.9356 49.7963 31.9142C49.7412 31.663 49.6798 31.4127 49.6132 31.1706C49.3329 30.1508 48.9461 29.1633 48.4592 28.2244L47.8497 27.0435L47.3291 28.2651C45.6774 32.1432 43.0504 35.9157 39.5217 39.4769C36.2931 42.7656 32.4849 45.4298 28.2886 47.3351L27.0932 47.8659L28.2571 48.4626C30.3895 49.5597 32.7525 50.1332 35.1505 50.1356C36.4777 50.1358 37.799 49.959 39.0795 49.6101H39.0785Z" fill="#404040"/>
<mask id="mask0_1963_3935" style="mask-type:luminance" maskUnits="userSpaceOnUse" x="-1" y="0" width="55" height="54">
<path d="M22.3946 49.2555C22.3481 49.264 22.3018 49.2716 22.2552 49.2785C22.2086 49.2854 22.1611 49.2932 22.1135 49.3021C21.9305 49.3349 21.7481 49.3677 21.5637 49.3939C21.4076 49.4176 21.2514 49.4376 21.0959 49.4569C20.9158 49.4792 20.7351 49.4992 20.5524 49.516C20.3945 49.5308 20.2362 49.5438 20.0777 49.555C20.0364 49.5579 19.9957 49.5612 19.955 49.5652C19.9143 49.5691 19.8815 49.5721 19.8448 49.5744C19.7405 49.5799 19.6352 49.5829 19.5308 49.5865L19.3127 49.594C19.2714 49.5957 19.23 49.5973 19.1864 49.598C18.8912 49.6042 18.5838 49.6032 18.2712 49.5947C18.2246 49.5947 18.1783 49.5914 18.1324 49.5888L18.034 49.5848C17.7873 49.5747 17.5386 49.5596 17.2956 49.5402L17.2142 49.534C17.1591 49.5294 17.104 49.5255 17.0482 49.5202C16.7202 49.4897 16.4194 49.4546 16.1254 49.4123C16.1008 49.409 16.0762 49.4048 16.051 49.4002L15.9713 49.3877C15.7138 49.3487 15.4464 49.3021 15.1781 49.2493C15.096 49.2332 15.014 49.2165 14.9307 49.2001C14.5748 49.1253 14.2812 49.057 14.0073 48.9849C10.4214 48.0514 7.19465 46.0713 4.73846 43.297C4.53705 43.0693 4.33727 42.8315 4.14503 42.5917C3.76057 42.1114 3.39513 41.6052 3.05758 41.0869C2.88831 40.8265 2.72232 40.5585 2.56552 40.2888C1.31649 38.1615 0.501778 35.8076 0.168546 33.3633C-0.164687 30.919 -0.00982533 28.4329 0.624165 26.0489C0.712409 25.7113 0.814756 25.3672 0.93646 24.9972L0.964015 24.9089C1.06833 24.5966 1.18479 24.2771 1.32158 23.933L1.3721 23.8018C1.49446 23.501 1.63027 23.19 1.77657 22.8783L1.84415 22.7337C1.98652 22.4384 2.13939 22.1393 2.29849 21.848C2.32375 21.801 2.34966 21.7551 2.37591 21.7072C2.5419 21.41 2.71281 21.1213 2.88437 20.8487L2.96179 20.7277C3.15238 20.4305 3.34396 20.1471 3.5316 19.8859L3.59425 19.801C3.81798 19.4939 4.02792 19.2203 4.24148 18.9592L4.25919 18.9379C4.48193 18.6666 4.71845 18.395 4.96087 18.1299L4.99761 18.0892C5.21904 17.8501 5.45687 17.606 5.72685 17.3449L5.8105 17.2629C6.04407 17.0395 6.28846 16.8181 6.55811 16.5858L6.66931 16.49C6.9183 16.2794 7.17876 16.0705 7.44448 15.8691L7.57077 15.7743C7.83977 15.5722 8.11303 15.3806 8.38169 15.1999L8.50864 15.1165C8.80651 14.9214 9.08665 14.7475 9.36549 14.5858L9.47571 14.5228C9.747 14.3673 10.0006 14.2275 10.2469 14.1026C10.1511 14.4687 10.0668 14.8295 9.99402 15.1851C9.78407 16.2099 9.56953 17.544 9.35434 19.1544C6.86924 21.1668 5.08656 23.9156 4.2628 27.0054C4.19719 27.2521 4.1388 27.5027 4.0873 27.7491C4.08205 27.7738 4.07746 27.7985 4.07352 27.8232L4.06794 27.8537C4.01677 28.1057 3.97905 28.313 3.94854 28.5062L3.94624 28.5216C3.42738 31.925 4.08969 35.4034 5.82294 38.3779C7.55619 41.3524 10.2558 43.6436 13.4726 44.8702L13.5054 44.8834C13.7291 44.967 13.9518 45.0412 14.1227 45.0969L14.1578 45.1097C14.1818 45.1176 14.2054 45.1264 14.2313 45.1343C14.4728 45.2111 14.7198 45.2829 14.9652 45.3472L15.0439 45.3679C15.915 45.5889 16.8044 45.7309 17.701 45.792C17.877 45.813 18.054 45.8239 18.2311 45.8248H18.2528C20.2511 45.7749 22.2343 45.4639 24.152 44.8998L24.1687 44.8945C28.6176 43.457 33.1213 40.5929 36.8501 36.8303C40.885 32.7576 43.5704 28.4711 44.8324 24.0904L44.9396 23.7158L44.6516 23.4534C41.178 20.3042 36.4348 17.8262 31.2944 16.4743C26.1724 15.1264 20.8384 14.9466 16.274 15.9688L15.8833 16.056L15.7997 16.4481C14.8208 21.018 15.0501 26.3497 16.4446 31.4615C17.5625 35.6903 19.5076 39.6555 22.1676 43.1277C21.6428 43.2396 21.0595 43.3389 20.4008 43.4278C19.5716 43.5457 18.7366 43.6178 17.8995 43.6437C13.1272 36.4617 10.9023 27.8864 11.5808 19.2902C11.5991 19.1127 11.6162 18.9389 11.6283 18.7765C11.8234 16.7151 12.2559 14.6831 12.9172 12.7208C12.9251 12.7008 12.9333 12.6802 12.9402 12.6598C13.0658 12.299 13.1905 11.9709 13.3223 11.6521L13.3325 11.6285C13.4637 11.3106 13.6126 10.9835 13.7721 10.6552L13.8049 10.584C13.9479 10.2924 14.1057 9.99351 14.2874 9.66875L14.353 9.55099C14.5108 9.27445 14.6853 8.98675 14.8723 8.6961L14.9596 8.56128C15.1357 8.29229 15.3247 8.01968 15.5209 7.75167L15.6193 7.61783C15.8213 7.34753 16.026 7.08707 16.2298 6.84202L16.3282 6.72392C16.5558 6.45427 16.773 6.20988 16.9928 5.97631L17.0794 5.88643C17.3359 5.61678 17.5751 5.37797 17.8122 5.1549L17.8591 5.11192C18.118 4.86983 18.384 4.63396 18.6517 4.41057L18.6822 4.38433C18.9394 4.17077 19.2097 3.95787 19.5085 3.7371L19.5987 3.67149C19.8592 3.48057 20.1318 3.29227 20.4336 3.09545L20.5553 3.01508C20.8243 2.8422 21.113 2.669 21.4082 2.50038L21.549 2.42133C21.8399 2.25894 22.1365 2.1028 22.4311 1.95879L22.5734 1.8899C22.8834 1.7413 23.1931 1.60188 23.4939 1.47722L23.6219 1.42572C23.9679 1.28499 24.2868 1.16525 24.5945 1.05962L24.6834 1.03043C25.057 0.904792 25.4002 0.799157 25.7331 0.708618C26.0349 0.625951 26.3475 0.549195 26.6628 0.478994C26.6851 0.473746 26.7074 0.470463 26.7284 0.46587C26.7589 0.460293 26.7891 0.454393 26.8189 0.44816C27.1329 0.382552 27.3743 0.33564 27.6085 0.296603L27.6551 0.289055C31.9067 -0.403214 36.2671 0.387179 40.0051 2.52773C43.7432 4.66829 46.6318 8.02887 48.1866 12.0461L48.1912 12.0562C48.2794 12.2859 48.3709 12.5404 48.4694 12.8366C48.4779 12.8626 48.4871 12.8882 48.4969 12.9134C48.5028 12.9295 48.5084 12.9462 48.5136 12.961C48.6147 13.2703 48.7075 13.579 48.7892 13.8795C48.8666 14.1629 48.9414 14.47 49.0188 14.819L49.0516 14.9666C49.1123 15.2583 49.1687 15.5633 49.2186 15.8766C49.2265 15.9288 49.2347 15.9816 49.2445 16.0446C49.2934 16.3726 49.3318 16.6741 49.361 16.9683L49.3708 17.0838C49.4013 17.4033 49.423 17.7172 49.4364 18.0187L49.4394 18.0728C49.4515 18.3681 49.4555 18.6778 49.4518 19.0242L49.4502 19.1751C49.4469 19.3735 49.44 19.5746 49.4295 19.7747C49.2288 19.5779 49.0274 19.3882 48.8253 19.2056C48.0022 18.4613 46.8833 17.5362 45.4976 16.454C45.4158 15.9196 45.3041 15.3903 45.163 14.8685C44.3976 12.0563 42.8298 9.52777 40.651 7.59186C38.4723 5.65594 35.7769 4.3964 32.8942 3.96709C30.0114 3.53777 27.066 3.95726 24.4177 5.17431C21.7694 6.39136 19.5328 8.3533 17.9812 10.8205L17.2821 11.9257L18.5812 11.7754C27.8287 10.8289 37.1054 13.2716 44.6877 18.6495C46.3735 19.8456 47.9154 21.2326 49.2826 22.7829C51.1391 24.9204 52.4913 27.4479 53.2391 30.1786C53.9773 32.8765 54.1031 35.7054 53.6071 38.4582C53.1111 41.211 52.006 43.8181 50.3725 46.0888C48.7391 48.3594 46.6186 50.2361 44.1663 51.5816C41.714 52.9271 38.992 53.7073 36.1993 53.8651C35.8975 53.8819 35.5888 53.8911 35.2565 53.8927C35.1984 53.8943 35.1407 53.8927 35.0826 53.8904C35.0367 53.8904 34.9908 53.8881 34.9455 53.8881C34.711 53.8852 34.5151 53.8822 34.3167 53.8737C34.2346 53.8697 34.1526 53.8638 34.0716 53.8583L33.9466 53.8497C33.7574 53.8376 33.5677 53.8258 33.3785 53.8074C33.28 53.7982 33.18 53.7867 33.0806 53.7746L32.9871 53.7638C32.8064 53.7431 32.6263 53.7211 32.4465 53.6955C32.3195 53.6772 32.1936 53.6558 32.0673 53.6348L32.0473 53.6312C31.8711 53.6021 31.6956 53.5709 31.5204 53.5364C31.3866 53.5105 31.2541 53.4826 31.1209 53.4531C30.9477 53.4151 30.7748 53.375 30.6016 53.3314C30.4704 53.2993 30.3392 53.2654 30.2079 53.2297C30.0364 53.1828 29.8655 53.1313 29.6942 53.0811L29.6772 53.0759C29.5538 53.0385 29.4311 53.0017 29.3088 52.9617C29.1356 52.9053 28.964 52.8446 28.7918 52.7833L28.7127 52.755C28.6163 52.7222 28.5198 52.6868 28.4231 52.6494C28.2469 52.5838 28.0737 52.5107 27.8933 52.4355L27.7831 52.3903C27.7073 52.3594 27.6305 52.3283 27.5534 52.2945C27.3687 52.2134 27.189 52.1282 26.9734 52.0242C26.9338 52.0045 26.8937 51.9861 26.8534 51.9678C26.8029 51.9441 26.7523 51.9212 26.7031 51.8959C26.4174 51.7529 26.1386 51.6049 25.8739 51.4563C25.8561 51.4458 25.8388 51.435 25.8217 51.4235C25.7964 51.4081 25.7712 51.3924 25.7449 51.3776C25.4874 51.2297 25.2653 51.0965 25.0665 50.9708C25.0085 50.9341 24.9511 50.8964 24.8943 50.858L24.7802 50.7812C24.6119 50.671 24.4446 50.5608 24.2792 50.4443C24.2081 50.3945 24.1385 50.3423 24.0686 50.2905L23.9643 50.2131C23.8151 50.1028 23.6655 49.9926 23.5185 49.8768C23.4306 49.8079 23.344 49.7374 23.258 49.6662L23.1967 49.6157C23.156 49.5829 23.1154 49.5501 23.0743 49.5173C23.0222 49.4759 22.97 49.4339 22.9189 49.391L22.6892 49.1958L22.3946 49.2555ZM39.0785 49.6101C39.3196 49.5445 39.5663 49.47 39.8114 49.3897C39.835 49.3821 39.8583 49.3736 39.8819 49.3651L39.9101 49.3549C40.1492 49.2752 40.348 49.204 40.5429 49.1295L40.5567 49.124C43.7635 47.8705 46.4443 45.5563 48.1525 42.5668C49.8608 39.5773 50.4935 36.0929 49.9452 32.6937L49.9419 32.6691C49.9091 32.4683 49.8675 32.257 49.8133 32.0035L49.8094 31.9798C49.8048 31.9575 49.8009 31.9356 49.7963 31.9142C49.7412 31.663 49.6798 31.4127 49.6132 31.1706C49.3329 30.1508 48.9461 29.1633 48.4592 28.2244L47.8497 27.0435L47.3291 28.2651C45.6774 32.1432 43.0504 35.9157 39.5217 39.4769C36.2931 42.7656 32.4849 45.4298 28.2886 47.3351L27.0932 47.8659L28.2571 48.4626C30.3895 49.5597 32.7525 50.1332 35.1505 50.1356C36.4777 50.1358 37.799 49.959 39.0795 49.6101H39.0785Z" fill="white"/>
</mask>
<g mask="url(#mask0_1963_3935)">
<g style="mix-blend-mode:multiply">
<path d="M27.1956 47.8278C27.3884 47.7474 27.5807 47.6637 27.7729 47.5781C27.5676 47.6624 27.3717 47.7467 27.1956 47.8278Z" fill="#404040"/>
<path d="M28.6247 48.4744C28.1337 48.2929 27.656 48.077 27.1955 47.8281C25.7123 48.4686 24.1602 48.9361 22.5701 49.2213C22.6399 49.284 22.7131 49.3417 22.7836 49.4027C22.8663 49.4739 22.9476 49.5458 23.0333 49.6146C23.1468 49.7081 23.2629 49.7977 23.378 49.8872C23.4594 49.9499 23.5398 50.0142 23.6224 50.0749C23.667 50.1077 23.7136 50.1405 23.7589 50.1713C24.3848 50.0562 25.0032 49.9035 25.6107 49.714C26.6475 49.3836 27.6555 48.969 28.6247 48.4744Z" fill="#404040"/>
<path d="M48.1409 27.5978C48.0801 27.4588 48.0089 27.3246 47.928 27.1963C48.0041 27.3288 48.0753 27.4636 48.1409 27.5978Z" fill="#404040"/>
<path d="M44.4531 24.8142C45.0656 25.3102 45.6313 25.8613 46.1432 26.4606C46.6299 27.0138 47.045 27.6262 47.3786 28.2832C47.5743 27.9228 47.7586 27.5611 47.9313 27.198C47.0706 25.9001 46.036 24.7262 44.8566 23.709C44.7372 24.0774 44.6007 24.4461 44.4531 24.8142Z" fill="#404040"/>
<path d="M17.3241 11.8146C16.5354 13.553 15.9774 15.3871 15.6646 17.2703C16.1369 17.1292 16.6188 17.0029 17.1079 16.8874C17.2417 15.8714 17.4733 14.8706 17.7994 13.899C18.0641 13.0738 18.4193 12.2804 18.8587 11.5335C18.3498 11.6052 17.8458 11.6877 17.3467 11.7808C17.4209 11.6424 17.4999 11.5072 17.579 11.3711C17.4851 11.5136 17.3999 11.6617 17.3241 11.8146Z" fill="#404040"/>
</g>
</g>
<path d="M65.1705 4.49072V18.9948H64.0293V4.49072H65.1705Z" fill="#404040"/>
<path d="M84.267 10.1415V18.9943H83.0982V10.3642C83.0982 7.38525 81.3439 5.63154 78.3656 5.63154C75.0248 5.71519 72.9647 7.80285 72.7144 11.1426V18.9933H71.5449V4.49029H72.7144V8.19289C73.6887 5.79819 75.7484 4.51883 78.6441 4.4624C82.1794 4.46207 84.267 6.60747 84.267 10.1415Z" fill="#404040"/>
<path d="M93.5363 5.52061C91.5044 5.52061 89.917 6.2997 89.917 8.02586C89.917 11.9233 98.3805 10.0023 98.3805 15.125C98.3805 17.8248 95.9589 19.0218 93.3415 19.0218C91.3789 19.0541 89.4778 18.3373 88.0249 17.0175L88.5534 16.1268C89.8804 17.3256 91.6097 17.9814 93.3979 17.9639C95.4298 17.9639 97.1835 17.1566 97.2668 15.3189C97.3787 11.2269 88.8033 13.0918 88.8033 8.10853C88.8033 5.57572 91.0012 4.46169 93.5632 4.46169C95.0251 4.44976 96.4615 4.84492 97.7116 5.60295L97.2107 6.54967C96.1081 5.86563 94.8339 5.50876 93.5363 5.52061Z" fill="#404040"/>
<path d="M108.791 17.9923C107.918 18.6356 106.868 18.9952 105.784 19.0224C103.724 19.0224 102.471 17.519 102.471 14.4298V1.26123H103.612V4.85296H108.512V5.85479H103.613V14.2907C103.613 16.713 104.42 17.8818 105.924 17.8818C106.797 17.855 107.641 17.5639 108.345 17.0469L108.791 17.9923Z" fill="#404040"/>
<path d="M124.658 4.48972V18.9937H123.517V15.2075C122.431 17.6022 120.176 19.0784 117.337 19.0784C113.217 19.0784 110.266 16.0164 110.266 11.7568C110.266 7.46965 113.217 4.43559 117.309 4.40869C120.176 4.40869 122.431 5.88488 123.517 8.27959V4.48972H124.658ZM123.517 11.7552C123.517 8.13655 120.983 5.51977 117.476 5.51977C113.968 5.51977 111.435 8.16411 111.407 11.7552C111.435 15.3745 113.94 17.9913 117.476 17.9913C120.983 17.9913 123.517 15.3748 123.517 11.7552Z" fill="#404040"/>
<path d="M143.754 10.1415V18.9943H142.585V10.3642C142.585 7.38525 140.831 5.63154 137.852 5.63154C134.512 5.71519 132.452 7.80285 132.201 11.1426V18.9933H131.032V4.49029H132.201V8.19289C133.176 5.79819 135.236 4.51883 138.131 4.4624C141.666 4.46207 143.754 6.60747 143.754 10.1415Z" fill="#404040"/>
<path d="M155 17.9923C154.127 18.6356 153.078 18.9952 151.993 19.0224C149.934 19.0224 148.68 17.519 148.68 14.4298V1.26123H149.821V4.85296H154.721V5.85479H149.822V14.2907C149.822 16.713 150.629 17.8818 152.133 17.8818C153.006 17.855 153.851 17.5639 154.555 17.0469L155 17.9923Z" fill="#404040"/>
<path d="M100.368 38.2806L99.9343 37.5054C99.9274 37.4926 99.9196 37.4811 99.9127 37.4693C98.3836 34.684 96.1342 32.3606 93.3997 30.7422C90.4835 29.0121 87.2493 28.085 84.2854 28.1274H84.2067C84.1011 28.1274 83.9951 28.1244 83.8898 28.1274L83.0015 28.1398L82.5465 28.9032C81.0355 31.435 80.2036 34.7656 80.2036 38.2809C80.2036 41.7962 81.0359 45.1268 82.5471 47.6593L83.0021 48.4213L83.8905 48.4344C83.9594 48.4344 84.0283 48.4361 84.0978 48.4361C84.1375 48.4361 84.1775 48.4338 84.2179 48.4338H84.2861C84.3537 48.4338 84.4209 48.4354 84.4888 48.4354C87.3936 48.4354 90.5497 47.5097 93.4007 45.8193C96.135 44.2005 98.3843 41.8769 99.9133 39.0915C99.9202 39.0794 99.9284 39.0679 99.935 39.0554L100.368 38.2806ZM83.84 38.2806C83.8029 35.9031 84.2807 33.5457 85.2407 31.3704C87.4944 31.6159 89.6701 32.3379 91.6234 33.4885C93.6747 34.6536 95.4136 36.2977 96.6916 38.2806C95.4135 40.2635 93.6746 41.9078 91.6234 43.0733C89.6701 44.2237 87.4946 44.9457 85.241 45.1914C84.2808 43.0159 83.8031 40.6583 83.84 38.2806Z" fill="#404040"/>
<path d="M117.785 39.5057V48.0883H114.279V39.9552C114.279 37.2908 112.961 36.0009 110.718 36.0009C108.221 36.0009 106.539 37.5152 106.539 40.5158V48.0883H103.032V27.2783H106.539V34.8502C107.687 33.6158 109.455 32.9426 111.53 32.9426C115.12 32.9433 117.785 34.9909 117.785 39.5057Z" fill="#404040"/>
<path d="M135.06 33.1123V48.089H131.723V46.1815C130.602 47.556 128.836 48.2852 126.901 48.2852C123.059 48.2852 120.45 46.1815 120.45 41.6666V33.1123H123.956V41.1897C123.956 43.9101 125.246 45.2003 127.462 45.2003C129.902 45.2003 131.556 43.6861 131.556 40.6848V33.1123H135.06Z" fill="#404040"/>
<path d="M154.998 40.6001C154.998 45.2557 151.773 48.2845 147.398 48.2845C145.351 48.2845 143.612 47.5831 142.434 46.1522V48.0876H139.098V27.2783H142.604V34.9345C143.809 33.5895 145.492 32.9433 147.399 32.9433C151.774 32.9433 154.998 35.9445 154.998 40.6001ZM151.436 40.6001C151.436 37.7396 149.53 35.9157 147.005 35.9157C144.481 35.9157 142.546 37.7392 142.546 40.6001C142.546 43.4609 144.481 45.2839 147.005 45.2839C149.529 45.2839 151.438 43.4606 151.438 40.6001H151.436Z" fill="#404040"/>
<path d="M77.9297 38.1642C77.93 37.3209 77.8806 36.4784 77.7818 35.6409C77.5668 33.6789 77.0305 31.7655 76.1944 29.9776C75.0886 29.1214 73.511 28.5257 71.4762 28.2888C70.7901 28.2106 70.1001 28.1723 69.4095 28.174C67.3342 28.1395 65.2732 28.5236 63.3496 29.3035C63.6735 29.8912 63.959 30.4992 64.2045 31.1238C64.3301 31.44 64.4505 31.7608 64.5584 32.0902C66.0479 31.4947 67.6382 31.1921 69.2422 31.1989C70.1289 31.1846 71.0141 31.2765 71.879 31.4725C72.3552 31.5814 72.8127 31.7599 73.2368 32.0023C73.6637 33.0949 73.9635 34.233 74.1304 35.3942C74.196 35.8395 74.2461 36.2938 74.2806 36.7572H65.4327V39.7837H74.2806C74.2467 40.2463 74.1966 40.7006 74.1304 41.1467C73.9636 42.3081 73.6638 43.4465 73.2368 44.5394C72.8124 44.7812 72.355 44.9597 71.879 45.0691C71.0141 45.265 70.1289 45.3567 69.2422 45.3424C67.6381 45.3495 66.0478 45.0469 64.5584 44.4511C64.4505 44.7792 64.3288 45.1013 64.2045 45.4182C63.959 46.0425 63.6735 46.6503 63.3496 47.2378C65.2731 48.0181 67.3341 48.4023 69.4095 48.3676C70.1001 48.3694 70.7901 48.331 71.4762 48.2528C73.51 48.0159 75.0886 47.4202 76.1944 46.5634C77.0306 44.7757 77.5669 42.8626 77.7818 40.9007C77.8806 40.0631 77.93 39.2205 77.9297 38.3771C77.9297 38.342 77.9274 38.3066 77.9274 38.2708C77.9274 38.235 77.9297 38.1996 77.9297 38.1642Z" fill="#404040"/>
<path d="M22.3954 49.3278C22.3495 49.3366 22.3029 49.3439 22.2563 49.3511C22.2097 49.3583 22.1618 49.3658 22.1143 49.3743C21.9315 49.4071 21.7488 49.44 21.5644 49.4659C21.4086 49.4895 21.2528 49.5098 21.097 49.5292C20.9166 49.5515 20.7361 49.5712 20.5538 49.5882C20.3956 49.6033 20.2375 49.6164 20.0788 49.6273C20.0377 49.6299 19.9967 49.6338 19.9561 49.6377C19.9154 49.6417 19.8829 49.6447 19.8458 49.6466C19.7415 49.6525 19.6369 49.6555 19.5322 49.6584L19.3144 49.666C19.2727 49.6676 19.2314 49.6696 19.1878 49.6702C18.8926 49.6765 18.5855 49.6755 18.2729 49.6669C18.2266 49.6669 18.18 49.6633 18.1338 49.6614L18.0354 49.6571C17.7887 49.647 17.5404 49.6322 17.297 49.6125L17.2156 49.606C17.1605 49.6017 17.1054 49.5974 17.0499 49.5922C16.7219 49.5617 16.4208 49.5266 16.1272 49.4843C16.1022 49.481 16.0776 49.4764 16.0527 49.4724L15.973 49.4596C15.7148 49.4203 15.4481 49.3737 15.1798 49.3212C15.0974 49.3051 15.0158 49.2884 14.9324 49.2717C14.5762 49.1972 14.2829 49.1286 14.009 49.0565C10.4231 48.1232 7.19648 46.143 4.7405 43.3686C4.53909 43.1406 4.33931 42.9034 4.14741 42.6636C3.76295 42.183 3.39685 41.6769 3.05995 41.1586C2.89068 40.8984 2.72502 40.6301 2.56789 40.3608C1.31884 38.2334 0.504095 35.8795 0.170807 33.4352C-0.162481 30.991 -0.0076965 28.5048 0.626209 26.1208C0.715108 25.7836 0.817138 25.4391 0.938513 25.0691L0.966384 24.9802C1.07037 24.6679 1.18716 24.3484 1.3233 24.0043L1.37415 23.873C1.49619 23.5719 1.63199 23.2613 1.7783 22.9493L1.84619 22.8046C1.98856 22.5094 2.14143 22.2099 2.30053 21.9189C2.32612 21.872 2.3517 21.8254 2.3786 21.7782C2.54262 21.4813 2.71517 21.1926 2.88674 20.92L2.96449 20.7986C3.15475 20.5014 3.34633 20.2183 3.53397 19.9569L3.59696 19.8716C3.82036 19.5649 4.03062 19.2913 4.24418 19.0299L4.2619 19.0085C4.48398 18.7375 4.72115 18.4659 4.96357 18.2012L4.99999 18.1605C5.22142 17.9207 5.45925 17.6773 5.72955 17.4159L5.81287 17.3342C6.04643 17.1105 6.29116 16.889 6.56081 16.6571L6.67201 16.5613C6.921 16.3507 7.18147 16.1417 7.44719 15.94L7.57315 15.8452C7.8428 15.6435 8.11572 15.4516 8.38406 15.2711L8.51102 15.1878C8.80855 14.9926 9.08904 14.8188 9.36755 14.6567L9.47777 14.5941C9.74938 14.4386 10.0026 14.2988 10.2487 14.1739C10.1529 14.54 10.0686 14.9008 9.99574 15.2564C9.78579 16.2812 9.56928 17.615 9.35605 19.2257C6.87014 21.2377 5.08675 23.9866 4.26256 27.0767C4.19695 27.3231 4.13855 27.5737 4.08704 27.8204C4.0818 27.845 4.07721 27.8696 4.07295 27.8942L4.06736 27.9244C4.01619 28.1763 3.97813 28.3836 3.94795 28.5772L3.94599 28.5926C3.42692 31.9959 4.0891 35.4743 5.82232 38.4489C7.55553 41.4235 10.2552 43.7147 13.472 44.9412L13.5048 44.9543C13.7289 45.0383 13.9509 45.1124 14.1222 45.1682L14.1573 45.1803C14.1809 45.1888 14.2048 45.1971 14.2304 45.2049C14.4719 45.2817 14.7192 45.3536 14.9649 45.4182L15.0433 45.4388C15.9145 45.6596 16.8038 45.8014 17.7005 45.8627C17.8763 45.8835 18.0532 45.8945 18.2302 45.8955H18.2522C20.2505 45.8455 22.2337 45.5345 24.1514 44.9704L24.1681 44.9652C28.617 43.5277 33.1207 40.6635 36.8492 36.9005C40.8841 32.8282 43.5698 28.5417 44.8311 24.1607L44.9387 23.7865L44.6501 23.524C41.1771 20.3748 36.4333 17.8971 31.2932 16.5449C26.1711 15.197 20.8369 15.0176 16.2728 16.0394L15.8821 16.1267L15.7981 16.5184C14.8193 21.0883 15.0482 26.4206 16.4431 31.5322C17.5606 35.761 19.5057 39.7262 22.1658 43.1983C21.6425 43.3105 21.0573 43.4099 20.3989 43.4985C19.5696 43.6163 18.7345 43.6884 17.8973 43.7143C13.1253 36.5322 10.9005 27.957 11.5789 19.3609C11.5976 19.1834 11.6143 19.0098 11.6268 18.8474C11.8216 16.7859 12.254 14.7538 12.9153 12.7915C12.9235 12.7712 12.9314 12.7508 12.9383 12.7308C13.0642 12.3699 13.1886 12.0419 13.3204 11.7234L13.3306 11.6998C13.4618 11.3819 13.6108 11.0548 13.7702 10.7265L13.803 10.6556C13.946 10.3639 14.1038 10.0651 14.2859 9.74005L14.3515 9.6226C14.5093 9.34606 14.6841 9.05867 14.8711 8.7677L14.958 8.63291C15.1342 8.36391 15.3231 8.09131 15.5196 7.8233L15.618 7.68943C15.8198 7.41912 16.0248 7.15866 16.2285 6.91361L16.3269 6.79552C16.5546 6.52587 16.7721 6.2815 16.9915 6.04794L17.0785 5.9574C17.3347 5.68808 17.5738 5.44926 17.811 5.22619L17.8582 5.18287C18.1171 4.94044 18.3831 4.70493 18.6508 4.48153L18.6813 4.45526C18.9381 4.24171 19.2084 4.02884 19.5076 3.80807L19.5975 3.74048C19.8583 3.54923 20.1306 3.36127 20.4327 3.16412L20.5544 3.08407C20.8234 2.91119 21.1104 2.73797 21.4073 2.56902L21.5477 2.48966C21.839 2.32564 22.1356 2.17144 22.4301 2.02711L22.5725 1.95823C22.8822 1.8093 23.1922 1.67019 23.491 1.54554L23.6193 1.49404C23.9654 1.35331 24.2843 1.23326 24.5916 1.12796L24.6808 1.09876C25.0542 0.972795 25.3979 0.869116 25.7306 0.776608C26.0327 0.693942 26.345 0.617196 26.6602 0.546995C26.6826 0.541746 26.7052 0.538125 26.7275 0.533861C26.758 0.528284 26.7882 0.522394 26.8177 0.516161C27.1316 0.450553 27.3734 0.402983 27.6076 0.364274L27.6542 0.357066C31.9069 -0.336289 36.2686 0.453862 40.0077 2.59501C43.7468 4.73616 46.6359 8.09806 48.1903 12.1167L48.1949 12.1272C48.2828 12.3568 48.374 12.6117 48.4731 12.9076C48.4816 12.9339 48.4911 12.9591 48.5003 12.985C48.5062 13.0008 48.5121 13.0178 48.5173 13.0326C48.6184 13.3416 48.7112 13.6503 48.7932 13.9511C48.8703 14.2342 48.9451 14.5416 49.0228 14.8906L49.0557 15.0379C49.1167 15.3295 49.1728 15.6349 49.2226 15.9479C49.2312 16.0004 49.239 16.0528 49.2486 16.1162C49.2974 16.4442 49.3355 16.7457 49.365 17.0399L49.3752 17.1554C49.405 17.4749 49.427 17.7889 49.4408 18.0903L49.4437 18.1441C49.4555 18.4377 49.4598 18.7487 49.4562 19.0954V19.2464C49.4526 19.4448 49.4457 19.6456 49.4355 19.846C49.2345 19.6492 49.0331 19.4592 48.8313 19.2762C48.0082 18.5322 46.8896 17.6071 45.5039 16.5249C45.422 15.9906 45.3103 15.4613 45.1694 14.9395C44.404 12.1272 42.8362 9.59867 40.6575 7.66272C38.4787 5.72677 35.7834 4.46719 32.9006 4.03784C30.0178 3.60849 27.0724 4.02794 24.4241 5.24497C21.7757 6.462 19.5392 8.42392 17.9875 10.8911L17.2884 11.9963L18.5875 11.8461C27.8351 10.8999 37.1119 13.3427 44.6943 18.7205C46.3799 19.9167 47.9217 21.3037 49.2889 22.8538C51.1453 24.9915 52.4975 27.5192 53.2454 30.2499C53.9837 32.9478 54.1094 35.7767 53.6134 38.5295C53.1174 41.2823 52.0123 43.8894 50.3788 46.1601C48.7454 48.4307 46.6249 50.3074 44.1726 51.6529C41.7204 52.9984 38.9983 53.7786 36.2056 53.9364C35.9035 53.9531 35.5951 53.9623 35.2628 53.9643C35.2047 53.9643 35.147 53.9643 35.089 53.9617C35.043 53.9617 34.9968 53.9594 34.9515 53.9591C34.7166 53.9564 34.5211 53.9538 34.3223 53.9446C34.2403 53.941 34.1583 53.9351 34.0776 53.9295L33.9523 53.921C33.763 53.9089 33.5741 53.8967 33.3841 53.8783C33.2857 53.8692 33.1873 53.8574 33.0866 53.8455L32.9928 53.8344C32.8123 53.8137 32.6319 53.7917 32.4525 53.7658C32.3255 53.7474 32.1996 53.7265 32.0733 53.7052L32.0529 53.7019C31.8768 53.6727 31.7013 53.6412 31.5261 53.6071C31.3926 53.5808 31.2597 53.5529 31.1269 53.5238C30.9537 53.4857 30.7808 53.4454 30.6076 53.4024C30.4764 53.3696 30.3451 53.3368 30.2139 53.3003C30.042 53.2538 29.8708 53.2036 29.6999 53.1517L29.6828 53.1468C29.5598 53.1097 29.4368 53.0727 29.3141 53.0326C29.1412 52.9762 28.9697 52.9156 28.7974 52.8539L28.7181 52.826C28.6216 52.7932 28.5252 52.7578 28.4281 52.7204C28.2522 52.6548 28.0787 52.5813 27.8983 52.5061L27.7884 52.4612C27.7123 52.4284 27.6358 52.3989 27.5588 52.3654C27.3737 52.2844 27.1943 52.1988 26.9785 52.0951C26.9384 52.0758 26.8984 52.0574 26.8581 52.0387C26.8079 52.0154 26.7573 51.9921 26.7081 51.9672C26.4221 51.8242 26.1433 51.6762 25.8792 51.5273C25.8615 51.5174 25.8441 51.5066 25.8267 51.4945C25.8014 51.4791 25.7762 51.4636 25.7503 51.4489C25.4924 51.3006 25.2703 51.1674 25.0715 51.0418C25.0138 51.005 24.9567 50.9667 24.9 50.9283L24.7855 50.8515C24.6175 50.7413 24.4496 50.6311 24.2846 50.5143C24.2137 50.4644 24.1442 50.4126 24.0743 50.3608L23.9697 50.2833C23.8204 50.1728 23.6708 50.0629 23.5235 49.9474C23.4356 49.8786 23.3493 49.8077 23.263 49.7365L23.2017 49.686C23.1614 49.6532 23.1204 49.6204 23.0797 49.5876C23.0275 49.5459 22.9754 49.5043 22.9242 49.461L22.6946 49.2658L22.3954 49.3278ZM39.0793 49.6824C39.3207 49.6167 39.5674 49.5426 39.8121 49.4623C39.8357 49.4547 39.8597 49.4462 39.8829 49.4373L39.9105 49.4275C40.1503 49.3474 40.3488 49.2766 40.544 49.2015L40.5581 49.1959C43.7648 47.9423 46.4454 45.628 48.1534 42.6384C49.8614 39.6489 50.4938 36.1644 49.9453 32.7653L49.9414 32.7407C49.9086 32.5396 49.8672 32.3283 49.8131 32.0744L49.8088 32.0511C49.8046 32.0291 49.8006 32.0072 49.796 31.9855C49.7409 31.7342 49.6793 31.4836 49.613 31.2415C49.3325 30.2218 48.9457 29.2343 48.4589 28.2954L47.8491 27.1144L47.3285 28.3364C45.6772 32.2142 43.0502 35.9866 39.5211 39.5485C36.2924 42.8368 32.4843 45.5007 28.2883 47.4064L27.0929 47.9372L28.2568 48.5339C30.3893 49.6311 32.7524 50.2046 35.1506 50.2069C36.4777 50.2073 37.7989 50.0311 39.0793 49.6824Z" fill="#404040"/>
<mask id="mask1_1963_3935" style="mask-type:luminance" maskUnits="userSpaceOnUse" x="-1" y="0" width="55" height="54">
<path d="M22.3954 49.3287C22.3495 49.3376 22.3029 49.3448 22.2563 49.3521C22.2097 49.3593 22.1618 49.3668 22.1143 49.3753C21.9315 49.4081 21.7488 49.4409 21.5644 49.4669C21.4086 49.4905 21.2528 49.5108 21.097 49.5302C20.9166 49.5525 20.7361 49.5721 20.5538 49.5892C20.3956 49.6043 20.2375 49.6174 20.0788 49.6282C20.0377 49.6309 19.9967 49.6348 19.9561 49.6387C19.9154 49.6427 19.8829 49.6456 19.8458 49.6476C19.7415 49.6535 19.6369 49.6564 19.5322 49.6594L19.3144 49.667C19.2727 49.6686 19.2314 49.6705 19.1878 49.6712C18.8926 49.6774 18.5855 49.6764 18.2729 49.6679C18.2266 49.6679 18.18 49.6643 18.1338 49.6623L18.0354 49.6581C17.7887 49.6479 17.5404 49.6332 17.297 49.6135L17.2156 49.6069C17.1605 49.6027 17.1054 49.5984 17.0499 49.5932C16.7219 49.5626 16.4208 49.5276 16.1272 49.4852C16.1022 49.482 16.0776 49.4774 16.0527 49.4734L15.973 49.4606C15.7148 49.4212 15.4481 49.3747 15.1798 49.3222C15.0974 49.3061 15.0158 49.2894 14.9324 49.2726C14.5762 49.1982 14.2829 49.1296 14.009 49.0574C10.4231 48.1241 7.19648 46.144 4.7405 43.3695C4.53909 43.1415 4.33931 42.9044 4.14741 42.6646C3.76295 42.184 3.39685 41.6778 3.05995 41.1595C2.89068 40.8994 2.72502 40.6311 2.56789 40.3617C1.31884 38.2344 0.504095 35.8805 0.170807 33.4362C-0.162481 30.9919 -0.0076965 28.5058 0.626209 26.1218C0.715108 25.7845 0.817138 25.4401 0.938513 25.0701L0.966384 24.9811C1.07037 24.6688 1.18716 24.3493 1.3233 24.0052L1.37415 23.874C1.49619 23.5729 1.63199 23.2622 1.7783 22.9503L1.84619 22.8056C1.98856 22.5103 2.14143 22.2109 2.30053 21.9199C2.32612 21.873 2.3517 21.8264 2.3786 21.7791C2.54262 21.4823 2.71517 21.1936 2.88674 20.921L2.96449 20.7996C3.15475 20.5024 3.34633 20.2193 3.53397 19.9578L3.59696 19.8726C3.82036 19.5658 4.03062 19.2923 4.24418 19.0308L4.2619 19.0095C4.48398 18.7385 4.72115 18.4669 4.96357 18.2022L4.99999 18.1615C5.22142 17.9217 5.45925 17.6783 5.72955 17.4168L5.81287 17.3352C6.04643 17.1114 6.29116 16.89 6.56081 16.6581L6.67201 16.5623C6.921 16.3517 7.18147 16.1427 7.44719 15.941L7.57315 15.8462C7.8428 15.6445 8.11572 15.4525 8.38406 15.2721L8.51102 15.1888C8.80855 14.9936 9.08904 14.8197 9.36755 14.6577L9.47777 14.5951C9.74938 14.4396 10.0026 14.2998 10.2487 14.1748C10.1529 14.5409 10.0686 14.9017 9.99574 15.2573C9.78579 16.2821 9.56928 17.616 9.35605 19.2266C6.87014 21.2387 5.08675 23.9876 4.26256 27.0777C4.19695 27.3241 4.13855 27.5747 4.08704 27.8214C4.0818 27.846 4.07721 27.8706 4.07295 27.8952L4.06736 27.9254C4.01619 28.1773 3.97813 28.3846 3.94795 28.5781L3.94599 28.5936C3.42692 31.9969 4.0891 35.4753 5.82232 38.4499C7.55553 41.4244 10.2552 43.7157 13.472 44.9422L13.5048 44.9553C13.7289 45.0393 13.9509 45.1134 14.1222 45.1692L14.1573 45.1813C14.1809 45.1898 14.2048 45.198 14.2304 45.2059C14.4719 45.2827 14.7192 45.3545 14.9649 45.4192L15.0433 45.4398C15.9145 45.6606 16.8038 45.8024 17.7005 45.8636C17.8763 45.8845 18.0532 45.8955 18.2302 45.8964H18.2522C20.2505 45.8464 22.2337 45.5355 24.1514 44.9714L24.1681 44.9661C28.617 43.5287 33.1207 40.6645 36.8492 36.9015C40.8841 32.8292 43.5698 28.5427 44.8311 24.1617L44.9387 23.7874L44.6501 23.525C41.1771 20.3758 36.4333 17.8981 31.2932 16.5459C26.1711 15.198 20.8369 15.0186 16.2728 16.0404L15.8821 16.1277L15.7981 16.5193C14.8193 21.0893 15.0482 26.4216 16.4431 31.5331C17.5606 35.7619 19.5057 39.7271 22.1658 43.1993C21.6425 43.3115 21.0573 43.4109 20.3989 43.4994C19.5696 43.6173 18.7345 43.6894 17.8973 43.7153C13.1253 36.5332 10.9005 27.958 11.5789 19.3618C11.5976 19.1844 11.6143 19.0108 11.6268 18.8484C11.8216 16.7869 12.254 14.7548 12.9153 12.7925C12.9235 12.7721 12.9314 12.7518 12.9383 12.7318C13.0642 12.3709 13.1886 12.0429 13.3204 11.7243L13.3306 11.7007C13.4618 11.3829 13.6108 11.0558 13.7702 10.7274L13.803 10.6566C13.946 10.3649 14.1038 10.0661 14.2859 9.74103L14.3515 9.62358C14.5093 9.34704 14.6841 9.05965 14.8711 8.76867L14.958 8.63389C15.1342 8.36489 15.3231 8.09228 15.5196 7.82427L15.618 7.6904C15.8198 7.4201 16.0248 7.15964 16.2285 6.91459L16.3269 6.7965C16.5546 6.52685 16.7721 6.28248 16.9915 6.04892L17.0785 5.95838C17.3347 5.68905 17.5738 5.45024 17.811 5.22717L17.8582 5.18384C18.1171 4.94142 18.3831 4.70591 18.6508 4.48251L18.6813 4.45624C18.9381 4.24268 19.2084 4.02982 19.5076 3.80905L19.5975 3.74145C19.8583 3.5502 20.1306 3.36225 20.4327 3.1651L20.5544 3.08505C20.8234 2.91217 21.1104 2.73894 21.4073 2.57L21.5477 2.49063C21.839 2.32661 22.1356 2.17242 22.4301 2.02808L22.5725 1.95921C22.8822 1.81028 23.1922 1.67117 23.491 1.54651L23.6193 1.49502C23.9654 1.35429 24.2843 1.23423 24.5916 1.12893L24.6808 1.09974C25.0542 0.973772 25.3979 0.870092 25.7306 0.777585C26.0327 0.694918 26.345 0.618172 26.6602 0.547972C26.6826 0.542723 26.7052 0.539102 26.7275 0.534837C26.758 0.52926 26.7882 0.52337 26.8177 0.517138C27.1316 0.451529 27.3734 0.403959 27.6076 0.36525L27.6542 0.358042C31.9069 -0.335313 36.2686 0.454839 40.0077 2.59599C43.7468 4.73714 46.6359 8.09904 48.1903 12.1177L48.1949 12.1282C48.2828 12.3578 48.374 12.6127 48.4731 12.9086C48.4816 12.9348 48.4911 12.9601 48.5003 12.986C48.5062 13.0017 48.5121 13.0188 48.5173 13.0336C48.6184 13.3426 48.7112 13.6513 48.7932 13.9521C48.8703 14.2352 48.9451 14.5425 49.0228 14.8916L49.0557 15.0389C49.1167 15.3305 49.1728 15.6359 49.2226 15.9489C49.2312 16.0014 49.239 16.0538 49.2486 16.1171C49.2974 16.4452 49.3355 16.7467 49.365 17.0409L49.3752 17.1564C49.405 17.4759 49.427 17.7898 49.4408 18.0913L49.4437 18.1451C49.4555 18.4387 49.4598 18.7497 49.4562 19.0964V19.2473C49.4526 19.4458 49.4457 19.6466 49.4355 19.847C49.2345 19.6502 49.0331 19.4602 48.8313 19.2772C48.0082 18.5332 46.8896 17.6081 45.5039 16.5259C45.422 15.9916 45.3103 15.4623 45.1694 14.9405C44.404 12.1282 42.8362 9.59965 40.6575 7.6637C38.4787 5.72774 35.7834 4.46817 32.9006 4.03882C30.0178 3.60947 27.0724 4.02892 24.4241 5.24595C21.7757 6.46298 19.5392 8.4249 17.9875 10.8921L17.2884 11.9973L18.5875 11.847C27.8351 10.9009 37.1119 13.3436 44.6943 18.7215C46.3799 19.9177 47.9217 21.3047 49.2889 22.8548C51.1453 24.9925 52.4975 27.5201 53.2454 30.2508C53.9837 32.9488 54.1094 35.7777 53.6134 38.5305C53.1174 41.2833 52.0123 43.8904 50.3788 46.1611C48.7454 48.4317 46.6249 50.3084 44.1726 51.6539C41.7204 52.9993 38.9983 53.7795 36.2056 53.9374C35.9035 53.9541 35.5951 53.9633 35.2628 53.9653C35.2047 53.9653 35.147 53.9653 35.089 53.9627C35.043 53.9627 34.9968 53.9604 34.9515 53.96C34.7166 53.9574 34.5211 53.9548 34.3223 53.9456C34.2403 53.942 34.1583 53.9361 34.0776 53.9305L33.9523 53.922C33.763 53.9098 33.5741 53.8977 33.3841 53.8793C33.2857 53.8701 33.1873 53.8583 33.0866 53.8465L32.9928 53.8354C32.8123 53.8147 32.6319 53.7927 32.4525 53.7668C32.3255 53.7484 32.1996 53.7275 32.0733 53.7061L32.0529 53.7028C31.8768 53.6736 31.7013 53.6422 31.5261 53.6081C31.3926 53.5818 31.2597 53.5539 31.1269 53.5247C30.9537 53.4867 30.7808 53.4463 30.6076 53.4034C30.4764 53.3706 30.3451 53.3377 30.2139 53.3013C30.042 53.2547 29.8708 53.2045 29.6999 53.1527L29.6828 53.1478C29.5598 53.1107 29.4368 53.0737 29.3141 53.0336C29.1412 52.9772 28.9697 52.9165 28.7974 52.8549L28.7181 52.827C28.6216 52.7942 28.5252 52.7588 28.4281 52.7214C28.2522 52.6558 28.0787 52.5822 27.8983 52.5071L27.7884 52.4622C27.7123 52.4294 27.6358 52.3999 27.5588 52.3664C27.3737 52.2854 27.1943 52.1998 26.9785 52.0961C26.9384 52.0768 26.8984 52.0584 26.8581 52.0397C26.8079 52.0164 26.7573 51.9931 26.7081 51.9682C26.4221 51.8251 26.1433 51.6772 25.8792 51.5282C25.8615 51.5184 25.8441 51.5076 25.8267 51.4955C25.8014 51.48 25.7762 51.4646 25.7503 51.4498C25.4924 51.3016 25.2703 51.1684 25.0715 51.0428C25.0138 51.006 24.9567 50.9676 24.9 50.9293L24.7855 50.8525C24.6175 50.7423 24.4496 50.632 24.2846 50.5153C24.2137 50.4654 24.1442 50.4136 24.0743 50.3618L23.9697 50.2843C23.8204 50.1738 23.6708 50.0639 23.5235 49.9484C23.4356 49.8795 23.3493 49.8087 23.263 49.7375L23.2017 49.687C23.1614 49.6542 23.1204 49.6214 23.0797 49.5886C23.0275 49.5469 22.9754 49.5052 22.9242 49.4619L22.6946 49.2668L22.3954 49.3287ZM39.0793 49.6833C39.3207 49.6177 39.5674 49.5436 39.8121 49.4633C39.8357 49.4557 39.8597 49.4472 39.8829 49.4383L39.9105 49.4285C40.1503 49.3484 40.3488 49.2776 40.544 49.2024L40.5581 49.1969C43.7648 47.9433 46.4454 45.629 48.1534 42.6394C49.8614 39.6498 50.4938 36.1654 49.9453 32.7662L49.9414 32.7417C49.9086 32.5406 49.8672 32.3293 49.8131 32.0754L49.8088 32.0521C49.8046 32.0301 49.8006 32.0082 49.796 31.9865C49.7409 31.7352 49.6793 31.4846 49.613 31.2425C49.3325 30.2227 48.9457 29.2353 48.4589 28.2964L47.8491 27.1154L47.3285 28.3374C45.6772 32.2151 43.0502 35.9876 39.5211 39.5495C36.2924 42.8378 32.4843 45.5017 28.2883 47.4074L27.0929 47.9382L28.2568 48.5349C30.3893 49.632 32.7524 50.2055 35.1506 50.2079C36.4777 50.2083 37.7989 50.0321 39.0793 49.6833Z" fill="white"/>
</mask>
<g mask="url(#mask1_1963_3935)">
<g style="mix-blend-mode:multiply" opacity="0.5">
<path d="M27.196 47.901C27.3887 47.8205 27.5811 47.7373 27.7731 47.6514C27.5677 47.737 27.3722 47.821 27.196 47.901Z" fill="#1D1D1B"/>
<path d="M28.6252 48.5496C28.134 48.3683 27.6563 48.1523 27.1956 47.9033C25.712 48.5442 24.1594 49.0118 22.5686 49.2969C22.6385 49.3592 22.7116 49.4176 22.7825 49.4786C22.8651 49.5498 22.9465 49.6213 23.0318 49.6905C23.1453 49.7837 23.2614 49.8732 23.3772 49.9628C23.4586 50.0254 23.5389 50.0897 23.6216 50.1508C23.6665 50.1836 23.7125 50.2147 23.7578 50.2469C24.3837 50.1318 25.002 49.9791 25.6095 49.7896C26.6469 49.4592 27.6555 49.0445 28.6252 48.5496Z" fill="#1D1D1B"/>
<path d="M48.1432 27.6733C48.0822 27.5342 48.0109 27.3999 47.9299 27.2715C48.0047 27.404 48.0739 27.5385 48.1432 27.6733Z" fill="#1D1D1B"/>
<path d="M44.4517 24.8877C45.0641 25.3836 45.6299 25.9346 46.1417 26.5338C46.6284 27.087 47.0435 27.6992 47.3771 28.3561C47.5729 27.9959 47.7571 27.6343 47.9299 27.2713C47.07 25.9729 46.0361 24.7986 44.8571 23.7812C44.7364 24.151 44.6009 24.52 44.4517 24.8877Z" fill="#1D1D1B"/>
<path d="M17.3243 11.8901C16.5357 13.6285 15.9779 15.4625 15.665 17.3455C16.1368 17.2041 16.6196 17.0778 17.1084 16.9626C17.2419 15.9464 17.4734 14.9455 17.7996 13.9738C18.0645 13.149 18.4196 12.3559 18.8585 11.609C18.3496 11.6807 17.8457 11.7632 17.3466 11.8563C17.4211 11.7176 17.5001 11.5821 17.5792 11.4463C17.4854 11.589 17.4003 11.7372 17.3243 11.8901Z" fill="#1D1D1B"/>
</g>
</g>
</g>
<defs>
<clipPath id="clip0_1963_3935">
<rect width="155" height="53.932" fill="white" transform="translate(0 0.0341797)"/>
</clipPath>
</defs>
</svg>
