<svg width="151" height="30" viewBox="0 0 151 30" fill="none" xmlns="http://www.w3.org/2000/svg">
<path d="M72.616 9.00464H72.6086C71.9439 8.88057 71.2749 8.82001 70.6102 8.82001C68.4729 8.82001 66.3814 9.44331 64.6681 10.6249C62.7007 11.9809 61.3876 13.9867 60.9681 16.2731C59.9578 21.3054 61.2133 25.1294 64.7006 27.6433C66.6872 29.0642 68.9411 29.8086 71.5895 29.9209C73.9128 30.011 78.1785 28.6713 78.5522 27.5015C78.6984 27.0422 78.6497 25.1767 78.6157 24.1723C75.9659 25.7276 71.975 26.568 69.1243 25.2417C67.343 24.413 66.2544 22.8459 65.9738 20.7101L65.9221 20.3172H66.3179C67.2293 20.3172 68.1376 20.3172 69.0445 20.3172C72.1625 20.3172 75.3854 20.3157 78.626 20.3453C79.5418 20.3645 79.8594 20.0824 79.9229 19.1932C80.3985 13.8774 77.4621 9.78451 72.6175 9.00316L72.616 9.00464ZM65.8837 17.2553L65.9782 16.6882C66.2899 13.8242 68.1199 12.3324 71.1345 12.4845C73.6869 12.5761 75.2702 14.1728 75.3633 16.7517V17.2553H65.8837Z" fill="url(#paint0_linear_1778_463)"/>
<path d="M105.102 29.612C108.449 30.3697 113.032 29.7981 115.109 28.3639C117.249 26.946 118.171 24.8338 117.852 22.0806C117.624 20.0645 116.376 18.8016 113.802 17.9863C112.933 17.7071 112.013 17.4944 111.122 17.2891L110.763 17.2064C110.66 17.1887 110.571 17.1651 110.484 17.1429C110.406 17.1222 110.333 17.103 110.258 17.0912L110.236 17.0868L110.085 17.0528C109.602 16.9435 109.102 16.8312 108.616 16.6673C107.344 16.2714 106.603 15.4399 106.639 14.4458L106.644 14.4C106.787 13.5493 107.26 12.9245 108.047 12.5434C110.401 11.4032 114.96 12.8329 116.536 13.4311C116.536 13.248 116.539 13.0663 116.54 12.8876C116.549 12.1535 116.556 11.4608 116.479 10.7518C116.434 10.415 116.194 10.1462 115.704 9.89067C112.853 8.63962 107.05 8.0237 103.614 10.672C101.671 12.1786 100.845 14.1165 101.16 16.4324C101.448 18.4781 102.78 19.8193 105.233 20.5312C105.521 20.6228 106.139 20.769 106.818 20.9049C108.529 21.2742 110.242 21.6582 110.815 21.9639C112.243 22.7054 112.274 23.757 112.251 24.0613L112.248 24.0835C112.134 24.8796 111.734 25.4734 111.056 25.8456C108.635 27.1764 103.196 25.1558 101.526 24.4764C101.526 24.6137 101.524 24.7629 101.523 24.9224C101.519 25.4867 101.513 26.1617 101.513 26.7451V26.7717C101.489 27.0848 101.595 27.4659 101.678 27.6564C102.201 28.55 103.384 29.2265 105.1 29.615L105.102 29.612Z" fill="url(#paint1_linear_1778_463)"/>
<path d="M86.5415 29.59C89.8885 30.3477 94.4717 29.7761 96.5484 28.3419C98.6886 26.924 99.6103 24.8118 99.2913 22.0586C99.0638 20.0425 97.8157 18.7796 95.2412 17.9643C94.3728 17.6852 93.4526 17.4725 92.5619 17.2672L92.203 17.1844C92.0996 17.1667 92.0095 17.1431 91.9224 17.1209C91.8456 17.1002 91.7717 17.081 91.6979 17.0692L91.6757 17.0648L91.5295 17.0323C91.045 16.923 90.5428 16.8107 90.0554 16.6453C88.7837 16.2495 88.0422 15.4179 88.0791 14.4239L88.0836 14.3781C88.2268 13.5273 88.6995 12.9025 89.4867 12.5214C91.8411 11.3797 96.3992 12.8109 97.9752 13.4091C97.9752 13.226 97.9782 13.0443 97.9797 12.8656C97.9885 12.1315 97.9959 11.4388 97.9191 10.7298C97.8733 10.393 97.6326 10.1242 97.1437 9.8687C94.2945 8.61765 88.4897 8.00173 85.0542 10.65C83.1104 12.1566 82.2847 14.0945 82.5993 16.4105C82.8874 18.4562 84.2196 19.7973 86.673 20.5092C86.961 20.6008 87.5784 20.747 88.2578 20.8829C89.9682 21.2522 91.6816 21.6362 92.2547 21.942C93.683 22.6834 93.714 23.7351 93.6904 24.0393L93.6874 24.0615C93.5737 24.8591 93.1734 25.4514 92.4955 25.8236C91.9179 26.1412 91.1691 26.2682 90.3419 26.2682C87.6966 26.2682 84.2388 24.9713 82.9656 24.4559C82.9656 24.5932 82.9642 24.7424 82.9627 24.9019C82.9583 25.4662 82.9524 26.1412 82.9524 26.7246V26.7512C82.9287 27.0643 83.0351 27.4454 83.1178 27.6359C83.6406 28.5295 84.8237 29.206 86.5401 29.5945L86.5415 29.59Z" fill="url(#paint2_linear_1778_463)"/>
<path d="M121.187 5.70446C121.792 6.32776 122.668 6.67782 123.582 6.66305C125.906 6.59068 126.953 4.95117 126.957 3.35893C126.962 1.80214 125.915 0.0873036 123.606 0.00311279C123.578 0.00311279 123.55 0.00311279 123.522 0.00311279C122.226 0.00311279 121.092 0.759353 120.553 1.99267C120.107 3.01478 120.039 4.52726 121.187 5.70446Z" fill="#404040"/>
<path d="M126.328 14.6612C126.324 12.1621 126.319 10.0735 126.319 9.14301H120.863C120.863 10.1252 120.868 12.388 120.872 15.029L120.869 15.0245C120.874 17.9299 120.88 21.5131 120.885 24.4391C120.89 26.9383 120.894 29.0268 120.894 29.9573H126.35C126.35 29.625 126.35 29.1465 126.349 28.5556C126.349 28.5364 126.35 28.5172 126.35 28.4966C126.35 26.0683 126.339 19.4748 126.33 14.6597L126.328 14.6612Z" fill="url(#paint3_linear_1778_463)"/>
<path d="M150.488 12.4721H148.243C147.739 11.738 145.794 8.75885 139.949 8.75885C138.769 8.75885 137.636 8.9228 136.583 9.24775C130.417 11.0999 128.591 16.9357 129.502 21.5736C130.408 26.1819 134.162 30.5554 140.511 29.9439C143.1 29.7475 145.014 29.0178 146.243 27.8126V27.8628C146.243 27.8628 146.829 29.9794 148.244 29.9794C148.439 29.9794 150.114 29.9809 150.487 29.9794C150.487 25.3149 150.487 17.6462 150.49 12.5031V12.4721H150.488ZM139.892 25.5291C138.032 25.5291 136.498 24.953 135.453 23.8645C134.4 22.7655 133.858 21.2088 133.842 19.2369C133.842 17.1691 134.394 15.8516 135.483 14.7571C136.388 13.7719 138.069 13.1634 139.879 13.1634H139.923C141.709 13.1737 143.239 13.7438 144.127 14.7275C145.249 15.856 145.827 17.0391 145.796 19.2221C145.765 22.993 143.558 25.5276 139.893 25.5276L139.892 25.5291Z" fill="url(#paint4_linear_1778_463)"/>
<path d="M53.23 0.00166014V10.4458C51.9538 9.56692 49.9702 8.75898 46.926 8.75898C45.7459 8.75898 44.613 8.92293 43.5599 9.24788C37.3933 11.1001 35.5677 16.9358 36.479 21.5737C37.3844 26.1821 41.139 30.5555 47.4873 29.9441C50.0765 29.7476 51.9908 29.018 53.2197 27.8127V27.8629C53.2197 27.8629 53.806 29.9795 55.221 29.9795C55.416 29.9795 57.2845 29.981 57.6567 29.9795C57.6567 26.1806 57.6596 0.000183105 57.6596 0.000183105H53.233L53.23 0.00166014ZM46.8669 25.5292C45.0074 25.5292 43.4727 24.9532 42.4285 23.8646C41.3753 22.7657 40.8333 21.2089 40.817 19.2371C40.817 17.1692 41.3694 15.8517 42.458 14.7572C43.3634 13.772 45.0443 13.1635 46.8537 13.1635H46.898C48.6837 13.1738 50.2139 13.744 51.1016 14.7277C52.2241 15.8561 52.8017 17.0392 52.7706 19.2223C52.7396 22.9931 50.5329 25.5277 46.8684 25.5277L46.8669 25.5292Z" fill="url(#paint5_linear_1778_463)"/>
<path d="M16.5583 24.7126L13.396 21.5502L10.2336 24.7126L13.396 27.8749L16.5583 24.7126ZM13.396 22.7023L15.4047 24.7111L13.396 26.7198L11.3872 24.7111L13.396 22.7023Z" fill="#404040"/>
<path d="M23.1162 18.1533L26.2785 14.991L23.1162 11.8287L19.9539 14.991L23.1162 18.1533ZM25.1249 14.991L23.1162 16.9998L21.1074 14.991L23.1162 12.9822L25.1249 14.991Z" fill="#404040"/>
<path d="M16.5803 5.29209L13.4179 2.12976L10.2556 5.29209L13.4179 8.45441L16.5803 5.29209ZM13.4179 3.28332L15.4267 5.29209L13.4179 7.30085L11.4092 5.29209L13.4179 3.28332Z" fill="#404040"/>
<path d="M10.5836 20.1588H16.2997C16.3795 20.5251 16.5626 20.8545 16.8182 21.11C16.861 21.1529 16.9068 21.1942 16.954 21.2341C17.0013 21.274 17.0515 21.3109 17.1017 21.3449C17.409 21.5517 17.7782 21.6728 18.177 21.6728C19.239 21.6728 20.1001 20.8117 20.1001 19.7497C20.1001 18.6877 19.239 17.8266 18.177 17.8266C17.9363 17.8266 17.7059 17.8724 17.4932 17.9536C17.3912 17.992 17.2938 18.0393 17.2007 18.0939C16.7473 18.3627 16.4134 18.8103 16.2982 19.3405H10.5821C10.4625 18.7866 10.105 18.3214 9.62058 18.0585C9.56593 18.0289 9.5098 18.0023 9.4522 17.9772C9.22178 17.8797 8.96921 17.8266 8.70334 17.8266C8.43747 17.8266 8.1849 17.8797 7.95448 17.9772C7.89688 18.0009 7.84075 18.0289 7.7861 18.0585C7.66499 18.1235 7.55273 18.2032 7.44934 18.2918L5.45535 16.3673L6.42576 15.3969H11.6456C11.8332 16.2624 12.6027 16.9108 13.5244 16.9108C14.5864 16.9108 15.4475 16.0497 15.4475 14.9877C15.4475 13.9257 14.5864 13.0646 13.5244 13.0646C12.6027 13.0646 11.8332 13.713 11.6471 14.5786H6.42576L5.45682 13.6096L7.53501 11.6393C7.85995 11.8919 8.26762 12.044 8.71072 12.044C9.63239 12.044 10.4019 11.3956 10.5895 10.53H16.248C16.3145 10.8343 16.4504 11.1135 16.6424 11.3454C16.7207 11.4399 16.8078 11.527 16.9023 11.6053C17.2347 11.88 17.6601 12.044 18.1253 12.044C18.3661 12.044 18.5965 11.9982 18.8092 11.917C18.9244 11.8727 19.0352 11.818 19.1386 11.7545C19.177 11.7309 19.2139 11.7058 19.2508 11.6792C19.7338 11.3306 20.0484 10.7634 20.0484 10.1224C20.0484 9.40897 19.6585 8.78714 19.081 8.45481C18.9805 8.3972 18.8742 8.34846 18.7619 8.31006C18.5625 8.24064 18.3484 8.19928 18.1253 8.19928C17.6601 8.19928 17.2347 8.36471 16.9023 8.63796C16.7606 8.75612 16.635 8.89349 16.5316 9.0471C16.3972 9.2465 16.2997 9.471 16.248 9.71472H10.5895C10.4965 9.2849 10.2616 8.90973 9.93371 8.63944C9.88644 8.59956 9.83622 8.56263 9.78601 8.52866C9.6516 8.43708 9.50389 8.36471 9.34733 8.31006C9.14793 8.24064 8.93376 8.19928 8.71072 8.19928C8.18047 8.19928 7.69896 8.41493 7.35186 8.76203C7.17757 8.93632 7.03725 9.1431 6.93976 9.37352C6.84228 9.60394 6.78911 9.85651 6.78911 10.1224C6.78911 10.4444 6.86887 10.7486 7.00918 11.0145L4.8793 13.0336L3.67109 11.8254L0.511719 14.9907L3.67404 18.153L4.88078 16.9463L6.95749 18.9506C6.84523 19.1943 6.78172 19.4646 6.78172 19.7497C6.78172 20.2799 6.99737 20.7614 7.34447 21.1085C7.3489 21.113 7.35333 21.1159 7.35629 21.1204C7.44048 21.2031 7.53058 21.2784 7.62806 21.3434C7.78167 21.4468 7.95005 21.5295 8.13173 21.5856C8.31193 21.6418 8.50394 21.6728 8.70334 21.6728C9.03567 21.6728 9.34733 21.5886 9.6191 21.4409C10.1036 21.178 10.461 20.7127 10.5806 20.1588H10.5836ZM13.5273 13.8844C14.1373 13.8844 14.6336 14.3807 14.6336 14.9907C14.6336 15.6007 14.1373 16.097 13.5273 16.097C12.9173 16.097 12.421 15.6007 12.421 14.9907C12.421 14.3807 12.9173 13.8844 13.5273 13.8844ZM1.66528 14.9907L3.67404 12.9819L5.68281 14.9907L3.67404 16.9994L1.66528 14.9907Z" fill="url(#paint6_linear_1778_463)"/>
<defs>
<linearGradient id="paint0_linear_1778_463" x1="76.2687" y1="29.1735" x2="65.3209" y2="10.2128" gradientUnits="userSpaceOnUse">
<stop stop-color="#404040"/>
<stop offset="1" stop-color="#404040"/>
</linearGradient>
<linearGradient id="paint1_linear_1778_463" x1="114.589" y1="28.6815" x2="104.013" y2="10.3648" gradientUnits="userSpaceOnUse">
<stop stop-color="#404040"/>
<stop offset="1" stop-color="#404040"/>
</linearGradient>
<linearGradient id="paint2_linear_1778_463" x1="96.0285" y1="28.6595" x2="85.453" y2="10.3428" gradientUnits="userSpaceOnUse">
<stop stop-color="#404040"/>
<stop offset="1" stop-color="#404040"/>
</linearGradient>
<linearGradient id="paint3_linear_1778_463" x1="128.798" y1="28.5438" x2="118.413" y2="10.5565" gradientUnits="userSpaceOnUse">
<stop stop-color="#404040"/>
<stop offset="1" stop-color="#404040"/>
</linearGradient>
<linearGradient id="paint4_linear_1778_463" x1="147.959" y1="31.4402" x2="135.353" y2="9.60667" gradientUnits="userSpaceOnUse">
<stop stop-color="#404040"/>
<stop offset="1" stop-color="#404040"/>
</linearGradient>
<linearGradient id="paint5_linear_1778_463" x1="57.7542" y1="29.9234" x2="43.6677" y2="5.52281" gradientUnits="userSpaceOnUse">
<stop stop-color="#404040"/>
<stop offset="1" stop-color="#404040"/>
</linearGradient>
<linearGradient id="paint6_linear_1778_463" x1="0.511719" y1="14.9375" x2="20.1001" y2="14.9375" gradientUnits="userSpaceOnUse">
<stop stop-color="#404040"/>
<stop offset="1" stop-color="#404040"/>
</linearGradient>
</defs>
</svg>
