<svg width="135" height="36" viewBox="0 0 135 36" fill="none" xmlns="http://www.w3.org/2000/svg">
<path d="M90.4997 10.6179C88.5856 8.8025 86.2347 7.76538 83.4485 7.76538C81.7173 7.76538 80.3485 7.83334 78.8502 8.59217V7.81554H73.9785V36.0007L78.8502 31.129V25.9029C80.3501 26.576 81.7222 26.7297 83.4502 26.7297C86.2104 26.7297 88.4562 25.8107 90.3816 23.9694C92.3086 22.1298 93.3069 19.9051 93.3069 17.2936C93.3069 14.6822 92.4137 12.4332 90.4981 10.6179H90.4997ZM86.9951 20.8192C85.9758 21.7269 84.84 22.1799 83.4728 22.1799C81.7319 22.2058 79.9747 21.5441 78.8502 20.2756V14.5415C80.3501 13.095 81.5442 12.3701 83.4534 12.3701C84.8206 12.3701 85.9079 12.8361 86.9272 13.7681C87.9465 14.7 88.4804 15.8747 88.4804 17.292C88.4804 18.7094 88.0145 19.9099 86.9951 20.816V20.8192Z" fill="#404040"/>
<path d="M50.7621 12.3766L50.754 7.76538H32.9951V12.3766H43.7595L32.9951 23.0407V26.8705H50.8139V22.3773H40.7307L50.7621 12.3766Z" fill="#404040"/>
<path d="M102.045 0.335693L97.2044 5.14918V7.7703H94.1545V12.0401H97.2044V20.9989C97.2044 22.5489 97.6558 23.8967 98.5571 25.0406C99.4583 26.1845 100.647 26.7556 102.121 26.7556C102.909 26.7556 103.723 26.5906 104.561 26.2605L106.123 25.4726V21.0765C105.336 21.7383 104.535 22.0926 103.723 22.1444C103.215 22.1444 102.814 21.96 102.523 21.5911C102.23 21.2238 102.071 20.7206 102.047 20.0847V12.1178H106.165V7.77192H102.047V0.335693H102.045Z" fill="#404040"/>
<path d="M126.859 22.1654C125.48 22.1654 124.277 21.7075 123.249 20.7933C122.222 19.8792 121.707 18.6948 121.707 17.2403C121.707 15.7857 122.22 14.6272 123.249 13.6872C124.277 12.7471 125.48 12.2779 126.859 12.2779C128.813 12.2779 130.405 13.0303 131.634 14.5334L134.641 11.5256C132.611 9.01931 130.017 7.76538 126.859 7.76538C124.052 7.76538 121.683 8.68116 119.753 10.5095C117.822 12.3394 116.858 14.5835 116.858 17.2403C116.858 19.897 117.829 22.1152 119.772 23.971C121.714 25.8269 124.078 26.754 126.859 26.754C130.017 26.754 132.598 25.6392 134.604 23.408L131.483 20.2869C130.155 21.5651 128.613 22.1929 126.859 22.167V22.1654Z" fill="#404040"/>
<path d="M113.307 0.699699C112.789 0.233721 112.219 0.000732422 111.6 0.000732422C110.927 0.000732422 110.344 0.246665 109.854 0.73853C109.388 1.20451 109.155 1.77404 109.155 2.4455C109.155 3.19624 109.401 3.80298 109.893 4.26896C110.383 4.70905 110.953 4.92909 111.6 4.92909C112.247 4.92909 112.789 4.6961 113.307 4.23013C113.825 3.79004 114.083 3.19624 114.083 2.4455C114.083 1.69476 113.825 1.13979 113.307 0.699699Z" fill="#404040"/>
<path d="M114.082 7.77905H109.153V26.7547H114.082V7.77905Z" fill="#404040"/>
<path d="M66.3739 26.8771H71.0046L70.9916 7.76721H66.4257V8.63607C64.5521 7.87238 63.5311 7.79472 61.7886 7.79472C58.9846 7.79472 56.6563 8.70888 54.7293 10.5356C52.8007 12.3639 51.8574 14.6032 51.8574 17.2567C51.8574 19.9101 52.8363 22.1251 54.7762 23.9777C56.7162 25.8303 58.9733 26.7558 61.753 26.7558C63.5004 26.7558 64.9161 26.5875 66.3626 25.9047L66.3739 26.8804V26.8771ZM58.2403 20.8016C57.2129 19.8875 56.7097 18.7047 56.7097 17.2534C56.7097 15.8021 57.2275 14.6436 58.2533 13.7052C59.2791 12.7668 60.4101 12.2975 61.7869 12.2975C63.7091 12.2975 64.5521 13.0273 66.4273 14.4834V20.2774C65.1006 21.554 63.578 22.198 61.8274 22.1721C60.4505 22.1721 59.2678 21.7158 58.242 20.8016H58.2403Z" fill="#404040"/>
<path d="M14.9563 34.2488L19.3135 29.8915L9.07331 19.6514L13.7574 14.9673L9.40014 10.6101L0.358887 19.6514L14.9563 34.2488Z" fill="#404040"/>
<path d="M10.9566 0.369873L6.59937 4.72709L16.8395 14.9673L12.1539 19.6513L16.5127 24.0085L25.554 14.9673L10.9566 0.369873Z" fill="#404040"/>
</svg>
