<svg width="155" height="36" viewBox="0 0 155 36" fill="none" xmlns="http://www.w3.org/2000/svg">
<g clip-path="url(#clip0_1963_3868)">
<path d="M41.1374 35.8456C40.4556 35.7126 39.7577 35.7023 39.0766 35.5546C38.1304 35.3504 37.2091 35.0778 36.3209 34.6877C36.0909 34.5871 35.9947 34.4658 35.9984 34.1992C36.0145 32.9877 36.0042 31.7762 36.0057 30.5647C36.0057 30.4707 35.9601 30.3465 36.0439 30.2899C36.1607 30.2099 36.243 30.3465 36.3282 30.3979C38.0084 31.403 39.8077 32.0076 41.7803 32.0069C42.6553 32.0069 43.5112 31.8555 44.3017 31.461C45.8298 30.6977 46.53 29.398 46.6402 27.7435C46.6732 27.2484 46.6453 26.7495 46.6453 26.2C46.3419 26.3697 46.0884 26.5343 45.8173 26.6614C41.2241 28.8184 35.2387 26.6841 33.9596 21.008C33.2014 17.6425 33.8979 14.5627 36.3708 12.031C37.849 10.5168 39.7143 9.76673 41.7979 9.5669C43.6434 9.38984 45.4323 9.63743 47.1214 10.4448C47.2668 10.5139 47.4005 10.4992 47.5475 10.4735C48.5937 10.2891 49.642 10.1157 50.6868 9.92248C50.9645 9.87105 51.0335 9.93644 51.0335 10.223C51.0247 15.8278 51.0291 21.4334 51.0247 27.0383C51.0232 28.5172 50.8344 29.9623 50.1754 31.3141C49.1263 33.4652 47.3778 34.7494 45.1179 35.3974C44.3876 35.6068 43.6412 35.7346 42.8823 35.7861C42.7904 35.7919 42.6832 35.7559 42.6068 35.8463H41.1374V35.8456Z" fill="#404040"/>
<path d="M111.512 35.8452C110.984 35.7725 110.453 35.7108 109.927 35.6263C108.814 35.4478 107.74 35.1355 106.713 34.6668C106.526 34.5809 106.435 34.4861 106.437 34.2605C106.449 33.0248 106.451 31.7891 106.437 30.5534C106.433 30.2374 106.516 30.2367 106.752 30.3814C108.036 31.1683 109.416 31.7039 110.913 31.9154C112.217 32.1006 113.497 32.0367 114.712 31.4621C116.047 30.8303 116.759 29.7364 117.014 28.3148C117.125 27.6977 117.088 27.0717 117.096 26.4487C117.099 26.2004 117.009 26.2173 116.844 26.3209C113.861 28.1936 109.353 27.8299 106.625 25.0998C105.339 23.8134 104.555 22.2596 104.262 20.4787C103.872 18.1138 104.206 15.8458 105.442 13.7682C106.855 11.393 108.983 10.0456 111.699 9.63415C113.712 9.32926 115.667 9.55701 117.523 10.4335C117.79 10.5598 118.03 10.4577 118.273 10.4195C119.187 10.2755 120.098 10.1029 121.009 9.93904C121.431 9.86337 121.444 9.87072 121.444 10.2968C121.444 15.9744 121.444 21.652 121.444 27.3296C121.444 29.156 121.053 30.8715 119.984 32.3834C118.749 34.1298 117.006 35.0819 114.958 35.5528C114.329 35.6976 113.684 35.7145 113.055 35.8452H111.512Z" fill="#404040"/>
<path d="M129.216 0.153809V11.8543C129.781 11.4039 130.285 10.9837 130.857 10.6626C132.974 9.47539 135.201 9.1154 137.516 9.94338C139.54 10.667 140.708 12.1504 141.049 14.2846C141.176 15.0736 141.204 15.8649 141.203 16.6598C141.203 20.1598 141.2 23.6598 141.209 27.1598C141.21 27.45 141.161 27.5617 140.838 27.5558C139.626 27.5352 138.414 27.536 137.202 27.5558C136.896 27.5609 136.848 27.4544 136.848 27.1819C136.856 23.8045 136.854 20.4265 136.853 17.0492C136.853 16.5224 136.809 15.9971 136.697 15.4836C136.43 14.2545 135.386 13.403 134.076 13.3802C132.171 13.3471 130.645 14.195 129.32 15.4887C129.181 15.6239 129.218 15.7811 129.218 15.9339C129.216 19.6543 129.211 23.374 129.225 27.0944C129.226 27.4544 129.155 27.5683 128.771 27.5587C127.597 27.5294 126.421 27.5374 125.246 27.5551C124.944 27.5595 124.858 27.4838 124.858 27.1738C124.868 20.9202 124.866 14.6674 124.866 8.41378C124.866 5.83139 124.866 3.24974 124.866 0.667348C124.866 0.496168 124.876 0.324988 124.88 0.153809C126.325 0.153809 127.77 0.153809 129.214 0.153809L129.216 0.153809Z" fill="#404040"/>
<path d="M155 27.1063C154.038 27.6294 152.997 27.8534 151.914 27.9247C150.659 28.007 149.451 27.8439 148.334 27.2326C146.877 26.4355 146.115 25.155 145.818 23.5585C145.684 22.8363 145.623 22.1061 145.62 21.3736C145.611 18.9146 145.612 16.4549 145.623 13.996C145.624 13.7013 145.559 13.5904 145.242 13.6C144.435 13.6227 143.626 13.6 142.819 13.6117C142.594 13.6147 142.524 13.5405 142.525 13.3178C142.535 12.2783 142.536 11.238 142.526 10.1984C142.524 9.96184 142.616 9.91482 142.829 9.91776C143.648 9.92731 144.468 9.91188 145.288 9.92658C145.541 9.93098 145.623 9.86339 145.62 9.60185C145.609 8.25592 145.625 6.90999 145.609 5.5648C145.605 5.2746 145.714 5.19011 145.974 5.1475C147.201 4.94767 148.427 4.74196 149.649 4.51568C149.935 4.46278 150.007 4.52009 150.005 4.80881C149.992 6.39939 150.005 7.98997 149.992 9.58054C149.989 9.85311 150.06 9.93025 150.337 9.92804C151.891 9.91482 153.445 9.92217 154.999 9.9229V13.5948C154.832 13.7359 154.63 13.7036 154.438 13.7043C153.167 13.7072 151.896 13.7043 150.625 13.7065C150.134 13.7072 150.116 13.7263 150.116 14.2281C150.114 16.5372 150.112 18.8463 150.117 21.1554C150.119 21.6586 150.198 22.1538 150.358 22.6328C150.703 23.6694 151.469 24.1646 152.554 24.0419C153.238 23.9648 153.9 23.7995 154.522 23.4909C154.672 23.4167 154.824 23.3109 154.999 23.4358V27.1077L155 27.1063Z" fill="#404040"/>
<path d="M77.6474 0.153809C77.6474 9.16169 77.6459 18.1703 77.6555 27.1782C77.6555 27.4882 77.5762 27.5595 77.2742 27.5543C76.087 27.5352 74.899 27.5345 73.7118 27.5543C73.3848 27.5595 73.2878 27.4845 73.2886 27.1407C73.2996 19.2833 73.2967 11.4252 73.2974 3.56785C73.2974 2.42984 73.3077 1.29182 73.3128 0.153809H77.6467L77.6474 0.153809Z" fill="#404040"/>
<path d="M155 23.4343C154.844 23.4254 154.726 23.5217 154.594 23.5805C153.704 23.9743 152.799 24.2711 151.799 24.1102C151.042 23.9882 150.578 23.5356 150.309 22.8568C150.068 22.2478 150.001 21.6042 150 20.954C149.998 18.6192 150.003 16.2837 149.992 13.9488C149.991 13.6726 150.068 13.5991 150.342 13.6006C151.895 13.6087 153.448 13.5977 155.001 13.5933V23.4343H155Z" fill="#F8F8F8"/>
<path d="M1.02708 24.0243C0.634761 23.0148 0.376889 21.9694 0.224077 20.8997C0.131507 20.2539 0.0734677 19.603 0 18.955C0 18.5876 0 18.2203 0 17.8537C0.12563 17.587 0.0499581 17.3027 0.0749371 17.0265C0.0874266 16.8825 0.0536314 16.7319 0.140323 16.5996C0.351176 16.8119 0.163833 17.1029 0.286524 17.3328C0.301218 17.8258 0.536314 18.2475 0.740555 18.6736C1.58543 20.4368 2.82998 21.915 4.12742 23.352C6.10443 25.5414 8.21002 27.608 10.2319 29.7547C11.5572 31.1624 12.8319 32.6119 13.9104 34.223C14.011 34.3737 14.1051 34.5287 14.2491 34.7564C12.6717 34.5397 11.2273 34.1261 9.84174 33.4979C9.37154 32.7823 8.78894 32.1571 8.21883 31.5253C7.05658 30.2382 5.82673 29.0149 4.6292 27.7616C3.55878 26.6412 2.44574 25.559 1.4385 24.3784C1.32242 24.2425 1.21148 24.0882 1.02781 24.025L1.02708 24.0243Z" fill="#A7A7A7"/>
<path d="M69.7025 22.2893C69.7025 23.3663 69.7025 24.3647 69.7025 25.3632C69.7025 26.3616 69.7069 26.3726 68.7974 26.787C67.1848 27.5202 65.484 27.8669 63.7178 27.9316C61.6872 28.0065 59.7432 27.6686 57.9565 26.6724C55.2573 25.1677 53.7747 22.8469 53.4742 19.7811C53.2332 17.3184 53.7438 15.0321 55.2529 13.0353C56.8273 10.9525 58.9549 9.80343 61.5439 9.56466C63.972 9.34058 66.1849 9.92097 68.0355 11.5777C69.5747 12.9559 70.3277 14.739 70.5863 16.7549C70.7068 17.6924 70.6855 18.632 70.6098 19.5746C70.5863 19.87 70.4886 19.931 70.2153 19.9302C66.2862 19.9221 62.3572 19.9251 58.4281 19.9251C58.3304 19.9251 58.2312 19.9346 58.1343 19.9236C57.8742 19.8935 57.8551 20.0191 57.908 20.2285C58.3672 22.0461 59.4508 23.3185 61.2295 23.9379C63.2028 24.6248 65.157 24.4037 67.0797 23.6969C67.9892 23.3626 68.8326 22.8954 69.7025 22.29V22.2893Z" fill="#404040"/>
<path d="M80.7314 22.4141C81.303 22.7175 81.8217 23.0106 82.3719 23.2406C84.1484 23.9834 85.9887 24.4183 87.9224 24.3676C88.5689 24.3507 89.2125 24.2699 89.8083 23.9745C90.4504 23.6572 90.8068 23.1524 90.7854 22.4325C90.7649 21.7367 90.3439 21.3238 89.7238 21.0799C88.7724 20.7052 87.7578 20.6163 86.7653 20.4283C85.1564 20.1226 83.554 19.8008 82.1405 18.9089C80.9533 18.1588 80.3229 17.0774 80.209 15.6742C79.9828 12.8817 81.5616 10.9899 83.9037 10.1303C85.3474 9.60059 86.8417 9.461 88.3713 9.53667C90.0794 9.62189 91.742 9.90621 93.3392 10.5307C93.8966 10.7486 94.1753 11.1508 94.1753 11.737C94.1753 12.6429 94.1753 13.548 94.1753 14.4539C94.1753 14.8719 94.1716 14.877 93.8182 14.6956C92.0476 13.786 90.1705 13.2512 88.1869 13.1028C87.2906 13.0359 86.4038 13.094 85.559 13.4452C84.6619 13.8176 84.3049 14.7815 84.7846 15.5493C84.9808 15.863 85.2871 16.0393 85.6251 16.1686C86.4751 16.4941 87.3743 16.5954 88.2618 16.7519C89.8245 17.0274 91.3805 17.3279 92.8043 18.0744C94.6322 19.0324 95.336 20.5811 95.1553 22.6426C94.9151 25.3807 93.1754 26.8001 90.7252 27.5296C88.951 28.0579 87.1334 28.0314 85.3128 27.8022C83.8508 27.6185 82.4395 27.2556 81.0855 26.6657C80.8063 26.5444 80.7189 26.3909 80.724 26.0926C80.7424 25.0038 80.7314 23.9143 80.7314 22.8248C80.7314 22.7065 80.7314 22.5882 80.7314 22.4148V22.4141Z" fill="#404040"/>
<path d="M8.15931 11.9095C9.66099 9.53139 11.8121 7.8093 13.9971 6.11881C15.6273 4.85737 17.2796 3.62164 18.7629 2.18315C18.9253 2.02592 19.0935 2.03694 19.2684 2.06707C20.2146 2.22796 21.1491 2.43808 22.0469 2.78705C21.493 3.37479 20.8663 3.88172 20.2587 4.40995C18.4852 5.9513 16.5611 7.30458 14.7582 8.8092C13.6099 9.76722 12.4968 10.7576 11.7019 12.0484C11.181 12.894 10.8622 13.805 10.7336 14.7924C10.6572 15.3787 10.6682 15.951 10.7895 16.5255C10.6741 17.4424 11.0723 18.2425 11.4125 19.0381C12.2728 21.0511 13.5393 22.821 14.8331 24.5717C16.4876 26.8103 18.2332 28.9842 19.7224 31.3425C20.2572 32.1903 20.748 33.0616 21.1873 33.9631C21.2931 34.1805 21.2784 34.2665 21.0191 34.3304C20.1191 34.5523 19.2206 34.7727 18.289 34.816C17.9849 34.3143 17.7505 33.775 17.4691 33.2607C16.4972 31.4857 15.3187 29.8504 14.1197 28.226C12.5439 26.0917 10.8681 24.028 9.49128 21.7513C8.56779 20.2246 7.80446 18.6318 7.48194 16.8583C7.17704 15.1833 7.3519 13.5743 8.138 12.0491C8.16078 12.0043 8.17327 11.9588 8.15857 11.9088L8.15931 11.9095Z" fill="#A7A7A7"/>
<path d="M19.3807 17.9224C19.2676 19.1846 19.8406 20.2682 20.3211 21.3614C21.1006 23.1334 22.1828 24.7343 23.2605 26.3352C24.331 27.925 25.3668 29.5354 26.2903 31.2178C26.4762 31.5565 26.4233 31.713 26.1155 31.9158C25.4117 32.3779 24.7064 32.8341 23.9438 33.1948C23.6051 32.7114 23.42 32.1494 23.1437 31.6329C22.2415 29.9468 21.1968 28.3533 20.1286 26.7716C18.7577 24.7416 17.4375 22.6787 16.5838 20.3644C15.8645 18.4139 15.6618 16.4214 16.2106 14.3842C16.3546 13.8493 16.6117 13.3674 16.8321 12.8663C18.1538 10.688 19.989 8.95785 21.7926 7.20123C22.7477 6.27113 23.7359 5.37335 24.6204 4.37419C24.8408 4.12514 25.0017 4.13469 25.2596 4.29632C25.9127 4.7048 26.5306 5.15662 27.1198 5.65033C26.3307 6.57088 25.3999 7.35037 24.5609 8.2217C23.7557 9.0585 22.8763 9.81815 22.0909 10.6792C21.0918 11.7761 20.2109 12.9317 19.7076 14.343C19.3359 15.3841 19.1838 16.453 19.3131 17.5536C19.3271 17.6733 19.2227 17.8276 19.3822 17.9224H19.3807Z" fill="#A7A7A7"/>
<path d="M97.5401 18.7016C97.5401 15.9113 97.5467 13.1217 97.532 10.3314C97.5305 9.98832 97.6297 9.9075 97.9596 9.91338C99.1468 9.93321 100.334 9.92881 101.521 9.91558C101.793 9.91264 101.897 9.96187 101.897 10.2697C101.886 15.9113 101.886 21.5521 101.896 27.1937C101.896 27.4869 101.815 27.5589 101.529 27.5552C100.318 27.539 99.1057 27.5376 97.8942 27.5552C97.593 27.5596 97.5335 27.4582 97.5342 27.182C97.543 24.3549 97.5393 21.5286 97.5393 18.7016H97.5401Z" fill="#404040"/>
<path d="M27.092 17.7671C27.1831 18.9066 27.6511 19.9256 28.1154 20.9446C28.9162 22.7027 29.9829 24.3124 30.9439 25.9815C31.0776 26.2137 31.0827 26.3827 30.9439 26.6141C30.4568 27.4318 29.9263 28.2172 29.31 28.9438C29.1821 28.8725 29.1366 28.741 29.0793 28.6212C28.2821 26.9388 27.3234 25.3468 26.3727 23.7496C25.4654 22.2237 24.6286 20.6588 24.1026 18.9514C23.5846 17.269 23.4068 15.5785 24.0019 13.8704C24.0702 13.6742 24.2135 13.5111 24.2377 13.2988C24.8078 12.5127 25.2788 11.6568 25.9686 10.9552C26.9744 9.93179 28.1249 9.09132 29.2798 8.25305C29.4209 8.15093 29.5414 8.08481 29.6766 8.27509C30.0916 8.85916 30.5508 9.41311 30.8454 10.075C30.5729 10.4784 30.1482 10.7164 29.7934 11.0287C28.77 11.9301 27.8979 12.9432 27.4101 14.2348C27.0787 15.112 26.9076 16.0201 27.0405 16.9656C27.078 17.2308 27.0251 17.5026 27.0905 17.7664L27.092 17.7671Z" fill="#A7A7A7"/>
<path d="M0.285849 17.3316C0.0647114 17.1215 0.192545 16.8423 0.139648 16.5984C0.280706 15.2113 0.589271 13.8639 1.09987 12.5643C1.69937 11.5394 2.60963 10.8143 3.51843 10.0943C4.91725 8.98711 6.41012 8.00999 7.87066 6.98879C9.59127 5.78465 11.306 4.5717 12.7901 3.06928C13.0898 2.76586 13.3095 2.38897 13.6643 2.13845C14.2763 1.95551 14.9074 1.93274 15.5921 1.89307C15.3835 2.43085 15.1072 2.88415 14.8192 3.32863C13.6731 5.09699 12.1516 6.5017 10.4898 7.76975C8.52599 9.26776 6.43363 10.585 4.45294 12.0595C3.25395 12.9514 2.08214 13.8749 1.22697 15.1283C0.767798 15.8005 0.434989 16.5271 0.285115 17.3323L0.285849 17.3316Z" fill="#404040"/>
<path d="M8.15927 11.9094C8.31061 12.0652 8.14898 12.1791 8.09608 12.2966C7.61487 13.3707 7.37463 14.5014 7.4312 15.6688C7.50247 17.1315 7.93005 18.5156 8.5604 19.8337C9.54487 21.8908 10.8717 23.7289 12.2286 25.548C13.4247 27.151 14.6575 28.7269 15.7904 30.3763C16.6881 31.6833 17.5213 33.0292 18.192 34.4692C18.2434 34.5794 18.3088 34.6859 18.289 34.8167C17.043 35.0474 17.0342 35.0429 16.4119 33.9718C15.1255 31.7567 13.5283 29.7636 11.9502 27.7571C10.4706 25.8756 8.96007 24.0154 7.78238 21.9194C7.00582 20.5367 6.39384 19.0946 6.24249 17.4922C6.06838 15.6563 6.58338 14.0172 7.65601 12.5383C7.81323 12.3216 7.99029 12.1181 8.15853 11.9087L8.15927 11.9094Z" fill="#404040"/>
<path d="M16.8315 12.8662C16.8881 13.1645 16.6802 13.3812 16.5802 13.6244C16.0182 14.9909 15.8999 16.4044 16.0733 17.8561C16.3613 20.2696 17.4626 22.3619 18.7093 24.3823C19.7717 26.1036 20.9303 27.7647 22.011 29.4743C22.7148 30.5874 23.3591 31.7393 23.8932 32.9471C23.9292 33.028 23.9535 33.1058 23.9439 33.194C23.5634 33.385 23.1387 33.7501 22.789 33.6612C22.4591 33.5782 22.3702 33.0008 22.1741 32.6423C21.0287 30.5462 19.6086 28.6316 18.2604 26.6686C17.0975 24.9744 16.0241 23.2303 15.3372 21.2746C14.2543 18.1867 14.7678 15.3913 16.8315 12.8662Z" fill="#404040"/>
<path d="M10.7901 16.527C10.7365 16.5469 10.6703 16.5961 10.6564 16.4903C10.4463 14.8711 10.7783 13.3716 11.6387 11.9831C12.6848 10.2955 14.2343 9.11415 15.7455 7.89532C17.6167 6.38703 19.5754 4.986 21.3364 3.34106C21.5509 3.14049 21.7265 2.86205 22.0468 2.78711C22.3892 2.91421 22.733 3.03837 23.0739 3.16988C23.1863 3.21322 23.2914 3.2764 23.4207 3.34032C22.6625 4.34389 21.7963 5.21742 20.8728 6.03732C19.1177 7.59557 17.2097 8.96428 15.3914 10.4432C14.1211 11.4761 12.8406 12.5032 11.9105 13.8822C11.3654 14.6911 10.9686 15.5624 10.7901 16.5263V16.527Z" fill="#404040"/>
<path d="M13.665 2.1393C13.2264 2.80933 12.6519 3.3574 12.062 3.88857C10.0688 5.68412 7.80378 7.11454 5.62326 8.65883C4.26852 9.61758 2.90275 10.5646 1.76694 11.793C1.53625 12.0428 1.32173 12.308 1.09985 12.5658C1.76106 10.7328 2.74773 9.08935 4.01946 7.61926C6.41671 4.84806 9.41126 3.05985 12.9811 2.23848C13.2029 2.18779 13.4277 2.10698 13.6643 2.14004L13.665 2.1393Z" fill="#A7A7A7"/>
<path d="M24.2399 13.2988C24.3266 13.3525 24.2906 13.4164 24.2612 13.4869C23.4832 15.3089 23.6345 17.1397 24.2142 18.9742C24.81 20.8601 25.7709 22.5683 26.7855 24.2507C27.6613 25.7024 28.5061 27.1703 29.2298 28.7043C29.2658 28.7799 29.2849 28.8644 29.3113 28.9445C28.9859 29.339 28.656 29.7284 28.2424 30.0899C27.5467 28.6198 26.7238 27.2526 25.8745 25.9007C25.0943 24.6599 24.3155 23.4175 23.6947 22.087C23.0666 20.7418 22.5751 19.3599 22.5347 17.8465C22.4877 16.0921 23.1166 14.6066 24.2406 13.2996L24.2399 13.2988Z" fill="#404040"/>
<path d="M102.417 4.09711C102.407 5.62598 101.213 6.79191 99.6729 6.77575C98.194 6.76105 96.9723 5.54075 96.9877 4.09491C97.0039 2.56678 98.2308 1.3766 99.7714 1.39424C101.257 1.41113 102.427 2.60645 102.417 4.09711Z" fill="#404040"/>
<path d="M19.3809 17.922C19.3493 17.9712 19.3177 18.0204 19.2729 18.0895C18.9026 15.7025 19.5969 13.6314 21.0369 11.7712C22.3233 10.1101 23.9315 8.75906 25.3906 7.26399C25.8593 6.78351 26.3941 6.36915 26.8217 5.84753C26.8974 5.7557 26.9804 5.65651 27.1185 5.6499C27.4293 5.92467 27.7327 6.20826 28.0538 6.47054C28.2286 6.6138 28.2301 6.7071 28.0751 6.87534C27.2214 7.80177 26.3258 8.68559 25.4251 9.56573C23.9565 10.9998 22.4195 12.3685 21.1463 13.9914C20.2346 15.1537 19.602 16.4467 19.3794 17.9212L19.3809 17.922Z" fill="#404040"/>
<path d="M1.0271 24.0245C1.07559 23.7975 1.15346 23.9687 1.20122 24.0179C1.69786 24.5395 2.19083 25.0641 2.6838 25.5886C2.90126 25.8193 3.11358 26.0552 3.33325 26.2836C4.75706 27.7603 6.19629 29.2224 7.60246 30.7159C8.3702 31.5322 9.12398 32.3646 9.79694 33.2653C9.84617 33.3314 9.98135 33.3902 9.84249 33.4974C5.60855 31.5454 2.65808 28.3988 1.02783 24.0252L1.0271 24.0245Z" fill="#404040"/>
<path d="M27.0919 17.7673C26.7385 16.5668 26.884 15.3891 27.305 14.2416C27.878 12.6782 28.9977 11.5335 30.265 10.5138C30.4545 10.3617 30.6529 10.2214 30.8468 10.0752C31.198 10.5329 31.4133 11.0633 31.655 11.5798C31.7512 11.7855 31.5485 11.8318 31.4485 11.9067C30.6499 12.5077 29.8484 13.105 29.149 13.8243C28.0705 14.9336 27.2991 16.2031 27.0919 17.7673Z" fill="#404040"/>
<path d="M46.6571 18.5175C46.6571 19.8274 46.6579 21.1366 46.6557 22.4465C46.6557 22.5854 46.6828 22.7191 46.5197 22.8278C44.9189 23.8939 42.1683 24.3442 40.2383 23.0225C39.3706 22.4282 38.7711 21.6208 38.4324 20.637C37.9328 19.1868 37.9431 17.724 38.5096 16.2958C39.3104 14.2769 41.183 13.1551 43.4495 13.3101C44.4825 13.3806 45.4714 13.6334 46.4051 14.0955C46.6006 14.1924 46.6623 14.3056 46.6608 14.5164C46.652 15.8506 46.6564 17.1848 46.6564 18.5182L46.6571 18.5175Z" fill="#F8F8F8"/>
<path d="M117.094 18.4924C117.094 19.8016 117.094 21.1108 117.094 22.4208C117.094 22.578 117.108 22.7242 116.941 22.8351C115.299 23.9239 112.525 24.3074 110.663 23.01C109.712 22.348 109.097 21.4502 108.777 20.3416C108.351 18.8649 108.416 17.4139 109.069 16.0195C110.035 13.9587 112.003 13.1249 114.113 13.3313C115.044 13.4224 115.932 13.6707 116.782 14.0631C117.008 14.1674 117.105 14.2982 117.102 14.5641C117.086 15.8733 117.094 17.1825 117.094 18.4924Z" fill="#F8F8F8"/>
<path d="M62.2293 16.8972C60.8723 16.8972 59.5147 16.8906 58.1577 16.9024C57.8962 16.9046 57.855 16.8355 57.9145 16.5909C58.6338 13.6301 61.8443 12.16 64.5149 13.5978C65.7058 14.2392 66.309 15.3133 66.5565 16.6137C66.5999 16.8399 66.536 16.9046 66.3009 16.9031C64.9439 16.8921 63.5862 16.898 62.2293 16.8972Z" fill="#F8F8F8"/>
</g>
<defs>
<clipPath id="clip0_1963_3868">
<rect width="155" height="35.6914" fill="white" transform="translate(0 0.154297)"/>
</clipPath>
</defs>
</svg>
