<svg width="187" height="30" viewBox="0 0 187 30" fill="none" xmlns="http://www.w3.org/2000/svg">
<g clip-path="url(#clip0_1996_1945)">
<path d="M4.93219 25.8745H14.8511V29.6392H0.333252V6.91699H5.01604L4.93219 25.8745Z" fill="#404040"/>
<path d="M31.8927 24.9732H23.701L22.1624 29.6392H17.1946L25.6211 6.91699H29.9014L38.3824 29.5595H33.4397L31.9011 24.9732H31.8927ZM24.9797 21.1833H30.6434L27.8011 12.7233L24.9838 21.1833H24.9797Z" fill="#404040"/>
<path d="M58.1156 6.91699V21.6068C58.233 23.8161 57.3736 25.9667 55.7763 27.4927C54.0155 29.002 51.714 29.6392 49.4208 29.6392C47.1276 29.6392 44.8722 29.0187 43.1198 27.543C41.5183 26.0674 40.6421 23.9628 40.7218 21.787V6.91699H45.5387V21.6613C45.4339 22.8393 45.8196 24.0089 46.6036 24.8977C47.4211 25.602 48.4817 25.9625 49.5549 25.9039C52.2129 25.9039 53.5167 24.5246 53.5711 21.7661V6.91699H58.1198H58.1156Z" fill="#404040"/>
<path d="M80.0914 29.6392H75.4128L66.3156 14.8698V29.6392H61.637V6.91699H66.3156L75.438 21.8457V6.91699H80.0914V29.6392Z" fill="#404040"/>
<path d="M124.224 29.6392H119.541V19.934H110.423V29.6392H105.74V6.91699H110.423V16.0897H119.541V6.91699H124.224V29.6392Z" fill="#404040"/>
<path d="M132.411 21.6565V29.6092H127.733V6.9164H136.587C138.138 6.88287 139.676 7.20987 141.081 7.87225C142.326 8.42982 143.366 9.35632 144.057 10.526C144.778 11.6956 145.152 13.0497 145.122 14.4248C145.223 16.4497 144.376 18.4075 142.837 19.728C141.022 21.0947 138.779 21.7697 136.507 21.6355L132.411 21.6607V21.6565ZM132.411 17.8918H136.591C137.61 17.9631 138.624 17.6487 139.433 17.0156C140.1 16.3616 140.448 15.4519 140.389 14.5212C140.435 13.5402 140.079 12.5844 139.408 11.8717C138.704 11.1674 137.744 10.7859 136.75 10.811H132.47L132.415 17.8918H132.411Z" fill="#404040"/>
<path d="M168.741 29.6389V6.91669H175.734C177.596 6.89573 179.432 7.36108 181.054 8.2708C182.656 9.1973 183.951 10.5724 184.777 12.2199C185.682 13.9639 186.106 15.9595 186.106 17.8669V18.9024C186.106 20.8854 185.687 22.7677 184.802 24.4991C183.972 26.0964 182.698 27.4212 181.138 28.3183C179.507 29.2197 177.679 29.6431 175.818 29.6431H168.746L168.741 29.6389ZM173.424 10.7862V25.8742H175.684C177.285 25.9832 178.845 25.3208 179.885 24.0967C180.949 22.6084 181.348 20.8477 181.348 18.9779V17.7831C181.348 15.8672 181.004 14.0352 179.939 12.4799C178.904 11.2557 177.34 10.5933 175.734 10.7023L173.424 10.782V10.7862Z" fill="#404040"/>
<path d="M166.402 22.6164L157.917 -0.000976562H153.586L145.131 22.6164H150.103L151.536 18.3235L153.134 13.5485L155.737 5.72569L158.399 13.603L158.584 14.1857L160.017 18.4283L161.43 22.6164H166.402Z" fill="#404040"/>
<path d="M145.131 24.9598V29.6426H166.402V24.9598H145.131Z" fill="#404040"/>
<path d="M102.197 22.0842C102.021 24.5409 101.112 26.4693 99.4807 27.8821C97.8457 29.2907 95.6909 29.9992 93.0162 29.9992C90.09 29.9992 87.7926 29.014 86.1157 27.0437C84.4388 25.0733 83.6003 22.3734 83.6003 18.9358V17.5397C83.6003 15.3472 83.986 13.4145 84.7616 11.7418C85.533 10.0691 86.6397 8.78625 88.0735 7.89329C89.5115 7.00033 91.18 6.55176 93.0791 6.55176C95.7119 6.55176 97.8332 7.25606 99.4388 8.66886C101.049 10.0775 101.975 12.0604 102.227 14.6051H97.5271C97.4139 13.1336 97.0031 12.0646 96.2988 11.4022C95.5945 10.7399 94.5212 10.4087 93.0791 10.4087C91.5112 10.4087 90.3415 10.9704 89.5618 12.094C88.782 13.2175 88.3837 14.9573 88.3628 17.3175V19.0406C88.3628 21.5056 88.7359 23.3083 89.4821 24.4444C90.2283 25.5847 91.4064 26.1507 93.0162 26.1507C94.4668 26.1507 95.5526 25.8195 96.2694 25.1571C96.9863 24.4947 97.393 23.4676 97.4978 22.08H102.197V22.0842Z" fill="#404040"/>
</g>
<defs>
<clipPath id="clip0_1996_1945">
<rect width="185.769" height="30" fill="white" transform="translate(0.333252)"/>
</clipPath>
</defs>
</svg>
