<svg width="181" height="68" viewBox="0 0 181 68" fill="none" xmlns="http://www.w3.org/2000/svg">
<path d="M180.371 30.0076C180.098 31.0415 179.932 32.1076 179.402 33.0665C177.505 36.5005 174.457 37.8076 170.814 37.2933C167.305 36.8005 164.648 33.9987 164.15 30.4576C163.545 26.1344 166.116 22.229 170.252 21.2112C175.341 19.9576 180.237 23.7505 180.307 28.9897C180.307 29.1987 180.35 29.413 180.371 29.6219V30.0076Z" fill="#404040"/>
<path d="M0.5 22.5451C0.5375 22.5344 0.569643 22.5344 0.607143 22.5451C0.869643 22.7755 0.832143 23.0862 0.8375 23.3809C0.842857 30.5434 0.842857 37.7059 0.8375 44.8684C0.8375 45.163 0.869643 45.4737 0.607143 45.7041H0.553571H0.5V22.5559V22.5451Z" fill="#B9C5E9"/>
<path d="M0.607178 45.6986C0.612535 44.1611 0.628606 42.6183 0.628606 41.0808C0.628606 34.904 0.617892 28.7218 0.612535 22.5451C0.966106 18.4629 2.86789 15.3183 6.44111 13.2986C13.0572 9.55399 19.6947 5.85756 26.3429 2.17721C30.1786 0.0557777 34.0465 0.103992 37.8768 2.23613C44.4018 5.87363 50.9322 9.50042 57.4465 13.1647C61.4429 15.4093 63.484 18.8593 63.5 23.4504C63.5215 30.6076 63.5322 37.7647 63.5 44.9218C63.4786 49.3522 61.5179 52.754 57.6768 54.9397C51.3875 58.5236 45.034 61.9951 38.734 65.5522C36.8161 66.6343 34.8554 67.4861 32.6107 67.5879C29.9911 67.7058 27.6822 66.8647 25.4429 65.5951C19.2018 62.0593 12.9232 58.5879 6.66611 55.0844C2.99646 53.0272 0.987535 49.8879 0.617892 45.6986H0.607178Z" fill="#404040"/>
<path d="M140.713 36.9883H138.227V21.4151H140.729V23.2526C144.27 19.4758 149.198 20.9276 150.361 24.0883C150.639 24.0454 150.693 23.7776 150.821 23.6115C151.995 22.1008 153.5 21.1472 155.423 21.0186C158.466 20.8151 160.684 22.6954 161.091 25.7329C161.236 26.8204 161.284 27.9079 161.284 29.0008C161.284 31.4436 161.284 33.8865 161.284 36.3293C161.284 36.5383 161.338 36.7579 161.209 36.9883H158.755C158.755 36.7097 158.755 36.4579 158.755 36.2061C158.713 33.0561 158.788 29.9115 158.68 26.7615C158.563 23.3329 155.343 22.8454 153.398 24.0454C151.727 25.074 151.202 26.6865 151.068 28.5133C150.875 31.1008 150.998 33.6936 150.955 36.2865C150.955 36.5168 151.014 36.7526 150.886 36.999H148.545C148.421 36.7311 148.48 36.4686 148.475 36.2168C148.421 33.0668 148.523 29.9222 148.389 26.7722C148.25 23.4668 145.159 22.6847 142.952 24.174C141.404 25.2186 140.895 26.7883 140.788 28.5401C140.638 31.1061 140.75 33.6776 140.718 36.249C140.718 36.4793 140.718 36.7097 140.718 36.999L140.713 36.9883Z" fill="#404040"/>
<path d="M75.1357 34.9843V47.1986H72.6606V21.42H75.1249V23.5789C76.8767 21.6825 78.9231 20.8575 81.3339 21.0075C83.7606 21.1629 85.6946 22.2611 87.1785 24.1629C89.7231 27.42 89.3482 32.1021 86.4178 35.1075C83.9374 37.6575 78.966 38.6164 75.1303 34.9789L75.1357 34.9843Z" fill="#404040"/>
<path d="M135.157 29.6274H121.7C121.555 31.6953 123.125 34.0096 125.15 34.7221C126.628 35.2471 128.086 35.1024 129.521 34.5078C130.995 33.9024 131.846 32.6863 132.639 31.3524C133.346 31.7167 134.021 32.0649 134.696 32.4131C133.341 35.9381 129.773 38.1185 125.096 37.181C121.095 36.3828 118.47 32.006 119.161 27.8435C119.702 24.5649 122.445 20.606 127.812 21.0078C131.953 21.3185 135.291 24.7149 135.152 29.6221L135.157 29.6274Z" fill="#404040"/>
<path d="M113.514 23.504V21.4362H116.005V36.9665H113.541V34.9201C111.709 36.704 109.652 37.529 107.214 37.3683C104.739 37.2076 102.816 36.0612 101.359 34.1272C98.8894 30.8326 99.3608 25.9844 102.248 23.2255C105.045 20.5576 110.113 19.8933 113.514 23.4987V23.504Z" fill="#404040"/>
<path d="M93.7358 36.9882H91.1965V21.4364H93.6983V22.9739C94.5555 22.1275 95.3162 21.3989 96.3769 21.115C97.4912 20.8204 98.4876 21.0775 99.4733 21.6989C99.0447 22.39 98.6215 23.0704 98.209 23.74C96.3769 23.2257 95.2787 23.7454 94.4644 25.4596C93.8965 26.6543 93.8108 27.9346 93.784 29.215C93.7412 31.5507 93.7465 33.8864 93.7305 36.2221C93.7305 36.4579 93.7305 36.6882 93.7305 36.9829L93.7358 36.9882Z" fill="#404040"/>
<path d="M166.593 29.2681C166.593 26.0753 169.137 23.4342 172.202 23.4503C175.266 23.4663 177.805 26.1181 177.8 29.2949C177.8 32.4824 175.325 34.9842 172.175 34.9949C169.057 35.011 166.598 32.4824 166.598 29.2628L166.593 29.2681Z" fill="#F8F8F8"/>
<path d="M28.1053 15.1361C28.0463 14.7022 28.0196 14.3701 28.1053 14.0594C28.1749 14.0165 28.2124 13.979 28.2446 13.979C31.6624 14.0379 35.1178 13.5611 38.4874 14.3326C43.2821 15.4308 46.5928 18.3504 48.3713 22.9522C50.7017 28.9736 48.3928 35.8361 43.0035 39.3397C41.0481 40.6094 38.9053 41.429 36.5856 41.5201C33.7838 41.6326 30.9767 41.5468 28.1481 41.5468C27.9981 41.204 28.0463 40.8558 28.1053 40.5183C28.3678 40.3361 28.6303 40.4058 28.8821 40.4058C31.1106 40.4058 33.3392 40.4058 35.5678 40.4058C41.2946 40.4111 46.5338 36.2272 47.7874 30.6397C48.9767 25.3629 46.6946 19.8611 42.1249 17.0433C40.0785 15.779 37.8338 15.1469 35.4231 15.1361C33.2588 15.1308 31.0946 15.1361 28.9303 15.1361C28.6785 15.1361 28.4213 15.1361 28.1053 15.1361Z" fill="#CACACA"/>
<path d="M28.1374 39.0929C27.9713 38.7929 28.0784 38.4554 28.0784 38.1554C28.3088 37.9304 28.5552 38 28.7856 38C30.8642 37.9947 32.9427 38 35.0213 37.9947C39.7624 37.9893 43.7052 34.9518 44.9106 30.3768C46.4106 24.6982 42.5427 18.7893 36.7356 17.8947C34.2874 17.5143 31.8177 17.7768 29.3588 17.7018C28.957 17.6911 28.5552 17.7018 28.1642 17.7018C28.0088 17.3322 28.0463 17.0215 28.0999 16.7268C28.2284 16.5661 28.3838 16.5875 28.5338 16.5875C30.9552 16.5875 33.382 16.4857 35.7927 16.6304C40.3142 16.9036 43.6195 19.2232 45.4088 23.3215C47.3213 27.7036 46.6088 31.8714 43.4267 35.4875C41.4874 37.6947 38.9749 38.9 36.0338 39.1304C33.5534 39.3232 31.0677 39.1786 28.5874 39.2107C28.4374 39.2107 28.282 39.2215 28.1374 39.0875V39.0929Z" fill="#CACACA"/>
<path d="M20.9856 13.8935C21.3606 13.8238 21.6927 13.7863 22.057 13.9363V54.2703C21.7142 54.447 21.382 54.4363 20.9856 54.3238V13.8935Z" fill="#A7A7A7"/>
<path d="M24.4679 54.3237C24.0876 54.4416 23.7608 54.4362 23.4072 54.2702V13.9255C23.7501 13.7648 24.0822 13.8612 24.4679 13.8559V54.3237Z" fill="#A7A7A7"/>
<path d="M26.9162 54.2752C26.5733 54.3788 26.2198 54.3788 25.8555 54.2752V13.9467C26.193 13.7699 26.5251 13.8234 26.9162 13.8984V54.2752Z" fill="#A7A7A7"/>
<path d="M28.1322 36.2596C28.0251 35.8793 28.0412 35.5632 28.1001 35.2525C28.3144 35.0811 28.5608 35.1561 28.7858 35.1561C30.8215 35.1507 32.8572 35.1561 34.8876 35.1561C38.1822 35.1561 40.8233 33.3453 42.0179 30.2811C43.4858 26.515 41.1983 21.8757 37.3197 20.7561C36.4465 20.5043 35.5626 20.3918 34.6626 20.3918C32.7126 20.3918 30.7626 20.3918 28.8179 20.3918C28.609 20.3918 28.3947 20.3918 28.2019 20.3918C27.9554 19.9953 28.0519 19.6525 28.1269 19.3364C28.3894 19.1757 28.6304 19.2293 28.8608 19.2293C30.9608 19.2293 33.0608 19.2293 35.1554 19.2293C39.4251 19.2346 43.1054 22.5507 43.5608 26.7936C44.0376 31.2078 41.1929 35.1882 36.8697 36.1471C36.4358 36.2436 35.9804 36.2971 35.5358 36.3025C33.2001 36.3186 30.8644 36.3132 28.534 36.3078C28.4108 36.3078 28.2822 36.2811 28.1269 36.265L28.1322 36.2596Z" fill="#CACACA"/>
<path d="M80.6481 35.0378C77.4445 35.0271 74.932 32.4717 74.9642 29.2521C74.9963 25.8931 77.4713 23.4342 80.8142 23.4503C83.8517 23.461 86.332 26.086 86.316 29.2788C86.2999 32.4288 83.7285 35.0485 80.6481 35.0378Z" fill="#F8F8F8"/>
<path d="M132.275 27.3878H122.016C122.493 24.8271 124.909 23.3753 127.143 23.4235C129.72 23.4771 132.109 25.2825 132.275 27.3878Z" fill="#FDFDFD"/>
<path d="M108.007 35.0378C104.895 35.0539 102.318 32.4343 102.307 29.236C102.296 26.0968 104.788 23.4664 107.793 23.4503C111.109 23.4289 113.627 25.8611 113.643 29.0968C113.659 32.5093 111.28 35.0164 108.013 35.0378H108.007Z" fill="#F8F8F8"/>
</svg>
