<svg width="143" height="59" viewBox="0 0 143 59" fill="none" xmlns="http://www.w3.org/2000/svg">
<path d="M125.401 25.0303C133.866 13.4633 141.995 0.968811 141.995 0.968811C141.995 0.968811 126.989 14.7355 117.209 25.5568L103.732 9.2664H90.7512L110.646 33.3141C101.452 44.4932 92.945 58.2961 78.6287 58.2961C95.2268 58.2961 105.73 48.1483 114.257 39.038L119.311 32.6114C119.311 32.6114 115.022 38.3968 117.787 41.9449L127.882 54.1469H140.863L123.645 33.3349C121.376 30.4995 125.401 25.0288 125.401 25.0288V25.0303Z" fill="#404040"/>
<path d="M0.666748 17.5525H23.3121V22.2373H18.2051C18.2051 22.2373 14.5702 22.2373 14.5702 25.9355V45.8502H9.40937V26.3049C9.40937 22.2373 16.9333 22.2373 16.9333 22.2373H0.666748V17.5525Z" fill="#404040"/>
<path d="M39.1165 35.3939C39.1165 42.3215 34.3267 46.2775 28.9199 46.3237C23.5132 46.2775 18.7234 42.3431 18.7234 35.3939C18.7234 28.4447 23.624 24.4641 28.9199 24.4641C34.2159 24.4641 39.1165 28.4663 39.1165 35.3939ZM34.1294 35.3939C34.1294 31.3101 31.6222 28.9458 28.9199 28.9042C26.2177 28.9458 23.7105 31.2878 23.7105 35.3939C23.7105 39.7732 26.2792 41.852 28.9199 41.8867C31.5607 41.852 34.1294 39.774 34.1294 35.3939Z" fill="#404040"/>
<path d="M49.4873 25.0073V23.5442C49.4873 22.6791 50.168 21.9749 51.0164 21.9526C51.0301 21.9526 51.0839 21.9526 51.0968 21.9526C51.4664 21.9526 52.9742 21.9526 52.9742 21.9526V17.5663H51.0566C47.5857 17.5663 44.5723 19.5974 44.5723 22.6953V25.0065H41.0854V29.4336H52.975V25.0065H49.4873V25.0073Z" fill="#404040"/>
<path d="M44.5725 33.0177V45.8662H49.4875V33.0177C49.4875 29.4319 51.5288 29.4349 51.5288 29.4349C51.5288 29.4349 44.5725 29.4349 44.5725 33.0177Z" fill="#404040"/>
<path d="M57.8462 33.0177V45.8662H62.7612V33.0177C62.7612 29.4319 64.8017 29.4349 64.8017 29.4349C64.8017 29.4349 57.8462 29.4349 57.8462 33.0177Z" fill="#404040"/>
<path d="M62.7613 25.0073V23.5442C62.7613 22.6791 63.442 21.9749 64.2904 21.9526C64.3033 21.9526 64.3579 21.9526 64.3708 21.9526C64.7396 21.9526 66.2482 21.9526 66.2482 21.9526V17.5663H64.3298C60.8596 17.5663 57.8455 19.5974 57.8455 22.6953V25.0065H54.3586V29.4336H66.2482V25.0065H62.7605L62.7613 25.0073Z" fill="#404040"/>
<path d="M88.2772 36.8047H73.0374C73.5276 40.2219 75.8109 41.8559 78.1497 41.8867C79.7099 41.8659 81.245 41.1324 82.2398 39.6324H87.6572C86.1456 43.9132 82.3317 46.2891 78.1497 46.3245C72.7429 46.2783 67.9531 42.3438 67.9531 35.3947C67.9531 28.4455 72.8537 24.4649 78.1497 24.4649C83.4456 24.4649 88.3462 28.4671 88.3462 35.3947C88.3462 35.8796 88.3227 36.3498 88.2772 36.8055V36.8047ZM83.1026 32.9765C82.0858 30.3019 80.2752 28.9373 78.1489 28.9042C76.0204 28.9373 74.206 30.2935 73.1914 32.9765H83.1019H83.1026Z" fill="#404040"/>
<path d="M111.198 36.8047H95.9583C96.4485 40.2219 98.7318 41.8559 101.071 41.8867C102.631 41.8659 104.166 41.1324 105.161 39.6324H110.578C109.067 43.9132 105.253 46.2891 101.071 46.3245C95.6638 46.2783 90.874 42.3438 90.874 35.3947C90.874 28.4455 95.7746 24.4649 101.071 24.4649C106.367 24.4649 111.267 28.4671 111.267 35.3947C111.267 35.8796 111.244 36.3498 111.198 36.8055V36.8047ZM106.024 32.9765C105.007 30.3019 103.196 28.9373 101.07 28.9042C98.9413 28.9373 97.1269 30.2935 96.1123 32.9765H106.023H106.024Z" fill="#404040"/>
</svg>
