<svg width="141" height="65" viewBox="0 0 141 65" fill="none" xmlns="http://www.w3.org/2000/svg">
<path d="M0.0408543 32.5638C0.0408543 28.3387 0.0642565 24.1192 0.0291528 19.8941C0.00575027 17.2484 1.17587 15.2966 3.52783 13.9935C11.1746 9.74585 18.8214 5.5038 26.474 1.26739C28.7499 0.00943851 31.0609 -0.0300483 33.3485 1.23354C41.0654 5.49816 48.7824 9.76841 56.4935 14.0556C58.7694 15.3192 59.922 17.2484 59.922 19.7869C59.922 28.3048 59.922 36.8228 59.922 45.3407C59.922 47.8848 58.7928 49.8084 56.5111 51.0776C48.7999 55.3592 41.0888 59.6351 33.366 63.8941C31.0843 65.152 28.7674 65.1125 26.4915 63.8546C18.8389 59.6182 11.1921 55.3761 3.53953 51.1341C1.18173 49.8253 0.0116009 47.8848 0.0291528 45.2392C0.0584059 41.0141 0.0350046 36.7946 0.0350046 32.5694L0.0408543 32.5638Z" fill="#404040"/>
<path d="M66.3168 40.3816C66.3168 41.7806 66.2993 42.6888 66.3168 43.5914C66.3344 44.257 65.9717 44.3981 65.3632 44.4037C64.7021 44.4093 64.4388 44.1498 64.468 43.535C64.4856 43.1852 64.468 42.8299 64.468 42.4801C64.468 34.2442 64.4563 26.0083 64.4914 17.7724C64.4914 17.0955 63.8947 15.9052 65.4861 15.9842C66.8961 16.0519 66.2817 17.1237 66.2934 17.7386C66.3519 21.236 66.3227 24.7334 66.3227 28.2252C66.9312 28.3381 67.0131 27.9206 67.2178 27.6668C69.4177 24.9534 72.2435 23.5488 75.83 24.2257C79.4222 24.9027 81.78 27.114 82.9443 30.4196C84.1788 33.9283 83.9565 37.3975 81.9205 40.5791C78.5563 45.8534 71.6936 46.3273 67.4694 41.6678C67.1886 41.3632 66.9136 41.0529 66.311 40.376L66.3168 40.3816Z" fill="#404040"/>
<path d="M132.897 35.2251C130.779 35.2251 128.655 35.3322 126.549 35.1912C124.817 35.0727 124.788 35.8625 125.081 37.081C126.485 42.863 132.967 44.9163 137.741 41.1086C138.244 40.7025 138.636 39.5574 139.625 40.5727C140.713 41.684 139.362 42.0676 138.876 42.502C134.248 46.5917 127.046 45.3789 124.203 39.9748C122.103 35.981 122.29 31.9251 124.712 28.1004C126.479 25.3081 129.153 23.8697 132.61 24.0953C136.004 24.321 138.256 26.1317 139.66 29.0312C139.754 29.223 139.853 29.4092 139.935 29.6066C141.895 34.3958 141.334 35.2363 136.191 35.2363C135.097 35.2363 134.003 35.2363 132.903 35.2363L132.897 35.2251Z" fill="#404040"/>
<path d="M100.701 41.3746C97.6644 44.6125 94.3412 45.6843 90.4038 44.3982C87.5135 43.4561 85.9397 41.3408 85.9456 38.5654C85.9456 35.7279 87.4492 33.6633 90.3569 32.7043C93.2823 31.7454 96.2836 31.9259 99.2148 32.6028C100.724 32.9525 100.8 32.4336 100.701 31.2941C100.385 27.8305 98.1207 26.0536 94.0896 26.0818C92.3696 26.0931 90.7782 26.5161 89.2453 27.21C88.7539 27.43 88.3385 27.6725 88.0518 26.9392C87.8295 26.3695 87.6013 25.9182 88.397 25.5854C91.7962 24.1751 95.2773 23.5095 98.7526 25.1454C101.935 26.6459 102.579 29.5284 102.573 32.631C102.573 35.9367 102.608 39.2423 102.544 42.5423C102.532 43.2305 103.158 44.4264 101.619 44.4207C100.04 44.4207 100.964 43.1854 100.718 42.531C100.648 42.3449 100.707 42.1136 100.707 41.3746H100.701Z" fill="#404040"/>
<path d="M113.075 44.8162C111.01 44.7034 108.798 44.0603 106.821 42.7572C106.265 42.3905 105.44 42.1762 106.119 41.1777C106.786 40.1905 107.236 40.7998 107.845 41.1664C110.068 42.4921 112.414 43.3721 115.099 42.7741C116.942 42.3623 118.089 41.268 118.276 39.4572C118.452 37.731 117.317 36.6818 115.807 36.0895C113.988 35.3731 112.075 34.8823 110.249 34.1716C107.464 33.0885 106.341 31.4357 106.598 29.0551C106.85 26.6916 108.593 24.8582 111.209 24.3167C114.005 23.7357 116.544 24.5141 118.978 25.7946C119.639 26.1444 119.698 26.4998 119.318 27.1203C118.931 27.7464 118.598 27.8367 117.96 27.4362C116.392 26.4434 114.631 26.0034 112.771 25.9864C110.542 25.9695 108.775 27.1823 108.517 28.9085C108.219 30.9336 109.647 31.8249 111.273 32.4623C112.689 33.0151 114.181 33.3931 115.62 33.9064C119.212 35.1926 120.628 37.1275 120.119 39.9649C119.587 42.9377 116.919 44.8669 113.069 44.8218L113.075 44.8162Z" fill="#404040"/>
<path d="M41.1356 35.8134C41.1356 33.4273 41.0888 31.0355 41.159 28.6493C41.1883 27.5662 40.8606 27.0924 39.6847 27.1883C38.8188 27.2616 37.9178 27.098 37.0636 27.2221C35.127 27.5098 34.6297 26.8103 34.6531 24.9544C34.6765 23.2057 35.127 22.7262 36.9466 22.777C41.4632 22.9124 45.9916 22.9237 50.5025 22.777C52.5151 22.7093 52.1055 23.8657 52.0938 24.9206C52.0821 26.0262 52.5736 27.2673 50.4323 27.256C45.6991 27.2278 45.6991 27.3406 45.6991 32.0057C45.6991 35.6611 45.6055 39.3165 45.7342 42.9662C45.8044 44.9914 44.412 44.3709 43.4174 44.3652C42.4344 44.3596 40.9835 45.0139 41.1005 42.9775C41.2409 40.597 41.1356 38.1996 41.1298 35.8134H41.1356Z" fill="#F8F8F8"/>
<path d="M21.5303 31.0052C21.5303 33.1827 21.6122 35.3601 21.5127 37.5319C21.3781 40.4314 20.4011 42.9811 17.3529 44.1262C14.1058 45.3447 11.1045 44.7862 8.37221 42.6257C6.41225 41.0801 8.47167 40.4427 9.02748 39.4837C9.62424 38.457 10.2561 38.0847 11.2975 39.2016C12.3565 40.3355 13.8601 40.657 15.3052 39.997C16.6742 39.3709 16.7679 38.0227 16.762 36.7139C16.7562 32.6411 16.8849 28.5627 16.7093 24.5011C16.6099 22.2391 18.1018 22.8991 19.2602 22.8539C20.4303 22.8088 21.776 22.4252 21.5888 24.4786C21.3898 26.6391 21.5478 28.8278 21.5478 31.0052H21.5361H21.5303Z" fill="#F8F8F8"/>
<path d="M31.0375 33.7762C31.0375 36.7998 30.9966 39.8233 31.0609 42.8469C31.0843 43.9808 30.8269 44.4321 29.5105 44.4321C26.3804 44.4208 26.3804 44.4998 26.3804 41.4536C26.3804 35.8295 26.4799 30.1998 26.3278 24.5813C26.2751 22.7028 27.2288 22.7254 28.5568 22.8213C29.7387 22.9059 31.2247 22.2628 31.0902 24.5023C30.8971 27.5823 31.0434 30.6849 31.0434 33.7818L31.0375 33.7762Z" fill="#F8F8F8"/>
<path d="M66.2407 34.3973C66.2699 28.7394 71.1962 24.7342 76.2453 26.2573C80.0014 27.3911 82.3358 31.9717 81.464 36.5127C80.6625 40.6983 77.3159 43.4286 73.4486 43.045C69.2713 42.6332 66.2114 38.9665 66.2407 34.3973Z" fill="#F8F8F8"/>
<path d="M131.733 33.5005C129.913 33.5005 128.088 33.4272 126.274 33.5287C124.975 33.602 124.823 33.0831 125.016 32.0338C125.654 28.5533 128.696 25.8061 131.967 25.8174C135.284 25.8287 137.905 28.3277 138.613 31.9831C138.859 33.2523 138.449 33.5795 137.191 33.5174C135.377 33.4328 133.552 33.4949 131.733 33.4949V33.5005Z" fill="#F8F8F8"/>
<path d="M94.7625 33.783C95.7044 33.8845 96.6464 33.9635 97.5766 34.0876C101.005 34.5389 101.467 35.2327 100.543 38.4538C99.3552 42.6055 93.1185 44.5517 89.6198 41.8609C87.1274 39.943 87.3673 36.3158 90.1112 34.7476C91.5388 33.9297 93.1302 33.7773 94.7566 33.7773L94.7625 33.783Z" fill="#F8F8F8"/>
</svg>
