<svg width="442" height="80" viewBox="0 0 442 80" fill="none" xmlns="http://www.w3.org/2000/svg">
<path d="M49.8394 33.069H53.3919C53.419 35.1119 55.1411 36.4362 57.4733 36.4362C59.8055 36.4362 61.4778 35.5368 61.4778 33.6249C61.4778 32.2735 60.3659 31.6362 59.0642 31.4238L55.4574 30.8407C52.3569 30.339 50.3411 28.6938 50.3411 25.643C50.3411 22.2486 53.7851 19.8396 57.5004 19.8396C61.3964 19.8396 64.5783 22.1989 64.6326 25.6701H61.1343C61.0529 23.8667 59.4891 22.7549 57.4507 22.7549C55.5433 22.7549 53.767 23.6317 53.767 25.408C53.767 26.5469 54.6936 27.2882 56.045 27.5006L59.5433 28.0565C62.6168 28.5356 64.9264 30.2848 64.9264 33.4396C64.9264 37.1775 61.5591 39.3786 57.4235 39.3786C53.2879 39.3786 49.8439 36.9379 49.8439 33.069H49.8394Z" fill="white"/>
<path d="M70.7838 19.8396V23.2611H67.2041V19.8396H70.7838ZM70.6753 25.2227V39.008H67.3081V25.2227H70.6753Z" fill="white"/>
<path d="M72.4246 25.2228H76.2664L79.3127 29.729L82.2822 25.2228H85.9387L81.1929 32.007L85.9116 39.0036H82.1466L79.0958 34.3392L76.0991 39.0036H72.4426L77.2652 31.9798L72.4155 25.2183L72.4246 25.2228Z" fill="white"/>
<path d="M88.9126 35.1346V27.9527H86.2866V25.2228H88.9126V21.7245L92.2256 20.9019V25.2228H95.5657V27.9527H92.2256V34.66C92.2256 35.7222 92.9171 36.1697 93.9748 36.1697C94.6663 36.1697 95.168 36.0883 95.5928 35.9843V38.8454C94.8787 39.112 94.0832 39.1889 93.2877 39.1889C90.5036 39.1889 88.9126 37.7832 88.9126 35.1346Z" fill="white"/>
<path d="M101.216 19.8125V26.678C102.011 25.4848 103.629 24.8475 105.058 24.8475C108.081 24.8475 109.803 26.9673 109.803 29.8057V39.0035H106.49V30.4159C106.49 28.8249 105.776 27.8984 104.131 27.8984C102.142 27.8984 101.216 29.9413 101.216 31.6905V39.008H97.9028V19.817H101.216V19.8125Z" fill="white"/>
<path d="M49.8394 53.4893H53.3919C53.419 55.5322 55.1411 56.8565 57.4733 56.8565C59.8055 56.8565 61.4778 55.9571 61.4778 54.0452C61.4778 52.6938 60.3659 52.0565 59.0642 51.8441L55.4574 51.261C52.3569 50.7593 50.3411 49.1141 50.3411 46.0633C50.3411 42.6689 53.7851 40.2554 57.5004 40.2554C61.3964 40.2554 64.5783 42.6147 64.6326 46.0859H61.1343C61.0529 44.2825 59.4891 43.1706 57.4507 43.1706C55.5433 43.1706 53.767 44.0475 53.767 45.8237C53.767 46.9627 54.6936 47.704 56.045 47.9164L59.5433 48.4723C62.6168 48.9514 64.9264 50.7006 64.9264 53.8554C64.9264 57.5932 61.5591 59.7944 57.4235 59.7944C53.2879 59.7944 49.8439 57.3537 49.8439 53.4848L49.8394 53.4893Z" fill="white"/>
<path d="M68.6596 58.0995C67.2539 56.7752 66.5127 54.7865 66.5127 52.5311C66.5127 50.2757 67.2539 48.3413 68.6325 47.017C69.6946 45.982 71.1229 45.2678 73.0347 45.2678C77.0121 45.2678 79.3986 48.052 79.3986 52.1605C79.3986 52.6893 79.3715 53.1684 79.3172 53.4848H69.8257C69.8257 55.365 71.046 57.1684 73.1387 57.1684C74.6483 57.1684 75.6833 56.4 75.9229 55.3108H79.0234C78.6257 58.0136 76.1624 59.7899 73.1929 59.7899C71.2313 59.7899 69.7715 59.1255 68.6596 58.0949V58.0995ZM76.0856 51.0757C76.0856 49.0328 74.8924 47.8938 73.1161 47.8938C71.3398 47.8938 69.9884 49.191 69.8573 51.0757H76.0856Z" fill="white"/>
<path d="M81.8892 45.6431H84.7773L84.9355 47.4465C85.7581 45.964 87.453 45.2725 89.044 45.2725C91.9863 45.2725 93.7897 47.3154 93.7897 50.2035V59.4284H90.4767V50.9719C90.4767 49.3538 89.7084 48.3459 88.1717 48.3459C86.1061 48.3459 85.2022 50.1764 85.2022 52.3233V59.4284H81.8892V45.6431Z" fill="white"/>
<path d="M95.9684 54.9989H99.1503C99.1503 56.5356 100.371 57.2543 102.011 57.2543C103.39 57.2543 104.741 56.7254 104.741 55.4238C104.741 54.6825 104.24 54.1266 103.308 53.991L99.9955 53.539C97.7175 53.2226 96.3887 51.6317 96.3887 49.9322C96.3887 47.1209 98.9062 45.2678 102.007 45.2678C105.107 45.2678 107.521 47.0712 107.521 49.7198H104.366C104.366 48.4452 103.358 47.7582 102.007 47.7582C100.574 47.7582 99.5164 48.3413 99.5164 49.4531C99.5164 50.4339 100.366 50.7503 101.107 50.8588L104.05 51.2565C106.224 51.5503 107.815 53.0057 107.815 55.1797C107.815 58.2531 105.058 59.7944 101.903 59.7944C98.5627 59.7944 95.9639 57.9142 95.9639 54.9944L95.9684 54.9989Z" fill="white"/>
<path d="M111.236 58.0995C109.83 56.7752 109.089 54.7865 109.089 52.5311C109.089 50.2757 109.83 48.3413 111.209 47.017C112.271 45.982 113.699 45.2678 115.611 45.2678C119.588 45.2678 121.975 48.052 121.975 52.1605C121.975 52.6893 121.948 53.1684 121.893 53.4848H112.402C112.402 55.365 113.622 57.1684 115.715 57.1684C117.224 57.1684 118.259 56.4 118.499 55.3108H121.6C121.202 58.0136 118.739 59.7899 115.769 59.7899C113.808 59.7899 112.348 59.1255 111.236 58.0949V58.0995ZM118.657 51.0757C118.657 49.0328 117.464 47.8938 115.688 47.8938C113.911 47.8938 112.56 49.191 112.429 51.0757H118.657Z" fill="white"/>
<path d="M34.8475 19.8125C37.6091 19.8125 39.8464 22.0498 39.8464 24.8114C39.8464 27.573 37.6091 29.8102 34.8475 29.8102C32.0859 29.8102 29.8486 27.573 29.8486 24.8114C29.8486 22.0498 32.0859 19.8125 34.8475 19.8125Z" fill="#0097BA"/>
<path d="M34.8475 34.8091C37.6091 34.8091 39.8464 37.0464 39.8464 39.808C39.8464 42.5695 37.6091 44.8068 34.8475 44.8068C32.0859 44.8068 29.8486 42.5695 29.8486 39.808C29.8486 37.0464 32.0859 34.8091 34.8475 34.8091Z" fill="white"/>
<path d="M19.8509 34.8091C22.6125 34.8091 24.8498 37.0464 24.8498 39.808C24.8498 42.5695 22.6125 44.8068 19.8509 44.8068C17.0893 44.8068 14.8521 42.5695 14.8521 39.808C14.8521 37.0464 17.0893 34.8091 19.8509 34.8091Z" fill="white"/>
<path d="M19.8509 49.8013C22.6125 49.8013 24.8498 52.0386 24.8498 54.8001C24.8498 57.5617 22.6125 59.799 19.8509 59.799C17.0893 59.799 14.8521 57.5617 14.8521 54.8001C14.8521 52.0386 17.0893 49.8013 19.8509 49.8013Z" fill="white"/>
<path d="M4.85873 49.8013C7.62032 49.8013 9.8576 52.0386 9.8576 54.8001C9.8576 57.5617 7.62032 59.799 4.85873 59.799C2.09715 59.799 -0.140137 57.5617 -0.140137 54.8001C-0.140137 52.0386 2.09715 49.8013 4.85873 49.8013Z" fill="white"/>
<path d="M34.8475 49.8013C37.6091 49.8013 39.8464 52.0386 39.8464 54.8001C39.8464 57.5617 37.6091 59.799 34.8475 59.799C32.0859 59.799 29.8486 57.5617 29.8486 54.8001C29.8486 52.0386 32.0859 49.8013 34.8475 49.8013Z" fill="white"/>
<path d="M152.019 26.0973V-0.117432" stroke="white" stroke-width="1.01695" stroke-miterlimit="10"/>
<path d="M142.975 34.0972H147.567C149.497 34.0972 150.925 35.2226 150.925 36.9943C150.925 38.0701 150.356 39.1006 149.312 39.4802C150.469 39.8599 151.178 40.9989 151.178 42.1876C151.178 44.1039 149.673 45.3243 147.585 45.3243H142.98V34.0972H142.975ZM147.472 38.8791C148.643 38.8791 149.484 38.3232 149.484 37.1073C149.484 35.8915 148.566 35.3491 147.459 35.3491H144.354V38.8791H147.472ZM147.504 44.0226C148.738 44.0226 149.737 43.4215 149.737 42.0881C149.737 40.8361 148.756 40.1085 147.504 40.1085H144.354V44.0181H147.504V44.0226Z" fill="white"/>
<path d="M152.101 34.0972H153.683L156.629 39.4034L159.558 34.0972H161.063L157.294 40.7322V45.3243H155.87V40.7322L152.101 34.0972Z" fill="white"/>
<path d="M152.019 79.729V53.3245" stroke="white" stroke-width="1.01695" stroke-miterlimit="10"/>
<path d="M182.063 59.7967H205.15L199.379 49.8035L182.063 59.7967Z" fill="#77C2D4"/>
<path d="M228.233 59.7966L251.315 19.8147L216.689 39.8057V59.7966H228.233Z" fill="#77C2D4"/>
<path d="M216.689 79.7921L251.32 59.7966H228.233L216.689 79.7921Z" fill="#BAD97A"/>
<path d="M199.379 49.8035L216.689 39.8058V-0.180664L193.607 39.8058L199.379 49.8035Z" fill="#BAD97A"/>
<path d="M205.15 59.7966L216.689 79.7921V59.7966H205.15Z" fill="#BAD97A"/>
<path d="M182.063 19.8103V59.7967L193.607 39.8058L182.063 19.8103Z" fill="#77C2D4"/>
<path d="M251.315 19.8147L228.233 59.7966H251.32V19.8147H251.315Z" fill="#0098BA"/>
<path d="M216.69 39.8057L199.379 49.8034L205.151 59.7966H216.69V39.8057Z" fill="#0098BA"/>
<path d="M216.689 -0.180664L182.063 19.8103L193.607 39.8058L216.689 -0.180664Z" fill="#0098BA"/>
<path d="M287.067 53.4193V41.5549H275.894V53.4193H270.94V26.1921H275.894V36.8317H287.067V26.1921H292.021V53.4193H287.067Z" fill="white"/>
<path d="M297.191 53.4193V26.1921H315.772V30.6848H302.136V37.026H314.041V41.478H302.136V48.9266H315.767V53.4193H297.187H297.191Z" fill="white"/>
<path d="M335.786 53.4193L329.689 43.5164L323.578 53.4193H318.245L326.801 39.5571L318.317 26.1921H323.727L329.833 35.7243L335.75 26.1921H341.128L332.758 39.5978L341.237 53.4193H335.786Z" fill="white"/>
<path d="M360.889 53.4193L359.121 48.1989H348.296L346.534 53.4193H341.544L351.103 26.1921H356.513L366.073 53.4193H360.893H360.889ZM353.707 32.2622L349.829 43.7469H357.58L353.702 32.2622H353.707Z" fill="white"/>
<path d="M388.382 53.4194L385.512 50.4228C384.703 52.0002 382.095 53.8849 378.674 53.9211C375.533 53.9617 372.721 53.1527 370.57 50.8838C367.736 47.9278 367.04 44.2804 367.04 39.8284C367.04 35.3764 367.619 31.842 370.575 28.886C372.649 26.8115 375.759 25.6951 378.674 25.6951C382.019 25.6951 384.893 26.929 386.737 28.8092C388.084 30.1877 389.078 31.9188 389.232 34.3007H384.161C384.084 33.2205 383.555 32.4973 382.972 31.8013C382.014 30.6849 380.518 30.1516 378.638 30.1516C377.06 30.1516 375.248 30.8431 374.177 31.9911C372.301 33.9482 372.071 37.3335 372.071 39.8239C372.071 42.3143 372.337 45.8126 374.217 47.7742C375.298 48.9222 377.06 49.5007 378.638 49.5007C380.401 49.5007 381.784 48.886 382.706 47.9233C384.156 46.3866 384.468 44.7007 384.468 42.6216H377.978V38.5086H389.268V53.4103H388.378L388.382 53.4194Z" fill="white"/>
<path d="M412.382 50.843C410.308 52.9176 407.469 53.9164 404.55 53.9164C401.63 53.9164 398.796 52.9176 396.717 50.843C393.761 47.8825 393.259 44.2757 393.259 39.8238C393.259 35.3718 393.756 31.7198 396.717 28.7639C398.791 26.6893 401.639 25.6904 404.55 25.6904C407.46 25.6904 410.308 26.6938 412.382 28.7639C415.338 31.7198 415.84 35.3673 415.84 39.8238C415.84 44.2803 415.338 47.887 412.382 50.843ZM408.857 31.991C407.781 30.843 406.123 30.1876 404.55 30.1876C402.977 30.1876 401.323 30.843 400.251 31.991C398.376 33.9481 398.29 37.3334 398.29 39.8238C398.29 42.3142 398.376 45.6588 400.251 47.6204C401.323 48.7774 402.981 49.4238 404.55 49.4238C406.118 49.4238 407.781 48.7729 408.857 47.6204C410.733 45.6633 410.814 42.3187 410.814 39.8238C410.814 37.3288 410.733 33.9481 408.857 31.991Z" fill="white"/>
<path d="M436.287 53.4193L424.5 34.721V53.4193H419.623V26.1921H424.88L436.513 44.6238V26.1921H441.39V53.4193H436.287Z" fill="white"/>
</svg>
