<svg width="157" height="41" viewBox="0 0 157 41" fill="none" xmlns="http://www.w3.org/2000/svg">
<path d="M145.914 27.6317C145.177 26.3022 144.942 24.7903 144.486 23.3696C143.468 20.1863 142.579 16.965 141.607 13.7665C141.424 13.1588 141.417 12.4826 140.991 11.9584C140.794 13.2955 140.938 14.6402 140.908 15.985C140.885 17.0942 140.908 18.2034 140.908 19.3126V28.6725C140.847 29.9489 141.037 31.2404 140.809 32.5168L140.824 32.532C139.548 32.6763 138.271 32.6763 136.995 32.532H137.003C136.782 31.6735 136.965 30.8074 136.904 29.9565V5.62979C136.949 4.1635 136.82 2.68962 136.972 1.22333C138.385 1.09418 139.791 1.09418 141.204 1.22333C142.412 5.23473 143.62 9.25372 144.82 13.2727C145.451 15.4 146.059 17.5348 146.682 19.6697C146.72 19.8064 146.834 19.9204 146.963 20.1331C147.358 18.8644 147.745 17.664 148.102 16.4484C149.044 13.2727 149.964 10.0894 150.913 6.92134C151.483 5.0296 152.091 3.14546 152.683 1.26132C154.013 1.07898 155.343 1.10937 156.672 1.24612C156.847 2.58325 156.71 3.92798 156.756 5.26512V24.0002C156.756 26.5529 156.756 29.1056 156.756 31.6507C156.756 31.947 156.839 32.2509 156.665 32.532C155.388 32.6915 154.104 32.6535 152.82 32.5548C152.646 30.8606 152.79 29.1588 152.744 27.4569V17.9755C152.79 16.0306 152.653 14.0856 152.813 12.1483C152.387 11.8444 152.372 12.1711 152.288 12.4674C150.83 17.4133 149.371 22.3515 147.905 27.2898C147.874 27.3962 147.791 27.4949 147.73 27.5937C147.13 27.814 146.522 27.7153 145.922 27.6469L145.914 27.6317Z" fill="white"/>
<path d="M83.6161 25.2614C83.6161 22.2148 83.6161 19.1607 83.6161 16.1142C83.6161 15.7495 83.6009 15.3848 83.768 15.0505C83.92 15.1949 83.882 15.3848 83.882 15.5596C83.882 18.5529 83.882 21.5387 83.882 24.532C83.882 24.6536 83.8668 24.7751 83.8212 24.8891C83.7756 25.0334 83.806 25.2082 83.6161 25.269V25.2614Z" fill="white"/>
<path d="M83.8134 24.8814C83.7982 21.607 83.7754 18.3249 83.7603 15.0505L83.821 15.0732C83.859 14.9441 83.9046 14.9365 83.9654 15.058C83.9654 17.9754 83.9654 20.9004 83.9654 23.8178C83.9654 24.1749 83.9882 24.5395 83.8134 24.8814Z" fill="white"/>
<path d="M136.957 15.2405C136.957 18.4542 136.957 21.6678 136.957 24.8815C136.919 24.8815 136.873 24.8815 136.835 24.8815C136.835 21.6678 136.835 18.4542 136.835 15.2405C136.851 15.1949 136.873 15.1569 136.889 15.1113C136.911 15.1493 136.934 15.1873 136.957 15.2253V15.2405Z" fill="#B2B2B2"/>
<path d="M136.957 15.2406C136.912 15.2406 136.874 15.2406 136.828 15.2482C136.828 12.0345 136.828 8.82083 136.828 5.60715C136.851 5.56917 136.866 5.52358 136.889 5.4856C136.912 5.52358 136.934 5.56157 136.957 5.59956C136.957 8.81323 136.957 12.0269 136.957 15.2406Z" fill="#C1C1C1"/>
<path d="M90.3777 29.6147C90.3777 26.4086 90.3777 23.2026 90.3701 19.9889C90.4309 19.8825 90.4917 19.8749 90.5525 19.9889C90.5373 23.195 90.5221 26.4011 90.4993 29.6071C90.4613 29.6071 90.4157 29.6071 90.3777 29.6071V29.6147Z" fill="#909090"/>
<path d="M17.8079 11.5936C17.8079 14.7465 17.8079 17.8994 17.8079 21.0523C17.7699 21.1663 17.7319 21.1663 17.6787 21.0523C17.6787 17.8994 17.6787 14.7465 17.6787 11.5936C17.7167 11.4873 17.7547 11.4797 17.8003 11.5936H17.8079Z" fill="#4E4E4E"/>
<path d="M51.6919 9.59573C51.6919 12.7486 51.6919 15.9015 51.6919 19.0544C51.6539 19.0544 51.6083 19.0544 51.5703 19.0544C51.5703 15.9015 51.5703 12.7486 51.5703 9.59573C51.6083 9.59573 51.6539 9.59573 51.6919 9.58813V9.59573Z" fill="white"/>
<path d="M85.979 26.1578C85.979 23.0049 85.979 19.852 85.979 16.6991C86.0322 16.6839 86.093 16.6687 86.1461 16.6611C86.2221 16.7523 86.2601 16.8587 86.2525 16.9802C86.2525 19.776 86.2525 22.5719 86.2525 25.3677C86.2525 25.6336 86.2981 25.9071 86.1917 26.173L86.131 26.1578C86.093 26.287 86.0474 26.2946 85.979 26.173V26.1578Z" fill="#ECECEC"/>
<path d="M140.839 28.7028C140.839 25.5499 140.839 22.397 140.839 19.2441C140.877 19.2441 140.923 19.2441 140.961 19.2441C140.961 22.397 140.961 25.5499 140.961 28.7028C140.923 28.7028 140.877 28.7028 140.839 28.7028Z" fill="#7D7D7D"/>
<path d="M86.3285 7.23282C86.3285 10.3857 86.3285 13.5386 86.3285 16.6915C86.2753 16.8207 86.2222 16.8207 86.1842 16.6915L86.1234 16.7067C86.0246 15.1265 86.0246 13.5462 86.1234 11.9736C86.1462 10.3933 86.1614 8.82067 86.1842 7.24042C86.2298 7.11127 86.2753 7.11127 86.3285 7.24042V7.23282Z" fill="#181818"/>
<path d="M69.1811 11.2365C69.1811 14.3287 69.1811 17.4208 69.1811 20.5129C69.1431 20.5129 69.0976 20.5129 69.0596 20.5129C69.0596 17.4208 69.0596 14.3287 69.0596 11.2365C69.0824 11.1986 69.0976 11.153 69.1204 11.115C69.1431 11.153 69.1659 11.191 69.1887 11.2365H69.1811Z" fill="#B8B8B8"/>
<path d="M156.695 14.5112C156.695 11.4191 156.695 8.32698 156.695 5.23486C156.733 5.23486 156.778 5.23486 156.816 5.23486C156.816 8.32698 156.816 11.4191 156.816 14.5112C156.778 14.5112 156.733 14.5112 156.695 14.5112Z" fill="#747474"/>
<path d="M117.523 21.7895C117.523 18.7581 117.523 15.7268 117.523 12.6954C117.561 12.5891 117.599 12.5815 117.652 12.6954C117.652 15.7268 117.652 18.7581 117.652 21.7895C117.614 21.7895 117.569 21.7895 117.531 21.7895H117.523Z" fill="#505050"/>
<path d="M119.848 17.421C119.848 20.1636 119.855 22.8987 119.855 25.6413C119.855 25.9452 119.87 26.2491 119.711 26.5226C119.711 23.4913 119.711 20.4599 119.711 17.4286C119.757 17.3222 119.802 17.3146 119.848 17.4286V17.421Z" fill="#232323"/>
<path d="M156.657 32.5167C156.672 29.6677 156.68 26.8187 156.695 23.9697C156.733 23.9697 156.779 23.9697 156.817 23.9697C156.824 26.5984 156.832 29.2195 156.84 31.8482C156.84 32.0837 156.885 32.342 156.665 32.5167H156.657Z" fill="#929292"/>
<path d="M51.6919 9.59555C51.6539 9.59555 51.6084 9.59555 51.5704 9.60315C51.5704 6.75415 51.5628 3.91274 51.5552 1.06374C51.616 0.972569 51.6767 0.972569 51.7375 1.06374C51.7223 3.90514 51.7071 6.75415 51.6919 9.59555Z" fill="white"/>
<path d="M51.6995 23.9698C51.6995 26.4693 51.7147 28.9689 51.7147 31.4684C51.7147 31.7039 51.6235 31.9318 51.5703 32.1674C51.5703 29.4399 51.5703 26.7049 51.5703 23.9774C51.6083 23.8711 51.6463 23.8635 51.6919 23.9774L51.6995 23.9698Z" fill="#444444"/>
<path d="M134.458 15.6051C134.458 12.87 134.45 10.135 134.442 7.39233C134.655 7.53668 134.61 7.7646 134.61 7.96973C134.61 10.5148 134.594 13.0524 134.579 15.5975C134.541 15.7114 134.496 15.7038 134.45 15.5975L134.458 15.6051Z" fill="white"/>
<path d="M1.08636 32.3118C3.75303 32.327 6.42729 32.3497 9.09396 32.3649C8.54695 32.6232 7.96195 32.5093 7.39215 32.5169C5.57639 32.5245 3.76062 32.5169 1.95246 32.5169C1.59538 32.5169 1.22311 32.5777 0.911621 32.3194C0.964802 32.2282 1.02558 32.2282 1.08636 32.3194V32.3118Z" fill="#C4C4C4"/>
<path d="M1.08623 1.06387C1.07104 3.60898 1.05584 6.14649 1.04825 8.6916C1.01026 8.6916 0.964675 8.6916 0.926689 8.6916C0.911494 6.28324 0.903897 3.86729 0.896299 1.45893C0.896299 1.2538 0.850715 1.02588 1.07864 0.896729C1.20019 0.94991 1.20019 1.01069 1.07864 1.07147L1.08623 1.06387Z" fill="#828282"/>
<path d="M55.7566 27.4341C55.7566 25.1473 55.7414 22.8605 55.7414 20.5737C55.7414 20.3078 55.7186 20.0267 55.9314 19.8064C56.0529 19.8672 56.0529 19.928 55.9314 19.9887C55.9162 22.4655 55.901 24.9498 55.8858 27.4265C55.8478 27.5329 55.8022 27.5405 55.7566 27.4265V27.4341Z" fill="white"/>
<path d="M69.242 32.3269C71.3693 32.3269 73.5042 32.3345 75.6314 32.3497C75.9885 32.3497 76.3532 32.2965 76.6874 32.494C74.2031 32.494 71.7264 32.494 69.242 32.494C69.1205 32.4409 69.1205 32.3801 69.242 32.3269Z" fill="#3C3C3C"/>
<path d="M140.969 19.2368C140.931 19.2368 140.885 19.2368 140.847 19.2368C140.839 16.9196 140.824 14.6024 140.824 12.2852C140.824 12.1561 140.756 11.9661 140.999 11.9509C140.991 14.3745 140.984 16.8056 140.969 19.2292V19.2368Z" fill="#707070"/>
<path d="M32.4326 14.6934C32.4326 12.2622 32.4326 9.82348 32.4326 7.39233C32.6226 7.50629 32.5998 7.70383 32.5998 7.87856C32.5922 10.1502 32.5846 12.4218 32.5694 14.6934C32.5314 14.7997 32.4858 14.8073 32.4402 14.6934H32.4326Z" fill="white"/>
<path d="M93.4472 1.01826C91.0768 1.03346 88.7141 1.05625 86.3437 1.07144C86.2829 1.15501 86.2221 1.15501 86.1689 1.07144C86.3665 1.00307 86.564 0.881509 86.7615 0.881509C88.8128 0.866314 90.8717 0.881509 92.923 0.881509C93.0977 0.881509 93.2725 0.96508 93.4472 1.01826Z" fill="#DCDCDC"/>
<path d="M102.906 19.0543C102.906 21.098 102.906 23.1417 102.913 25.1854C102.913 25.5121 102.921 25.8464 102.761 26.1579C102.739 26.0363 102.723 25.9147 102.701 25.7932C102.602 25.0638 102.602 24.3421 102.701 23.6128C102.723 22.0933 102.739 20.5814 102.761 19.0619C102.799 18.9556 102.852 18.948 102.906 19.0543Z" fill="#171717"/>
<path d="M83.9654 15.058C83.9198 15.058 83.8666 15.0656 83.821 15.0732C83.7982 12.7104 83.783 10.3477 83.7603 7.97729C84.0262 8.31918 83.973 8.72183 83.973 9.1017C83.973 11.0846 83.973 13.0675 83.973 15.0504L83.9654 15.058Z" fill="#E1E1E1"/>
<path d="M69.2421 32.3269C69.2421 32.38 69.2421 32.4408 69.2421 32.494C68.9914 32.2965 69.0294 32.0078 69.0294 31.7419C69.0294 29.6374 69.0446 27.5329 69.0598 25.4285C69.0978 25.4285 69.1434 25.4285 69.1813 25.4285C69.2041 27.7305 69.2193 30.0325 69.2421 32.3269Z" fill="#A4A4A4"/>
<path d="M85.9791 26.1578C86.0323 26.1578 86.0779 26.1502 86.1311 26.1426C86.1539 28.2091 86.1691 30.2679 86.1919 32.3344C86.2526 32.3724 86.2754 32.418 86.2526 32.456C86.2298 32.494 86.207 32.5091 86.1843 32.5091C85.9184 32.1673 85.9791 31.7646 85.9791 31.3847C85.9791 29.645 85.9791 27.9052 85.9791 26.1578Z" fill="#E2E2E2"/>
<path d="M32.4253 25.626C32.4253 23.5595 32.4253 21.493 32.4329 19.4265C32.4709 19.3126 32.5089 19.3126 32.562 19.4265C32.5696 21.3335 32.5772 23.2404 32.5848 25.1473C32.5848 25.3221 32.6076 25.5196 32.4253 25.6336V25.626Z" fill="white"/>
<path d="M86.1689 1.07145C86.2297 1.05626 86.2905 1.05626 86.3437 1.07145C86.3437 3.12274 86.3361 5.17402 86.3285 7.2253C86.2829 7.2253 86.2297 7.2253 86.1841 7.2253C86.1841 5.17402 86.1689 3.11514 86.1689 1.06386V1.07145Z" fill="#222222"/>
<path d="M152.813 12.1331C152.813 14.078 152.813 16.0229 152.805 17.9678C152.767 17.9678 152.721 17.9678 152.683 17.9678C152.683 16.2508 152.668 14.5338 152.661 12.8168C152.661 12.5813 152.638 12.3306 152.813 12.1255V12.1331Z" fill="#8A8A8A"/>
<path d="M38.6172 25.4513C38.9211 25.1626 39.3009 25.2386 39.6504 25.2538C41.1851 25.3221 42.7273 25.0638 44.2544 25.4057C42.3779 25.4209 40.4937 25.4361 38.6172 25.4513Z" fill="white"/>
<path d="M134.45 25.9906C134.45 24.1673 134.45 22.3439 134.458 20.5205C134.496 20.4066 134.541 20.4066 134.587 20.5205C134.595 22.1843 134.602 23.8406 134.61 25.5044C134.61 25.6791 134.617 25.8691 134.45 25.9982V25.9906Z" fill="#4F4F4F"/>
<path d="M8.56205 1.0334C6.79946 1.0334 5.02928 1.0334 3.2667 1.0258C3.18313 1.00301 3.16034 0.972622 3.18313 0.942232C3.20592 0.911843 3.23631 0.896648 3.2591 0.896648C4.83175 0.889051 6.4044 0.873856 7.97705 0.873856C8.18218 0.873856 8.4101 0.843467 8.56205 1.0334Z" fill="#5B5B5B"/>
<path d="M69.2193 1.05618L69.1813 6.32874C69.1433 6.4351 69.0977 6.4427 69.0521 6.32874C69.0521 4.85485 69.0369 3.38857 69.0293 1.91468C69.0293 1.61838 69.0217 1.30689 69.2117 1.04858L69.2193 1.05618Z" fill="#CACACA"/>
<path d="M117.645 12.6877C117.599 12.6877 117.561 12.6877 117.516 12.6877C117.516 10.9251 117.508 9.15492 117.5 7.39233C117.842 8.07609 117.637 8.80544 117.66 9.51199C117.69 10.568 117.652 11.6241 117.637 12.6801L117.645 12.6877Z" fill="#454545"/>
<path d="M152.805 27.4265C152.82 29.1207 152.836 30.8149 152.851 32.5091C152.79 32.6003 152.729 32.6003 152.668 32.5091C152.668 30.8149 152.676 29.1207 152.684 27.4265C152.722 27.4265 152.767 27.4265 152.805 27.4265Z" fill="#717171"/>
<path d="M136.835 24.8816C136.873 24.8816 136.919 24.8816 136.957 24.8816C136.957 26.5758 136.957 28.2776 136.957 29.9718C136.919 29.9718 136.873 29.9718 136.835 29.9718C136.835 28.2776 136.835 26.5758 136.835 24.8816Z" fill="#A8A8A8"/>
<path d="M17.6865 21.0601C17.7321 21.0601 17.7701 21.0601 17.8157 21.0601C17.7853 22.7619 18.0056 24.4713 17.6941 26.1655C17.6941 24.4637 17.6941 22.7695 17.6941 21.0677L17.6865 21.0601Z" fill="white"/>
<path d="M74.3171 1.01826C72.6152 1.03346 70.921 1.04865 69.2192 1.05625C69.9562 0.676382 70.7539 0.904302 71.5212 0.873913C72.4481 0.835926 73.3826 0.873913 74.3171 0.88151C74.355 0.904302 74.4006 0.919497 74.4386 0.942289C74.4006 0.965081 74.3626 0.987873 74.3171 1.01066V1.01826Z" fill="#C2C2C2"/>
<path d="M55.7566 27.4341C55.8022 27.4341 55.8402 27.4341 55.8858 27.4341C55.8934 28.9156 55.9086 30.397 55.9162 31.8785C55.9162 32.0533 55.9542 32.2508 55.749 32.3572C55.749 30.7161 55.7566 29.0827 55.7642 27.4417L55.7566 27.4341Z" fill="white"/>
<path d="M51.6997 23.9699C51.6617 23.9699 51.6161 23.9699 51.5781 23.9699C51.5781 22.3365 51.5781 20.6954 51.5781 19.062C51.6161 19.062 51.6617 19.062 51.6997 19.062C51.6997 20.703 51.6997 22.3365 51.6997 23.9775V23.9699Z" fill="#4E4E4E"/>
<path d="M119.848 17.421C119.802 17.421 119.757 17.421 119.711 17.421C119.711 15.78 119.711 14.1465 119.711 12.5055C119.757 12.3915 119.802 12.3991 119.848 12.5055C119.848 14.1389 119.848 15.78 119.848 17.4134V17.421Z" fill="#2C2C2C"/>
<path d="M134.587 20.5131C134.541 20.5131 134.503 20.5131 134.458 20.5131C134.458 18.8797 134.458 17.2387 134.458 15.6052C134.503 15.6052 134.541 15.6052 134.587 15.6052C134.587 17.2463 134.587 18.8797 134.587 20.5207V20.5131Z" fill="#474747"/>
<path d="M119.848 12.5053C119.802 12.5053 119.757 12.5053 119.711 12.5053C119.711 10.8643 119.711 9.23087 119.711 7.58984C120.03 9.22327 119.795 10.8643 119.848 12.5053Z" fill="white"/>
<path d="M102.906 19.0543C102.86 19.0543 102.807 19.0543 102.761 19.0619C102.761 17.4284 102.761 15.7874 102.761 14.154C102.799 14.0248 102.845 14.0248 102.898 14.154C102.898 15.7874 102.898 17.4284 102.898 19.0619L102.906 19.0543Z" fill="#262626"/>
<path d="M69.1811 25.4284C69.1431 25.4284 69.0976 25.4284 69.0596 25.4284C69.0596 23.795 69.0596 22.1539 69.0596 20.5205C69.0976 20.5205 69.1431 20.5205 69.1811 20.5205C69.1811 22.1615 69.1811 23.795 69.1811 25.436V25.4284Z" fill="#AEAEAE"/>
<path d="M69.0522 6.32889C69.0978 6.32889 69.1358 6.32889 69.1814 6.32889C69.1814 7.96231 69.1814 9.60334 69.1814 11.2368C69.1358 11.2368 69.0978 11.2368 69.0522 11.2368C69.0522 9.59574 69.0522 7.96231 69.0522 6.32129V6.32889Z" fill="#C3C3C3"/>
<path d="M156.695 14.5112C156.733 14.5112 156.778 14.5112 156.816 14.5112C156.816 16.0915 156.816 17.6641 156.816 19.2444C156.778 19.2444 156.733 19.2444 156.695 19.2444C156.695 17.6717 156.695 16.0915 156.695 14.5188V14.5112Z" fill="#7F7F7F"/>
<path d="M86.1233 11.9661C86.1233 13.5463 86.1233 15.1266 86.1233 16.6992C86.0777 16.6992 86.0245 16.6992 85.979 16.6992C86.0549 15.1266 85.7966 13.5387 86.1233 11.9661Z" fill="#F5F5F5"/>
<path d="M0.926758 8.69165C0.964745 8.69165 1.01033 8.69165 1.04832 8.69165C1.04832 10.2643 1.04832 11.8445 1.04832 13.4172C1.01033 13.4172 0.964745 13.4172 0.926758 13.4248C0.926758 11.8445 0.926758 10.2719 0.926758 8.69165Z" fill="#787878"/>
<path d="M152.805 27.4265C152.767 27.4265 152.722 27.4265 152.684 27.4265C152.684 25.8463 152.684 24.2736 152.684 22.6934C152.722 22.6934 152.767 22.6934 152.805 22.6934C152.805 24.266 152.805 25.8463 152.805 27.4189V27.4265Z" fill="#7A7A7A"/>
<path d="M1.04837 22.8758C1.04837 24.4561 1.04837 26.0287 1.04837 27.609C1.02558 27.6546 1.01039 27.6925 0.987594 27.7381C0.964802 27.7001 0.94201 27.6546 0.911621 27.6166C0.911621 26.0363 0.911621 24.4637 0.911621 22.8834C0.949608 22.7771 0.987595 22.7695 1.03318 22.8834L1.04837 22.8758Z" fill="#4C4C4C"/>
<path d="M32.5618 19.4189C32.5162 19.4189 32.4782 19.4189 32.4326 19.4189C32.4326 17.8387 32.4326 16.266 32.4326 14.6858C32.4782 14.6858 32.5238 14.6858 32.5618 14.6858C32.5618 16.266 32.5618 17.8387 32.5618 19.4189Z" fill="white"/>
<path d="M156.695 19.2442C156.733 19.2442 156.778 19.2442 156.816 19.2442C156.816 20.8168 156.816 22.3971 156.816 23.9697C156.778 23.9697 156.733 23.9697 156.695 23.9697C156.695 22.3895 156.695 20.8168 156.695 19.2366V19.2442Z" fill="#878787"/>
<path d="M1.04832 22.8757C1.01033 22.8757 0.964745 22.8757 0.926758 22.8757C0.926758 21.3031 0.926758 19.7228 0.926758 18.1502C0.964745 18.1502 1.01033 18.1502 1.04832 18.1426C1.04832 19.7228 1.04832 21.2955 1.04832 22.8757Z" fill="#5A5A5A"/>
<path d="M152.805 22.6933C152.767 22.6933 152.722 22.6933 152.684 22.6933C152.684 21.1131 152.684 19.5405 152.684 17.9602C152.722 17.9602 152.767 17.9602 152.805 17.9602C152.805 19.5405 152.805 21.1131 152.805 22.6933Z" fill="#818181"/>
<path d="M0.926601 27.6089C0.972185 27.6089 1.01017 27.6089 1.05576 27.6013C1.06335 29.174 1.07855 30.739 1.08614 32.3117L0.994977 32.3269H0.903809C0.903809 30.7618 0.919003 29.1892 0.919003 27.6241L0.926601 27.6089Z" fill="white"/>
<path d="M1.04832 18.1426C1.01033 18.1426 0.964745 18.1426 0.926758 18.1502C0.926758 16.5699 0.926758 14.9973 0.926758 13.417C0.964745 13.417 1.01033 13.417 1.04832 13.4094C1.04832 14.9897 1.04832 16.5623 1.04832 18.1426Z" fill="#696969"/>
<path d="M102.906 14.1464C102.86 14.1464 102.815 14.1464 102.769 14.1464C102.769 12.5662 102.769 10.9935 102.769 9.41326C102.807 9.3069 102.853 9.2993 102.898 9.40566C102.898 10.9859 102.898 12.5586 102.898 14.1388L102.906 14.1464Z" fill="white"/>
<path d="M136.957 5.59933C136.911 5.59933 136.873 5.59933 136.828 5.59933C136.828 4.36856 136.813 3.14539 136.805 1.91462C136.805 1.61833 136.79 1.30684 137.01 1.06372C137.078 1.10171 137.101 1.13969 137.078 1.17768C137.056 1.21567 137.033 1.23846 137.01 1.23846C136.987 2.68955 136.972 4.14064 136.949 5.59174L136.957 5.59933Z" fill="#CBCBCB"/>
<path d="M45.5537 32.3193C47.058 32.3193 48.5547 32.3193 50.0589 32.3193C48.9725 32.7448 47.8405 32.4333 46.7313 32.5017C46.3514 32.5245 45.8956 32.6992 45.5537 32.3193Z" fill="#616161"/>
<path d="M63.1943 32.4865C64.182 32.1598 65.2076 32.4181 66.2105 32.3345C66.6207 32.3041 67.0538 32.4181 67.4185 32.1294C67.3501 32.4941 67.3501 32.5169 66.9702 32.5093C65.7091 32.5093 64.4555 32.4941 63.1943 32.4789V32.4865Z" fill="white"/>
<path d="M17.8081 11.5936C17.7701 11.5936 17.7245 11.5936 17.6865 11.5936C17.6865 10.1349 17.6865 8.67625 17.6865 7.20996C18.0132 8.66105 17.7701 10.1273 17.8081 11.586V11.5936Z" fill="#5A5A5A"/>
<path d="M97.6182 32.3497C99.0769 32.3497 100.528 32.3497 101.987 32.3497L102.047 32.3345C102.047 32.5852 101.873 32.6156 101.683 32.6156C100.52 32.5852 99.3504 32.6915 98.188 32.5548C97.998 32.4864 97.7473 32.5928 97.6182 32.3497Z" fill="white"/>
<path d="M100.756 12.703C100.756 11.2443 100.756 9.77803 100.756 8.31934C101.022 9.77803 101.007 11.2443 100.756 12.703Z" fill="#A1A1A1"/>
<path d="M137.018 1.24614C137.003 1.18537 137.003 1.13218 137.018 1.07141C138.416 1.13218 139.821 0.85868 141.204 1.22335L137.018 1.24614Z" fill="white"/>
<path d="M66.1348 12.5283C66.1348 11.1228 66.1348 9.70971 66.1348 8.3042C66.4007 9.70971 66.4007 11.1228 66.1348 12.5283Z" fill="#565656"/>
<path d="M98.1802 32.5548C99.1906 32.5472 100.209 32.5472 101.219 32.5168C101.493 32.5168 101.827 32.6536 102.04 32.3345C102.062 32.5624 101.933 32.684 101.736 32.6764C100.551 32.6612 99.3578 32.8587 98.1878 32.5548H98.1802Z" fill="#F7F7F7"/>
<path d="M43.6846 1.0713H39.5288C40.9115 0.729421 42.2942 0.744616 43.6846 1.0713Z" fill="#939393"/>
<path d="M86.1764 32.5092C86.1612 32.4484 86.1612 32.3877 86.1764 32.3345C87.5516 32.3345 88.9343 32.3345 90.3094 32.3345C90.4234 32.3877 90.4309 32.4484 90.3094 32.5016C88.9267 32.5016 87.544 32.5016 86.1688 32.5092H86.1764Z" fill="white"/>
<path d="M51.5703 32.3269C52.9606 32.3345 54.3509 32.3421 55.7488 32.3573C54.3585 32.6232 52.9606 32.6612 51.5703 32.3269Z" fill="white"/>
<path d="M117.523 21.7893C117.561 21.7893 117.607 21.7893 117.645 21.7893C117.607 23.1872 117.865 24.6003 117.508 25.9906C117.508 24.5927 117.515 23.1948 117.523 21.7969V21.7893Z" fill="#5C5C5C"/>
<path d="M33.1621 32.3193C34.5448 32.3193 35.9275 32.3193 37.3103 32.3193C35.9275 32.646 34.5448 32.646 33.1621 32.3193Z" fill="#767676"/>
<path d="M156.664 1.2234C155.335 1.2234 154.005 1.2386 152.676 1.2386C154.005 0.88912 155.335 0.949898 156.664 1.2234Z" fill="#555555"/>
<path d="M156.817 5.23478C156.779 5.23478 156.733 5.23478 156.695 5.23478C156.695 3.89765 156.68 2.56052 156.672 1.22339C157.029 2.54533 156.779 3.89765 156.817 5.23478Z" fill="white"/>
<path d="M152.668 32.5093C152.729 32.5093 152.79 32.5093 152.851 32.5093C154.12 32.5093 155.388 32.5169 156.665 32.5245C155.335 32.8208 153.998 32.8208 152.668 32.5093Z" fill="#A9A9A9"/>
<path d="M140.839 28.7029C140.877 28.7029 140.923 28.7029 140.961 28.7029C140.908 29.9716 141.212 31.2632 140.801 32.5167C140.816 31.248 140.832 29.9792 140.839 28.7105V28.7029Z" fill="#888888"/>
<path d="M51.7375 1.06384H51.6463H51.5552C52.8087 0.645987 54.0927 0.94988 55.3614 0.896699C55.3614 0.934686 55.3614 0.98027 55.3614 1.01826C54.1535 1.03345 52.9379 1.04865 51.7299 1.06384H51.7375Z" fill="#A5A5A5"/>
<path d="M136.98 32.5244C138.256 32.5244 139.533 32.5244 140.809 32.5244C139.533 32.8055 138.256 32.8055 136.98 32.5244Z" fill="#C2C2C2"/>
<path d="M15.6577 25.2689C15.6577 24.1066 15.6577 22.9366 15.6577 21.7742C15.9388 22.9366 15.9388 24.1066 15.6577 25.2689Z" fill="white"/>
<path d="M55.3691 1.01823C55.3691 0.980244 55.3691 0.93466 55.3691 0.896674C56.5239 0.919466 57.6939 0.70674 58.8411 1.02583C57.6863 1.02583 56.5315 1.02583 55.3767 1.02583L55.3691 1.01823Z" fill="#ADADAD"/>
<path d="M90.5451 19.9888C90.4843 19.9888 90.4236 19.9888 90.3628 19.9888C91.3277 19.6469 92.2925 19.7229 93.265 19.9356C92.3609 19.9508 91.4492 19.966 90.5451 19.9888Z" fill="white"/>
<path d="M90.3247 32.5017C90.3323 32.4486 90.3323 32.3878 90.3247 32.3346C90.3399 31.4305 90.3627 30.5188 90.3779 29.6147C90.4159 29.6147 90.4615 29.6147 90.4994 29.6147C90.4615 30.5796 90.7502 31.5673 90.3247 32.5093V32.5017Z" fill="#9B9B9B"/>
<path d="M55.9316 19.9888C55.9316 19.9281 55.9316 19.8673 55.9316 19.8065C56.8433 19.8521 57.7702 19.609 58.6667 19.9432C57.755 19.9584 56.8433 19.9736 55.9316 19.9888Z" fill="#808080"/>
<path d="M74.3169 1.01825C74.3169 0.972661 74.3169 0.927077 74.3169 0.889091C75.1678 0.911883 76.0339 0.729546 76.8696 1.01825C76.0187 1.01825 75.1678 1.01825 74.3169 1.01825Z" fill="#CACACA"/>
<path d="M136.828 29.9792C136.866 29.9792 136.911 29.9792 136.949 29.9792C136.964 30.8302 136.972 31.6735 136.987 32.5244C136.607 31.6962 136.866 30.8301 136.828 29.9868V29.9792Z" fill="#9F9F9F"/>
<path d="M102.708 23.6128C102.708 24.3421 102.708 25.0639 102.708 25.7932C102.48 25.0639 102.48 24.3421 102.708 23.6128Z" fill="#F5F5F5"/>
<path d="M3.25905 0.896786C3.25905 0.934773 3.25905 0.980357 3.25905 1.01834C2.52971 1.03354 1.80796 1.04114 1.07861 1.05633C1.07861 0.995552 1.07861 0.942371 1.07861 0.881592C1.80036 0.881592 2.52971 0.881592 3.25145 0.889189L3.25905 0.896786Z" fill="#525252"/>
<path d="M15.3086 9.79314C15.3086 9.11698 15.3086 8.44081 15.3086 7.76465C15.5669 8.44081 15.5593 9.11698 15.3086 9.79314Z" fill="#868686"/>
<path d="M145.915 27.6318C146.515 27.6166 147.123 27.5938 147.723 27.5786C147.13 27.8977 146.522 27.8445 145.915 27.6318Z" fill="white"/>
<path d="M102.898 9.41321C102.853 9.41321 102.807 9.41321 102.769 9.4208C102.769 8.81302 102.769 8.20523 102.769 7.58984C103.043 8.18244 102.883 8.80542 102.906 9.41321H102.898Z" fill="white"/>
<path d="M110.944 0.661214C110.389 0.661214 109.834 0.661214 109.28 0.661214C109.834 0.440891 110.389 0.402905 110.944 0.661214Z" fill="#969696"/>
<path d="M24.2051 32.851C24.6913 32.6307 25.1851 32.6459 25.6714 32.851C25.1851 32.851 24.6913 32.851 24.2051 32.851Z" fill="white"/>
<path d="M25.6942 0.676359C25.2536 0.676359 24.8129 0.676359 24.3799 0.676359C24.8205 0.410452 25.2612 0.395258 25.6942 0.676359Z" fill="white"/>
<path d="M127.886 0.66112C127.453 0.66112 127.027 0.66112 126.594 0.66112C127.027 0.425602 127.46 0.448394 127.886 0.66112Z" fill="#ABABAB"/>
<path d="M109.462 33.0411C109.812 32.7676 110.207 32.9195 110.587 32.9043C110.237 33.1778 109.842 33.0335 109.462 33.0411Z" fill="#7F7F7F"/>
<path d="M126.404 33.041C126.777 32.8207 127.149 32.8207 127.521 33.041H126.404Z" fill="#646464"/>
<path d="M15.6581 21.7666C15.5137 19.1607 14.4805 17.0866 11.943 15.8938C14.2222 14.4047 15.1414 12.3003 15.3086 9.79317C15.4149 9.117 15.4149 8.44084 15.3086 7.76468C15.0579 3.65451 12.4444 1.22336 8.56214 1.03343C6.79956 0.866289 5.03698 1.00304 3.27439 0.957457C2.52226 1.01824 1.76252 0.828303 1.01798 1.07142C0.926815 3.60893 1.00279 6.14644 0.979997 8.68395V27.6317C1.03318 29.212 0.866036 30.7998 1.07876 32.3801C3.75303 32.456 6.41969 32.4788 9.09396 32.3649C9.45103 32.3269 9.8157 32.3345 10.1652 32.2509C13.546 31.4456 15.696 28.7637 15.6581 25.2614C15.7872 24.099 15.7948 22.929 15.6581 21.7666ZM5.17373 12.3155C5.17373 12.2091 5.20412 12.1028 5.23451 11.9964C5.2649 9.63362 5.31048 7.26325 5.21172 4.90048C5.18133 4.77892 5.21172 4.68775 5.32568 4.61938C6.16138 4.61938 6.99709 4.51301 7.8328 4.68015C9.80051 4.74093 10.8869 5.95651 10.9173 8.12935C11.206 9.1094 11.1604 10.0971 10.9173 11.0771C10.8717 13.0296 9.72453 14.2984 7.8252 14.4883C6.9819 14.3212 6.1158 14.5187 5.27249 14.3744C5.06737 13.6982 5.22691 12.9992 5.18133 12.3155H5.17373ZM11.4795 25.079C11.2972 26.4237 11.0161 27.7077 9.65616 28.4294C9.23831 28.6498 8.82045 28.7181 8.37221 28.7257C7.32378 28.8397 6.27534 28.8473 5.23451 28.7181C5.08256 26.363 5.21172 24.0002 5.16613 21.645C5.21172 20.4142 5.07496 19.1835 5.2421 17.9527C6.22976 17.702 7.20982 17.6792 8.19747 17.9679C9.84609 17.8463 11.1756 18.9859 11.4795 21.2424C11.5935 22.5263 11.5859 23.8027 11.4795 25.0866V25.079Z" fill="white"/>
<path d="M5.2951 4.69525C5.27231 4.75603 5.27231 4.80921 5.2951 4.86999C5.38627 7.29354 5.39387 9.72469 5.2951 12.1482L5.23432 12.133C5.19634 12.2622 5.15075 12.2698 5.08997 12.1482C5.08997 9.983 5.08997 7.81775 5.08997 5.65251C5.08997 5.26505 5.03679 4.86239 5.2951 4.52051C5.35588 4.55849 5.37867 4.59648 5.36348 4.63447C5.34069 4.67245 5.32549 4.69525 5.3027 4.69525H5.2951Z" fill="white"/>
<path d="M5.23449 21.6071C5.24968 23.9623 5.26488 26.3251 5.28767 28.6802C5.41683 28.7334 5.41683 28.7942 5.28767 28.8626C5.04456 28.5891 5.07495 28.2472 5.07495 27.9205C5.07495 25.8161 5.08254 23.7192 5.09014 21.6147C5.11293 21.5767 5.13572 21.5312 5.15092 21.4932C5.17371 21.5312 5.1965 21.5767 5.22689 21.6147L5.23449 21.6071Z" fill="#2E2E2E"/>
<path d="M11.4868 25.0791C11.4868 23.7952 11.4868 22.5188 11.4868 21.2349C11.7451 22.5188 11.7375 23.7952 11.4868 25.0791Z" fill="white"/>
<path d="M5.23434 21.607C5.18876 21.607 5.14317 21.607 5.09759 21.607C5.17356 20.3383 4.86207 19.0467 5.27992 17.8008C5.31791 17.8388 5.3331 17.8768 5.32551 17.9147C5.31791 17.9527 5.30272 17.9755 5.29512 17.9755C5.27233 19.1835 5.25713 20.3991 5.23434 21.607Z" fill="white"/>
<path d="M5.29539 28.8625C5.2878 28.8017 5.2802 28.741 5.29539 28.6802C6.32863 28.6954 7.35427 28.7106 8.38751 28.7182C7.36947 29.06 6.32863 28.8169 5.30299 28.8549L5.29539 28.8625Z" fill="#878787"/>
<path d="M10.917 11.0772C10.917 10.0971 10.917 9.10945 10.917 8.12939C10.9854 8.19777 11.0537 8.26615 11.1221 8.33452C11.2133 9.12465 11.2209 9.90717 11.1221 10.6973C11.0765 10.834 11.0993 11.0164 10.917 11.0772Z" fill="#F0F0F0"/>
<path d="M5.29504 17.9678C5.27225 17.9146 5.27225 17.8539 5.27984 17.7931H5.26465C6.23711 17.6335 7.20197 17.6031 8.16683 17.8007C8.16683 17.8539 8.18203 17.8994 8.19722 17.9526C7.22476 17.9526 6.2599 17.9602 5.28744 17.9678H5.29504Z" fill="white"/>
<path d="M8.17464 17.8084C7.20978 17.8084 6.23732 17.8084 5.27246 17.8008C6.24492 17.4969 7.20978 17.4817 8.17464 17.8084Z" fill="#080808"/>
<path d="M5.28767 14.3135C6.13098 14.4199 6.99707 14.1616 7.82518 14.4806C6.98188 14.4806 6.13857 14.4958 5.29527 14.4958C5.17371 14.4351 5.17371 14.3743 5.29527 14.3059L5.28767 14.3135Z" fill="#9D9D9D"/>
<path d="M5.29515 4.69534C5.27995 4.63456 5.27235 4.57378 5.29515 4.5206C6.14605 4.58138 7.01215 4.32307 7.84026 4.68014C6.99695 4.68014 6.14605 4.69534 5.30274 4.70294L5.29515 4.69534Z" fill="#CECECE"/>
<path d="M11.1226 10.6897C11.1226 9.89955 11.1226 9.11703 11.1226 8.3269C11.3505 9.11703 11.3505 9.89955 11.1226 10.6897Z" fill="white"/>
<path d="M5.28736 14.3135C5.28736 14.3743 5.28736 14.4426 5.28736 14.5034C4.87711 13.7513 5.15061 12.9308 5.07464 12.1483C5.12022 12.1483 5.1734 12.1407 5.21899 12.1331C5.23418 12.8624 5.25697 13.5841 5.27217 14.3135H5.28736Z" fill="#1E1E1E"/>
<path d="M83.7607 7.97736C83.6011 7.88619 83.6163 7.73424 83.6087 7.58229C83.4948 4.46738 81.679 2.31734 78.8604 1.39806C78.1994 1.18533 77.4701 1.43605 76.8699 1.01819C76.0114 0.889037 75.1453 0.995399 74.2792 0.957413C72.5926 1.02579 70.906 0.828258 69.2194 1.05618C68.9991 2.81116 69.1814 4.56615 69.1206 6.32873V25.4512C69.1586 27.7532 69.037 30.0476 69.1814 32.3496C69.5005 32.5016 69.8348 32.418 70.1615 32.4256C72.3343 32.4712 74.5071 32.3572 76.68 32.4864C80.3647 32.3496 83.6391 29.683 83.6087 25.2613C83.7987 24.8055 83.7835 24.3268 83.7835 23.8406C83.8063 20.9536 83.7379 18.0666 83.8139 15.1796C83.8519 15.0657 83.8671 14.9517 83.8671 14.8378C83.8671 13.0524 83.8823 11.2594 83.8671 9.47403C83.8671 8.97261 84.0038 8.44839 83.7531 7.96216L83.7607 7.97736ZM79.5062 15.21C79.5062 15.5747 79.5062 15.9394 79.5062 16.304V21.0524C79.4606 22.3363 79.5974 23.6203 79.4378 24.8966C79.3314 27.1303 78.1767 28.4066 76.1406 28.551C75.2745 28.6269 74.4084 28.6953 73.5423 28.513C73.4283 25.4968 73.5271 22.4731 73.4891 19.4569V14.5263C73.4891 11.7228 73.4891 8.92702 73.4891 6.1236C73.4891 5.82731 73.5423 5.52341 73.4283 5.22712C73.4055 5.17394 73.3979 5.12835 73.4207 5.07517C74.3248 4.87764 75.2365 4.93842 76.1482 5.02959C78.1994 5.23472 79.2403 6.33633 79.4302 8.48638C79.5974 10.7276 79.4606 12.9688 79.4986 15.2024L79.5062 15.21Z" fill="white"/>
<path d="M73.4355 5.22708C73.5951 5.47019 73.5875 5.7437 73.5875 6.00961C73.5875 8.84341 73.5723 11.6696 73.5647 14.5034C73.5419 14.5414 73.5267 14.587 73.5039 14.625C73.4811 14.587 73.4583 14.549 73.4355 14.5034C73.4355 11.4113 73.4355 8.3116 73.4355 5.21948V5.22708Z" fill="#BBBBBB"/>
<path d="M73.565 19.4191L73.5954 28.4903C73.5346 28.6043 73.4815 28.6043 73.4131 28.4903C73.4131 25.4666 73.4283 22.4428 73.4359 19.4191C73.4739 19.3051 73.5195 19.3127 73.5726 19.4191H73.565Z" fill="#D0D0D0"/>
<path d="M79.4451 16.3346C79.4451 13.7211 79.4451 11.1076 79.4375 8.49414C79.6274 8.65368 79.597 8.87401 79.597 9.07914C79.597 11.4951 79.5743 13.911 79.5667 16.327C79.5287 16.327 79.4831 16.327 79.4451 16.327V16.3346Z" fill="#979797"/>
<path d="M73.565 19.4189C73.5194 19.4189 73.4738 19.4189 73.4282 19.4189C73.4282 17.7779 73.4282 16.1444 73.4282 14.5034C73.4738 14.5034 73.5118 14.5034 73.5574 14.5034C73.5574 16.1368 73.5574 17.7779 73.5574 19.4113L73.565 19.4189Z" fill="#C5C5C5"/>
<path d="M79.4453 16.3345C79.4833 16.3345 79.5289 16.3345 79.5669 16.3345C79.5669 17.9147 79.5669 19.4874 79.5669 21.0676C79.5289 21.0676 79.4833 21.0676 79.4453 21.0676C79.4453 19.495 79.4453 17.9147 79.4453 16.3421V16.3345Z" fill="#8D8D8D"/>
<path d="M79.4451 21.0601C79.4831 21.0601 79.5287 21.0601 79.5667 21.0601C79.5363 22.3364 79.7794 23.628 79.4375 24.8967C79.4375 23.6204 79.4375 22.344 79.4451 21.0601Z" fill="#858585"/>
<path d="M76.1479 5.02953C75.2362 5.04473 74.3321 5.05992 73.4204 5.07511C74.3245 4.71044 75.2362 4.81681 76.1479 5.02953Z" fill="#7E7E7E"/>
<path d="M73.4131 28.4978C73.4739 28.513 73.5346 28.513 73.5954 28.4978C74.4463 28.513 75.2972 28.5358 76.1405 28.551C75.2289 28.7637 74.3172 28.8473 73.4131 28.4978Z" fill="white"/>
<path d="M97.4357 18.8795C97.3066 18.4996 97.5269 18.4692 97.6865 18.3705C99.7909 17.0561 100.505 15.0049 100.756 12.6953C100.862 11.2366 100.862 9.77029 100.756 8.3116C100.687 7.84056 100.627 7.36953 100.551 6.89849C100.049 4.04949 98.355 2.11217 95.4528 1.39042C94.7843 1.22328 94.0777 1.36003 93.4471 1.01815C91.0692 0.926985 88.6912 0.896595 86.3208 1.03335C86.1689 3.09982 86.298 5.1739 86.2525 7.24797C86.3132 10.3857 86.1005 13.5234 86.1613 16.6611C86.1385 19.7836 86.2069 22.9061 86.1233 26.0286C86.0853 26.1426 86.0701 26.2489 86.0701 26.3705C86.0701 27.1226 86.0473 27.8748 86.0701 28.6269C86.1157 29.8805 85.9334 31.1416 86.1689 32.3876C87.5668 32.4484 88.9647 32.4863 90.3626 32.3648C90.5298 31.4455 90.4006 30.511 90.4386 29.5842C90.4386 26.4616 90.4386 23.3315 90.4386 20.209C90.431 19.9127 90.6209 19.8748 90.8489 19.8823C91.6542 19.9127 92.4595 19.814 93.2648 19.9431C93.4471 19.9735 93.5611 20.0191 93.6371 20.247C93.979 21.3486 94.3588 22.4351 94.7235 23.5291C95.6884 26.4692 96.4861 29.4626 97.6181 32.3496C99.0768 32.5775 100.528 32.6763 101.987 32.3496C100.475 27.8596 98.978 23.3619 97.4357 18.8871V18.8795ZM96.3721 12.8928C96.4253 14.7465 94.8527 16.3952 93.4471 16.3572C92.4747 16.4484 91.4946 16.4863 90.5222 16.342L90.5374 16.3192C90.3094 14.8985 90.4918 13.4702 90.4386 12.0419C90.4234 11.5937 90.4386 11.1454 90.4386 10.6972C90.469 8.82062 90.3778 6.93648 90.4918 5.05994C91.4187 4.8852 92.3455 4.93838 93.2724 5.02195C94.7235 5.31065 95.8631 5.94883 96.2582 7.52907C96.3417 7.85576 96.3189 8.17485 96.3797 8.48634C96.5089 9.95263 96.5089 11.4265 96.3797 12.8928H96.3721Z" fill="white"/>
<path d="M86.1917 16.6839C86.2373 16.6839 86.2904 16.6839 86.336 16.6839C86.336 19.4569 86.336 22.2299 86.336 24.9954C86.336 25.3828 86.3664 25.7779 86.1841 26.1502C86.1841 22.9897 86.1841 19.8368 86.1841 16.6763L86.1917 16.6839Z" fill="white"/>
<path d="M90.5525 5.06757L90.4993 10.6896C90.4613 10.6896 90.4157 10.6896 90.3777 10.6896C90.3777 8.81305 90.3777 6.94411 90.3701 5.06757C90.4309 4.9612 90.4917 4.9612 90.5525 5.06757Z" fill="#747474"/>
<path d="M90.3777 10.6973C90.4157 10.6973 90.4612 10.6973 90.4992 10.6973C90.5144 12.5738 90.5296 14.4504 90.5448 16.3269C90.2865 16.1674 90.3549 15.9014 90.3549 15.6735C90.3549 14.0173 90.3701 12.3611 90.3853 10.6973H90.3777Z" fill="#7D7D7D"/>
<path d="M96.3721 12.8928C96.3721 11.4265 96.3721 9.95261 96.3721 8.48633C96.6532 9.95261 96.6532 11.4265 96.3721 12.8928Z" fill="#BEBEBE"/>
<path d="M90.5525 5.06764C90.4917 5.06764 90.4309 5.06764 90.3701 5.06764C91.335 4.73336 92.2998 4.79414 93.2723 5.02206C92.3682 5.03725 91.4641 5.05245 90.5601 5.06764H90.5525Z" fill="white"/>
<path d="M90.522 16.342C91.4944 16.342 92.4745 16.3496 93.4469 16.3572C92.4745 16.6079 91.4944 16.6155 90.522 16.342Z" fill="#2B2B2B"/>
<path d="M65.8006 27.3659C64.8662 24.5928 63.9621 21.8198 62.9896 19.062C62.8377 18.6365 62.9364 18.4314 63.2175 18.2415C65.2612 16.8815 66.0893 14.9062 66.1349 12.5283C66.2565 11.1228 66.2565 9.70965 66.1349 8.30414C66.0893 6.1237 65.436 4.20157 63.719 2.74288C62.3134 1.5501 60.5964 1.22342 58.8339 1.01829C57.6715 0.873939 56.5091 0.995497 55.3467 0.95751C54.1235 1.01829 52.8927 0.828355 51.6772 1.06387C51.5784 3.91288 51.662 6.76188 51.6316 9.61088V23.9699C51.5936 26.6973 51.7076 29.4323 51.5708 32.1598C51.548 32.213 51.548 32.2662 51.5708 32.3193C52.9611 32.5093 54.3514 32.4561 55.7493 32.3497C55.9317 30.7163 55.7797 29.0753 55.8329 27.4418C55.8329 26.2035 55.8101 24.9575 55.8329 23.7191C55.8633 22.458 55.7114 21.1892 55.9165 19.9281C56.8358 19.8521 57.7474 19.8293 58.6667 19.9433C59.0922 19.9661 59.1378 20.27 59.2441 20.6118C60.1254 23.4304 60.9915 26.2491 61.964 29.0373C62.3666 30.1921 62.4578 31.4608 63.2023 32.4865C64.3723 32.3497 65.5499 32.4789 66.7199 32.4181C66.963 32.4029 67.3657 32.6536 67.4189 32.137C66.8794 30.5492 66.3476 28.9537 65.8082 27.3659H65.8006ZM61.9488 12.8777C61.6221 13.8426 61.5157 14.8986 60.5889 15.59C60.0418 16.0002 59.5024 16.2889 58.8263 16.2889C58.1197 16.1598 57.398 16.2737 56.6914 16.2282C56.4103 16.213 56.0912 16.3497 55.8481 16.0914C55.7949 13.5691 55.8405 11.0544 55.8253 8.53206C55.8633 7.36967 55.7417 6.19968 55.8861 5.03728C56.8737 4.89293 57.8614 4.92332 58.8415 5.02968C60.7408 5.39436 61.4398 6.09331 61.7512 7.92427C61.774 8.06102 61.8804 8.18258 61.9488 8.31174C62.0551 9.8312 62.0551 11.3507 61.9488 12.8701V12.8777Z" fill="white"/>
<path d="M55.886 8.50925C55.9088 11.0544 55.924 13.5995 55.9468 16.1446C56.0076 16.1826 56.0304 16.2282 56.0076 16.2661C55.9848 16.3041 55.962 16.3193 55.9392 16.3193C55.6961 16.0458 55.7341 15.7039 55.7341 15.3772C55.7341 13.0904 55.7417 10.8036 55.7493 8.51685C55.7721 8.47127 55.7949 8.43328 55.8101 8.3877C55.8329 8.42568 55.8556 8.47127 55.886 8.50925Z" fill="white"/>
<path d="M61.9561 12.8777C61.9561 11.3583 61.9561 9.8388 61.9561 8.31934C62.222 9.8388 62.1992 11.3583 61.9561 12.8777Z" fill="white"/>
<path d="M55.886 8.50919C55.8404 8.50919 55.7948 8.50919 55.7492 8.50919C55.8176 7.30121 55.5061 6.07044 55.9391 4.88525C56.0531 4.94603 56.0531 5.00681 55.9391 5.06759C55.9239 6.21479 55.9012 7.36199 55.886 8.50159V8.50919Z" fill="white"/>
<path d="M55.939 5.06774C55.939 5.00696 55.939 4.94618 55.939 4.8854C56.9114 4.92339 57.8915 4.69547 58.8487 5.02975C57.8763 5.04494 56.9114 5.05254 55.939 5.06774Z" fill="#989898"/>
<path d="M55.9391 16.3193C55.9239 16.2586 55.9239 16.2054 55.9391 16.1446C56.8964 16.2206 57.8765 16.0002 58.8261 16.2965C57.8613 16.2965 56.8964 16.3117 55.9315 16.3193H55.9391Z" fill="#DDDDDD"/>
<path d="M134.526 20.513V15.5748C134.526 14.5263 134.541 13.4779 134.526 12.4219C134.488 10.7428 134.632 9.07143 134.45 7.39242C134.367 5.87295 133.903 4.50543 132.953 3.28986C131.662 1.62604 129.854 0.995461 127.886 0.661178C127.453 0.554815 127.028 0.562413 126.594 0.661178C126.184 0.729554 125.774 0.790333 125.364 0.873903C121.93 1.57286 119.833 4.25472 119.711 7.59755C119.84 9.24617 119.734 10.9024 119.772 12.5586V17.4361C119.734 20.4674 119.84 23.4912 119.719 26.5225C119.711 26.6745 119.658 26.8264 119.688 26.9708C120.463 30.5567 122.613 32.6612 126.412 33.0486C126.784 32.9423 127.157 32.9499 127.529 33.0486C131.624 32.7144 134.245 29.721 134.458 25.9983C134.632 24.1749 134.488 22.344 134.534 20.5206L134.526 20.513ZM130.332 11.9584V21.4171C130.294 22.8758 130.408 24.3345 130.272 25.7932C130.097 26.3478 130.006 26.9404 129.74 27.4418C129.048 28.7334 127.491 29.3943 126.184 29.0372C124.999 28.7182 124.103 27.457 124.019 25.9831C123.875 23.909 123.989 21.835 123.958 19.7685C123.943 18.4466 123.958 17.1246 123.958 15.7951C123.958 13.3563 123.958 10.9176 123.958 8.47884C123.958 8.18255 123.905 7.87865 124.019 7.58236C124.095 6.04009 124.771 5.26517 126.587 4.64978C126.952 4.55102 127.324 4.54342 127.688 4.64978C129.276 5.08283 130.021 6.21483 130.264 7.75709C130.408 9.14741 130.287 10.5453 130.325 11.9432L130.332 11.9584Z" fill="white"/>
<path d="M124.019 15.7798C124.019 19.1834 124.019 22.5794 124.019 25.983C123.852 25.7779 123.867 25.5348 123.867 25.2917C123.875 22.1236 123.89 18.9555 123.897 15.7874C123.935 15.7874 123.981 15.7874 124.019 15.7874V15.7798Z" fill="#6C6C6C"/>
<path d="M124.019 15.7798C123.981 15.7798 123.935 15.7798 123.897 15.7798C123.89 13.2803 123.874 10.7808 123.882 8.27366C123.882 8.03814 123.973 7.81022 124.026 7.57471C124.026 10.3022 124.026 13.0372 124.026 15.7646L124.019 15.7798Z" fill="#5E5E5E"/>
<path d="M130.279 16.6991C130.279 15.1264 130.279 13.5462 130.279 11.9735C130.317 11.8672 130.362 11.8596 130.408 11.9735C130.408 13.5538 130.408 15.1264 130.408 16.7067C130.37 16.8206 130.324 16.813 130.279 16.7067V16.6991Z" fill="#4C4C4C"/>
<path d="M130.279 16.6992C130.324 16.6992 130.362 16.6992 130.408 16.6992C130.408 18.2719 130.408 19.8521 130.408 21.4248C130.37 21.5312 130.324 21.5388 130.279 21.4248C130.279 19.8445 130.279 18.2719 130.279 16.6917V16.6992Z" fill="#454545"/>
<path d="M130.279 21.4248C130.324 21.4248 130.362 21.4248 130.408 21.4248C130.378 22.8835 130.59 24.3498 130.279 25.7933C130.279 24.3346 130.279 22.8835 130.279 21.4248Z" fill="white"/>
<path d="M130.401 11.9659C130.355 11.9659 130.317 11.9659 130.271 11.9659C130.271 10.568 130.271 9.17013 130.271 7.77222C130.598 9.16253 130.363 10.568 130.401 11.9659Z" fill="#545454"/>
<path d="M127.696 4.66501H126.594C126.959 4.45228 127.331 4.45988 127.696 4.66501Z" fill="#3B3B3B"/>
<path d="M117.584 21.7589V12.6877C117.538 10.9251 117.675 9.15493 117.508 7.39234C117.379 5.31067 116.627 3.55569 114.955 2.21855C113.77 1.26889 112.387 0.919409 110.952 0.653503C110.397 0.54714 109.842 0.54714 109.288 0.653503C108.938 0.721879 108.589 0.790255 108.239 0.866228C104.752 1.68674 102.807 4.61172 102.769 7.58228C102.898 8.22805 102.8 8.88142 102.83 9.53479V19.0467C102.883 21.4094 102.746 23.7722 102.769 26.1426C102.769 28.3078 103.696 30.0248 105.299 31.4227C106.492 32.4636 107.943 32.8434 109.462 33.0334C109.82 32.8662 110.23 33.0714 110.587 32.8966C113.922 33.041 117.379 29.9413 117.508 25.983C117.683 24.5775 117.538 23.1644 117.584 21.7589ZM113.33 25.7931C113.155 26.3477 113.026 26.9251 112.79 27.4569C112.403 28.3306 111.597 28.7181 110.754 29.0372C110.321 28.9384 109.888 28.9384 109.455 29.0372C107.738 28.437 107.009 27.4569 107.069 25.8083C106.925 23.0885 107.046 20.361 107.009 17.6412V12.7105C107.046 11.1302 106.933 9.54999 107.069 7.96974C107.009 6.18437 107.662 5.34106 109.637 4.6725C110.009 4.57373 110.382 4.56613 110.746 4.6725C112.304 5.03717 112.98 6.16917 113.322 7.59747C113.459 9.59557 113.345 11.5937 113.383 13.5918V18.3477C113.345 20.832 113.466 23.3164 113.322 25.8007L113.33 25.7931Z" fill="white"/>
<path d="M107.077 17.6033C107.077 20.3383 107.077 23.0658 107.077 25.8008C106.917 25.5957 106.917 25.3526 106.925 25.1095C106.925 22.6099 106.94 20.1104 106.955 17.6033C106.993 17.4893 107.031 17.4893 107.077 17.6033Z" fill="#5C5C5C"/>
<path d="M113.329 25.7932C113.329 23.3089 113.329 20.817 113.329 18.3326C113.367 18.2187 113.413 18.2263 113.459 18.3326C113.459 20.5587 113.474 22.7847 113.466 25.0107C113.466 25.2766 113.375 25.5349 113.322 25.8008L113.329 25.7932Z" fill="white"/>
<path d="M113.329 13.6072C113.329 11.6015 113.329 9.59576 113.329 7.59766C113.663 8.71447 113.428 9.86166 113.473 10.9937C113.511 11.8598 113.473 12.7335 113.458 13.6072C113.42 13.7135 113.375 13.7211 113.329 13.6072Z" fill="white"/>
<path d="M107.077 17.6033C107.039 17.6033 106.993 17.6033 106.955 17.6033C106.955 15.9623 106.955 14.3289 106.955 12.6879C106.993 12.5815 107.039 12.5739 107.084 12.6879C107.084 14.3213 107.084 15.9623 107.084 17.5958L107.077 17.6033Z" fill="#515151"/>
<path d="M113.329 13.607C113.375 13.607 113.413 13.607 113.458 13.607C113.458 15.1796 113.458 16.7599 113.458 18.3325C113.413 18.3325 113.367 18.3325 113.329 18.3325C113.329 16.7523 113.329 15.1796 113.329 13.5994V13.607Z" fill="#3F3F3F"/>
<path d="M107.077 12.6878C107.031 12.6878 106.993 12.6878 106.947 12.6878C106.978 11.1075 106.758 9.51967 107.077 7.94702C107.077 9.52727 107.077 11.0999 107.077 12.6802V12.6878Z" fill="#4A4A4A"/>
<path d="M109.462 29.0297C109.895 28.7942 110.329 28.8246 110.762 29.0297C110.329 29.0297 109.895 29.0297 109.462 29.0297Z" fill="#A2A2A2"/>
<path d="M110.762 4.66495C110.389 4.66495 110.017 4.66495 109.652 4.66495C110.025 4.43703 110.397 4.45982 110.762 4.66495Z" fill="#585858"/>
<path d="M32.5011 19.4267V14.6632C32.5011 14.2149 32.5087 13.7667 32.5011 13.3108C32.4555 11.3355 32.5998 9.36022 32.4251 7.39251C32.5087 3.89013 29.5001 0.570093 25.6938 0.676456C25.2532 0.547301 24.8126 0.547301 24.3795 0.676456C21.0367 0.668859 17.9522 3.46468 17.6938 7.21777C17.823 8.69925 17.7166 10.1807 17.7546 11.6622V21.0069C17.7166 22.7239 17.8306 24.4333 17.6938 26.1503C17.7926 29.6223 20.5808 32.7296 24.2124 32.8436C24.6986 32.7524 25.1924 32.7524 25.6787 32.8436C25.8002 32.8512 25.9218 32.8892 26.0357 32.874C29.7204 32.3042 32.4479 29.3564 32.4327 25.6261C32.6074 23.5596 32.4631 21.4932 32.5087 19.4267H32.5011ZM28.3073 14.9367C28.3073 15.2709 28.3073 15.6052 28.3073 15.9395V20.6954C28.2693 22.3365 28.3833 23.9775 28.2466 25.6185C28.1022 26.3707 27.9655 27.1304 27.4488 27.7458C26.4916 28.8626 25.2836 29.1969 23.9085 28.7334C22.7765 28.3536 22.0775 27.2747 21.9939 25.8085C21.8572 23.8711 21.9712 21.9338 21.9332 19.9965V15.0658C21.9712 12.6423 21.8572 10.2187 21.9939 7.79516C21.8648 6.38206 22.8372 4.75623 24.3719 4.69545C24.8126 4.56629 25.2456 4.56629 25.6863 4.69545C27.0158 4.81701 27.6616 5.6907 28.0338 6.85309C28.1174 7.10381 28.1706 7.35452 28.2466 7.60523C28.3909 10.0516 28.2693 12.5055 28.3149 14.9519L28.3073 14.9367Z" fill="white"/>
<path d="M28.2544 15.9697C28.2544 13.1739 28.2544 10.3857 28.2544 7.58984C28.4291 7.82536 28.4139 8.09887 28.4139 8.37237C28.4063 10.9023 28.3911 13.4322 28.3836 15.9621C28.3456 15.9621 28.3 15.9621 28.262 15.9621L28.2544 15.9697Z" fill="white"/>
<path d="M22.0018 7.77981C22.0018 10.2034 22.0018 12.6345 22.0018 15.0581C21.9638 15.1644 21.9182 15.1644 21.8726 15.0581C21.8726 12.8928 21.8574 10.7276 21.8574 8.56234C21.8574 8.29643 21.9486 8.03812 22.0018 7.77222V7.77981Z" fill="#393939"/>
<path d="M21.9939 19.9661C21.9939 21.911 21.9939 23.8559 21.9939 25.7932C21.6596 24.6764 21.9027 23.5292 21.8495 22.3972C21.8115 21.5919 21.8495 20.779 21.8647 19.9661C21.9027 19.8521 21.9483 19.8521 21.9939 19.9661Z" fill="#4A4A4A"/>
<path d="M21.9939 19.966C21.9483 19.966 21.9103 19.966 21.8647 19.966C21.8647 18.3326 21.8647 16.6915 21.8647 15.0581C21.9103 15.0581 21.9483 15.0581 21.9939 15.0581C21.9939 16.6991 21.9939 18.3326 21.9939 19.9736V19.966Z" fill="white"/>
<path d="M28.2466 25.6185C28.2466 23.9775 28.2466 22.344 28.2466 20.703C28.2846 20.5966 28.3302 20.589 28.3757 20.703C28.3377 22.344 28.5733 23.9927 28.2466 25.6261V25.6185Z" fill="#484848"/>
<path d="M28.3757 20.6953C28.3302 20.6953 28.2922 20.6953 28.2466 20.6953C28.2466 19.1151 28.2466 17.5424 28.2466 15.9622C28.2846 15.9622 28.3302 15.9622 28.3681 15.9622C28.3681 17.5424 28.3681 19.1151 28.3681 20.6953H28.3757Z" fill="#4F4F4F"/>
<path d="M25.6864 4.68014C25.2458 4.68014 24.8127 4.68014 24.3721 4.68014C24.8127 4.42183 25.2458 4.39144 25.6864 4.68014Z" fill="#D8D8D8"/>
<path d="M48.7673 25.9755C47.7569 21.1891 46.7996 16.4028 45.8651 11.6013C45.1814 8.08372 44.414 4.58894 43.6847 1.07897C42.302 0.88904 40.9193 0.88904 39.529 1.07897C39.339 1.94507 39.1415 2.81117 38.9668 3.67726C38.2678 7.16444 37.5764 10.6516 36.8699 14.1388C36.3609 16.6383 35.8291 19.1227 35.32 21.6222C34.5907 25.1853 33.8765 28.7561 33.1548 32.3268C34.5375 32.5092 35.9202 32.5092 37.3029 32.3268C37.4929 31.3696 37.698 30.4123 37.8651 29.455C38.1007 28.1179 38.2146 26.758 38.6097 25.4588C40.4862 25.2385 42.3704 25.3297 44.2469 25.4133C44.3001 25.4816 44.3913 25.5424 44.3988 25.6184C44.7863 27.8596 45.1586 30.0932 45.5385 32.3344C47.0427 32.5168 48.5394 32.5092 50.0437 32.3344C49.5423 30.23 49.1928 28.0951 48.7521 25.9831L48.7673 25.9755ZM43.4872 21.9185C42.0513 21.9337 40.6078 22.1616 39.1795 21.7893C39.415 20.2699 39.6277 18.7504 39.9012 17.2385C40.3039 14.9669 40.7445 12.7105 41.1472 10.4389C41.208 10.0818 41.3067 9.76273 41.5574 9.2841C41.7474 10.3173 41.9145 11.1834 42.0741 12.0571C42.4691 14.268 42.8642 16.4864 43.2517 18.7048C43.4188 19.6697 43.5707 20.6345 43.7227 21.5994C43.7455 21.7741 43.6619 21.9185 43.4948 21.9261L43.4872 21.9185Z" fill="white"/>
<path d="M39.1794 21.7818C40.3722 21.7818 41.5726 21.7818 42.7654 21.7818C43.0921 21.7818 43.4264 21.7818 43.7151 21.5842C43.8822 21.6526 43.8822 21.797 43.8822 21.9413C42.3096 22.1312 40.7369 22.1236 39.1567 21.9413C39.1491 21.8881 39.1567 21.8273 39.1794 21.7742V21.7818Z" fill="white"/>
<path d="M39.1567 21.949H43.8823C42.3096 22.2833 40.737 22.2833 39.1567 21.949Z" fill="#090909"/>
<path d="M5.29492 12.1559C5.29492 9.73239 5.29492 7.30124 5.29492 4.87769C5.62161 6.33637 5.40888 7.81786 5.43167 9.28414C5.44687 10.2414 5.60641 11.2139 5.29492 12.1559Z" fill="#F8F8F8"/>
<path d="M121.215 38.2148V40.4713" stroke="white" stroke-width="0.5" stroke-miterlimit="10"/>
<path d="M122.347 39.3394H120.091" stroke="white" stroke-width="0.5" stroke-miterlimit="10"/>
<path d="M125.5 38.2148V40.4713" stroke="white" stroke-width="0.5" stroke-miterlimit="10"/>
<path d="M126.632 39.3394H124.375" stroke="white" stroke-width="0.5" stroke-miterlimit="10"/>
<path d="M129.792 38.2148V40.4713" stroke="white" stroke-width="0.5" stroke-miterlimit="10"/>
<path d="M130.917 39.3394H128.661" stroke="white" stroke-width="0.5" stroke-miterlimit="10"/>
<path d="M134.077 38.2148V40.4713" stroke="white" stroke-width="0.5" stroke-miterlimit="10"/>
<path d="M135.202 39.3394H132.945" stroke="white" stroke-width="0.5" stroke-miterlimit="10"/>
<path d="M138.362 38.2148V40.4713" stroke="white" stroke-width="0.5" stroke-miterlimit="10"/>
<path d="M139.487 39.3394H137.23" stroke="white" stroke-width="0.5" stroke-miterlimit="10"/>
<path d="M142.647 38.2148V40.4713" stroke="white" stroke-width="0.5" stroke-miterlimit="10"/>
<path d="M143.779 39.3394H141.523" stroke="white" stroke-width="0.5" stroke-miterlimit="10"/>
<path d="M146.932 38.2148V40.4713" stroke="white" stroke-width="0.5" stroke-miterlimit="10"/>
<path d="M148.064 39.3394H145.808" stroke="white" stroke-width="0.5" stroke-miterlimit="10"/>
<path d="M151.217 38.2148V40.4713" stroke="white" stroke-width="0.5" stroke-miterlimit="10"/>
<path d="M152.349 39.3394H150.093" stroke="white" stroke-width="0.5" stroke-miterlimit="10"/>
<path d="M155.509 38.2148V40.4713" stroke="white" stroke-width="0.5" stroke-miterlimit="10"/>
<path d="M156.634 39.3394H154.377" stroke="white" stroke-width="0.5" stroke-miterlimit="10"/>
</svg>
