<svg version="1.2" xmlns="http://www.w3.org/2000/svg" viewBox="0 0 96 96" width="96" height="96">
	<g>
		<path fill-rule="evenodd" fill="#000000" d="m95.5 48c0 12.7-4.9 24.6-13.9 33.6-9 9-20.9 13.9-33.6 13.9-12.7 0-24.6-4.9-33.6-13.9-9-9-13.9-20.9-13.9-33.6 0-12.7 4.9-24.6 13.9-33.6 9-9 20.9-13.9 33.6-13.9 12.7 0 24.6 4.9 33.6 13.9 9 9 13.9 20.9 13.9 33.6zm-21.5-26.1c-14.3-14.4-37.7-14.4-52.1 0-14.4 14.4-14.4 37.8 0 52.1 14.4 14.4 37.8 14.4 52.1 0 14.4-14.3 14.4-37.7 0-52.1z"/>
		<path fill="#000000" d="m66.7 29.3q-0.8-0.7-1.8-1.1-0.9-0.4-2-0.4-1.1 0-2.1 0.4-0.9 0.4-1.7 1.1l-11.1 11.2-11.1-11.2c-2.1-2.1-5.5-2.1-7.6 0-2.1 2.1-2.1 5.5 0 7.6l11.2 11.1-11.2 11.1q-0.7 0.8-1.1 1.8-0.4 0.9-0.4 2 0 1.1 0.4 2.1 0.4 0.9 1.1 1.7c1.1 1 2.4 1.5 3.8 1.5 1.4 0 2.7-0.5 3.8-1.5l11.1-11.2 11.1 11.2q0.4 0.4 0.8 0.6 0.5 0.3 1 0.5 0.5 0.2 1 0.3 0.5 0.1 1 0.1 0.5 0 1.1-0.1 0.5-0.1 1-0.3 0.4-0.2 0.9-0.5 0.4-0.2 0.8-0.6 0.7-0.8 1.1-1.7 0.4-1 0.4-2.1 0-1.1-0.4-2-0.4-1-1.1-1.8l-11.2-11.1 11.2-11.1q0.7-0.8 1.1-1.8 0.4-0.9 0.4-2 0-1.1-0.4-2-0.4-1-1.1-1.8z"/>
	</g>
</svg>