<svg width="155" height="41" viewBox="0 0 155 41" fill="none" xmlns="http://www.w3.org/2000/svg">
<path d="M154.67 33.1588C153.856 37.026 150.844 39.5499 146.122 40.2826C144.819 40.4861 142.173 40.4861 140.463 40.2826C138.265 40.0384 135.049 39.2649 134.561 38.8985C134.398 38.7764 134.357 38.3286 134.276 34.8278L134.194 30.9199L134.52 30.7977C135.212 30.5535 135.253 30.5535 135.701 31.6526C137.41 35.8455 139.527 37.8401 142.539 38.0844C144.738 38.2879 146.447 37.3924 147.261 35.6012C147.587 34.9092 147.628 34.7464 147.628 33.7287C147.628 32.6703 147.628 32.5889 147.261 31.8969C147.017 31.4084 146.651 31.0013 146.203 30.6349C145.47 30.0243 143.476 29.0473 141.562 28.3146C139.12 27.419 137.695 26.5642 136.637 25.4244C135.375 24.081 134.805 22.4934 134.764 20.3766C134.764 18.8704 134.968 17.9342 135.578 16.713C136.718 14.3926 138.916 12.7236 141.888 11.9095C142.906 11.6245 143.109 11.6245 145.592 11.6245C147.669 11.6245 148.442 11.6652 149.297 11.828C150.477 12.0316 152.228 12.5201 152.92 12.805L153.327 12.9679L153.408 16.428C153.449 18.3412 153.449 19.9288 153.408 19.9696C153.368 20.0103 153.123 20.0917 152.879 20.1731C152.472 20.2952 152.431 20.2952 152.391 20.1324C152.024 19.1147 151.291 17.405 150.925 16.7944C149.785 14.9218 148.564 13.9041 146.895 13.4971C145.511 13.1714 144.331 13.3342 143.394 13.9448C142.254 14.6776 141.685 15.8988 141.685 17.4457C141.685 18.4634 141.888 19.074 142.458 19.8474C143.191 20.7837 144.9 21.8421 147.831 23.0633C151.739 24.7323 153.327 25.9128 154.263 27.8261C154.874 29.2102 155.077 31.2862 154.67 33.1588Z" fill="white"/>
<path d="M115.836 24.6509C115.918 24.6102 119.622 24.5695 124.14 24.5695H132.282V24.2438C132.282 23.5111 132.038 21.5571 131.834 20.5395C130.979 16.3873 128.7 13.4564 125.443 12.2758C124.14 11.7873 122.919 11.6245 121.291 11.6245C117.464 11.6245 114.33 12.8864 111.928 15.3696C110.015 17.3643 108.875 19.6032 108.142 22.7784C107.939 23.7146 107.898 24.2438 107.898 26.2385C107.898 28.2332 107.939 28.7217 108.142 29.6579C109.445 35.4791 113.272 39.3056 118.767 40.2826C120.151 40.5268 122.227 40.5268 123.611 40.3233C126.176 39.9162 128.7 38.6543 130.532 36.9446C131.549 36.0083 131.875 35.5605 131.712 35.3163C131.346 34.665 131.346 34.665 130.409 35.2756C128.903 36.2119 128.171 36.4561 126.379 36.6189C124.303 36.8225 122.39 36.4968 120.64 35.6012C119.459 34.9906 118.075 33.6066 117.383 32.3853C116.447 30.6756 115.918 28.7217 115.755 26.1571C115.673 24.9766 115.714 24.7323 115.836 24.6509ZM116.121 19.5625C116.61 17.0793 117.424 15.3289 118.482 14.2298C119.052 13.6192 119.337 13.4564 119.826 13.3342C120.151 13.2528 120.518 13.1714 120.64 13.1714C121.128 13.1714 121.739 13.4156 122.187 13.8227C123.408 14.9218 124.059 17.3236 124.222 20.8244L124.303 22.5748L123.164 22.6562C120.843 22.7784 115.877 22.8598 115.795 22.7377C115.673 22.5341 115.877 20.5802 116.121 19.5625Z" fill="white"/>
<path d="M105.211 24.2037C105.129 21.5577 104.682 19.8073 103.583 17.6498C102.076 14.7188 99.5526 12.6834 96.6216 12.0728C94.4641 11.625 91.6553 11.9914 89.5385 12.9684C89.0093 13.2126 88.5208 13.4162 88.3987 13.4162C88.2766 13.4162 88.2359 12.602 88.2766 6.94369L88.3173 0.471191L87.8695 0.552606C87.6253 0.593314 85.1421 1.0818 82.3333 1.57029C79.5245 2.09949 77.1227 2.54727 77.0006 2.58798C76.7971 2.6694 76.7563 2.75081 76.7563 3.07647C76.7971 3.48355 76.7971 3.48355 77.2041 3.60567C78.6289 3.93133 78.8731 4.01274 79.4023 4.58265C80.0537 5.23397 80.3386 6.08883 80.5421 7.83925C80.705 9.26401 80.7457 33.485 80.5829 37.0672L80.5014 39.184L81.6413 39.4283C85.9562 40.3646 90.312 40.6902 92.9987 40.2831C96.3774 39.7946 98.8605 38.6141 100.937 36.5788C103.99 33.5664 105.414 29.3735 105.211 24.2037ZM96.9066 29.3735C96.4181 32.6301 95.4818 35.1133 94.1792 36.7009C93.5686 37.4743 92.5102 38.2071 91.696 38.4513C91.1668 38.6141 90.027 38.6548 89.05 38.5327C88.8465 38.492 88.6022 38.4106 88.5208 38.3292C88.3173 38.0849 88.1138 23.0232 88.2359 18.6267L88.3173 15.1259L89.2129 14.8817C90.5155 14.5153 91.9403 14.556 92.9172 15.0445C94.9119 15.9808 96.2553 18.3418 96.9473 22.209C97.1915 23.4709 97.1508 27.8266 96.9066 29.3735Z" fill="white"/>
<path d="M78.263 12.3164C78.1816 12.6013 75.617 19.3588 75.5763 19.3995C75.5356 19.4402 75.1692 19.2774 74.7215 19.0331C73.1746 18.2597 71.1799 17.9747 69.633 18.3004C68.8596 18.4632 67.7605 18.9924 67.4348 19.3588L67.1499 19.6437V25.9941C67.1499 34.1356 67.3127 36.1303 68.0861 37.2294C68.6153 37.9621 69.1445 38.1656 71.1392 38.3692L71.9941 38.4506V39.6718H55.6296L55.6703 39.1019L55.7111 38.532L56.688 38.3285C57.2172 38.2063 57.8278 38.0435 58.0314 37.9214C58.5606 37.6364 59.0491 36.7816 59.2526 35.9267C59.6597 34.217 59.7818 21.7605 59.4561 18.5853C59.2119 16.1429 58.6013 15.288 56.8916 15.0031C55.6296 14.7995 55.7111 14.8402 55.7111 14.3925C55.7111 14.1889 55.7518 13.9854 55.7925 13.9447C55.9146 13.8633 56.688 13.7004 62.1835 12.6013C64.7481 12.0721 66.987 11.6243 67.1092 11.5836L67.3941 11.5022L67.3127 14.5553C67.272 16.9977 67.272 17.6084 67.3941 17.6084C67.4755 17.6084 67.7605 17.1606 68.0861 16.6314C69.8366 13.4155 72.279 11.5836 75.0471 11.4208C76.0648 11.3801 76.879 11.5022 77.8152 11.8686C78.1409 12.0721 78.3037 12.1943 78.263 12.3164Z" fill="white"/>
<path d="M51.1109 14.7589C48.7905 12.6014 45.9003 11.543 42.1552 11.543C38.1659 11.543 34.95 12.7642 32.4668 15.2474C29.8208 17.8933 28.4368 21.6384 28.4368 25.9941C28.4368 30.5127 29.6987 34.1763 32.1412 36.7409C33.4845 38.1657 34.7871 38.9798 36.7004 39.6719C37.3517 39.9161 37.8402 40.0382 39.6313 40.3639C39.7942 40.4046 40.8119 40.4046 41.911 40.3639C43.4171 40.3232 44.1499 40.2825 44.8419 40.1196C46.7959 39.6719 48.3834 38.9391 49.8082 37.9214C53.2276 35.3569 55.1002 31.4489 55.263 26.5233C55.4259 21.5977 53.9604 17.4456 51.1109 14.7589ZM47.0808 29.5357C46.7144 34.7055 45.5746 37.5144 43.4985 38.4913C42.7251 38.8577 41.3818 38.8577 40.649 38.5321C38.8172 37.7179 37.5145 35.194 36.9039 31.2047C36.4969 28.6808 36.4562 23.0632 36.8225 20.3358C37.3517 16.4686 38.4508 14.189 40.2012 13.4155C41.3818 12.8863 43.0101 13.212 44.0685 14.1483C46.4295 16.265 47.61 22.2898 47.0808 29.5357Z" fill="white"/>
<path d="M32.1006 11.8695L31.3272 12.1138C30.8794 12.2359 30.513 12.3173 30.513 12.3173C30.513 12.3173 30.3502 11.8695 30.1873 11.381C30.0245 10.8926 29.6174 9.99699 29.3325 9.34567C28.0298 6.57756 26.4422 4.94926 24.244 4.17581L23.3078 3.85015L19.237 3.80945L15.1663 3.76874L15.1256 4.01298C14.9627 4.70501 14.6778 19.319 14.7999 19.4818C14.8813 19.5633 15.4105 19.604 17.2831 19.5225C18.5857 19.4411 19.8883 19.3597 20.1733 19.2783C21.3131 19.0341 22.168 18.2199 22.7786 16.9173C23.1856 16.0624 23.5927 14.7598 23.5927 14.312C23.5927 14.0677 23.6334 14.0677 24.3255 14.0677H25.0582V26.972L24.3662 26.9313L23.6741 26.8906L23.4299 25.8729C22.86 23.5526 21.6795 22.0464 20.1733 21.68C19.6441 21.5579 14.922 21.3544 14.8406 21.4765C14.7185 21.5986 14.922 29.0888 15.0849 31.6534C15.3291 35.2356 15.9804 36.9454 17.4052 37.6374C17.8123 37.8409 20.2547 38.3701 20.7839 38.3701C20.8246 38.3701 20.8653 38.6551 20.8653 38.9807V39.5913H0.918637V38.3701L1.48854 38.248C1.8142 38.1666 2.38411 38.0852 2.79118 38.0038C4.33807 37.7595 5.23363 36.9047 5.72212 35.3578C6.33274 33.4445 6.45486 31.4906 6.53627 22.0464C6.61769 13.0908 6.45486 8.32798 5.96637 6.21119C5.64071 4.86784 5.15222 3.97228 4.33807 3.40237C3.80887 2.9953 3.32038 2.87317 1.97703 2.71034L0.959345 2.62893L0.918637 1.9369L0.87793 1.24487H31.8563L31.9378 2.95459C31.9785 3.89086 32.0192 6.2926 32.0599 8.28727L32.1006 11.8695Z" fill="white"/>
</svg>
