<svg width="130" height="25" viewBox="0 0 130 25" fill="none" xmlns="http://www.w3.org/2000/svg">
<path d="M24.3972 10.3317V9.22727H30.1998V10.3317H27.9519V16.5H26.6451V10.3317H24.3972ZM31.5184 16.5V9.22727H32.8359V12.3061H36.2059V9.22727H37.5269V16.5H36.2059V13.4105H32.8359V16.5H31.5184ZM39.1598 16.5V9.22727H43.8899V10.3317H40.4773V12.3061H43.6449V13.4105H40.4773V15.3956H43.9183V16.5H39.1598ZM48.1145 16.5V9.22727H50.8418C51.4005 9.22727 51.8692 9.33144 52.248 9.53977C52.6292 9.74811 52.9168 10.0346 53.1109 10.3991C53.3074 10.7614 53.4057 11.1733 53.4057 11.6349C53.4057 12.1013 53.3074 12.5156 53.1109 12.8778C52.9144 13.2401 52.6244 13.5253 52.2409 13.7337C51.8574 13.9396 51.3851 14.0426 50.824 14.0426H49.0165V12.9595H50.6465C50.9732 12.9595 51.2407 12.9027 51.449 12.7891C51.6573 12.6754 51.8112 12.5192 51.9107 12.3203C52.0125 12.1214 52.0634 11.893 52.0634 11.6349C52.0634 11.3769 52.0125 11.1496 51.9107 10.9531C51.8112 10.7566 51.6562 10.6039 51.4455 10.495C51.2371 10.3838 50.9684 10.3281 50.6394 10.3281H49.432V16.5H48.1145ZM54.75 16.5V9.22727H56.0675V15.3956H59.2706V16.5H54.75ZM61.8215 16.5H60.4152L62.9756 9.22727H64.602L67.166 16.5H65.7597L63.8172 10.7188H63.7604L61.8215 16.5ZM61.8677 13.6484H65.7029V14.7067H61.8677V13.6484ZM67.0845 9.22727H68.5725L70.3516 12.4446H70.4226L72.2017 9.22727H73.6896L71.044 13.7869V16.5H69.7301V13.7869L67.0845 9.22727ZM83.7283 11.6811H82.4002C82.3623 11.4633 82.2925 11.2704 82.1907 11.1023C82.0889 10.9318 81.9622 10.7874 81.8107 10.669C81.6592 10.5507 81.4864 10.4619 81.2922 10.4027C81.1005 10.3411 80.8933 10.3104 80.6708 10.3104C80.2754 10.3104 79.925 10.4098 79.6196 10.6087C79.3142 10.8052 79.0751 11.094 78.9023 11.4751C78.7295 11.8539 78.6431 12.3168 78.6431 12.8636C78.6431 13.42 78.7295 13.8887 78.9023 14.2699C79.0775 14.6487 79.3166 14.9351 79.6196 15.1293C79.925 15.321 80.2742 15.4169 80.6672 15.4169C80.885 15.4169 81.0886 15.3885 81.278 15.3317C81.4698 15.2725 81.6414 15.1861 81.7929 15.0724C81.9468 14.9588 82.0758 14.8191 82.18 14.6534C82.2865 14.4877 82.3599 14.2983 82.4002 14.0852L83.7283 14.0923C83.6786 14.438 83.5709 14.7623 83.4052 15.0653C83.2418 15.3684 83.0276 15.6359 82.7624 15.8679C82.4973 16.0975 82.1871 16.2775 81.832 16.4077C81.4769 16.5355 81.0827 16.5994 80.6495 16.5994C80.0103 16.5994 79.4397 16.4515 78.9378 16.1555C78.4359 15.8596 78.0406 15.4323 77.7517 14.8736C77.4629 14.3149 77.3185 13.6449 77.3185 12.8636C77.3185 12.08 77.4641 11.41 77.7553 10.8537C78.0465 10.295 78.443 9.86766 78.9449 9.57173C79.4468 9.2758 80.015 9.12784 80.6495 9.12784C81.0543 9.12784 81.4307 9.18466 81.7787 9.2983C82.1267 9.41193 82.4369 9.57884 82.7091 9.79901C82.9814 10.0168 83.2051 10.2843 83.3803 10.6016C83.5579 10.9164 83.6739 11.2763 83.7283 11.6811ZM91.6334 12.8636C91.6334 13.6473 91.4866 14.3184 91.193 14.8771C90.9019 15.4335 90.5041 15.8596 89.9999 16.1555C89.498 16.4515 88.9286 16.5994 88.2918 16.5994C87.6549 16.5994 87.0844 16.4515 86.5801 16.1555C86.0782 15.8572 85.6805 15.4299 85.3869 14.8736C85.0957 14.3149 84.9502 13.6449 84.9502 12.8636C84.9502 12.08 85.0957 11.41 85.3869 10.8537C85.6805 10.295 86.0782 9.86766 86.5801 9.57173C87.0844 9.2758 87.6549 9.12784 88.2918 9.12784C88.9286 9.12784 89.498 9.2758 89.9999 9.57173C90.5041 9.86766 90.9019 10.295 91.193 10.8537C91.4866 11.41 91.6334 12.08 91.6334 12.8636ZM90.3088 12.8636C90.3088 12.312 90.2224 11.8468 90.0496 11.468C89.8791 11.0869 89.6424 10.7992 89.3394 10.6051C89.0363 10.4086 88.6871 10.3104 88.2918 10.3104C87.8964 10.3104 87.5472 10.4086 87.2442 10.6051C86.9412 10.7992 86.7032 11.0869 86.5304 11.468C86.36 11.8468 86.2747 12.312 86.2747 12.8636C86.2747 13.4152 86.36 13.8816 86.5304 14.2628C86.7032 14.6416 86.9412 14.9292 87.2442 15.1257C87.5472 15.3198 87.8964 15.4169 88.2918 15.4169C88.6871 15.4169 89.0363 15.3198 89.3394 15.1257C89.6424 14.9292 89.8791 14.6416 90.0496 14.2628C90.2224 13.8816 90.3088 13.4152 90.3088 12.8636ZM93.0789 9.22727H94.6912L96.8503 14.4972H96.9355L99.0946 9.22727H100.707V16.5H99.4426V11.5036H99.3751L97.3652 16.4787H96.4206L94.4106 11.4929H94.3432V16.5H93.0789V9.22727ZM102.341 16.5V9.22727H105.069C105.627 9.22727 106.096 9.33144 106.475 9.53977C106.856 9.74811 107.144 10.0346 107.338 10.3991C107.534 10.7614 107.633 11.1733 107.633 11.6349C107.633 12.1013 107.534 12.5156 107.338 12.8778C107.141 13.2401 106.851 13.5253 106.468 13.7337C106.084 13.9396 105.612 14.0426 105.051 14.0426H103.243V12.9595H104.873C105.2 12.9595 105.468 12.9027 105.676 12.7891C105.884 12.6754 106.038 12.5192 106.138 12.3203C106.239 12.1214 106.29 11.893 106.29 11.6349C106.29 11.3769 106.239 11.1496 106.138 10.9531C106.038 10.7566 105.883 10.6039 105.672 10.495C105.464 10.3838 105.195 10.3281 104.866 10.3281H103.659V16.5H102.341ZM109.1 16.5H107.694L110.255 9.22727H111.881L114.445 16.5H113.039L111.096 10.7188H111.039L109.1 16.5ZM109.147 13.6484H112.982V14.7067H109.147V13.6484ZM121.579 9.22727V16.5H120.407L116.981 11.5462H116.92V16.5H115.603V9.22727H116.782L120.205 14.1847H120.269V9.22727H121.579ZM122.718 9.22727H124.206L125.985 12.4446H126.056L127.835 9.22727H129.323L126.677 13.7869V16.5H125.363V13.7869L122.718 9.22727Z" fill="white"/>
<g clip-path="url(#clip0_1_1546)">
<path d="M4.1592 4.69851L8.06596 0.791748L19.7918 12.5176L8.06596 24.2378L4.1592 20.3311L11.9727 12.5176L4.1592 4.69851ZM4.1592 16.4188L0.252441 12.512L4.1592 8.60527L8.06596 12.512L4.1592 16.4188Z" fill="#F5B730"/>
</g>
<defs>
<clipPath id="clip0_1_1546">
<rect width="19.889" height="23.4756" fill="white" transform="translate(0.0561523 0.762207)"/>
</clipPath>
</defs>
</svg>
