<svg width="348" height="272" viewBox="0 0 348 272" fill="none" xmlns="http://www.w3.org/2000/svg">
<path d="M269.939 262.582L274.667 254.836H276.91L270.927 264.478V271.236H268.844V264.478L262.915 254.836H265.212L269.939 262.582Z" fill="white"/>
<path d="M244.491 254.836V271.236H242.942L233.781 258.202V271.236H231.751V254.836H233.754L242.488 267.309V254.836H244.491Z" fill="white"/>
<path d="M204.831 254.836H206.808L213.218 271.236H211.081L209.185 266.294H202.427L200.558 271.236H198.421L204.831 254.836ZM205.793 257.454L203.122 264.452H208.464L205.793 257.454Z" fill="white"/>
<path d="M176.63 264.665H172.677V271.236H170.567V254.836H176.63C179.942 254.836 182.105 256.519 182.105 259.751C182.105 262.956 179.942 264.665 176.63 264.665ZM180.022 259.751C180.022 257.881 178.82 256.679 176.603 256.679H172.677V262.796H176.603C178.82 262.796 180.022 261.594 180.022 259.751Z" fill="white"/>
<path d="M143.037 267.576H142.93L137.294 258.629V271.236H135.238V254.836H137.188L143.01 264.265L148.806 254.836H150.649V271.236H148.592V258.629L143.037 267.576Z" fill="white"/>
<path d="M116.28 263.036C116.28 267.977 113.182 271.476 108.855 271.476C104.555 271.476 101.457 267.977 101.457 263.036C101.457 258.068 104.555 254.596 108.855 254.596C113.182 254.596 116.28 258.068 116.28 263.036ZM114.17 263.036C114.17 259.19 112.033 256.492 108.855 256.492C105.703 256.492 103.567 259.19 103.567 263.036C103.567 266.882 105.703 269.579 108.855 269.579C112.033 269.579 114.17 266.882 114.17 263.036Z" fill="white"/>
<path d="M71.0833 263.036C71.0833 257.908 74.3951 254.596 78.7753 254.596C80.6716 254.596 82.1139 255.13 83.1823 256.011V258.228C81.8468 256.999 80.4847 256.492 78.802 256.492C75.4902 256.492 73.1932 259.083 73.1932 263.036C73.1932 266.988 75.4902 269.579 78.802 269.579C80.4847 269.579 81.8468 269.045 83.1823 267.843V270.06C82.1139 270.941 80.6716 271.476 78.7753 271.476C74.3951 271.476 71.0833 268.164 71.0833 263.036Z" fill="white"/>
<g clip-path="url(#clip0_14_16353)">
<path d="M149.536 16.0114L165.548 0L213.604 48.0568L165.548 96.091L149.536 80.0796L181.559 48.0568L149.536 16.0114ZM149.536 64.0455L133.525 48.0342L149.536 32.0228L165.548 48.0342L149.536 64.0455Z" fill="#F5B730"/>
</g>
<g clip-path="url(#clip1_14_16353)">
<path d="M77.5139 135.694V200.017H26.0551V212.882H0.325684V135.694H77.5139ZM51.7845 161.423H26.0551V174.288H51.7845V161.423Z" fill="white"/>
<path d="M167.567 187.153V212.883H90.3789V135.694H116.108V187.153H167.567Z" fill="white"/>
<path d="M257.62 135.694V212.882H231.891V200.017H206.161V212.882H180.432V135.694H257.62ZM231.891 161.423H206.161V174.288H231.891V161.423Z" fill="white"/>
<path d="M347.673 135.694V200.017H321.944V212.882H296.215V200.017H270.485V135.694H296.215V174.288H321.944V135.694H347.673Z" fill="white"/>
</g>
<defs>
<clipPath id="clip0_14_16353">
<rect width="80.0796" height="96.091" fill="white" transform="translate(133.525)"/>
</clipPath>
<clipPath id="clip1_14_16353">
<rect width="347.347" height="77.1883" fill="white" transform="translate(0.328125 135.695)"/>
</clipPath>
</defs>
</svg>
