<svg width="45" height="52" viewBox="0 0 45 52" fill="none" xmlns="http://www.w3.org/2000/svg">
<path d="M11.7293 30.0665C10.171 27.7753 8.97933 25.2513 8.15433 22.4946C7.32933 19.7379 6.91683 16.8918 6.91683 13.9561C6.91683 12.9894 6.96266 12.0228 7.05433 11.0562C7.146 10.0896 7.2835 9.12293 7.46683 8.1563L4.2585 11.9154L2.3335 9.65994L8.75016 2.14172L15.1668 9.65994L13.2418 11.9154L10.2627 8.47851C10.0488 9.37353 9.896 10.2775 9.80433 11.1904C9.71266 12.1034 9.66683 13.0252 9.66683 13.9561C9.66683 16.4621 10.0106 18.8877 10.6981 21.2326C11.3856 23.5776 12.3863 25.7525 13.7002 27.7574L11.7293 30.0665ZM30.6585 44.7271C29.9557 45.0135 29.2453 45.1477 28.5272 45.1298C27.8092 45.1119 27.1141 44.9061 26.4418 44.5122L14.4335 37.9607L15.2585 35.8126C15.5641 35.0966 15.9918 34.5148 16.5418 34.0673C17.0918 33.6198 17.7029 33.3602 18.3752 33.2886L21.4918 33.0201L16.3585 16.5337C16.1752 15.9609 16.1904 15.415 16.4043 14.8958C16.6182 14.3767 16.9696 14.0098 17.4585 13.795C17.9474 13.5802 18.4134 13.5981 18.8564 13.8487C19.2995 14.0993 19.6127 14.511 19.796 15.0838L26.5793 36.9403L21.996 37.3162L28.0002 40.592C28.2141 40.6994 28.4432 40.7621 28.6877 40.78C28.9321 40.7979 29.1613 40.771 29.3752 40.6994L36.571 37.6385C37.5182 37.2446 38.2057 36.5018 38.6335 35.4098C39.0613 34.3179 39.1071 33.217 38.771 32.1072L36.2502 24.052C36.0668 23.4791 36.0821 22.9332 36.296 22.4141C36.5099 21.8949 36.8613 21.528 37.3502 21.3132C37.8391 21.0984 38.305 21.1163 38.7481 21.3669C39.1911 21.6175 39.5043 22.0292 39.6877 22.602L42.2085 30.6572C42.9113 32.9127 42.8425 35.1055 42.0022 37.2357C41.162 39.3659 39.7793 40.8426 37.8543 41.6661L30.6585 44.7271ZM26.5335 30.4961L24.0585 22.3872C23.8752 21.8144 23.8904 21.2684 24.1043 20.7493C24.3182 20.2302 24.6696 19.8632 25.1585 19.6484C25.6474 19.4336 26.1134 19.4515 26.5564 19.7021C26.9995 19.9527 27.3127 20.3645 27.496 20.9373L30.0168 28.9925L26.5335 30.4961ZM31.7127 28.2944L29.8335 22.2261C29.6502 21.6533 29.6654 21.1073 29.8793 20.5882C30.0932 20.0691 30.4446 19.7021 30.9335 19.4873C31.4224 19.2725 31.8884 19.2904 32.3314 19.541C32.7745 19.7916 33.0877 20.2033 33.271 20.7762L35.1502 26.7907L31.7127 28.2944Z" fill="#E8EAED"/>
</svg>
