<svg width="154" height="41" viewBox="0 0 154 41" fill="none" xmlns="http://www.w3.org/2000/svg">
<path d="M47.6021 13.8698C47.5812 12.3926 46.9332 11.222 45.672 10.4555C45.0449 10.0723 44.376 9.70295 43.6722 9.49391C42.0069 8.99918 40.3137 8.60898 38.6344 8.15606C38.1466 8.02367 37.6589 7.87037 37.192 7.6683C36.6834 7.45229 36.4116 7.02028 36.3698 6.46981C36.3489 6.19109 36.335 5.91237 36.3489 5.63365C36.3837 5.02047 36.7879 4.66511 37.4011 4.68601C37.9933 4.70691 38.3278 5.04138 38.3487 5.65456C38.3696 6.19109 38.3487 6.72066 38.3557 7.25719C38.3557 7.43139 38.3905 7.61256 38.4184 7.8216C41.3728 7.8216 44.2854 7.8216 47.3513 7.8216C47.2886 6.82518 47.2816 5.91934 47.1632 5.03441C46.9681 3.5781 46.1667 2.48413 44.8637 1.82914C44.1669 1.48074 43.4144 1.18112 42.6479 1.02782C39.2197 0.331027 35.7706 0.282251 32.3354 0.916337C30.8442 1.18809 29.4158 1.68978 28.1964 2.64439C27.0118 3.56417 26.3499 4.76963 26.322 6.28864C26.315 6.86698 26.315 7.45229 26.3708 8.02367C26.5032 9.44514 27.1373 10.6018 28.3567 11.3683C28.9629 11.7515 29.6039 12.086 30.2659 12.3647C31.7919 12.9988 33.4015 13.3542 35.018 13.7026C35.6521 13.8419 36.2862 13.9952 36.9063 14.1694C37.3941 14.3088 37.7286 14.6293 37.7773 15.1449C37.8191 15.5839 37.8331 16.0299 37.7704 16.4619C37.7425 16.6849 37.5753 16.9566 37.3871 17.0681C36.6485 17.5001 35.8472 17.0472 35.8124 16.1901C35.7915 15.7302 35.8124 15.2634 35.8054 14.7965C35.8054 14.6154 35.7775 14.4342 35.7706 14.267C35.025 14.1137 26.8934 14.1346 26.3778 14.2879C26.3778 14.8871 26.329 15.4864 26.3847 16.0856C26.5798 18.183 27.6738 19.6462 29.6527 20.35C30.6073 20.6845 31.6177 20.9214 32.621 21.0607C35.3455 21.437 38.0839 21.4091 40.8223 21.1513C42.2089 21.0189 43.5816 20.7751 44.8568 20.1619C46.32 19.4581 47.2607 18.3363 47.4837 16.7197C47.6021 15.7721 47.6091 14.8174 47.6021 13.8698Z" fill="white"/>
<path d="M38.8642 24.2172C38.8642 28.2656 38.8642 32.3419 38.8642 36.439C37.4706 36.5923 37.3452 36.4878 37.3452 35.2615C37.3452 31.8262 37.3452 28.391 37.3452 24.9558C37.3452 24.6841 37.3173 24.4123 37.3104 24.1615C36.3697 23.9942 29.5411 24.043 29.0533 24.2172C29.0394 24.3635 29.0185 24.5238 29.0185 24.6841C29.0185 28.2099 29.0045 31.7357 29.0254 35.2684C29.0324 37.5051 30.0846 38.9127 32.2168 39.6304C33.3316 40.0066 34.4814 40.1181 35.645 40.1181C39.2405 40.1181 42.8429 40.1181 46.4384 40.1181C46.6614 40.1181 46.8913 40.0972 47.1004 40.0903C47.2676 39.4771 47.2606 24.6841 47.1143 24.1545C46.2851 24.0151 39.4286 24.057 38.8642 24.2172Z" fill="white"/>
<path d="M64.6807 32.4327C64.2905 32.1121 63.8724 31.7916 63.4195 31.5826C62.6391 31.2272 61.8377 30.9136 61.0155 30.6767C59.6568 30.2796 58.2771 29.973 56.9184 29.5897C55.9847 29.325 55.8244 29.0253 55.901 28.0638C55.9359 27.6039 56.1449 27.3948 56.5909 27.367C57.1274 27.3391 57.3852 27.583 57.427 28.1474C57.4549 28.6003 57.3364 29.0671 57.5315 29.541C60.1167 29.541 62.6809 29.541 65.3496 29.541C65.3496 29.0741 65.3566 28.6421 65.3496 28.2101C65.3217 26.7747 64.6249 25.7574 63.3986 25.0675C62.5554 24.5937 61.6426 24.3359 60.702 24.1826C58.1865 23.7576 55.6641 23.7645 53.1417 24.092C52.0826 24.2314 51.0444 24.4822 50.0619 24.9282C48.3965 25.6947 47.4837 26.921 47.6091 28.8163C47.6161 28.9347 47.6091 29.0462 47.6091 29.1647C47.6022 30.4259 48.1178 31.4362 49.1769 32.0982C49.9365 32.572 50.7517 33.004 51.5948 33.3106C52.7933 33.7426 54.0406 34.0353 55.26 34.3976C55.7477 34.5439 56.2494 34.6694 56.7093 34.8714C57.2877 35.1223 57.5803 36.1257 57.2737 36.6622C57.218 36.7528 57.1135 36.8364 57.0159 36.8782C56.3958 37.1639 55.8383 36.8155 55.8174 36.1326C55.8035 35.7215 55.8174 35.3104 55.8174 34.9272C55.0649 34.753 48.1736 34.7669 47.5743 34.9411C47.5743 35.3104 47.5604 35.7006 47.5743 36.0908C47.644 37.6516 48.3826 38.7944 49.8041 39.4215C50.5427 39.742 51.33 39.9929 52.1244 40.1253C54.7513 40.5782 57.3922 40.5503 60.033 40.2507C61.141 40.1253 62.221 39.8465 63.2104 39.2961C64.2974 38.6899 65.043 37.8119 65.3217 36.5855C65.5308 35.6518 65.5308 34.6972 65.4123 33.7496C65.3287 33.22 65.0848 32.7601 64.6807 32.4327Z" fill="white"/>
<path d="M112.035 12.5391C112.739 12.9781 113.491 13.3822 114.272 13.654C115.582 14.1069 116.94 14.4483 118.271 14.8385C118.696 14.964 119.121 15.0754 119.526 15.2566C120.111 15.5214 120.404 16.4899 120.09 17.0543C120.041 17.1449 119.937 17.2285 119.839 17.2773C119.219 17.563 118.662 17.2146 118.641 16.5317C118.627 16.1206 118.641 15.7095 118.641 15.2566C115.867 15.2566 113.185 15.2566 110.411 15.2566C110.411 15.7235 110.398 16.1346 110.411 16.5457C110.481 18.0786 111.227 19.1935 112.62 19.8206C113.289 20.1203 114.014 20.3502 114.732 20.4896C117.163 20.9564 119.623 20.9355 122.083 20.7474C123.337 20.6498 124.563 20.4129 125.713 19.8555C127.267 19.096 128.103 17.8487 128.222 16.1276C128.249 15.7583 128.229 15.382 128.249 15.0127C128.312 13.7376 127.741 12.8248 126.647 12.2325C126.159 11.9677 125.657 11.7029 125.135 11.5357C123.964 11.1594 122.78 10.825 121.602 10.4905C120.933 10.3024 120.243 10.17 119.581 9.96095C118.766 9.70313 118.606 9.42441 118.641 8.56735C118.662 8.03082 118.891 7.77997 119.386 7.76604C119.923 7.7521 120.153 7.98901 120.167 8.58129C120.174 9.0133 120.174 9.44532 120.181 9.85643C121.052 10.0446 127.33 10.0028 127.838 9.82159C127.838 9.36867 127.859 8.90878 127.831 8.4489C127.776 7.36886 127.309 6.4909 126.459 5.82197C125.769 5.28544 124.968 4.97885 124.131 4.76284C122.222 4.27508 120.278 4.2054 118.327 4.27508C116.655 4.33083 114.982 4.49806 113.408 5.10427C111.269 5.92649 110.286 7.13195 110.37 9.45229C110.404 10.7971 110.913 11.8353 112.035 12.5391Z" fill="white"/>
<path d="M0.289551 17.4514C0.289551 25.0326 0.289551 32.5371 0.289551 40.0764C3.34152 40.0764 6.34472 40.0764 9.34095 40.0764C9.51515 39.3518 9.48728 17.974 9.31308 17.4514C6.33078 17.4514 3.34152 17.4514 0.289551 17.4514Z" fill="white"/>
<path d="M99.054 16.8102C99.1864 18.378 100.002 19.472 101.479 19.9736C102.28 20.2454 103.144 20.4475 103.987 20.4893C105.883 20.5799 107.792 20.552 109.687 20.5729C109.819 20.5729 109.945 20.5171 110.056 20.4893C110.056 18.9563 110.056 17.4582 110.056 15.988C109.959 15.9462 109.924 15.9113 109.882 15.9043C109.373 15.8904 108.865 15.8974 108.356 15.8765C107.562 15.8486 107.367 15.6535 107.36 14.8801C107.353 13.3471 107.36 11.8211 107.36 10.2882C107.36 10.114 107.395 9.9328 107.422 9.73769C108.293 9.5844 109.157 9.78647 109.973 9.61924C110.126 8.59495 110.091 5.06915 109.903 4.51868C109.102 4.51868 108.28 4.51868 107.353 4.51868C107.353 3.73827 107.353 3.04147 107.353 2.2959C104.552 2.2959 101.848 2.2959 99.047 2.2959C99.0331 2.58159 99.0122 2.81153 99.0122 3.04147C99.0122 7.30587 99.0122 11.5703 99.0122 15.8416C99.0122 16.1622 99.0261 16.4897 99.054 16.8102Z" fill="white"/>
<path d="M75.0899 35.4076C74.3234 35.3867 74.1423 35.2056 74.1423 34.4461C74.1353 32.8713 74.1353 31.2896 74.1423 29.7148C74.1423 29.5406 74.1841 29.3595 74.2119 29.1226C75.055 29.1226 75.8564 29.1226 76.6995 29.1226C76.6995 27.4224 76.6995 25.7919 76.6995 24.1196C75.8355 24.029 75.0063 24.1614 74.1213 24.022C74.1213 23.2764 74.1213 22.5866 74.1213 21.855C71.3202 21.855 68.5958 21.855 65.7947 21.855C65.7947 22.1337 65.7947 22.3567 65.7947 22.5796C65.7947 26.8928 65.7947 31.2129 65.8016 35.5261C65.8016 35.7839 65.7947 36.0348 65.8226 36.2926C65.9619 37.9091 66.7772 39.031 68.3171 39.5675C68.8815 39.7626 69.4807 39.9507 70.073 39.9786C72.2261 40.0622 74.3861 40.0692 76.5392 40.104C76.595 40.104 76.6577 40.0413 76.7064 40.0135C76.8458 38.9474 76.7901 35.8884 76.6089 35.4146C76.1072 35.4076 75.5985 35.4216 75.0899 35.4076Z" fill="white"/>
<path d="M114.132 24.057C114.132 23.2696 114.132 22.5798 114.132 21.8481C111.338 21.8481 108.62 21.8481 105.84 21.8481C105.826 22.106 105.805 22.2662 105.805 22.4265C105.805 26.8302 105.805 31.234 105.812 35.6447C105.812 36.014 105.847 36.3833 105.91 36.7526C106.119 38.0487 106.837 38.9754 108.056 39.4493C108.718 39.7071 109.429 39.944 110.133 39.9788C112.237 40.0764 114.348 40.0694 116.459 40.1042C116.522 40.1042 116.585 40.0485 116.655 40.0137C116.655 38.5155 116.655 37.0174 116.655 35.5472C116.571 35.4984 116.536 35.4566 116.494 35.4496C116.034 35.4357 115.568 35.4287 115.108 35.4148C114.341 35.3869 114.167 35.2197 114.16 34.4602C114.153 32.8854 114.16 31.3037 114.16 29.7289C114.16 29.5478 114.195 29.3736 114.216 29.1645C115.045 29.06 115.853 29.2133 116.682 29.067C116.696 27.3877 116.724 25.7781 116.668 24.064C115.784 24.057 114.989 24.057 114.132 24.057Z" fill="white"/>
<path d="M19.7788 20.7889C19.7788 27.1925 19.7788 33.603 19.7788 40.0483C20.831 40.2016 27.6248 40.1459 28.0916 39.9996C28.238 39.1007 28.1892 21.1791 28.0359 20.7192C27.0116 20.5799 20.2805 20.6356 19.7788 20.7889Z" fill="white"/>
<path d="M18.6998 20.7679C18.6859 20.754 18.665 20.7401 18.6162 20.6982C15.9196 20.6982 13.1951 20.6982 10.4219 20.6982C10.4219 27.1715 10.4219 33.603 10.4219 40.0205C11.1674 40.1668 18.1912 40.1459 18.7138 40.0066C18.7347 39.9438 18.7695 39.8811 18.7695 39.8184C18.7765 33.6239 18.7765 27.4363 18.7765 21.2417C18.7765 21.1024 18.7486 20.97 18.7277 20.8306C18.7347 20.8097 18.7138 20.7888 18.6998 20.7679Z" fill="white"/>
<path d="M94.3507 20.4338C94.3507 20.2457 94.3507 20.0366 94.3507 19.8346C94.3507 18.2598 94.3507 16.6781 94.3507 15.1033C94.3507 14.1069 94.3368 13.1105 94.3577 12.1141C94.3786 11.0131 94.9221 10.3233 95.9952 10.0864C96.4202 9.99579 96.8662 9.98882 97.3051 9.96792C97.6744 9.94702 98.0368 9.96095 98.3852 9.96095C98.5663 9.27809 98.5524 4.89524 98.3643 4.31689C96.8522 4.38657 95.4865 4.81162 94.3856 6.1216C94.3507 5.52932 94.3229 5.06247 94.295 4.56774C91.5217 4.56774 88.8182 4.56774 86.031 4.56774C86.031 9.92611 86.031 15.2009 86.031 20.4687C86.7487 20.6359 93.8142 20.615 94.3507 20.4338Z" fill="white"/>
<path d="M105.151 28.9556C105.151 28.4748 105.095 27.9801 105.004 27.5062C104.795 26.3983 104.217 25.5134 103.214 24.9838C102.607 24.6633 101.945 24.4125 101.277 24.2313C99.9247 23.862 98.5242 23.8132 97.1306 23.8063C95.3676 23.7993 93.6047 23.7993 91.8418 23.8063C91.375 23.8063 90.9151 23.8132 90.4482 23.8481C88.5808 24.0083 86.9921 24.7051 85.926 26.3356C85.8981 26.3844 85.8284 26.4123 85.6821 26.5168C85.6821 25.6737 85.6821 24.9281 85.6821 24.1337C82.874 24.1337 80.1565 24.1337 77.3344 24.1337C77.3344 25.4995 77.3344 26.8164 77.3344 28.1264C77.3344 29.4503 77.3344 30.7742 77.3344 32.0912C77.3344 33.436 77.3205 34.7808 77.3414 36.1256C77.3553 37.4356 77.2647 38.7456 77.3971 40.0695C80.1983 40.0695 82.9297 40.0695 85.71 40.0695C85.7239 39.8047 85.7448 39.5817 85.7448 39.3518C85.7448 37.6098 85.7448 35.8748 85.7448 34.1328C85.7448 33.227 85.7309 32.3211 85.7518 31.4153C85.7796 30.3213 86.3371 29.6454 87.4171 29.4015C87.8213 29.311 88.2463 29.2831 88.6574 29.2831C90.5806 29.2691 92.5108 29.2761 94.4339 29.2761C94.6778 29.2761 94.9217 29.2482 95.2283 29.2343C95.2283 28.4678 95.2283 27.778 95.2283 27.0394C95.5906 27.0394 95.8902 27.0115 96.1829 27.0464C96.5174 27.0812 96.7543 27.2972 96.7752 27.6317C96.8239 28.3424 96.8449 29.0531 96.7543 29.8266C96.4686 29.8266 96.2386 29.8266 96.0087 29.8266C95.0819 29.8266 94.1482 29.8126 93.2215 29.8405C91.7025 29.8823 90.2113 30.0983 88.8456 30.823C87.7237 31.4153 86.9015 32.2723 86.6507 33.5475C86.4555 34.53 86.4486 35.5403 86.6785 36.5228C87.013 37.9791 88.0024 38.878 89.3333 39.4354C90.504 39.9232 91.7443 40.1113 93.0055 40.1113C96.8588 40.1183 100.712 40.1183 104.565 40.1113C104.74 40.1113 104.921 40.0765 105.109 40.0556C105.13 39.8744 105.158 39.735 105.158 39.6026C105.158 36.0559 105.165 32.5092 105.151 28.9556ZM96.7682 36.6064C96.4825 36.6064 96.2386 36.6273 95.9948 36.5995C95.3816 36.5437 95.2283 36.3765 95.2143 35.7703C95.2074 35.2616 95.2074 34.7529 95.2143 34.2373C95.2213 33.429 95.4791 33.1573 96.2874 33.1085C96.4198 33.1015 96.5592 33.1224 96.7682 33.1364C96.7682 34.314 96.7682 35.4149 96.7682 36.6064Z" fill="white"/>
<path d="M145.44 19.8624C145.356 21.263 145.475 22.6427 145.37 24.085C145.07 24.085 144.847 24.085 144.617 24.085C143.809 24.085 142.994 24.0781 142.186 24.092C140.876 24.1199 139.594 24.301 138.381 24.8167C136.556 25.5971 135.58 26.9419 135.601 28.9765C135.622 31.06 135.594 33.1504 135.608 35.2338C135.622 37.4705 136.653 38.878 138.778 39.6097C139.907 39.9999 141.085 40.1183 142.269 40.1183C145.844 40.1183 149.411 40.1183 152.986 40.1183C153.209 40.1183 153.439 40.0974 153.711 40.0835C153.711 33.3246 153.711 26.6144 153.711 19.8555C150.951 19.8624 148.227 19.8624 145.44 19.8624ZM145.349 36.7249C145.084 36.7249 144.854 36.7458 144.631 36.718C144.116 36.6553 143.955 36.4811 143.955 35.9445C143.949 33.4012 143.949 30.8579 143.955 28.3076C143.955 27.7362 144.172 27.5202 144.743 27.4715C144.924 27.4575 145.112 27.4715 145.279 27.4715C145.44 27.9592 145.502 35.4777 145.349 36.7249Z" fill="white"/>
<path d="M66.3878 8.88073C66.353 6.95757 65.3426 5.61275 63.5031 5.06228C62.6042 4.79053 61.6426 4.60936 60.7019 4.59543C56.6884 4.53271 52.6748 4.54665 48.6613 4.53271C48.5289 4.53271 48.3965 4.57452 48.285 4.59543C48.1247 5.42462 48.1666 22.754 48.3198 23.2348C49.2048 23.3671 56.0125 23.3253 56.549 23.1651C56.549 22.3568 56.549 21.5276 56.549 20.6148C56.8626 20.5939 57.0647 20.573 57.2667 20.573C58.4513 20.5451 59.6358 20.5521 60.8134 20.4894C61.8586 20.4336 62.8829 20.2176 63.8445 19.7786C65.4471 19.054 66.3669 17.8276 66.3948 16.0438C66.4226 13.6608 66.4296 11.2707 66.3878 8.88073ZM58.1447 16.2947C58.1447 16.7963 57.9078 17.0681 57.42 17.1517C57.1761 17.1935 56.9183 17.1587 56.6814 17.1587C56.5211 16.643 56.4724 9.09674 56.6187 7.94702C56.8974 7.94702 57.1483 7.91915 57.3921 7.95399C57.9008 8.02367 58.1377 8.28148 58.1447 8.78318C58.1517 11.2916 58.1517 13.7931 58.1447 16.2947Z" fill="white"/>
<path d="M85.3473 12.4973C85.3403 12.4973 85.3403 12.4973 85.3334 12.4973C85.3334 11.4312 85.3613 10.3651 85.3264 9.29897C85.2707 7.75208 84.546 6.56753 83.25 5.7244C82.5183 5.25755 81.724 4.95096 80.8809 4.74889C78.2958 4.13571 75.6898 4.1148 73.0698 4.44927C71.725 4.6165 70.422 4.92309 69.2444 5.63382C67.8996 6.44211 67.0774 7.61273 67.0426 9.20142C66.9938 11.4242 67.0008 13.654 67.0426 15.8767C67.0704 17.354 67.8299 18.4619 69.0424 19.2771C69.8855 19.8415 70.8262 20.162 71.8017 20.3781C73.9269 20.8449 76.073 20.8937 78.24 20.7195C79.7312 20.601 81.1875 20.3502 82.5462 19.6952C84.3648 18.8242 85.3612 17.4097 85.3473 15.3541C85.3403 14.3995 85.3473 13.4519 85.3473 12.4973ZM75.9197 17.2912C75.5086 17.124 75.4041 16.8104 75.411 16.4063C75.425 15.1103 75.418 13.8073 75.418 12.5112C75.418 11.2361 75.411 9.96093 75.418 8.68579C75.418 8.08655 75.7037 7.77299 76.2124 7.76602C76.7419 7.75905 77.0834 8.11442 77.0834 8.7067C77.0903 11.2779 77.0624 13.856 77.1043 16.4272C77.1043 17.124 76.3935 17.4794 75.9197 17.2912Z" fill="white"/>
<path d="M75.4112 12.5041C75.4112 11.229 75.4043 9.95385 75.4112 8.67871C75.4112 9.95385 75.4112 11.229 75.4112 12.5041C75.4112 13.8002 75.4182 15.1032 75.4043 16.3992C75.4182 15.1032 75.4112 13.8071 75.4112 12.5041Z" fill="white"/>
<path d="M134.966 33.8957C134.012 33.7493 127.281 33.8051 126.737 33.9793C126.737 34.6482 126.751 35.338 126.73 36.0279C126.716 36.5644 126.479 36.7734 125.943 36.7665C125.42 36.7665 125.155 36.5365 125.148 36.0279C125.135 35.2196 125.142 34.4043 125.148 33.5891C125.148 33.4567 125.204 33.3313 125.246 33.1362C128.507 33.1362 131.747 33.1362 134.987 33.1362C135.029 32.9829 135.078 32.8993 135.078 32.8156C135.071 31.422 135.099 30.0285 135.036 28.6418C134.98 27.4503 134.423 26.4748 133.51 25.7014C132.751 25.0603 131.873 24.6353 130.918 24.3984C127.573 23.5552 124.208 23.5483 120.87 24.4123C120.187 24.5865 119.518 24.914 118.912 25.2903C117.693 26.0428 116.968 27.1716 116.933 28.614C116.877 30.8367 116.864 33.0665 116.919 35.2893C116.961 36.9825 117.832 38.2158 119.295 39.045C120.111 39.5049 120.989 39.8045 121.908 39.9717C124.675 40.4804 127.448 40.4664 130.214 39.9508C131.336 39.7418 132.409 39.3585 133.336 38.6548C134.764 37.5956 135.489 35.4635 134.966 33.8957ZM125.183 27.6524C125.211 27.304 125.615 27.0531 126.013 27.0671C126.451 27.081 126.786 27.3458 126.807 27.7708C126.835 28.3422 126.814 28.9136 126.814 29.5686C126.235 29.5686 125.762 29.5686 125.197 29.5686C125.121 28.9206 125.128 28.2865 125.183 27.6524Z" fill="white"/>
</svg>
