<svg width="32" height="32" viewBox="0 0 32 32" fill="none" xmlns="http://www.w3.org/2000/svg">
<g clip-path="url(#clip0_609_4835)">
<path d="M27.06 22.92C26.78 21.86 26.09 20.79 25.26 20.13C24.8 19.76 24.13 19.41 23.54 19.21L23.33 19.15L23.3 19.12H23.21C23.21 19.12 23.19 19.12 23.18 19.12L22.96 19.07C22.74 19.04 22.49 19.01 22.22 19C21.83 18.98 21.47 18.99 21.21 19.03C19.5 19.3 18.02 20.38 17.27 21.92C17.06 22.35 16.93 22.68 16.86 23.03C16.78 23.38 16.75 23.74 16.75 24.24C16.75 24.74 16.78 25.1 16.86 25.44C16.94 25.79 17.06 26.12 17.28 26.55C17.8 27.61 18.61 28.41 19.66 28.93C20.09 29.14 20.42 29.27 20.77 29.34C21.12 29.41 21.48 29.45 21.98 29.45C22.48 29.45 22.84 29.42 23.19 29.34C23.54 29.26 23.87 29.14 24.3 28.92C25.68 28.24 26.67 27.03 27.07 25.52C27.16 25.18 27.21 24.72 27.21 24.23C27.21 23.74 27.16 23.27 27.07 22.93L27.06 22.92ZM24.84 25.65C24.75 25.84 24.69 25.95 24.62 26.05C24.54 26.16 24.43 26.27 24.24 26.47C23.89 26.82 23.72 26.93 23.48 27.06C22.53 27.55 21.44 27.55 20.49 27.06C20.01 26.81 19.4 26.2 19.14 25.71C18.86 25.16 18.76 24.69 18.79 24.06C18.81 23.6 18.89 23.24 19.04 22.92C19.18 22.6 19.41 22.29 19.74 21.96C20.11 21.59 20.23 21.51 20.52 21.36C21.01 21.12 21.5 21 22 21C22.25 21 22.5 21.03 22.74 21.09C23.33 21.23 23.75 21.48 24.24 21.96C24.72 22.45 24.97 22.87 25.11 23.46C25.29 24.21 25.21 24.9 24.85 25.65H24.84Z" fill="#4000C8"/>
<path d="M8.46999 10C8.60999 10.09 8.80999 10.16 9.00999 10.16C9.20999 10.16 9.41999 10.1 9.61999 9.94003C9.68999 9.88003 9.73999 9.80003 9.76999 9.76003C9.79999 9.72003 9.82999 9.67003 9.85999 9.61003C9.91999 9.50003 9.98999 9.37003 10.06 9.24003C10.59 8.16003 11.87 7.43003 13.48 7.28003C13.7 7.26003 13.89 7.24003 14.04 7.20003C14.27 7.13003 14.41 7.01003 14.52 6.88003C14.59 6.80003 14.67 6.68003 14.72 6.52003C14.76 6.39003 14.77 6.24003 14.74 6.09003V6.07003C14.7 5.87003 14.62 5.71003 14.49 5.57003C14.36 5.43003 14.19 5.33003 13.99 5.28003C13.67 5.20003 13.27 5.24003 12.88 5.30003C11.15 5.55003 9.60999 6.36003 8.75999 7.48003C8.59999 7.69003 8.42999 7.97003 8.27999 8.24003C8.10999 8.55003 8.00999 8.80003 7.97999 8.99003C7.88999 9.47003 8.17999 9.84003 8.44999 10.01L8.46999 10Z" fill="#4000C8"/>
<path d="M22.14 12.65C22.32 11.63 22.28 10.16 22.05 9.17002C21.63 7.38002 20.87 6.00002 19.58 4.71002C17.62 2.73002 14.93 1.76002 12.19 2.05002C11.56 2.12002 10.91 2.26002 10.32 2.45002C9.61 2.68002 8.45 3.27002 7.8 3.73002C7.1 4.23002 6.24 5.10002 5.74 5.80002C5.31 6.41002 4.7 7.58002 4.47 8.26002C3.74 10.49 3.88 12.87 4.86 14.98C5.71 16.83 7.25 18.41 9.09 19.32C10.39 19.96 11.39 20.21 12.91 20.25C13.11 20.25 13.27 20.25 13.42 20.25C13.91 20.25 14.19 20.23 14.66 20.15C18.49 19.5 21.51 16.49 22.16 12.65H22.14ZM6.14 9.82002C6.78 6.80002 9.06 4.61002 12.08 4.11002C12.27 4.08002 12.58 4.06002 12.94 4.06002C13.06 4.06002 13.18 4.06002 13.3 4.06002C13.82 4.07002 14.3 4.12002 14.55 4.17002C18.4 5.00002 20.84 8.66002 20.1 12.5C19.83 13.88 19.15 15.15 18.14 16.15C16.76 17.53 14.97 18.28 13.01 18.24C11.08 18.21 9.27 17.4 7.93 15.97C7.02 15 6.44 13.85 6.13 12.47C6.08 12.22 6.04 11.69 6.04 11.14C6.04 10.58 6.07 10.06 6.13 9.81002L6.14 9.82002Z" fill="#4000C8"/>
</g>
<defs>
<clipPath id="clip0_609_4835">
<rect width="23.2" height="27.44" fill="white" transform="translate(4 2)"/>
</clipPath>
</defs>
</svg>
