<svg width="404" height="259" viewBox="0 0 404 259" fill="none" xmlns="http://www.w3.org/2000/svg">
<mask id="mask0_2255_16544" style="mask-type:alpha" maskUnits="userSpaceOnUse" x="0" y="0" width="404" height="259">
<rect x="0.666504" y="0.179932" width="403" height="258" fill="#D9D9D9"/>
</mask>
<g mask="url(#mask0_2255_16544)">
<g clip-path="url(#clip0_2255_16544)">
<path d="M264.255 75.0846L261.271 70.9424L257.129 73.9263L260.113 78.0685L264.255 75.0846Z" fill="#EFCB42"/>
<path d="M244.088 75.4626L241.104 71.3204L236.962 74.3043L239.946 78.4465L244.088 75.4626Z" fill="#D2005E"/>
<path d="M250.797 84.778L247.813 80.6359L243.671 83.6198L246.655 87.7619L250.797 84.778Z" fill="#4000C8"/>
<path d="M257.506 94.0932L254.522 89.951L250.38 92.9349L253.364 97.0771L257.506 94.0932Z" fill="#4000C8"/>
<path d="M223.92 75.8397L220.936 71.6976L216.794 74.6815L219.778 78.8236L223.92 75.8397Z" fill="#4000C8"/>
<path d="M230.629 85.155L227.645 81.0128L223.503 83.9967L226.487 88.1389L230.629 85.155Z" fill="#38B763"/>
<path d="M237.339 94.4704L234.355 90.3282L230.213 93.3122L233.197 97.4543L237.339 94.4704Z" fill="#D2005E"/>
<path d="M244.049 103.787L241.065 99.6447L236.923 102.629L239.906 106.771L244.049 103.787Z" fill="#EFCB42"/>
<path d="M250.763 113.104L247.779 108.962L243.636 111.946L246.62 116.088L250.763 113.104Z" fill="#D2005E"/>
<path d="M200.397 71.5625L197.413 67.4203L193.271 70.4042L196.255 74.5464L200.397 71.5625Z" fill="#4000C8"/>
<path d="M207.109 80.872L204.125 76.7298L199.983 79.7137L202.967 83.8559L207.109 80.872Z" fill="#4000C8"/>
<path d="M213.818 90.1872L210.834 86.045L206.692 89.0289L209.676 93.1711L213.818 90.1872Z" fill="#4000C8"/>
<path d="M220.527 99.5027L217.543 95.3605L213.401 98.3444L216.385 102.487L220.527 99.5027Z" fill="#D2005E"/>
<path d="M227.243 108.82L224.259 104.678L220.117 107.662L223.101 111.804L227.243 108.82Z" fill="#4000C8"/>
<path d="M233.952 118.136L230.968 113.994L226.826 116.978L229.81 121.12L233.952 118.136Z" fill="#4000C8"/>
<path d="M240.66 127.452L237.676 123.31L233.534 126.294L236.518 130.436L240.66 127.452Z" fill="#4000C8"/>
<path d="M247.369 136.767L244.385 132.625L240.243 135.609L243.227 139.751L247.369 136.767Z" fill="#38B763"/>
<path d="M180.233 71.9343L177.249 67.7921L173.107 70.776L176.091 74.9182L180.233 71.9343Z" fill="#4000C8"/>
<path d="M186.942 81.2495L183.958 77.1074L179.816 80.0913L182.8 84.2334L186.942 81.2495Z" fill="#D2005E"/>
<path d="M193.651 90.5651L190.667 86.423L186.525 89.4069L189.509 93.549L193.651 90.5651Z" fill="#38B763"/>
<path d="M200.366 99.8826L197.382 95.7404L193.24 98.7243L196.224 102.866L200.366 99.8826Z" fill="#4000C8"/>
<path d="M207.075 109.198L204.091 105.056L199.949 108.04L202.933 112.182L207.075 109.198Z" fill="#4000C8"/>
<path d="M213.784 118.513L210.8 114.371L206.658 117.355L209.642 121.497L213.784 118.513Z" fill="#EFCB42"/>
<path d="M220.493 127.829L217.509 123.687L213.367 126.671L216.351 130.813L220.493 127.829Z" fill="#D2005E"/>
<path d="M227.203 137.145L224.219 133.003L220.077 135.987L223.061 140.129L227.203 137.145Z" fill="#38B763"/>
<path d="M233.918 146.463L230.934 142.32L226.792 145.304L229.776 149.446L233.918 146.463Z" fill="#4000C8"/>
<path d="M240.627 155.778L237.643 151.636L233.501 154.62L236.485 158.762L240.627 155.778Z" fill="#D2005E"/>
<path d="M193.617 118.891L190.633 114.749L186.491 117.733L189.475 121.875L193.617 118.891Z" fill="#4000C8"/>
<path d="M200.326 128.207L197.342 124.065L193.2 127.049L196.184 131.191L200.326 128.207Z" fill="#D2005E"/>
<path d="M180.159 128.585L177.175 124.443L173.033 127.426L176.017 131.569L180.159 128.585Z" fill="#4000C8"/>
<path d="M186.868 137.9L183.884 133.758L179.742 136.742L182.726 140.884L186.868 137.9Z" fill="#4000C8"/>
<path d="M166.708 138.279L163.724 134.137L159.582 137.121L162.566 141.263L166.708 138.279Z" fill="#D2005E"/>
<path d="M173.416 147.595L170.432 143.453L166.29 146.437L169.274 150.579L173.416 147.595Z" fill="#EFCB42"/>
<path d="M153.249 147.973L150.265 143.83L146.123 146.814L149.107 150.956L153.249 147.973Z" fill="#4000C8"/>
<path d="M159.958 157.288L156.974 153.146L152.832 156.13L155.816 160.272L159.958 157.288Z" fill="#38B763"/>
<path d="M139.792 157.666L136.808 153.523L132.666 156.507L135.65 160.649L139.792 157.666Z" fill="#EFCB42"/>
<path d="M146.501 166.981L143.517 162.839L139.375 165.823L142.359 169.965L146.501 166.981Z" fill="#D2005E"/>
<path d="M24.894 -252.837L255.468 67.2591" stroke="url(#paint0_linear_2255_16544)" stroke-width="1.27565"/>
<path d="M265.909 81.7493L496.482 401.845" stroke="url(#paint1_linear_2255_16544)" stroke-width="1.27565"/>
<path d="M11.437 -243.143L235.302 67.637" stroke="url(#paint2_linear_2255_16544)" stroke-width="1.27565"/>
<path d="M259.166 100.76L483.03 411.54" stroke="url(#paint3_linear_2255_16544)" stroke-width="1.27565"/>
<path d="M-2.01416 -233.449L215.141 68.0159" stroke="url(#paint4_linear_2255_16544)" stroke-width="1.27565"/>
<path d="M252.417 119.769L469.572 421.234" stroke="url(#paint5_linear_2255_16544)" stroke-width="1.27565"/>
<path d="M-15.4731 -223.755L191.62 63.7327" stroke="url(#paint6_linear_2255_16544)" stroke-width="1.27565"/>
<path d="M249.029 143.435L456.122 430.923" stroke="url(#paint7_linear_2255_16544)" stroke-width="1.27565"/>
<path d="M-28.9312 -214.062L171.446 64.1086" stroke="url(#paint8_linear_2255_16544)" stroke-width="1.27565"/>
<path d="M242.28 162.443L442.657 440.613" stroke="url(#paint9_linear_2255_16544)" stroke-width="1.27565"/>
<path d="M-42.3833 -204.367L184.837 111.068" stroke="url(#paint10_linear_2255_16544)" stroke-width="1.27565"/>
<path d="M201.987 134.874L429.207 450.309" stroke="url(#paint11_linear_2255_16544)" stroke-width="1.27565"/>
<path d="M-55.8413 -194.675L171.379 120.76" stroke="url(#paint12_linear_2255_16544)" stroke-width="1.27565"/>
<path d="M188.528 144.567L415.748 460.002" stroke="url(#paint13_linear_2255_16544)" stroke-width="1.27565"/>
<path d="M-69.2983 -184.981L157.922 130.454" stroke="url(#paint14_linear_2255_16544)" stroke-width="1.27565"/>
<path d="M175.07 154.26L402.29 469.695" stroke="url(#paint15_linear_2255_16544)" stroke-width="1.27565"/>
<path d="M-82.7563 -175.288L144.464 140.147" stroke="url(#paint16_linear_2255_16544)" stroke-width="1.27565"/>
<path d="M161.618 163.955L388.838 479.39" stroke="url(#paint17_linear_2255_16544)" stroke-width="1.27565"/>
<path d="M-96.2075 -165.599L131.012 149.836" stroke="url(#paint18_linear_2255_16544)" stroke-width="1.27565"/>
<path d="M148.16 173.648L375.379 489.083" stroke="url(#paint19_linear_2255_16544)" stroke-width="1.27565"/>
</g>
<rect x="7.39893" y="0.179932" width="396.267" height="258" fill="url(#paint20_linear_2255_16544)"/>
<rect x="7.39893" y="0.179932" width="396.267" height="258" fill="url(#paint21_linear_2255_16544)"/>
</g>
<defs>
<linearGradient id="paint0_linear_2255_16544" x1="-9.8162" y1="-138.209" x2="290.178" y2="-47.3684" gradientUnits="userSpaceOnUse">
<stop offset="0.545" stop-color="#E70071"/>
<stop offset="1" stop-color="#4F0DCF"/>
</linearGradient>
<linearGradient id="paint1_linear_2255_16544" x1="231.198" y1="196.377" x2="531.192" y2="287.218" gradientUnits="userSpaceOnUse">
<stop offset="0.545" stop-color="#E70071"/>
<stop offset="1" stop-color="#4F0DCF"/>
</linearGradient>
<linearGradient id="paint2_linear_2255_16544" x1="-22.263" y1="-131.852" x2="269.002" y2="-43.6544" gradientUnits="userSpaceOnUse">
<stop offset="0.545" stop-color="#E70071"/>
<stop offset="1" stop-color="#4F0DCF"/>
</linearGradient>
<linearGradient id="paint3_linear_2255_16544" x1="225.465" y1="212.051" x2="516.73" y2="300.249" gradientUnits="userSpaceOnUse">
<stop offset="0.545" stop-color="#E70071"/>
<stop offset="1" stop-color="#4F0DCF"/>
</linearGradient>
<linearGradient id="paint4_linear_2255_16544" x1="-34.704" y1="-125.493" x2="247.831" y2="-39.9393" gradientUnits="userSpaceOnUse">
<stop offset="0.545" stop-color="#E70071"/>
<stop offset="1" stop-color="#4F0DCF"/>
</linearGradient>
<linearGradient id="paint5_linear_2255_16544" x1="219.727" y1="227.724" x2="502.262" y2="313.278" gradientUnits="userSpaceOnUse">
<stop offset="0.545" stop-color="#E70071"/>
<stop offset="1" stop-color="#4F0DCF"/>
</linearGradient>
<linearGradient id="paint6_linear_2255_16544" x1="-46.6472" y1="-120.806" x2="222.794" y2="-39.2168" gradientUnits="userSpaceOnUse">
<stop offset="0.545" stop-color="#E70071"/>
<stop offset="1" stop-color="#4F0DCF"/>
</linearGradient>
<linearGradient id="paint7_linear_2255_16544" x1="217.855" y1="246.384" x2="487.296" y2="327.973" gradientUnits="userSpaceOnUse">
<stop offset="0.545" stop-color="#E70071"/>
<stop offset="1" stop-color="#4F0DCF"/>
</linearGradient>
<linearGradient id="paint8_linear_2255_16544" x1="-59.095" y1="-114.449" x2="201.61" y2="-35.5049" gradientUnits="userSpaceOnUse">
<stop offset="0.545" stop-color="#E70071"/>
<stop offset="1" stop-color="#4F0DCF"/>
</linearGradient>
<linearGradient id="paint9_linear_2255_16544" x1="212.116" y1="262.056" x2="472.821" y2="341" gradientUnits="userSpaceOnUse">
<stop offset="0.545" stop-color="#E70071"/>
<stop offset="1" stop-color="#4F0DCF"/>
</linearGradient>
<linearGradient id="paint10_linear_2255_16544" x1="-76.588" y1="-91.4091" x2="219.041" y2="-1.88983" gradientUnits="userSpaceOnUse">
<stop offset="0.545" stop-color="#E70071"/>
<stop offset="1" stop-color="#4F0DCF"/>
</linearGradient>
<linearGradient id="paint11_linear_2255_16544" x1="167.782" y1="247.832" x2="463.411" y2="337.351" gradientUnits="userSpaceOnUse">
<stop offset="0.545" stop-color="#E70071"/>
<stop offset="1" stop-color="#4F0DCF"/>
</linearGradient>
<linearGradient id="paint12_linear_2255_16544" x1="-90.046" y1="-81.7167" x2="205.583" y2="7.80255" gradientUnits="userSpaceOnUse">
<stop offset="0.545" stop-color="#E70071"/>
<stop offset="1" stop-color="#4F0DCF"/>
</linearGradient>
<linearGradient id="paint13_linear_2255_16544" x1="154.323" y1="257.525" x2="449.952" y2="347.044" gradientUnits="userSpaceOnUse">
<stop offset="0.545" stop-color="#E70071"/>
<stop offset="1" stop-color="#4F0DCF"/>
</linearGradient>
<linearGradient id="paint14_linear_2255_16544" x1="-103.503" y1="-72.0234" x2="192.126" y2="17.4958" gradientUnits="userSpaceOnUse">
<stop offset="0.545" stop-color="#E70071"/>
<stop offset="1" stop-color="#4F0DCF"/>
</linearGradient>
<linearGradient id="paint15_linear_2255_16544" x1="140.865" y1="267.218" x2="436.494" y2="356.737" gradientUnits="userSpaceOnUse">
<stop offset="0.545" stop-color="#E70071"/>
<stop offset="1" stop-color="#4F0DCF"/>
</linearGradient>
<linearGradient id="paint16_linear_2255_16544" x1="-116.961" y1="-62.3302" x2="178.668" y2="27.189" gradientUnits="userSpaceOnUse">
<stop offset="0.545" stop-color="#E70071"/>
<stop offset="1" stop-color="#4F0DCF"/>
</linearGradient>
<linearGradient id="paint17_linear_2255_16544" x1="127.413" y1="276.913" x2="423.042" y2="366.432" gradientUnits="userSpaceOnUse">
<stop offset="0.545" stop-color="#E70071"/>
<stop offset="1" stop-color="#4F0DCF"/>
</linearGradient>
<linearGradient id="paint18_linear_2255_16544" x1="-130.412" y1="-52.6414" x2="165.217" y2="36.8779" gradientUnits="userSpaceOnUse">
<stop offset="0.545" stop-color="#E70071"/>
<stop offset="1" stop-color="#4F0DCF"/>
</linearGradient>
<linearGradient id="paint19_linear_2255_16544" x1="113.955" y1="286.606" x2="409.584" y2="376.125" gradientUnits="userSpaceOnUse">
<stop offset="0.545" stop-color="#E70071"/>
<stop offset="1" stop-color="#4F0DCF"/>
</linearGradient>
<linearGradient id="paint20_linear_2255_16544" x1="205.533" y1="0.179932" x2="205.533" y2="258.18" gradientUnits="userSpaceOnUse">
<stop offset="0.443454" stop-color="white" stop-opacity="0"/>
<stop offset="0.640951" stop-color="white" stop-opacity="0.87"/>
<stop offset="0.810942" stop-color="white"/>
</linearGradient>
<linearGradient id="paint21_linear_2255_16544" x1="18.5252" y1="138.769" x2="18.5252" y2="0.179932" gradientUnits="userSpaceOnUse">
<stop offset="0.443454" stop-color="white" stop-opacity="0"/>
<stop offset="0.761445" stop-color="white" stop-opacity="0.92"/>
<stop offset="0.988239" stop-color="white"/>
</linearGradient>
<clipPath id="clip0_2255_16544">
<rect width="549.997" height="438.362" fill="white" transform="matrix(0.961062 0.276332 -0.303828 0.952727 65.644 -183.802)"/>
</clipPath>
</defs>
</svg>
