<svg width="80" height="80" viewBox="0 0 92 93" fill="none" xmlns="http://www.w3.org/2000/svg">
<path d="M51.5152 11.2754C35.6208 11.2754 23.3418 22.4201 23.3418 39.2381H51.5152V11.2754Z" fill="#D2005E"/>
<path d="M82.7864 39.238H51.5151V63.6944H82.7864V39.238Z" fill="#EFCB42"/>
<path d="M67.3011 57.8308C70.5079 57.8308 73.1075 55.0801 73.1075 51.687C73.1075 48.2939 70.5079 45.5432 67.3011 45.5432C64.0943 45.5432 61.4946 48.2939 61.4946 51.687C61.4946 55.0801 64.0943 57.8308 67.3011 57.8308Z" fill="#4000C8"/>
<path d="M67.3014 34.7969C71.4811 34.7969 74.8694 31.2117 74.8694 26.7891C74.8694 22.3666 71.4811 18.7814 67.3014 18.7814C63.1217 18.7814 59.7334 22.3666 59.7334 26.7891C59.7334 31.2117 63.1217 34.7969 67.3014 34.7969Z" fill="#38B763"/>
<path d="M51.5156 13.4825H82.7868V91.8108H8.75586V13.4825H29.0804" stroke="#4000C8" stroke-width="2" stroke-miterlimit="10"/>
<path d="M51.5157 0.235352V63.6945H44.4292" stroke="#4000C8" stroke-width="2" stroke-miterlimit="10"/>
<path d="M0 64.3313H31.7889" stroke="#4000C8" stroke-width="2" stroke-miterlimit="10"/>
<path d="M8.75586 39.238H92.0001" stroke="#4000C8" stroke-width="2" stroke-miterlimit="10"/>
<path d="M23.7192 39.2381V22.1356" stroke="#4000C8" stroke-width="2" stroke-miterlimit="10"/>
<path d="M30.8198 63.911C30.8198 73.4473 39.092 81.1748 48.1046 81.1748C57.1172 81.1748 64.4203 73.4473 64.4203 63.911" stroke="#4000C8" stroke-width="2" stroke-miterlimit="10"/>
<path d="M36.8 49.78H24V53.78H36.8V49.78Z" fill="#A1A1AA"/>
</svg>
