<svg width="80" height="80" viewBox="0 0 81 81" fill="none" xmlns="http://www.w3.org/2000/svg">
<path d="M36.4089 17.4272H6.15381V44.5374H36.4089V17.4272Z" fill="#D2005E"/>
<path d="M60.7206 44.5411H21.2812V72.7739H60.7206V44.5411Z" fill="#4000C8"/>
<path d="M74.8351 6.76111H60.7056V32.7487H74.8351V6.76111Z" fill="#A1A1AA"/>
<path d="M74.8351 32.7488H60.7056V59.859H74.8351V32.7488Z" fill="#EFCB42"/>
<path d="M60.7057 32.7488H46.5762V59.859H60.7057V32.7488Z" fill="#38B763"/>
<path d="M74.9549 6.76111H6.15381V72.7738H74.9549V6.76111Z" stroke="#4000C8" stroke-width="2" stroke-miterlimit="10"/>
<path d="M0.666504 17.4274H36.409V44.5412H6.15384" stroke="#4000C8" stroke-width="2" stroke-miterlimit="10"/>
<path d="M16.9902 6.76111V17.4273" stroke="#4000C8" stroke-width="2" stroke-miterlimit="10"/>
<path d="M60.7207 0.179932V72.7739" stroke="#4000C8" stroke-width="2" stroke-miterlimit="10"/>
<path d="M80.6664 59.8267H46.5762V32.7882H74.9548" stroke="#4000C8" stroke-width="2" stroke-miterlimit="10"/>
<path d="M46.5765 32.7882H36.4092" stroke="#4000C8" stroke-width="2" stroke-miterlimit="10"/>
<path d="M21.1431 44.5411V80.18" stroke="#4000C8" stroke-width="2" stroke-miterlimit="10"/>
</svg>
