<svg width="80" height="80" viewBox="0 0 82 82" fill="none" xmlns="http://www.w3.org/2000/svg">
<path d="M24.7812 37.5575V24.1599H38.4516" stroke="#38B763" stroke-width="2" stroke-miterlimit="10"/>
<path d="M58.6979 44.8067C58.7627 37.947 58.7627 31.1128 58.7627 24.3378C51.8498 24.3378 45.3689 24.3378 38.4517 24.1599" stroke="#D2005E" stroke-width="2" stroke-miterlimit="10"/>
<path d="M43.9473 57.3997C48.8252 57.3658 54.0099 57.3658 58.7626 57.3658C58.7626 53.5549 58.7626 48.715 58.6978 44.8066" stroke="#38B763" stroke-width="2" stroke-miterlimit="10"/>
<path d="M17.2852 37.5574C17.2852 30.1176 17.2852 24.1556 17.2852 16.7158C25.235 16.7158 30.5018 16.7158 38.4517 16.8556" stroke="#4000C8" stroke-width="2" stroke-miterlimit="10"/>
<path d="M41.7181 64.5641H17.2852V40.4917" stroke="#EFCB42" stroke-width="2" stroke-miterlimit="10"/>
<path d="M66.151 44.8066C66.1078 52.0517 66.1078 57.3658 66.1078 64.5642H44.2197" stroke="#4000C8" stroke-width="2" stroke-miterlimit="10"/>
<path d="M41.9858 16.8556C50.1215 16.7158 57.8986 16.7158 66.1077 16.7158C66.1077 25.1846 66.1077 33.2299 66.1509 41.5928" stroke="#EFCB42" stroke-width="2" stroke-miterlimit="10"/>
<path d="M43.7746 57.3996H24.7812V37.5574" stroke="#D2005E" stroke-width="2" stroke-miterlimit="10"/>
<path d="M74.1485 9.0177H9.33105V72.5418H74.1485V9.0177Z" stroke="#A1A1AA" stroke-width="2" stroke-miterlimit="10"/>
<path d="M38.4517 1.60339H1.76562V37.5574H38.4517V1.60339Z" stroke="#4000C8" stroke-width="2" stroke-miterlimit="10"/>
<path d="M80.9058 44.8066H44.2197V80.7607H80.9058V44.8066Z" stroke="#4000C8" stroke-width="2" stroke-miterlimit="10"/>
<path d="M51.9881 30.7358H31.4912V50.8237H51.9881V30.7358Z" fill="white" stroke="#D2005E" stroke-width="2" stroke-miterlimit="10"/>
<path d="M46.7386 35.8849H36.7451V45.679H46.7386V35.8849Z" fill="white" stroke="#4000C8" stroke-width="2" stroke-miterlimit="10"/>
<path d="M1.76562 42.7318V80.7565H39.0134" stroke="#D2005E" stroke-width="2" stroke-miterlimit="10"/>
<path d="M42.1025 1.60339H80.9014V38.1079" stroke="#D2005E" stroke-width="2" stroke-miterlimit="10"/>
</svg>
