<svg width="328" height="313" viewBox="0 0 328 313" fill="none" xmlns="http://www.w3.org/2000/svg">
<g clip-path="url(#clip0_2255_22005)">
<circle cx="293.312" cy="74.8034" r="13.1042" stroke="white" stroke-width="2.79245"/>
<path d="M295.312 43.6569V52.1361" stroke="white" stroke-width="2.79245" stroke-linecap="square"/>
<path d="M295.312 101.469V109.949" stroke="white" stroke-width="2.79245" stroke-linecap="square"/>
<path d="M262.166 76.8027L270.645 76.8027" stroke="white" stroke-width="2.79245" stroke-linecap="square"/>
<path d="M271.903 100.211L277.745 94.3688" stroke="white" stroke-width="2.79245" stroke-linecap="square"/>
<path d="M271.903 53.3947L277.745 59.2366" stroke="white" stroke-width="2.79245" stroke-linecap="square"/>
<path d="M318.72 100.211L312.878 94.3688" stroke="white" stroke-width="2.79245" stroke-linecap="square"/>
<path d="M318.72 53.3947L312.878 59.2366" stroke="white" stroke-width="2.79245" stroke-linecap="square"/>
<path d="M319.978 76.8027L328.457 76.8027" stroke="white" stroke-width="2.79245" stroke-linecap="square"/>
<path d="M19.2939 77.763C10.8371 77.763 3.98145 70.9074 3.98145 62.4505C3.98145 53.9937 10.8371 47.138 19.2939 47.138H20.825C19.8365 44.6069 19.2939 41.8525 19.2939 38.9714C19.2939 26.568 29.3489 16.513 41.7523 16.513C52.7612 16.513 61.9201 24.4342 63.8403 34.888H70.3356C82.1752 34.888 91.7731 44.4859 91.7731 56.3255C91.7731 68.1651 82.1752 77.763 70.3356 77.763H19.2939Z" stroke="white" stroke-width="2"/>
<path d="M62.3748 269.991C66.5915 269.991 70.0098 266.612 70.0098 262.444C70.0098 258.276 66.5915 254.897 62.3748 254.897H61.6115C62.1043 253.649 62.3748 252.291 62.3748 250.871C62.3748 244.758 57.3614 239.802 51.177 239.802C45.6878 239.802 41.1211 243.706 40.1637 248.859H36.9251C31.0218 248.859 26.2362 253.589 26.2362 259.425C26.2362 265.26 31.0218 269.991 36.9251 269.991H62.3748Z" stroke="white" stroke-width="1.6"/>
<path d="M103.978 152.308C104.383 152.308 104.776 152.371 105.166 152.429C107.178 140.611 110.432 129.519 114.723 119.475C98.0954 127.542 84.9175 138.557 76.9052 151.305C72.437 158.418 69.5988 166.066 68.603 174.061C70.233 172.224 72.4973 170.519 75.3584 168.917C80.4723 166.051 87.4687 163.478 95.9717 161.246C95.943 160.959 95.8857 160.684 95.8857 160.392C95.8857 155.922 99.5015 152.308 103.978 152.308Z" fill="#1A1A1A" fill-opacity="0.18"/>
<path d="M140.063 250.51C146.781 252.244 153.803 253.556 161.072 254.402C160.989 253.946 160.903 253.502 160.826 253.041L140.063 250.508V250.51Z" fill="#1A1A1A" fill-opacity="0.18"/>
<path d="M163.475 254.683C168.99 255.241 174.635 255.537 180.383 255.537C180.656 255.537 180.923 255.528 181.189 255.525L163.236 253.336C163.317 253.783 163.394 254.241 163.475 254.683Z" fill="#1A1A1A" fill-opacity="0.18"/>
<path d="M105.133 180.391C105.133 186.927 105.523 193.326 106.246 199.552C107.09 199.727 107.928 199.902 108.792 200.071L105.205 176.284C105.17 177.648 105.133 179.012 105.133 180.391Z" fill="#1A1A1A" fill-opacity="0.18"/>
<path d="M125.393 261.084C123.786 258.7 122.256 256.201 120.795 253.617C119.65 254.236 118.362 254.617 116.97 254.617C112.502 254.617 108.877 250.995 108.877 246.53C108.877 244.736 109.483 243.094 110.476 241.751C95.0537 233.71 82.7167 223.064 74.954 210.702C71.915 205.874 69.5991 200.776 68.0552 195.489C74.7905 245.926 114.746 285.828 165.253 292.557C159.959 291.018 154.859 288.702 150.026 285.673C140.72 279.845 132.383 271.438 125.395 261.084H125.393Z" fill="#1A1A1A" fill-opacity="0.18"/>
<path d="M261.187 235.297C256.111 238.713 250.563 241.802 244.623 244.524C236.318 262.577 224.598 276.985 210.737 285.676C205.902 288.705 200.802 291.017 195.507 292.559C246.021 285.831 285.987 245.917 292.714 195.472C291.17 200.767 288.851 205.871 285.815 210.705C279.975 220.004 271.555 228.325 261.187 235.297Z" fill="#1A1A1A" fill-opacity="0.18"/>
<path d="M155.255 205.461L155.818 204.882C155.45 196.99 155.252 188.803 155.252 180.393C155.252 179.264 155.267 178.155 155.273 177.034L110.726 164.85C110.352 165.415 109.893 165.913 109.391 166.369L149.042 205.085C151.091 205.226 153.163 205.352 155.255 205.463V205.461Z" fill="#1A1A1A" fill-opacity="0.18"/>
<path d="M124.756 248.642C124.378 250.029 123.669 251.278 122.682 252.261C130.352 265.895 140.147 276.761 151.253 283.716C158.571 288.298 166.462 291.167 174.71 292.086C173.023 290.439 171.476 288.129 170.015 285.212C167.071 279.332 164.479 270.976 162.298 260.677C162.032 259.408 161.768 258.11 161.512 256.78C149.207 255.405 137.561 252.711 126.912 248.906L124.759 248.642H124.756Z" fill="#1A1A1A" fill-opacity="0.18"/>
<path d="M160.366 233.474C161.067 239.678 161.887 245.521 162.811 250.96L192.462 254.576C192.726 253.613 193.147 252.719 193.721 251.937L158.926 217.963C159.325 223.325 159.801 228.523 160.361 233.471L160.366 233.474Z" fill="#1A1A1A" fill-opacity="0.18"/>
<path d="M180.383 208.441C172.821 208.441 165.434 208.264 158.283 207.929C158.4 210.144 158.532 212.327 158.676 214.488L195.348 250.293C196.215 249.631 197.208 249.138 198.298 248.868C200.235 236.893 201.679 223.021 202.48 207.929C195.331 208.264 187.947 208.441 180.383 208.441Z" fill="#1A1A1A" fill-opacity="0.18"/>
<path d="M158.034 202.598L177.08 182.995L157.583 177.662C157.577 178.574 157.569 179.476 157.569 180.39C157.569 187.996 157.732 195.417 158.034 202.598Z" fill="#1A1A1A" fill-opacity="0.18"/>
<path d="M202.697 233.73C202.106 238.968 201.42 243.934 200.668 248.651C202.405 248.742 203.98 249.376 205.257 250.39L250.16 208.224C249.239 206.911 248.688 205.321 248.688 203.596C248.688 203.398 248.734 203.218 248.745 203.023C235.917 205.315 221.001 206.974 204.801 207.814C204.319 216.935 203.613 225.626 202.697 233.733V233.73Z" fill="#1A1A1A" fill-opacity="0.18"/>
<path d="M107.428 167.682C107.07 167.851 106.694 167.983 106.309 168.101L111.199 200.521C121.372 202.392 132.935 203.862 145.472 204.825L107.428 167.682Z" fill="#1A1A1A" fill-opacity="0.18"/>
<path d="M109.152 202.481C108.28 202.315 107.387 202.152 106.535 201.98C107.936 212.634 110.349 222.738 113.618 232.074L109.155 202.484L109.152 202.481Z" fill="#1A1A1A" fill-opacity="0.18"/>
<path d="M104.154 201.469C95.9699 199.712 88.8214 197.684 83.013 195.414C76.4069 192.835 71.4939 189.972 68.6069 186.734C69.6056 194.726 72.4438 202.366 76.9091 209.47C82.5453 218.45 90.724 226.554 100.866 233.38C104.407 235.764 108.201 237.982 112.195 240.033C112.692 239.669 113.223 239.34 113.8 239.093C109.168 227.686 105.865 214.991 104.157 201.466L104.154 201.469Z" fill="#1A1A1A" fill-opacity="0.18"/>
<path d="M180.384 206.131C187.986 206.131 195.413 205.954 202.593 205.613C202.837 200.566 203.009 195.394 203.107 190.113L179.632 183.691L158.327 205.618C165.461 205.954 172.837 206.131 180.384 206.131Z" fill="#1A1A1A" fill-opacity="0.18"/>
<path d="M155.852 155.303C144.542 155.896 133.855 156.879 124.113 158.209C119.908 158.782 115.882 159.415 112.042 160.108C112.045 160.206 112.074 160.3 112.074 160.398C112.074 161.209 111.919 161.977 111.692 162.716L155.289 174.64C155.361 168.026 155.554 161.573 155.855 155.303H155.852Z" fill="#1A1A1A" fill-opacity="0.18"/>
<path d="M151.582 207.558L152.423 208.378L153.132 207.647C152.618 207.615 152.093 207.59 151.582 207.558Z" fill="#1A1A1A" fill-opacity="0.18"/>
<path d="M236.652 202.59C239.324 202.223 241.918 201.831 244.447 201.418L205.398 190.741C205.303 195.759 205.137 200.679 204.907 205.487C216.214 204.894 226.904 203.914 236.649 202.59H236.652Z" fill="#1A1A1A" fill-opacity="0.18"/>
<path d="M154.073 209.994L156.205 212.078C156.122 210.739 156.044 209.398 155.97 208.04L154.07 209.994H154.073Z" fill="#1A1A1A" fill-opacity="0.18"/>
<path d="M148.025 207.317C139.499 206.718 131.367 205.899 123.802 204.87C119.54 204.288 115.457 203.644 111.562 202.942L116.92 238.451C116.935 238.451 116.952 238.446 116.972 238.446C118.743 238.446 120.37 239.03 121.704 239.993L150.812 210.034L148.028 207.317H148.025Z" fill="#1A1A1A" fill-opacity="0.18"/>
<path d="M160.423 250.668C158.682 240.257 157.318 228.4 156.432 215.525L152.466 211.651L123.358 241.61C124.259 242.773 124.836 244.177 124.991 245.719C125.814 246.031 126.632 246.346 127.47 246.644L160.426 250.668H160.423Z" fill="#1A1A1A" fill-opacity="0.18"/>
<path d="M200.24 264.766C199.327 264.766 198.466 264.583 197.646 264.305C196.871 267.646 196.053 270.778 195.186 273.629C193.091 280.518 190.764 285.917 188.167 289.576C187.478 290.539 186.766 291.373 186.032 292.086C194.285 291.169 202.18 288.304 209.503 283.716C218.486 278.094 226.616 269.927 233.448 259.789C236.335 255.516 238.976 250.871 241.369 245.945C231.267 250.252 220.119 253.522 208.221 255.531C208.275 255.912 208.338 256.293 208.338 256.691C208.338 261.158 204.717 264.766 200.243 264.766H200.24Z" fill="#1A1A1A" fill-opacity="0.18"/>
<path d="M203.139 187.724C203.174 185.297 203.196 182.855 203.196 180.391C203.196 174.949 203.108 169.614 202.95 164.378C201.767 164.149 200.685 163.662 199.747 162.983L181.467 181.798L203.139 187.724Z" fill="#1A1A1A" fill-opacity="0.18"/>
<path d="M256.611 159.324C264.79 161.08 271.944 163.106 277.75 165.367C284.359 167.957 289.269 170.817 292.158 174.061C291.16 166.069 288.322 158.421 283.856 151.309C278.214 142.348 270.036 134.23 259.894 127.404C255.612 124.519 250.963 121.885 246.03 119.493C251.144 131.465 254.792 144.918 256.611 159.324Z" fill="#1A1A1A" fill-opacity="0.18"/>
<path d="M204.534 148.377C207.906 148.397 210.782 150.469 211.979 153.412C220.783 154.016 229.171 154.853 236.965 155.919C243.104 156.758 248.875 157.73 254.23 158.816C252.278 143.944 248.347 130.129 242.871 118.002C230.101 112.251 215.46 108.228 199.688 106.391C201.891 118.469 203.562 132.722 204.537 148.38L204.534 148.377Z" fill="#1A1A1A" fill-opacity="0.18"/>
<path d="M158.174 155.177C157.858 161.681 157.66 168.39 157.597 175.27L178.922 181.101L198.095 161.366C197.039 159.999 196.385 158.309 196.385 156.449C196.385 155.927 196.445 155.426 196.54 154.933C191.262 154.753 185.873 154.655 180.383 154.658C172.781 154.658 165.357 154.836 158.174 155.177Z" fill="#1A1A1A" fill-opacity="0.18"/>
<path d="M256.787 211.68C256.185 211.68 255.602 211.602 255.037 211.479C253.002 222.127 249.954 232.151 246.046 241.304C262.676 233.249 275.845 222.228 283.858 209.473C288.32 202.37 291.161 194.73 292.16 186.738C290.53 188.566 288.26 190.271 285.402 191.873C280.107 194.842 272.792 197.49 263.878 199.773C264.498 200.917 264.883 202.206 264.883 203.596C264.883 208.063 261.256 211.683 256.784 211.683L256.787 211.68Z" fill="#1A1A1A" fill-opacity="0.18"/>
<path d="M211.207 160.95L251.639 197.397C252.577 196.618 253.679 196.042 254.902 195.747C255.367 190.721 255.625 185.603 255.622 180.387C255.625 173.854 255.237 167.461 254.517 161.234C242.499 158.753 228.227 156.858 212.51 155.755C212.53 155.984 212.579 156.208 212.579 156.443C212.579 158.111 212.074 159.661 211.204 160.948L211.207 160.95Z" fill="#1A1A1A" fill-opacity="0.18"/>
<path d="M205.447 188.357L249.368 200.372C249.563 199.922 249.793 199.492 250.063 199.094L209.628 162.647C208.42 163.65 206.922 164.295 205.269 164.458C205.427 169.668 205.51 174.984 205.51 180.394C205.51 183.073 205.484 185.726 205.447 188.36V188.357Z" fill="#1A1A1A" fill-opacity="0.18"/>
<path d="M251.765 209.891L206.862 252.052C207.135 252.441 207.367 252.86 207.568 253.295C220.344 251.163 232.254 247.57 242.863 242.79C247.265 233.047 250.652 222.204 252.833 210.607C252.454 210.395 252.101 210.157 251.765 209.891Z" fill="#1A1A1A" fill-opacity="0.18"/>
<path d="M99.5735 125.487C104.65 122.071 110.203 118.979 116.146 116.257C124.448 98.2039 136.163 83.8017 150.024 75.122C154.862 72.0874 159.97 69.7749 165.27 68.2304C145.532 70.8552 127.396 78.532 112.226 89.9454C88.5766 107.74 72.156 134.57 68.0522 165.295C69.5962 160.005 71.912 154.907 74.9511 150.076C80.7853 140.794 89.2022 132.473 99.5735 125.487Z" fill="#1A1A1A" fill-opacity="0.18"/>
<path d="M107.396 153.087C108.005 153.374 108.564 153.74 109.081 154.164L157.806 109.677C157.255 108.863 156.859 107.943 156.633 106.955C142.554 108.986 129.459 112.783 117.9 117.987C113.13 128.547 109.534 140.384 107.394 153.084L107.396 153.087Z" fill="#1A1A1A" fill-opacity="0.18"/>
<path d="M192.225 257.427C188.334 257.697 184.382 257.837 180.384 257.837C174.797 257.837 169.307 257.559 163.932 257.038C165.097 262.972 166.389 268.336 167.792 272.959C169.832 279.704 172.122 284.936 174.478 288.238C175.824 290.123 177.176 291.367 178.43 291.966C179.096 292.272 179.736 292.433 180.381 292.433C181.027 292.433 181.661 292.272 182.327 291.966C183.004 291.645 183.702 291.143 184.408 290.458C185.831 289.086 187.283 286.96 188.678 284.168C191.189 279.168 193.516 272.013 195.528 263.23C193.68 261.9 192.443 259.817 192.222 257.424L192.225 257.427Z" fill="#1A1A1A" fill-opacity="0.18"/>
<path d="M103.25 168.407C100.2 168.132 97.6342 166.2 96.5064 163.489C91.7627 164.739 87.5184 166.088 83.848 167.521C77.3107 170.066 72.6101 172.908 70.1966 175.725C68.8163 177.327 68.1792 178.875 68.1792 180.39C68.1792 181.915 68.8163 183.451 70.1966 185.061C71.5741 186.666 73.7006 188.296 76.4957 189.855C82.0774 192.99 90.2963 195.87 100.487 198.289C101.586 198.549 102.719 198.801 103.864 199.054C103.187 192.979 102.82 186.749 102.82 180.393C102.82 176.344 102.975 172.35 103.25 168.41V168.407Z" fill="#1A1A1A" fill-opacity="0.18"/>
<path d="M158.287 152.858C165.435 152.523 172.819 152.345 180.381 152.345C186.16 152.345 191.822 152.457 197.373 152.655C197.725 151.999 198.142 151.385 198.658 150.852L168.486 112.133C167.303 112.807 165.955 113.219 164.497 113.219C163.733 113.219 163.01 113.079 162.307 112.881C160.45 124.633 159.064 138.175 158.287 152.855V152.858Z" fill="#1A1A1A" fill-opacity="0.18"/>
<path d="M257.256 195.551C259.244 195.669 261.038 196.477 262.39 197.772C267.888 196.394 272.77 194.884 276.913 193.265C283.448 190.72 288.151 187.877 290.565 185.061C291.948 183.45 292.585 181.917 292.585 180.393C292.585 178.874 291.948 177.327 290.565 175.725C289.182 174.12 287.061 172.495 284.269 170.936C278.684 167.796 270.462 164.916 260.269 162.5C259.173 162.24 258.042 161.987 256.9 161.738C257.574 167.813 257.942 174.037 257.942 180.39C257.942 185.533 257.698 190.591 257.253 195.551H257.256Z" fill="#1A1A1A" fill-opacity="0.18"/>
<path d="M110.672 155.85C111.085 156.454 111.384 157.133 111.622 157.841C124.538 155.512 139.593 153.827 155.965 152.978C156.444 143.86 157.156 135.172 158.071 127.071C158.671 121.747 159.366 116.704 160.132 111.924C159.871 111.755 159.638 111.56 159.4 111.362L110.675 155.85H110.672Z" fill="#1A1A1A" fill-opacity="0.18"/>
<path d="M186.286 72.5519C184.938 70.6577 183.589 69.417 182.329 68.8209C181.663 68.5 181.023 68.3539 180.383 68.3539C179.743 68.3539 179.098 68.5 178.432 68.8209C177.766 69.1419 177.069 69.6405 176.36 70.3225C174.937 71.7008 173.484 73.8242 172.087 76.6123C169.61 81.5411 167.315 88.5416 165.332 97.1353C168.744 97.4878 171.51 99.9206 172.331 103.159C174.997 103.033 177.674 102.947 180.386 102.947C185.971 102.947 191.463 103.225 196.836 103.746C195.673 97.8116 194.382 92.4473 192.981 87.8223C190.941 81.0768 188.645 75.8444 186.292 72.549L186.286 72.5519Z" fill="#1A1A1A" fill-opacity="0.18"/>
<path d="M200.5 149.454C201.042 149.147 201.619 148.904 202.233 148.726C201.771 141.247 201.16 134.072 200.396 127.326C199.532 119.675 198.485 112.571 197.285 106.113C191.773 105.554 186.128 105.261 180.38 105.261C177.751 105.261 175.148 105.33 172.565 105.451C172.485 107.502 171.659 109.356 170.324 110.737L200.497 149.457L200.5 149.454Z" fill="#1A1A1A" fill-opacity="0.18"/>
<path d="M162.951 97.2122C163.775 93.5988 164.647 90.2175 165.574 87.1628C167.666 80.274 169.991 74.8696 172.591 71.2189C173.277 70.2504 173.986 69.4194 174.723 68.703C166.47 69.62 158.578 72.4855 151.254 77.0704C142.275 82.704 134.148 90.8708 127.318 100.998C124.431 105.273 121.791 109.912 119.395 114.838C130.598 110.067 143.096 106.568 156.46 104.651C156.687 100.946 159.387 97.9057 162.951 97.2122Z" fill="#1A1A1A" fill-opacity="0.18"/>
<path d="M209.503 77.0704C202.185 72.4855 194.296 69.62 186.046 68.703C187.736 70.345 189.283 72.6574 190.744 75.5746C193.685 81.4575 196.285 89.8105 198.46 100.115C198.727 101.382 198.991 102.68 199.247 104.004C214.519 105.711 228.773 109.454 241.377 114.821C233.308 98.2238 222.274 85.0681 209.503 77.0675V77.0704Z" fill="#1A1A1A" fill-opacity="0.18"/>
<path d="M195.486 68.2277C200.79 69.7694 205.895 72.0876 210.736 75.1194C220.037 80.9421 228.376 89.3468 235.37 99.7057C238.788 104.775 241.879 110.314 244.608 116.246C262.69 124.541 277.113 136.247 285.814 150.073C288.853 154.91 291.169 160.014 292.713 165.309C291.241 154.274 288.179 143.746 283.76 133.952C267.979 98.9864 234.954 73.4774 195.486 68.2249V68.2277Z" fill="#1A1A1A" fill-opacity="0.18"/>
<path d="M174.745 292.123C174.745 292.123 174.725 292.097 174.71 292.089C166.46 291.169 158.571 288.301 151.253 283.719C140.147 276.764 130.35 265.898 122.682 252.264C122.131 252.808 121.482 253.246 120.796 253.616C122.257 256.201 123.787 258.7 125.394 261.084C132.382 271.44 140.718 279.844 150.025 285.673C154.857 288.702 159.957 291.014 165.252 292.556C170.144 293.977 175.204 294.745 180.384 294.745C179.368 294.745 178.372 294.502 177.436 294.049C176.492 293.599 175.603 292.943 174.748 292.123H174.745Z" fill="white"/>
<path d="M183.331 66.7434C184.272 67.199 185.164 67.8495 186.014 68.669C186.025 68.6805 186.034 68.6919 186.045 68.7034C194.296 69.6204 202.185 72.4859 209.503 77.0708C222.276 85.0713 233.307 98.227 241.377 114.824C242.338 115.234 243.297 115.647 244.238 116.074C244.364 116.131 244.485 116.191 244.608 116.248C241.879 110.317 238.788 104.775 235.37 99.7085C228.377 89.3496 220.037 80.945 210.737 75.1222C205.895 72.0876 200.79 69.7722 195.487 68.2306C190.602 66.8093 185.555 66.0442 180.383 66.0442C181.399 66.0442 182.392 66.2906 183.333 66.7462L183.331 66.7434Z" fill="white"/>
<path d="M107.396 153.088C109.537 140.388 113.13 128.547 117.902 117.991C117.762 118.051 117.615 118.114 117.478 118.177C116.548 118.601 115.633 119.037 114.726 119.478C110.433 129.522 107.178 140.614 105.169 152.432C105.956 152.549 106.705 152.767 107.399 153.091L107.396 153.088Z" fill="white"/>
<path d="M254.9 195.749C255.509 195.603 256.134 195.506 256.786 195.506C256.946 195.506 257.096 195.543 257.253 195.552C257.698 190.589 257.942 185.534 257.942 180.39C257.942 174.037 257.575 167.813 256.9 161.738C256.12 161.569 255.316 161.403 254.519 161.237C255.239 167.464 255.626 173.857 255.623 180.39C255.623 185.605 255.368 190.723 254.903 195.749H254.9Z" fill="white"/>
<path d="M252.833 210.608C250.652 222.205 247.265 233.048 242.863 242.791C243.001 242.728 243.145 242.67 243.282 242.607C244.215 242.183 245.133 241.742 246.049 241.3C249.957 232.151 253.005 222.127 255.04 211.476C254.25 211.301 253.519 210.992 252.836 210.605L252.833 210.608Z" fill="white"/>
<path d="M105.202 176.284L104.022 168.476C104.008 168.476 103.991 168.482 103.976 168.482C103.727 168.482 103.491 168.43 103.247 168.41C102.972 172.35 102.817 176.345 102.817 180.394C102.817 186.749 103.187 192.979 103.861 199.054C104.642 199.223 105.443 199.389 106.24 199.556C105.52 193.329 105.127 186.93 105.127 180.394C105.127 179.015 105.164 177.651 105.199 176.287L105.202 176.284Z" fill="white"/>
<path d="M254.227 158.813C255.039 158.979 255.817 159.154 256.609 159.323C254.789 144.915 251.145 131.464 246.028 119.492C244.984 118.988 243.936 118.483 242.866 117.999C248.341 130.126 252.273 143.941 254.224 158.813H254.227Z" fill="white"/>
<path d="M244.622 244.524C243.558 245.014 242.462 245.478 241.371 245.945C238.978 250.871 236.338 255.516 233.451 259.789C226.618 269.927 218.488 278.094 209.505 283.716C202.185 288.304 194.29 291.172 186.034 292.086C185.179 292.92 184.283 293.591 183.333 294.046C182.392 294.499 181.399 294.743 180.383 294.743C185.56 294.743 190.617 293.977 195.51 292.553C200.804 291.012 205.904 288.699 210.739 285.67C224.6 276.982 236.32 262.571 244.625 244.518L244.622 244.524Z" fill="white"/>
<path d="M114.634 238.827L113.615 232.068C110.347 222.732 107.933 212.628 106.533 201.974C105.721 201.81 104.946 201.636 104.154 201.467C105.861 214.992 109.164 227.686 113.796 239.094C114.063 238.979 114.353 238.913 114.634 238.827Z" fill="white"/>
<path d="M151.252 77.0709C158.575 72.486 166.467 69.6205 174.72 68.7035C175.578 67.8697 176.477 67.1991 177.432 66.7435C178.368 66.2879 179.364 66.0414 180.379 66.0414C175.208 66.0414 170.157 66.8094 165.27 68.2307C159.967 69.7724 154.859 72.0877 150.023 75.1223C136.165 83.802 124.451 98.2071 116.146 116.257C117.211 115.77 118.301 115.303 119.392 114.839C121.788 109.913 124.428 105.274 127.315 100.998C134.145 90.8713 142.272 82.7045 151.252 77.0709Z" fill="white"/>
<path d="M160.827 253.043C160.907 253.504 160.993 253.948 161.073 254.404C161.874 254.496 162.666 254.602 163.473 254.685C163.389 254.244 163.315 253.785 163.234 253.338L160.827 253.046V253.043Z" fill="white"/>
<path d="M204.91 205.489C205.139 200.681 205.306 195.761 205.4 190.743L203.104 190.113C203.01 195.394 202.838 200.566 202.591 205.612C203.371 205.578 204.135 205.526 204.91 205.489Z" fill="white"/>
<path d="M157.597 175.27C157.66 168.39 157.858 161.679 158.174 155.177C157.393 155.214 156.627 155.263 155.852 155.303C155.551 161.573 155.358 168.026 155.287 174.639L157.597 175.273V175.27Z" fill="white"/>
<path d="M203.14 187.724L205.447 188.354C205.487 185.721 205.51 183.068 205.51 180.388C205.51 174.978 205.424 169.66 205.269 164.453C205.008 164.476 204.752 164.53 204.486 164.53C203.96 164.53 203.45 164.473 202.953 164.378C203.111 169.611 203.2 174.949 203.2 180.391C203.2 182.858 203.18 185.297 203.143 187.724H203.14Z" fill="white"/>
<path d="M162.812 250.961C161.888 245.522 161.064 239.679 160.367 233.475C159.804 228.523 159.331 223.325 158.932 217.967L156.432 215.528C157.319 228.403 158.682 240.261 160.424 250.671L162.814 250.963L162.812 250.961Z" fill="white"/>
<path d="M156.206 212.077L158.674 214.487C158.531 212.327 158.399 210.143 158.281 207.928C157.578 207.896 156.886 207.856 156.186 207.816L155.971 208.037C156.042 209.398 156.123 210.736 156.206 212.074V212.077Z" fill="white"/>
<path d="M204.802 207.811C204.027 207.851 203.258 207.894 202.477 207.928C201.676 223.021 200.233 236.896 198.296 248.868C198.922 248.713 199.567 248.607 200.242 248.607C200.388 248.607 200.523 248.642 200.666 248.65C201.418 243.936 202.104 238.968 202.695 233.729C203.608 225.62 204.317 216.932 204.799 207.811H204.802Z" fill="white"/>
<path d="M155.818 204.882L158.036 202.601C157.735 195.418 157.571 187.999 157.571 180.394C157.571 179.479 157.583 178.577 157.586 177.666L155.275 177.035C155.27 178.156 155.255 179.267 155.255 180.394C155.255 188.807 155.453 196.994 155.821 204.882H155.818Z" fill="white"/>
<path d="M190.744 75.5751C189.283 72.658 187.736 70.3455 186.046 68.7035C186.034 68.6921 186.026 68.6777 186.014 68.6691C185.165 67.8496 184.272 67.1963 183.331 66.7435C182.39 66.2879 181.397 66.0414 180.381 66.0414C179.365 66.0414 178.369 66.2879 177.434 66.7435C176.478 67.1991 175.58 67.8697 174.722 68.7035C173.984 69.4199 173.276 70.2538 172.59 71.2195C169.993 74.8702 167.665 80.2746 165.573 87.1633C164.646 90.218 163.771 93.5993 162.95 97.2128C163.452 97.1153 163.966 97.0552 164.497 97.0552C164.781 97.0552 165.051 97.1125 165.326 97.1382C167.309 88.5445 169.605 81.544 172.082 76.6153C173.479 73.8271 174.931 71.7037 176.355 70.3254C177.064 69.6406 177.761 69.1448 178.427 68.8239C179.092 68.5029 179.732 68.3568 180.378 68.3568C181.024 68.3568 181.658 68.5029 182.324 68.8239C183.584 69.4199 184.935 70.6607 186.281 72.5548C188.637 75.8502 190.933 81.0826 192.971 87.8281C194.371 92.4502 195.662 97.8145 196.825 103.752C197.634 103.829 198.437 103.915 199.241 104.007C198.986 102.683 198.724 101.385 198.455 100.118C196.279 89.8168 193.677 81.4609 190.738 75.5779L190.744 75.5751Z" fill="white"/>
<path d="M155.964 152.976C156.736 152.936 157.508 152.893 158.288 152.858C159.066 138.175 160.452 124.633 162.309 112.884C161.531 112.664 160.794 112.351 160.131 111.924C159.364 116.704 158.667 121.747 158.07 127.071C157.155 135.172 156.446 143.861 155.964 152.979V152.976Z" fill="white"/>
<path d="M202.233 148.723C202.95 148.517 203.696 148.371 204.483 148.371C204.5 148.371 204.514 148.377 204.534 148.377C203.558 132.719 201.888 118.466 199.684 106.388C198.887 106.296 198.092 106.19 197.288 106.11C198.488 112.569 199.535 119.673 200.399 127.324C201.162 134.069 201.773 141.247 202.236 148.723H202.233Z" fill="white"/>
<path d="M186.033 292.089C186.77 291.372 187.479 290.541 188.168 289.578C190.765 285.919 193.095 280.52 195.187 273.632C196.054 270.778 196.872 267.646 197.647 264.307C196.883 264.046 196.169 263.697 195.526 263.235C193.517 272.018 191.187 279.174 188.676 284.174C187.281 286.965 185.829 289.091 184.406 290.464C183.7 291.149 182.999 291.65 182.325 291.971C181.659 292.278 181.019 292.438 180.379 292.438C179.739 292.438 179.094 292.278 178.428 291.971C177.171 291.372 175.819 290.129 174.476 288.243C172.12 284.942 169.83 279.709 167.79 272.964C166.386 268.342 165.095 262.978 163.93 257.043C163.121 256.966 162.317 256.877 161.511 256.785C161.766 258.112 162.03 259.413 162.297 260.682C164.478 270.984 167.072 279.34 170.014 285.217C171.474 288.134 173.021 290.447 174.709 292.091C174.72 292.103 174.732 292.117 174.743 292.126C175.598 292.945 176.488 293.602 177.432 294.051C178.368 294.504 179.363 294.748 180.379 294.748C181.395 294.748 182.388 294.504 183.329 294.051C184.282 293.593 185.175 292.925 186.03 292.091L186.033 292.089Z" fill="white"/>
<path d="M110.475 241.75C110.96 241.094 111.537 240.518 112.194 240.036C108.2 237.985 104.406 235.77 100.864 233.383C90.7228 226.557 82.544 218.453 76.9079 209.473C72.4454 202.372 69.6044 194.729 68.6057 186.737C68.5541 186.68 68.4938 186.628 68.4479 186.574C66.8121 184.689 65.8594 182.594 65.8594 180.396C65.8594 185.565 66.6256 190.609 68.0519 195.489C69.5958 200.779 71.9117 205.873 74.9507 210.702C82.7134 223.061 95.0504 233.709 110.472 241.75H110.475Z" fill="white"/>
<path d="M192.224 257.428C192.206 257.239 192.172 257.055 192.166 256.863L181.189 255.522C180.92 255.525 180.653 255.534 180.383 255.534C174.635 255.534 168.99 255.241 163.474 254.68C162.668 254.597 161.876 254.493 161.075 254.399C153.806 253.553 146.784 252.241 140.066 250.507L126.911 248.903C137.561 252.711 149.209 255.402 161.512 256.777C162.315 256.869 163.122 256.955 163.931 257.035C169.306 257.557 174.796 257.835 180.383 257.835C184.381 257.835 188.332 257.694 192.224 257.425V257.428Z" fill="white"/>
<path d="M292.318 186.574C292.269 186.631 292.209 186.683 292.16 186.735C291.161 194.727 288.323 202.369 283.858 209.47C275.846 222.227 262.676 233.245 246.046 241.3C245.134 241.741 244.215 242.183 243.28 242.607C243.142 242.667 243.001 242.727 242.861 242.79C232.251 247.57 220.342 251.163 207.566 253.295C207.89 253.994 208.105 254.739 208.22 255.53C220.115 253.522 231.264 250.252 241.369 245.945C242.459 245.478 243.555 245.014 244.62 244.524C250.56 241.799 256.11 238.712 261.184 235.297C271.55 228.325 279.972 220.001 285.812 210.705C288.851 205.868 291.167 200.767 292.711 195.472C294.132 190.597 294.898 185.56 294.898 180.396C294.898 182.594 293.942 184.689 292.315 186.574H292.318Z" fill="white"/>
<path d="M244.607 116.248C244.484 116.191 244.363 116.13 244.237 116.073C243.296 115.643 242.337 115.233 241.376 114.824C228.772 109.457 214.518 105.714 199.245 104.006C198.442 103.915 197.638 103.829 196.829 103.751C191.457 103.23 185.967 102.952 180.38 102.952C177.668 102.952 174.987 103.038 172.324 103.164C172.485 103.8 172.597 104.453 172.597 105.138C172.597 105.244 172.571 105.342 172.565 105.448C175.148 105.327 177.751 105.259 180.38 105.259C186.128 105.259 191.772 105.551 197.285 106.11C198.089 106.193 198.884 106.299 199.681 106.388C215.454 108.224 230.098 112.248 242.865 117.999C243.936 118.483 244.983 118.987 246.028 119.492C250.961 121.884 255.61 124.518 259.891 127.403C270.033 134.229 278.215 142.347 283.854 151.308C288.319 158.42 291.157 166.068 292.156 174.06C292.205 174.117 292.265 174.169 292.311 174.223C293.941 176.109 294.894 178.198 294.894 180.393C294.894 175.232 294.128 170.189 292.707 165.314C291.163 160.019 288.844 154.915 285.808 150.078C277.107 136.252 262.687 124.546 244.602 116.251L244.607 116.248Z" fill="white"/>
<path d="M68.4479 174.224C68.4938 174.167 68.5569 174.118 68.6028 174.064C69.5986 166.069 72.4397 158.421 76.905 151.308C84.9144 138.56 98.0952 127.544 114.722 119.478C115.629 119.037 116.545 118.601 117.475 118.177C117.615 118.114 117.759 118.054 117.899 117.991C129.459 112.787 142.553 108.99 156.632 106.958C156.497 106.371 156.408 105.766 156.408 105.136C156.408 104.97 156.448 104.812 156.457 104.649C143.093 106.566 130.595 110.065 119.392 114.836C118.301 115.3 117.211 115.767 116.146 116.254C110.203 118.979 104.65 122.071 99.5731 125.484C89.2018 132.47 80.7849 140.792 74.9507 150.073C71.9117 154.905 69.5958 160 68.0519 165.292C66.6256 170.175 65.8594 175.221 65.8594 180.388C65.8594 178.196 66.8121 176.107 68.4479 174.221V174.224Z" fill="white"/>
<path d="M124.988 245.719C125.011 245.931 125.049 246.134 125.054 246.352L127.468 246.647C126.633 246.346 125.812 246.034 124.988 245.722V245.719Z" fill="white"/>
<path d="M148.026 207.318L145.472 204.825C132.931 203.862 121.369 202.392 111.199 200.521L111.563 202.942C115.457 203.644 119.541 204.289 123.803 204.87C131.367 205.899 139.5 206.719 148.026 207.318Z" fill="white"/>
<path d="M155.255 205.461C153.163 205.349 151.091 205.223 149.042 205.083L151.582 207.561C152.093 207.593 152.618 207.619 153.132 207.65L155.255 205.461Z" fill="white"/>
<path d="M158.286 152.859C157.508 152.893 156.733 152.936 155.961 152.976C139.59 153.824 124.535 155.509 111.618 157.839C111.859 158.558 112.011 159.312 112.037 160.106C115.877 159.412 119.903 158.779 124.107 158.206C133.85 156.876 144.537 155.893 155.847 155.3C156.621 155.26 157.388 155.211 158.168 155.174C165.348 154.836 172.775 154.655 180.377 154.655C185.864 154.655 191.256 154.75 196.534 154.93C196.689 154.114 196.987 153.36 197.369 152.652C191.819 152.455 186.157 152.343 180.377 152.343C172.815 152.343 165.432 152.52 158.283 152.856L158.286 152.859Z" fill="white"/>
<path d="M236.652 202.59C226.906 203.914 216.216 204.894 204.909 205.487C204.135 205.527 203.371 205.576 202.591 205.61C195.411 205.948 187.984 206.129 180.382 206.129C172.78 206.129 165.459 205.951 158.325 205.616L156.187 207.817C156.884 207.854 157.579 207.894 158.282 207.928C165.433 208.264 172.82 208.441 180.382 208.441C187.944 208.441 195.327 208.264 202.479 207.928C203.257 207.894 204.028 207.851 204.803 207.811C221.003 206.971 235.923 205.315 248.748 203.02C248.759 202.882 248.773 202.745 248.791 202.607L244.449 201.418C241.921 201.833 239.326 202.226 236.655 202.59H236.652Z" fill="white"/>
<path d="M292.316 174.224C292.267 174.167 292.21 174.115 292.161 174.061C289.271 170.817 284.361 167.96 277.752 165.367C271.947 163.106 264.792 161.08 256.614 159.323C255.819 159.154 255.044 158.979 254.232 158.813C248.877 157.727 243.106 156.756 236.967 155.916C229.173 154.853 220.785 154.013 211.98 153.409C212.279 154.142 212.442 154.936 212.514 155.758C228.235 156.862 242.506 158.753 254.522 161.237C255.322 161.401 256.126 161.57 256.903 161.739C258.046 161.991 259.173 162.24 260.272 162.501C270.466 164.917 278.685 167.797 284.272 170.937C287.061 172.499 289.185 174.124 290.568 175.726C291.952 177.327 292.589 178.875 292.589 180.391C292.589 181.915 291.952 183.451 290.568 185.061C288.155 187.878 283.451 190.721 276.917 193.265C272.773 194.885 267.889 196.398 262.393 197.773C262.993 198.352 263.484 199.031 263.885 199.767C272.799 197.486 280.114 194.836 285.409 191.867C288.267 190.265 290.537 188.56 292.167 186.732C292.213 186.678 292.276 186.626 292.325 186.572C293.955 184.686 294.907 182.591 294.907 180.393C294.907 178.196 293.952 176.107 292.325 174.221L292.316 174.224Z" fill="white"/>
<path d="M68.4483 186.574C68.4942 186.631 68.5574 186.683 68.6061 186.737C71.4931 189.975 76.409 192.838 83.0122 195.417C88.8177 197.683 95.9691 199.715 104.154 201.472C104.946 201.641 105.721 201.816 106.533 201.979C107.388 202.151 108.277 202.314 109.15 202.48L108.788 200.07C107.924 199.901 107.087 199.727 106.243 199.552C105.442 199.388 104.644 199.222 103.864 199.05C102.719 198.798 101.585 198.546 100.486 198.285C90.2957 195.87 82.0767 192.99 76.4951 189.852C73.6999 188.293 71.5735 186.663 70.196 185.058C68.8156 183.447 68.1786 181.914 68.1786 180.39C68.1786 178.871 68.8156 177.324 70.196 175.722C72.6094 172.905 77.3101 170.063 83.8473 167.518C87.5177 166.085 91.7621 164.736 96.5058 163.486C96.2159 162.784 96.0552 162.025 95.9691 161.242C87.4661 163.478 80.4725 166.051 75.3558 168.913C72.4946 170.515 70.2333 172.22 68.6004 174.057C68.5516 174.112 68.4914 174.16 68.4454 174.218C66.8097 176.103 65.8569 178.192 65.8569 180.387C65.8569 182.588 66.8097 184.685 68.4454 186.568L68.4483 186.574Z" fill="white"/>
<path d="M109.082 154.165C109.681 154.655 110.232 155.205 110.671 155.85L159.397 111.362C158.797 110.869 158.246 110.319 157.807 109.677L109.082 154.165Z" fill="white"/>
<path d="M114.634 238.828C115.363 238.61 116.121 238.455 116.919 238.452L111.561 202.943L111.196 200.521L106.306 168.1C105.577 168.321 104.823 168.473 104.022 168.479L105.201 176.287L108.789 200.074L109.15 202.484L113.613 232.074L114.631 238.833L114.634 238.828Z" fill="white"/>
<path d="M198.657 150.855C199.194 150.296 199.82 149.841 200.5 149.454L170.327 110.735C169.788 111.291 169.165 111.749 168.485 112.136L198.657 150.855Z" fill="white"/>
<path d="M251.639 197.401L211.207 160.954C210.774 161.599 210.226 162.152 209.629 162.648L250.064 199.094C250.5 198.45 251.042 197.899 251.639 197.404V197.401Z" fill="white"/>
<path d="M206.862 252.055L251.765 209.894C251.157 209.41 250.609 208.859 250.161 208.223L205.258 250.39C205.867 250.871 206.415 251.421 206.862 252.055Z" fill="white"/>
<path d="M160.424 250.668L127.468 246.645L125.055 246.35C125.055 246.41 125.072 246.467 125.072 246.527C125.072 247.264 124.943 247.963 124.756 248.639L126.909 248.903L140.064 250.508L160.826 253.041L163.234 253.333L181.187 255.522L192.164 256.863C192.164 256.806 192.146 256.749 192.146 256.692C192.146 255.955 192.278 255.256 192.462 254.577L162.812 250.96L160.421 250.668H160.424Z" fill="white"/>
<path d="M181.468 181.797L199.748 162.982C199.12 162.526 198.569 161.979 198.092 161.366L178.919 181.101L181.468 181.797Z" fill="white"/>
<path d="M150.81 210.035L121.702 239.994C122.331 240.449 122.879 240.997 123.355 241.607L152.463 211.648L150.807 210.032L150.81 210.035Z" fill="white"/>
<path d="M155.819 204.882L155.256 205.461L153.133 207.647L152.421 208.378L154.074 209.994L155.974 208.04L156.189 207.816L158.324 205.618L179.629 183.691L177.081 182.995L158.034 202.598L155.819 204.882Z" fill="white"/>
<path d="M156.206 212.078L154.073 209.995L152.42 208.378L151.58 207.559L149.04 205.08L109.389 166.364C108.803 166.894 108.146 167.338 107.426 167.679L145.47 204.822L148.024 207.315L150.808 210.032L152.463 211.648L156.429 215.522L158.929 217.961L193.725 251.935C194.184 251.307 194.729 250.76 195.346 250.29L158.674 214.485L156.206 212.075V212.078Z" fill="white"/>
<path d="M203.141 187.723L181.468 181.797L178.92 181.101L157.595 175.27L155.285 174.636L111.688 162.713C111.458 163.475 111.151 164.2 110.721 164.848L155.268 177.032L157.578 177.662L177.075 182.995L179.623 183.691L203.098 190.113L205.393 190.743L244.442 201.42L248.784 202.61C248.882 201.827 249.059 201.071 249.364 200.375L205.442 188.359L203.135 187.729L203.141 187.723Z" fill="white"/>
<path d="M112.569 151.632H96.1743V168.846H112.569V151.632Z" fill="#EFCB42"/>
<path d="M265.399 195.028H249.004V212.242H265.399V195.028Z" fill="#38B763"/>
<path d="M208.795 247.858H192.401V265.072H208.795V247.858Z" fill="#D2005E"/>
<path d="M172.946 96.9146H156.552V114.129H172.946V96.9146Z" fill="#A1A1AA"/>
<path d="M124.833 237.481H108.438V254.695H124.833V237.481Z" fill="#A1A1AA"/>
</g>
<defs>
<clipPath id="clip0_2255_22005">
<rect width="328" height="312" fill="white" transform="translate(0 0.179688)"/>
</clipPath>
</defs>
</svg>
