<svg width="32" height="32" viewBox="0 0 33 33" fill="none" xmlns="http://www.w3.org/2000/svg">
<path d="M6.31962 13.4084H3.9626L1.84128 15.5297V24.9578L7.26243 30.3789H13.3907" stroke="#4000C8" stroke-width="2"/>
<path d="M27.2974 11.7585L28.2402 10.8157" stroke="#4000C8" stroke-width="2" stroke-linecap="square"/>
<path d="M30.0182 18.8291H31.3516" stroke="#4000C8" stroke-width="2" stroke-linecap="square"/>
<path d="M29.5538 15.0262L30.7856 14.516" stroke="#4000C8" stroke-width="2" stroke-linecap="square"/>
<path d="M9.90614 3.5572L9.38379 2.33044" stroke="#4000C8" stroke-width="2" stroke-linecap="square"/>
<path d="M17.5161 3.49864L18.0142 2.26184" stroke="#4000C8" stroke-width="2" stroke-linecap="square"/>
<path d="M13.7094 2.57912L13.6963 1.24585" stroke="#4000C8" stroke-width="2" stroke-linecap="square"/>
<path d="M20.6973 19.3011V16.0013L21.8759 14.8228H24.2329L25.4114 16.0013L25.4116 24.9579L19.9904 30.3791H13.8621L6.57475 23.0918L6.55521 10.8159L7.73372 9.63744L10.0909 9.63721L11.2693 10.8158V18.3583" stroke="#4000C8" stroke-width="2" stroke-linecap="square"/>
<path d="M20.6973 15.0583L20.6973 9.87289L19.5188 8.69438L17.1617 8.69434L15.9832 9.87285V15.5297" stroke="#4000C8" stroke-width="2" stroke-linecap="square"/>
<path d="M11.2695 18.3581V7.98723L12.448 6.80872L14.8051 6.80872L15.9836 7.98723V16.9439" stroke="#4000C8" stroke-width="2" stroke-linecap="square"/>
</svg>
