<svg width="32" height="32" viewBox="0 0 32 32" fill="none" xmlns="http://www.w3.org/2000/svg">
<path d="M2 27.5999V19.8999H6.9V27.5999H2Z" stroke="#4000C8" stroke-width="2"/>
<path d="M6.90002 27.6001H16L30 23.9251V20.6001L28.25 18.8501L20.2 20.6001H14.6" stroke="#4000C8" stroke-width="2" stroke-linecap="square"/>
<path d="M18.8 20.425V17.625L16.875 15.7H11.1L6.90002 19.9" stroke="#4000C8" stroke-width="2"/>
<path d="M20.9377 8.83402C22.7824 10.7142 25.0967 12.9 25.0967 12.9C25.0967 12.9 27.4114 10.7414 29.2725 8.8323C30.0645 8.01982 30.2163 6.81447 29.6959 5.81634C28.838 4.17058 26.4637 4.05104 25.435 5.60181L25.165 6.00891H25.0285L24.7516 5.59147C23.7259 4.04528 21.3587 4.16447 20.5032 5.80537C19.9803 6.80849 20.1391 8.01994 20.9377 8.83402Z" stroke="#4000C8" stroke-width="2"/>
</svg>
