<svg width="24" height="25" viewBox="0 0 24 25" fill="none" xmlns="http://www.w3.org/2000/svg">
<path fill-rule="evenodd" clip-rule="evenodd" d="M16 3.74292H8C5.23858 3.74292 3 5.9815 3 8.74292V16.7429C3 19.5043 5.23858 21.7429 8 21.7429H16C18.7614 21.7429 21 19.5043 21 16.7429V8.74292C21 5.9815 18.7614 3.74292 16 3.74292ZM19.25 16.7429C19.2445 18.5355 17.7926 19.9874 16 19.9929H8C6.20735 19.9874 4.75549 18.5355 4.75 16.7429V8.74292C4.75549 6.95027 6.20735 5.49841 8 5.49292H16C17.7926 5.49841 19.2445 6.95027 19.25 8.74292V16.7429ZM16.75 8.99292C17.3023 8.99292 17.75 8.5452 17.75 7.99292C17.75 7.44064 17.3023 6.99292 16.75 6.99292C16.1977 6.99292 15.75 7.44064 15.75 7.99292C15.75 8.5452 16.1977 8.99292 16.75 8.99292ZM12 8.24292C9.51472 8.24292 7.5 10.2576 7.5 12.7429C7.5 15.2282 9.51472 17.2429 12 17.2429C14.4853 17.2429 16.5 15.2282 16.5 12.7429C16.5027 11.5486 16.0294 10.4025 15.1849 9.558C14.3404 8.71351 13.1943 8.24026 12 8.24292ZM9.25 12.7429C9.25 14.2617 10.4812 15.4929 12 15.4929C13.5188 15.4929 14.75 14.2617 14.75 12.7429C14.75 11.2241 13.5188 9.99292 12 9.99292C10.4812 9.99292 9.25 11.2241 9.25 12.7429Z" fill="#4000C8"/>
</svg>
