<svg version="1.2" xmlns="http://www.w3.org/2000/svg" viewBox="0 0 33 32" width="33" height="32">
	<path fill="#4000c8" d="m8.7 23.8q0.7 0.7 1.6 1.1 1 0.3 2 0.3 1 0 1.9-0.3 0.9-0.4 1.6-1.1l2.8-2.9-1.4-1.4-2.8 2.9c-0.6 0.5-1.3 0.8-2.1 0.8-0.8 0-1.6-0.3-2.2-0.8-0.5-0.6-0.8-1.4-0.8-2.2 0-0.8 0.3-1.5 0.8-2.1l2.9-2.8-1.4-1.4-2.9 2.8c-0.9 0.9-1.4 2.2-1.4 3.5 0 1.4 0.5 2.6 1.4 3.6zm15.6-8.5c0.9-0.9 1.4-2.2 1.4-3.5 0-1.4-0.5-2.6-1.4-3.6-1-0.9-2.2-1.4-3.6-1.4-1.3 0-2.6 0.5-3.5 1.4l-2.8 2.9 1.4 1.4 2.8-2.9c0.6-0.5 1.3-0.8 2.1-0.8 0.8 0 1.6 0.3 2.2 0.8 0.5 0.6 0.8 1.4 0.8 2.2 0 0.8-0.3 1.5-0.8 2.1l-2.9 2.8 1.5 1.4z"/>
	<path fill="#4000c8" d="m13 20.9l-1.4-1.4 8.4-8.4 1.5 1.4z"/>
</svg>