<svg width="24" height="25" viewBox="0 0 24 25" fill="none" xmlns="http://www.w3.org/2000/svg">
<path fill-rule="evenodd" clip-rule="evenodd" d="M4.5 3.74292C3.67157 3.74292 3 4.41449 3 5.24292V20.2429C3 21.0713 3.67157 21.7429 4.5 21.7429H19.5C20.3284 21.7429 21 21.0713 21 20.2429V5.24292C21 4.41449 20.3284 3.74292 19.5 3.74292H4.5ZM8.52076 7.74564C8.52639 8.70189 7.81061 9.29111 6.96123 9.28689C6.16107 9.28267 5.46357 8.64564 5.46779 7.74705C5.47201 6.90189 6.13998 6.22267 7.00764 6.24236C7.88795 6.26205 8.52639 6.90752 8.52076 7.74564ZM12.2797 10.5047H9.75971H9.7583V19.0645H12.4217V18.8648C12.4217 18.4849 12.4214 18.1049 12.4211 17.7248C12.4203 16.711 12.4194 15.6961 12.4246 14.6826C12.426 14.4365 12.4372 14.1806 12.5005 13.9457C12.7381 13.0682 13.5271 12.5015 14.4074 12.6408C14.9727 12.7293 15.3467 13.057 15.5042 13.59C15.6013 13.9232 15.6449 14.2818 15.6491 14.6292C15.6605 15.6768 15.6589 16.7244 15.6573 17.7721C15.6567 18.1419 15.6561 18.5119 15.6561 18.8817V19.0631H18.328V18.8578C18.328 18.4058 18.3278 17.9539 18.3275 17.502C18.327 16.3725 18.3264 15.243 18.3294 14.1131C18.3308 13.6026 18.276 13.0992 18.1508 12.6056C17.9638 11.8715 17.5771 11.264 16.9485 10.8253C16.5027 10.5131 16.0133 10.312 15.4663 10.2895C15.404 10.2869 15.3412 10.2835 15.2781 10.2801C14.9984 10.265 14.7141 10.2497 14.4467 10.3036C13.6817 10.4569 13.0096 10.807 12.5019 11.4243C12.4429 11.4951 12.3852 11.567 12.2991 11.6743L12.2797 11.6986V10.5047ZM5.68164 19.0673H8.33242V10.5103H5.68164V19.0673Z" fill="#4000C8"/>
</svg>
