<svg width="200" height="40" viewBox="0 0 200 41" fill="none" xmlns="http://www.w3.org/2000/svg">
<path d="M157.939 38.9924C157.857 38.9069 157.758 38.8762 157.643 38.8941C155.868 38.6337 154.066 38.7358 152.289 38.5023C152.268 38.464 152.247 38.427 152.225 38.3887C152.464 37.7148 152.633 36.9989 152.934 36.3671C154.101 33.9091 155.102 31.3886 156.013 28.8297C156.21 28.7467 156.275 28.5668 156.345 28.3856C156.775 27.2765 157.233 26.1777 157.634 25.0572C157.954 24.1612 158.505 23.3189 158.517 22.3464C158.539 20.732 158.471 19.1176 158.436 17.5031C158.432 17.3193 158.466 17.082 158.247 17.0028C158.051 16.9326 157.882 17.0705 157.735 17.1981C155.35 19.2758 152.962 21.3497 150.582 23.4338C149.966 23.9724 149.876 23.9877 149.248 23.4478C146.932 21.4556 144.679 19.3881 142.304 17.4636C142.157 17.3449 142.009 17.1585 141.81 17.2351C141.588 17.3206 141.672 17.5708 141.67 17.7456C141.654 18.8508 141.675 19.956 141.651 21.06C141.624 22.3273 141.742 23.5589 142.268 24.7343C142.803 25.9314 143.091 27.2331 143.784 28.3652C143.824 28.4711 143.865 28.577 143.904 28.6842C143.99 29.2292 144.22 29.7103 144.563 30.1391C144.588 30.2093 144.614 30.2808 144.641 30.351C145.151 31.7867 145.662 33.2238 146.174 34.6595C146.203 34.7553 146.232 34.8497 146.262 34.9454C146.255 34.9582 146.24 34.9761 146.244 34.9824C146.256 35.0054 146.276 35.0245 146.292 35.045C146.308 35.0922 146.323 35.1381 146.338 35.1854C146.315 35.387 146.403 35.5452 146.537 35.6856C146.773 36.2804 146.889 36.9198 147.223 37.4775C147.298 38.002 147.461 38.5036 147.637 39.0013C147.779 39.3982 147.723 39.6586 147.206 39.6509C145.533 39.6254 143.862 39.4824 142.188 39.5514C141.991 39.559 141.814 39.4888 141.645 39.3931C141.375 39.009 141.414 38.5189 141.204 38.113C140.836 37.2248 140.603 36.2829 140.118 35.4432C139.453 33.2085 138.525 31.0759 137.605 28.905C136.858 30.4314 136.049 31.8901 135.456 33.451L135.414 33.4726L135.433 33.5148C135.396 33.6054 135.357 33.696 135.32 33.7879C134.939 34.4707 134.636 35.1879 134.394 35.9307C134.37 35.9524 134.358 35.9792 134.359 36.0124C134.219 36.1208 134.164 36.2676 134.167 36.4412C133.91 36.7322 133.802 37.0831 133.746 37.4571C133.717 37.4877 133.678 37.5132 133.661 37.5489C133.096 38.8162 133.096 38.8009 131.674 38.7818C130.446 38.7652 129.23 38.5597 128 38.5993C127.779 38.6057 127.556 38.5138 127.334 38.4678C128.648 35.0845 129.963 31.7012 131.276 28.3179C131.401 28.2592 131.416 28.1559 131.393 28.0359C131.489 27.7972 131.585 27.5599 131.681 27.3212C131.701 27.2701 131.723 27.2178 131.743 27.1668C131.766 27.131 131.779 27.0915 131.779 27.0494C132.032 26.803 132.092 26.4853 132.113 26.1534C132.137 26.0692 132.162 25.985 132.187 25.9007C132.21 25.8548 132.233 25.8101 132.255 25.7642C132.283 25.7348 132.298 25.6991 132.302 25.6595C132.658 25.1082 132.804 24.4675 133.054 23.8715C133.28 23.3304 133.483 22.7676 133.324 22.1588C133.342 21.6917 133.36 21.2246 133.378 20.7575C133.526 19.7531 133.509 18.7449 133.401 17.7392C133.37 17.4585 133.231 17.0858 132.896 17.3844C132.363 17.8566 131.702 18.1706 131.256 18.7411C131.208 18.7896 131.16 18.8393 131.113 18.8878C130.778 18.9874 130.519 19.1712 130.398 19.5145L130.357 19.554C129.409 20.0479 128.647 20.7779 127.891 21.5143C127.803 21.5935 127.715 21.6713 127.626 21.7504C127.387 21.7874 127.228 21.9266 127.127 22.1397L127.121 22.1448C127.075 22.1869 127.03 22.229 126.984 22.2711C126.948 22.2852 126.922 22.3081 126.902 22.3401C126.715 22.3707 126.554 22.4383 126.481 22.6336L126.467 22.6451C125.966 22.8863 125.514 23.19 125.178 23.6444C125.117 23.6878 125.054 23.7299 124.993 23.7733C124.693 23.7669 124.546 23.4529 124.262 23.4146C124.184 23.3444 124.105 23.2743 124.027 23.2041C123.774 22.7893 123.393 22.5187 122.991 22.2673L122.975 22.252C122.79 22.0172 122.613 21.7709 122.304 21.6815L122.28 21.6585C122.257 21.5577 122.191 21.5067 122.091 21.4952C121.98 21.3854 121.868 21.2744 121.757 21.1646C121.505 20.8111 121.194 20.5265 120.797 20.3402C119.658 19.3881 118.563 18.3812 117.361 17.5057C117.147 17.35 116.92 17.0182 116.677 17.1585C116.456 17.2862 116.566 17.669 116.573 17.9383C116.604 19.3396 116.667 20.7397 116.687 22.1397C116.7 22.9986 116.851 23.8001 117.195 24.6041C118.866 28.5043 120.257 32.5155 121.805 36.4654C122.143 37.3333 122.496 38.196 122.813 39.0715C123.034 39.679 122.781 39.9917 122.154 39.8832C120.517 39.6037 118.861 39.6203 117.214 39.5054C116.958 39.4875 116.708 39.4697 116.467 39.3752C116.37 39.0728 116.296 38.7614 116.174 38.4704C115.406 36.639 114.814 34.7412 114.067 32.8983C113.617 31.7867 113.171 30.6649 112.78 29.5265C112.735 29.3964 112.711 29.2049 112.518 29.2215C112.378 29.2343 112.344 29.3925 112.298 29.5087C111.248 32.1237 110.249 34.7591 109.11 37.3384C108.896 37.8182 108.673 38.2943 108.468 38.7792C108.34 39.0855 108.152 39.2565 107.796 39.2285C106.217 39.1047 104.635 39.1366 103.052 39.1468C102.752 39.1481 102.464 39.1085 102.191 38.9783C102.787 37.1444 103.582 35.387 104.254 33.5811C105.394 30.5245 106.511 27.4552 107.791 24.4509C108.004 23.9494 108.273 23.4402 108.271 22.8748C108.267 21.4084 108.257 19.942 108.202 18.4769C108.186 18.0723 108.277 17.4419 107.955 17.3091C107.622 17.17 107.259 17.6856 106.942 17.9524C104.723 19.831 102.508 21.7172 100.304 23.615C99.9777 23.8958 99.7518 23.9545 99.3855 23.6393C97.0181 21.6037 94.6736 19.5413 92.222 17.6065C92.0293 17.4533 91.8493 17.1151 91.6107 17.23C91.3414 17.3589 91.469 17.729 91.4703 17.9932C91.4754 19.2248 91.4984 20.4576 91.515 21.6892C91.5264 22.58 91.4818 23.4746 91.8161 24.331C92.3956 25.8165 92.9609 27.3072 93.534 28.7952C94.0215 30.0625 94.5307 31.3222 94.9952 32.5984C95.4815 33.9346 95.9256 35.2875 96.3889 36.6326C96.6646 37.7046 97.0142 38.7524 97.4456 39.7721C97.4494 39.8602 97.4533 39.9495 97.4571 40.0376C96.8394 40.2814 96.1949 40.1384 95.5657 40.1371C94.3775 40.1346 93.1894 40.0721 92.0025 40.0236C91.8161 40.0159 91.6311 39.947 91.446 39.9074C90.129 36.3072 88.9472 32.6559 87.4757 29.0811C87.2204 29.2394 87.1936 29.418 87.1324 29.5712C86.2352 31.8391 85.3354 34.1069 84.451 36.3799C84.2685 36.8496 83.9328 37.2631 83.9124 37.794C83.6648 37.9484 83.6584 38.2279 83.5921 38.4614C83.407 39.1162 83.005 39.2693 82.3503 39.2068C80.7895 39.0549 79.221 38.9796 77.655 38.8737C77.4202 38.5202 77.7686 38.2892 77.8643 38.025C78.9249 35.0871 79.9127 32.1224 81.0626 29.2164C81.6943 27.6186 82.261 25.9926 82.8098 24.3629C83.0037 23.7847 83.3611 23.2513 83.3636 22.6119C83.3713 20.9119 83.3738 19.2133 83.2488 17.5172C83.236 17.3512 83.2679 17.1471 83.0892 17.0615C82.8863 16.9658 82.7268 17.11 82.5839 17.2377C80.196 19.3779 77.6793 21.3637 75.2251 23.4249C74.8537 23.7375 74.6253 23.7311 74.2577 23.4172C71.8546 21.3612 69.5267 19.2171 67.0457 17.2517C66.89 17.1279 66.7432 16.8676 66.5173 16.9862C66.3131 17.0935 66.3782 17.3666 66.3782 17.572C66.3795 18.995 66.3782 20.4193 66.4038 21.8423C66.4152 22.4741 66.4344 23.0969 66.6833 23.7146C67.4375 25.5817 68.1305 27.4731 68.858 29.3517C69.7615 31.6846 70.674 34.0138 71.5827 36.3455C71.5789 36.3608 71.5661 36.3786 71.5712 36.3888C71.5827 36.4156 71.6006 36.4399 71.6159 36.4641L71.6733 36.6084C71.7154 36.7487 71.7563 36.8891 71.8009 37.0282C72.0958 37.9497 72.605 38.8022 72.6803 39.7938C70.7723 39.7071 68.8656 39.6152 66.9576 39.5373C66.6692 39.5258 66.5441 39.3637 66.4574 39.1327C65.5321 36.6926 64.6094 34.2511 63.6828 31.811C63.3025 30.8091 63.0115 29.7716 62.5393 28.7927C62.2649 28.9293 62.2356 29.1564 62.1641 29.3466C61.5311 31.0121 60.9083 32.6814 60.2778 34.3481C59.8745 35.4151 59.4661 36.4807 59.059 37.5477C59.0322 37.5796 58.9952 37.6064 58.9786 37.6434C58.5524 38.564 57.8236 39.0094 56.7924 38.9796C55.4192 38.9388 54.0562 38.7014 52.6779 38.7499C52.7212 37.7008 53.1462 36.7564 53.538 35.8158C54.3625 33.8376 55.0823 31.8212 55.8353 29.8162C56.6253 27.7092 57.354 25.5791 58.107 23.4593C58.4464 22.5034 58.1886 21.5207 58.2231 20.5508C58.2601 19.5119 58.2129 18.4692 58.1912 17.4291C58.1861 17.1866 58.2869 16.8535 58.0215 16.7374C57.7853 16.634 57.6207 16.9199 57.4535 17.073C55.1142 19.2043 52.6983 21.245 50.3053 23.3151C49.9186 23.6495 49.671 23.749 49.2142 23.3279C46.8876 21.1851 44.5061 19.1022 42.0226 17.1407C41.8592 17.0118 41.7112 16.7029 41.4432 16.8778C41.2147 17.0258 41.3411 17.304 41.3423 17.5312C41.3487 18.9338 41.3589 20.3351 41.3462 21.7377C41.3411 22.2328 41.3985 22.6999 41.5823 23.1671C42.7985 26.2709 44.0416 29.3657 45.1915 32.4938C45.79 34.1222 46.3847 35.752 47.0203 37.3677C47.0892 37.5438 47.1224 37.7391 47.2794 37.8706C47.2551 37.9816 47.2973 38.0633 47.3917 38.1207C47.384 38.4972 47.5984 38.8086 47.698 39.1532C47.8639 39.73 47.786 39.8487 47.1952 39.8296C45.5258 39.7747 43.8578 39.6943 42.1885 39.6598C41.7176 39.6496 41.5172 39.4339 41.3704 39.0281C40.6813 37.1099 40.0087 35.1841 39.257 33.2889C38.7363 31.9769 38.3177 30.6317 37.8097 29.3172C37.7485 29.1577 37.7357 28.882 37.4945 28.9037C37.3235 28.919 37.2814 29.1526 37.2227 29.307C36.3701 31.5494 35.5253 33.7943 34.6727 36.0366C34.3269 36.9478 33.9555 37.8501 33.6224 38.7665C33.4718 39.1787 33.2166 39.3038 32.7967 39.2795C31.2894 39.1953 29.7809 39.1379 28.2737 39.0651C27.5616 39.0307 27.5233 38.9809 27.7709 38.3109C29.019 34.9454 30.2787 31.5825 31.5243 28.2158C32.0475 26.8018 32.5504 25.3813 33.0558 23.9609C33.2268 23.4797 33.3276 22.9884 33.3225 22.4664C33.3059 20.8303 33.3263 19.1929 33.3225 17.5567C33.3225 17.3359 33.4144 17.0245 33.1464 16.9326C32.9115 16.8522 32.7341 17.0973 32.5593 17.2504C30.1995 19.3281 27.7964 21.3522 25.3116 23.2819C24.9951 23.5282 24.7845 23.5231 24.4909 23.2628C22.7616 21.7249 21.026 20.1934 19.2788 18.6773C18.6215 18.1068 17.9132 17.5963 17.2509 17.0309C16.8603 16.6978 16.7212 16.8944 16.7136 17.2645C16.6625 19.5464 16.3779 21.8308 17.2139 24.0681C18.7977 28.3052 20.3011 32.5729 21.8453 36.8253C22.121 37.5834 22.4464 38.3223 22.6264 39.1149C22.7221 39.536 22.6072 39.73 22.172 39.7109C20.5155 39.6394 18.8602 39.5667 17.2036 39.499C16.7199 39.4799 16.6778 39.0804 16.5566 38.7601C15.3531 35.5593 14.1547 32.3559 12.9525 29.1551C12.9091 29.0416 12.8313 28.9407 12.7049 28.7199C11.9366 30.365 11.384 31.9795 10.8352 33.5952C10.409 34.5664 10.0274 35.5529 9.75426 36.579C9.38288 37.1342 9.18889 37.7633 9.02681 38.3989C8.88132 38.9732 8.60565 39.2591 7.9586 39.2208C6.43222 39.1289 4.90202 39.0843 3.37309 39.0498C2.80261 39.037 2.77581 38.7078 2.92768 38.3364C4.31495 34.939 5.46994 31.4575 6.74618 28.0193C7.30389 26.5184 7.78375 24.9895 8.35168 23.4925C8.57502 22.9041 8.52397 22.3337 8.5061 21.7415C8.45505 20.1066 8.42698 18.4705 8.38741 16.8357C8.38486 16.7361 8.35551 16.6366 8.31467 16.3966C5.63585 18.7347 3.03744 21.0038 0.439025 23.273C0.347136 23.1262 0.255247 22.9782 0.163358 22.8314C0.159529 22.7395 0.156977 22.6476 0.153148 22.5557C0.151872 22.4741 0.150596 22.3911 0.149319 22.3094C0.144215 21.2463 0.177397 20.1819 0.0727454 19.1214C0.150596 18.7411 0.178673 18.3646 0 18.0009C0 17.5669 0.405843 17.4049 0.59983 17.1024C0.742769 17.0858 0.828276 17.0054 0.866563 16.8688C0.99291 16.7387 1.12053 16.6085 1.24688 16.4783C1.45491 16.4017 1.59912 16.2613 1.67187 16.0495C1.81225 15.9104 1.95264 15.7713 2.09302 15.6322C2.30105 15.6117 2.41846 15.4943 2.45675 15.2927C2.48738 15.2672 2.50908 15.2353 2.52056 15.197C2.70689 15.1306 2.84217 15.0106 2.90599 14.8179C2.98511 14.7286 3.06552 14.6393 3.14464 14.5499C3.18421 14.5078 3.22377 14.467 3.26333 14.4248L3.27227 14.4146C3.72916 14.0764 4.22944 13.7842 4.49235 13.243C4.5217 13.2175 4.53829 13.1856 4.54467 13.1473C4.72462 13.0771 4.87139 12.9725 4.92244 12.7721L4.93775 12.7568C5.18534 12.6611 5.31934 12.4339 5.5044 12.268C6.34671 11.5112 7.0078 10.5655 7.95222 9.91591C8.04155 9.91208 8.13089 9.90825 8.21895 9.90442C8.38741 9.91208 8.55715 9.93888 8.72434 9.92356C8.9464 9.90187 9.26674 9.98099 9.34459 9.72447C9.42499 9.46157 9.11104 9.3633 8.93492 9.22419C6.64152 7.42725 6.36458 3.78487 8.41421 1.60124C9.26801 0.692558 10.4307 0.323726 11.6635 0.202484C11.7503 0.202484 11.8384 0.20376 11.9251 0.205036C12.0923 0.225456 12.2595 0.256086 12.428 0.265019C15.1068 0.402853 17.1066 2.63499 17.2662 4.7127C17.3925 6.345 17.0033 7.86627 15.8317 9.10167L15.8151 9.11698C15.5509 9.22929 15.2893 9.43987 15.4093 9.70405C15.5216 9.95164 15.87 9.90952 16.1405 9.85848C16.2248 9.87379 16.309 9.8891 16.3932 9.90442C16.6817 10.0474 16.8718 10.3001 17.0964 10.5157C17.6337 11.0313 18.0817 11.6478 18.7619 12.0025L18.7887 12.023C20.0292 13.4511 21.4076 14.7375 22.8574 15.9499L22.8663 15.9627C22.9033 16.0048 22.9403 16.0469 22.9773 16.0891L22.9914 16.1005C23.3385 16.6161 23.8541 16.9671 24.2753 17.41C24.6275 17.7801 24.8917 17.7584 25.2631 17.3793C27.2859 15.3182 29.3674 13.3145 31.3635 11.2266C32.0194 10.54 32.6678 10.0588 33.6441 10.1201C33.8215 10.1316 34.0627 10.1227 34.1354 9.90442C34.212 9.67597 33.9874 9.57005 33.8521 9.45263C31.6519 7.55104 31.6008 4.33748 32.8273 2.35294C32.9371 2.17554 32.9932 1.96624 33.0736 1.77098C33.0979 1.73524 33.1234 1.70078 33.1476 1.66505C33.4029 1.44554 33.6262 1.15838 33.9198 1.01545C36.6713 -0.329706 38.9673 -0.293972 41.2262 2.21383C42.3557 3.46837 42.6033 5.01134 42.1336 6.63343C41.8541 7.60082 41.3998 8.48269 40.6162 9.16293C40.4528 9.30459 40.1848 9.46284 40.2882 9.72447C40.3711 9.93633 40.6417 9.9376 40.8523 9.94654C41.216 9.96313 41.4763 10.1278 41.7303 10.3894C42.2446 10.9229 42.7641 11.4589 43.3792 11.8839L43.3996 11.903C44.3696 12.9151 45.3421 13.9246 46.423 14.8218L46.4575 14.8549C47.3189 15.9117 48.3744 16.7744 49.3482 17.7188C49.6085 17.9715 49.7783 17.8464 49.985 17.6448C52.1635 15.5275 54.3663 13.4358 56.5168 11.2904C57.0975 10.711 57.6131 10.1839 58.5205 10.3243C58.777 10.3639 59.1905 10.3766 59.2785 10.138C59.3947 9.82402 59.0016 9.65555 58.777 9.49347C57.7075 8.71752 57.0196 7.67867 56.8192 6.3935C56.527 4.52509 56.9047 2.82897 58.3086 1.42512C58.985 0.749988 59.8197 0.591735 60.6735 0.456454C62.4487 0.175683 64.164 0.201207 65.5078 1.67015C66.1038 2.32231 66.5186 3.08295 66.839 3.89718C67.731 6.16505 66.927 8.1011 65.4172 9.41052C65.2449 9.55984 64.954 9.63896 64.9999 9.91591C65.0535 10.2311 65.3815 10.2107 65.615 10.2745C66.1766 10.4264 66.7343 10.4698 67.2103 10.9484C69.4846 13.2392 71.755 15.5364 74.1556 17.6984C74.513 18.02 74.7452 18.034 75.1064 17.669C77.3334 15.4203 79.5898 13.2009 81.8283 10.9624C82.1053 10.6855 82.395 10.5579 82.7906 10.5923C83.2654 10.6344 83.7478 10.6612 84.2047 10.5145C84.2072 10.3332 84.1141 10.2758 84.0247 10.2209C81.8513 8.90258 81.0932 6.17909 81.859 4.18306C82.3312 2.95277 82.9961 1.82713 84.2098 1.29622C86.6538 0.229285 89.5878 0.464112 91.3222 3.2144C92.2973 4.75864 92.4198 6.28885 91.6655 7.92881C91.3452 8.62563 90.8781 9.23057 90.5029 9.89166L90.494 9.89931C90.2745 9.94143 90.1366 10.101 90.1609 10.2962C90.1915 10.5311 90.4391 10.5196 90.6216 10.5489C91.0147 10.6102 91.4243 10.5821 91.7485 10.9024C92.2309 11.3797 92.7363 11.8341 93.2353 12.2961C95.1982 14.1122 97.0627 16.0316 99.1149 17.7545C99.5667 18.1336 99.8334 18.1042 100.229 17.7137C102.196 15.7764 104.173 13.848 106.171 11.9438C106.908 11.2419 107.478 10.212 108.777 10.4455C108.96 10.4787 109.262 10.4979 109.334 10.2516C109.413 9.97844 109.137 9.84061 108.952 9.7232C107.038 8.51843 106.659 6.66789 106.844 4.61826C107.062 2.19469 108.466 1.28856 110.547 0.832944C112.981 0.299478 115.135 1.01034 116.529 3.39307C117.742 5.46695 117.692 7.29962 116.136 9.12719C115.771 9.55601 115.367 9.94398 114.897 10.346C115.338 10.5234 115.716 10.5413 116.098 10.5527C116.442 10.563 116.763 10.6191 117.032 10.8807C118.02 11.8443 119.009 12.8079 120.018 13.7484C121.463 15.0949 122.929 16.4158 124.378 17.7584C124.679 18.0379 124.877 18.006 125.168 17.7188C126.272 16.6315 127.423 15.5913 128.523 14.5014C129.38 13.654 130.358 12.9291 131.086 11.9541L131.097 11.9426C131.47 11.8009 131.729 11.5023 131.968 11.2151C132.412 10.6804 132.925 10.4213 133.633 10.5042C133.942 10.54 134.296 10.563 134.62 10.3115C134.112 9.84571 133.633 9.42966 133.181 8.98808C132.275 8.1011 132.19 6.941 132.234 5.78601C132.291 4.31068 132.629 2.91321 133.867 1.92668C134.634 1.31536 135.564 1.03969 136.493 0.822734C139.161 0.198655 142.138 2.06196 142.581 4.6591C142.901 6.54154 142.448 8.4125 140.854 9.77424C140.714 9.89421 140.504 9.99758 140.541 10.2209C140.586 10.494 140.857 10.457 141.047 10.5259C141.381 10.6472 141.776 10.6 142.056 10.8731C142.513 11.3172 142.969 11.7613 143.421 12.2106C145.272 14.0573 147.229 15.7904 149.154 17.558C149.613 17.9804 149.986 18.0813 150.467 17.5554C152.519 15.3106 154.875 13.372 156.99 11.1909C157.365 10.8042 157.799 10.5872 158.337 10.5604C158.548 10.5502 158.764 10.5234 158.965 10.466C159.284 10.3754 159.319 10.2082 159.07 9.97078C158.811 9.72319 158.577 9.4488 158.323 9.19483C156.646 7.51914 156.844 3.92016 158.476 2.53544C159.781 1.42895 161.192 0.924833 162.85 0.979711C165.514 1.06649 167.251 2.89534 167.473 5.48609C167.618 7.18859 166.977 8.64605 165.826 9.88783C165.713 10.0103 165.523 10.1035 165.577 10.2975C165.641 10.5259 165.877 10.5298 166.057 10.5272C166.808 10.5183 167.294 10.9586 167.804 11.4333C169.933 13.4166 172.096 15.3629 174.228 17.3423C174.634 17.7201 174.886 17.6869 175.281 17.3091C177.704 14.9864 180.158 12.6968 182.59 10.383C182.895 10.0933 183.21 9.96696 183.62 10.0014C183.821 10.018 184.094 10.1112 184.209 9.89421C184.352 9.6262 184.051 9.49347 183.916 9.32501C183.077 8.28488 182.168 7.28176 182.116 5.83706C182.125 5.58181 182.133 5.32784 182.142 5.0726C182.175 4.97305 182.219 4.87606 182.241 4.77396C182.761 2.45887 184.72 0.50878 187.222 0.558553C187.535 0.564934 187.85 0.480703 188.165 0.437311C188.375 0.439863 188.585 0.443692 188.795 0.446245C190.467 0.748712 191.622 1.74035 192.403 3.20036C193.138 4.57486 192.755 7.08905 191.674 8.2083C191.394 8.49801 191.121 8.79537 190.853 9.09656C190.787 9.17186 190.699 9.28672 190.717 9.3633C190.751 9.51517 190.926 9.52155 191.036 9.48709C191.629 9.30714 191.97 9.68235 192.36 10.0218C194.891 12.2233 197.305 14.5474 199.634 16.9607C199.909 17.2453 200.01 17.521 199.997 17.9166C199.954 19.2758 199.958 20.635 199.937 21.9955C199.935 22.178 199.987 22.4128 199.763 22.497C199.581 22.5647 199.45 22.3937 199.322 22.2928C197.699 20.9911 196.083 19.6829 194.46 18.3824C193.797 17.8515 193.126 17.3321 192.45 16.8203C192.312 16.7157 192.183 16.4694 191.974 16.6072C191.807 16.7182 191.856 16.9569 191.854 17.1432C191.836 18.1629 191.92 19.1929 191.796 20.1985C191.554 22.169 192.235 23.9034 192.935 25.6672C194.373 29.2968 195.765 32.9443 197.163 36.5905C197.352 37.0831 197.468 37.6064 197.602 38.1194C197.834 39.0038 197.774 39.0804 196.876 39.0791C196.134 39.0779 195.393 39.0664 194.651 39.06C194.567 39.0498 194.483 39.0396 194.399 39.0294C194.194 38.9286 193.985 38.9349 193.772 38.9987C193.457 38.9873 193.141 38.9834 192.826 38.9605C192.396 38.9298 191.927 39.0268 191.61 38.6044C191.572 38.4627 191.544 38.316 191.491 38.1794C190.322 35.1471 189.151 32.116 187.979 29.0862C187.904 28.8935 187.892 28.591 187.669 28.5719C187.386 28.5489 187.355 28.8782 187.273 29.0786C186.554 30.873 185.822 32.6635 185.151 34.4758C184.954 35.0054 184.632 35.5019 184.604 36.0915C184.425 36.4743 184.245 36.8572 184.066 37.2401C184.038 37.2975 184.006 37.3524 183.982 37.4111C183.626 38.2585 182.969 38.6818 182.009 38.681C181.926 38.681 181.843 38.7078 181.761 38.7231C181.569 38.7141 181.375 38.7052 181.182 38.695C181.05 38.6108 180.913 38.612 180.77 38.6631C180.545 38.6631 180.32 38.6605 180.096 38.6593C179.382 38.5827 178.668 38.5393 177.952 38.6171C177.367 38.6963 177.273 38.5074 177.474 37.951C177.901 36.773 178.506 35.6627 178.798 34.4362C179.016 34.2894 179.02 34.0342 179.099 33.8223C180.229 30.8206 181.341 27.8125 182.581 24.8517C182.971 23.92 183.491 23.0177 183.519 21.961C183.562 20.3249 183.614 18.6887 183.658 17.0526C183.664 16.8216 183.705 16.5396 183.473 16.4119C183.182 16.2524 183.006 16.5447 182.827 16.6965C180.354 18.8049 177.882 20.9158 175.429 23.0471C175.024 23.3981 174.716 23.4044 174.323 23.0688C173.694 22.5315 173.042 22.0197 172.399 21.4977C170.749 20.1602 169.099 18.824 167.447 17.4865C167.3 17.3678 167.157 17.1866 166.951 17.2657C166.712 17.3576 166.82 17.595 166.819 17.7724C166.817 18.602 166.814 19.4315 166.828 20.2598C166.852 21.7249 166.9 23.1773 167.465 24.5747C168.03 25.9709 168.48 27.4144 169.026 28.8182C169.425 29.8443 169.688 30.9266 170.25 31.8888C170.935 33.7789 171.646 35.6601 172.435 37.5094C172.595 37.9356 172.774 38.3555 172.916 38.7882C173.186 39.6164 173.154 39.6586 172.312 39.7989C170.957 39.5539 169.58 39.4684 168.214 39.5322C167.076 39.5858 166.298 39.3267 166.098 38.1003C165.819 37.1929 165.586 36.2663 165.096 35.438C164.429 33.3106 163.598 31.2494 162.722 29.2049C162.656 29.2087 162.591 29.2126 162.525 29.2164C161.899 30.8079 161.273 32.3981 160.647 33.9895C160.212 34.6289 160.014 35.3666 159.785 36.0902C159.306 36.8789 158.937 37.7149 158.718 38.6146C158.572 38.7129 158.448 38.8277 158.402 39.0064C158.249 39.0013 158.096 38.9962 157.943 38.9898L157.939 38.9924Z" fill="#4000C8"/>
</svg>
