<svg width="32" height="32" viewBox="0 0 32 33" fill="none" xmlns="http://www.w3.org/2000/svg">
<path fill-rule="evenodd" clip-rule="evenodd" d="M27.0524 12.6862C29.0986 16.7993 29.8312 21.4417 29.1509 25.9849L24.3358 26.1757L2.66406 27.0723L14.2554 8.34233L16.8308 4.17969C21.0478 5.86978 24.6244 8.84639 27.0524 12.6862Z" stroke="#4000C8" stroke-width="2" stroke-linecap="round" stroke-linejoin="round"/>
<path d="M24.3358 26.1814C24.4426 22.493 23.546 18.8447 21.7413 15.6259C19.9991 12.528 17.3999 9.99887 14.2554 8.34229" stroke="#4000C8" stroke-width="2" stroke-linecap="round" stroke-linejoin="round"/>
<path d="M19.3948 21.7881C18.8688 21.7881 18.4409 21.3602 18.4409 20.8342C18.4409 20.3083 18.8688 19.8804 19.3948 19.8804C19.9207 19.8804 20.3486 20.3083 20.3486 20.8342C20.3486 21.3602 19.9207 21.7881 19.3948 21.7881Z" fill="#4000C8"/>
<path d="M19.3945 18.9264C20.4482 18.9264 21.3023 19.7805 21.3023 20.8341C21.3023 21.8877 20.4482 22.7418 19.3945 22.7418C18.3409 22.7418 17.4868 21.8877 17.4868 20.8341C17.4868 19.7805 18.3409 18.9264 19.3945 18.9264Z" fill="#4000C8"/>
<path d="M10.8401 22.8735C10.3141 22.8735 9.88623 22.4456 9.88623 21.9197C9.88623 21.3937 10.3141 20.9658 10.8401 20.9658C11.366 20.9658 11.7939 21.3937 11.7939 21.9197C11.7939 22.4456 11.366 22.8735 10.8401 22.8735Z" fill="#4000C8"/>
<path d="M10.8403 20.012C11.894 20.012 12.748 20.866 12.748 21.9197C12.748 22.9733 11.894 23.8274 10.8403 23.8274C9.78674 23.8274 8.93262 22.9733 8.93262 21.9197C8.93262 20.866 9.78674 20.012 10.8403 20.012Z" fill="#4000C8"/>
<path d="M15.5793 16.0649C15.0534 16.0649 14.6255 15.637 14.6255 15.1111C14.6255 14.5851 15.0534 14.1572 15.5793 14.1572C16.1053 14.1572 16.5332 14.5851 16.5332 15.1111C16.5332 15.637 16.1053 16.0649 15.5793 16.0649Z" fill="#4000C8"/>
<path d="M15.5791 13.2032C16.6327 13.2032 17.4868 14.0573 17.4868 15.111C17.4868 16.1646 16.6327 17.0187 15.5791 17.0187C14.5255 17.0187 13.6714 16.1646 13.6714 15.111C13.6714 14.0573 14.5255 13.2032 15.5791 13.2032Z" fill="#4000C8"/>
</svg>
