<svg version="1.2" xmlns="http://www.w3.org/2000/svg" viewBox="0 0 360 757" width="360" height="757">
	<title>Laravel Illustration-svg</title>
	<defs>
		<linearGradient id="g1" x2="1" gradientUnits="userSpaceOnUse" gradientTransform="matrix(3.065,15.58,-18.995,3.736,305.957,58.502)">
			<stop offset="0" stop-color="#e70071"/>
			<stop offset="1" stop-color="#4000c8"/>
		</linearGradient>
		<linearGradient id="g2" x2="1" gradientUnits="userSpaceOnUse" gradientTransform="matrix(6.531,33.979,-42.064,8.085,129.13,61.77)">
			<stop offset="0" stop-color="#e70071"/>
			<stop offset="1" stop-color="#4000c8"/>
		</linearGradient>
		<linearGradient id="g3" x2="1" gradientUnits="userSpaceOnUse" gradientTransform="matrix(NaN,NaN,NaN,NaN,NaN,NaN)">
			<stop offset="0" stop-color="#e70071"/>
			<stop offset="1" stop-color="#4f0dcf"/>
		</linearGradient>
		<linearGradient id="g4" x2="1" gradientUnits="userSpaceOnUse" gradientTransform="matrix(NaN,NaN,NaN,NaN,NaN,NaN)">
			<stop offset="0" stop-color="#e70071"/>
			<stop offset="1" stop-color="#4f0dcf"/>
		</linearGradient>
		<linearGradient id="g5" x2="1" gradientUnits="userSpaceOnUse" gradientTransform="matrix(NaN,NaN,NaN,NaN,NaN,NaN)">
			<stop offset="0" stop-color="#e70071"/>
			<stop offset="1" stop-color="#4f0dcf"/>
		</linearGradient>
		<linearGradient id="g6" x2="1" gradientUnits="userSpaceOnUse" gradientTransform="matrix(NaN,NaN,NaN,NaN,NaN,NaN)">
			<stop offset="0" stop-color="#e70071"/>
			<stop offset="1" stop-color="#4f0dcf"/>
		</linearGradient>
		<clipPath clipPathUnits="userSpaceOnUse" id="cp1">
			<path d="m51.11 77.28h79.52v12.65h-79.52z"/>
		</clipPath>
		<clipPath clipPathUnits="userSpaceOnUse" id="cp2">
			<path d="m51.11 94.77h79.52v12.65h-79.52z"/>
		</clipPath>
		<linearGradient id="g7" x2="1" gradientUnits="userSpaceOnUse" gradientTransform="matrix(-60.81,-27.509,27.509,-60.81,106.871,126.614)">
			<stop offset="0" stop-color="#e70071"/>
			<stop offset="1" stop-color="#4f0dcf"/>
		</linearGradient>
		<linearGradient id="g8" x2="1" gradientUnits="userSpaceOnUse" gradientTransform="matrix(-60.81,-27.509,27.509,-60.81,106.871,126.614)">
			<stop offset="0" stop-color="#e70071"/>
			<stop offset="1" stop-color="#4f0dcf"/>
		</linearGradient>
		<linearGradient id="g9" x2="1" gradientUnits="userSpaceOnUse" gradientTransform="matrix(-60.81,-27.509,27.509,-60.81,106.871,126.614)">
			<stop offset="0" stop-color="#e70071"/>
			<stop offset="1" stop-color="#4f0dcf"/>
		</linearGradient>
		<linearGradient id="g10" x2="1" gradientUnits="userSpaceOnUse" gradientTransform="matrix(-60.81,-27.509,27.509,-60.81,106.871,126.614)">
			<stop offset="0" stop-color="#e70071"/>
			<stop offset="1" stop-color="#4f0dcf"/>
		</linearGradient>
		<linearGradient id="g11" x2="1" gradientUnits="userSpaceOnUse" gradientTransform="matrix(-60.81,-27.509,27.509,-60.81,106.871,126.614)">
			<stop offset="0" stop-color="#e70071"/>
			<stop offset="1" stop-color="#4f0dcf"/>
		</linearGradient>
		<linearGradient id="g12" x2="1" gradientUnits="userSpaceOnUse" gradientTransform="matrix(-60.81,-27.509,27.509,-60.81,106.871,126.614)">
			<stop offset="0" stop-color="#e70071"/>
			<stop offset="1" stop-color="#4f0dcf"/>
		</linearGradient>
		<linearGradient id="g13" x2="1" gradientUnits="userSpaceOnUse" gradientTransform="matrix(-61.638,-64.174,66.491,-63.863,150.51,51.972)">
			<stop offset="0" stop-color="#e70071"/>
			<stop offset="1" stop-color="#4f0dcf"/>
		</linearGradient>
		<linearGradient id="g14" x2="1" gradientUnits="userSpaceOnUse" gradientTransform="matrix(3.369,15.937,-18.423,3.894,278.208,47.861)">
			<stop offset="0" stop-color="#e70071"/>
			<stop offset="1" stop-color="#4000c8"/>
		</linearGradient>
		<linearGradient id="g15" x2="1" gradientUnits="userSpaceOnUse" gradientTransform="matrix(-45.993,-20.577,11.513,-25.733,287.396,47.276)">
			<stop offset="0" stop-color="#e70071"/>
			<stop offset="1" stop-color="#4f0dcf"/>
		</linearGradient>
		<linearGradient id="g16" x2="1" gradientUnits="userSpaceOnUse" gradientTransform="matrix(5.713,31.986,-41.811,7.468,299.983,658.568)">
			<stop offset="0" stop-color="#e70071"/>
			<stop offset="1" stop-color="#4000c8"/>
		</linearGradient>
		<linearGradient id="g17" x2="1" gradientUnits="userSpaceOnUse" gradientTransform="matrix(2.295,10.045,-10.972,2.506,265.216,672.157)">
			<stop offset="0" stop-color="#e70071"/>
			<stop offset="1" stop-color="#4000c8"/>
		</linearGradient>
		<linearGradient id="g18" x2="1" gradientUnits="userSpaceOnUse" gradientTransform="matrix(-36.352,-3.163,2.538,-29.164,330.74,731.401)">
			<stop offset="0" stop-color="#e70071"/>
			<stop offset="1" stop-color="#4f0dcf"/>
		</linearGradient>
	</defs>
	<style>
		.s0 { fill: #ffffff } 
		.s1 { fill: none;stroke: #4000c8;stroke-width: 1 } 
		.s2 { fill: none;stroke: url(#g1);stroke-width: 1 } 
		.s3 { fill: #ffffff;stroke: #4000c8;stroke-width: 1 } 
		.s4 { fill: #38b763;stroke: #4000c8;stroke-width: 1 } 
		.s5 { fill: #efcb42 } 
		.s6 { fill: #d2005e } 
		.s7 { fill: #a1a1aa } 
		.s8 { fill: #4000c8 } 
		.s9 { fill: #38b763 } 
		.s10 { fill: none;stroke: url(#g2);stroke-width: 1 } 
		.s11 { fill: none;stroke: url(#g3);stroke-width: 1 } 
		.s12 { fill: none;stroke: url(#g4);stroke-width: 1 } 
		.s13 { fill: none;stroke: url(#g5);stroke-width: 1 } 
		.s14 { fill: none;stroke: url(#g6);stroke-width: 1 } 
		.s15 { fill: url(#g7) } 
		.s16 { fill: url(#g8) } 
		.s17 { fill: url(#g9) } 
		.s18 { fill: url(#g10) } 
		.s19 { fill: url(#g11) } 
		.s20 { fill: url(#g12) } 
		.s21 { fill: url(#g13) } 
		.s22 { fill: none;stroke: url(#g14);stroke-width: 1 } 
		.s23 { fill: #4000c8;stroke: #4000c8;stroke-width: 1 } 
		.s24 { fill: url(#g15) } 
		.s25 { fill: url(#g16) } 
		.s26 { fill: url(#g17) } 
		.s27 { fill: url(#g18) } 
	</style>
	<g id="Folder 5">
		<g id="Folder 1">
			<path class="s0" d="m261.9 51h53.2v39.5h-53.2z"/>
			<path class="s1" d="m261.9 51h53.2v39.5h-53.2z"/>
			<path class="s2" d="m261.9 51h53.2v39.5h-53.2z"/>
			<path class="s3" d="m265.3 72.6h5.2v14.7h-5.2z"/>
			<path class="s3" d="m295.5 77.2h5.1v10.1h-5.1z"/>
			<path class="s3" d="m285.4 65.2h5.2v22.1h-5.2z"/>
			<path class="s3" d="m305.5 69.4h5.2v17.9h-5.2z"/>
			<path class="s4" d="m275.8 76.8h5.2v10.5h-5.2z"/>
			<path fill-rule="evenodd" class="s1" d="m268.6 65.7l5-4.9 4.6 4.9 8.7-9.2 12 12.6c3.7-3.8 5.8-6 9.4-9.9"/>
			<path class="s5" d="m267 65.2h3.5v3.7h-3.5z"/>
			<path class="s6" d="m271.9 58.8h3.5v3.7h-3.5z"/>
			<path class="s7" d="m276.7 63.8h3.5v3.7h-3.5z"/>
			<path class="s8" d="m285.4 55.5h3.5v3.7h-3.5z"/>
			<path class="s5" d="m297.2 67.1h3.5v3.6h-3.5z"/>
			<path class="s9" d="m306.4 57.4h3.5v3.7h-3.5z"/>
		</g>
		<g id="Folder 1">
			<g id="Folder 2">
				<path class="s0" d="m30.3 44.8h119.7v87.3h-119.7z"/>
				<path class="s1" d="m30.3 44.8h119.7v87.3h-119.7z"/>
				<path class="s10" d="m30.3 44.8h119.7v87.3h-119.7z"/>
				<path fill-rule="evenodd" class="s8" d="m134.9 68.6h-84c-3.4 0-6.1-2.7-6.1-6 0-3.4 2.7-6.1 6.1-6.1h84c3.4 0 6.1 2.7 6.1 6.1 0 3.3-2.7 6-6.1 6zm-3.8-5.3c0.8 0.8 2.1 1 3.1 0.2l1.5 1.5c0.1 0.1 0.3 0.1 0.4 0 0.2-0.1 0.2-0.3 0-0.5l-1.4-1.4c0.7-1 0.6-2.3-0.2-3.1-1-1-2.5-1-3.4-0.1-0.9 1-0.9 2.5 0 3.4zm-80.2 4.7h75.8v-10.9h-75.8c-3 0-5.4 2.5-5.4 5.5 0 2.9 2.4 5.4 5.4 5.4z"/>
				<path class="s8" d="m134 62.9c0.7-0.7 0.7-1.8 0-2.5-0.7-0.7-1.8-0.7-2.4 0-0.7 0.7-0.7 1.8 0 2.5 0.6 0.7 1.7 0.6 2.4 0z"/>
				<path class="s8" d="m57.5 60.6h-0.4c-0.1 0-0.2 0.1-0.2 0.2-0.4 0.9-1 2.6-1.2 3-0.4-0.9-0.4-1-0.8-2.1 0 0 0.3-0.8 0.4-0.9 0-0.1-0.1-0.2-0.2-0.2h-0.4q-0.2 0-0.3 0.2c-1.5 3.8-1.1 2.8-1.2 3-1.2-3-1.1-3-1.3-3.1q0-0.1-0.1-0.1h-0.4q-0.2 0-0.2 0.2c0 0.1 1.7 4 1.7 4.1q0.1 0.1 0.2 0.1c0.1 0 0.4 0 0.3 0q0.1 0 0.2-0.1c0.1-0.2 0.5-1.2 0.9-2.2 0.9 2.3 0.8 2.1 0.9 2.2q0.1 0.1 0.2 0.1h0.2c0.1 0 0.2-0.1 0.3-0.1 0-0.1 1.6-4 1.6-4.1 0.1-0.1 0-0.2-0.2-0.2z"/>
				<path class="s8" d="m64.6 60.6h-0.3c-0.2 0-0.2 0.1-0.3 0.2-1 2.5-1 2.5-1.2 3-0.4-0.9-0.4-1-0.8-2.1 0.3-0.6 0.4-0.8 0.4-0.9 0-0.2-0.1-0.2-0.2-0.2h-0.4q-0.2 0-0.2 0.2c-1.6 3.8-1.2 2.8-1.2 3-1.3-3-1.2-3-1.3-3.1q-0.1-0.1-0.2-0.1h-0.4q-0.2 0-0.1 0.2c0 0.2 1.6 4.1 1.7 4.2q0.1 0 0.1 0c0.2 0 0.4 0 0.3 0 0.2 0 0.2-0.1 1.1-2.3 0.9 2.3 0.8 2.1 0.9 2.2q0.1 0.1 0.2 0.1c0.2 0 0.3 0 0.4-0.1 0.1 0 1.7-4 1.7-4.1 0.1-0.1 0-0.2-0.2-0.2z"/>
				<path class="s8" d="m71.8 60.6h-0.4c-0.1 0-0.2 0.1-0.3 0.2-0.9 2.4-1 2.5-1.2 3-0.3-0.9-0.4-1-0.8-2.1 0 0 0.4-0.8 0.4-0.9q0-0.2-0.2-0.2h-0.4q-0.2 0-0.2 0.2l-0.4 1c-0.4 0.9-0.6 1.4-0.8 2-1.2-3-1.1-3-1.3-3.2q-0.1 0-0.2 0h-0.3q-0.3 0-0.2 0.2c0 0.2 1.6 4.1 1.8 4.2q0 0 0.1 0c0.1 0 0.4 0 0.2 0q0.2 0 0.2-0.1c0.1-0.2 0.5-1.2 0.9-2.2 1 2.3 0.9 2.1 0.9 2.2q0.1 0.1 0.2 0.1h0.3c0.1 0 0.2-0.1 0.2-0.2 0 0 1.6-3.9 1.7-4q0-0.1-0.1-0.2 0 0-0.1 0z"/>
				<path class="s8" d="m73.3 64c-0.6 0-0.8 0.8-0.3 1.1 0.5 0.2 1-0.3 0.8-0.7-0.1-0.3-0.3-0.4-0.5-0.4z"/>
				<path class="s8" d="m75.9 64.1c-0.5-0.2-1 0.3-0.8 0.7 0.1 0.3 0.5 0.4 0.8 0.3 0.4-0.2 0.4-0.8 0-1z"/>
				<path class="s8" d="m78 64c-0.6 0-0.8 0.8-0.2 1.1 0.3 0.2 0.8-0.1 0.8-0.5 0-0.3-0.3-0.6-0.6-0.6z"/>
				<path fill-rule="evenodd" class="s1" d="m43.8 125h17"/>
				<path fill-rule="evenodd" class="s11" d="m76.3 118.7h17"/>
				<path fill-rule="evenodd" class="s12" d="m76.3 125h17"/>
				<path fill-rule="evenodd" class="s13" d="m108.8 118.7h17"/>
				<path fill-rule="evenodd" class="s14" d="m108.8 125h17"/>
				<g id="Clip-Path" clip-path="url(#cp1)">
					<g>
						<path class="s9" d="m99.2 77.3h-48.1v4.1h48.1z"/>
						<path class="s8" d="m120.9 82.9h-69.8v1.4h69.8z"/>
						<path class="s8" d="m114.3 85.7h-63.2v1.4h63.2z"/>
						<path class="s8" d="m117.8 88.5h-66.7v1.4h66.7z"/>
					</g>
				</g>
				<g id="Clip-Path" clip-path="url(#cp2)">
					<g>
						<path class="s9" d="m99.2 94.8h-48.1v4.1h48.1z"/>
						<path class="s8" d="m120.9 100.4h-69.8v1.4h69.8z"/>
						<path class="s8" d="m114.3 103.2h-63.2v1.4h63.2z"/>
						<path class="s8" d="m117.8 106h-66.7v1.4h66.7z"/>
					</g>
				</g>
				<path class="s15" d="m38 116.5h3.9v3.9h-3.9z"/>
				<path class="s16" d="m70.5 116.5h3.9v3.9h-3.9z"/>
				<path class="s17" d="m103 116.5h3.9v3.9h-3.9z"/>
				<path class="s18" d="m38 122.9h3.9v3.8h-3.9z"/>
				<path class="s19" d="m70.5 122.9h3.9v3.8h-3.9z"/>
				<path class="s20" d="m103 122.9h3.9v3.8h-3.9z"/>
				<path class="s21" d="m29.8 44.3h120.7v7.8h-120.7z"/>
			</g>
			<g id="Folder 3">
				<path class="s0" d="m236 40.1h50.9v40.7h-50.9z"/>
				<path class="s1" d="m236 40.1h50.9v40.7h-50.9z"/>
				<path class="s22" d="m236 40.1h50.9v40.7h-50.9z"/>
				<path class="s23" d="m260.7 63.9v-8.8c6.8 0 8.7 5.8 8.8 8.8z"/>
				<path fill-rule="evenodd" class="s1" d="m268.7 56.6l4.1-4.1h6.8"/>
				<path class="s24" d="m235.5 39.6h51.9v7.8h-51.9z"/>
				<path class="s1" d="m260.2 73.1c-5.1 0-9.2-4.2-9.2-9.2 0-5.1 4.1-9.3 9.2-9.3 5.1 0 9.3 4.2 9.3 9.3 0 5-4.2 9.2-9.3 9.2z"/>
				<path class="s0" d="m240.4 45.4c-1.1 0-2-0.8-2-1.9 0-1.1 0.9-2 2-2 1 0 1.9 0.9 1.9 2 0 1.1-0.9 1.9-1.9 1.9z"/>
				<path class="s0" d="m245.7 45.4c-1.1 0-1.9-0.8-1.9-1.9 0-1.1 0.8-2 1.9-2 1.1 0 1.9 0.9 1.9 2 0 1.1-0.8 1.9-1.9 1.9z"/>
				<path class="s0" d="m251 45.4c-1 0-1.9-0.8-1.9-1.9 0-1.1 0.9-2 1.9-2 1.1 0 2 0.9 2 2 0 1.1-0.9 1.9-2 1.9z"/>
				<path fill-rule="evenodd" class="s1" d="m253.2 69.2l-4.1 4.1h-6.8"/>
			</g>
			<g id="Folder 4">
				<path class="s9" d="m17.1 44.5v9h-9v-9z"/>
				<path class="s6" d="m97.1 34.1v3.9h-3.8v-3.9z"/>
				<path class="s9" d="m122.4 23.9v3.9h-3.9v-3.9z"/>
				<path class="s5" d="m138.4 26.4v7.7h-7.8v-7.7z"/>
				<path class="s6" d="m7.9 18.6v7.8h-7.7v-7.8z"/>
			</g>
		</g>
		<g id="Folder 1">
			<path class="s0" d="m321 642.7h-120.6v81.6h120.6z"/>
			<path fill-rule="evenodd" class="s8" d="m321.5 724.9h-121.7v-82.7h121.7zm-120.6-1h119.6v-80.6h-119.6z"/>
			<path fill-rule="evenodd" class="s25" d="m321.5 724.9h-121.7v-82.7h121.7zm-120.6-1h119.6v-80.6h-119.6z"/>
			<path class="s8" d="m321 651h-120.6v1.1h120.6z"/>
			<path class="s8" d="m321 651h-120.6v1.1h120.6z"/>
			<path class="s6" d="m206.4 648.8c1.1 0 1.9-0.9 1.9-1.9 0-1.1-0.8-2-1.9-2-1.1 0-1.9 0.9-1.9 2 0 1 0.8 1.9 1.9 1.9z"/>
			<path fill-rule="evenodd" class="s8" d="m206.4 649.3c-1.3 0-2.4-1.1-2.4-2.4 0-1.4 1.1-2.5 2.4-2.5 1.4 0 2.5 1.1 2.5 2.5 0 1.3-1.1 2.4-2.5 2.4zm0-3.8c-0.8 0-1.4 0.6-1.4 1.4 0 0.7 0.6 1.4 1.4 1.4 0.8 0 1.4-0.7 1.4-1.4 0-0.8-0.6-1.4-1.4-1.4z"/>
			<path class="s5" d="m212.4 648.8c1.1 0 1.9-0.9 1.9-1.9 0-1.1-0.8-2-1.9-2-1.1 0-1.9 0.9-1.9 2 0 1 0.8 1.9 1.9 1.9z"/>
			<path fill-rule="evenodd" class="s8" d="m212.4 649.3c-1.4 0-2.5-1.1-2.5-2.4 0-1.4 1.1-2.5 2.5-2.5 1.3 0 2.4 1.1 2.4 2.5 0 1.3-1.1 2.4-2.4 2.4zm0-3.8c-0.8 0-1.4 0.6-1.4 1.4 0 0.7 0.6 1.4 1.4 1.4 0.8 0 1.4-0.7 1.4-1.4 0-0.8-0.6-1.4-1.4-1.4z"/>
			<path class="s8" d="m218.5 648.8c1.1 0 2-0.9 2-1.9 0-1.1-0.9-2-2-2-1 0-1.9 0.9-1.9 2 0 1 0.9 1.9 1.9 1.9z"/>
			<path fill-rule="evenodd" class="s8" d="m218.5 649.3c-1.3 0-2.4-1.1-2.4-2.4 0-1.4 1.1-2.5 2.4-2.5 1.4 0 2.5 1.1 2.5 2.5 0 1.3-1.1 2.4-2.5 2.4zm0-3.8c-0.7 0-1.4 0.6-1.4 1.4 0 0.7 0.7 1.4 1.4 1.4 0.8 0 1.4-0.7 1.4-1.4 0-0.8-0.6-1.4-1.4-1.4z"/>
			<path class="s8" d="m237.8 684.1h-2.1v-1.1h2.1zm-4.2 0h-2.2v-1h2.2zm-4.3 0h-2.1v-1.1h2.1zm-4.2 0h-2.1v-1.1h2.1zm-4.2 0h-2.1v-1h2.1zm-4.2 0h-2.1v-1.1h2.1zm-4.2 0h-2.1v-1h2.1zm-3.6-0.6h-1.1v-2.1h1.1zm29.4-2.1h-1.1v-2.1h1.1zm-29.4-2.2h-1.1v-2.1h1.1zm29.4-2h-1.1v-2.1h1.1zm-29.4-2.2h-1.1v-2.1h1.1zm29.4-2.1h-1.1v-2.1h1.1zm-29.4-2.2h-1.1v-2.1h1.1zm29.4-2h-1.1v-2.1h1.1zm-29.4-2.2h-1.1v-2.1h1.1zm29.4-2h-1.1v-2.1h1.1zm-29.4-2.3h-1.1v-2.1h1.1zm29.4-2h-1.1v-2.1h1.1zm-2.5-1.7h-2.2v-1h2.2zm-4.3 0h-2.1v-1.1h2.1zm-4.2 0h-2.1v-1h2.1zm-4.2 0h-2.1v-1.1h2.1zm-4.2 0h-2.1v-1h2.1zm-4.2 0h-2.1v-1.1h2.1zm-4.2 0h-2.1v-1h2.1z"/>
			<path class="s5" d="m237.8 690h-29.4v25.4h29.4z"/>
			<path fill-rule="evenodd" class="s8" d="m238.3 715.9h-30.5v-26.5h30.5zm-29.4-1h28.3v-24.4h-28.3z"/>
			<path class="s0" d="m275.4 658.1h-29.5v25.4h29.5z"/>
			<path fill-rule="evenodd" class="s8" d="m275.9 684.1h-30.5v-26.5h30.5zm-29.4-1.1h28.3v-24.3h-28.3z"/>
			<path fill-rule="evenodd" class="s8" d="m275.9 684.1h-30.5v-26.5h30.5zm-29.4-1.1h28.3v-24.3h-28.3z"/>
			<path class="s0" d="m275.4 690h-29.5v25.4h29.5z"/>
			<path fill-rule="evenodd" class="s8" d="m275.9 715.9h-30.5v-26.5h30.5zm-29.4-1h28.3v-24.4h-28.3z"/>
			<path fill-rule="evenodd" class="s8" d="m275.9 715.9h-30.5v-26.5h30.5zm-29.4-1h28.3v-24.4h-28.3z"/>
			<path class="s0" d="m312.4 658.1h-29.4v25.4h29.4z"/>
			<path fill-rule="evenodd" class="s8" d="m312.9 684.1h-30.4v-26.5h30.4zm-29.4-1.1h28.4v-24.3h-28.4z"/>
			<path fill-rule="evenodd" class="s8" d="m312.9 684.1h-30.4v-26.5h30.4zm-29.4-1.1h28.4v-24.3h-28.4z"/>
			<path class="s0" d="m312.4 690h-29.4v25.4h29.4z"/>
			<path fill-rule="evenodd" class="s8" d="m312.9 715.9h-30.4v-26.5h30.4zm-29.4-1h28.4v-24.4h-28.4z"/>
			<path fill-rule="evenodd" class="s8" d="m312.9 715.9h-30.4v-26.5h30.4zm-29.4-1h28.4v-24.4h-28.4z"/>
			<path class="s8" d="m270.1 667.4h-29.4v25.5h29.4z"/>
			<path fill-rule="evenodd" class="s8" d="m270.6 693.4h-30.5v-26.5h30.5zm-29.4-1h28.4v-24.4h-28.4z"/>
			<path fill-rule="evenodd" class="s26" d="m270.6 693.4h-30.5v-26.5h30.5zm-29.4-1h28.4v-24.4h-28.4z"/>
			<path class="s0" d="m330.1 705.8h-33.2v25.4h33.2z"/>
			<path fill-rule="evenodd" class="s27" d="m330.7 731.7h-34.4v-26.5h34.4zm-33.2-1h32.1v-24.4h-32.1z"/>
			<path class="s9" d="m225.3 737.7h-9v9.1h9z"/>
			<path class="s6" d="m292.9 603.4h-3.9v3.9h3.9z"/>
			<path class="s9" d="m245.9 632.5h-3.9v3.9h3.9z"/>
			<path class="s5" d="m243.5 616.5h-7.8v7.8h7.8z"/>
			<path class="s6" d="m251.2 746.9h-7.7v7.8h7.7z"/>
		</g>
	</g>
</svg>