<svg width="527" height="629" viewBox="0 0 527 629" fill="none" xmlns="http://www.w3.org/2000/svg">
<g clip-path="url(#clip0_2298_14266)">
<path d="M282.767 188.555H258.438V212.015H282.767V188.555Z" fill="#4000C8"/>
<path d="M390.945 202.456H300.639C299.903 202.456 299.305 201.872 299.305 201.153C299.305 200.434 299.903 199.85 300.639 199.85H390.945C391.681 199.85 392.279 200.434 392.279 201.153C392.279 201.872 391.681 202.456 390.945 202.456Z" fill="#4000C8"/>
<path d="M391.127 230.762H259.337C258.702 230.762 258.186 230.245 258.186 229.609C258.186 228.973 258.702 228.456 259.337 228.456H391.127C391.763 228.456 392.279 228.973 392.279 229.609C392.279 230.245 391.763 230.762 391.127 230.762Z" fill="#4000C8"/>
<path d="M391.127 259.067H259.337C258.702 259.067 258.186 258.551 258.186 257.914C258.186 257.278 258.702 256.762 259.337 256.762H391.127C391.763 256.762 392.279 257.278 392.279 257.914C392.279 258.551 391.763 259.067 391.127 259.067Z" fill="#4000C8"/>
<path d="M391.127 287.372H259.337C258.702 287.372 258.186 286.856 258.186 286.22C258.186 285.584 258.702 285.067 259.337 285.067H391.127C391.763 285.067 392.279 285.584 392.279 286.22C392.279 286.856 391.763 287.372 391.127 287.372Z" fill="#4000C8"/>
<path d="M208.891 377.416C209.412 377.295 209.784 376.829 209.784 376.292V40.0383C209.784 39.5013 209.412 39.0354 208.891 38.9156L39.8034 0.0299072C39.1005 -0.138502 38.3939 0.402279 38.3939 1.15451C38.5584 432.05 37.9584 415.385 38.8295 416.078C39.7417 416.809 33.7075 417.459 208.891 377.416ZM207.481 375.373L40.6969 413.727V2.60096L207.481 40.9552V375.373Z" fill="#4000C8"/>
<path d="M208.891 377.416C209.412 377.295 209.784 376.829 209.784 376.292V40.0383C209.784 39.5013 209.412 39.0354 208.891 38.9156L39.8034 0.0299072C39.1005 -0.138502 38.3939 0.402279 38.3939 1.15451C38.5584 432.05 37.9584 415.385 38.8295 416.078C39.7417 416.809 33.7075 417.459 208.891 377.416ZM207.481 375.373L40.6969 413.727V2.60096L207.481 40.9552V375.373Z" fill="url(#paint0_linear_2298_14266)"/>
<path d="M179.166 353.719C179.688 353.598 180.06 353.132 180.06 352.595V63.7334C180.06 63.1963 179.688 62.7304 179.166 62.6088C62.2034 35.8841 69.3779 36.9563 68.5554 37.6168C68.2787 37.8358 68.1199 38.167 68.1199 38.5188C68.2863 392.863 67.703 378.034 68.5554 378.711C69.4658 379.441 63.4447 380.085 179.166 353.719ZM177.757 351.678L70.4229 376.363V39.9652L177.757 64.6503V351.676V351.678Z" fill="#4000C8"/>
<path d="M179.166 353.719C179.688 353.598 180.06 353.132 180.06 352.595V63.7334C180.06 63.1963 179.688 62.7304 179.166 62.6088C62.2034 35.8841 69.3779 36.9563 68.5554 37.6168C68.2787 37.8358 68.1199 38.167 68.1199 38.5188C68.2863 392.863 67.703 378.034 68.5554 378.711C69.4658 379.441 63.4447 380.085 179.166 353.719ZM177.757 351.678L70.4229 376.363V39.9652L177.757 64.6503V351.676V351.678Z" fill="url(#paint1_linear_2298_14266)"/>
<path d="M252.852 370.725C252.878 370.725 252.908 370.725 252.94 370.721C351.858 363.192 452.097 362.739 550.869 369.369C552.453 369.464 552.501 367.168 551.024 367.069C452.144 360.43 351.796 360.886 252.766 368.422C252.13 368.47 251.655 369.024 251.704 369.659C251.749 370.263 252.256 370.723 252.852 370.723V370.725Z" fill="#4000C8"/>
<path d="M252.852 370.725C252.878 370.725 252.908 370.725 252.94 370.721C351.858 363.192 452.097 362.739 550.869 369.369C552.453 369.464 552.501 367.168 551.024 367.069C452.144 360.43 351.796 360.886 252.766 368.422C252.13 368.47 251.655 369.024 251.704 369.659C251.749 370.263 252.256 370.723 252.852 370.723V370.725Z" fill="url(#paint2_linear_2298_14266)"/>
<path d="M213.977 374.045C214.012 374.045 214.046 374.045 214.081 374.041L218.166 373.672C219.673 373.534 219.489 371.242 217.957 371.376L215.128 371.633V44.81C345.5 63.1797 477.709 63.1778 608.104 44.81V362.224C608.104 362.86 608.62 363.377 609.256 363.377C609.891 363.377 610.407 362.86 610.407 362.224C610.258 29.9151 610.796 43.2943 610.011 42.6132C609.757 42.3961 609.424 42.2988 609.093 42.3437C478.041 60.9305 345.159 60.9305 214.137 42.3437C213.429 42.252 212.823 42.7891 212.823 43.4852V372.892C212.823 373.216 212.958 373.524 213.199 373.743C213.412 373.938 213.691 374.045 213.975 374.045H213.977Z" fill="#4000C8"/>
<path d="M213.977 374.045C214.012 374.045 214.046 374.045 214.081 374.041L218.166 373.672C219.673 373.534 219.489 371.242 217.957 371.376L215.128 371.633V44.81C345.5 63.1797 477.709 63.1778 608.104 44.81V362.224C608.104 362.86 608.62 363.377 609.256 363.377C609.891 363.377 610.407 362.86 610.407 362.224C610.258 29.9151 610.796 43.2943 610.011 42.6132C609.757 42.3961 609.424 42.2988 609.093 42.3437C478.041 60.9305 345.159 60.9305 214.137 42.3437C213.429 42.252 212.823 42.7891 212.823 43.4852V372.892C212.823 373.216 212.958 373.524 213.199 373.743C213.412 373.938 213.691 374.045 213.975 374.045H213.977Z" fill="url(#paint3_linear_2298_14266)"/>
<path d="M548.089 64.4785C552.05 64.4785 555.243 67.6745 555.243 71.6396C555.243 75.6048 552.05 78.8008 548.089 78.8008C544.128 78.8008 540.935 75.6048 540.935 71.6396C540.935 67.6745 544.128 64.4785 548.089 64.4785ZM548.089 64.4785C552.05 64.4785 555.243 67.6745 555.243 71.6396C555.243 75.6048 552.05 78.8008 548.089 78.8008C544.128 78.8008 540.935 75.6048 540.935 71.6396C540.935 67.6745 544.128 64.4785 548.089 64.4785ZM548.089 64.4785C552.05 64.4785 555.243 67.6745 555.243 71.6396C555.243 75.6048 552.05 78.8008 548.089 78.8008C544.128 78.8008 540.935 75.6048 540.935 71.6396C540.935 67.6745 544.128 64.4785 548.089 64.4785ZM548.089 64.4785C552.05 64.4785 555.243 67.6745 555.243 71.6396C555.243 75.6048 552.05 78.8008 548.089 78.8008C544.128 78.8008 540.935 75.6048 540.935 71.6396C540.935 67.6745 544.128 64.4785 548.089 64.4785ZM609.256 43.4854V85.7785C477.497 104.466 345.707 104.466 213.977 85.7785V43.4854C345.705 62.1732 477.496 62.1732 609.256 43.4854ZM572.039 62.5418L579.378 69.0274L573.821 75.4513C573.165 76.2597 573.759 77.3562 574.681 77.3562C575.656 77.3562 575.423 76.9052 581.098 70.5637C588.573 77.0231 588.403 77.3562 589.235 77.3562C590.327 77.3562 590.749 76.0389 589.972 75.3577L582.603 68.8104L589.052 61.3723C589.45 60.8802 589.42 60.1728 588.929 59.7425C588.437 59.342 587.73 59.3738 587.3 59.866L580.883 67.304L573.576 60.8184C573.084 60.388 572.348 60.418 571.948 60.9101C571.518 61.3704 571.548 62.1096 572.039 62.5399V62.5418ZM548.089 81.1061C553.308 81.1061 557.546 76.8641 557.546 71.6396C557.546 66.4152 553.308 62.1732 548.089 62.1732C542.87 62.1732 538.632 66.4152 538.632 71.6396C538.632 76.8641 542.87 81.1061 548.089 81.1061ZM548.089 64.4785C552.05 64.4785 555.243 67.6745 555.243 71.6396C555.243 75.6048 552.05 78.8008 548.089 78.8008C544.128 78.8008 540.935 75.6048 540.935 71.6396C540.935 67.6745 544.128 64.4785 548.089 64.4785ZM548.089 64.4785C552.05 64.4785 555.243 67.6745 555.243 71.6396C555.243 75.6048 552.05 78.8008 548.089 78.8008C544.128 78.8008 540.935 75.6048 540.935 71.6396C540.935 67.6745 544.128 64.4785 548.089 64.4785ZM548.089 64.4785C552.05 64.4785 555.243 67.6745 555.243 71.6396C555.243 75.6048 552.05 78.8008 548.089 78.8008C544.128 78.8008 540.935 75.6048 540.935 71.6396C540.935 67.6745 544.128 64.4785 548.089 64.4785ZM548.089 64.4785C552.05 64.4785 555.243 67.6745 555.243 71.6396C555.243 75.6048 552.05 78.8008 548.089 78.8008C544.128 78.8008 540.935 75.6048 540.935 71.6396C540.935 67.6745 544.128 64.4785 548.089 64.4785ZM548.089 64.4785C552.05 64.4785 555.243 67.6745 555.243 71.6396C555.243 75.6048 552.05 78.8008 548.089 78.8008C544.128 78.8008 540.935 75.6048 540.935 71.6396C540.935 67.6745 544.128 64.4785 548.089 64.4785Z" fill="url(#paint4_linear_2298_14266)"/>
<path d="M592.2 330.781C592.494 330.781 592.776 330.67 592.989 330.466C593.221 330.249 593.352 329.946 593.352 329.628V128.542C593.352 128.21 593.208 127.894 592.961 127.675C592.712 127.458 592.379 127.355 592.052 127.398C474.959 142.561 353.551 142.561 231.192 127.398C230.868 127.363 230.535 127.46 230.289 127.679C230.04 127.896 229.898 128.212 229.898 128.542C230.033 338.191 229.556 329.796 230.255 330.461C230.479 330.68 230.782 330.82 231.104 330.779C369.169 324.398 487.265 324.398 592.129 330.779C592.15 330.779 592.174 330.779 592.198 330.779L592.2 330.781ZM232.203 328.421V129.846C353.863 144.816 474.583 144.821 591.049 129.851V328.402C473.103 321.29 350.25 322.993 232.203 328.421Z" fill="#4000C8"/>
<path d="M592.2 330.781C592.494 330.781 592.776 330.67 592.989 330.466C593.221 330.249 593.352 329.946 593.352 329.628V128.542C593.352 128.21 593.208 127.894 592.961 127.675C592.712 127.458 592.379 127.355 592.052 127.398C474.959 142.561 353.551 142.561 231.192 127.398C230.868 127.363 230.535 127.46 230.289 127.679C230.04 127.896 229.898 128.212 229.898 128.542C230.033 338.191 229.556 329.796 230.255 330.461C230.479 330.68 230.782 330.82 231.104 330.779C369.169 324.398 487.265 324.398 592.129 330.779C592.15 330.779 592.174 330.779 592.198 330.779L592.2 330.781ZM232.203 328.421V129.846C353.863 144.816 474.583 144.821 591.049 129.851V328.402C473.103 321.29 350.25 322.993 232.203 328.421Z" fill="url(#paint5_linear_2298_14266)"/>
<path d="M479.53 209.608L452.036 211.896C451.599 183.858 473.12 161.242 499.966 159.148V186.811C488.817 188.693 480.213 198.088 479.53 209.608Z" fill="#4000C8"/>
<path d="M508.8 186.91V159.197C524.405 160.608 538.016 168.914 546.581 181.049L522.586 194.917C519.063 190.873 514.258 187.982 508.8 186.91Z" fill="#D2005E"/>
<path d="M452.916 220.698L480.567 218.396C481.928 222.762 484.491 226.591 487.841 229.543L471.056 251.352C461.788 243.735 455.208 232.973 452.916 220.7V220.698Z" fill="#EFCB42"/>
<path d="M527.102 202.521L551.058 188.676C567.301 222.771 542.678 263.167 504.059 263.167C494.707 263.167 485.938 260.686 478.354 256.361L495.473 234.12C515.148 241.491 534.425 222.227 527.104 202.521H527.102Z" fill="#38B763"/>
<path d="M454.151 287.305H532.424C533.06 287.305 533.576 286.789 533.576 286.153C533.576 285.516 533.06 285 532.424 285H454.151C453.516 285 453 285.516 453 286.153C453 286.789 453.516 287.305 454.151 287.305Z" fill="#4000C8"/>
<path d="M411.616 312.779C412.252 312.779 412.768 312.263 412.768 311.627V159.149C412.768 158.513 412.252 157.996 411.616 157.996C410.98 157.996 410.465 158.513 410.465 159.149V311.627C410.465 312.263 410.98 312.779 411.616 312.779Z" fill="#4000C8"/>
<path d="M411.616 312.779C412.252 312.779 412.768 312.263 412.768 311.627V159.149C412.768 158.513 412.252 157.996 411.616 157.996C410.98 157.996 410.465 158.513 410.465 159.149V311.627C410.465 312.263 410.98 312.779 411.616 312.779Z" fill="url(#paint6_linear_2298_14266)"/>
<path d="M132.445 113.828L95.5163 169.439L149.823 218.967L90.7373 265.019L142.003 305.424" stroke="#4000C8" stroke-width="2"/>
<path d="M103.771 158.143H86.3926V176.39H103.771V158.143Z" fill="#EFCB42"/>
<path d="M141.134 104.27H123.756V122.517H141.134V104.27Z" fill="#38B763"/>
<path d="M158.513 208.539H141.135V226.786H158.513V208.539Z" fill="#D2005E"/>
<path d="M103.771 251.985H86.3926V270.233H103.771V251.985Z" fill="#4000C8"/>
<path d="M149.824 293.693H132.445V311.941H149.824V293.693Z" fill="#A1A1AA"/>
<path d="M197.3 428.966L223.125 413.813C226.886 411.603 229.991 409.057 232.362 406.246C234.382 403.366 233.652 404.957 236.5 399.987C238.205 396.978 239.959 393.926 239.598 390.505C239.787 388.342 236.938 388.735 237.291 390.404C237.301 390.44 237.301 390.548 237.301 390.627C237.594 393.524 235.956 396.31 234.506 398.838C231.627 403.832 232.476 402.054 230.533 404.846C228.401 407.371 225.496 409.749 221.963 411.826L196.138 426.979C195.588 427.301 195.403 428.006 195.726 428.556C196.044 429.103 196.747 429.292 197.3 428.97V428.966Z" fill="#1A1A1A"/>
<path d="M176.009 601.704C179.002 594.796 191.36 572.268 207.864 537.458C209.777 533.437 211.846 529.387 213.936 525.297C231.427 491.05 232.599 483.646 231.13 448.792C230.827 441.618 230.483 433.488 223.855 428.467C223.582 428.273 223.354 428.108 223.094 427.947C222.559 427.612 221.847 427.773 221.507 428.316C221.17 428.858 221.337 429.567 221.875 429.904C222.094 430.039 222.281 430.176 222.471 430.31C228.907 435.187 228.5 443.558 228.949 451.457C229.326 459.2 229.218 465.974 229.132 473.215C228.793 491.143 220.196 507.971 211.883 524.247C209.784 528.354 207.705 532.424 205.782 536.468C189.382 571.085 176.848 593.982 173.897 600.784C172.865 603.16 171.797 605.617 170.401 607.303C168.195 609.966 158.501 607.941 155.072 607.265C138.218 603.961 123.709 604.812 109.457 600.855C106.109 599.928 105.597 599.055 105.346 594.987L105.305 594.345C105.116 591.618 104.097 584.962 98.7043 582.041C97.2332 581.241 95.3975 580.788 94.1525 579.961C90.4643 577.5 90.3708 572.296 90.5036 570.172C91.6439 552.072 87.3668 518.817 91.5897 490.663C92.8159 482.324 94.0852 473.704 97.7341 465.641C100.791 458.85 105.273 451.97 111.444 444.605C114.115 441.401 116.605 438.02 119.015 434.753C124.926 426.727 123.391 428.989 133.485 415.99C137.916 410.359 143.729 403.483 151.063 404.856C153.089 405.225 154.637 406.348 156.349 407.56C155.183 409.003 160.564 402.328 144.963 421.682C137.824 430.514 130.689 439.343 123.574 448.184C123.176 448.68 123.252 449.406 123.748 449.805C124.245 450.199 124.969 450.126 125.367 449.631C132.483 440.789 139.617 431.964 146.754 423.132C147.047 422.769 158.656 408.376 158.921 408.05C159.353 407.525 159.237 406.739 158.669 406.361C156.379 404.832 154.437 403.129 151.481 402.588C148.911 402.109 146.101 402.485 143.574 403.66C137.005 406.654 133.072 412.809 122.793 425.913C118.271 431.643 114.25 437.636 109.674 443.128C103.368 450.654 98.7735 457.71 95.6311 464.696C91.8495 473.051 90.5578 481.834 89.3072 490.328C86.7368 507.47 87.2977 525.037 87.8379 542.026C88.0454 548.543 88.5744 564.089 88.2043 570.032C87.8753 575.363 89.5745 579.682 92.8739 581.882C94.4591 582.941 96.1359 583.275 97.6052 584.072C100.648 585.722 102.667 589.624 103.006 594.509C103.31 599.423 103.793 601.676 108.838 603.081C123.443 607.134 137.695 606.208 154.627 609.533C157.02 610.007 159.497 610.493 161.998 610.733C171.141 611.603 172.293 610.276 176.007 601.708L176.009 601.704Z" fill="#1A1A1A"/>
<path d="M176.884 414.215C177.807 414.215 177.992 413.332 178.873 412.311C186.141 402.867 189.377 402.485 195.839 399.607C203.29 396.111 202.109 396.671 202.424 396.525C215.79 390.318 214.699 389.454 218.26 387.446C220.191 386.334 221.983 385.44 223.75 384.712C226.563 383.569 228.191 383.415 231.295 384.01C232.506 384.239 232.411 384.261 232.728 384.34C234.183 384.914 235.127 382.609 233.328 382.122V382.119C232.792 381.952 232.257 381.847 231.721 381.748C228.182 381.073 226.113 381.267 222.881 382.581C221.013 383.352 219.129 384.289 217.119 385.446C213.276 387.612 214.618 388.322 201.454 394.435C194.437 397.693 195.835 397.126 192.773 398.417C186.23 401.173 183.251 402.698 175.966 412.369C175.583 412.876 175.682 413.6 176.188 413.983C176.398 414.139 176.641 414.215 176.884 414.215Z" fill="#1A1A1A"/>
<path d="M141.437 462.289C141.512 462.213 180.368 410.447 180.545 410.152C180.656 410.049 180.792 409.809 180.899 409.616C181.349 408.808 180.787 407.854 180.039 407.796C179.936 407.713 179.482 407.098 179.239 406.767C176.212 402.633 170.002 400.681 163.325 403.292C159.805 404.667 156.881 406.944 153.853 410.677C153.451 411.171 153.526 411.897 154.021 412.298C154.509 412.702 155.238 412.625 155.64 412.129C158.44 408.679 160.99 406.677 164.164 405.438C168.827 403.615 174.423 404.13 177.386 408.133C177.67 408.52 177.988 408.952 178.358 409.311C177.431 410.668 178.287 409.252 172.12 417.481C171.888 417.792 141.876 457.909 139.768 460.686C139.371 461.153 139.371 461.848 139.813 462.289C140.037 462.514 140.986 462.738 141.437 462.289Z" fill="#1A1A1A"/>
<path d="M236.98 399.152C237.253 398.744 237.473 398.378 237.61 397.96C237.78 397.743 238.026 397.279 238.206 396.817C239.227 394.991 239.821 391.245 239.546 389.924C239.571 389.765 239.541 389.366 239.507 388.964C239.01 385.549 236.817 383.099 233.476 382.167C233.377 382.139 233.09 382.064 232.985 382.064C232.349 382.064 231.833 382.581 231.833 383.217C231.833 383.805 232.271 384.289 232.837 384.36C234.75 384.965 236.78 386.219 237.219 389.224C237.238 389.488 237.281 390.275 237.299 390.625C237.299 394.813 234.813 398.316 234.978 398.009C234.675 398.57 234.888 399.268 235.445 399.57C235.983 399.858 236.656 399.676 236.978 399.151L236.98 399.152Z" fill="#4000C8"/>
<path d="M236.98 399.152C237.253 398.744 237.473 398.378 237.61 397.96C237.78 397.743 238.026 397.279 238.206 396.817C239.227 394.991 239.821 391.245 239.546 389.924C239.571 389.765 239.541 389.366 239.507 388.964C239.01 385.549 236.817 383.099 233.476 382.167C233.377 382.139 233.09 382.064 232.985 382.064C232.349 382.064 231.833 382.581 231.833 383.217C231.833 383.805 232.271 384.289 232.837 384.36C234.75 384.965 236.78 386.219 237.219 389.224C237.238 389.488 237.281 390.275 237.299 390.625C237.299 394.813 234.813 398.316 234.978 398.009C234.675 398.57 234.888 399.268 235.445 399.57C235.983 399.858 236.656 399.676 236.978 399.151L236.98 399.152Z" fill="url(#paint7_linear_2298_14266)"/>
<path d="M171.172 536.045C173.018 535.989 173.828 535.19 174.183 534.527C200.066 482.197 198.864 484.76 198.931 484.429C204.491 454.516 203.737 435.972 210.815 431.109C213.25 429.44 216.802 429.245 221.999 430.506C222.526 430.63 223.077 430.372 223.313 429.874L223.431 429.619C223.472 429.567 223.509 429.509 223.541 429.449L255.107 367.697C255.187 367.54 255.23 367.364 255.232 367.186L255.724 331.566C255.729 331.115 255.475 330.701 255.067 330.509C254.665 330.316 254.179 330.374 253.836 330.664C224.104 355.544 225.739 354.011 225.532 354.436L207.444 391.782C207.168 392.354 207.409 393.045 207.979 393.322C208.555 393.595 209.241 393.359 209.521 392.786L227.498 355.663L253.385 334.043L252.935 366.885L221.664 428.061C216.254 426.874 212.372 427.243 209.514 429.208C201.287 434.855 202.481 452.654 196.694 483.849L172.138 533.468C172.015 533.694 171.209 533.739 170.947 533.739C165.636 533.739 151.519 526.073 148.81 521.679C148.459 521.107 148.412 520.759 148.481 520.633L197.737 428.514C198.036 427.952 197.825 427.252 197.264 426.953C196.722 426.654 196.009 426.859 195.705 427.424L146.451 519.542C146.1 520.199 145.879 521.313 146.85 522.89C150.033 528.053 164.904 536.178 171.172 536.041V536.045Z" fill="#4000C8"/>
<path d="M171.172 536.045C173.018 535.989 173.828 535.19 174.183 534.527C200.066 482.197 198.864 484.76 198.931 484.429C204.491 454.516 203.737 435.972 210.815 431.109C213.25 429.44 216.802 429.245 221.999 430.506C222.526 430.63 223.077 430.372 223.313 429.874L223.431 429.619C223.472 429.567 223.509 429.509 223.541 429.449L255.107 367.697C255.187 367.54 255.23 367.364 255.232 367.186L255.724 331.566C255.729 331.115 255.475 330.701 255.067 330.509C254.665 330.316 254.179 330.374 253.836 330.664C224.104 355.544 225.739 354.011 225.532 354.436L207.444 391.782C207.168 392.354 207.409 393.045 207.979 393.322C208.555 393.595 209.241 393.359 209.521 392.786L227.498 355.663L253.385 334.043L252.935 366.885L221.664 428.061C216.254 426.874 212.372 427.243 209.514 429.208C201.287 434.855 202.481 452.654 196.694 483.849L172.138 533.468C172.015 533.694 171.209 533.739 170.947 533.739C165.636 533.739 151.519 526.073 148.81 521.679C148.459 521.107 148.412 520.759 148.481 520.633L197.737 428.514C198.036 427.952 197.825 427.252 197.264 426.953C196.722 426.654 196.009 426.859 195.705 427.424L146.451 519.542C146.1 520.199 145.879 521.313 146.85 522.89C150.033 528.053 164.904 536.178 171.172 536.041V536.045Z" fill="url(#paint8_linear_2298_14266)"/>
<path d="M246.38 339.148L253.904 343.113L254.054 332.731L246.38 339.148Z" fill="#4000C8"/>
<path d="M246.38 339.148L253.904 343.113L254.054 332.731L246.38 339.148Z" fill="url(#paint9_linear_2298_14266)"/>
<path d="M171.526 539.761L181.389 519.96L153.635 505.767L143.46 524.688C140.775 529.625 168.844 544.72 171.524 539.759L171.526 539.761Z" fill="#4000C8"/>
<path d="M153.872 507.116L181.006 520.864L182.439 517.778L155.259 504.388L153.872 507.116Z" fill="#4000C8"/>
<path d="M153.872 507.116L181.006 520.864L182.439 517.778L155.259 504.388L153.872 507.116Z" fill="url(#paint10_linear_2298_14266)"/>
<path d="M165.13 590.014C217.32 488.153 215.292 492.391 215.309 491.929L217.855 444.947C217.89 444.31 217.404 443.768 216.769 443.732C216.088 443.697 215.591 444.185 215.557 444.819L213.024 491.559L163.079 588.961C162.791 589.528 163.014 590.224 163.58 590.512C164.139 590.802 164.838 590.583 165.13 590.014Z" fill="#4000C8"/>
<path d="M139.538 499.774L190.728 416.033L223.722 396.189C224.268 395.862 224.441 395.154 224.114 394.608C223.785 394.061 223.077 393.885 222.535 394.215C187.421 415.391 189.201 414.128 188.911 414.591L137.571 498.571C137.242 499.113 137.412 499.824 137.955 500.156C138.478 500.481 139.196 500.33 139.538 499.774Z" fill="#4000C8"/>
<path d="M119.843 493.503L123.346 479.132L160.047 417.792C160.374 417.246 160.196 416.537 159.651 416.211C159.116 415.889 158.404 416.059 158.073 416.608C119.809 480.594 121.226 478.101 121.152 478.418L117.607 492.957C117.458 493.574 117.835 494.199 118.452 494.349C119.075 494.501 119.694 494.117 119.843 493.503Z" fill="#4000C8"/>
<path d="M97.4387 573.819C98.078 573.819 98.5903 573.301 98.5903 572.665L98.4818 487.786L153.47 508.168C154.07 508.394 154.73 508.085 154.949 507.488C155.171 506.892 154.865 506.227 154.268 506.006C94.6441 484.108 97.6163 484.529 96.6686 485.184C95.7264 485.842 96.3639 480.846 96.2872 572.667C96.2872 573.303 96.8031 573.817 97.4387 573.817V573.819Z" fill="#4000C8"/>
<path d="M118.108 483.492C115.688 481.069 115.688 477.14 118.108 474.717C120.529 472.294 124.454 472.294 126.875 474.717C129.295 477.14 129.295 481.069 126.875 483.492C124.454 485.915 120.529 485.915 118.108 483.492Z" fill="#38B763"/>
<path d="M90.9695 555.45C90.5238 552.052 92.9142 548.936 96.3085 548.49C99.7028 548.044 102.816 550.436 103.261 553.834C103.707 557.232 101.317 560.348 97.9224 560.794C94.5281 561.24 91.4152 558.847 90.9695 555.45Z" fill="#38B763"/>
<path d="M151.62 513.265C148.214 512.924 145.728 509.884 146.069 506.474C146.409 503.064 149.447 500.576 152.854 500.917C156.26 501.258 158.745 504.298 158.405 507.708C158.064 511.118 155.027 513.606 151.62 513.265Z" fill="#38B763"/>
<path d="M168.224 573.257C166.393 570.361 167.254 566.528 170.147 564.696C173.04 562.863 176.869 563.725 178.7 566.62C180.53 569.516 179.67 573.349 176.777 575.182C173.884 577.014 170.055 576.153 168.224 573.257Z" fill="#38B763"/>
<path d="M185.954 422.175C182.762 420.936 181.178 417.342 182.415 414.146C183.652 410.951 187.243 409.365 190.435 410.604C193.627 411.843 195.212 415.437 193.974 418.632C192.737 421.827 189.146 423.413 185.954 422.175Z" fill="#38B763"/>
<path d="M207.043 492.891C206.597 489.493 208.987 486.377 212.382 485.931C215.776 485.485 218.889 487.878 219.335 491.276C219.78 494.673 217.39 497.789 213.996 498.235C210.601 498.682 207.488 496.289 207.043 492.891Z" fill="#38B763"/>
<rect x="84.3848" y="565.663" width="103.379" height="35.6255" transform="rotate(16.5653 84.3848 565.663)" fill="url(#paint11_linear_2298_14266)"/>
</g>
<defs>
<linearGradient id="paint0_linear_2298_14266" x1="68.7028" y1="82.3859" x2="-6.68388" y2="200.458" gradientUnits="userSpaceOnUse">
<stop stop-color="#E70071"/>
<stop offset="1" stop-color="#4000C8"/>
</linearGradient>
<linearGradient id="paint1_linear_2298_14266" x1="174.727" y1="120.876" x2="116.12" y2="104.827" gradientUnits="userSpaceOnUse">
<stop stop-color="#E70071"/>
<stop offset="1" stop-color="#4000C8"/>
</linearGradient>
<linearGradient id="paint2_linear_2298_14266" x1="304.896" y1="364.054" x2="304.871" y2="367.375" gradientUnits="userSpaceOnUse">
<stop stop-color="#E70071"/>
<stop offset="1" stop-color="#4000C8"/>
</linearGradient>
<linearGradient id="paint3_linear_2298_14266" x1="283.236" y1="107.984" x2="255.517" y2="234.347" gradientUnits="userSpaceOnUse">
<stop stop-color="#E70071"/>
<stop offset="1" stop-color="#4000C8"/>
</linearGradient>
<linearGradient id="paint4_linear_2298_14266" x1="609.256" y1="71.6399" x2="213.977" y2="71.6399" gradientUnits="userSpaceOnUse">
<stop stop-color="#E70071"/>
<stop offset="1" stop-color="#4F0DCF"/>
</linearGradient>
<linearGradient id="paint5_linear_2298_14266" x1="294.23" y1="167.644" x2="282.534" y2="247.134" gradientUnits="userSpaceOnUse">
<stop stop-color="#E70071"/>
<stop offset="1" stop-color="#4000C8"/>
</linearGradient>
<linearGradient id="paint6_linear_2298_14266" x1="410.872" y1="188.63" x2="407.387" y2="188.827" gradientUnits="userSpaceOnUse">
<stop stop-color="#E70071"/>
<stop offset="1" stop-color="#4000C8"/>
</linearGradient>
<linearGradient id="paint7_linear_2298_14266" x1="233.211" y1="385.556" x2="230.113" y2="390.752" gradientUnits="userSpaceOnUse">
<stop stop-color="#E70071"/>
<stop offset="1" stop-color="#4000C8"/>
</linearGradient>
<linearGradient id="paint8_linear_2298_14266" x1="250.506" y1="380.666" x2="199.051" y2="357.768" gradientUnits="userSpaceOnUse">
<stop stop-color="#E70071"/>
<stop offset="1" stop-color="#4000C8"/>
</linearGradient>
<linearGradient id="paint9_linear_2298_14266" x1="247.739" y1="334.786" x2="246.43" y2="338.466" gradientUnits="userSpaceOnUse">
<stop stop-color="#E70071"/>
<stop offset="1" stop-color="#4000C8"/>
</linearGradient>
<linearGradient id="paint10_linear_2298_14266" x1="158.931" y1="507.649" x2="157.956" y2="514.079" gradientUnits="userSpaceOnUse">
<stop stop-color="#E70071"/>
<stop offset="1" stop-color="#4000C8"/>
</linearGradient>
<linearGradient id="paint11_linear_2298_14266" x1="84.3848" y1="583.476" x2="187.763" y2="583.476" gradientUnits="userSpaceOnUse">
<stop stop-color="#E70071"/>
<stop offset="1" stop-color="#4F0DCF"/>
</linearGradient>
<clipPath id="clip0_2298_14266">
<rect width="527" height="629" fill="white" transform="matrix(-1 0 0 1 527 0)"/>
</clipPath>
</defs>
</svg>
