<svg width="328" height="257" viewBox="0 0 328 257" fill="none" xmlns="http://www.w3.org/2000/svg">
<g clip-path="url(#clip0_2298_6494)">
<path d="M115.61 77.0908H105.663V86.6828H115.61V77.0908Z" fill="#4000C8"/>
<path d="M159.838 82.7748H122.916C122.615 82.7748 122.371 82.536 122.371 82.2419C122.371 81.9477 122.615 81.709 122.916 81.709H159.838C160.139 81.709 160.384 81.9477 160.384 82.2419C160.384 82.536 160.139 82.7748 159.838 82.7748Z" fill="#4000C8"/>
<path d="M159.913 94.3473H106.03C105.771 94.3473 105.56 94.1362 105.56 93.8761C105.56 93.6159 105.771 93.4048 106.03 93.4048H159.913C160.173 93.4048 160.384 93.6159 160.384 93.8761C160.384 94.1362 160.173 94.3473 159.913 94.3473Z" fill="#4000C8"/>
<path d="M159.913 105.92H106.03C105.771 105.92 105.56 105.709 105.56 105.449C105.56 105.189 105.771 104.978 106.03 104.978H159.913C160.173 104.978 160.384 105.189 160.384 105.449C160.384 105.709 160.173 105.92 159.913 105.92Z" fill="#4000C8"/>
<path d="M159.913 117.493H106.03C105.771 117.493 105.56 117.282 105.56 117.022C105.56 116.761 105.771 116.55 106.03 116.55H159.913C160.173 116.55 160.384 116.761 160.384 117.022C160.384 117.282 160.173 117.493 159.913 117.493Z" fill="#4000C8"/>
<path d="M85.4052 154.308C85.6184 154.258 85.7705 154.067 85.7705 153.848V16.3701C85.7705 16.1506 85.6184 15.9601 85.4052 15.9111L16.2736 0.0126269C15.9863 -0.0562275 15.6974 0.164872 15.6974 0.472421C15.7646 176.645 15.5193 169.831 15.8755 170.114C16.2484 170.413 13.7813 170.679 85.4052 154.308ZM84.8289 153.472L16.639 169.153V1.0638L84.8289 16.745V153.472Z" fill="#4000C8"/>
<path d="M85.4052 154.308C85.6184 154.258 85.7705 154.067 85.7705 153.848V16.3701C85.7705 16.1506 85.6184 15.9601 85.4052 15.9111L16.2736 0.0126269C15.9863 -0.0562275 15.6974 0.164872 15.6974 0.472421C15.7646 176.645 15.5193 169.831 15.8755 170.114C16.2484 170.413 13.7813 170.679 85.4052 154.308ZM84.8289 153.472L16.639 169.153V1.0638L84.8289 16.745V153.472Z" fill="url(#paint0_linear_2298_6494)"/>
<path d="M73.2524 144.619C73.4656 144.569 73.6177 144.379 73.6177 144.159V26.0576C73.6177 25.8381 73.4656 25.6476 73.2524 25.5978C25.432 14.6714 28.3653 15.1098 28.0291 15.3799C27.9159 15.4694 27.851 15.6048 27.851 15.7486C27.919 160.623 27.6805 154.56 28.0291 154.837C28.4013 155.135 25.9395 155.398 73.2524 144.619ZM72.6761 143.784L28.7926 153.877V16.34L72.6761 26.4325V143.783V143.784Z" fill="#4000C8"/>
<path d="M73.2524 144.619C73.4656 144.569 73.6177 144.379 73.6177 144.159V26.0576C73.6177 25.8381 73.4656 25.6476 73.2524 25.5978C25.432 14.6714 28.3653 15.1098 28.0291 15.3799C27.9159 15.4694 27.851 15.6048 27.851 15.7486C27.919 160.623 27.6805 154.56 28.0291 154.837C28.4013 155.135 25.9395 155.398 73.2524 144.619ZM72.6761 143.784L28.7926 153.877V16.34L72.6761 26.4325V143.783V143.784Z" fill="url(#paint1_linear_2298_6494)"/>
<path d="M103.379 151.571C103.39 151.571 103.402 151.571 103.415 151.57C143.858 148.491 184.841 148.306 225.224 151.017C225.871 151.056 225.891 150.117 225.287 150.076C184.86 147.362 143.832 147.549 103.344 150.63C103.084 150.649 102.89 150.876 102.91 151.135C102.928 151.382 103.135 151.571 103.379 151.571V151.571Z" fill="#4000C8"/>
<path d="M103.379 151.571C103.39 151.571 103.402 151.571 103.415 151.57C143.858 148.491 184.841 148.306 225.224 151.017C225.871 151.056 225.891 150.117 225.287 150.076C184.86 147.362 143.832 147.549 103.344 150.63C103.084 150.649 102.89 150.876 102.91 151.135C102.928 151.382 103.135 151.571 103.379 151.571V151.571Z" fill="url(#paint2_linear_2298_6494)"/>
<path d="M87.4848 152.928C87.4993 152.928 87.513 152.928 87.5276 152.927L89.1975 152.776C89.8135 152.719 89.7386 151.782 89.1119 151.837L87.9556 151.942V18.3203C141.258 25.8308 195.312 25.8301 248.624 18.3203V148.096C248.624 148.356 248.835 148.567 249.095 148.567C249.355 148.567 249.566 148.356 249.566 148.096C249.505 12.2306 249.725 17.7006 249.404 17.4222C249.3 17.3334 249.164 17.2936 249.029 17.312C195.448 24.9112 141.119 24.9112 87.5505 17.312C87.2608 17.2745 87.0132 17.4941 87.0132 17.7787V152.457C87.0132 152.589 87.0682 152.716 87.1668 152.805C87.254 152.885 87.3678 152.928 87.484 152.928H87.4848Z" fill="#4000C8"/>
<path d="M87.4848 152.928C87.4993 152.928 87.513 152.928 87.5276 152.927L89.1975 152.776C89.8135 152.719 89.7386 151.782 89.1119 151.837L87.9556 151.942V18.3203C141.258 25.8308 195.312 25.8301 248.624 18.3203V148.096C248.624 148.356 248.835 148.567 249.095 148.567C249.355 148.567 249.566 148.356 249.566 148.096C249.505 12.2306 249.725 17.7006 249.404 17.4222C249.3 17.3334 249.164 17.2936 249.029 17.312C195.448 24.9112 141.119 24.9112 87.5505 17.312C87.2608 17.2745 87.0132 17.4941 87.0132 17.7787V152.457C87.0132 152.589 87.0682 152.716 87.1668 152.805C87.254 152.885 87.3678 152.928 87.484 152.928H87.4848Z" fill="url(#paint3_linear_2298_6494)"/>
<path d="M224.087 26.3614C225.707 26.3614 227.012 27.6681 227.012 29.2892C227.012 30.9104 225.707 32.2171 224.087 32.2171C222.468 32.2171 221.162 30.9104 221.162 29.2892C221.162 27.6681 222.468 26.3614 224.087 26.3614ZM224.087 26.3614C225.707 26.3614 227.012 27.6681 227.012 29.2892C227.012 30.9104 225.707 32.2171 224.087 32.2171C222.468 32.2171 221.162 30.9104 221.162 29.2892C221.162 27.6681 222.468 26.3614 224.087 26.3614ZM224.087 26.3614C225.707 26.3614 227.012 27.6681 227.012 29.2892C227.012 30.9104 225.707 32.2171 224.087 32.2171C222.468 32.2171 221.162 30.9104 221.162 29.2892C221.162 27.6681 222.468 26.3614 224.087 26.3614ZM224.087 26.3614C225.707 26.3614 227.012 27.6681 227.012 29.2892C227.012 30.9104 225.707 32.2171 224.087 32.2171C222.468 32.2171 221.162 30.9104 221.162 29.2892C221.162 27.6681 222.468 26.3614 224.087 26.3614ZM249.095 17.7783V35.0699C195.226 42.7105 141.343 42.7105 87.4848 35.0699V17.7783C141.342 25.4189 195.225 25.4189 249.095 17.7783ZM233.879 25.5696L236.88 28.2212L234.608 30.8476C234.339 31.1781 234.582 31.6265 234.959 31.6265C235.358 31.6265 235.262 31.4421 237.583 28.8493C240.639 31.4903 240.57 31.6265 240.91 31.6265C241.356 31.6265 241.529 31.0879 241.211 30.8094L238.198 28.1325L240.835 25.0914C240.998 24.8902 240.985 24.601 240.784 24.4251C240.583 24.2613 240.295 24.2743 240.119 24.4756L237.495 27.5166L234.507 24.865C234.306 24.689 234.005 24.7012 233.842 24.9025C233.666 25.0907 233.678 25.3928 233.879 25.5688V25.5696ZM224.087 33.1596C226.221 33.1596 227.954 31.4253 227.954 29.2892C227.954 27.1532 226.221 25.4189 224.087 25.4189C221.953 25.4189 220.221 27.1532 220.221 29.2892C220.221 31.4253 221.953 33.1596 224.087 33.1596ZM224.087 26.3614C225.707 26.3614 227.012 27.6681 227.012 29.2892C227.012 30.9104 225.707 32.2171 224.087 32.2171C222.468 32.2171 221.162 30.9104 221.162 29.2892C221.162 27.6681 222.468 26.3614 224.087 26.3614ZM224.087 26.3614C225.707 26.3614 227.012 27.6681 227.012 29.2892C227.012 30.9104 225.707 32.2171 224.087 32.2171C222.468 32.2171 221.162 30.9104 221.162 29.2892C221.162 27.6681 222.468 26.3614 224.087 26.3614ZM224.087 26.3614C225.707 26.3614 227.012 27.6681 227.012 29.2892C227.012 30.9104 225.707 32.2171 224.087 32.2171C222.468 32.2171 221.162 30.9104 221.162 29.2892C221.162 27.6681 222.468 26.3614 224.087 26.3614ZM224.087 26.3614C225.707 26.3614 227.012 27.6681 227.012 29.2892C227.012 30.9104 225.707 32.2171 224.087 32.2171C222.468 32.2171 221.162 30.9104 221.162 29.2892C221.162 27.6681 222.468 26.3614 224.087 26.3614ZM224.087 26.3614C225.707 26.3614 227.012 27.6681 227.012 29.2892C227.012 30.9104 225.707 32.2171 224.087 32.2171C222.468 32.2171 221.162 30.9104 221.162 29.2892C221.162 27.6681 222.468 26.3614 224.087 26.3614Z" fill="url(#paint4_linear_2298_6494)"/>
<path d="M242.121 135.24C242.241 135.24 242.357 135.195 242.444 135.112C242.539 135.023 242.592 134.899 242.592 134.769V52.5544C242.592 52.419 242.533 52.2897 242.433 52.2002C242.331 52.1114 242.195 52.0693 242.061 52.0869C194.187 58.2861 144.549 58.2861 94.5227 52.0869C94.3904 52.0724 94.2544 52.1122 94.1535 52.2017C94.0519 52.2904 93.9938 52.4197 93.9938 52.5544C94.0488 138.27 93.8539 134.838 94.1398 135.109C94.2315 135.199 94.3553 135.256 94.4867 135.239C150.935 132.63 199.219 132.63 242.092 135.239C242.101 135.239 242.111 135.239 242.121 135.239L242.121 135.24ZM94.9362 134.275V53.0876C144.677 59.208 194.034 59.2103 241.651 53.0899V134.268C193.428 131.36 143.2 132.056 94.9362 134.275Z" fill="#4000C8"/>
<path d="M242.121 135.24C242.241 135.24 242.357 135.195 242.444 135.112C242.539 135.023 242.592 134.899 242.592 134.769V52.5544C242.592 52.419 242.533 52.2897 242.433 52.2002C242.331 52.1114 242.195 52.0693 242.061 52.0869C194.187 58.2861 144.549 58.2861 94.5227 52.0869C94.3904 52.0724 94.2544 52.1122 94.1535 52.2017C94.0519 52.2904 93.9938 52.4197 93.9938 52.5544C94.0488 138.27 93.8539 134.838 94.1398 135.109C94.2315 135.199 94.3553 135.256 94.4867 135.239C150.935 132.63 199.219 132.63 242.092 135.239C242.101 135.239 242.111 135.239 242.121 135.239L242.121 135.24ZM94.9362 134.275V53.0876C144.677 59.208 194.034 59.2103 241.651 53.0899V134.268C193.428 131.36 143.2 132.056 94.9362 134.275Z" fill="url(#paint5_linear_2298_6494)"/>
<path d="M196.056 85.6987L184.815 86.6343C184.637 75.1708 193.436 65.9244 204.412 65.0684V76.3781C199.853 77.1477 196.335 80.989 196.056 85.6987Z" fill="#4000C8"/>
<path d="M208.024 76.4183V65.0879C214.404 65.6647 219.969 69.0608 223.471 74.0221L213.66 79.6919C212.22 78.0386 210.256 76.8566 208.024 76.4183Z" fill="#D2005E"/>
<path d="M185.176 90.233L196.481 89.292C197.037 91.0769 198.085 92.6421 199.455 93.8494L192.592 102.766C188.803 99.6515 186.113 95.2517 185.176 90.2338V90.233Z" fill="#EFCB42"/>
<path d="M215.507 82.8012L225.301 77.1406C231.942 91.0806 221.875 107.596 206.085 107.596C202.262 107.596 198.676 106.582 195.576 104.814L202.575 95.7206C210.619 98.7341 218.5 90.8579 215.507 82.8012H215.507Z" fill="#38B763"/>
<path d="M224.695 120.232C223.221 120.232 222.026 119.036 222.026 117.56C222.026 116.085 223.221 114.889 224.695 114.889C226.169 114.889 227.364 116.085 227.364 117.56C227.364 119.036 226.169 120.232 224.695 120.232Z" fill="#4000C8"/>
<path d="M185.681 117.465H217.683C217.942 117.465 218.153 117.254 218.153 116.994C218.153 116.734 217.942 116.522 217.683 116.522H185.681C185.421 116.522 185.21 116.734 185.21 116.994C185.21 117.254 185.421 117.465 185.681 117.465Z" fill="#4000C8"/>
<path d="M168.29 127.881C168.55 127.881 168.761 127.67 168.761 127.41V65.0689C168.761 64.8088 168.55 64.5977 168.29 64.5977C168.03 64.5977 167.819 64.8088 167.819 65.0689V127.41C167.819 127.67 168.03 127.881 168.29 127.881Z" fill="#4000C8"/>
<path d="M168.29 127.881C168.55 127.881 168.761 127.67 168.761 127.41V65.0689C168.761 64.8088 168.55 64.5977 168.29 64.5977C168.03 64.5977 167.819 64.8088 167.819 65.0689V127.41C167.819 127.67 168.03 127.881 168.29 127.881Z" fill="url(#paint6_linear_2298_6494)"/>
<path d="M54.1505 46.5391L39.0521 69.2755L61.2556 89.5251L37.0981 108.354L58.0583 124.873" stroke="#4000C8" stroke-width="0.817703"/>
<path d="M42.4269 64.6562H35.3218V72.1166H42.4269V64.6562Z" fill="#EFCB42"/>
<path d="M57.7028 42.6309H50.5977V50.0913H57.7028V42.6309Z" fill="#38B763"/>
<path d="M64.8083 85.2607H57.7031V92.7211H64.8083V85.2607Z" fill="#D2005E"/>
<path d="M42.4269 103.024H35.3218V110.485H42.4269V103.024Z" fill="#4000C8"/>
<path d="M61.2555 120.076H54.1504V127.537H61.2555V120.076Z" fill="#A1A1AA"/>
<path d="M320.477 170.998C320.583 170.998 320.687 170.962 320.77 170.896C320.883 170.806 320.948 170.671 320.948 170.527V1.25232C320.948 1.10849 320.883 0.973076 320.77 0.883566C320.659 0.794055 320.513 0.761923 320.372 0.792525L251.237 16.6902C251.023 16.7392 250.871 16.9297 250.871 17.1493V150.294C250.871 150.555 251.082 150.766 251.342 150.766C251.602 150.766 251.813 150.555 251.813 150.294V17.5249L320.007 1.8437V169.936L267.78 157.928C267.522 157.869 267.275 158.029 267.216 158.282C267.157 158.536 267.316 158.789 267.569 158.847L320.372 170.987C320.408 170.994 320.442 170.998 320.477 170.998Z" fill="#4000C8"/>
<path d="M320.477 170.998C320.583 170.998 320.687 170.962 320.77 170.896C320.883 170.806 320.948 170.671 320.948 170.527V1.25232C320.948 1.10849 320.883 0.973076 320.77 0.883566C320.659 0.794055 320.513 0.761923 320.372 0.792525L251.237 16.6902C251.023 16.7392 250.871 16.9297 250.871 17.1493V150.294C250.871 150.555 251.082 150.766 251.342 150.766C251.602 150.766 251.813 150.555 251.813 150.294V17.5249L320.007 1.8437V169.936L267.78 157.928C267.522 157.869 267.275 158.029 267.216 158.282C267.157 158.536 267.316 158.789 267.569 158.847L320.372 170.987C320.408 170.994 320.442 170.998 320.477 170.998Z" fill="url(#paint7_linear_2298_6494)"/>
<path d="M308.32 155.717C308.425 155.717 308.529 155.681 308.612 155.614C308.726 155.525 308.791 155.389 308.791 155.245V16.5261C308.791 16.3822 308.726 16.2468 308.612 16.1573C308.501 16.0678 308.351 16.0342 308.214 16.067L263.391 26.3753C263.177 26.425 263.025 26.6155 263.025 26.8351V144.937C263.025 145.157 263.177 145.347 263.391 145.397L308.214 155.705C308.249 155.714 308.284 155.717 308.32 155.717V155.717ZM307.849 17.1175V154.654L263.967 144.562V27.2107L307.849 17.1175Z" fill="#4000C8"/>
<path d="M308.32 155.717C308.425 155.717 308.529 155.681 308.612 155.614C308.726 155.525 308.791 155.389 308.791 155.245V16.5261C308.791 16.3822 308.726 16.2468 308.612 16.1573C308.501 16.0678 308.351 16.0342 308.214 16.067L263.391 26.3753C263.177 26.425 263.025 26.6155 263.025 26.8351V144.937C263.025 145.157 263.177 145.347 263.391 145.397L308.214 155.705C308.249 155.714 308.284 155.717 308.32 155.717V155.717ZM307.849 17.1175V154.654L263.967 144.562V27.2107L307.849 17.1175Z" fill="url(#paint8_linear_2298_6494)"/>
<path d="M80.6666 175.384L91.2252 169.188C92.7629 168.285 94.0324 167.244 95.0015 166.094C95.8277 164.917 95.5289 165.567 96.6936 163.535C97.3906 162.305 98.1075 161.057 97.96 159.659C98.0372 158.774 96.8725 158.935 97.0169 159.618C97.0207 159.632 97.0207 159.676 97.0207 159.709C97.1407 160.893 96.4712 162.032 95.8781 163.066C94.7011 165.108 95.0481 164.381 94.254 165.522C93.382 166.554 92.1943 167.527 90.7498 168.376L80.1912 174.571C79.9665 174.703 79.8909 174.991 80.0231 175.216C80.153 175.44 80.4404 175.517 80.6666 175.385V175.384Z" fill="#1A1A1A"/>
<path d="M71.9615 246.007C73.1852 243.183 78.2378 233.972 84.9857 219.74C85.7675 218.096 86.6136 216.44 87.4681 214.768C94.6194 200.766 95.0986 197.739 94.4979 183.489C94.3741 180.556 94.2335 177.232 91.5233 175.179C91.4117 175.099 91.3185 175.032 91.2123 174.966C90.9937 174.829 90.7025 174.895 90.5634 175.117C90.4258 175.339 90.4938 175.629 90.714 175.767C90.8034 175.822 90.8798 175.878 90.9578 175.933C93.5892 177.926 93.4226 181.349 93.606 184.578C93.7604 187.744 93.716 190.514 93.6809 193.474C93.5425 200.804 90.0276 207.684 86.6289 214.339C85.7706 216.018 84.9207 217.682 84.1342 219.335C77.4292 233.489 72.3047 242.85 71.0979 245.631C70.676 246.602 70.2396 247.607 69.6687 248.296C68.7668 249.385 64.8033 248.557 63.4016 248.281C56.5108 246.93 50.5785 247.278 44.7516 245.66C43.3828 245.281 43.1733 244.924 43.0709 243.261L43.0541 242.998C42.9769 241.884 42.5604 239.162 40.3554 237.968C39.7539 237.641 39.0034 237.456 38.4944 237.117C36.9865 236.111 36.9483 233.984 37.0025 233.115C37.4688 225.715 35.7201 212.119 37.4466 200.608C37.948 197.199 38.4669 193.674 39.9588 190.377C41.2084 187.601 43.0411 184.788 45.564 181.777C46.6562 180.467 47.6742 179.085 48.6594 177.749C51.076 174.468 50.4485 175.392 54.5757 170.078C56.387 167.776 58.7639 164.964 61.7622 165.526C62.5907 165.676 63.2235 166.135 63.9236 166.631C63.4467 167.221 65.647 164.492 59.2683 172.405C56.3496 176.016 53.4323 179.625 50.5234 183.24C50.3606 183.443 50.392 183.74 50.5945 183.903C50.7978 184.064 51.0936 184.034 51.2564 183.832C54.166 180.217 57.0825 176.609 60.0005 172.998C60.1205 172.849 64.8667 166.965 64.9752 166.832C65.1518 166.617 65.1044 166.295 64.8721 166.141C63.9358 165.516 63.1417 164.82 61.9334 164.598C60.8825 164.403 59.7338 164.556 58.7005 165.037C56.0148 166.261 54.4068 168.777 50.204 174.135C48.3552 176.477 46.7112 178.928 44.8403 181.173C42.2623 184.25 40.3837 187.135 39.099 189.991C37.5528 193.407 37.0247 196.998 36.5134 200.471C35.4625 207.479 35.6918 214.662 35.9127 221.608C35.9975 224.272 36.2138 230.628 36.0625 233.058C35.928 235.238 36.6227 237.003 37.9716 237.903C38.6198 238.336 39.3053 238.472 39.906 238.798C41.1503 239.473 41.9757 241.068 42.114 243.066C42.2386 245.075 42.4358 245.996 44.4986 246.57C50.4699 248.227 56.2968 247.849 63.2197 249.208C64.198 249.402 65.2106 249.601 66.2332 249.699C69.9713 250.054 70.4421 249.512 71.9608 246.009L71.9615 246.007Z" fill="#1A1A1A"/>
<path d="M72.3191 169.353C72.6966 169.353 72.7723 168.991 73.1323 168.574C76.1038 164.712 77.4268 164.556 80.0689 163.38C83.1153 161.951 82.6323 162.179 82.7615 162.12C88.2261 159.582 87.7797 159.229 89.2357 158.408C90.0252 157.953 90.7581 157.588 91.4804 157.29C92.6306 156.823 93.2963 156.76 94.565 157.003C95.0603 157.096 95.0213 157.106 95.1512 157.138C95.7458 157.373 96.1318 156.43 95.3966 156.231V156.23C95.1772 156.162 94.9586 156.119 94.7393 156.078C93.2925 155.802 92.4464 155.882 91.125 156.419C90.3615 156.734 89.5911 157.117 88.7695 157.59C87.1981 158.476 87.7469 158.766 82.3648 161.265C79.4957 162.597 80.0674 162.365 78.8155 162.893C76.1405 164.02 74.9222 164.644 71.9438 168.597C71.7871 168.805 71.8276 169.101 72.0348 169.258C72.1204 169.321 72.2197 169.353 72.3191 169.353Z" fill="#1A1A1A"/>
<path d="M57.8266 189.007C57.8572 188.976 73.7435 167.812 73.8161 167.691C73.8612 167.649 73.917 167.551 73.9606 167.472C74.1448 167.142 73.9147 166.751 73.609 166.728C73.567 166.694 73.3813 166.442 73.2819 166.307C72.0445 164.617 69.5056 163.819 66.7756 164.886C65.3364 165.448 64.1411 166.38 62.903 167.906C62.7386 168.108 62.7692 168.405 62.9718 168.568C63.1712 168.734 63.4693 168.702 63.6336 168.499C64.7785 167.089 65.821 166.27 67.1187 165.764C69.0249 165.018 71.3131 165.229 72.5245 166.865C72.6407 167.024 72.7706 167.2 72.9219 167.347C72.5428 167.902 72.8929 167.323 70.3715 170.688C70.2767 170.815 58.0062 187.216 57.1441 188.352C56.9821 188.543 56.9821 188.827 57.1625 189.007C57.2542 189.099 57.6424 189.191 57.8266 189.007Z" fill="#1A1A1A"/>
<path d="M96.8896 163.193C97.0011 163.027 97.0913 162.877 97.1471 162.706C97.2167 162.617 97.3175 162.428 97.3909 162.239C97.8082 161.492 98.0513 159.96 97.9389 159.42C97.9488 159.355 97.9366 159.192 97.9228 159.028C97.7195 157.632 96.823 156.63 95.4573 156.249C95.4168 156.238 95.2991 156.207 95.2563 156.207C94.9964 156.207 94.7855 156.418 94.7855 156.678C94.7855 156.919 94.9643 157.117 95.1959 157.146C95.9778 157.393 96.8078 157.905 96.9874 159.134C96.995 159.242 97.0126 159.564 97.0202 159.707C97.0202 161.419 96.0037 162.851 96.071 162.726C95.9472 162.956 96.0343 163.241 96.2621 163.364C96.4822 163.482 96.7573 163.408 96.8888 163.193L96.8896 163.193Z" fill="#4000C8"/>
<path d="M96.8896 163.193C97.0011 163.027 97.0913 162.877 97.1471 162.706C97.2167 162.617 97.3175 162.428 97.3909 162.239C97.8082 161.492 98.0513 159.96 97.9389 159.42C97.9488 159.355 97.9366 159.192 97.9228 159.028C97.7195 157.632 96.823 156.63 95.4573 156.249C95.4168 156.238 95.2991 156.207 95.2563 156.207C94.9964 156.207 94.7855 156.418 94.7855 156.678C94.7855 156.919 94.9643 157.117 95.1959 157.146C95.9778 157.393 96.8078 157.905 96.9874 159.134C96.995 159.242 97.0126 159.564 97.0202 159.707C97.0202 161.419 96.0037 162.851 96.071 162.726C95.9472 162.956 96.0343 163.241 96.2621 163.364C96.4822 163.482 96.7573 163.408 96.8888 163.193L96.8896 163.193Z" fill="url(#paint9_linear_2298_6494)"/>
<path d="M69.9835 219.163C70.7386 219.14 71.0695 218.813 71.2147 218.542C81.797 197.147 81.3056 198.195 81.3331 198.059C83.606 185.829 83.298 178.248 86.1916 176.259C87.1875 175.577 88.6396 175.497 90.7643 176.013C90.9798 176.064 91.2053 175.958 91.3016 175.754L91.3497 175.65C91.3665 175.629 91.3818 175.605 91.3948 175.581L104.3 150.333C104.333 150.269 104.351 150.197 104.352 150.125L104.553 135.561C104.555 135.377 104.451 135.208 104.284 135.129C104.12 135.05 103.921 135.074 103.781 135.192C91.6249 145.364 92.2936 144.738 92.2088 144.912L84.8136 160.18C84.7005 160.414 84.7991 160.697 85.0322 160.81C85.2676 160.922 85.5481 160.825 85.6627 160.591L93.0128 145.413L103.597 136.574L103.412 150.001L90.6275 175.013C88.4157 174.528 86.8282 174.679 85.6597 175.482C82.2961 177.791 82.7844 185.068 80.4182 197.822L70.3786 218.109C70.3282 218.202 69.9988 218.22 69.8918 218.22C67.7204 218.22 61.9486 215.086 60.8411 213.289C60.6975 213.055 60.6784 212.913 60.7066 212.862L80.8447 175.198C80.967 174.969 80.8806 174.683 80.6513 174.56C80.4297 174.438 80.1385 174.522 80.0139 174.753L59.8766 212.416C59.733 212.684 59.6428 213.139 60.0394 213.784C61.341 215.895 67.4209 219.217 69.9835 219.161V219.163Z" fill="#4000C8"/>
<path d="M69.9835 219.163C70.7386 219.14 71.0695 218.813 71.2147 218.542C81.797 197.147 81.3056 198.195 81.3331 198.059C83.606 185.829 83.298 178.248 86.1916 176.259C87.1875 175.577 88.6396 175.497 90.7643 176.013C90.9798 176.064 91.2053 175.958 91.3016 175.754L91.3497 175.65C91.3665 175.629 91.3818 175.605 91.3948 175.581L104.3 150.333C104.333 150.269 104.351 150.197 104.352 150.125L104.553 135.561C104.555 135.377 104.451 135.208 104.284 135.129C104.12 135.05 103.921 135.074 103.781 135.192C91.6249 145.364 92.2936 144.738 92.2088 144.912L84.8136 160.18C84.7005 160.414 84.7991 160.697 85.0322 160.81C85.2676 160.922 85.5481 160.825 85.6627 160.591L93.0128 145.413L103.597 136.574L103.412 150.001L90.6275 175.013C88.4157 174.528 86.8282 174.679 85.6597 175.482C82.2961 177.791 82.7844 185.068 80.4182 197.822L70.3786 218.109C70.3282 218.202 69.9988 218.22 69.8918 218.22C67.7204 218.22 61.9486 215.086 60.8411 213.289C60.6975 213.055 60.6784 212.913 60.7066 212.862L80.8447 175.198C80.967 174.969 80.8806 174.683 80.6513 174.56C80.4297 174.438 80.1385 174.522 80.0139 174.753L59.8766 212.416C59.733 212.684 59.6428 213.139 60.0394 213.784C61.341 215.895 67.4209 219.217 69.9835 219.161V219.163Z" fill="url(#paint10_linear_2298_6494)"/>
<path d="M100.733 138.661L103.809 140.283L103.87 136.038L100.733 138.661Z" fill="#4000C8"/>
<path d="M100.733 138.661L103.809 140.283L103.87 136.038L100.733 138.661Z" fill="url(#paint11_linear_2298_6494)"/>
<path d="M70.1288 220.682L74.1611 212.586L62.8138 206.783L58.6539 214.519C57.5564 216.538 69.032 222.709 70.128 220.681L70.1288 220.682Z" fill="#4000C8"/>
<path d="M62.9111 207.335L74.0046 212.956L74.5908 211.694L63.4782 206.22L62.9111 207.335Z" fill="#4000C8"/>
<path d="M62.9111 207.335L74.0046 212.956L74.5908 211.694L63.4782 206.22L62.9111 207.335Z" fill="url(#paint12_linear_2298_6494)"/>
<path d="M67.5135 241.228C88.8515 199.582 88.0222 201.315 88.0291 201.126L89.0701 181.917C89.0846 181.657 88.8859 181.435 88.626 181.421C88.3478 181.406 88.1445 181.606 88.1307 181.865L87.0951 200.975L66.6751 240.798C66.5574 241.029 66.6483 241.314 66.8799 241.432C67.1084 241.55 67.3943 241.461 67.5135 241.228Z" fill="#4000C8"/>
<path d="M57.0502 204.333L77.9792 170.096L91.4688 161.982C91.692 161.849 91.7631 161.559 91.6293 161.336C91.4948 161.113 91.2051 161.041 90.9835 161.175C76.6272 169.833 77.3548 169.317 77.2364 169.506L56.2461 203.841C56.1116 204.063 56.1812 204.354 56.4028 204.489C56.6168 204.622 56.9103 204.56 57.0502 204.333Z" fill="#4000C8"/>
<path d="M48.998 201.77L50.4302 195.894L65.4354 170.815C65.5691 170.592 65.4965 170.302 65.2734 170.169C65.0548 170.037 64.7636 170.107 64.6283 170.331C48.9842 196.492 49.5636 195.473 49.533 195.602L48.0839 201.547C48.0228 201.799 48.1771 202.055 48.4294 202.116C48.6839 202.178 48.9368 202.021 48.998 201.77Z" fill="#4000C8"/>
<path d="M39.8381 234.606C40.0995 234.606 40.3089 234.394 40.3089 234.134L40.2645 199.432L62.7466 207.765C62.992 207.857 63.2618 207.731 63.3512 207.487C63.4421 207.243 63.3168 206.971 63.073 206.881C38.6955 197.928 39.9107 198.1 39.5232 198.367C39.138 198.637 39.3986 196.594 39.3673 234.135C39.3673 234.395 39.5782 234.605 39.8381 234.605V234.606Z" fill="#4000C8"/>
<path d="M48.2888 197.677C47.2991 196.686 47.2991 195.08 48.2889 194.089C49.2786 193.098 50.8832 193.098 51.873 194.089C52.8627 195.08 52.8627 196.686 51.873 197.677C50.8833 198.667 49.2786 198.667 48.2888 197.677Z" fill="#38B763"/>
<path d="M37.1928 227.096C37.0106 225.707 37.9879 224.433 39.3757 224.251C40.7635 224.068 42.0362 225.047 42.2184 226.436C42.4006 227.825 41.4233 229.099 40.0356 229.281C38.6478 229.464 37.3751 228.486 37.1928 227.096Z" fill="#38B763"/>
<path d="M61.99 209.849C60.5973 209.71 59.5811 208.466 59.7204 207.072C59.8597 205.678 61.1016 204.661 62.4943 204.8C63.8871 204.94 64.9032 206.183 64.764 207.577C64.6247 208.971 63.3828 209.988 61.99 209.849Z" fill="#38B763"/>
<path d="M68.7787 234.376C68.0301 233.193 68.3821 231.625 69.5648 230.876C70.7475 230.127 72.3131 230.479 73.0616 231.663C73.8102 232.847 73.4582 234.414 72.2755 235.163C71.0928 235.913 69.5272 235.56 68.7787 234.376Z" fill="#38B763"/>
<path d="M76.0275 172.607C74.7224 172.1 74.0746 170.631 74.5806 169.324C75.0865 168.018 76.5546 167.37 77.8596 167.876C79.1647 168.382 79.8125 169.852 79.3066 171.158C78.8007 172.465 77.3325 173.113 76.0275 172.607Z" fill="#38B763"/>
<path d="M84.6494 201.519C84.4672 200.13 85.4445 198.856 86.8323 198.674C88.22 198.491 89.4927 199.47 89.675 200.859C89.8572 202.248 88.8799 203.522 87.4921 203.704C86.1043 203.887 84.8316 202.908 84.6494 201.519Z" fill="#38B763"/>
<rect x="34.501" y="231.271" width="42.2665" height="14.5655" transform="rotate(16.5653 34.501 231.271)" fill="url(#paint13_linear_2298_6494)"/>
</g>
<defs>
<linearGradient id="paint0_linear_2298_6494" x1="28.0892" y1="33.684" x2="-2.73275" y2="81.9581" gradientUnits="userSpaceOnUse">
<stop stop-color="#E70071"/>
<stop offset="1" stop-color="#4000C8"/>
</linearGradient>
<linearGradient id="paint1_linear_2298_6494" x1="71.4375" y1="49.4204" x2="47.476" y2="42.8589" gradientUnits="userSpaceOnUse">
<stop stop-color="#E70071"/>
<stop offset="1" stop-color="#4000C8"/>
</linearGradient>
<linearGradient id="paint2_linear_2298_6494" x1="124.657" y1="148.844" x2="124.647" y2="150.202" gradientUnits="userSpaceOnUse">
<stop stop-color="#E70071"/>
<stop offset="1" stop-color="#4000C8"/>
</linearGradient>
<linearGradient id="paint3_linear_2298_6494" x1="115.802" y1="44.1492" x2="104.468" y2="95.8127" gradientUnits="userSpaceOnUse">
<stop stop-color="#E70071"/>
<stop offset="1" stop-color="#4000C8"/>
</linearGradient>
<linearGradient id="paint4_linear_2298_6494" x1="249.095" y1="29.2893" x2="87.4848" y2="29.2893" gradientUnits="userSpaceOnUse">
<stop stop-color="#E70071"/>
<stop offset="1" stop-color="#4F0DCF"/>
</linearGradient>
<linearGradient id="paint5_linear_2298_6494" x1="120.296" y1="68.5416" x2="115.514" y2="101.041" gradientUnits="userSpaceOnUse">
<stop stop-color="#E70071"/>
<stop offset="1" stop-color="#4000C8"/>
</linearGradient>
<linearGradient id="paint6_linear_2298_6494" x1="167.986" y1="77.1225" x2="166.561" y2="77.2031" gradientUnits="userSpaceOnUse">
<stop stop-color="#E70071"/>
<stop offset="1" stop-color="#4000C8"/>
</linearGradient>
<linearGradient id="paint7_linear_2298_6494" x1="263.281" y1="34.47" x2="232.449" y2="82.7403" gradientUnits="userSpaceOnUse">
<stop stop-color="#E70071"/>
<stop offset="1" stop-color="#4000C8"/>
</linearGradient>
<linearGradient id="paint8_linear_2298_6494" x1="271.13" y1="43.6963" x2="243.91" y2="77.6165" gradientUnits="userSpaceOnUse">
<stop stop-color="#E70071"/>
<stop offset="1" stop-color="#4000C8"/>
</linearGradient>
<linearGradient id="paint9_linear_2298_6494" x1="95.3488" y1="157.635" x2="94.082" y2="159.759" gradientUnits="userSpaceOnUse">
<stop stop-color="#E70071"/>
<stop offset="1" stop-color="#4000C8"/>
</linearGradient>
<linearGradient id="paint10_linear_2298_6494" x1="102.419" y1="155.636" x2="81.3821" y2="146.274" gradientUnits="userSpaceOnUse">
<stop stop-color="#E70071"/>
<stop offset="1" stop-color="#4000C8"/>
</linearGradient>
<linearGradient id="paint11_linear_2298_6494" x1="101.288" y1="136.878" x2="100.753" y2="138.382" gradientUnits="userSpaceOnUse">
<stop stop-color="#E70071"/>
<stop offset="1" stop-color="#4000C8"/>
</linearGradient>
<linearGradient id="paint12_linear_2298_6494" x1="64.9794" y1="207.553" x2="64.5806" y2="210.182" gradientUnits="userSpaceOnUse">
<stop stop-color="#E70071"/>
<stop offset="1" stop-color="#4000C8"/>
</linearGradient>
<linearGradient id="paint13_linear_2298_6494" x1="34.501" y1="238.554" x2="76.7675" y2="238.554" gradientUnits="userSpaceOnUse">
<stop stop-color="#E70071"/>
<stop offset="1" stop-color="#4F0DCF"/>
</linearGradient>
<clipPath id="clip0_2298_6494">
<rect width="327.956" height="257" fill="white" transform="matrix(-1 0 0 1 327.956 0)"/>
</clipPath>
</defs>
</svg>
