<svg width="32" height="32" viewBox="0 0 32 32" fill="none" xmlns="http://www.w3.org/2000/svg">
<path d="M17 9.89828C17.1605 9.5491 17.25 9.16052 17.25 8.75104C17.25 7.23225 16.0188 6.00104 14.5 6.00104C12.9812 6.00104 11.75 7.23225 11.75 8.75104C11.75 9.16052 11.8395 9.5491 12 9.89828V10.501H7.5V15.001H8.10276C8.45194 14.8405 8.84052 14.751 9.25 14.751C10.7688 14.751 12 15.9823 12 17.501C12 19.0198 10.7688 20.251 9.25 20.251C8.84052 20.251 8.45194 20.1615 8.10276 20.001H7.5V24.501H21.5V20.001H22.1028C22.4519 20.1615 22.8405 20.251 23.25 20.251C24.7688 20.251 26 19.0198 26 17.501C26 15.9823 24.7688 14.751 23.25 14.751C22.8405 14.751 22.4519 14.8405 22.1028 15.001H21.5V10.501H17V9.89828Z" stroke="#4000C8" stroke-width="2"/>
</svg>
