<svg width="32" height="32" viewBox="0 0 32 33" fill="none" xmlns="http://www.w3.org/2000/svg">
<path d="M21.3332 18.513V25.1797L16.9998 29.513H15.9996L15.9998 22.1797H13.9831C12.9267 22.1797 11.9135 21.76 11.1665 21.013C10.4195 20.266 9.99984 19.2529 9.99984 18.1964V16.1797H2.6665L2.6665 15.1797L6.99984 10.8464H13.6665L17.4042 7.10862C19.2796 5.23326 21.8231 4.17969 24.4753 4.17969L27.9998 4.17969V7.70422C27.9998 10.3564 26.9463 12.8999 25.0709 14.7753L21.3332 18.513Z" stroke="#4000C8" stroke-width="2" stroke-linecap="square"/>
<path d="M5.33317 22.1797L5.25229 22.2606C4.87722 22.6356 4.6665 23.1443 4.6665 23.6748V27.513H8.50474C9.03518 27.513 9.54388 27.3023 9.91896 26.9272L9.99984 26.8464" stroke="#4000C8" stroke-width="2" stroke-linecap="square"/>
<path d="M21 11.1797L21.5 10.6797" stroke="#4000C8" stroke-width="2" stroke-linecap="square"/>
</svg>
