<svg width="33" height="32" viewBox="0 0 33 32" fill="none" xmlns="http://www.w3.org/2000/svg">
<path d="M1.3335 2V1H0.333496V2H1.3335ZM31.3335 2H32.3335V1H31.3335V2ZM31.3335 22.25V23.25H32.3335V22.25H31.3335ZM1.3335 22.25H0.333496V23.25H1.3335V22.25ZM10.3335 28.75H9.3335V30.75H10.3335V28.75ZM22.3335 30.75H23.3335V28.75H22.3335V30.75ZM1.3335 3H31.3335V1H1.3335V3ZM30.3335 2V22.25H32.3335V2H30.3335ZM31.3335 21.25H1.3335V23.25H31.3335V21.25ZM2.3335 22.25V2H0.333496V22.25H2.3335ZM15.3335 22.25V29.75H17.3335V22.25H15.3335ZM10.3335 30.75H22.3335V28.75H10.3335V30.75Z" fill="#4000C8"/>
</svg>
