<svg version="1.2" xmlns="http://www.w3.org/2000/svg" viewBox="0 0 345 306" width="345" height="306">
	<title>SEO-svg</title>
	<defs>
		<linearGradient id="g1" x2="1" gradientUnits="userSpaceOnUse" gradientTransform="matrix(13.469,70.079,-86.753,16.674,300.906,55.521)">
			<stop offset="0" stop-color="#e70071"/>
			<stop offset="1" stop-color="#4000c8"/>
		</linearGradient>
		<linearGradient id="g2" x2="1" gradientUnits="userSpaceOnUse" gradientTransform="matrix(6.336,33.953,-43.094,8.042,102.042,89.917)">
			<stop offset="0" stop-color="#e70071"/>
			<stop offset="1" stop-color="#4000c8"/>
		</linearGradient>
		<linearGradient id="g3" x2="1" gradientUnits="userSpaceOnUse" gradientTransform="matrix(6.158,9.643,-7.886,5.036,19.521,126.229)">
			<stop offset="0" stop-color="#e70071"/>
			<stop offset="1" stop-color="#4000c8"/>
		</linearGradient>
		<linearGradient id="g4" x2="1" gradientUnits="userSpaceOnUse" gradientTransform="matrix(3.59,7.964,-6.368,2.871,88.521,134.25)">
			<stop offset="0" stop-color="#e70071"/>
			<stop offset="1" stop-color="#4000c8"/>
		</linearGradient>
		<linearGradient id="g5" x2="1" gradientUnits="userSpaceOnUse" gradientTransform="matrix(9.962,10.608,-10.216,9.594,65.521,113.396)">
			<stop offset="0" stop-color="#e70071"/>
			<stop offset="1" stop-color="#4000c8"/>
		</linearGradient>
		<linearGradient id="g6" x2="1" gradientUnits="userSpaceOnUse" gradientTransform="matrix(7.913,10.276,-8.953,6.895,111.521,120.615)">
			<stop offset="0" stop-color="#e70071"/>
			<stop offset="1" stop-color="#4000c8"/>
		</linearGradient>
		<linearGradient id="g7" x2="1" gradientUnits="userSpaceOnUse" gradientTransform="matrix(-92.296,-20.433,7.937,-35.853,107.5,112.68)">
			<stop offset="0" stop-color="#e70071"/>
			<stop offset="1" stop-color="#4f0dcf"/>
		</linearGradient>
		<linearGradient id="g8" x2="1" gradientUnits="userSpaceOnUse" gradientTransform="matrix(198.344,0,0,25.045,127.016,57.13)">
			<stop offset="0" stop-color="#e70071"/>
			<stop offset="1" stop-color="#4f0dcf"/>
		</linearGradient>
		<linearGradient id="g9" x2="1" gradientUnits="userSpaceOnUse" gradientTransform="matrix(198.344,0,0,197.884,127.016,57.13)">
			<stop offset="0" stop-color="#e70071"/>
			<stop offset="1" stop-color="#4f0dcf"/>
		</linearGradient>
		<linearGradient id="g10" x2="1" gradientUnits="userSpaceOnUse" gradientTransform="matrix(-314.256,0,0,0,314.256,0)">
			<stop offset="0" stop-color="#e70071"/>
			<stop offset="1" stop-color="#4f0dcf"/>
		</linearGradient>
		<linearGradient id="g11" x2="1" gradientUnits="userSpaceOnUse" gradientTransform="matrix(-448.256,0,0,0,NaN,NaN)">
			<stop offset="0" stop-color="#e70071"/>
			<stop offset="1" stop-color="#4f0dcf"/>
		</linearGradient>
		<linearGradient id="g12" x2="1" gradientUnits="userSpaceOnUse" gradientTransform="matrix(-448.256,0,0,0,NaN,NaN)">
			<stop offset="0" stop-color="#e70071"/>
			<stop offset="1" stop-color="#4f0dcf"/>
		</linearGradient>
		<linearGradient id="g13" x2="1" gradientUnits="userSpaceOnUse" gradientTransform="matrix(-582.256,0,0,0,NaN,NaN)">
			<stop offset="0" stop-color="#e70071"/>
			<stop offset="1" stop-color="#4f0dcf"/>
		</linearGradient>
		<linearGradient id="g14" x2="1" gradientUnits="userSpaceOnUse" gradientTransform="matrix(-582.256,0,0,0,NaN,NaN)">
			<stop offset="0" stop-color="#e70071"/>
			<stop offset="1" stop-color="#4f0dcf"/>
		</linearGradient>
		<clipPath clipPathUnits="userSpaceOnUse" id="cp1">
			<path d="m140 87.5h164v26.09h-164z"/>
		</clipPath>
		<linearGradient id="g15" x2="1" gradientUnits="userSpaceOnUse" gradientTransform="matrix(-66.008,-51.137,41.272,-53.274,239.276,95.973)">
			<stop offset="0" stop-color="#e70071"/>
			<stop offset="1" stop-color="#4f0dcf"/>
		</linearGradient>
		<clipPath clipPathUnits="userSpaceOnUse" id="cp2">
			<path d="m140 123.59h164v26.09h-164z"/>
		</clipPath>
		<linearGradient id="g16" x2="1" gradientUnits="userSpaceOnUse" gradientTransform="matrix(-66.008,-51.137,41.272,-53.274,239.276,132.061)">
			<stop offset="0" stop-color="#e70071"/>
			<stop offset="1" stop-color="#4f0dcf"/>
		</linearGradient>
		<linearGradient id="g17" x2="1" gradientUnits="userSpaceOnUse" gradientTransform="matrix(-125.415,-56.736,56.736,-125.415,255,189.256)">
			<stop offset="0" stop-color="#e70071"/>
			<stop offset="1" stop-color="#4f0dcf"/>
		</linearGradient>
		<linearGradient id="g18" x2="1" gradientUnits="userSpaceOnUse" gradientTransform="matrix(-125.415,-56.736,56.736,-125.415,255,189.256)">
			<stop offset="0" stop-color="#e70071"/>
			<stop offset="1" stop-color="#4f0dcf"/>
		</linearGradient>
		<linearGradient id="g19" x2="1" gradientUnits="userSpaceOnUse" gradientTransform="matrix(-125.415,-56.736,56.736,-125.415,255,189.256)">
			<stop offset="0" stop-color="#e70071"/>
			<stop offset="1" stop-color="#4f0dcf"/>
		</linearGradient>
		<linearGradient id="g20" x2="1" gradientUnits="userSpaceOnUse" gradientTransform="matrix(-125.415,-56.736,56.736,-125.415,255,189.256)">
			<stop offset="0" stop-color="#e70071"/>
			<stop offset="1" stop-color="#4f0dcf"/>
		</linearGradient>
		<linearGradient id="g21" x2="1" gradientUnits="userSpaceOnUse" gradientTransform="matrix(-125.415,-56.736,56.736,-125.415,255,189.256)">
			<stop offset="0" stop-color="#e70071"/>
			<stop offset="1" stop-color="#4f0dcf"/>
		</linearGradient>
		<linearGradient id="g22" x2="1" gradientUnits="userSpaceOnUse" gradientTransform="matrix(-125.415,-56.736,56.736,-125.415,255,189.256)">
			<stop offset="0" stop-color="#e70071"/>
			<stop offset="1" stop-color="#4f0dcf"/>
		</linearGradient>
		<linearGradient id="g23" x2="1" gradientUnits="userSpaceOnUse" gradientTransform="matrix(-127.122,-132.354,137.132,-131.711,345,35.314)">
			<stop offset="0" stop-color="#e70071"/>
			<stop offset="1" stop-color="#4f0dcf"/>
		</linearGradient>
		<linearGradient id="g24" x2="1" gradientUnits="userSpaceOnUse" gradientTransform="matrix(6.947,32.869,-37.995,8.03,170.052,236.521)">
			<stop offset="0" stop-color="#e70071"/>
			<stop offset="1" stop-color="#4000c8"/>
		</linearGradient>
		<linearGradient id="g25" x2="1" gradientUnits="userSpaceOnUse" gradientTransform="matrix(-23.211,-4.11,2.444,-13.802,173,254.401)">
			<stop offset="0" stop-color="#e70071"/>
			<stop offset="1" stop-color="#4f0dcf"/>
		</linearGradient>
		<linearGradient id="g26" x2="1" gradientUnits="userSpaceOnUse" gradientTransform="matrix(-94.855,-42.439,23.745,-53.072,189,235.314)">
			<stop offset="0" stop-color="#e70071"/>
			<stop offset="1" stop-color="#4f0dcf"/>
		</linearGradient>
		<linearGradient id="g27" x2="1" gradientUnits="userSpaceOnUse" gradientTransform="matrix(23.211,4.11,-2.444,13.802,96,280.599)">
			<stop offset="0" stop-color="#e70071"/>
			<stop offset="1" stop-color="#4f0dcf"/>
		</linearGradient>
		<linearGradient id="g28" x2="1" gradientUnits="userSpaceOnUse" gradientTransform="matrix(-314.256,0,0,0,314.256,0)">
			<stop offset="0" stop-color="#e70071"/>
			<stop offset="1" stop-color="#4f0dcf"/>
		</linearGradient>
	</defs>
	<style>
		.s0 { fill: #ffffff } 
		.s1 { fill: none;stroke: #4000c8;stroke-width: 2 } 
		.s2 { fill: none;stroke: url(#g1);stroke-width: 2 } 
		.s3 { fill: none;stroke: url(#g2);stroke-width: 2 } 
		.s4 { fill: none;stroke: url(#g3);stroke-width: 2 } 
		.s5 { fill: none;stroke: url(#g4);stroke-width: 2 } 
		.s6 { fill: none;stroke: url(#g5);stroke-width: 2 } 
		.s7 { fill: none;stroke: url(#g6);stroke-width: 2 } 
		.s8 { fill: #38b763 } 
		.s9 { fill: none;stroke: url(#g7);stroke-width: 2 } 
		.s10 { fill: #efcb42 } 
		.s11 { fill: #d2005e } 
		.s12 { fill: #a1a1aa } 
		.s13 { fill: #4000c8 } 
		.s14 { fill: url(#g8) } 
		.s15 { fill: url(#g9) } 
		.s16 { fill: none;stroke: url(#g10);stroke-width: 2 } 
		.s17 { fill: none;stroke: url(#g11);stroke-width: 2 } 
		.s18 { fill: none;stroke: url(#g12);stroke-width: 2 } 
		.s19 { fill: none;stroke: url(#g13);stroke-width: 2 } 
		.s20 { fill: none;stroke: url(#g14);stroke-width: 2 } 
		.s21 { fill: url(#g15) } 
		.s22 { fill: url(#g16) } 
		.s23 { fill: url(#g17) } 
		.s24 { fill: url(#g18) } 
		.s25 { fill: url(#g19) } 
		.s26 { fill: url(#g20) } 
		.s27 { fill: url(#g21) } 
		.s28 { fill: url(#g22) } 
		.s29 { fill: url(#g23) } 
		.s30 { fill: none;stroke: url(#g24);stroke-width: 2 } 
		.s31 { fill: #4000c8;stroke: #4000c8;stroke-width: 2 } 
		.s32 { fill: none;stroke: url(#g25);stroke-width: 2 } 
		.s33 { fill: url(#g26) } 
		.s34 { fill: none;stroke: url(#g27);stroke-width: 2 } 
		.s35 { fill: none;stroke: url(#g28);stroke-width: 2 } 
	</style>
	<path class="s0" d="m97 20.5h247v180h-247z"/>
	<path class="s1" d="m97 20.5h247v180h-247z"/>
	<path class="s2" d="m97 20.5h247v180h-247z"/>
	<path class="s0" d="m1 73.5h122v86h-122z"/>
	<path class="s1" d="m1 73.5h122v86h-122z"/>
	<path class="s3" d="m1 73.5h122v86h-122z"/>
	<path class="s0" d="m9 120.5h12v32h-12z"/>
	<path class="s1" d="m9 120.5h12v32h-12z"/>
	<path class="s4" d="m9 120.5h12v32h-12z"/>
	<path class="s0" d="m78 130.5h12v22h-12z"/>
	<path class="s1" d="m78 130.5h12v22h-12z"/>
	<path class="s5" d="m78 130.5h12v22h-12z"/>
	<path class="s0" d="m55 104.5h12v48h-12z"/>
	<path class="s1" d="m55 104.5h12v48h-12z"/>
	<path class="s6" d="m55 104.5h12v48h-12z"/>
	<path class="s0" d="m101 113.5h12v39h-12z"/>
	<path class="s1" d="m101 113.5h12v39h-12z"/>
	<path class="s7" d="m101 113.5h12v39h-12z"/>
	<path class="s8" d="m32 128.5h14v25h-14z"/>
	<path fill-rule="evenodd" class="s9" d="m16.5 105.5l11.5-10.5 10.5 10.5 20-20 27.5 27.5c8.4-8.4 13.1-13.1 21.5-21.5"/>
	<path class="s10" d="m13 104.5h8v8h-8z"/>
	<path class="s11" d="m24 90.5h8v8h-8z"/>
	<path class="s12" d="m35 101.5h8v8h-8z"/>
	<path class="s13" d="m55 83.5h8v8h-8z"/>
	<path class="s10" d="m82 108.5h8v8h-8z"/>
	<path class="s8" d="m103 87.5h8v8h-8z"/>
	<path fill-rule="evenodd" class="s14" d="m312.8 69.7h-173.2c-7 0-12.6-5.7-12.6-12.6 0-6.9 5.6-12.5 12.6-12.5h173.2c6.9 0 12.6 5.6 12.6 12.5 0 6.9-5.7 12.6-12.6 12.6zm-7.8-17.9c-1.9 1.9-1.9 5 0 6.9 1.7 1.7 4.4 2 6.4 0.4l3.1 3c0.2 0.3 0.6 0.3 0.9 0 0.2-0.2 0.2-0.6 0-0.9l-3-3c1.5-2 1.2-4.7-0.5-6.4-1.9-1.9-5-2-6.9 0zm-165.4 16.5h156.3v-22.4h-156.3c-6.2 0-11.3 5-11.3 11.2 0 6.2 5.1 11.2 11.3 11.2z"/>
	<path class="s15" d="m311 57.8c1.4-1.4 1.4-3.7 0-5.1-1.4-1.4-3.7-1.4-5.1 0-1.4 1.4-1.4 3.7 0 5.1 1.4 1.4 3.7 1.4 5.1 0z"/>
	<path class="s13" d="m153.2 53.1h-0.8c-0.2 0-0.4 0.2-0.5 0.4-0.7 1.8-2.1 5.3-2.4 6.2-0.8-1.9-0.9-2-1.7-4.2 0-0.2 0.7-1.8 0.8-1.9 0-0.3-0.1-0.5-0.4-0.5h-0.8q-0.4 0-0.5 0.4c-3.2 7.9-2.4 5.8-2.5 6.2-2.5-6.1-2.3-6.2-2.7-6.5q-0.1-0.1-0.3-0.1h-0.8c-0.3 0-0.4 0.1-0.3 0.5 0 0.1 3.3 8.1 3.4 8.3q0.1 0.3 0.4 0.3c0.3 0 0.9 0 0.6 0q0.3 0 0.4-0.3c0.2-0.4 1-2.5 1.8-4.4 2 4.6 1.8 4.3 2 4.6q0.1 0.1 0.3 0.1h0.5c0.3 0 0.4-0.2 0.5-0.3 0-0.2 3.4-8.2 3.4-8.3 0.1-0.3-0.1-0.5-0.4-0.5z"/>
	<path class="s13" d="m167.9 53.1h-0.8c-0.2 0-0.4 0.2-0.5 0.4-2 5.1-2 5.2-2.4 6.2-0.8-1.9-0.9-2-1.8-4.2 0.6-1.4 0.9-1.9 0.9-2.1 0-0.2-0.2-0.3-0.5-0.3h-0.7q-0.4 0-0.5 0.4c-3.2 7.9-2.4 5.8-2.5 6.2-2.5-6.1-2.3-6.2-2.7-6.5q-0.1-0.1-0.3-0.1h-0.8c-0.3 0-0.4 0.1-0.4 0.5 0.1 0.2 3.4 8.4 3.7 8.6q0.1 0 0.2 0c0.3 0 0.9 0 0.6 0 0.5 0 0.3-0.2 2.2-4.7 2 4.6 1.7 4.3 2 4.6q0.1 0.1 0.3 0.1c0.4 0 0.7 0.1 0.9-0.2 0.1-0.1 3.5-8.3 3.5-8.4 0.1-0.3-0.1-0.5-0.4-0.5z"/>
	<path class="s13" d="m182.6 53.1h-0.8c-0.2 0-0.4 0.2-0.5 0.4-1.9 4.9-2.1 5.2-2.5 6.2-0.8-1.9-0.8-2-1.7-4.2 0.1-0.2 0.8-1.8 0.8-1.9 0.1-0.3-0.1-0.5-0.4-0.5h-0.8q-0.3 0-0.5 0.4l-0.8 2.1c-0.7 1.8-1.1 2.8-1.6 4.1-2.6-6.1-2.4-6.2-2.7-6.5q-0.1-0.1-0.3-0.1h-0.8c-0.3 0-0.5 0.1-0.4 0.5 0.1 0.2 3.4 8.4 3.7 8.6q0.1 0 0.2 0c0.3 0 0.9 0 0.6 0q0.3 0 0.4-0.3c0.1-0.4 1-2.5 1.8-4.4 1.9 4.6 1.7 4.3 1.9 4.6q0.1 0.1 0.4 0.1h0.5c0.2 0 0.4-0.2 0.5-0.3 0-0.2 3.4-8.2 3.4-8.3q0.1-0.3-0.1-0.4-0.1-0.1-0.3-0.1z"/>
	<path class="s13" d="m185.7 60.2c-1.2 0-1.6 1.7-0.5 2.2 1 0.4 2-0.5 1.6-1.5-0.2-0.5-0.6-0.7-1.1-0.7z"/>
	<path class="s13" d="m191 60.2c-0.9-0.4-1.9 0.6-1.5 1.6 0.3 0.6 1 0.8 1.5 0.6 1-0.4 1-1.7 0-2.2z"/>
	<path class="s13" d="m195.5 60.2c-1.3 0-1.7 1.7-0.5 2.2 0.7 0.3 1.6-0.2 1.6-1.1 0-0.7-0.5-1.1-1.1-1.1z"/>
	<path fill-rule="evenodd" class="s16" d="m125 186h35"/>
	<path fill-rule="evenodd" class="s17" d="m192 173h35"/>
	<path fill-rule="evenodd" class="s18" d="m192 186h35"/>
	<path fill-rule="evenodd" class="s19" d="m259 173h35"/>
	<path fill-rule="evenodd" class="s20" d="m259 186h35"/>
	<g id="Clip-Path" clip-path="url(#cp1)">
		<g>
			<path class="s21" d="m239.3 87.5h-99.3v8.6h99.3z"/>
			<path class="s13" d="m284 99.1h-144v2.8h144z"/>
			<path class="s13" d="m270.3 104.9h-130.3v2.8h130.3z"/>
			<path class="s13" d="m277.5 110.8h-137.5v2.8h137.5z"/>
		</g>
	</g>
	<g id="Clip-Path" clip-path="url(#cp2)">
		<g>
			<path class="s22" d="m239.3 123.6h-99.3v8.6h99.3z"/>
			<path class="s13" d="m284 135.2h-144v2.8h144z"/>
			<path class="s13" d="m270.3 141h-130.3v2.8h130.3z"/>
			<path class="s13" d="m277.5 146.8h-137.5v2.9h137.5z"/>
		</g>
	</g>
	<path class="s23" d="m113 168.5h8v8h-8z"/>
	<path class="s24" d="m180 168.5h8v8h-8z"/>
	<path class="s25" d="m247 168.5h8v8h-8z"/>
	<path class="s26" d="m113 181.5h8v8h-8z"/>
	<path class="s27" d="m180 181.5h8v8h-8z"/>
	<path class="s28" d="m247 181.5h8v8h-8z"/>
	<path class="s29" d="m96 19.5h249v16h-249z"/>
	<path class="s0" d="m83 220.5h105v84h-105z"/>
	<path class="s1" d="m83 220.5h105v84h-105z"/>
	<path class="s30" d="m83 220.5h105v84h-105z"/>
	<path class="s31" d="m134 269.5v-18c14 0 17.8 12 18 18z"/>
	<path fill-rule="evenodd" class="s32" d="m150.5 254.5l8.5-8.5h14"/>
	<path class="s33" d="m82 219.5h107v16h-107z"/>
	<path class="s1" d="m133 288.5c-10.5 0-19-8.5-19-19 0-10.5 8.5-19 19-19 10.5 0 19 8.5 19 19 0 10.5-8.5 19-19 19z"/>
	<path class="s0" d="m92 231.5c-2.2 0-4-1.8-4-4 0-2.2 1.8-4 4-4 2.2 0 4 1.8 4 4 0 2.2-1.8 4-4 4z"/>
	<path class="s0" d="m103 231.5c-2.2 0-4-1.8-4-4 0-2.2 1.8-4 4-4 2.2 0 4 1.8 4 4 0 2.2-1.8 4-4 4z"/>
	<path class="s0" d="m114 231.5c-2.2 0-4-1.8-4-4 0-2.2 1.8-4 4-4 2.2 0 4 1.8 4 4 0 2.2-1.8 4-4 4z"/>
	<path fill-rule="evenodd" class="s34" d="m118.5 280.5l-8.5 8.5h-14"/>
	<path fill-rule="evenodd" class="s35" d="m125 172h35"/>
	<path class="s8" d="m72 26.2v18.5h-18.6v-18.5z"/>
	<path class="s11" d="m237 4.7v8h-8v-8z"/>
	<path class="s10" d="m322-11.3v16h-16v-16z"/>
	<path class="s11" d="m36 19.5v16h-16v-16z"/>
</svg>