<svg version="1.2" xmlns="http://www.w3.org/2000/svg" viewBox="0 0 173 162" width="173" height="162">
	<title>SEO-svg</title>
	<defs>
		<linearGradient id="g1" x2="1" gradientUnits="userSpaceOnUse" gradientTransform="matrix(6.735,35.039,-43.376,8.337,150.953,36.51)">
			<stop offset="0" stop-color="#e70071"/>
			<stop offset="1" stop-color="#4000c8"/>
		</linearGradient>
		<linearGradient id="g2" x2="1" gradientUnits="userSpaceOnUse" gradientTransform="matrix(3.168,16.977,-21.547,4.021,51.521,53.708)">
			<stop offset="0" stop-color="#e70071"/>
			<stop offset="1" stop-color="#4000c8"/>
		</linearGradient>
		<linearGradient id="g3" x2="1" gradientUnits="userSpaceOnUse" gradientTransform="matrix(3.079,4.821,-3.943,2.518,10.26,71.865)">
			<stop offset="0" stop-color="#e70071"/>
			<stop offset="1" stop-color="#4000c8"/>
		</linearGradient>
		<linearGradient id="g4" x2="1" gradientUnits="userSpaceOnUse" gradientTransform="matrix(1.795,3.982,-3.184,1.435,44.76,75.875)">
			<stop offset="0" stop-color="#e70071"/>
			<stop offset="1" stop-color="#4000c8"/>
		</linearGradient>
		<linearGradient id="g5" x2="1" gradientUnits="userSpaceOnUse" gradientTransform="matrix(4.981,5.304,-5.108,4.797,33.26,65.448)">
			<stop offset="0" stop-color="#e70071"/>
			<stop offset="1" stop-color="#4000c8"/>
		</linearGradient>
		<linearGradient id="g6" x2="1" gradientUnits="userSpaceOnUse" gradientTransform="matrix(3.957,5.138,-4.477,3.448,56.26,69.057)">
			<stop offset="0" stop-color="#e70071"/>
			<stop offset="1" stop-color="#4000c8"/>
		</linearGradient>
		<linearGradient id="g7" x2="1" gradientUnits="userSpaceOnUse" gradientTransform="matrix(-46.148,-10.216,3.969,-17.927,54.25,65.09)">
			<stop offset="0" stop-color="#e70071"/>
			<stop offset="1" stop-color="#4f0dcf"/>
		</linearGradient>
		<linearGradient id="g8" x2="1" gradientUnits="userSpaceOnUse" gradientTransform="matrix(99.172,0,0,12.522,64.008,37.315)">
			<stop offset="0" stop-color="#e70071"/>
			<stop offset="1" stop-color="#4f0dcf"/>
		</linearGradient>
		<linearGradient id="g9" x2="1" gradientUnits="userSpaceOnUse" gradientTransform="matrix(99.172,0,0,98.952,64.008,37.315)">
			<stop offset="0" stop-color="#e70071"/>
			<stop offset="1" stop-color="#4f0dcf"/>
		</linearGradient>
		<linearGradient id="g10" x2="1" gradientUnits="userSpaceOnUse" gradientTransform="matrix(-153.146,0,0,0,153.146,0)">
			<stop offset="0" stop-color="#e70071"/>
			<stop offset="1" stop-color="#4f0dcf"/>
		</linearGradient>
		<linearGradient id="g11" x2="1" gradientUnits="userSpaceOnUse" gradientTransform="matrix(-220.146,0,0,0,NaN,NaN)">
			<stop offset="0" stop-color="#e70071"/>
			<stop offset="1" stop-color="#4f0dcf"/>
		</linearGradient>
		<linearGradient id="g12" x2="1" gradientUnits="userSpaceOnUse" gradientTransform="matrix(-220.146,0,0,0,NaN,NaN)">
			<stop offset="0" stop-color="#e70071"/>
			<stop offset="1" stop-color="#4f0dcf"/>
		</linearGradient>
		<linearGradient id="g13" x2="1" gradientUnits="userSpaceOnUse" gradientTransform="matrix(-287.146,0,0,0,NaN,NaN)">
			<stop offset="0" stop-color="#e70071"/>
			<stop offset="1" stop-color="#4f0dcf"/>
		</linearGradient>
		<linearGradient id="g14" x2="1" gradientUnits="userSpaceOnUse" gradientTransform="matrix(-287.146,0,0,0,NaN,NaN)">
			<stop offset="0" stop-color="#e70071"/>
			<stop offset="1" stop-color="#4f0dcf"/>
		</linearGradient>
		<clipPath clipPathUnits="userSpaceOnUse" id="cp1">
			<path d="m70.5 52.5h82v13.04h-82z"/>
		</clipPath>
		<linearGradient id="g15" x2="1" gradientUnits="userSpaceOnUse" gradientTransform="matrix(-33.004,-25.569,20.636,-26.637,120.138,56.737)">
			<stop offset="0" stop-color="#e70071"/>
			<stop offset="1" stop-color="#4f0dcf"/>
		</linearGradient>
		<clipPath clipPathUnits="userSpaceOnUse" id="cp2">
			<path d="m70.5 70.54h82v13.05h-82z"/>
		</clipPath>
		<linearGradient id="g16" x2="1" gradientUnits="userSpaceOnUse" gradientTransform="matrix(-33.004,-25.569,20.636,-26.637,120.138,74.781)">
			<stop offset="0" stop-color="#e70071"/>
			<stop offset="1" stop-color="#4f0dcf"/>
		</linearGradient>
		<linearGradient id="g17" x2="1" gradientUnits="userSpaceOnUse" gradientTransform="matrix(-62.707,-28.368,28.368,-62.707,128,103.378)">
			<stop offset="0" stop-color="#e70071"/>
			<stop offset="1" stop-color="#4f0dcf"/>
		</linearGradient>
		<linearGradient id="g18" x2="1" gradientUnits="userSpaceOnUse" gradientTransform="matrix(-62.707,-28.368,28.368,-62.707,128,103.378)">
			<stop offset="0" stop-color="#e70071"/>
			<stop offset="1" stop-color="#4f0dcf"/>
		</linearGradient>
		<linearGradient id="g19" x2="1" gradientUnits="userSpaceOnUse" gradientTransform="matrix(-62.707,-28.368,28.368,-62.707,128,103.378)">
			<stop offset="0" stop-color="#e70071"/>
			<stop offset="1" stop-color="#4f0dcf"/>
		</linearGradient>
		<linearGradient id="g20" x2="1" gradientUnits="userSpaceOnUse" gradientTransform="matrix(-62.707,-28.368,28.368,-62.707,128,103.378)">
			<stop offset="0" stop-color="#e70071"/>
			<stop offset="1" stop-color="#4f0dcf"/>
		</linearGradient>
		<linearGradient id="g21" x2="1" gradientUnits="userSpaceOnUse" gradientTransform="matrix(-62.707,-28.368,28.368,-62.707,128,103.378)">
			<stop offset="0" stop-color="#e70071"/>
			<stop offset="1" stop-color="#4f0dcf"/>
		</linearGradient>
		<linearGradient id="g22" x2="1" gradientUnits="userSpaceOnUse" gradientTransform="matrix(-62.707,-28.368,28.368,-62.707,128,103.378)">
			<stop offset="0" stop-color="#e70071"/>
			<stop offset="1" stop-color="#4f0dcf"/>
		</linearGradient>
		<linearGradient id="g23" x2="1" gradientUnits="userSpaceOnUse" gradientTransform="matrix(-63.561,-66.177,68.566,-65.855,173,26.407)">
			<stop offset="0" stop-color="#e70071"/>
			<stop offset="1" stop-color="#4f0dcf"/>
		</linearGradient>
		<linearGradient id="g24" x2="1" gradientUnits="userSpaceOnUse" gradientTransform="matrix(3.474,16.435,-18.998,4.015,85.526,127.01)">
			<stop offset="0" stop-color="#e70071"/>
			<stop offset="1" stop-color="#4000c8"/>
		</linearGradient>
		<linearGradient id="g25" x2="1" gradientUnits="userSpaceOnUse" gradientTransform="matrix(-11.606,-2.056,1.223,-6.902,87,135.951)">
			<stop offset="0" stop-color="#e70071"/>
			<stop offset="1" stop-color="#4f0dcf"/>
		</linearGradient>
		<linearGradient id="g26" x2="1" gradientUnits="userSpaceOnUse" gradientTransform="matrix(-47.428,-21.219,11.872,-26.536,95,126.407)">
			<stop offset="0" stop-color="#e70071"/>
			<stop offset="1" stop-color="#4f0dcf"/>
		</linearGradient>
		<linearGradient id="g27" x2="1" gradientUnits="userSpaceOnUse" gradientTransform="matrix(11.606,2.056,-1.223,6.902,48.5,149.049)">
			<stop offset="0" stop-color="#e70071"/>
			<stop offset="1" stop-color="#4f0dcf"/>
		</linearGradient>
		<linearGradient id="g28" x2="1" gradientUnits="userSpaceOnUse" gradientTransform="matrix(-153.146,0,0,0,153.146,0)">
			<stop offset="0" stop-color="#e70071"/>
			<stop offset="1" stop-color="#4f0dcf"/>
		</linearGradient>
	</defs>
	<style>
		.s0 { fill: #ffffff } 
		.s1 { fill: none;stroke: #4000c8 } 
		.s2 { fill: none;stroke: url(#g1) } 
		.s3 { fill: none;stroke: url(#g2) } 
		.s4 { fill: none;stroke: url(#g3) } 
		.s5 { fill: none;stroke: url(#g4) } 
		.s6 { fill: none;stroke: url(#g5) } 
		.s7 { fill: none;stroke: url(#g6) } 
		.s8 { fill: #38b763 } 
		.s9 { fill: none;stroke: url(#g7) } 
		.s10 { fill: #efcb42 } 
		.s11 { fill: #d2005e } 
		.s12 { fill: #a1a1aa } 
		.s13 { fill: #4000c8 } 
		.s14 { fill: url(#g8) } 
		.s15 { fill: url(#g9) } 
		.s16 { fill: none;stroke: url(#g10) } 
		.s17 { fill: none;stroke: url(#g11) } 
		.s18 { fill: none;stroke: url(#g12) } 
		.s19 { fill: none;stroke: url(#g13) } 
		.s20 { fill: none;stroke: url(#g14) } 
		.s21 { fill: url(#g15) } 
		.s22 { fill: url(#g16) } 
		.s23 { fill: url(#g17) } 
		.s24 { fill: url(#g18) } 
		.s25 { fill: url(#g19) } 
		.s26 { fill: url(#g20) } 
		.s27 { fill: url(#g21) } 
		.s28 { fill: url(#g22) } 
		.s29 { fill: url(#g23) } 
		.s30 { fill: none;stroke: url(#g24) } 
		.s31 { fill: #4000c8;stroke: #4000c8 } 
		.s32 { fill: none;stroke: url(#g25) } 
		.s33 { fill: url(#g26) } 
		.s34 { fill: none;stroke: url(#g27) } 
		.s35 { fill: none;stroke: url(#g28) } 
	</style>
	<path class="s0" d="m49 19h123.5v90h-123.5z"/>
	<path class="s1" d="m49 19h123.5v90h-123.5z"/>
	<path class="s2" d="m49 19h123.5v90h-123.5z"/>
	<path class="s0" d="m1 45.5h61v43h-61z"/>
	<path class="s1" d="m1 45.5h61v43h-61z"/>
	<path class="s3" d="m1 45.5h61v43h-61z"/>
	<path class="s0" d="m5 69h6v16h-6z"/>
	<path class="s1" d="m5 69h6v16h-6z"/>
	<path class="s4" d="m5 69h6v16h-6z"/>
	<path class="s0" d="m39.5 74h6v11h-6z"/>
	<path class="s1" d="m39.5 74h6v11h-6z"/>
	<path class="s5" d="m39.5 74h6v11h-6z"/>
	<path class="s0" d="m28 61h6v24h-6z"/>
	<path class="s1" d="m28 61h6v24h-6z"/>
	<path class="s6" d="m28 61h6v24h-6z"/>
	<path class="s0" d="m51 65.5h6v19.5h-6z"/>
	<path class="s1" d="m51 65.5h6v19.5h-6z"/>
	<path class="s7" d="m51 65.5h6v19.5h-6z"/>
	<path class="s8" d="m16.5 73h7v12.5h-7z"/>
	<path fill-rule="evenodd" class="s9" d="m8.8 61.5l5.7-5.3 5.2 5.3 10-10 13.8 13.8c4.2-4.2 6.6-6.6 10.7-10.8"/>
	<path class="s10" d="m7 61h4v4h-4z"/>
	<path class="s11" d="m12.5 54h4v4h-4z"/>
	<path class="s12" d="m18 59.5h4v4h-4z"/>
	<path class="s13" d="m28 50.5h4v4h-4z"/>
	<path class="s10" d="m41.5 63h4v4h-4z"/>
	<path class="s8" d="m52 52.5h4v4h-4z"/>
	<path fill-rule="evenodd" class="s14" d="m156.9 43.6h-86.6c-3.5 0-6.3-2.8-6.3-6.3 0-3.4 2.8-6.2 6.3-6.2h86.6c3.5 0 6.3 2.8 6.3 6.2 0 3.5-2.8 6.3-6.3 6.3zm-3.9-9c-1 1-1 2.6 0 3.5 0.8 0.9 2.2 1 3.2 0.2l1.5 1.5c0.2 0.1 0.4 0.1 0.5 0 0.1-0.1 0.1-0.3 0-0.4l-1.5-1.6c0.8-1 0.6-2.3-0.2-3.2-1-0.9-2.6-0.9-3.5 0zm-82.7 8.3h78.2v-11.2h-78.2c-3.1 0-5.6 2.5-5.6 5.6 0 3.1 2.5 5.6 5.6 5.6z"/>
	<path class="s15" d="m156 37.6c0.7-0.7 0.7-1.8 0-2.5-0.7-0.7-1.8-0.7-2.5 0-0.8 0.7-0.8 1.8 0 2.5 0.7 0.7 1.8 0.7 2.5 0z"/>
	<path class="s13" d="m77.1 35.3h-0.4c-0.1 0-0.2 0.1-0.2 0.2-0.4 0.9-1.1 2.7-1.3 3.1-0.4-1-0.4-1-0.8-2.1 0-0.1 0.4-0.9 0.4-1 0-0.1-0.1-0.2-0.2-0.2h-0.4q-0.2 0-0.3 0.2c-1.5 3.9-1.1 2.9-1.2 3.1-1.3-3.1-1.2-3.1-1.3-3.2q-0.1-0.1-0.2-0.1h-0.4q-0.2 0-0.2 0.2c0 0.1 1.7 4.1 1.8 4.2q0 0.1 0.2 0.1c0.1 0 0.4 0 0.3 0q0.1 0 0.2-0.1c0-0.2 0.5-1.2 0.9-2.2 0.9 2.3 0.8 2.1 0.9 2.3q0.1 0 0.2 0h0.3c0.1 0 0.2 0 0.2-0.1 0-0.1 1.7-4.1 1.7-4.2 0.1-0.1 0-0.2-0.2-0.2z"/>
	<path class="s13" d="m84.5 35.3h-0.4c-0.2 0-0.3 0.1-0.3 0.2-1 2.6-1 2.6-1.2 3.1-0.4-1-0.5-1-0.9-2.1 0.3-0.7 0.4-0.9 0.4-1 0-0.2-0.1-0.2-0.2-0.2h-0.4q-0.2 0-0.2 0.2c-1.6 3.9-1.2 2.9-1.3 3.1-1.2-3.1-1.1-3.1-1.3-3.2q-0.1-0.1-0.2-0.1h-0.3q-0.3 0-0.2 0.2c0 0.2 1.7 4.3 1.8 4.3q0 0 0.1 0c0.1 0 0.4 0 0.3 0 0.2 0 0.2-0.1 1.1-2.3 1 2.3 0.9 2.1 1 2.3q0 0 0.1 0c0.3 0 0.4 0.1 0.5-0.1 0 0 1.7-4.1 1.8-4.2 0-0.1-0.1-0.2-0.2-0.2z"/>
	<path class="s13" d="m91.8 35.3h-0.4c-0.1 0-0.2 0.1-0.2 0.2-1 2.5-1.1 2.6-1.3 3.1-0.4-1-0.4-1-0.8-2.1 0-0.1 0.3-0.9 0.4-1q0-0.2-0.2-0.2h-0.4q-0.2 0-0.3 0.2l-0.4 1c-0.4 1-0.6 1.4-0.8 2.1-1.3-3.1-1.2-3.1-1.4-3.2q0-0.1-0.1-0.1h-0.4q-0.2 0-0.2 0.2c0 0.2 1.7 4.3 1.8 4.3q0.1 0 0.1 0c0.2 0 0.5 0 0.3 0q0.2 0 0.2-0.1c0.1-0.2 0.6-1.2 0.9-2.2 1 2.3 0.9 2.1 1 2.3q0.1 0 0.2 0h0.3c0.1 0 0.1 0 0.2-0.1 0-0.1 1.7-4.1 1.7-4.2q0-0.1 0-0.2-0.1 0-0.2 0z"/>
	<path class="s13" d="m93.3 38.8c-0.6 0-0.8 0.9-0.2 1.1 0.5 0.2 1-0.2 0.8-0.7-0.1-0.2-0.3-0.4-0.6-0.4z"/>
	<path class="s13" d="m96 38.9c-0.5-0.2-1 0.3-0.7 0.7 0.1 0.3 0.4 0.5 0.7 0.3 0.5-0.2 0.5-0.8 0-1z"/>
	<path class="s13" d="m98.2 38.8c-0.6 0-0.8 0.9-0.2 1.1 0.4 0.2 0.8-0.1 0.8-0.5 0-0.3-0.3-0.6-0.6-0.6z"/>
	<path fill-rule="evenodd" class="s16" d="m63 101.8h17.5"/>
	<path fill-rule="evenodd" class="s17" d="m96.5 95.3h17.5"/>
	<path fill-rule="evenodd" class="s18" d="m96.5 101.8h17.5"/>
	<path fill-rule="evenodd" class="s19" d="m130 95.3h17.5"/>
	<path fill-rule="evenodd" class="s20" d="m130 101.8h17.5"/>
	<g id="Clip-Path" clip-path="url(#cp1)">
		<g>
			<path class="s21" d="m120.1 52.5h-49.6v4.3h49.6z"/>
			<path class="s13" d="m142.5 58.3h-72v1.4h72z"/>
			<path class="s13" d="m135.7 61.2h-65.2v1.4h65.2z"/>
			<path class="s13" d="m139.3 64.1h-68.8v1.4h68.8z"/>
		</g>
	</g>
	<g id="Clip-Path" clip-path="url(#cp2)">
		<g>
			<path class="s22" d="m120.1 70.5h-49.6v4.3h49.6z"/>
			<path class="s13" d="m142.5 76.3h-72v1.4h72z"/>
			<path class="s13" d="m135.7 79.2h-65.2v1.5h65.2z"/>
			<path class="s13" d="m139.3 82.2h-68.8v1.4h68.8z"/>
		</g>
	</g>
	<path class="s23" d="m57 93h4v4h-4z"/>
	<path class="s24" d="m90.5 93h4v4h-4z"/>
	<path class="s25" d="m124 93h4v4h-4z"/>
	<path class="s26" d="m57 99.5h4v4h-4z"/>
	<path class="s27" d="m90.5 99.5h4v4h-4z"/>
	<path class="s28" d="m124 99.5h4v4h-4z"/>
	<path class="s29" d="m48.5 18.5h124.5v8h-124.5z"/>
	<path class="s0" d="m42 119h52.5v42h-52.5z"/>
	<path class="s1" d="m42 119h52.5v42h-52.5z"/>
	<path class="s30" d="m42 119h52.5v42h-52.5z"/>
	<path class="s31" d="m67.5 143.5v-9c7 0 8.9 6 9 9z"/>
	<path fill-rule="evenodd" class="s32" d="m75.8 136l4.2-4.3h7"/>
	<path class="s33" d="m41.5 118.5h53.5v8h-53.5z"/>
	<path class="s1" d="m67 153c-5.3 0-9.5-4.2-9.5-9.5 0-5.3 4.2-9.5 9.5-9.5 5.3 0 9.5 4.2 9.5 9.5 0 5.3-4.2 9.5-9.5 9.5z"/>
	<path class="s0" d="m46.5 124.5c-1.1 0-2-0.9-2-2 0-1.1 0.9-2 2-2 1.1 0 2 0.9 2 2 0 1.1-0.9 2-2 2z"/>
	<path class="s0" d="m52 124.5c-1.1 0-2-0.9-2-2 0-1.1 0.9-2 2-2 1.1 0 2 0.9 2 2 0 1.1-0.9 2-2 2z"/>
	<path class="s0" d="m57.5 124.5c-1.1 0-2-0.9-2-2 0-1.1 0.9-2 2-2 1.1 0 2 0.9 2 2 0 1.1-0.9 2-2 2z"/>
	<path fill-rule="evenodd" class="s34" d="m59.8 149l-4.3 4.3h-7"/>
	<path fill-rule="evenodd" class="s35" d="m63 94.8h17.5"/>
	<path class="s8" d="m36.5 21.8v9.3h-9.3v-9.3z"/>
	<path class="s11" d="m119 11.1v4h-4v-4z"/>
	<path class="s8" d="m145 0.6v4h-4v-4z"/>
	<path class="s10" d="m161.5 3.1v8h-8v-8z"/>
	<path class="s11" d="m18.5 18.5v8h-8v-8z"/>
</svg>