<svg width="553" height="414" viewBox="0 0 553 414" fill="none" xmlns="http://www.w3.org/2000/svg">
<path d="M236.205 177.331C234.98 174.617 232.733 174.143 230.04 174.364C228.06 174.527 226.06 174.414 224.071 174.443C222.118 174.473 221.02 175.615 220.972 177.425C220.926 179.143 222.037 180.285 223.801 180.352C226.827 180.469 229.86 180.417 232.888 180.46C234.693 180.488 235.005 178.627 236.205 177.899L236.205 177.329L236.205 177.331Z" fill="#6F55A4"/>
<path d="M207.157 174.489C205.554 174.489 203.951 174.431 202.351 174.506C200.614 174.587 199.867 175.823 199.764 177.331C199.664 178.782 200.46 179.997 201.925 180.231C205.287 180.765 208.694 180.749 212.06 180.275C213.638 180.053 214.559 178.786 214.429 177.222C214.304 175.702 213.321 174.594 211.684 174.477C210.183 174.37 208.667 174.454 207.16 174.454C207.16 174.464 207.16 174.477 207.16 174.487L207.157 174.489Z" fill="#6F55A4"/>
<path d="M220.711 166.804C220.707 165.292 220.824 163.768 220.676 162.271C220.507 160.559 219.438 159.44 217.68 159.465C215.955 159.49 214.748 160.622 214.65 162.277C214.469 165.292 214.498 168.33 214.644 171.349C214.727 173.082 216.03 174.155 217.669 174.165C219.329 174.174 220.513 173.067 220.682 171.341C220.828 169.842 220.713 168.319 220.709 166.806L220.711 166.804Z" fill="#6F55A4"/>
<path d="M214.59 187.931C214.59 189.446 214.442 190.979 214.627 192.47C214.847 194.24 215.914 195.497 217.82 195.428C219.569 195.363 220.626 194.159 220.703 192.48C220.839 189.551 220.828 186.609 220.718 183.678C220.653 181.957 219.601 180.838 217.824 180.778C215.914 180.713 214.813 181.836 214.621 183.672C214.475 185.077 214.592 186.509 214.592 187.929L214.59 187.931Z" fill="#6F55A4"/>
<rect x="345.351" y="134.998" width="9.72563" height="9.72563" transform="rotate(180 345.351 134.998)" fill="#38B763"/>
<rect x="146.695" y="356.175" width="9.72563" height="9.72563" transform="rotate(180 146.695 356.175)" fill="#38B763"/>
<rect x="199.376" y="409.666" width="9.72563" height="9.72563" transform="rotate(180 199.376 409.666)" fill="#4000C8"/>
<rect x="69.7002" y="186.787" width="9.72563" height="9.72563" transform="rotate(180 69.7002 186.787)" fill="#EFCB42"/>
<path d="M335.627 270.376C335.84 272.332 336.995 273.77 339.179 273.85C341.361 273.929 342.718 272.628 342.96 270.432C343.167 268.553 341.425 266.626 339.601 266.544C337.536 266.451 335.667 268.154 335.625 270.378L335.627 270.376Z" fill="#6F55A4"/>
<rect x="276.066" y="115.202" width="9.72563" height="9.72563" transform="rotate(180 276.066 115.202)" fill="#EFCB42"/>
<path d="M21.3258 368.712C23.2571 368.788 24.5473 367.917 24.7185 365.86C24.8751 363.969 23.1694 362.664 20.8665 362.727C18.8664 362.783 17.5093 363.699 17.5844 365.756C17.6638 367.94 19.1566 368.813 21.3237 368.712L21.3258 368.712Z" fill="#D2005E"/>
<path d="M38.5918 350.966C38.4269 349.377 37.6606 347.897 35.6333 347.705C33.748 347.525 32.4181 349.304 32.4849 351.59C32.5413 353.603 33.51 354.887 35.5519 354.883C37.8485 354.878 38.5208 353.248 38.5918 350.966Z" fill="#D2005E"/>
<path d="M32.5186 379.262C32.4455 382.137 33.4059 383.693 35.5125 383.73C37.6797 383.768 38.6088 382.079 38.5691 380.074C38.5336 378.26 37.8822 376.636 35.6942 376.581C33.4268 376.525 32.5958 377.993 32.5165 379.264L32.5186 379.262Z" fill="#D2005E"/>
<path d="M49.5137 368.719C51.8333 368.758 53.4701 367.975 53.491 365.775C53.5119 363.622 51.9836 362.704 49.8895 362.726C47.8079 362.749 46.263 363.641 46.3172 365.823C46.3674 367.794 47.7328 368.813 49.5137 368.719Z" fill="#D2005E"/>
<path d="M112.523 61.401L116.06 61.3401L117.529 61.3149L125.034 61.1843L126.771 62.9218L124.972 64.7216L112.461 64.9397L110.996 64.9665L108.496 65.0095L107.456 65.0273L105.991 65.0525L103.488 65.0955L101.749 63.3566L103.549 61.5568L112.523 61.401Z" fill="#52479D"/>
<path d="M116.218 52.3667L116.175 54.8668L116.15 56.3328L116.132 57.3699L116.089 59.8701L116.062 61.3375L115.844 73.8487L114.044 75.6485L112.307 73.911L112.438 66.4031L112.463 64.9372L112.525 61.3999L112.55 59.9339L112.568 58.8967L112.593 57.4308L112.681 52.4275L114.481 50.6277L116.22 52.3667L116.218 52.3667Z" fill="#52479D"/>
<rect x="25.125" y="122.76" width="9.72563" height="9.72563" transform="rotate(180 25.125 122.76)" fill="#D2005E"/>
</svg>
