<svg width="331" height="269" viewBox="0 0 331 269" fill="none" xmlns="http://www.w3.org/2000/svg">
<path d="M48.0033 234.915C47.9547 233.848 49.6218 232.068 50.7016 232.035C51.7665 232.001 53.5234 233.715 53.5271 234.794C53.5321 235.83 51.9511 237.512 50.9136 237.577C49.8201 237.644 48.0545 236.03 48.0033 234.916L48.0033 234.915ZM147.303 16.4784C147.294 15.1804 148.379 14.0195 149.663 14.1442C150.889 14.2627 151.761 14.9111 151.787 16.3026C151.814 17.7316 150.914 18.7378 149.585 18.754C148.443 18.7677 147.311 17.6405 147.303 16.4784ZM45.421 78.007C45.4098 79.1803 44.1741 80.4571 43.0407 80.4671C41.7576 80.4783 40.5394 79.2663 40.5369 77.977C40.5344 76.679 41.7214 75.4795 43.0219 75.4683C44.3424 75.4558 45.436 76.6129 45.4222 78.0082L45.421 78.007ZM43.1554 203.206C41.8661 203.202 40.8075 202.168 40.7887 201.044C40.7688 199.803 41.8087 198.792 43.0918 198.869C44.4422 198.951 45.1878 199.725 45.1729 201.06C45.1567 202.423 44.2751 203.047 43.1554 203.206ZM253.982 77.9907C253.946 76.8174 255.041 75.7077 256.278 75.7837C257.516 75.8585 258.237 76.6166 258.371 77.8286C258.507 79.0469 257.433 80.2052 256.193 80.1254C254.915 80.0444 254.133 79.3087 253.982 77.9895L253.982 77.9907ZM23.8121 134.737C22.5178 134.797 21.6263 134.276 21.5789 132.971C21.534 131.743 22.3433 131.196 23.5391 131.162C24.9144 131.123 25.9331 131.903 25.8396 133.034C25.7386 134.261 24.9668 134.782 23.8134 134.737L23.8121 134.737ZM34.124 124.138C34.0829 125.501 33.6814 126.475 32.3086 126.477C31.0891 126.48 30.5105 125.713 30.4768 124.511C30.4382 123.146 31.2325 122.083 32.3572 122.191C33.5679 122.305 34.0255 123.189 34.124 124.138ZM30.4968 141.038C30.5442 140.278 31.0404 139.402 32.3946 139.435C33.7001 139.468 34.0891 140.438 34.1116 141.521C34.1353 142.718 33.5804 143.727 32.2861 143.705C31.028 143.683 30.4532 142.753 30.498 141.036L30.4968 141.038ZM40.6466 134.741C39.583 134.797 38.7675 134.188 38.7376 133.011C38.7052 131.708 39.6266 131.175 40.871 131.162C42.1217 131.148 43.0344 131.697 43.022 132.983C43.0095 134.297 42.0319 134.764 40.6466 134.741Z" fill="#D2005E"/>
<path d="M0 175.81C0.731933 177.431 2.0736 177.714 3.68211 177.582C4.86418 177.485 6.05871 177.552 7.24701 177.535C8.41287 177.517 9.06874 176.835 9.09742 175.754C9.12485 174.728 8.4615 174.046 7.40786 174.006C5.6011 173.936 3.78934 173.967 1.98133 173.941C0.902759 173.925 0.71697 175.036 0 175.471V175.811L0 175.81Z" fill="#6F55A4"/>
<rect x="112.296" y="22.7717" width="5.80839" height="5.80839" fill="#38B763"/>
<path d="M17.3482 177.508C18.3058 177.508 19.2635 177.542 20.2186 177.498C21.256 177.449 21.7024 176.711 21.7635 175.811C21.8234 174.944 21.3483 174.218 20.473 174.079C18.4654 173.759 16.4305 173.769 14.4205 174.052C13.4778 174.185 12.9279 174.941 13.0052 175.875C13.0801 176.783 13.6674 177.445 14.6449 177.515C15.5415 177.579 16.4467 177.529 17.347 177.529C17.347 177.523 17.347 177.515 17.347 177.509L17.3482 177.508Z" fill="#6F55A4"/>
<path d="M9.25328 182.098C9.25577 183 9.18594 183.911 9.27447 184.805C9.37547 185.827 10.0139 186.495 11.0638 186.48C12.0937 186.466 12.8144 185.79 12.873 184.801C12.9815 183 12.9641 181.186 12.8768 179.383C12.8269 178.348 12.0488 177.707 11.07 177.701C10.0787 177.696 9.37173 178.357 9.27073 179.388C9.18345 180.283 9.25203 181.192 9.25452 182.096L9.25328 182.098Z" fill="#6F55A4"/>
<path d="M12.9087 169.48C12.9087 168.574 12.9973 167.659 12.8863 166.769C12.7554 165.712 12.1182 164.961 10.9798 165.002C9.93485 165.041 9.30392 165.76 9.25779 166.763C9.17674 168.512 9.18297 170.269 9.24906 172.02C9.28771 173.047 9.91615 173.715 10.9773 173.752C12.1182 173.79 12.7753 173.119 12.89 172.023C12.9773 171.184 12.9075 170.329 12.9075 169.481L12.9087 169.48Z" fill="#6F55A4"/>
<rect x="188.84" y="129.689" width="5.80839" height="5.80839" fill="#38B763"/>
<rect x="242.5" y="56.6536" width="5.80839" height="5.80839" fill="#38B763"/>
<rect x="211.038" y="24.7075" width="5.80839" height="5.80839" fill="#4000C8"/>
<rect x="121.801" y="123.514" width="5.80839" height="5.80839" fill="#EFCB42"/>
<path d="M10.686 87.2832C10.5588 86.1149 9.86928 85.2557 8.56502 85.2084C7.262 85.161 6.45151 85.9378 6.30687 87.2495C6.18343 88.3718 7.22335 89.5226 8.31314 89.5713C9.54633 89.6274 10.6623 88.6099 10.6872 87.282L10.686 87.2832Z" fill="#6F55A4"/>
<rect x="10.6484" y="226.549" width="5.80839" height="5.80839" fill="#EFCB42"/>
<path d="M173.648 85.7327C172.495 85.6878 171.724 86.2077 171.622 87.4359C171.529 88.5656 172.547 89.345 173.923 89.3075C175.117 89.2739 175.928 88.7265 175.883 87.4983C175.835 86.194 174.944 85.6728 173.65 85.7327H173.648Z" fill="#D2005E"/>
<path d="M163.337 96.3313C163.435 97.2801 163.893 98.1642 165.104 98.2789C166.23 98.3862 167.024 97.3238 166.984 95.9584C166.95 94.7564 166.372 93.9896 165.152 93.9921C163.781 93.9946 163.379 94.9684 163.337 96.3313Z" fill="#D2005E"/>
<path d="M166.964 79.4324C167.008 77.7155 166.434 76.7865 165.176 76.7641C163.882 76.7416 163.327 77.7504 163.35 78.9474C163.372 80.031 163.761 81.0011 165.067 81.0335C166.421 81.0671 166.918 80.1906 166.965 79.4312L166.964 79.4324Z" fill="#D2005E"/>
<path d="M156.814 85.729C155.429 85.7053 154.451 86.1729 154.439 87.4871C154.426 88.7727 155.339 89.3213 156.59 89.3076C157.833 89.2939 158.755 88.7615 158.723 87.4584C158.693 86.2814 157.878 85.6729 156.814 85.729Z" fill="#D2005E"/>
<path d="M147.952 182.302L145.839 182.338L144.962 182.353L140.48 182.431L139.442 181.393L140.517 180.318L147.989 180.188L148.864 180.172L150.357 180.146L150.978 180.136L151.853 180.121L153.348 180.095L154.386 181.134L153.311 182.208L147.952 182.302Z" fill="#52479D"/>
<path d="M145.745 187.697L145.771 186.204L145.786 185.328L145.796 184.709L145.822 183.216L145.838 182.339L145.968 174.867L147.043 173.793L148.081 174.83L148.003 179.314L147.988 180.19L147.951 182.302L147.936 183.178L147.925 183.797L147.91 184.673L147.858 187.661L146.783 188.736L145.744 187.697H145.745Z" fill="#52479D"/>
<rect x="64.4658" y="155.269" width="5.80839" height="5.80839" fill="#D2005E"/>
<path d="M55.5365 21.1932L52.5639 21.2443L51.3295 21.2655L45.0226 21.3752L43.5625 19.9151L45.075 18.4026L55.5889 18.2193L56.8196 18.1969L58.9206 18.1607L59.7947 18.1458L61.0254 18.1246L63.1289 18.0884L64.5903 19.5498L63.0778 21.0623L55.5365 21.1932Z" fill="#D2005E"/>
<path d="M52.4309 28.784L52.4671 26.6829L52.4883 25.451L52.5033 24.5794L52.5394 22.4784L52.5619 21.2452L52.7452 10.7313L54.2576 9.2188L55.7178 10.6789L55.608 16.9883L55.5868 18.2202L55.5345 21.1928L55.5133 22.4248L55.4983 23.2963L55.4771 24.5283L55.4036 28.7329L53.8911 30.2454L52.4297 28.784H52.4309Z" fill="#D2005E"/>
</svg>
