<svg width="48" height="210" viewBox="0 0 48 210" fill="none" xmlns="http://www.w3.org/2000/svg">
<path d="M48.0005 12L48.0005 0L35.9998 -5.24568e-07L35.9998 12L48.0005 12Z" fill="#4000C8"/>
<path d="M29.9995 12.0002L29.9995 0.000244141L17.9988 0.000243616L17.9988 12.0002L29.9995 12.0002Z" fill="#4000C8"/>
<path d="M11.999 12.0002L11.999 0.000244141L-0.00168896 0.000243616L-0.00168948 12.0002L11.999 12.0002Z" fill="#4000C8"/>
<path d="M48.0005 30.001L48.0005 18.001L35.9998 18.001L35.9998 30.001L48.0005 30.001Z" fill="#4000C8"/>
<path d="M29.9995 30.001L29.9995 18.001L17.9988 18.001L17.9988 30.001L29.9995 30.001Z" fill="#4000C8"/>
<path d="M11.999 30.001L11.999 18.001L-0.00168896 18.001L-0.00168948 30.001L11.999 30.001Z" fill="#4000C8"/>
<path d="M48.0005 47.9999L48.0005 35.9999L35.9998 35.9999L35.9998 47.9999L48.0005 47.9999Z" fill="#4000C8"/>
<path d="M29.9995 47.9999L29.9995 35.9999L17.9988 35.9999L17.9988 47.9999L29.9995 47.9999Z" fill="#4000C8"/>
<path d="M11.999 47.9999L11.999 35.9999L-0.00168896 35.9999L-0.00168948 47.9999L11.999 47.9999Z" fill="#4000C8"/>
<path d="M48.0005 66.0002L48.0005 54.0002L35.9998 54.0002L35.9998 66.0002L48.0005 66.0002Z" fill="#4000C8"/>
<path d="M29.9995 66.0002L29.9995 54.0002L17.9988 54.0002L17.9988 66.0002L29.9995 66.0002Z" fill="#4000C8"/>
<path d="M11.999 66.0002L11.999 54.0002L-0.00168896 54.0002L-0.00168948 66.0002L11.999 66.0002Z" fill="#4000C8"/>
<path d="M48.0005 84L48.0005 72L35.9998 72L35.9998 84L48.0005 84Z" fill="#4000C8"/>
<path d="M29.9995 84L29.9995 72L17.9988 72L17.9988 84L29.9995 84Z" fill="#4000C8"/>
<path d="M11.999 84L11.999 72L-0.00168896 72L-0.00168948 84L11.999 84Z" fill="#4000C8"/>
<path d="M48.0005 102L48.0005 89.9999L35.9998 89.9999L35.9998 102L48.0005 102Z" fill="#4000C8"/>
<path d="M29.9995 102L29.9995 89.9999L17.9988 89.9999L17.9988 102L29.9995 102Z" fill="#4000C8"/>
<path d="M11.999 102L11.999 89.9999L-0.00168896 89.9999L-0.00168948 102L11.999 102Z" fill="#4000C8"/>
<path d="M48.0005 120L48.0005 108L35.9998 108L35.9998 120L48.0005 120Z" fill="#4000C8"/>
<path d="M29.9995 120L29.9995 108L17.9988 108L17.9988 120L29.9995 120Z" fill="#4000C8"/>
<path d="M11.999 120L11.999 108L-0.00168896 108L-0.00168948 120L11.999 120Z" fill="#4000C8"/>
<path d="M48.0005 138L48.0005 126L35.9998 126L35.9998 138L48.0005 138Z" fill="#4000C8"/>
<path d="M29.9995 138L29.9995 126L17.9988 126L17.9988 138L29.9995 138Z" fill="#4000C8"/>
<path d="M11.999 138L11.999 126L-0.00168896 126L-0.00168948 138L11.999 138Z" fill="#4000C8"/>
<path d="M48.0005 156L48.0005 144L35.9998 144L35.9998 156L48.0005 156Z" fill="#4000C8"/>
<path d="M29.9995 156L29.9995 144L17.9988 144L17.9988 156L29.9995 156Z" fill="#4000C8"/>
<path d="M11.999 156L11.999 144L-0.00168896 144L-0.00168948 156L11.999 156Z" fill="#4000C8"/>
<path d="M48.0005 174L48.0005 162L35.9998 162L35.9998 174L48.0005 174Z" fill="#4000C8"/>
<path d="M29.9995 174L29.9995 162L17.9988 162L17.9988 174L29.9995 174Z" fill="#4000C8"/>
<path d="M11.999 174L11.999 162L-0.00168896 162L-0.00168948 174L11.999 174Z" fill="#4000C8"/>
<path d="M48.0005 192L48.0005 180L35.9998 180L35.9998 192L48.0005 192Z" fill="#4000C8"/>
<path d="M29.9995 192L29.9995 180L17.9988 180L17.9988 192L29.9995 192Z" fill="#4000C8"/>
<path d="M11.999 192L11.999 180L-0.00168896 180L-0.00168948 192L11.999 192Z" fill="#4000C8"/>
<path d="M48.0005 210.001L48.0005 198.001L35.9998 198.001L35.9998 210.001L48.0005 210.001Z" fill="#4000C8"/>
<path d="M29.9995 210.001L29.9995 198.001L17.9988 198.001L17.9988 210.001L29.9995 210.001Z" fill="#4000C8"/>
<path d="M11.999 210.001L11.999 198.001L-0.00168896 198.001L-0.00168948 210.001L11.999 210.001Z" fill="#4000C8"/>
</svg>
