<svg width="396" height="250" viewBox="0 0 396 250" fill="none" xmlns="http://www.w3.org/2000/svg">
<rect x="100" y="68.6523" width="193" height="131" fill="white"/>
<path d="M203.575 94.7715H110.891V154.655H203.575V94.7715ZM162.154 106.462C164.975 106.462 167.258 108.744 167.258 111.588C167.258 114.431 164.975 116.676 162.154 116.676C159.333 116.676 157.05 114.394 157.05 111.588C157.05 108.781 159.346 106.462 162.154 106.462ZM179.579 144.331H134.885C134.238 144.331 133.847 143.611 134.213 143.073L150.247 119.069C150.564 118.592 151.272 118.592 151.59 119.069L160.431 132.297C160.749 132.773 161.457 132.773 161.787 132.297L166.745 124.877C167.063 124.389 167.771 124.389 168.101 124.877L180.264 143.073C180.618 143.611 180.227 144.331 179.58 144.331H179.579Z" fill="#4000C8"/>
<path d="M146.102 75.3169H110.893V84.1527H146.102V75.3169Z" fill="#38B763"/>
<path d="M191.387 75.3174H156.178V84.1532H191.387V75.3174Z" fill="#EFCB42"/>
<path d="M281.959 75.3174H246.75V84.1532H281.959V75.3174Z" fill="#D2005E"/>
<path d="M236.674 75.3174H201.465V84.1532H236.674V75.3174Z" fill="#A1A1AA"/>
<path d="M203.389 164.652H110.612C110.274 164.652 110 165.1 110 165.652C110 166.205 110.273 166.652 110.612 166.652H203.389C203.727 166.652 204 166.205 204 165.652C204 165.1 203.727 164.652 203.389 164.652Z" fill="url(#paint0_linear_2507_25647)"/>
<path d="M171.389 173.652H110.611C110.274 173.652 110 174.099 110 174.652C110 175.205 110.273 175.652 110.611 175.652H171.389C171.726 175.652 172 175.205 172 174.652C172 174.099 171.727 173.652 171.389 173.652Z" fill="url(#paint1_linear_2507_25647)"/>
<rect x="216" y="94.6523" width="66" height="51" fill="white" stroke="url(#paint2_linear_2507_25647)" stroke-width="2"/>
<path d="M215.746 146.546H282.569V94.1589H215.746V146.546ZM216.967 145.326V133.627H229.8V145.326H216.967ZM281.349 145.326H231.022V133.627H281.349V145.326ZM281.349 95.3793V132.407H216.968V95.3793H281.349Z" fill="url(#paint3_linear_2507_25647)"/>
<rect x="311" y="39.6523" width="80" height="54" fill="white"/>
<path d="M310 94.6523H396V38.6523H310V94.6523ZM394.43 39.9569V93.313H311.572L311.573 39.9569H394.43Z" fill="url(#paint4_linear_2507_25647)"/>
<path d="M249.16 124.374C254.888 124.374 259.528 119.724 259.528 114.001C259.528 108.277 254.888 103.652 249.16 103.652C243.433 103.652 238.793 108.277 238.793 114.001C238.793 119.724 243.445 124.374 249.16 124.374ZM246.572 109.131L254.069 114.012L246.572 118.894V109.131Z" fill="#4000C8"/>
<path d="M221.318 136.326C220.98 136.326 220.707 136.599 220.707 136.937V142.018C220.707 142.355 220.98 142.628 221.318 142.628C221.656 142.628 221.928 142.355 221.928 142.018V136.937C221.928 136.6 221.655 136.326 221.318 136.326Z" fill="#4000C8"/>
<path d="M225.45 136.326C225.112 136.326 224.839 136.599 224.839 136.937V142.018C224.839 142.355 225.112 142.628 225.45 142.628C225.788 142.628 226.06 142.355 226.06 142.018V136.937C226.06 136.6 225.787 136.326 225.45 136.326Z" fill="#4000C8"/>
<path d="M237.664 140.337H242.756C243.025 141.105 243.73 141.652 244.573 141.652C245.415 141.652 246.129 141.105 246.401 140.337H277.335C277.703 140.337 278 140.032 278 139.655C278 139.277 277.703 138.972 277.335 138.972H246.399C246.124 138.204 245.412 137.652 244.573 137.652C243.733 137.652 243.028 138.204 242.758 138.972H237.665C237.298 138.972 237 139.277 237 139.655C237 140.032 237.296 140.337 237.664 140.337Z" fill="url(#paint5_linear_2507_25647)"/>
<path d="M233.738 186.78H281.957V155.626H233.738V186.78ZM262.564 171.155C261.92 170.667 262.659 169.696 263.302 170.183L268.69 174.271C269.013 174.516 269.012 174.999 268.69 175.243L263.302 179.331C262.663 179.815 261.914 178.851 262.564 178.359C262.888 178.113 267.442 174.658 267.311 174.757C267.172 174.651 262.438 171.06 262.564 171.155V171.155ZM253.734 178.411L260.865 163.893C261.014 163.591 261.379 163.466 261.682 163.615C261.985 163.763 262.109 164.128 261.961 164.431L254.831 178.949C254.682 179.252 254.316 179.376 254.013 179.228C253.71 179.08 253.586 178.714 253.734 178.411ZM247.005 167.163L252.393 163.075C253.034 162.585 253.776 163.557 253.131 164.047C252.808 164.293 248.26 167.744 248.384 167.65C248.509 167.745 253.257 171.347 253.131 171.252C253.78 171.744 253.032 172.709 252.393 172.225L247.005 168.137C246.683 167.892 246.684 167.409 247.005 167.164V167.163Z" fill="url(#paint6_linear_2507_25647)"/>
<path d="M310.613 39.062C310.276 39.062 310.002 39.3349 310.002 39.6727V94.1588C310.002 94.4956 310.275 94.7685 310.613 94.7685C314.008 94.7685 375.514 94.7656 395.389 94.7646C395.731 94.7646 395.999 94.4965 395.999 94.1539V39.6785C395.999 39.3369 395.731 39.0678 395.389 39.0678C375.586 39.0669 313.603 39.063 310.613 39.062ZM390.571 93.5491H311.223V40.2824H390.571V93.5491Z" fill="url(#paint7_linear_2507_25647)"/>
<path d="M319.566 47.0397H323.72C324.058 47.0397 324.332 46.7668 324.332 46.429C324.332 46.0913 324.058 45.8193 323.72 45.8193H319.566C319.229 45.8193 318.955 46.0923 318.955 46.429C318.955 46.7658 319.228 47.0397 319.566 47.0397Z" fill="url(#paint8_linear_2507_25647)"/>
<path d="M319.566 51.5922H323.72C324.058 51.5922 324.332 51.3193 324.332 50.9825C324.332 50.6457 324.058 50.3718 323.72 50.3718H319.566C319.229 50.3718 318.955 50.6447 318.955 50.9825C318.955 51.3203 319.228 51.5922 319.566 51.5922Z" fill="url(#paint9_linear_2507_25647)"/>
<path d="M321.741 55.535C321.741 55.8728 322.014 56.1457 322.352 56.1457H326.507C326.845 56.1457 327.118 55.8728 327.118 55.535C327.118 55.1972 326.845 54.9253 326.507 54.9253H322.352C322.015 54.9253 321.741 55.1982 321.741 55.535Z" fill="url(#paint10_linear_2507_25647)"/>
<path d="M326.507 59.4778H322.352C322.015 59.4778 321.741 59.7507 321.741 60.0885C321.741 60.4262 322.014 60.6982 322.352 60.6982H326.507C326.845 60.6982 327.118 60.4252 327.118 60.0885C327.118 59.7517 326.845 59.4778 326.507 59.4778Z" fill="url(#paint11_linear_2507_25647)"/>
<path d="M326.507 64.03H322.352C322.015 64.03 321.741 64.3029 321.741 64.6397C321.741 64.9765 322.014 65.2504 322.352 65.2504H326.507C326.845 65.2504 327.118 64.9775 327.118 64.6397C327.118 64.302 326.845 64.03 326.507 64.03Z" fill="url(#paint12_linear_2507_25647)"/>
<path d="M326.507 68.5825H322.352C322.015 68.5825 321.741 68.8554 321.741 69.1922C321.741 69.529 322.014 69.8019 322.352 69.8019H326.507C326.845 69.8019 327.118 69.529 327.118 69.1922C327.118 68.8554 326.845 68.5825 326.507 68.5825Z" fill="url(#paint13_linear_2507_25647)"/>
<path d="M319.201 74.3554H323.355C323.692 74.3554 323.965 74.0825 323.965 73.7447C323.965 73.407 323.692 73.135 323.355 73.135H319.201C318.863 73.135 318.59 73.4079 318.59 73.7447C318.59 74.0815 318.863 74.3554 319.201 74.3554Z" fill="url(#paint14_linear_2507_25647)"/>
<path d="M319.201 78.9079H323.355C323.692 78.9079 323.965 78.635 323.965 78.2982C323.965 77.9614 323.692 77.6875 323.355 77.6875H319.201C318.863 77.6875 318.59 77.9604 318.59 78.2982C318.59 78.6359 318.863 78.9079 319.201 78.9079Z" fill="url(#paint15_linear_2507_25647)"/>
<path d="M319.201 83.4604H323.355C323.692 83.4604 323.965 83.1874 323.965 82.8507C323.965 82.5139 323.692 82.24 323.355 82.24H319.201C318.863 82.24 318.59 82.5129 318.59 82.8507C318.59 83.1884 318.863 83.4604 319.201 83.4604Z" fill="url(#paint16_linear_2507_25647)"/>
<path d="M319.201 88.0126H323.355C323.692 88.0126 323.965 87.7397 323.965 87.4029C323.965 87.0661 323.692 86.7922 323.355 86.7922H319.201C318.863 86.7922 318.59 87.0651 318.59 87.4029C318.59 87.7407 318.863 88.0126 319.201 88.0126Z" fill="url(#paint17_linear_2507_25647)"/>
<path d="M330.898 47.0397H352.672C353.01 47.0397 353.283 46.7668 353.283 46.429C353.283 46.0913 353.01 45.8193 352.672 45.8193H330.898C330.561 45.8193 330.288 46.0923 330.288 46.429C330.288 46.7658 330.561 47.0397 330.898 47.0397Z" fill="url(#paint18_linear_2507_25647)"/>
<path d="M330.898 51.5922H367.245C367.582 51.5922 367.857 51.3193 367.857 50.9825C367.857 50.6457 367.583 50.3718 367.245 50.3718H330.898C330.561 50.3718 330.288 50.6447 330.288 50.9825C330.288 51.3203 330.561 51.5922 330.898 51.5922Z" fill="url(#paint19_linear_2507_25647)"/>
<path d="M333.684 56.1447H351.858C352.195 56.1447 352.469 55.8718 352.469 55.534C352.469 55.1963 352.196 54.9243 351.858 54.9243H333.684C333.346 54.9243 333.073 55.1972 333.073 55.534C333.073 55.8708 333.346 56.1447 333.684 56.1447Z" fill="url(#paint20_linear_2507_25647)"/>
<path d="M333.073 60.0875C333.073 60.4243 333.346 60.6972 333.684 60.6972H375.945C376.282 60.6972 376.556 60.4243 376.556 60.0875C376.556 59.7507 376.283 59.4768 375.945 59.4768H333.684C333.346 59.4768 333.073 59.7497 333.073 60.0875Z" fill="url(#paint21_linear_2507_25647)"/>
<path d="M365.861 64.6397C365.861 64.3029 365.588 64.03 365.25 64.03H333.684C333.346 64.03 333.073 64.3029 333.073 64.6397C333.073 64.9765 333.346 65.2504 333.684 65.2504H365.25C365.587 65.2504 365.861 64.9775 365.861 64.6397Z" fill="url(#paint22_linear_2507_25647)"/>
<path d="M333.684 68.5825C333.346 68.5825 333.073 68.8554 333.073 69.1922C333.073 69.529 333.346 69.8019 333.684 69.8019H349.679C350.016 69.8019 350.29 69.529 350.29 69.1922C350.29 68.8554 350.017 68.5825 349.679 68.5825H333.684Z" fill="url(#paint23_linear_2507_25647)"/>
<path d="M330.533 74.3554H366.88C367.218 74.3554 367.491 74.0825 367.491 73.7447C367.491 73.407 367.218 73.135 366.88 73.135H330.533C330.195 73.135 329.922 73.4079 329.922 73.7447C329.922 74.0815 330.195 74.3554 330.533 74.3554Z" fill="url(#paint24_linear_2507_25647)"/>
<path d="M330.533 78.9079H352.133C352.471 78.9079 352.744 78.635 352.744 78.2982C352.744 77.9614 352.471 77.6875 352.133 77.6875H330.533C330.195 77.6875 329.922 77.9604 329.922 78.2982C329.922 78.6359 330.195 78.9079 330.533 78.9079Z" fill="url(#paint25_linear_2507_25647)"/>
<path d="M330.533 83.4604H348.975C349.313 83.4604 349.586 83.1874 349.586 82.8507C349.586 82.5139 349.313 82.24 348.975 82.24H330.533C330.195 82.24 329.922 82.5129 329.922 82.8507C329.922 83.1884 330.195 83.4604 330.533 83.4604Z" fill="url(#paint26_linear_2507_25647)"/>
<path d="M330.533 88.0126H366.88C367.218 88.0126 367.491 87.7397 367.491 87.4029C367.491 87.0661 367.218 86.7922 366.88 86.7922H330.533C330.195 86.7922 329.922 87.0651 329.922 87.4029C329.922 87.7407 330.195 88.0126 330.533 88.0126Z" fill="url(#paint27_linear_2507_25647)"/>
<path d="M77.4271 181.531C77.1908 181.531 77 181.723 77 181.958V249.225C77 249.461 77.1917 249.651 77.4271 249.651H166.574C166.811 249.651 167.002 249.461 167.002 249.225V200.735H292.813C293.151 200.735 293.424 200.462 293.424 200.124V30.262C293.424 29.9253 293.151 29.6523 292.813 29.6523C269.574 29.6523 128.806 29.6523 92.4883 29.6523C92.1465 29.6523 91.8773 29.9204 91.8773 30.263V181.532L77.4271 181.531ZM145.22 49.5567C145.22 52.7659 142.595 55.3905 139.382 55.3905C136.17 55.3905 133.533 52.7668 133.533 49.5567C133.533 46.3466 136.159 43.7113 139.382 43.7113C142.606 43.7113 145.22 46.335 145.22 49.5567ZM128.931 49.5567C128.931 52.7659 126.317 55.3905 123.093 55.3905C119.87 55.3905 117.244 52.7668 117.244 49.5567C117.244 46.3466 119.87 43.7113 123.093 43.7113C126.317 43.7113 128.931 46.335 128.931 49.5567ZM112.641 49.5567C112.641 52.7659 110.027 55.3905 106.803 55.3905C103.579 55.3905 100.954 52.7668 100.954 49.5567C100.954 46.3466 103.579 43.7113 106.803 43.7113C110.027 43.7113 112.641 46.335 112.641 49.5567ZM87.0295 190.839C87.0295 192.267 85.882 193.402 84.4653 193.402C83.0485 193.402 81.901 192.267 81.901 190.839C81.901 189.412 83.0485 188.289 84.4653 188.289C85.882 188.289 87.0295 189.436 87.0295 190.839ZM100.425 188.288C101.824 188.288 102.978 189.414 102.978 190.838C102.978 192.263 101.842 193.401 100.425 193.401C99.0084 193.401 97.8609 192.266 97.8609 190.838C97.8609 189.411 99.0191 188.288 100.425 188.288ZM77.8551 248.799V198.869H165.963V200.126C165.963 200.297 166.034 200.45 166.147 200.562V248.8L77.8551 248.799ZM167.185 199.515V181.955C167.185 181.618 166.911 181.344 166.574 181.344H100.645V68.8388H292.204V199.516L167.185 199.515Z" fill="url(#paint28_linear_2507_25647)"/>
<path d="M179 54.6523V44.6523H277V54.6523H179Z" fill="white" stroke="white" stroke-width="2"/>
<rect x="78" y="199.652" width="88" height="49" fill="white" stroke="url(#paint29_linear_2507_25647)" stroke-width="2"/>
<path d="M137.76 236.191H106.547C104.667 236.191 103.137 237.721 103.137 239.6C103.137 241.479 104.667 243.008 106.547 243.008H137.76C139.641 243.008 141.172 241.479 141.172 239.6C141.172 237.721 139.641 236.191 137.76 236.191ZM137.76 242.155H117.844V237.045H137.76C139.17 237.045 140.317 238.192 140.317 239.6C140.317 241.008 139.17 242.155 137.76 242.155Z" fill="#4000C8"/>
<path d="M122.005 220.173C123.034 220.173 123.546 218.913 122.771 218.203C122.65 217.265 122.389 215.521 122.206 214.31C122.172 214.079 121.839 214.079 121.805 214.31C121.621 215.522 121.36 217.268 121.239 218.206C120.472 218.917 120.983 220.173 122.005 220.173Z" fill="#4000C8"/>
<path d="M115.079 223.704C115.231 223.856 115.465 223.843 115.604 223.704L118.401 220.909C118.547 220.75 118.547 220.531 118.401 220.385C116.972 218.814 116.648 217.104 117.082 215.466L112.844 213.306C111.555 216.677 112.175 220.727 115.079 223.704Z" fill="#4000C8"/>
<path d="M121.258 211.744V207.021C117.87 207.27 114.968 209.288 113.479 211.964L117.68 214.1C118.351 212.969 119.668 211.961 121.258 211.744Z" fill="#4000C8"/>
<path d="M126.326 214.099L130.527 211.951C129.027 209.297 126.165 207.271 122.736 207.021V211.744C124.335 211.96 125.644 212.948 126.326 214.099Z" fill="#4000C8"/>
<path d="M125.605 220.385C125.471 220.531 125.471 220.75 125.605 220.909L128.402 223.704C128.541 223.843 128.774 223.857 128.927 223.704C131.838 220.795 132.447 216.599 131.162 213.295L126.924 215.455C127.358 216.971 127.082 218.762 125.605 220.385Z" fill="#4000C8"/>
<path d="M124.342 224.24H119.667C119.087 224.24 118.617 224.711 118.617 225.29C118.617 225.87 119.086 226.34 119.667 226.34H124.342C124.922 226.34 125.392 225.87 125.392 225.29C125.392 224.711 124.922 224.24 124.342 224.24Z" fill="#4000C8"/>
<path d="M92.4131 193.401C93.8149 193.401 94.9513 192.258 94.9513 190.849C94.9513 189.439 93.8149 188.297 92.4131 188.297C91.0114 188.297 89.875 189.439 89.875 190.849C89.875 192.258 91.0114 193.401 92.4131 193.401Z" fill="white"/>
<circle cx="122" cy="216.652" r="13" stroke="#D2005E" stroke-width="2"/>
<path d="M258 8.65234L258 0.652344L250 0.652343L250 8.65234L258 8.65234Z" fill="#D2005E"/>
<path d="M310 29.6523L310 21.6523L302 21.6523L302 29.6523L310 29.6523Z" fill="#38B763"/>
<path d="M343 24.6523L343 8.65234L327 8.65234L327 24.6523L343 24.6523Z" fill="#EFCB42"/>
<path d="M8 30.6523L8 22.6523L0 22.6523L-3.49691e-07 30.6523L8 30.6523Z" fill="#EFCB42"/>
<path d="M74 40.6523L74 24.6523L58 24.6523L58 40.6523L74 40.6523Z" fill="#D2005E"/>
<defs>
<linearGradient id="paint0_linear_2507_25647" x1="204" y1="166.629" x2="194.814" y2="137.744" gradientUnits="userSpaceOnUse">
<stop stop-color="#E70071"/>
<stop offset="1" stop-color="#4F0DCF"/>
</linearGradient>
<linearGradient id="paint1_linear_2507_25647" x1="172" y1="175.629" x2="159.557" y2="149.822" gradientUnits="userSpaceOnUse">
<stop stop-color="#E70071"/>
<stop offset="1" stop-color="#4F0DCF"/>
</linearGradient>
<linearGradient id="paint2_linear_2507_25647" x1="283" y1="146.036" x2="211.181" y2="139.871" gradientUnits="userSpaceOnUse">
<stop stop-color="#E70071"/>
<stop offset="1" stop-color="#4F0DCF"/>
</linearGradient>
<linearGradient id="paint3_linear_2507_25647" x1="282.569" y1="145.937" x2="211.987" y2="139.913" gradientUnits="userSpaceOnUse">
<stop stop-color="#E70071"/>
<stop offset="1" stop-color="#4F0DCF"/>
</linearGradient>
<linearGradient id="paint4_linear_2507_25647" x1="396" y1="94.0012" x2="305.456" y2="84.6985" gradientUnits="userSpaceOnUse">
<stop stop-color="#E70071"/>
<stop offset="1" stop-color="#4F0DCF"/>
</linearGradient>
<linearGradient id="paint5_linear_2507_25647" x1="278" y1="141.606" x2="248.33" y2="121.26" gradientUnits="userSpaceOnUse">
<stop stop-color="#E70071"/>
<stop offset="1" stop-color="#4F0DCF"/>
</linearGradient>
<linearGradient id="paint6_linear_2507_25647" x1="281.957" y1="186.418" x2="231.199" y2="181.162" gradientUnits="userSpaceOnUse">
<stop stop-color="#E70071"/>
<stop offset="1" stop-color="#4F0DCF"/>
</linearGradient>
<linearGradient id="paint7_linear_2507_25647" x1="395.999" y1="94.1207" x2="305.468" y2="84.7707" gradientUnits="userSpaceOnUse">
<stop stop-color="#E70071"/>
<stop offset="1" stop-color="#4F0DCF"/>
</linearGradient>
<linearGradient id="paint8_linear_2507_25647" x1="376.556" y1="87.522" x2="315.4" y2="81.9011" gradientUnits="userSpaceOnUse">
<stop stop-color="#E70071"/>
<stop offset="1" stop-color="#4F0DCF"/>
</linearGradient>
<linearGradient id="paint9_linear_2507_25647" x1="376.556" y1="87.522" x2="315.4" y2="81.9011" gradientUnits="userSpaceOnUse">
<stop stop-color="#E70071"/>
<stop offset="1" stop-color="#4F0DCF"/>
</linearGradient>
<linearGradient id="paint10_linear_2507_25647" x1="376.556" y1="87.522" x2="315.4" y2="81.9011" gradientUnits="userSpaceOnUse">
<stop stop-color="#E70071"/>
<stop offset="1" stop-color="#4F0DCF"/>
</linearGradient>
<linearGradient id="paint11_linear_2507_25647" x1="376.556" y1="87.522" x2="315.4" y2="81.9011" gradientUnits="userSpaceOnUse">
<stop stop-color="#E70071"/>
<stop offset="1" stop-color="#4F0DCF"/>
</linearGradient>
<linearGradient id="paint12_linear_2507_25647" x1="376.556" y1="87.522" x2="315.4" y2="81.9011" gradientUnits="userSpaceOnUse">
<stop stop-color="#E70071"/>
<stop offset="1" stop-color="#4F0DCF"/>
</linearGradient>
<linearGradient id="paint13_linear_2507_25647" x1="376.556" y1="87.522" x2="315.4" y2="81.9011" gradientUnits="userSpaceOnUse">
<stop stop-color="#E70071"/>
<stop offset="1" stop-color="#4F0DCF"/>
</linearGradient>
<linearGradient id="paint14_linear_2507_25647" x1="376.556" y1="87.522" x2="315.4" y2="81.9011" gradientUnits="userSpaceOnUse">
<stop stop-color="#E70071"/>
<stop offset="1" stop-color="#4F0DCF"/>
</linearGradient>
<linearGradient id="paint15_linear_2507_25647" x1="376.556" y1="87.522" x2="315.4" y2="81.9011" gradientUnits="userSpaceOnUse">
<stop stop-color="#E70071"/>
<stop offset="1" stop-color="#4F0DCF"/>
</linearGradient>
<linearGradient id="paint16_linear_2507_25647" x1="376.556" y1="87.522" x2="315.4" y2="81.9011" gradientUnits="userSpaceOnUse">
<stop stop-color="#E70071"/>
<stop offset="1" stop-color="#4F0DCF"/>
</linearGradient>
<linearGradient id="paint17_linear_2507_25647" x1="376.556" y1="87.522" x2="315.4" y2="81.9011" gradientUnits="userSpaceOnUse">
<stop stop-color="#E70071"/>
<stop offset="1" stop-color="#4F0DCF"/>
</linearGradient>
<linearGradient id="paint18_linear_2507_25647" x1="376.556" y1="87.522" x2="315.4" y2="81.9011" gradientUnits="userSpaceOnUse">
<stop stop-color="#E70071"/>
<stop offset="1" stop-color="#4F0DCF"/>
</linearGradient>
<linearGradient id="paint19_linear_2507_25647" x1="376.556" y1="87.522" x2="315.4" y2="81.9011" gradientUnits="userSpaceOnUse">
<stop stop-color="#E70071"/>
<stop offset="1" stop-color="#4F0DCF"/>
</linearGradient>
<linearGradient id="paint20_linear_2507_25647" x1="376.556" y1="87.522" x2="315.4" y2="81.9011" gradientUnits="userSpaceOnUse">
<stop stop-color="#E70071"/>
<stop offset="1" stop-color="#4F0DCF"/>
</linearGradient>
<linearGradient id="paint21_linear_2507_25647" x1="376.556" y1="87.522" x2="315.4" y2="81.9011" gradientUnits="userSpaceOnUse">
<stop stop-color="#E70071"/>
<stop offset="1" stop-color="#4F0DCF"/>
</linearGradient>
<linearGradient id="paint22_linear_2507_25647" x1="376.556" y1="87.522" x2="315.4" y2="81.9011" gradientUnits="userSpaceOnUse">
<stop stop-color="#E70071"/>
<stop offset="1" stop-color="#4F0DCF"/>
</linearGradient>
<linearGradient id="paint23_linear_2507_25647" x1="376.556" y1="87.522" x2="315.4" y2="81.9011" gradientUnits="userSpaceOnUse">
<stop stop-color="#E70071"/>
<stop offset="1" stop-color="#4F0DCF"/>
</linearGradient>
<linearGradient id="paint24_linear_2507_25647" x1="376.556" y1="87.522" x2="315.4" y2="81.9011" gradientUnits="userSpaceOnUse">
<stop stop-color="#E70071"/>
<stop offset="1" stop-color="#4F0DCF"/>
</linearGradient>
<linearGradient id="paint25_linear_2507_25647" x1="376.556" y1="87.522" x2="315.4" y2="81.9011" gradientUnits="userSpaceOnUse">
<stop stop-color="#E70071"/>
<stop offset="1" stop-color="#4F0DCF"/>
</linearGradient>
<linearGradient id="paint26_linear_2507_25647" x1="376.556" y1="87.522" x2="315.4" y2="81.9011" gradientUnits="userSpaceOnUse">
<stop stop-color="#E70071"/>
<stop offset="1" stop-color="#4F0DCF"/>
</linearGradient>
<linearGradient id="paint27_linear_2507_25647" x1="376.556" y1="87.522" x2="315.4" y2="81.9011" gradientUnits="userSpaceOnUse">
<stop stop-color="#E70071"/>
<stop offset="1" stop-color="#4F0DCF"/>
</linearGradient>
<linearGradient id="paint28_linear_2507_25647" x1="293.424" y1="247.093" x2="64.1527" y2="232.004" gradientUnits="userSpaceOnUse">
<stop stop-color="#E70071"/>
<stop offset="1" stop-color="#4F0DCF"/>
</linearGradient>
<linearGradient id="paint29_linear_2507_25647" x1="167" y1="249.059" x2="72.5608" y2="237.91" gradientUnits="userSpaceOnUse">
<stop stop-color="#E70071"/>
<stop offset="1" stop-color="#4F0DCF"/>
</linearGradient>
</defs>
</svg>
