<svg version="1.2" xmlns="http://www.w3.org/2000/svg" viewBox="0 0 136 173" width="136" height="173">
	<title>web-design-hero-Illustration-2-svg</title>
	<defs>
		<linearGradient id="g1" x2="1" gradientUnits="userSpaceOnUse" gradientTransform="matrix(5.891,32.984,-43.116,7.701,103.781,44.121)">
			<stop offset="0" stop-color="#e70071"/>
			<stop offset="1" stop-color="#4000c8"/>
		</linearGradient>
		<linearGradient id="g2" x2="1" gradientUnits="userSpaceOnUse" gradientTransform="matrix(.008,-0.733,38.159,.399,6.968,36.585)">
			<stop offset="0" stop-color="#e70071"/>
			<stop offset="1" stop-color="#4000c8"/>
		</linearGradient>
		<linearGradient id="g3" x2="1" gradientUnits="userSpaceOnUse" gradientTransform="matrix(9.186,-8.832,8.807,9.161,49.002,49.793)">
			<stop offset="0" stop-color="#e70071"/>
			<stop offset="1" stop-color="#4000c8"/>
		</linearGradient>
		<linearGradient id="g4" x2="1" gradientUnits="userSpaceOnUse" gradientTransform="matrix(9.186,-8.832,8.807,9.161,49.002,82.621)">
			<stop offset="0" stop-color="#e70071"/>
			<stop offset="1" stop-color="#4000c8"/>
		</linearGradient>
		<linearGradient id="g5" x2="1" gradientUnits="userSpaceOnUse" gradientTransform="matrix(9.186,-8.832,8.807,9.161,87.216,49.793)">
			<stop offset="0" stop-color="#e70071"/>
			<stop offset="1" stop-color="#4000c8"/>
		</linearGradient>
		<linearGradient id="g6" x2="1" gradientUnits="userSpaceOnUse" gradientTransform="matrix(9.186,-8.832,8.807,9.161,87.216,82.621)">
			<stop offset="0" stop-color="#e70071"/>
			<stop offset="1" stop-color="#4000c8"/>
		</linearGradient>
		<linearGradient id="g7" x2="1" gradientUnits="userSpaceOnUse" gradientTransform="matrix(2.366,10.358,-11.314,2.585,67.93,58.135)">
			<stop offset="0" stop-color="#e70071"/>
			<stop offset="1" stop-color="#4000c8"/>
		</linearGradient>
		<linearGradient id="g8" x2="1" gradientUnits="userSpaceOnUse" gradientTransform="matrix(-37.486,-3.261,2.616,-30.074,135.5,119.229)">
			<stop offset="0" stop-color="#e70071"/>
			<stop offset="1" stop-color="#4f0dcf"/>
		</linearGradient>
	</defs>
	<style>
		.s0 { fill: #ffffff } 
		.s1 { fill: #4000c8 } 
		.s2 { fill: url(#g1) } 
		.s3 { fill: url(#g2) } 
		.s4 { fill: #d2005e } 
		.s5 { fill: #efcb42 } 
		.s6 { fill: url(#g3) } 
		.s7 { fill: url(#g4) } 
		.s8 { fill: url(#g5) } 
		.s9 { fill: url(#g6) } 
		.s10 { fill: url(#g7) } 
		.s11 { fill: url(#g8) } 
		.s12 { fill: #38b763 } 
	</style>
	<path class="s0" d="m125.5 27.8h-124.5v84.2h124.5z"/>
	<path fill-rule="evenodd" class="s1" d="m126 112.5h-125.5v-85.3h125.5zm-124.4-1h123.3v-83.1h-123.3z"/>
	<path fill-rule="evenodd" class="s2" d="m126 112.5h-125.5v-85.3h125.5zm-124.4-1h123.3v-83.1h-123.3z"/>
	<path class="s1" d="m125.5 36.3h-124.5v1.1h124.5z"/>
	<path class="s3" d="m125.5 36.3h-124.5v1.1h124.5z"/>
	<path class="s4" d="m7.3 34.1c1.1 0 2-0.9 2-2 0-1.1-0.9-2-2-2-1.1 0-2 0.9-2 2 0 1.1 0.9 2 2 2z"/>
	<path fill-rule="evenodd" class="s1" d="m7.3 34.6c-1.4 0-2.5-1.1-2.5-2.5 0-1.4 1.1-2.6 2.5-2.6 1.4 0 2.5 1.2 2.5 2.6 0 1.4-1.1 2.5-2.5 2.5zm0-4c-0.8 0-1.5 0.7-1.5 1.5 0 0.8 0.7 1.4 1.5 1.4 0.8 0 1.4-0.6 1.4-1.4 0-0.8-0.6-1.5-1.4-1.5z"/>
	<path class="s5" d="m13.4 34.1c1.1 0 2-0.9 2-2 0-1.1-0.9-2-2-2-1.1 0-1.9 0.9-1.9 2 0 1.1 0.8 2 1.9 2z"/>
	<path fill-rule="evenodd" class="s1" d="m13.4 34.6c-1.3 0-2.5-1.1-2.5-2.5 0-1.4 1.2-2.6 2.5-2.6 1.4 0 2.6 1.2 2.6 2.6 0 1.4-1.2 2.5-2.6 2.5zm0-4c-0.8 0-1.4 0.7-1.4 1.5 0 0.8 0.6 1.4 1.4 1.4 0.8 0 1.5-0.6 1.5-1.4 0-0.8-0.7-1.5-1.5-1.5z"/>
	<path class="s1" d="m19.8 34.1c1.1 0 2-0.9 2-2 0-1.1-0.9-2-2-2-1.1 0-2 0.9-2 2 0 1.1 0.9 2 2 2z"/>
	<path fill-rule="evenodd" class="s1" d="m19.8 34.6c-1.4 0-2.5-1.1-2.5-2.5 0-1.4 1.1-2.6 2.5-2.6 1.4 0 2.5 1.2 2.5 2.6 0 1.4-1.1 2.5-2.5 2.5zm0-4c-0.8 0-1.5 0.7-1.5 1.5 0 0.8 0.7 1.4 1.5 1.4 0.8 0 1.4-0.6 1.4-1.4 0-0.8-0.6-1.5-1.4-1.5z"/>
	<path class="s1" d="m39.6 70.4h-2.1v-1.1h2.1zm-4.3 0h-2.2v-1.1h2.2zm-4.4 0h-2.1v-1h2.1zm-4.3 0h-2.2v-1.1h2.2zm-4.4 0h-2.1v-1.1h2.1zm-4.3 0h-2.2v-1.1h2.2zm-4.4 0h-2.1v-1.1h2.1zm-3.7-0.6h-1.1v-2.2h1.1zm30.4-2.1h-1.1v-2.2h1.1zm-30.4-2.2h-1.1v-2.2h1.1zm30.4-2.1h-1.1v-2.2h1.1zm-30.4-2.3h-1.1v-2.1h1.1zm30.4-2.1h-1.1v-2.2h1.1zm-30.4-2.3h-1.1v-2.1h1.1zm30.4-2.1h-1.1v-2.2h1.1zm-30.4-2.3h-1.1v-2.1h1.1zm30.4-2.1h-1.1v-2.2h1.1zm-30.4-2.3h-1.1v-2.1h1.1zm30.4-2.1h-1.1v-2.2h1.1zm-2.7-1.7h-2.1v-1.1h2.1zm-4.3 0h-2.2v-1.1h2.2zm-4.3 0h-2.2v-1.1h2.2zm-4.4 0h-2.2v-1.1h2.2zm-4.3 0h-2.2v-1.1h2.2zm-4.4 0h-2.2v-1.1h2.2zm-4.3 0h-2.2v-1h2.2z"/>
	<path class="s4" d="m39.6 76.5h-30.3v26.2h30.3z"/>
	<path fill-rule="evenodd" class="s1" d="m40.2 103.2h-31.5v-27.3h31.5zm-30.4-1h29.3v-25.2h-29.3z"/>
	<path class="s0" d="m78.4 43.7h-30.4v26.2h30.4z"/>
	<path fill-rule="evenodd" class="s1" d="m78.9 70.4h-31.4v-27.3h31.4zm-30.3-1.1h29.2v-25.1h-29.2z"/>
	<path fill-rule="evenodd" class="s6" d="m78.9 70.4h-31.4v-27.3h31.4zm-30.3-1.1h29.2v-25.1h-29.2z"/>
	<path class="s0" d="m78.4 76.5h-30.4v26.2h30.4z"/>
	<path fill-rule="evenodd" class="s1" d="m78.9 103.2h-31.4v-27.3h31.4zm-30.3-1h29.2v-25.2h-29.2z"/>
	<path fill-rule="evenodd" class="s7" d="m78.9 103.2h-31.4v-27.3h31.4zm-30.3-1h29.2v-25.2h-29.2z"/>
	<path class="s0" d="m116.6 43.7h-30.3v26.2h30.3z"/>
	<path fill-rule="evenodd" class="s1" d="m117.1 70.4h-31.4v-27.3h31.4zm-30.3-1.1h29.3v-25.1h-29.3z"/>
	<path fill-rule="evenodd" class="s8" d="m117.1 70.4h-31.4v-27.3h31.4zm-30.3-1.1h29.3v-25.1h-29.3z"/>
	<path class="s0" d="m116.6 76.5h-30.3v26.2h30.3z"/>
	<path fill-rule="evenodd" class="s1" d="m117.1 103.2h-31.4v-27.3h31.4zm-30.3-1h29.3v-25.2h-29.3z"/>
	<path fill-rule="evenodd" class="s9" d="m117.1 103.2h-31.4v-27.3h31.4zm-30.3-1h29.3v-25.2h-29.3z"/>
	<path class="s1" d="m73 53.3h-30.4v26.2h30.4z"/>
	<path fill-rule="evenodd" class="s1" d="m73.5 80h-31.4v-27.3h31.4zm-30.3-1.1h29.2v-25.1h-29.2z"/>
	<path fill-rule="evenodd" class="s10" d="m73.5 80h-31.4v-27.3h31.4zm-30.3-1.1h29.2v-25.1h-29.2z"/>
	<path class="s0" d="m134.9 92.8h-34.3v26.2h34.3z"/>
	<path fill-rule="evenodd" class="s11" d="m135.5 119.5h-35.5v-27.3l35.5 0.1zm-34.3-1.1h33.1v-25.2h-33.1z"/>
	<path class="s12" d="m26.8 125.8h-9.3v9.3h9.3z"/>
	<path class="s12" d="m48 17.3l-4-0.1v4h4z"/>
	<path class="s5" d="m45.5 0.8l-8-0.1v8.1h8z"/>
	<path class="s5" d="m48.5 168.3l-4-0.1v4h4z"/>
	<path class="s4" d="m53.5 135.3l-8-0.1v8h8z"/>
</svg>