<svg width="24" height="25" viewBox="0 0 24 25" fill="none" xmlns="http://www.w3.org/2000/svg">
<path d="M21.5928 7.70325C21.4789 7.28065 21.2563 6.89526 20.9472 6.58542C20.6381 6.27558 20.2532 6.05211 19.8308 5.93725C18.2648 5.50725 11.9998 5.50025 11.9998 5.50025C11.9998 5.50025 5.73584 5.49325 4.16884 5.90425C3.74677 6.0244 3.36266 6.25103 3.05341 6.56239C2.74415 6.87374 2.52013 7.25937 2.40284 7.68225C1.98984 9.24825 1.98584 12.4963 1.98584 12.4963C1.98584 12.4963 1.98184 15.7603 2.39184 17.3103C2.62184 18.1673 3.29684 18.8443 4.15484 19.0753C5.73684 19.5053 11.9848 19.5123 11.9848 19.5123C11.9848 19.5123 18.2498 19.5193 19.8158 19.1093C20.2383 18.9946 20.6236 18.7716 20.9335 18.4624C21.2434 18.1532 21.4672 17.7685 21.5828 17.3463C21.9968 15.7813 21.9998 12.5343 21.9998 12.5343C21.9998 12.5343 22.0198 9.26925 21.5928 7.70325ZM9.99584 15.5053L10.0008 9.50525L15.2078 12.5103L9.99584 15.5053Z" fill="#4000C8"/>
</svg>
