<svg width="20" height="20" viewBox="0 0 20 20" fill="none" xmlns="http://www.w3.org/2000/svg">
<path d="M16.0416 7.70831V7.29165C16.0416 6.37117 15.2955 5.62498 14.375 5.62498H5.62498C4.70451 5.62498 3.95831 6.37117 3.95831 7.29165V14.375C3.95831 15.2955 4.70451 16.0416 5.62498 16.0416H7.70831M12.5 11.4583V12.5L13.5416 13.5416M6.66665 3.95831V6.87498M13.3333 3.95831V6.87498M12.5 16.0416C10.544 16.0416 8.95831 14.456 8.95831 12.5C8.95831 10.544 10.544 8.95831 12.5 8.95831C14.456 8.95831 16.0416 10.544 16.0416 12.5C16.0416 14.456 14.456 16.0416 12.5 16.0416Z" stroke="#6B7280" stroke-width="1.2" stroke-linecap="round" stroke-linejoin="round"/>
</svg>
