<svg width="20" height="20" viewBox="0 0 20 20" fill="none" xmlns="http://www.w3.org/2000/svg">
<path d="M10.0007 15.2083C12.9173 15.2083 16.0423 13.75 16.0423 10C16.0423 6.25001 12.9173 4.79167 10.0007 4.79167C7.08398 4.79167 3.95898 6.25001 3.95898 10C3.95898 10.8582 4.12264 11.5963 4.41001 12.2245C4.58913 12.616 4.68961 13.0478 4.61026 13.471L4.39177 14.6363C4.28377 15.2123 4.78838 15.7169 5.36441 15.6089L8.03722 15.1077C8.24732 15.0683 8.4627 15.0718 8.67382 15.1053C9.11317 15.1749 9.5593 15.2083 10.0007 15.2083Z" stroke="#6B7280" stroke-linecap="round" stroke-linejoin="round"/>
<path d="M7.91732 10C7.91732 10.2301 7.73077 10.4167 7.50065 10.4167C7.27053 10.4167 7.08398 10.2301 7.08398 10C7.08398 9.76988 7.27053 9.58333 7.50065 9.58333C7.73077 9.58333 7.91732 9.76988 7.91732 10Z" stroke="#6B7280" stroke-linecap="round" stroke-linejoin="round"/>
<path d="M10.4173 10C10.4173 10.2301 10.2308 10.4167 10.0007 10.4167C9.77053 10.4167 9.58398 10.2301 9.58398 10C9.58398 9.76988 9.77053 9.58333 10.0007 9.58333C10.2308 9.58333 10.4173 9.76988 10.4173 10Z" stroke="#6B7280" stroke-linecap="round" stroke-linejoin="round"/>
<path d="M12.9173 10C12.9173 10.2301 12.7308 10.4167 12.5007 10.4167C12.2705 10.4167 12.084 10.2301 12.084 10C12.084 9.76988 12.2705 9.58333 12.5007 9.58333C12.7308 9.58333 12.9173 9.76988 12.9173 10Z" stroke="#6B7280" stroke-linecap="round" stroke-linejoin="round"/>
</svg>
