<svg width="28" height="28" viewBox="0 0 28 28" fill="none" xmlns="http://www.w3.org/2000/svg">
<path d="M17.15 13.9412C17.9988 13.355 18.5938 12.3925 18.5938 11.5C18.5938 9.5225 17.0625 8 15.0938 8H9.625V20.25H15.785C17.6137 20.25 19.0312 18.7625 19.0312 16.9338C19.0312 15.6038 18.2788 14.4662 17.15 13.9412ZM12.25 10.1875H14.875C15.6013 10.1875 16.1875 10.7738 16.1875 11.5C16.1875 12.2263 15.6013 12.8125 14.875 12.8125H12.25V10.1875ZM15.3125 18.0625H12.25V15.4375H15.3125C16.0388 15.4375 16.625 16.0238 16.625 16.75C16.625 17.4762 16.0388 18.0625 15.3125 18.0625Z" fill="#98A2B3"/>
</svg>
