<svg width="20" height="20" viewBox="0 0 20 20" fill="none" xmlns="http://www.w3.org/2000/svg">
<path d="M4.79232 16.0419H7.70899C8.16923 16.0419 8.54232 15.6688 8.54232 15.2085V4.79166C8.54232 4.33142 8.16923 3.95833 7.70899 3.95833H4.79232C4.33208 3.95833 3.95898 4.33142 3.95898 4.79166V15.2085C3.95898 15.6688 4.33208 16.0419 4.79232 16.0419Z" stroke="#6D28D9" stroke-width="1.5" stroke-linecap="round" stroke-linejoin="round"/>
<path d="M12.2923 16.0419H15.209C15.6692 16.0419 16.0423 15.6688 16.0423 15.2085V4.79166C16.0423 4.33142 15.6692 3.95833 15.209 3.95833H12.2923C11.8321 3.95833 11.459 4.33142 11.459 4.79166V15.2085C11.459 15.6688 11.8321 16.0419 12.2923 16.0419Z" stroke="#6D28D9" stroke-width="1.5" stroke-linecap="round" stroke-linejoin="round"/>
</svg>
