<svg width="20" height="20" viewBox="0 0 20 20" fill="none" xmlns="http://www.w3.org/2000/svg">
<path d="M3.95831 5.41665C3.95831 4.61123 4.61123 3.95831 5.41665 3.95831C6.22206 3.95831 6.87498 4.61123 6.87498 5.41665V6.87498H5.41665C4.61123 6.87498 3.95831 6.22206 3.95831 5.41665Z" stroke="#9CA3AF" stroke-width="1.5" stroke-linecap="round" stroke-linejoin="round"/>
<path d="M13.125 5.41665C13.125 4.61123 13.7779 3.95831 14.5833 3.95831C15.3887 3.95831 16.0417 4.61123 16.0417 5.41665C16.0417 6.22206 15.3887 6.87498 14.5833 6.87498H13.125V5.41665Z" stroke="#9CA3AF" stroke-width="1.5" stroke-linecap="round" stroke-linejoin="round"/>
<path d="M13.125 13.125H14.5833C15.3887 13.125 16.0417 13.7779 16.0417 14.5833C16.0417 15.3887 15.3887 16.0417 14.5833 16.0417C13.7779 16.0417 13.125 15.3887 13.125 14.5833V13.125Z" stroke="#9CA3AF" stroke-width="1.5" stroke-linecap="round" stroke-linejoin="round"/>
<path d="M3.95831 14.5833C3.95831 13.7779 4.61123 13.125 5.41665 13.125H6.87498V14.5833C6.87498 15.3887 6.22206 16.0417 5.41665 16.0417C4.61123 16.0417 3.95831 15.3887 3.95831 14.5833Z" stroke="#9CA3AF" stroke-width="1.5" stroke-linecap="round" stroke-linejoin="round"/>
<path d="M6.875 6.875H13.125V13.125H6.875V6.875Z" stroke="#9CA3AF" stroke-width="1.5" stroke-linecap="round" stroke-linejoin="round"/>
</svg>
