<svg width="9" height="10" viewBox="0 0 9 10" fill="none" xmlns="http://www.w3.org/2000/svg">
<path d="M5.33851 6.79438V3.54539V2.69598C5.33851 1.95982 5.94018 1.36523 6.66926 1.36523C7.40541 1.36523 8 1.9669 8 2.69598C8 3.43213 7.39833 4.02672 6.66926 4.02672H5.81984H2.91063H2.06121C1.32506 4.02672 0.730469 3.42505 0.730469 2.69598C0.730469 1.95982 1.33214 1.36523 2.06121 1.36523C2.79737 1.36523 3.39195 1.9669 3.39195 2.69598V3.54539V6.45461V7.30402C3.39195 8.04018 2.79029 8.63477 2.06121 8.63477C1.32506 8.63477 0.730469 8.0331 0.730469 7.30402C0.730469 6.56787 1.33214 5.97328 2.06121 5.97328H2.91063H6.01097H5.81984H6.66926C7.40541 5.97328 8 6.57495 8 7.30402C8 8.04018 7.39833 8.63477 6.66926 8.63477C5.9331 8.63477 5.33851 8.0331 5.33851 7.30402V6.45461" stroke="#4B5563" stroke-width="0.8" stroke-linecap="round" stroke-linejoin="round"/>
</svg>
