<svg width="29" height="28" viewBox="0 0 29 28" fill="none" xmlns="http://www.w3.org/2000/svg">
<path d="M20.4583 5.5415H8.20833C6.91966 5.5415 5.87499 6.58617 5.87499 7.87484V20.1248C5.87499 21.4135 6.91966 22.4582 8.20833 22.4582H20.4583C21.747 22.4582 22.7917 21.4135 22.7917 20.1248V7.87484C22.7917 6.58617 21.747 5.5415 20.4583 5.5415Z" stroke="#4B5563" stroke-width="1.5" stroke-linecap="round" stroke-linejoin="round"/>
<path d="M5.87499 18.6665L9.07888 14.591C9.98738 13.4353 11.7253 13.3975 12.6832 14.5126L15.5 17.7915" stroke="#4B5563" stroke-width="1.5" stroke-linecap="round" stroke-linejoin="round"/>
<path d="M13.0675 14.96C14.2776 13.4208 15.9636 11.2402 16.0732 11.0983L16.0849 11.0834C16.995 9.93517 18.7274 9.89997 19.6832 11.0126L22.5 14.2915" stroke="#1F2937" stroke-width="1.5" stroke-linecap="round" stroke-linejoin="round"/>
</svg>
