<svg width="24" height="24" viewBox="0 0 24 24" fill="none" xmlns="http://www.w3.org/2000/svg">
<path d="M12.5 9C12.5 9.2761 12.2761 9.5 12 9.5C11.7239 9.5 11.5 9.2761 11.5 9C11.5 8.72386 11.7239 8.5 12 8.5C12.2761 8.5 12.5 8.72386 12.5 9Z" stroke="#9CA3AF" stroke-linecap="round" stroke-linejoin="round"/>
<path d="M5.75007 13.75L4.96442 18.0711C4.85281 18.685 5.32438 19.25 5.94829 19.25H18.0519C18.6758 19.25 19.1473 18.685 19.0357 18.0711L18.2501 13.75M16.2501 8.95C16.2501 12 12.0001 15.25 12.0001 15.25C12.0001 15.25 7.75007 12 7.75007 8.95C7.75007 6.6304 9.65286 4.75 12.0001 4.75C14.3473 4.75 16.2501 6.6304 16.2501 8.95Z" stroke="#9CA3AF" stroke-width="1.5" stroke-linecap="round" stroke-linejoin="round"/>
</svg>
