<svg width="24" height="25" viewBox="0 0 24 25" fill="none" xmlns="http://www.w3.org/2000/svg">
<path d="M5.75 12.25C5.75 11.6977 6.19772 11.25 6.75 11.25H17.25C17.8023 11.25 18.25 11.6977 18.25 12.25V17.75C18.25 18.8546 17.3546 19.75 16.25 19.75H7.75C6.64543 19.75 5.75 18.8546 5.75 17.75V12.25Z" stroke="#9CA3AF" stroke-width="1.5" stroke-linecap="round" stroke-linejoin="round"/>
<path d="M7.75008 11V10.8427C7.75008 9.28147 7.65615 7.54125 8.74654 6.4239C9.36836 5.7867 10.3746 5.25 12.0001 5.25C13.6256 5.25 14.6318 5.7867 15.2536 6.4239C16.344 7.54125 16.2501 9.28147 16.2501 10.8427V11" stroke="#9CA3AF" stroke-width="1.5" stroke-linecap="round" stroke-linejoin="round"/>
</svg>
