<svg width="24" height="24" viewBox="0 0 24 24" fill="none" xmlns="http://www.w3.org/2000/svg">
<path d="M16.7499 4.74995L18.25 4.74992C18.8023 4.7499 19.25 5.19762 19.25 5.74992V8.24989M16.7499 4.74995L7.74998 4.74999C6.09313 4.75 4.75 6.09313 4.74999 7.74997L4.74994 16.25C4.74993 17.9068 6.09308 19.25 7.74994 19.25H16.7499M16.7499 4.74995V8.24989M16.7499 19.25H18.25C18.8023 19.25 19.25 18.8023 19.25 18.25V15.7499M16.7499 19.25V15.7499M16.7499 8.24989H19.25M16.7499 8.24989V11.9999M19.25 8.24989V11.9999M16.7499 15.7499H19.25M16.7499 15.7499V11.9999M19.25 15.7499V11.9999M16.7499 11.9999H19.25M8.75001 15.25C8.75001 15.25 9.42501 13.75 11 13.75C12.575 13.75 13.25 15.25 13.25 15.25M12.25 10C12.25 10.6904 11.6904 11.25 11 11.25C10.3097 11.25 9.75001 10.6904 9.75001 10C9.75001 9.30965 10.3097 8.75 11 8.75C11.6904 8.75 12.25 9.30965 12.25 10Z" stroke="#1F2937" stroke-width="1.5" stroke-linecap="round" stroke-linejoin="round"/>
</svg>
