<svg width="20" height="20" viewBox="0 0 20 20" fill="none" xmlns="http://www.w3.org/2000/svg">
                                <path d="M16.0416 9.99999C16.0416 13.3367 13.3366 16.0417 9.99992 16.0417C6.6632 16.0417 3.95825 13.3367 3.95825 9.99999C3.95825 6.66327 6.6632 3.95833 9.99992 3.95833C13.3366 3.95833 16.0416 6.66327 16.0416 9.99999Z" stroke="#1F2937" stroke-width="1.5" stroke-linecap="round" stroke-linejoin="round" />
                                <path d="M11.875 8.33333C11.875 9.36886 11.0355 10.2083 10 10.2083C8.96447 10.2083 8.125 9.36886 8.125 8.33333C8.125 7.29779 8.96447 6.45833 10 6.45833C11.0355 6.45833 11.875 7.29779 11.875 8.33333Z" stroke="#1F2937" stroke-width="1.5" stroke-linecap="round" stroke-linejoin="round" />
                                <path d="M5.9978 14.1667C6.95319 13.0208 8.39141 12.2917 9.99993 12.2917C11.6084 12.2917 13.0467 13.0208 14.002 14.1667" stroke="#1F2937" stroke-width="1.5" stroke-linecap="round" stroke-linejoin="round" />
                            </svg>