<svg width="24" height="25" viewBox="0 0 24 25" fill="none" xmlns="http://www.w3.org/2000/svg">
<path d="M15.25 12.5C15.25 14.2949 13.7949 15.75 12 15.75C10.2051 15.75 8.75 14.2949 8.75 12.5C8.75 10.7051 10.2051 9.25 12 9.25C13.7949 9.25 15.25 10.7051 15.25 12.5Z" stroke="#4B5563" stroke-width="1.5" stroke-linecap="round" stroke-linejoin="round"/>
<path d="M14.5 15L17.25 17.75" stroke="#4B5563" stroke-width="1.5" stroke-linecap="round" stroke-linejoin="round"/>
<path d="M4.75 8.75V7.25C4.75 6.14543 5.64543 5.25 6.75 5.25H8.25" stroke="#4B5563" stroke-width="1.5" stroke-linecap="round" stroke-linejoin="round"/>
<path d="M4.75 16.25V17.75C4.75 18.8546 5.64543 19.75 6.75 19.75H8.25" stroke="#4B5563" stroke-width="1.5" stroke-linecap="round" stroke-linejoin="round"/>
<path d="M19.25 8.75V7.25C19.25 6.14543 18.3546 5.25 17.25 5.25H15.75" stroke="#4B5563" stroke-width="1.5" stroke-linecap="round" stroke-linejoin="round"/>
</svg>
