<svg width="237" height="237" viewBox="0 0 237 237" fill="none" xmlns="http://www.w3.org/2000/svg">
<path opacity="0.33" fill-rule="evenodd" clip-rule="evenodd" d="M205.77 38.3504C221.622 55.6115 231.999 77.1855 235.59 100.344C239.181 123.503 235.823 147.207 225.943 168.458C216.062 189.708 200.102 207.552 180.08 219.732C160.059 231.913 136.875 237.882 113.461 236.887C90.0462 235.891 67.4528 227.975 48.5375 214.139C29.6222 200.302 15.2345 181.168 7.19372 159.155C-0.847034 137.142 -2.17968 113.239 3.36426 90.4688C8.90819 67.6984 21.0797 47.0833 38.3397 31.2303C49.8006 20.7037 63.2227 12.5377 77.8396 7.19856C92.4565 1.85939 107.982 -0.548296 123.529 0.112863C139.077 0.774022 154.342 4.49101 168.453 11.0518C182.564 17.6126 195.244 26.8888 205.77 38.3504Z" fill="black"/>
<path d="M14.6399 61.4445C27.1057 38.7526 46.6602 20.7676 70.3136 10.2396C93.967 -0.288485 120.418 -2.78023 145.621 3.14532C170.824 9.07087 193.394 23.0876 209.878 43.0524C226.362 63.0171 235.854 87.8312 236.903 113.701C237.951 139.57 230.499 165.071 215.685 186.304C200.87 207.538 179.51 223.335 154.868 231.281C130.227 239.227 103.662 238.884 79.234 230.305C54.8061 221.726 33.8601 205.383 19.5985 183.774L118.5 118.5L14.6399 61.4445Z" fill="#EDAE03"/>
<path fill-rule="evenodd" clip-rule="evenodd" d="M46.72 152.67C50.7309 154.355 54.1524 157.191 56.5518 160.82C58.9511 164.449 60.2206 168.708 60.1999 173.058C60.1792 177.408 58.8692 181.655 56.4354 185.261C54.0016 188.867 50.5534 191.67 46.5266 193.317C42.4998 194.963 38.0751 195.379 33.8121 194.511C29.5491 193.643 25.6391 191.531 22.5763 188.442C19.5135 185.352 17.4354 181.424 16.6049 177.154C15.7743 172.883 16.2285 168.462 17.91 164.45C19.0279 161.785 20.6599 159.365 22.7129 157.331C24.7658 155.296 27.1995 153.686 29.8749 152.592C32.5502 151.498 35.4148 150.942 38.3052 150.955C41.1955 150.969 44.0548 151.551 46.72 152.67Z" fill="#EDAE03"/>
<path fill-rule="evenodd" clip-rule="evenodd" d="M43.72 49.6699C47.7309 51.3547 51.1524 54.1909 53.5518 57.8198C55.9511 61.4488 57.2206 65.7077 57.1999 70.0581C57.1792 74.4085 55.8692 78.655 53.4354 82.261C51.0016 85.8669 47.5534 88.6704 43.5266 90.3169C39.4998 91.9634 35.0751 92.3789 30.8121 91.5112C26.5491 90.6435 22.6391 88.5315 19.5763 85.4419C16.5135 82.3523 14.4354 78.424 13.6049 74.1536C12.7743 69.8831 13.2285 65.4623 14.91 61.4499C16.0279 58.7845 17.6599 56.3654 19.7129 54.3308C21.7658 52.2962 24.1995 50.6859 26.8749 49.592C29.5502 48.4981 32.4148 47.942 35.3052 47.9553C38.1955 47.9687 41.0548 48.5513 43.72 49.6699Z" fill="#EDAE03"/>
<g filter="url(#filter0_d_2002_9)">
<path fill-rule="evenodd" clip-rule="evenodd" d="M44.2403 158.8C47.0088 159.96 49.3712 161.915 51.0287 164.417C52.6862 166.92 53.5643 169.858 53.552 172.859C53.5398 175.861 52.6377 178.792 50.9598 181.28C49.2819 183.769 46.9036 185.705 44.1256 186.842C41.3477 187.979 38.295 188.267 35.3534 187.669C32.4119 187.071 29.7137 185.615 27.6001 183.483C25.4866 181.352 24.0525 178.641 23.4794 175.695C22.9063 172.749 23.2198 169.698 24.3803 166.93C25.9364 163.219 28.9027 160.277 32.627 158.753C36.3513 157.228 40.5285 157.245 44.2403 158.8Z" fill="white"/>
</g>
<path fill-rule="evenodd" clip-rule="evenodd" d="M148.823 48.0601C162.871 53.9533 174.856 63.8798 183.263 76.5843C191.669 89.2888 196.12 104.201 196.051 119.434C195.983 134.668 191.399 149.54 182.879 162.168C174.359 174.797 162.285 184.615 148.185 190.382C134.085 196.149 118.592 197.606 103.664 194.568C88.736 191.529 75.0442 184.133 64.3199 173.313C53.5957 162.494 46.3206 148.737 43.4145 133.783C40.5085 118.829 42.102 103.349 47.9935 89.3001C51.9056 79.9711 57.6169 71.5041 64.8015 64.3826C71.9861 57.2611 80.5032 51.6245 89.8663 47.795C99.2295 43.9654 109.255 42.0178 119.371 42.0633C129.487 42.1088 139.495 44.1465 148.823 48.0601Z" fill="white"/>
<path d="M95.8965 121.371C95.8965 120.34 96.1266 119.42 96.5867 118.61C97.0568 117.79 97.692 117.155 98.4922 116.704C99.3024 116.244 100.208 116.014 101.208 116.014C102.378 116.014 103.403 116.314 104.284 116.915C105.164 117.515 105.779 118.345 106.129 119.405H103.714C103.473 118.905 103.133 118.53 102.693 118.28C102.263 118.03 101.763 117.905 101.193 117.905C100.583 117.905 100.038 118.05 99.5575 118.34C99.0874 118.62 98.7173 119.02 98.4472 119.54C98.1871 120.06 98.0571 120.671 98.0571 121.371C98.0571 122.061 98.1871 122.671 98.4472 123.201C98.7173 123.721 99.0874 124.126 99.5575 124.416C100.038 124.697 100.583 124.837 101.193 124.837C101.763 124.837 102.263 124.712 102.693 124.462C103.133 124.201 103.473 123.821 103.714 123.321H106.129C105.779 124.391 105.164 125.227 104.284 125.827C103.413 126.417 102.388 126.712 101.208 126.712C100.208 126.712 99.3024 126.487 98.4922 126.037C97.692 125.577 97.0568 124.942 96.5867 124.131C96.1266 123.321 95.8965 122.401 95.8965 121.371ZM110.024 124.957H113.475V126.622H107.923V116.149H110.024V124.957ZM116.91 116.149V126.622H114.81V116.149H116.91ZM121.086 117.845V120.47H124.612V122.136H121.086V124.912H125.062V126.622H118.986V116.134H125.062V117.845H121.086ZM135.929 126.622H133.828L129.072 119.435V126.622H126.971V116.134H129.072L133.828 123.336V116.134H135.929V126.622ZM145.131 116.149V117.845H142.341V126.622H140.24V117.845H137.449V116.149H145.131Z" fill="#081A40"/>
<path d="M86.4745 145.422L84.1639 141.341H83.1736V145.422H81.0731V134.949H85.0041C85.8143 134.949 86.5045 135.094 87.0746 135.384C87.6448 135.664 88.0699 136.049 88.35 136.54C88.64 137.02 88.7851 137.56 88.7851 138.16C88.7851 138.85 88.585 139.475 88.1849 140.035C87.7848 140.586 87.1897 140.966 86.3995 141.176L88.9051 145.422H86.4745ZM83.1736 139.765H84.9291C85.4992 139.765 85.9243 139.63 86.2044 139.36C86.4845 139.08 86.6245 138.695 86.6245 138.205C86.6245 137.725 86.4845 137.355 86.2044 137.095C85.9243 136.825 85.4992 136.69 84.9291 136.69H83.1736V139.765ZM92.7855 136.645V139.27H96.3114V140.936H92.7855V143.711H96.7615V145.422H90.685V134.934H96.7615V136.645H92.7855ZM105.797 134.949V136.645H103.007V145.422H100.906V136.645H98.1153V134.949H105.797ZM109.43 136.645V139.27H112.956V140.936H109.43V143.711H113.406V145.422H107.33V134.934H113.406V136.645H109.43ZM124.273 145.422H122.172L117.416 138.235V145.422H115.315V134.934H117.416L122.172 142.136V134.934H124.273V145.422ZM133.475 134.949V136.645H130.685V145.422H128.584V136.645H125.793V134.949H133.475ZM137.109 134.949V145.422H135.008V134.949H137.109ZM144.045 145.527C143.065 145.527 142.165 145.297 141.344 144.837C140.524 144.377 139.874 143.741 139.394 142.931C138.914 142.111 138.674 141.186 138.674 140.156C138.674 139.135 138.914 138.22 139.394 137.41C139.874 136.59 140.524 135.949 141.344 135.489C142.165 135.029 143.065 134.799 144.045 134.799C145.035 134.799 145.936 135.029 146.746 135.489C147.566 135.949 148.211 136.59 148.681 137.41C149.162 138.22 149.402 139.135 149.402 140.156C149.402 141.186 149.162 142.111 148.681 142.931C148.211 143.741 147.566 144.377 146.746 144.837C145.926 145.297 145.025 145.527 144.045 145.527ZM144.045 143.651C144.675 143.651 145.23 143.511 145.711 143.231C146.191 142.941 146.566 142.531 146.836 142.001C147.106 141.471 147.241 140.856 147.241 140.156C147.241 139.455 147.106 138.845 146.836 138.325C146.566 137.795 146.191 137.39 145.711 137.11C145.23 136.83 144.675 136.69 144.045 136.69C143.415 136.69 142.855 136.83 142.365 137.11C141.885 137.39 141.51 137.795 141.239 138.325C140.969 138.845 140.834 139.455 140.834 140.156C140.834 140.856 140.969 141.471 141.239 142.001C141.51 142.531 141.885 142.941 142.365 143.231C142.855 143.511 143.415 143.651 144.045 143.651ZM159.922 145.422H157.821L153.065 138.235V145.422H150.964V134.934H153.065L157.821 142.136V134.934H159.922V145.422Z" fill="#081A40"/>
<path d="M108.438 164.222L106.128 160.141H105.137V164.222H103.037V153.749H106.968C107.778 153.749 108.468 153.894 109.038 154.185C109.609 154.465 110.034 154.85 110.314 155.34C110.604 155.82 110.749 156.36 110.749 156.96C110.749 157.65 110.549 158.276 110.149 158.836C109.749 159.386 109.153 159.766 108.363 159.976L110.869 164.222H108.438ZM105.137 158.566H106.893C107.463 158.566 107.888 158.431 108.168 158.161C108.448 157.881 108.588 157.495 108.588 157.005C108.588 156.525 108.448 156.155 108.168 155.895C107.888 155.625 107.463 155.49 106.893 155.49H105.137V158.566ZM119.07 162.227H114.899L114.209 164.222H112.004L115.769 153.734H118.215L121.981 164.222H119.761L119.07 162.227ZM118.5 160.546L116.985 156.165L115.469 160.546H118.5ZM130.516 153.749V155.445H127.725V164.222H125.624V155.445H122.834V153.749H130.516ZM134.149 155.445V158.071H137.675V159.736H134.149V162.512H138.125V164.222H132.048V153.734H138.125V155.445H134.149Z" fill="#081A40"/>
<path d="M97.4263 97.6349C97.7506 99.3428 98.7451 100.197 100.41 100.197C101.556 100.197 102.366 99.6887 102.842 98.6726C103.318 97.6565 103.555 96.0026 103.555 93.7109C103.08 94.3811 102.431 94.9 101.61 95.2675C100.788 95.6351 99.8693 95.8188 98.8532 95.8188C97.4695 95.8188 96.2372 95.5378 95.1562 94.9757C94.0753 94.3919 93.2213 93.538 92.5943 92.4138C91.989 91.2679 91.6863 89.8843 91.6863 88.2628C91.6863 86.663 92.0106 85.2685 92.6592 84.0795C93.3294 82.8904 94.2698 81.9716 95.4805 81.323C96.7128 80.6744 98.1613 80.3501 99.826 80.3501C103.026 80.3501 105.263 81.3446 106.539 83.3336C107.814 85.3226 108.452 88.252 108.452 92.1219C108.452 94.9324 108.193 97.2565 107.674 99.0942C107.177 100.91 106.323 102.294 105.112 103.245C103.923 104.196 102.291 104.672 100.215 104.672C98.5721 104.672 97.1669 104.348 95.9994 103.699C94.8536 103.051 93.9672 102.197 93.3402 101.137C92.7349 100.078 92.389 98.9104 92.3025 97.6349H97.4263ZM100.118 91.4409C101.026 91.4409 101.75 91.1706 102.291 90.6302C102.831 90.068 103.101 89.3114 103.101 88.3601C103.101 87.3224 102.82 86.5225 102.258 85.9603C101.696 85.3982 100.939 85.1172 99.9882 85.1172C99.0369 85.1172 98.2803 85.4091 97.7181 85.9928C97.1777 86.5549 96.9074 87.3332 96.9074 88.3277C96.9074 89.2573 97.1777 90.014 97.7181 90.5977C98.2803 91.1598 99.0802 91.4409 100.118 91.4409ZM128.079 85.7333H117.962V90.2086C118.394 89.7329 118.999 89.3438 119.778 89.0411C120.556 88.7384 121.399 88.5871 122.307 88.5871C123.929 88.5871 125.269 88.9546 126.328 89.6897C127.409 90.4248 128.198 91.376 128.696 92.5435C129.193 93.7109 129.442 94.9757 129.442 96.3377C129.442 98.8672 128.728 100.878 127.301 102.37C125.874 103.84 123.864 104.575 121.269 104.575C119.54 104.575 118.037 104.283 116.762 103.699C115.486 103.094 114.502 102.261 113.811 101.202C113.119 100.143 112.74 98.9212 112.676 97.5376H118.091C118.221 98.2078 118.534 98.7699 119.032 99.2239C119.529 99.6563 120.21 99.8725 121.075 99.8725C122.091 99.8725 122.848 99.5482 123.345 98.8996C123.842 98.251 124.091 97.3862 124.091 96.3053C124.091 95.2459 123.831 94.4352 123.312 93.8731C122.794 93.311 122.037 93.0299 121.042 93.0299C120.307 93.0299 119.702 93.2137 119.226 93.5812C118.751 93.9271 118.437 94.3919 118.286 94.9757H112.935V80.869H128.079V85.7333ZM131.741 92.2908C131.741 91.0759 132.086 90.1385 132.776 89.4785C133.48 88.8186 134.388 88.4886 135.498 88.4886C136.608 88.4886 137.508 88.8186 138.198 89.4785C138.888 90.1385 139.232 91.0759 139.232 92.2908C139.232 93.5057 138.888 94.4431 138.198 95.103C137.508 95.763 136.608 96.093 135.498 96.093C134.388 96.093 133.48 95.763 132.776 95.103C132.086 94.4431 131.741 93.5057 131.741 92.2908ZM147.017 88.7361L138.355 104.575H134.643L143.305 88.7361H147.017ZM135.475 90.7384C134.755 90.7384 134.395 91.2559 134.395 92.2908C134.395 93.3107 134.755 93.8207 135.475 93.8207C135.82 93.8207 136.09 93.6932 136.285 93.4382C136.48 93.1832 136.578 92.8008 136.578 92.2908C136.578 91.2559 136.21 90.7384 135.475 90.7384ZM142.45 101.02C142.45 99.8051 142.795 98.8677 143.485 98.2078C144.175 97.5478 145.074 97.2179 146.184 97.2179C147.294 97.2179 148.194 97.5478 148.884 98.2078C149.574 98.8677 149.919 99.8051 149.919 101.02C149.919 102.235 149.574 103.172 148.884 103.832C148.194 104.492 147.294 104.822 146.184 104.822C145.074 104.822 144.175 104.492 143.485 103.832C142.795 103.172 142.45 102.235 142.45 101.02ZM146.162 99.4677C145.817 99.4677 145.547 99.5951 145.352 99.8501C145.172 100.105 145.082 100.495 145.082 101.02C145.082 102.04 145.442 102.55 146.162 102.55C146.507 102.55 146.777 102.422 146.972 102.167C147.167 101.912 147.264 101.53 147.264 101.02C147.264 100.51 147.167 100.128 146.972 99.8726C146.777 99.6026 146.507 99.4677 146.162 99.4677Z" fill="#081A40"/>
<defs>
<filter id="filter0_d_2002_9" x="23.2002" y="157.622" width="41.3796" height="43.8356" filterUnits="userSpaceOnUse" color-interpolation-filters="sRGB">
<feFlood flood-opacity="0" result="BackgroundImageFix"/>
<feColorMatrix in="SourceAlpha" type="matrix" values="0 0 0 0 0 0 0 0 0 0 0 0 0 0 0 0 0 0 127 0" result="hardAlpha"/>
<feOffset dx="5.736" dy="8.192"/>
<feGaussianBlur stdDeviation="2.646"/>
<feColorMatrix type="matrix" values="0 0 0 0 0.0313726 0 0 0 0 0.101961 0 0 0 0 0.25098 0 0 0 0.16 0"/>
<feBlend mode="normal" in2="BackgroundImageFix" result="effect1_dropShadow_2002_9"/>
<feBlend mode="normal" in="SourceGraphic" in2="effect1_dropShadow_2002_9" result="shape"/>
</filter>
</defs>
</svg>
