<svg width="319" height="273" viewBox="0 0 319 273" fill="none" xmlns="http://www.w3.org/2000/svg">
<path d="M3.3675 18.18H6.0375V21H3.3675V18.18ZM16.2675 18.18H18.9375V21H16.2675V18.18ZM29.1675 18.18H31.8375V21H29.1675V18.18ZM42.0675 18.18H44.7375V21H42.0675V18.18ZM54.9675 18.18H57.6375V21H54.9675V18.18ZM67.8675 18.18H70.5375V21H67.8675V18.18ZM80.7675 18.18H83.4375V21H80.7675V18.18ZM93.6675 18.18H96.3375V21H93.6675V18.18ZM106.567 18.18H109.237V21H106.567V18.18ZM119.467 18.18H122.137V21H119.467V18.18ZM132.368 18.18H135.038V21H132.368V18.18ZM145.267 18.18H147.937V21H145.267V18.18ZM158.168 18.18H160.838V21H158.168V18.18ZM171.067 18.18H173.737V21H171.067V18.18ZM183.968 18.18H186.638V21H183.968V18.18ZM196.868 18.18H199.538V21H196.868V18.18ZM209.767 18.18H212.437V21H209.767V18.18ZM222.668 18.18H225.338V21H222.668V18.18ZM235.567 18.18H238.237V21H235.567V18.18ZM248.468 18.18H251.138V21H248.468V18.18ZM261.368 18.18H264.038V21H261.368V18.18ZM274.267 18.18H276.937V21H274.267V18.18ZM287.167 18.18H289.837V21H287.167V18.18ZM300.068 18.18H302.738V21H300.068V18.18ZM312.968 18.18H315.638V21H312.968V18.18Z" fill="#FF5E00"/>
<path d="M3.3675 60.18H6.0375V63H3.3675V60.18ZM16.2675 60.18H18.9375V63H16.2675V60.18ZM29.1675 60.18H31.8375V63H29.1675V60.18ZM42.0675 60.18H44.7375V63H42.0675V60.18ZM54.9675 60.18H57.6375V63H54.9675V60.18ZM67.8675 60.18H70.5375V63H67.8675V60.18ZM80.7675 60.18H83.4375V63H80.7675V60.18ZM93.6675 60.18H96.3375V63H93.6675V60.18ZM106.567 60.18H109.237V63H106.567V60.18ZM119.467 60.18H122.137V63H119.467V60.18ZM132.368 60.18H135.038V63H132.368V60.18ZM145.267 60.18H147.937V63H145.267V60.18ZM158.168 60.18H160.838V63H158.168V60.18ZM171.067 60.18H173.737V63H171.067V60.18ZM183.968 60.18H186.638V63H183.968V60.18ZM196.868 60.18H199.538V63H196.868V60.18ZM209.767 60.18H212.437V63H209.767V60.18ZM222.668 60.18H225.338V63H222.668V60.18ZM235.567 60.18H238.237V63H235.567V60.18ZM248.468 60.18H251.138V63H248.468V60.18ZM261.368 60.18H264.038V63H261.368V60.18ZM274.267 60.18H276.937V63H274.267V60.18ZM287.167 60.18H289.837V63H287.167V60.18ZM300.068 60.18H302.738V63H300.068V60.18ZM312.968 60.18H315.638V63H312.968V60.18Z" fill="#FF5E00"/>
<path d="M3.3675 102.18H6.0375V105H3.3675V102.18ZM16.2675 102.18H18.9375V105H16.2675V102.18ZM29.1675 102.18H31.8375V105H29.1675V102.18ZM42.0675 102.18H44.7375V105H42.0675V102.18ZM54.9675 102.18H57.6375V105H54.9675V102.18ZM67.8675 102.18H70.5375V105H67.8675V102.18ZM80.7675 102.18H83.4375V105H80.7675V102.18ZM93.6675 102.18H96.3375V105H93.6675V102.18ZM106.567 102.18H109.237V105H106.567V102.18ZM119.467 102.18H122.137V105H119.467V102.18ZM132.368 102.18H135.038V105H132.368V102.18ZM145.267 102.18H147.937V105H145.267V102.18ZM158.168 102.18H160.838V105H158.168V102.18ZM171.067 102.18H173.737V105H171.067V102.18ZM183.968 102.18H186.638V105H183.968V102.18ZM196.868 102.18H199.538V105H196.868V102.18ZM209.767 102.18H212.437V105H209.767V102.18ZM222.668 102.18H225.338V105H222.668V102.18ZM235.567 102.18H238.237V105H235.567V102.18ZM248.468 102.18H251.138V105H248.468V102.18ZM261.368 102.18H264.038V105H261.368V102.18ZM274.267 102.18H276.937V105H274.267V102.18ZM287.167 102.18H289.837V105H287.167V102.18ZM300.068 102.18H302.738V105H300.068V102.18ZM312.968 102.18H315.638V105H312.968V102.18Z" fill="#FF5E00"/>
<path d="M3.3675 144.18H6.0375V147H3.3675V144.18ZM16.2675 144.18H18.9375V147H16.2675V144.18ZM29.1675 144.18H31.8375V147H29.1675V144.18ZM42.0675 144.18H44.7375V147H42.0675V144.18ZM54.9675 144.18H57.6375V147H54.9675V144.18ZM67.8675 144.18H70.5375V147H67.8675V144.18ZM80.7675 144.18H83.4375V147H80.7675V144.18ZM93.6675 144.18H96.3375V147H93.6675V144.18ZM106.567 144.18H109.237V147H106.567V144.18ZM119.467 144.18H122.137V147H119.467V144.18ZM132.368 144.18H135.038V147H132.368V144.18ZM145.267 144.18H147.937V147H145.267V144.18ZM158.168 144.18H160.838V147H158.168V144.18ZM171.067 144.18H173.737V147H171.067V144.18ZM183.968 144.18H186.638V147H183.968V144.18ZM196.868 144.18H199.538V147H196.868V144.18ZM209.767 144.18H212.437V147H209.767V144.18ZM222.668 144.18H225.338V147H222.668V144.18ZM235.567 144.18H238.237V147H235.567V144.18ZM248.468 144.18H251.138V147H248.468V144.18ZM261.368 144.18H264.038V147H261.368V144.18ZM274.267 144.18H276.937V147H274.267V144.18ZM287.167 144.18H289.837V147H287.167V144.18ZM300.068 144.18H302.738V147H300.068V144.18ZM312.968 144.18H315.638V147H312.968V144.18Z" fill="#FF5E00"/>
<path d="M3.3675 186.18H6.0375V189H3.3675V186.18ZM16.2675 186.18H18.9375V189H16.2675V186.18ZM29.1675 186.18H31.8375V189H29.1675V186.18ZM42.0675 186.18H44.7375V189H42.0675V186.18ZM54.9675 186.18H57.6375V189H54.9675V186.18ZM67.8675 186.18H70.5375V189H67.8675V186.18ZM80.7675 186.18H83.4375V189H80.7675V186.18ZM93.6675 186.18H96.3375V189H93.6675V186.18ZM106.567 186.18H109.237V189H106.567V186.18ZM119.467 186.18H122.137V189H119.467V186.18ZM132.368 186.18H135.038V189H132.368V186.18ZM145.267 186.18H147.937V189H145.267V186.18ZM158.168 186.18H160.838V189H158.168V186.18ZM171.067 186.18H173.737V189H171.067V186.18ZM183.968 186.18H186.638V189H183.968V186.18ZM196.868 186.18H199.538V189H196.868V186.18ZM209.767 186.18H212.437V189H209.767V186.18ZM222.668 186.18H225.338V189H222.668V186.18ZM235.567 186.18H238.237V189H235.567V186.18ZM248.468 186.18H251.138V189H248.468V186.18ZM261.368 186.18H264.038V189H261.368V186.18ZM274.267 186.18H276.937V189H274.267V186.18ZM287.167 186.18H289.837V189H287.167V186.18ZM300.068 186.18H302.738V189H300.068V186.18ZM312.968 186.18H315.638V189H312.968V186.18Z" fill="#FF5E00"/>
<path d="M3.3675 228.18H6.0375V231H3.3675V228.18ZM16.2675 228.18H18.9375V231H16.2675V228.18ZM29.1675 228.18H31.8375V231H29.1675V228.18ZM42.0675 228.18H44.7375V231H42.0675V228.18ZM54.9675 228.18H57.6375V231H54.9675V228.18ZM67.8675 228.18H70.5375V231H67.8675V228.18ZM80.7675 228.18H83.4375V231H80.7675V228.18ZM93.6675 228.18H96.3375V231H93.6675V228.18ZM106.567 228.18H109.237V231H106.567V228.18ZM119.467 228.18H122.137V231H119.467V228.18ZM132.368 228.18H135.038V231H132.368V228.18ZM145.267 228.18H147.937V231H145.267V228.18ZM158.168 228.18H160.838V231H158.168V228.18ZM171.067 228.18H173.737V231H171.067V228.18ZM183.968 228.18H186.638V231H183.968V228.18ZM196.868 228.18H199.538V231H196.868V228.18ZM209.767 228.18H212.437V231H209.767V228.18ZM222.668 228.18H225.338V231H222.668V228.18ZM235.567 228.18H238.237V231H235.567V228.18ZM248.468 228.18H251.138V231H248.468V228.18ZM261.368 228.18H264.038V231H261.368V228.18ZM274.267 228.18H276.937V231H274.267V228.18ZM287.167 228.18H289.837V231H287.167V228.18ZM300.068 228.18H302.738V231H300.068V228.18ZM312.968 228.18H315.638V231H312.968V228.18Z" fill="#FF5E00"/>
<path d="M3.3675 270.18H6.0375V273H3.3675V270.18ZM16.2675 270.18H18.9375V273H16.2675V270.18ZM29.1675 270.18H31.8375V273H29.1675V270.18ZM42.0675 270.18H44.7375V273H42.0675V270.18ZM54.9675 270.18H57.6375V273H54.9675V270.18ZM67.8675 270.18H70.5375V273H67.8675V270.18ZM80.7675 270.18H83.4375V273H80.7675V270.18ZM93.6675 270.18H96.3375V273H93.6675V270.18ZM106.567 270.18H109.237V273H106.567V270.18ZM119.467 270.18H122.137V273H119.467V270.18ZM132.368 270.18H135.038V273H132.368V270.18ZM145.267 270.18H147.937V273H145.267V270.18ZM158.168 270.18H160.838V273H158.168V270.18ZM171.067 270.18H173.737V273H171.067V270.18ZM183.968 270.18H186.638V273H183.968V270.18ZM196.868 270.18H199.538V273H196.868V270.18ZM209.767 270.18H212.437V273H209.767V270.18ZM222.668 270.18H225.338V273H222.668V270.18ZM235.567 270.18H238.237V273H235.567V270.18ZM248.468 270.18H251.138V273H248.468V270.18ZM261.368 270.18H264.038V273H261.368V270.18ZM274.267 270.18H276.937V273H274.267V270.18ZM287.167 270.18H289.837V273H287.167V270.18ZM300.068 270.18H302.738V273H300.068V270.18ZM312.968 270.18H315.638V273H312.968V270.18Z" fill="#FF5E00"/>
</svg>
